<svg xmlns="http://www.w3.org/2000/svg" xmlns:xlink="http://www.w3.org/1999/xlink" xml:space="preserve" version="1.1" style="shape-rendering:geometricPrecision;text-rendering:geometricPrecision;image-rendering:optimizeQuality;" viewBox="0 0 1128.88 1411.1000000000001" x="0px" y="0px" fill-rule="evenodd" clip-rule="evenodd"><defs><style type="text/css">
   
    .fil0 {fill:black}
   
  </style></defs><g><g><path class="fil0" d="M833.88 472.09l-222.12 -222.12c-6.19,-6.19 -13.62,-11.14 -21.92,-14.57 -0.32,-0.14 -0.67,-0.18 -1.02,-0.32 -7.58,-2.98 -15.74,-4.76 -24.38,-4.76 -8.63,0 -16.79,1.78 -24.37,4.76 -0.35,0.14 -0.67,0.18 -1.02,0.32 -8.25,3.38 -15.69,8.33 -21.92,14.57l-222.12 222.12c-26.11,26.06 -26.11,68.43 0,94.48 26.1,26.11 68.38,26.11 94.48,0l108.12 -108.12 0 373.28c0,36.94 29.95,66.83 66.83,66.83 36.89,0 66.83,-29.89 66.83,-66.83l0 -373.28 108.13 108.12c13.05,13.06 30.15,19.56 47.26,19.56 17.11,0 34.21,-6.5 47.27,-19.56 26.05,-26.1 26.05,-68.42 -0.05,-94.48z"/></g></g><text x="0" y="1143.88" fill="#000000" font-size="5px" font-weight="bold" font-family="'Helvetica Neue', Helvetica, Arial-Unicode, Arial, Sans-serif">Created by Ilham Fitrotul Hayat</text><text x="0" y="1148.88" fill="#000000" font-size="5px" font-weight="bold" font-family="'Helvetica Neue', Helvetica, Arial-Unicode, Arial, Sans-serif">from the Noun Project</text></svg>