<svg xmlns="http://www.w3.org/2000/svg" width="190" height="102" viewBox="0 0 190 102">
  <g id="Group_1328" data-name="Group 1328" transform="translate(-852 -392)">
    <rect id="Rectangle_237" data-name="Rectangle 237" width="190" height="102" rx="4" transform="translate(852 392)" fill="#a75be8"/>
    <g id="noun_tired_1917122" transform="translate(924.455 411)" opacity="0.502">
      <g id="Group_1309" data-name="Group 1309">
        <path id="Path_1042" data-name="Path 1042" d="M17.736,43.984A35.072,35.072,0,0,0,2.213,52.539c-3.637,3.728-2.073,6.908-.386,9.279a10.773,10.773,0,0,0,1.189,1.47L7.325,74.6,5.017,88.249a3.97,3.97,0,0,0,3.252,4.576,4.014,4.014,0,0,0,.668.057,3.971,3.971,0,0,0,3.909-3.308L15.3,75.031c-.094.008-.19.014-.285.014A3.178,3.178,0,0,1,11.993,70.9l1.1-3.458-2.672-7.013A42.565,42.565,0,0,1,16.4,57.075l2.206-6.92a3.175,3.175,0,1,1,6.051,1.93L24.2,53.535c2.136-1.431,3.487-3.817,2.707-5.879C25.917,45.043,22.468,42.65,17.736,43.984Z" transform="translate(0 -29.756)" fill="#fff"/>
        <path id="Path_1043" data-name="Path 1043" d="M49.219,59.4a2.54,2.54,0,0,0-3.192,1.648L39.411,81.792a2.54,2.54,0,1,0,4.84,1.543l6.616-20.747A2.54,2.54,0,0,0,49.219,59.4Z" transform="translate(-26.813 -40.451)" fill="#fff"/>
        <ellipse id="Ellipse_4" data-name="Ellipse 4" cx="7.144" cy="7.143" rx="7.144" ry="7.143" transform="translate(27.213 14.977) rotate(-13.273)" fill="#fff"/>
        <path id="Path_1044" data-name="Path 1044" d="M101.964.756c.307-.3.012-.981-.3-.682a4.926,4.926,0,0,0-1.487,3.081c-.137,1.376.879,2.259.994,3.551a3.629,3.629,0,0,1-.795,2.4c-.28.349.14.906.419.559a4.682,4.682,0,0,0,.863-3.75c-.256-1.37-1.233-2.03-.7-3.592A4.092,4.092,0,0,1,101.964.756Z" transform="translate(-68.357 0)" fill="#fff"/>
        <path id="Path_1045" data-name="Path 1045" d="M112.9.756c.307-.3.012-.981-.3-.682a4.932,4.932,0,0,0-1.487,3.081c-.136,1.376.88,2.259.994,3.551a3.629,3.629,0,0,1-.795,2.4c-.28.349.14.906.419.559a4.682,4.682,0,0,0,.863-3.75c-.256-1.37-1.233-2.03-.705-3.592A4.1,4.1,0,0,1,112.9.756Z" transform="translate(-75.817 0)" fill="#fff"/>
        <path id="Path_1046" data-name="Path 1046" d="M123.828.756c.307-.3.012-.981-.3-.682a4.93,4.93,0,0,0-1.487,3.081c-.136,1.376.879,2.259.994,3.551a3.627,3.627,0,0,1-.795,2.4c-.28.349.14.906.419.559a4.684,4.684,0,0,0,.863-3.75c-.256-1.37-1.233-2.03-.705-3.592A4.1,4.1,0,0,1,123.828.756Z" transform="translate(-83.278 0)" fill="#fff"/>
      </g>
    </g>
  </g>
</svg>
