<svg xmlns="http://www.w3.org/2000/svg" width="190" height="102" viewBox="0 0 190 102">
  <g id="Group_1325" data-name="Group 1325" transform="translate(-234 -392)">
    <rect id="Rectangle_240" data-name="Rectangle 240" width="190" height="102" rx="4" transform="translate(234 392)" fill="#2e7df6"/>
    <g id="noun_Blind_41992" transform="translate(293.064 421.139)" opacity="0.502">
      <path id="Path_1039" data-name="Path 1039" d="M48.082,20.612l5.737-5.737A13.613,13.613,0,0,1,41.991,35.2a13.427,13.427,0,0,1-6.728-1.771l5.6-5.6c.283,0,.5.071.779.071a6.5,6.5,0,0,0,6.516-6.516A2.9,2.9,0,0,0,48.082,20.612Zm.071.779a6.5,6.5,0,0,1-6.516,6.516,2.905,2.905,0,0,1-.779-.071l-5.6,5.6A13.613,13.613,0,0,0,55.59,21.6a13.427,13.427,0,0,0-1.771-6.728l-5.737,5.737A2.9,2.9,0,0,1,48.153,21.391Zm29.25.142v-.283h0a2.328,2.328,0,0,0-.5-1.133.553.553,0,0,0-.283-.283,56.7,56.7,0,0,0-7.649-7.224l-1.7-1.275a.978.978,0,0,0-.283-.212c-.567-.425-1.133-.85-1.771-1.275a.069.069,0,0,1-.071-.071c-1.275-.85-2.55-1.7-3.825-2.408l-7.507,7.578A13.613,13.613,0,0,1,41.991,35.273,13.427,13.427,0,0,1,35.263,33.5L29.455,39.31c.85.354,1.771.637,2.691.921h.071c.425.142.85.212,1.275.354.071,0,.142.071.212.071.5.142.921.212,1.416.354a34.306,34.306,0,0,0,9.7.637,27.418,27.418,0,0,0,3.258-.425A34.745,34.745,0,0,0,55.235,39.1c1.416-.567,2.762-1.2,4.108-1.841a52.084,52.084,0,0,0,6.02-3.612c1.275-.921,2.55-1.841,3.754-2.833,1.841-1.487,3.541-3.045,5.241-4.674a19.963,19.963,0,0,0,2.337-2.55,3.892,3.892,0,0,0,.5-.637,2.537,2.537,0,0,0,.283-.779h0v-.425C77.474,21.674,77.4,21.6,77.4,21.533Zm-29.25-.142a2.905,2.905,0,0,0-.071-.779l-7.224,7.224c.283,0,.5.071.779.071A6.5,6.5,0,0,0,48.153,21.391Zm-7.295,6.445,7.224-7.224,5.737-5.737L61.4,7.3l5.241-5.241a1.027,1.027,0,0,0,0-1.487,1.027,1.027,0,0,0-1.487,0L22.869,42.851a1.027,1.027,0,0,0,0,1.487,1.213,1.213,0,0,0,1.558,0l5.1-5.1,5.808-5.808Z" transform="translate(-6.615 -0.25)" fill="#fff"/>
      <path id="Path_1040" data-name="Path 1040" d="M48.034,4.692a40.041,40.041,0,0,0-5.666-1.7,33.274,33.274,0,0,0-12.961-.212A42.646,42.646,0,0,0,18.146,6.746,60.76,60.76,0,0,0,3.131,17.865a19.963,19.963,0,0,0-2.337,2.55,2.74,2.74,0,0,0,0,3.754,56.7,56.7,0,0,0,7.649,7.224,63.453,63.453,0,0,0,7.649,5.241Z" transform="translate(-0.05 -0.832)" fill="#fff"/>
    </g>
  </g>
</svg>
