<svg xmlns="http://www.w3.org/2000/svg" width="190" height="102" viewBox="0 0 190 102">
  <g id="Group_1326" data-name="Group 1326" transform="translate(-440 -392)">
    <rect id="Rectangle_238" data-name="Rectangle 238" width="190" height="102" rx="4" transform="translate(440 392)" fill="#ed6479"/>
    <g id="noun_Walk_1757934" transform="translate(516.447 411)" opacity="0.502">
      <g id="Group_1308" data-name="Group 1308" transform="translate(0 0)">
        <path id="Path_1041" data-name="Path 1041" d="M22.833,38.4l1.449-2.634a24.448,24.448,0,0,1,9.681-9.681c2.305-1.251,3.359-1.581,4.412-1.581l4.873.329c1.449.066,2.5.724,6.717,6.125a18.615,18.615,0,0,0,4.412,4.083l3.029,1.976a2.95,2.95,0,1,1-3.227,4.939l-3.029-1.976a24.13,24.13,0,0,1-5.6-5.071L43.182,46.167l4.61,4.478A13.431,13.431,0,0,1,51.546,57.3l2.7,11a3.552,3.552,0,0,1-2.634,4.281,3.854,3.854,0,0,1-.856.132,3.507,3.507,0,0,1-3.425-2.7l-2.7-11a6.612,6.612,0,0,0-1.844-3.227L38.177,51.3l-.461,3.1a18.14,18.14,0,0,1-1.383,4.544L30.8,70.666a3.635,3.635,0,0,1-3.227,2.042,4.183,4.183,0,0,1-1.515-.329,3.616,3.616,0,0,1-1.712-4.742l5.532-11.723a8.928,8.928,0,0,0,.79-2.568L32.25,42.808l1.12-9.088a19.766,19.766,0,0,0-3.886,4.808l-1.449,2.634a2.933,2.933,0,0,1-2.568,1.515,3.286,3.286,0,0,1-1.383-.329A2.929,2.929,0,0,1,22.833,38.4Z" transform="translate(-22.509 -9.37)" fill="#fff"/>
        <circle id="Ellipse_3" data-name="Ellipse 3" cx="6.52" cy="6.52" r="6.52" transform="matrix(0.108, -0.994, 0.994, 0.108, 12.014, 12.963)" fill="#fff"/>
      </g>
    </g>
  </g>
</svg>
