<svg xmlns="http://www.w3.org/2000/svg" xmlns:xlink="http://www.w3.org/1999/xlink" version="1.1" x="0px" y="0px" viewBox="0 0 25.3 31.75" style="enable-background:new 0 0 25.3 25.4;" xml:space="preserve"><title>Artboard 2 copy 5</title><g><path d="M20.3,2H19V0.9C19,0.4,18.6,0,18.1,0s-0.9,0.4-0.9,0.9V2H8V0.9C8,0.4,7.6,0,7.2,0C6.7,0,6.3,0.4,6.3,0.9V2H5   C2.2,2,0,4.3,0,7v13.3c0,2.8,2.2,5,5,5h15.3c2.8,0,5-2.2,5-5V7C25.3,4.3,23.1,2,20.3,2z M23.7,20.4c0,1.8-1.5,3.3-3.3,3.3H5   c-1.8,0-3.3-1.4-3.3-3.3c0,0,0,0,0,0V7c0-1.8,1.4-3.3,3.3-3.3c0,0,0,0,0.1,0h1.3v1c0,0.5,0.4,0.8,0.9,0.8C7.7,5.5,8,5.2,8,4.7v-1   h9.3v1c0,0.5,0.4,0.9,0.9,0.9S19,5.2,19,4.7v-1h1.3c1.8,0,3.3,1.5,3.3,3.3L23.7,20.4z"/><path d="M17.8,14.7h-1.6c-1.1,0-2,0.9-2,2v1.6c0,1.1,0.9,2,2,2h1.6c1.1,0,2-0.9,2-2v-1.6C19.8,15.6,18.9,14.7,17.8,14.7z"/></g><text x="0" y="40.4" fill="#000000" font-size="5px" font-weight="bold" font-family="'Helvetica Neue', Helvetica, Arial-Unicode, Arial, Sans-serif">Created by Gautam Arora</text><text x="0" y="45.4" fill="#000000" font-size="5px" font-weight="bold" font-family="'Helvetica Neue', Helvetica, Arial-Unicode, Arial, Sans-serif">from the Noun Project</text></svg>