<svg xmlns="http://www.w3.org/2000/svg" width="26" height="31.636" viewBox="0 0 26 31.636">
  <g id="lock_icon" transform="translate(-4.5 0.5)" opacity="0.602">
    <g id="Group_232" data-name="Group 232" transform="translate(5)">
      <path id="Path_62" data-name="Path 62" d="M26.591,11.411V8.226C26.591,3.691,22.513,0,17.5,0S8.409,3.691,8.409,8.226v3.184A4.107,4.107,0,0,0,5,15.449V26.536a4.109,4.109,0,0,0,4.107,4.1H25.893A4.109,4.109,0,0,0,30,26.535V15.448A4.107,4.107,0,0,0,26.591,11.411ZM9.545,8.226c0-3.911,3.568-7.092,7.955-7.092s7.955,3.181,7.955,7.092v3.12H9.545ZM28.864,26.535A2.972,2.972,0,0,1,25.893,29.5H9.107a2.972,2.972,0,0,1-2.971-2.967V15.448a2.972,2.972,0,0,1,2.971-2.967H25.893a2.972,2.972,0,0,1,2.971,2.967Z" transform="translate(-5)" stroke="#000" stroke-width="1"/>
      <path id="Path_63" data-name="Path 63" d="M25.269,28A2.272,2.272,0,0,0,23,30.269v3.4a2.269,2.269,0,1,0,4.539,0v-3.4A2.272,2.272,0,0,0,25.269,28ZM26.4,33.673a1.135,1.135,0,1,1-2.269,0v-3.4a1.135,1.135,0,0,1,2.269,0Z" transform="translate(-12.769 -11.115)" stroke="#000" stroke-width="1"/>
    </g>
  </g>
</svg>
