<svg xmlns="http://www.w3.org/2000/svg" width="190" height="102" viewBox="0 0 190 102">
  <g id="Group_1323" data-name="Group 1323" transform="translate(-440 -721)">
    <rect id="Rectangle_242" data-name="Rectangle 242" width="190" height="102" rx="4" transform="translate(440 721)" fill="#ed6479"/>
    <g id="noun_hourglass_965902" transform="translate(517.57 742)" opacity="0.502">
      <g id="Group_1316" data-name="Group 1316">
        <path id="Path_1056" data-name="Path 1056" d="M20,49a2,2,0,0,0,2,2H38a2,2,0,0,0,2-2V48A10.043,10.043,0,0,0,29.32,38,10.19,10.19,0,0,0,20,48.32Zm2-.68A8.19,8.19,0,0,1,29.45,40H30a7.92,7.92,0,0,1,5.45,2.16A8,8,0,0,1,38,48v1H22Z" transform="translate(-12)" fill="#fff"/>
        <path id="Path_1057" data-name="Path 1057" d="M38,14H22a2,2,0,0,0-2,2v.68A10.19,10.19,0,0,0,29.32,27H30a9.9,9.9,0,0,0,6.82-2.7A10,10,0,0,0,40,17V16A2,2,0,0,0,38,14Zm0,3a8,8,0,0,1-2.54,5.84,7.89,7.89,0,0,1-6,2.14A8.19,8.19,0,0,1,22,16.68V16H38Z" transform="translate(-12)" fill="#fff"/>
        <path id="Path_1058" data-name="Path 1058" d="M44,17V7h1a3,3,0,0,0,3-3V3a3,3,0,0,0-3-3H15a3,3,0,0,0-3,3V4a3,3,0,0,0,3,3h1V17a14,14,0,0,0,8.83,13A14,14,0,0,0,16,43V53H15a3,3,0,0,0-3,3v1a3,3,0,0,0,3,3H45a3,3,0,0,0,3-3V56a3,3,0,0,0-3-3H44V43a14,14,0,0,0-8.83-13A14,14,0,0,0,44,17ZM14,4V3a1,1,0,0,1,1-1H45a1,1,0,0,1,1,1V4a1,1,0,0,1-1,1H15A1,1,0,0,1,14,4ZM46,56v1a1,1,0,0,1-1,1H15a1,1,0,0,1-1-1V56a1,1,0,0,1,1-1H45A1,1,0,0,1,46,56ZM42,43V53H18V43a12,12,0,1,1,24,0ZM30,29A12,12,0,0,1,18,17V7H42V17A12,12,0,0,1,30,29Z" transform="translate(-12)" fill="#fff"/>
      </g>
    </g>
  </g>
</svg>
