<svg xmlns="http://www.w3.org/2000/svg" width="190" height="102" viewBox="0 0 190 102">
  <g id="Group_1324" data-name="Group 1324" transform="translate(-234 -721)">
    <rect id="Rectangle_244" data-name="Rectangle 244" width="190" height="102" rx="4" transform="translate(234 721)" fill="#2e7df6"/>
    <g id="noun_lifting_1786786" transform="translate(308.456 741)" opacity="0.502">
      <g id="Group_1314" data-name="Group 1314" transform="translate(12.615)">
        <path id="Path_1053" data-name="Path 1053" d="M41.873,12.146a5.874,5.874,0,1,1,7.847-2.712A5.87,5.87,0,0,1,41.873,12.146Z" transform="translate(-38.564 -0.987)" fill="#fff"/>
      </g>
      <g id="Group_1315" data-name="Group 1315" transform="translate(0 11.697)">
        <path id="Path_1054" data-name="Path 1054" d="M40.262,24.082v6.294l-2.61-7.452c-1.181-3.466-5.752-5.273-8.407-1.791L20.521,33.69c-2.156,2.574-2.377,6.18.323,8.134L34.752,51.893,29.117,65.272a3.982,3.982,0,1,0,7.578,2.452L43.22,51.593a3.956,3.956,0,0,0-1.188-4.246l-10.48-9.027,1.957-3.652-2.4-6.859a.8.8,0,1,1,1.5-.523l3.229,9.164a3.093,3.093,0,0,0,1.286,1.6L40.262,40v3.08H45.22l2.008,1.247a3.1,3.1,0,0,0,4.266-1c.05-.08.08-.167.122-.25h7.642V24.082ZM57.238,41.058h-5.35a3.084,3.084,0,0,0-1.391-2l-8.216-5.1V26.1H57.238V41.058Z" transform="translate(-18.861 -19.257)" fill="#fff"/>
      </g>
    </g>
  </g>
</svg>
