<svg xmlns="http://www.w3.org/2000/svg" width="190" height="102" viewBox="0 0 190 102">
  <g id="Group_1322" data-name="Group 1322" transform="translate(-646 -721)">
    <rect id="Rectangle_243" data-name="Rectangle 243" width="190" height="102" rx="4" transform="translate(646 721)" fill="#565bce"/>
    <g id="noun_sorting_369453" transform="translate(710.555 743)" opacity="0.502">
      <path id="Path_1055" data-name="Path 1055" d="M57.16,4.2h-16.2a5.556,5.556,0,0,0-5.548,5.548v16.2A5.556,5.556,0,0,0,40.956,31.5h16.2a5.556,5.556,0,0,0,5.548-5.548V9.748A5.556,5.556,0,0,0,57.16,4.2Zm-.126,21.689H41.083V9.874H57.1V25.889ZM1.74,19.332a2.017,2.017,0,0,1,0-2.9L9.053,9.118a2.456,2.456,0,0,1,3.783.378,2.572,2.572,0,0,1-.378,3.152L9.747,15.423H27.464a2.459,2.459,0,1,1,0,4.918H9.747l2.711,2.711a2.49,2.49,0,0,1,.378,3.152,2.456,2.456,0,0,1-3.783.378ZM6.721,61.953h16.2A5.556,5.556,0,0,0,28.473,56.4V40.2a5.556,5.556,0,0,0-5.548-5.548H6.721A5.556,5.556,0,0,0,1.172,40.2V56.4A5.556,5.556,0,0,0,6.721,61.953Zm.126-21.689H22.861V56.279H6.847Zm55.294,6.557a2.017,2.017,0,0,1,0,2.9l-7.314,7.314a2.456,2.456,0,0,1-3.783-.378,2.572,2.572,0,0,1,.378-3.152l2.711-2.711H36.417a2.459,2.459,0,0,1,0-4.918H54.134l-2.711-2.711a2.49,2.49,0,0,1-.378-3.152,2.456,2.456,0,0,1,3.783-.378Z" transform="translate(-1.125 -4.2)" fill="#fff"/>
    </g>
  </g>
</svg>
