<svg xmlns="http://www.w3.org/2000/svg" width="190" height="102" viewBox="0 0 190 102">
  <g id="Group_1321" data-name="Group 1321" transform="translate(-852 -721)">
    <rect id="Rectangle_241" data-name="Rectangle 241" width="190" height="102" rx="4" transform="translate(852 721)" fill="#a75be8"/>
    <g id="noun_confused_2536418" transform="translate(919.454 741)" opacity="0.502">
      <path id="Path_1047" data-name="Path 1047" d="M45.293,34.2H25.337a17.68,17.68,0,0,1-6.8-1.7c1.57-1.178,4.515-2.028,6.739-3.468-2.29-4.187-2.421-5.954-1.963-9.029C23.047,20.065,8.195,27.59,8,32.89c-.2,5.954,9.749,11.188,15.965,11.581L23.178,70.25H47.256l-.2-6.412a4.8,4.8,0,0,0,2.748,1.374,5.267,5.267,0,0,0,2.617-1.178C57.005,60.763,62.5,55.2,62.436,50.49,62.436,43.816,48.7,34.2,45.293,34.2Zm1.963,22.508c-.131.065-.2.2-.327.327L46.6,45.256c2.225,1.178,5.169,3.991,6.608,5.365A30.164,30.164,0,0,1,47.256,56.706Z" transform="translate(-7.996 -8.55)" fill="#fff"/>
      <circle id="Ellipse_5" data-name="Ellipse 5" cx="10.403" cy="10.403" r="10.403" transform="translate(16.395 23.092) rotate(-87.058)" fill="#fff"/>
      <g id="Group_1310" data-name="Group 1310" transform="translate(40.373)">
        <path id="Path_1048" data-name="Path 1048" d="M77.028,7.145c0-.981-.72-1.57-2.028-1.57a4.5,4.5,0,0,0-3.271,1.5L69.7,4.855A6.894,6.894,0,0,1,75.065,2.5c3.141,0,5.3,1.636,5.3,4.58,0,2.813-1.963,3.991-4.318,4.449l-.262,1.309H73.56L73.037,9.3l.131-.131C75.916,9.043,77.028,8.323,77.028,7.145ZM72.841,18.072V14.539h3.533v3.533Z" transform="translate(-69.7 -2.5)" fill="#fff"/>
      </g>
    </g>
  </g>
</svg>
