<svg xmlns="http://www.w3.org/2000/svg" width="112" height="112" viewBox="0 0 112 112">
  <g id="lock" transform="translate(-1018 -16619)">
    <rect id="Rectangle_104" data-name="Rectangle 104" width="112" height="112" rx="12" transform="translate(1018 16619)" fill="rgba(144,144,144,0.5)"/>
    <g id="Group_241" data-name="Group 241" transform="translate(425.998 16026.999)">
      <g id="Path_66" data-name="Path 66" transform="translate(630.064 607)">
        <path id="Path_82" data-name="Path 82" d="M17.612,0A17.612,17.612,0,0,1,35.225,17.613V33.638H0V17.612A17.612,17.612,0,0,1,17.612,0Z" fill="none"/>
        <path id="Path_83" data-name="Path 83" d="M17.612,3A14.612,14.612,0,0,0,3,17.612V30.638H32.225V17.612A14.612,14.612,0,0,0,17.612,3m0-3A17.612,17.612,0,0,1,35.225,17.612V33.638H0V17.612A17.612,17.612,0,0,1,17.612,0Z" fill="#fff" stroke="#fff" stroke-width="3"/>
      </g>
      <path id="Exclusion_1" data-name="Exclusion 1" d="M-10070.644-21411H-10094a15.894,15.894,0,0,1-11.313-4.687A15.9,15.9,0,0,1-10110-21427V-21447a15.9,15.9,0,0,1,4.685-11.316A15.894,15.894,0,0,1-10094-21463h23.356a15.9,15.9,0,0,1,11.312,4.688,15.906,15.906,0,0,1,4.686,11.316V-21427a15.906,15.906,0,0,1-4.686,11.316A15.9,15.9,0,0,1-10070.644-21411Zm-11.679-30.752a4.2,4.2,0,0,0-4.2,4.191v7.271a4.2,4.2,0,0,0,4.2,4.191,4.2,4.2,0,0,0,4.191-4.191v-7.271A4.2,4.2,0,0,0-10082.322-21441.752Z" transform="translate(10730 22099.635)" fill="#fff"/>
    </g>
  </g>
</svg>
