<svg xmlns="http://www.w3.org/2000/svg" width="55.354" height="81.632" viewBox="0 0 55.354 81.632">
  <g id="Group_241" data-name="Group 241" transform="translate(-620 -607)">
    <g id="Path_66" data-name="Path 66" transform="translate(630.064 607)" fill="none">
      <path d="M17.612,0A17.612,17.612,0,0,1,35.225,17.612V33.638H0V17.612A17.612,17.612,0,0,1,17.612,0Z" stroke="none"/>
      <path d="M 17.61248207092285 3 C 13.70934295654297 3 10.03983116149902 4.519960403442383 7.279891967773438 7.279899597167969 C 4.519962310791016 10.03982925415039 3.000003814697266 13.7093505859375 3.000003814697266 17.61248016357422 L 3.000003814697266 30.63768005371094 L 32.22496032714844 30.63768005371094 L 32.22496032714844 17.61248016357422 C 32.22496032714844 13.7093505859375 30.70500183105469 10.03982925415039 27.94507217407227 7.279899597167969 C 25.18513107299805 4.519960403442383 21.51562118530273 3 17.61248207092285 3 M 17.61248207092285 0 C 27.33959197998047 0 35.22496032714844 7.885379791259766 35.22496032714844 17.61248016357422 L 35.22496032714844 33.63768005371094 L 3.814697265625e-06 33.63768005371094 L 3.814697265625e-06 17.61248016357422 C 3.814697265625e-06 7.885379791259766 7.885372161865234 0 17.61248207092285 0 Z" stroke="none" fill="#707070"/>
    </g>
    <g id="Rectangle_65" data-name="Rectangle 65" transform="translate(620 636.634)" fill="#fff" stroke="#707070" stroke-width="3">
      <rect width="55.354" height="51.999" rx="16" stroke="none"/>
      <rect x="1.5" y="1.5" width="52.354" height="48.999" rx="14.5" fill="none"/>
    </g>
    <g id="Rectangle_67" data-name="Rectangle 67" transform="translate(643.483 657.88)" fill="#707070" stroke="#707070" stroke-width="3">
      <rect width="8.387" height="15.656" rx="4.193" stroke="none"/>
      <rect x="1.5" y="1.5" width="5.387" height="12.656" rx="2.693" fill="none"/>
    </g>
  </g>
</svg>
