<svg xmlns="http://www.w3.org/2000/svg" width="55.354" height="81.632" viewBox="0 0 55.354 81.632">
  <g id="Group_241" data-name="Group 241" transform="translate(-620 -607)">
    <g id="Path_66" data-name="Path 66" transform="translate(630.064 607)" fill="none">
      <path d="M17.612,0A17.612,17.612,0,0,1,35.225,17.612V32.536H0V17.612A17.612,17.612,0,0,1,17.612,0Z" stroke="none"/>
      <path d="M 17.61248207092285 2.999996185302734 C 13.70934295654297 2.999996185302734 10.03983116149902 4.519956588745117 7.279891967773438 7.279895782470703 C 4.519962310791016 10.03982734680176 3.000003814697266 13.70934677124023 3.000003814697266 17.61248779296875 L 3.000003814697266 29.53613662719727 L 32.22496032714844 29.53613662719727 L 32.22496032714844 17.61248779296875 C 32.22496032714844 13.70934677124023 30.70500183105469 10.03982734680176 27.94507217407227 7.279895782470703 C 25.18513107299805 4.519956588745117 21.51562118530273 2.999996185302734 17.61248207092285 2.999996185302734 M 17.61248207092285 -3.814697265625e-06 C 27.33959197998047 -3.814697265625e-06 35.22496032714844 7.8853759765625 35.22496032714844 17.61248779296875 L 35.22496032714844 32.53613662719727 L 3.814697265625e-06 32.53613662719727 L 3.814697265625e-06 17.61248779296875 C 3.814697265625e-06 7.8853759765625 7.885372161865234 -3.814697265625e-06 17.61248207092285 -3.814697265625e-06 Z" stroke="none" fill="#707070"/>
    </g>
    <g id="Rectangle_65" data-name="Rectangle 65" transform="translate(620 636.634)" fill="none" stroke="#707070" stroke-width="3">
      <rect width="55.354" height="51.999" rx="16" stroke="none"/>
      <rect x="1.5" y="1.5" width="52.354" height="48.999" rx="14.5" fill="none"/>
    </g>
    <g id="Rectangle_67" data-name="Rectangle 67" transform="translate(643.483 657.88)" fill="#707070" stroke="#707070" stroke-width="3">
      <rect width="8.387" height="15.656" rx="4.193" stroke="none"/>
      <rect x="1.5" y="1.5" width="5.387" height="12.656" rx="2.693" fill="none"/>
    </g>
  </g>
</svg>
