<svg xmlns="http://www.w3.org/2000/svg" width="308.824" height="308.824" viewBox="0 0 308.824 308.824">
  <g id="lock" transform="translate(-1018 -16619)">
    <rect id="Rectangle_104" data-name="Rectangle 104" width="308.824" height="308.824" rx="31" transform="translate(1018 16619)" fill="rgba(144,144,144,0.5)"/>
    <g id="Group_241" data-name="Group 241" transform="translate(1095.198 16660.357)">
      <g id="Path_66" data-name="Path 66" transform="translate(27.753 0)">
        <path id="Path_82" data-name="Path 82" d="M48.563,0A48.563,48.563,0,0,1,97.128,48.568V92.752H0V48.563A48.563,48.563,0,0,1,48.563,0Z" fill="none"/>
        <path id="Path_83" data-name="Path 83" d="M48.563,8.272A40.291,40.291,0,0,0,8.272,48.563V84.48H88.856V48.563A40.291,40.291,0,0,0,48.563,8.272m0-8.272A48.563,48.563,0,0,1,97.128,48.565V92.752H0V48.563A48.563,48.563,0,0,1,48.563,0Z" fill="#fff" stroke="#fff" stroke-width="3"/>
      </g>
      <path id="Exclusion_1" data-name="Exclusion 1" d="M-10001.479-21319.609h-64.4a43.807,43.807,0,0,1-31.193-12.922,43.86,43.86,0,0,1-12.928-31.2l0-55.145a43.852,43.852,0,0,1,12.918-31.211,43.842,43.842,0,0,1,31.2-12.914l64.4.008a43.861,43.861,0,0,1,31.191,12.922,43.862,43.862,0,0,1,12.92,31.211v55.129a43.876,43.876,0,0,1-12.92,31.207,43.862,43.862,0,0,1-31.193,12.914Zm-32.2-84.8a11.573,11.573,0,0,0-11.588,11.555l.006,20.055a11.568,11.568,0,0,0,11.582,11.551,11.579,11.579,0,0,0,11.557-11.559v-20.043a11.58,11.58,0,0,0-11.557-11.562Z" transform="translate(10110 21544.709)" fill="#fff"/>
    </g>
  </g>
</svg>
