<?xml version="1.0" encoding="UTF-8"?>
<svg width="11px" height="16px" viewBox="0 0 11 16" version="1.1" xmlns="http://www.w3.org/2000/svg" xmlns:xlink="http://www.w3.org/1999/xlink">
    <!-- Generator: Sketch 41.2 (35397) - http://www.bohemiancoding.com/sketch -->
    <title>logo</title>
    <desc>Created with Sketch.</desc>
    <defs></defs>
    <g id="Page-1" stroke="none" stroke-width="1" fill="none" fill-rule="evenodd">
        <g id="logo" fill="#EC4C3B">
            <g id="Group">
                <path d="M4.74164134,10.718541 C4.67841945,10.6699088 4.36231003,10.3440729 4.28449848,10.2662614 C4.20668693,10.1835866 4.12401216,10.0863222 4.04133739,9.95987842 C3.6668693,9.4006079 3.30699088,8.37933131 3.49665653,6.60425532 C3.61337386,5.71914894 4.42066869,3.47234043 6.03039514,2.1106383 C6.48753799,1.72158055 8.7100304,-0.311246201 11.1416413,0.855927052 C9.86261398,0.184802432 8.32583587,-0.500911854 5.6899696,0.530091185 C5.67051672,0.539817629 5.64620061,0.549544073 5.62674772,0.554407295 C5.40303951,0.627355623 3.8662614,1.18662614 2.79148936,2.99088146 C1.63404255,4.94103343 2.4656535,8.03890578 3.06382979,8.8218845 C3.06382979,8.8218845 3.31671733,9.24984802 3.60364742,9.60972644 C3.89057751,9.96960486 4.38176292,10.4170213 4.54224924,10.5823708" id="Shape"></path>
                <path d="M0,15.0516717 C0.0680851064,15.0905775 0.486322188,15.2656535 0.588449848,15.3045593 C0.695440729,15.3483283 0.817021277,15.387234 0.958054711,15.4164134 C1.61945289,15.5574468 2.69422492,15.5136778 4.27963526,14.6772036 C5.05775076,14.2395137 6.85227964,12.6589666 7.51367781,10.6601824 C7.70820669,10.0911854 8.77325228,7.27051672 6.79392097,5.44680851 C7.89300912,6.38541033 9.09422492,7.55744681 9.11367781,10.3927052 L9.11367781,10.4607903 C9.12826748,10.6942249 9.18176292,12.3331307 7.89787234,13.9963526 C6.5118541,15.7957447 3.32644377,16.1653495 2.38297872,15.8978723 C2.38297872,15.8978723 1.89179331,15.8200608 1.44924012,15.6887538 C1.00668693,15.5574468 0.41337386,15.2705167 0.199392097,15.1829787" id="Shape"></path>
            </g>
        </g>
    </g>
</svg>