<svg xmlns="http://www.w3.org/2000/svg" width="61.719" height="35.253" viewBox="0 0 61.719 35.253">
  <g id="Group_208" data-name="Group 208" transform="translate(-277.449 -84.136)">
    <path id="Path_59" data-name="Path 59" d="M16142.489,2313.154a7.052,7.052,0,0,1,0-1.7c.131-.477,2.553-3.711,8.826-8.572s13.008-10.118,13.457-14.929-14.65,4.728-18.838,9.457-4.559,7.435-4.477,7.819-.607,3.754,8.51,7.333c3.432,1.776-9.6,7.754-15.426,5.919-3.953-3.212-.021-7.326,6.2-5.919" transform="translate(-15854 -2201)" fill="none" stroke="#ef4343" stroke-width="3"/>
    <path id="Path_60" data-name="Path 60" d="M16182.771,2313.35s-1.035,1.769,2.8.814,6.369-4.525,6.584-5.936-4.4.444-6.584,2.9-3.119,4.38-1.719,5.719,4.932,1.324,7.459,0a48.318,48.318,0,0,0,18.6-15.911c6.953-10.213,6.881-11.636,7.057-13.612s-8.482,8.211-10.687,12.922-6.953,13.354-4.893,16.166,6.115-1.575,6.115-1.575" transform="translate(-15881.732 -2201.262)" fill="none" stroke="#ef4343" stroke-width="3"/>
    <path id="Path_61" data-name="Path 61" d="M16229.74,2330.045s9.3-1.264,10.254.605.549,4.585-1.016,7.256.256,3.39,2.373,2.344,4.445-6.052,4.91-4.475,1.1,1.175,2.459,1.372" transform="translate(-15909.768 -2225.601)" fill="none" stroke="#ef4343" stroke-width="3"/>
  </g>
</svg>
