<?xml version="1.0" encoding="UTF-8"?>
<svg width="1046px" height="189px" viewBox="0 0 1046 189" version="1.1" xmlns="http://www.w3.org/2000/svg" xmlns:xlink="http://www.w3.org/1999/xlink">
    <!-- Generator: Sketch 43.2 (39069) - http://www.bohemiancoding.com/sketch -->
    <title>processdiag</title>
    <desc>Created with Sketch.</desc>
    <defs></defs>
    <g id="Page-1" stroke="none" stroke-width="1" fill="none" fill-rule="evenodd">
        <g id="processdiag">
            <polygon id="Path-15" fill="#1576BE" fill-rule="nonzero" points="339.171573 15 342 17.8284271 350.828427 9 342 0.171572875 339.171573 3 345.171573 9"></polygon>
            <path d="M2.34375,95.875 L2.34375,100 L0.0625,100 L0.0625,88.625 L4.59375,88.625 C5.9010482,88.625 6.92968375,88.95833 7.6796875,89.625 C8.42969125,90.29167 8.8046875,91.1692654 8.8046875,92.2578125 C8.8046875,93.3463596 8.42969125,94.2213509 7.6796875,94.8828125 C6.92968375,95.5442741 5.9010482,95.875 4.59375,95.875 L2.34375,95.875 Z M2.34375,94.1171875 L4.59375,94.1171875 C5.22916984,94.1171875 5.71093586,93.9440121 6.0390625,93.5976562 C6.36718914,93.2513004 6.53125,92.8098985 6.53125,92.2734375 C6.53125,91.7265598 6.36849121,91.2747414 6.04296875,90.9179688 C5.71744629,90.5611961 5.2343782,90.3828125 4.59375,90.3828125 L2.34375,90.3828125 L2.34375,94.1171875 Z M14.7421875,93.5078125 L13.90625,93.484375 C13.5677066,93.484375 13.2890636,93.5546868 13.0703125,93.6953125 C12.8515614,93.8359382 12.6848964,94.0338529 12.5703125,94.2890625 L12.5703125,100 L10.296875,100 L10.296875,91.546875 L12.4140625,91.546875 L12.515625,92.796875 C12.7135427,92.3541645 12.9700505,92.0091158 13.2851562,91.7617188 C13.600262,91.5143217 13.9635396,91.390625 14.375,91.390625 C14.4895839,91.390625 14.5950516,91.3997395 14.6914062,91.4179688 C14.7877609,91.436198 14.8854162,91.4583332 14.984375,91.484375 L14.7421875,93.5078125 Z M15.546875,95.6953125 C15.546875,94.4348895 15.898434,93.4023478 16.6015625,92.5976562 C17.304691,91.7929647 18.2786396,91.390625 19.5234375,91.390625 C20.7734437,91.390625 21.7526006,91.7916627 22.4609375,92.59375 C23.1692744,93.3958373 23.5234375,94.4296812 23.5234375,95.6953125 L23.5234375,95.859375 C23.5234375,97.1302147 23.1705764,98.1653606 22.4648438,98.9648438 C21.7591111,99.7643269 20.7838604,100.164062 19.5390625,100.164062 C18.2890563,100.164062 17.3112014,99.7643269 16.6054688,98.9648438 C15.8997361,98.1653606 15.546875,97.1302147 15.546875,95.859375 L15.546875,95.6953125 Z M17.8203125,95.859375 C17.8203125,96.6302122 17.9557278,97.2486956 18.2265625,97.7148438 C18.4973972,98.1809919 18.9348928,98.4140625 19.5390625,98.4140625 C20.1276071,98.4140625 20.5585924,98.1796898 20.8320312,97.7109375 C21.1054701,97.2421852 21.2421875,96.6250038 21.2421875,95.859375 L21.2421875,95.6953125 C21.2421875,94.9453087 21.104168,94.3333357 20.828125,93.859375 C20.552082,93.3854143 20.1171905,93.1484375 19.5234375,93.1484375 C18.9348929,93.1484375 18.5039076,93.3867164 18.2304688,93.8632812 C17.9570299,94.3398461 17.8203125,94.9505171 17.8203125,95.6953125 L17.8203125,95.859375 Z M24.578125,95.84375 C24.578125,94.51041 24.8658825,93.4348999 25.4414062,92.6171875 C26.01693,91.7994751 26.8281198,91.390625 27.875,91.390625 C28.2968771,91.390625 28.6770816,91.4817699 29.015625,91.6640625 C29.3541684,91.8463551 29.6510404,92.1067691 29.90625,92.4453125 L29.90625,87.8125 L32.1953125,87.8125 L32.1953125,100 L30.234375,100 L30.046875,98.96875 C29.7812487,99.359377 29.4674497,99.656249 29.1054688,99.859375 C28.7434878,100.062501 28.3281273,100.164062 27.859375,100.164062 C26.8229115,100.164062 26.01693,99.783858 25.4414062,99.0234375 C24.8658825,98.263017 24.578125,97.2578187 24.578125,96.0078125 L24.578125,95.84375 Z M26.8515625,96.0078125 C26.8515625,96.7473995 26.9765613,97.329425 27.2265625,97.7539062 C27.4765637,98.1783875 27.8828097,98.390625 28.4453125,98.390625 C28.7734391,98.390625 29.0598946,98.3242194 29.3046875,98.1914062 C29.5494804,98.0585931 29.7499992,97.8645846 29.90625,97.609375 L29.90625,94.0078125 C29.7499992,93.7421862 29.5507825,93.535157 29.3085938,93.3867188 C29.066405,93.2382805 28.7838558,93.1640625 28.4609375,93.1640625 C27.903643,93.1640625 27.496095,93.4114559 27.2382812,93.90625 C26.9804675,94.4010441 26.8515625,95.046871 26.8515625,95.84375 L26.8515625,96.0078125 Z M39.125,98.78125 C38.864582,99.2239605 38.5338562,99.565103 38.1328125,99.8046875 C37.7317688,100.044272 37.2708359,100.164062 36.75,100.164062 C35.8593705,100.164062 35.1627629,99.8789091 34.6601562,99.3085938 C34.1575496,98.7382784 33.90625,97.8515685 33.90625,96.6484375 L33.90625,91.546875 L36.1796875,91.546875 L36.1796875,96.6640625 C36.1796875,97.2786489 36.2838531,97.7200507 36.4921875,97.9882812 C36.7005219,98.2565118 37.0078105,98.390625 37.4140625,98.390625 C37.7786477,98.390625 38.0911445,98.3320318 38.3515625,98.2148438 C38.6119805,98.0976557 38.82552,97.9244803 38.9921875,97.6953125 L38.9921875,91.546875 L41.2734375,91.546875 L41.2734375,100 L39.328125,100 L39.125,98.78125 Z M46.5390625,98.4140625 C46.9453145,98.4140625 47.2708321,98.2955741 47.515625,98.0585938 C47.7604179,97.8216134 47.8828125,97.5052103 47.8828125,97.109375 L49.953125,97.109375 L49.9765625,97.15625 C49.9973959,98.0104209 49.6757846,98.7252575 49.0117188,99.3007812 C48.3476529,99.876305 47.5234424,100.164062 46.5390625,100.164062 C45.2786395,100.164062 44.3072951,99.765629 43.625,98.96875 C42.9427049,98.171871 42.6015625,97.1484437 42.6015625,95.8984375 L42.6015625,95.6640625 C42.6015625,94.4192646 42.9414029,93.3958373 43.6210938,92.59375 C44.3007846,91.7916627 45.270827,91.390625 46.53125,91.390625 C47.5729219,91.390625 48.4127572,91.687497 49.0507812,92.28125 C49.6888053,92.875003 49.9973959,93.6562452 49.9765625,94.625 L49.9609375,94.671875 L47.8828125,94.671875 C47.8828125,94.2343728 47.763022,93.8710952 47.5234375,93.5820312 C47.283853,93.2929673 46.9531271,93.1484375 46.53125,93.1484375 C45.9270803,93.1484375 45.5013033,93.3828102 45.2539062,93.8515625 C45.0065092,94.3203148 44.8828125,94.9244755 44.8828125,95.6640625 L44.8828125,95.8984375 C44.8828125,96.6536496 45.0065092,97.2617164 45.2539062,97.7226562 C45.5013033,98.1835961 45.9296845,98.4140625 46.5390625,98.4140625 Z M53.984375,89.4765625 L53.984375,91.546875 L55.40625,91.546875 L55.40625,93.1484375 L53.984375,93.1484375 L53.984375,97.453125 C53.984375,97.7812516 54.0520827,98.0156243 54.1875,98.15625 C54.3229173,98.2968757 54.5052072,98.3671875 54.734375,98.3671875 C54.8541673,98.3671875 54.9570308,98.3606771 55.0429688,98.3476562 C55.1289067,98.3346354 55.2291661,98.3125002 55.34375,98.28125 L55.5390625,99.9296875 C55.3098947,100.007813 55.0859386,100.066406 54.8671875,100.105469 C54.6484364,100.144531 54.4114596,100.164062 54.15625,100.164062 C53.3697877,100.164062 52.764325,99.9479188 52.3398438,99.515625 C51.9153625,99.0833312 51.703125,98.3984422 51.703125,97.4609375 L51.703125,93.1484375 L50.46875,93.1484375 L50.46875,91.546875 L51.703125,91.546875 L51.703125,89.4765625 L53.984375,89.4765625 Z M64.890625,96.9765625 L65.03125,97.59375 L65.078125,97.59375 L65.2109375,96.9921875 L67.6875,88.625 L70.09375,88.625 L66.2265625,100 L63.8828125,100 L60.0234375,88.625 L62.4296875,88.625 L64.890625,96.9765625 Z M74.359375,100.164062 C73.1406189,100.164062 72.1666703,99.7734414 71.4375,98.9921875 C70.7083297,98.2109336 70.34375,97.218756 70.34375,96.015625 L70.34375,95.703125 C70.34375,94.4479104 70.6887986,93.4140666 71.3789062,92.6015625 C72.0690139,91.7890584 72.9947859,91.3854166 74.15625,91.390625 C75.2968807,91.390625 76.1822885,91.7343716 76.8125,92.421875 C77.4427115,93.1093784 77.7578125,94.0390566 77.7578125,95.2109375 L77.7578125,96.453125 L72.7109375,96.453125 L72.6953125,96.5 C72.7369794,97.0572945 72.9231754,97.5156232 73.2539062,97.875 C73.5846371,98.2343768 74.0338513,98.4140625 74.6015625,98.4140625 C75.1067734,98.4140625 75.52604,98.3632818 75.859375,98.2617188 C76.19271,98.1601557 76.5572897,98.0000011 76.953125,97.78125 L77.5703125,99.1875 C77.2265608,99.4687514 76.7760445,99.701822 76.21875,99.8867188 C75.6614555,100.071616 75.0416701,100.164062 74.359375,100.164062 Z M74.15625,93.1484375 C73.7343729,93.1484375 73.4010429,93.3098942 73.15625,93.6328125 C72.9114571,93.9557308 72.760417,94.3802057 72.703125,94.90625 L72.7265625,94.9453125 L75.5234375,94.9453125 L75.5234375,94.7421875 C75.5234375,94.2578101 75.4101574,93.8710952 75.1835938,93.5820312 C74.9570301,93.2929673 74.6145856,93.1484375 74.15625,93.1484375 Z M83.53125,93.5078125 L82.6953125,93.484375 C82.3567691,93.484375 82.0781261,93.5546868 81.859375,93.6953125 C81.6406239,93.8359382 81.4739589,94.0338529 81.359375,94.2890625 L81.359375,100 L79.0859375,100 L79.0859375,91.546875 L81.203125,91.546875 L81.3046875,92.796875 C81.5026052,92.3541645 81.759113,92.0091158 82.0742188,91.7617188 C82.3893245,91.5143217 82.7526021,91.390625 83.1640625,91.390625 C83.2786464,91.390625 83.3841141,91.3997395 83.4804688,91.4179688 C83.5768234,91.436198 83.6744787,91.4583332 83.7734375,91.484375 L83.53125,93.5078125 Z M89.2578125,97.671875 C89.2578125,97.4218738 89.13672,97.2057301 88.8945312,97.0234375 C88.6523425,96.8411449 88.2031283,96.6796882 87.546875,96.5390625 C86.54687,96.3359365 85.7929713,96.0351582 85.2851562,95.6367188 C84.7773412,95.2382793 84.5234375,94.6953159 84.5234375,94.0078125 C84.5234375,93.2786422 84.829424,92.6601588 85.4414062,92.1523438 C86.0533885,91.6445287 86.8723907,91.390625 87.8984375,91.390625 C88.9765679,91.390625 89.8346322,91.6432266 90.4726562,92.1484375 C91.1106803,92.6536484 91.4166668,93.2916628 91.390625,94.0625 L91.375,94.109375 L89.171875,94.109375 C89.171875,93.7708316 89.0638032,93.4947927 88.8476562,93.28125 C88.6315093,93.0677073 88.3151062,92.9609375 87.8984375,92.9609375 C87.528644,92.9609375 87.2382823,93.0507804 87.0273438,93.2304688 C86.8164052,93.4101571 86.7109375,93.6354153 86.7109375,93.90625 C86.7109375,94.166668 86.8216135,94.3802075 87.0429688,94.546875 C87.264324,94.7135425 87.7135383,94.8619785 88.390625,94.9921875 C89.4322969,95.2005219 90.2057266,95.5065084 90.7109375,95.9101562 C91.2161484,96.3138041 91.46875,96.8697881 91.46875,97.578125 C91.46875,98.3385455 91.1432324,98.959633 90.4921875,99.4414062 C89.8411426,99.9231795 88.9817762,100.164062 87.9140625,100.164062 C86.7890569,100.164062 85.8997429,99.8789091 85.2460938,99.3085938 C84.5924446,98.7382784 84.2812498,98.0885453 84.3125,97.359375 L84.328125,97.3125 L86.4140625,97.3125 C86.4296876,97.7656273 86.5781236,98.093749 86.859375,98.296875 C87.1406264,98.500001 87.5078102,98.6015625 87.9609375,98.6015625 C88.3828146,98.6015625 88.704426,98.51823 88.9257812,98.3515625 C89.1471365,98.184895 89.2578125,97.9583348 89.2578125,97.671875 Z M95.3359375,100 L93.0546875,100 L93.0546875,91.546875 L95.3359375,91.546875 L95.3359375,100 Z M95.3359375,89.5234375 L93.0546875,89.5234375 L93.0546875,87.8125 L95.3359375,87.8125 L95.3359375,89.5234375 Z M96.859375,95.6953125 C96.859375,94.4348895 97.210934,93.4023478 97.9140625,92.5976562 C98.617191,91.7929647 99.5911396,91.390625 100.835938,91.390625 C102.085944,91.390625 103.065101,91.7916627 103.773438,92.59375 C104.481774,93.3958373 104.835938,94.4296812 104.835938,95.6953125 L104.835938,95.859375 C104.835938,97.1302147 104.483076,98.1653606 103.777344,98.9648438 C103.071611,99.7643269 102.09636,100.164062 100.851562,100.164062 C99.6015563,100.164062 98.6237014,99.7643269 97.9179688,98.9648438 C97.2122361,98.1653606 96.859375,97.1302147 96.859375,95.859375 L96.859375,95.6953125 Z M99.1328125,95.859375 C99.1328125,96.6302122 99.2682278,97.2486956 99.5390625,97.7148438 C99.8098972,98.1809919 100.247393,98.4140625 100.851562,98.4140625 C101.440107,98.4140625 101.871092,98.1796898 102.144531,97.7109375 C102.41797,97.2421852 102.554688,96.6250038 102.554688,95.859375 L102.554688,95.6953125 C102.554688,94.9453087 102.416668,94.3333357 102.140625,93.859375 C101.864582,93.3854143 101.42969,93.1484375 100.835938,93.1484375 C100.247393,93.1484375 99.8164076,93.3867164 99.5429688,93.8632812 C99.2695299,94.3398461 99.1328125,94.9505171 99.1328125,95.6953125 L99.1328125,95.859375 Z M108.328125,91.546875 L108.429688,92.7578125 C108.710939,92.3255187 109.05729,91.9895845 109.46875,91.75 C109.88021,91.5104155 110.341143,91.390625 110.851562,91.390625 C111.705733,91.390625 112.372393,91.6588515 112.851562,92.1953125 C113.330732,92.7317735 113.570312,93.5729109 113.570312,94.71875 L113.570312,100 L111.28125,100 L111.28125,94.7265625 C111.28125,94.1588513 111.166668,93.7565116 110.9375,93.5195312 C110.708332,93.2825509 110.361981,93.1640625 109.898438,93.1640625 C109.596353,93.1640625 109.325522,93.2252598 109.085938,93.3476562 C108.846353,93.4700527 108.645834,93.643228 108.484375,93.8671875 L108.484375,100 L106.203125,100 L106.203125,91.546875 L108.328125,91.546875 Z M124.3125,100 L122.03125,100 L122.03125,90.640625 L119.71875,90.640625 L119.71875,89.03125 L124.3125,88.625 L124.3125,100 Z M134.890625,98.25 L139.953125,98.25 L139.953125,100 L132.609375,100 L132.609375,88.625 L134.890625,88.625 L134.890625,98.25 Z M146.039062,100 C145.955729,99.8072907 145.884115,99.6041677 145.824219,99.390625 C145.764323,99.1770823 145.721354,98.9583345 145.695312,98.734375 C145.460936,99.1458354 145.152346,99.4869778 144.769531,99.7578125 C144.386717,100.028647 143.92969,100.164062 143.398438,100.164062 C142.513016,100.164062 141.830732,99.9362002 141.351562,99.4804688 C140.872393,99.0247373 140.632812,98.4036498 140.632812,97.6171875 C140.632812,96.7890584 140.95182,96.1471377 141.589844,95.6914062 C142.227868,95.2356748 143.158848,95.0078125 144.382812,95.0078125 L145.65625,95.0078125 L145.65625,94.3359375 C145.65625,93.9296855 145.54948,93.6145845 145.335938,93.390625 C145.122395,93.1666655 144.807294,93.0546875 144.390625,93.0546875 C144.020831,93.0546875 143.735678,93.1445304 143.535156,93.3242188 C143.334634,93.5039071 143.234375,93.7526026 143.234375,94.0703125 L141.03125,94.0625 L141.023438,94.015625 C140.986979,93.3020798 141.296872,92.6862005 141.953125,92.1679688 C142.609378,91.649737 143.471349,91.390625 144.539062,91.390625 C145.549484,91.390625 146.369789,91.6471329 147,92.1601562 C147.630211,92.6731796 147.945312,93.4036411 147.945312,94.3515625 L147.945312,97.84375 C147.945312,98.2395853 147.97526,98.6119774 148.035156,98.9609375 C148.095052,99.3098976 148.190104,99.6562483 148.320312,100 L146.039062,100 Z M143.953125,98.4765625 C144.354169,98.4765625 144.710936,98.3776052 145.023438,98.1796875 C145.335939,97.9817698 145.546874,97.7526055 145.65625,97.4921875 L145.65625,96.296875 L144.382812,96.296875 C143.898435,96.296875 143.531251,96.4179675 143.28125,96.6601562 C143.031249,96.902345 142.90625,97.1953108 142.90625,97.5390625 C142.90625,97.8203139 142.999999,98.0468741 143.1875,98.21875 C143.375001,98.3906259 143.630207,98.4765625 143.953125,98.4765625 Z M154.835938,98.78125 C154.57552,99.2239605 154.244794,99.565103 153.84375,99.8046875 C153.442706,100.044272 152.981773,100.164062 152.460938,100.164062 C151.570308,100.164062 150.8737,99.8789091 150.371094,99.3085938 C149.868487,98.7382784 149.617188,97.8515685 149.617188,96.6484375 L149.617188,91.546875 L151.890625,91.546875 L151.890625,96.6640625 C151.890625,97.2786489 151.994791,97.7200507 152.203125,97.9882812 C152.411459,98.2565118 152.718748,98.390625 153.125,98.390625 C153.489585,98.390625 153.802082,98.3320318 154.0625,98.2148438 C154.322918,98.0976557 154.536457,97.9244803 154.703125,97.6953125 L154.703125,91.546875 L156.984375,91.546875 L156.984375,100 L155.039062,100 L154.835938,98.78125 Z M160.789062,91.546875 L160.890625,92.7578125 C161.171876,92.3255187 161.518227,91.9895845 161.929688,91.75 C162.341148,91.5104155 162.802081,91.390625 163.3125,91.390625 C164.166671,91.390625 164.833331,91.6588515 165.3125,92.1953125 C165.791669,92.7317735 166.03125,93.5729109 166.03125,94.71875 L166.03125,100 L163.742188,100 L163.742188,94.7265625 C163.742188,94.1588513 163.627605,93.7565116 163.398438,93.5195312 C163.16927,93.2825509 162.822919,93.1640625 162.359375,93.1640625 C162.05729,93.1640625 161.78646,93.2252598 161.546875,93.3476562 C161.30729,93.4700527 161.106772,93.643228 160.945312,93.8671875 L160.945312,100 L158.664062,100 L158.664062,91.546875 L160.789062,91.546875 Z M171.28125,98.4140625 C171.687502,98.4140625 172.01302,98.2955741 172.257812,98.0585938 C172.502605,97.8216134 172.625,97.5052103 172.625,97.109375 L174.695312,97.109375 L174.71875,97.15625 C174.739583,98.0104209 174.417972,98.7252575 173.753906,99.3007812 C173.08984,99.876305 172.26563,100.164062 171.28125,100.164062 C170.020827,100.164062 169.049483,99.765629 168.367188,98.96875 C167.684892,98.171871 167.34375,97.1484437 167.34375,95.8984375 L167.34375,95.6640625 C167.34375,94.4192646 167.68359,93.3958373 168.363281,92.59375 C169.042972,91.7916627 170.013015,91.390625 171.273438,91.390625 C172.315109,91.390625 173.154945,91.687497 173.792969,92.28125 C174.430993,92.875003 174.739583,93.6562452 174.71875,94.625 L174.703125,94.671875 L172.625,94.671875 C172.625,94.2343728 172.50521,93.8710952 172.265625,93.5820312 C172.02604,93.2929673 171.695315,93.1484375 171.273438,93.1484375 C170.669268,93.1484375 170.243491,93.3828102 169.996094,93.8515625 C169.748697,94.3203148 169.625,94.9244755 169.625,95.6640625 L169.625,95.8984375 C169.625,96.6536496 169.748697,97.2617164 169.996094,97.7226562 C170.243491,98.1835961 170.671872,98.4140625 171.28125,98.4140625 Z M178.242188,92.6171875 C178.507814,92.2317689 178.833331,91.9309907 179.21875,91.7148438 C179.604169,91.4986968 180.031248,91.390625 180.5,91.390625 C181.380213,91.390625 182.071612,91.6835908 182.574219,92.2695312 C183.076825,92.8554717 183.328125,93.7604105 183.328125,94.984375 L183.328125,100 L181.046875,100 L181.046875,94.96875 C181.046875,94.3124967 180.930991,93.8476576 180.699219,93.5742188 C180.467447,93.3007799 180.122398,93.1640625 179.664062,93.1640625 C179.351561,93.1640625 179.075522,93.2200515 178.835938,93.3320312 C178.596353,93.444011 178.398438,93.6015615 178.242188,93.8046875 L178.242188,100 L175.960938,100 L175.960938,87.8125 L178.242188,87.8125 L178.242188,92.6171875 Z" id="Product-Version-1-La" fill="#032A2F"></path>
            <path d="M659.484375,100 L657.203125,100 L657.203125,88.625 L659.484375,88.625 L659.484375,100 Z M661.21875,95.84375 C661.21875,94.51041 661.506508,93.4348999 662.082031,92.6171875 C662.657555,91.7994751 663.468745,91.390625 664.515625,91.390625 C664.937502,91.390625 665.317707,91.4817699 665.65625,91.6640625 C665.994793,91.8463551 666.291665,92.1067691 666.546875,92.4453125 L666.546875,87.8125 L668.835938,87.8125 L668.835938,100 L666.875,100 L666.6875,98.96875 C666.421874,99.359377 666.108075,99.656249 665.746094,99.859375 C665.384113,100.062501 664.968752,100.164062 664.5,100.164062 C663.463536,100.164062 662.657555,99.783858 662.082031,99.0234375 C661.506508,98.263017 661.21875,97.2578187 661.21875,96.0078125 L661.21875,95.84375 Z M663.492188,96.0078125 C663.492188,96.7473995 663.617186,97.329425 663.867188,97.7539062 C664.117189,98.1783875 664.523435,98.390625 665.085938,98.390625 C665.414064,98.390625 665.70052,98.3242194 665.945312,98.1914062 C666.190105,98.0585931 666.390624,97.8645846 666.546875,97.609375 L666.546875,94.0078125 C666.390624,93.7421862 666.191407,93.535157 665.949219,93.3867188 C665.70703,93.2382805 665.424481,93.1640625 665.101562,93.1640625 C664.544268,93.1640625 664.13672,93.4114559 663.878906,93.90625 C663.621092,94.4010441 663.492188,95.046871 663.492188,95.84375 L663.492188,96.0078125 Z M674.34375,100.164062 C673.124994,100.164062 672.151045,99.7734414 671.421875,98.9921875 C670.692705,98.2109336 670.328125,97.218756 670.328125,96.015625 L670.328125,95.703125 C670.328125,94.4479104 670.673174,93.4140666 671.363281,92.6015625 C672.053389,91.7890584 672.979161,91.3854166 674.140625,91.390625 C675.281256,91.390625 676.166664,91.7343716 676.796875,92.421875 C677.427086,93.1093784 677.742188,94.0390566 677.742188,95.2109375 L677.742188,96.453125 L672.695312,96.453125 L672.679688,96.5 C672.721354,97.0572945 672.90755,97.5156232 673.238281,97.875 C673.569012,98.2343768 674.018226,98.4140625 674.585938,98.4140625 C675.091148,98.4140625 675.510415,98.3632818 675.84375,98.2617188 C676.177085,98.1601557 676.541665,98.0000011 676.9375,97.78125 L677.554688,99.1875 C677.210936,99.4687514 676.760419,99.701822 676.203125,99.8867188 C675.645831,100.071616 675.026045,100.164062 674.34375,100.164062 Z M674.140625,93.1484375 C673.718748,93.1484375 673.385418,93.3098942 673.140625,93.6328125 C672.895832,93.9557308 672.744792,94.3802057 672.6875,94.90625 L672.710938,94.9453125 L675.507812,94.9453125 L675.507812,94.7421875 C675.507812,94.2578101 675.394532,93.8710952 675.167969,93.5820312 C674.941405,93.2929673 674.598961,93.1484375 674.140625,93.1484375 Z M684.03125,100 C683.947916,99.8072907 683.876302,99.6041677 683.816406,99.390625 C683.75651,99.1770823 683.713542,98.9583345 683.6875,98.734375 C683.453124,99.1458354 683.144533,99.4869778 682.761719,99.7578125 C682.378904,100.028647 681.921878,100.164062 681.390625,100.164062 C680.505204,100.164062 679.822919,99.9362002 679.34375,99.4804688 C678.864581,99.0247373 678.625,98.4036498 678.625,97.6171875 C678.625,96.7890584 678.944007,96.1471377 679.582031,95.6914062 C680.220055,95.2356748 681.151036,95.0078125 682.375,95.0078125 L683.648438,95.0078125 L683.648438,94.3359375 C683.648438,93.9296855 683.541668,93.6145845 683.328125,93.390625 C683.114582,93.1666655 682.799481,93.0546875 682.382812,93.0546875 C682.013019,93.0546875 681.727866,93.1445304 681.527344,93.3242188 C681.326822,93.5039071 681.226562,93.7526026 681.226562,94.0703125 L679.023438,94.0625 L679.015625,94.015625 C678.979166,93.3020798 679.289059,92.6862005 679.945312,92.1679688 C680.601566,91.649737 681.463536,91.390625 682.53125,91.390625 C683.541672,91.390625 684.361976,91.6471329 684.992188,92.1601562 C685.622399,92.6731796 685.9375,93.4036411 685.9375,94.3515625 L685.9375,97.84375 C685.9375,98.2395853 685.967448,98.6119774 686.027344,98.9609375 C686.08724,99.3098976 686.182291,99.6562483 686.3125,100 L684.03125,100 Z M681.945312,98.4765625 C682.346356,98.4765625 682.703123,98.3776052 683.015625,98.1796875 C683.328127,97.9817698 683.539062,97.7526055 683.648438,97.4921875 L683.648438,96.296875 L682.375,96.296875 C681.890623,96.296875 681.523439,96.4179675 681.273438,96.6601562 C681.023436,96.902345 680.898438,97.1953108 680.898438,97.5390625 C680.898438,97.8203139 680.992187,98.0468741 681.179688,98.21875 C681.367188,98.3906259 681.622394,98.4765625 681.945312,98.4765625 Z M690.375,89.4765625 L690.375,91.546875 L691.796875,91.546875 L691.796875,93.1484375 L690.375,93.1484375 L690.375,97.453125 C690.375,97.7812516 690.442708,98.0156243 690.578125,98.15625 C690.713542,98.2968757 690.895832,98.3671875 691.125,98.3671875 C691.244792,98.3671875 691.347656,98.3606771 691.433594,98.3476562 C691.519532,98.3346354 691.619791,98.3125002 691.734375,98.28125 L691.929688,99.9296875 C691.70052,100.007813 691.476564,100.066406 691.257812,100.105469 C691.039061,100.144531 690.802085,100.164062 690.546875,100.164062 C689.760413,100.164062 689.15495,99.9479188 688.730469,99.515625 C688.305987,99.0833312 688.09375,98.3984422 688.09375,97.4609375 L688.09375,93.1484375 L686.859375,93.1484375 L686.859375,91.546875 L688.09375,91.546875 L688.09375,89.4765625 L690.375,89.4765625 Z M695.648438,100 L693.367188,100 L693.367188,91.546875 L695.648438,91.546875 L695.648438,100 Z M695.648438,89.5234375 L693.367188,89.5234375 L693.367188,87.8125 L695.648438,87.8125 L695.648438,89.5234375 Z M697.171875,95.6953125 C697.171875,94.4348895 697.523434,93.4023478 698.226562,92.5976562 C698.929691,91.7929647 699.90364,91.390625 701.148438,91.390625 C702.398444,91.390625 703.377601,91.7916627 704.085938,92.59375 C704.794274,93.3958373 705.148438,94.4296812 705.148438,95.6953125 L705.148438,95.859375 C705.148438,97.1302147 704.795576,98.1653606 704.089844,98.9648438 C703.384111,99.7643269 702.40886,100.164062 701.164062,100.164062 C699.914056,100.164062 698.936201,99.7643269 698.230469,98.9648438 C697.524736,98.1653606 697.171875,97.1302147 697.171875,95.859375 L697.171875,95.6953125 Z M699.445312,95.859375 C699.445312,96.6302122 699.580728,97.2486956 699.851562,97.7148438 C700.122397,98.1809919 700.559893,98.4140625 701.164062,98.4140625 C701.752607,98.4140625 702.183592,98.1796898 702.457031,97.7109375 C702.73047,97.2421852 702.867188,96.6250038 702.867188,95.859375 L702.867188,95.6953125 C702.867188,94.9453087 702.729168,94.3333357 702.453125,93.859375 C702.177082,93.3854143 701.74219,93.1484375 701.148438,93.1484375 C700.559893,93.1484375 700.128908,93.3867164 699.855469,93.8632812 C699.58203,94.3398461 699.445312,94.9505171 699.445312,95.6953125 L699.445312,95.859375 Z M708.640625,91.546875 L708.742188,92.7578125 C709.023439,92.3255187 709.36979,91.9895845 709.78125,91.75 C710.19271,91.5104155 710.653643,91.390625 711.164062,91.390625 C712.018233,91.390625 712.684893,91.6588515 713.164062,92.1953125 C713.643232,92.7317735 713.882812,93.5729109 713.882812,94.71875 L713.882812,100 L711.59375,100 L711.59375,94.7265625 C711.59375,94.1588513 711.479168,93.7565116 711.25,93.5195312 C711.020832,93.2825509 710.674481,93.1640625 710.210938,93.1640625 C709.908853,93.1640625 709.638022,93.2252598 709.398438,93.3476562 C709.158853,93.4700527 708.958334,93.643228 708.796875,93.8671875 L708.796875,100 L706.515625,100 L706.515625,91.546875 L708.640625,91.546875 Z" id="Ideation" fill="#032A2F"></path>
            <path d="M825.839844,78.625 L825.839844,86.171875 C825.839844,87.447923 825.417973,88.4322882 824.574219,89.125 C823.730465,89.8177118 822.626309,90.1640625 821.261719,90.1640625 C819.902337,90.1640625 818.804692,89.8177118 817.96875,89.125 C817.132808,88.4322882 816.714844,87.447923 816.714844,86.171875 L816.714844,78.625 L819.003906,78.625 L819.003906,86.171875 C819.003906,86.9218787 819.204425,87.4830711 819.605469,87.8554688 C820.006512,88.2278664 820.55859,88.4140625 821.261719,88.4140625 C821.975264,88.4140625 822.535154,88.2291685 822.941406,87.859375 C823.347658,87.4895815 823.550781,86.9270871 823.550781,86.171875 L823.550781,78.625 L825.839844,78.625 Z M832.214844,87.671875 C832.214844,87.4218738 832.093751,87.2057301 831.851562,87.0234375 C831.609374,86.8411449 831.16016,86.6796882 830.503906,86.5390625 C829.503901,86.3359365 828.750003,86.0351582 828.242188,85.6367188 C827.734372,85.2382793 827.480469,84.6953159 827.480469,84.0078125 C827.480469,83.2786422 827.786455,82.6601588 828.398438,82.1523438 C829.01042,81.6445287 829.829422,81.390625 830.855469,81.390625 C831.933599,81.390625 832.791663,81.6432266 833.429688,82.1484375 C834.067712,82.6536484 834.373698,83.2916628 834.347656,84.0625 L834.332031,84.109375 L832.128906,84.109375 C832.128906,83.7708316 832.020834,83.4947927 831.804688,83.28125 C831.588541,83.0677073 831.272137,82.9609375 830.855469,82.9609375 C830.485675,82.9609375 830.195314,83.0507804 829.984375,83.2304688 C829.773436,83.4101571 829.667969,83.6354153 829.667969,83.90625 C829.667969,84.166668 829.778645,84.3802075 830,84.546875 C830.221355,84.7135425 830.67057,84.8619785 831.347656,84.9921875 C832.389328,85.2005219 833.162758,85.5065084 833.667969,85.9101562 C834.17318,86.3138041 834.425781,86.8697881 834.425781,87.578125 C834.425781,88.3385455 834.100264,88.959633 833.449219,89.4414062 C832.798174,89.9231795 831.938807,90.1640625 830.871094,90.1640625 C829.746088,90.1640625 828.856774,89.8789091 828.203125,89.3085938 C827.549476,88.7382784 827.238281,88.0885453 827.269531,87.359375 L827.285156,87.3125 L829.371094,87.3125 C829.386719,87.7656273 829.535155,88.093749 829.816406,88.296875 C830.097658,88.500001 830.464841,88.6015625 830.917969,88.6015625 C831.339846,88.6015625 831.661457,88.51823 831.882812,88.3515625 C832.104168,88.184895 832.214844,87.9583348 832.214844,87.671875 Z M840.855469,90 C840.772135,89.8072907 840.700521,89.6041677 840.640625,89.390625 C840.580729,89.1770823 840.537761,88.9583345 840.511719,88.734375 C840.277343,89.1458354 839.968752,89.4869778 839.585938,89.7578125 C839.203123,90.0286472 838.746096,90.1640625 838.214844,90.1640625 C837.329423,90.1640625 836.647138,89.9362002 836.167969,89.4804688 C835.6888,89.0247373 835.449219,88.4036498 835.449219,87.6171875 C835.449219,86.7890584 835.768226,86.1471377 836.40625,85.6914062 C837.044274,85.2356748 837.975254,85.0078125 839.199219,85.0078125 L840.472656,85.0078125 L840.472656,84.3359375 C840.472656,83.9296855 840.365886,83.6145845 840.152344,83.390625 C839.938801,83.1666655 839.6237,83.0546875 839.207031,83.0546875 C838.837238,83.0546875 838.552084,83.1445304 838.351562,83.3242188 C838.151041,83.5039071 838.050781,83.7526026 838.050781,84.0703125 L835.847656,84.0625 L835.839844,84.015625 C835.803385,83.3020798 836.113278,82.6862005 836.769531,82.1679688 C837.425785,81.649737 838.287755,81.390625 839.355469,81.390625 C840.36589,81.390625 841.186195,81.6471329 841.816406,82.1601562 C842.446618,82.6731796 842.761719,83.4036411 842.761719,84.3515625 L842.761719,87.84375 C842.761719,88.2395853 842.791666,88.6119774 842.851562,88.9609375 C842.911459,89.3098976 843.00651,89.6562483 843.136719,90 L840.855469,90 Z M838.769531,88.4765625 C839.170575,88.4765625 839.527342,88.3776052 839.839844,88.1796875 C840.152345,87.9817698 840.363281,87.7526055 840.472656,87.4921875 L840.472656,86.296875 L839.199219,86.296875 C838.714841,86.296875 838.347657,86.4179675 838.097656,86.6601562 C837.847655,86.902345 837.722656,87.1953108 837.722656,87.5390625 C837.722656,87.8203139 837.816405,88.0468741 838.003906,88.21875 C838.191407,88.3906259 838.446613,88.4765625 838.769531,88.4765625 Z M852.113281,86.0078125 C852.113281,87.2682355 851.832034,88.2760379 851.269531,89.03125 C850.707028,89.7864621 849.894537,90.1640625 848.832031,90.1640625 C848.342445,90.1640625 847.914064,90.0611989 847.546875,89.8554688 C847.179686,89.6497386 846.868491,89.3489603 846.613281,88.953125 L846.441406,90 L844.488281,90 L844.488281,77.8125 L846.761719,77.8125 L846.761719,82.4453125 C847.006512,82.1067691 847.299477,81.8463551 847.640625,81.6640625 C847.981773,81.4817699 848.373696,81.390625 848.816406,81.390625 C849.889328,81.390625 850.707028,81.7955689 851.269531,82.6054688 C851.832034,83.4153686 852.113281,84.4947849 852.113281,85.84375 L852.113281,86.0078125 Z M849.839844,85.84375 C849.839844,85.0208292 849.718751,84.368492 849.476562,83.8867188 C849.234374,83.4049455 848.821618,83.1640625 848.238281,83.1640625 C847.884113,83.1640625 847.584637,83.2382805 847.339844,83.3867188 C847.095051,83.535157 846.902344,83.7473945 846.761719,84.0234375 L846.761719,87.6015625 C846.902344,87.8567721 847.096353,88.0520827 847.34375,88.1875 C847.591147,88.3229173 847.894529,88.390625 848.253906,88.390625 C848.842451,88.390625 849.253905,88.1835958 849.488281,87.7695312 C849.722657,87.3554667 849.839844,86.768233 849.839844,86.0078125 L849.839844,85.84375 Z M855.917969,90 L853.636719,90 L853.636719,81.546875 L855.917969,81.546875 L855.917969,90 Z M855.917969,79.5234375 L853.636719,79.5234375 L853.636719,77.8125 L855.917969,77.8125 L855.917969,79.5234375 Z M860.191406,90 L857.910156,90 L857.910156,77.8125 L860.191406,77.8125 L860.191406,90 Z M864.464844,90 L862.183594,90 L862.183594,81.546875 L864.464844,81.546875 L864.464844,90 Z M864.464844,79.5234375 L862.183594,79.5234375 L862.183594,77.8125 L864.464844,77.8125 L864.464844,79.5234375 Z M869.050781,79.4765625 L869.050781,81.546875 L870.472656,81.546875 L870.472656,83.1484375 L869.050781,83.1484375 L869.050781,87.453125 C869.050781,87.7812516 869.118489,88.0156243 869.253906,88.15625 C869.389324,88.2968757 869.571613,88.3671875 869.800781,88.3671875 C869.920574,88.3671875 870.023437,88.3606771 870.109375,88.3476562 C870.195313,88.3346354 870.295572,88.3125002 870.410156,88.28125 L870.605469,89.9296875 C870.376301,90.0078129 870.152345,90.0664061 869.933594,90.1054688 C869.714843,90.1445314 869.477866,90.1640625 869.222656,90.1640625 C868.436194,90.1640625 867.830731,89.9479188 867.40625,89.515625 C866.981769,89.0833312 866.769531,88.3984422 866.769531,87.4609375 L866.769531,83.1484375 L865.535156,83.1484375 L865.535156,81.546875 L866.769531,81.546875 L866.769531,79.4765625 L869.050781,79.4765625 Z M874.972656,86.453125 L875.066406,86.921875 L875.113281,86.921875 L876.730469,81.546875 L879.183594,81.546875 L875.753906,91.265625 C875.514322,91.8697947 875.188804,92.3789042 874.777344,92.7929688 C874.365883,93.2070333 873.748702,93.4140625 872.925781,93.4140625 C872.733072,93.4140625 872.554688,93.3984377 872.390625,93.3671875 C872.226562,93.3359373 872.027345,93.291667 871.792969,93.234375 L872.058594,91.5703125 C872.126302,91.5807292 872.199218,91.5911458 872.277344,91.6015625 C872.355469,91.6119792 872.425781,91.6171875 872.488281,91.6171875 C872.863283,91.6171875 873.152343,91.5247405 873.355469,91.3398438 C873.558595,91.154947 873.714843,90.9244805 873.824219,90.6484375 L874.089844,89.9921875 L871.089844,81.546875 L873.542969,81.546875 L874.972656,86.453125 Z M827.308594,108.03125 C827.308594,107.593748 827.153647,107.242189 826.84375,106.976562 C826.533853,106.710936 825.990889,106.460939 825.214844,106.226562 C823.86067,105.835936 822.837243,105.372399 822.144531,104.835938 C821.451819,104.299476 821.105469,103.565109 821.105469,102.632812 C821.105469,101.700516 821.5026,100.938805 822.296875,100.347656 C823.09115,99.7565075 824.105463,99.4609375 825.339844,99.4609375 C826.58985,99.4609375 827.608069,99.7929654 828.394531,100.457031 C829.180994,101.121097 829.561198,101.940099 829.535156,102.914062 L829.519531,102.960938 L827.308594,102.960938 C827.308594,102.434893 827.132814,102.009116 826.78125,101.683594 C826.429686,101.358071 825.936201,101.195312 825.300781,101.195312 C824.691403,101.195312 824.220054,101.330728 823.886719,101.601562 C823.553384,101.872397 823.386719,102.218748 823.386719,102.640625 C823.386719,103.026044 823.565102,103.342447 823.921875,103.589844 C824.278648,103.837241 824.894527,104.098957 825.769531,104.375 C827.024746,104.72396 827.975257,105.184893 828.621094,105.757812 C829.26693,106.330732 829.589844,107.083329 829.589844,108.015625 C829.589844,108.989588 829.205733,109.75781 828.4375,110.320312 C827.669267,110.882815 826.654954,111.164062 825.394531,111.164062 C824.154942,111.164062 823.074223,110.845055 822.152344,110.207031 C821.230464,109.569007 820.782552,108.674485 820.808594,107.523438 L820.824219,107.476562 L823.042969,107.476562 C823.042969,108.153649 823.249998,108.649738 823.664062,108.964844 C824.078127,109.279949 824.654944,109.4375 825.394531,109.4375 C826.014326,109.4375 826.48828,109.309897 826.816406,109.054688 C827.144533,108.799478 827.308594,108.458335 827.308594,108.03125 Z M833.839844,100.476562 L833.839844,102.546875 L835.261719,102.546875 L835.261719,104.148438 L833.839844,104.148438 L833.839844,108.453125 C833.839844,108.781252 833.907551,109.015624 834.042969,109.15625 C834.178386,109.296876 834.360676,109.367188 834.589844,109.367188 C834.709636,109.367188 834.8125,109.360677 834.898438,109.347656 C834.984375,109.334635 835.084635,109.3125 835.199219,109.28125 L835.394531,110.929688 C835.165363,111.007813 834.941407,111.066406 834.722656,111.105469 C834.503905,111.144531 834.266928,111.164062 834.011719,111.164062 C833.225256,111.164062 832.619794,110.947919 832.195312,110.515625 C831.770831,110.083331 831.558594,109.398442 831.558594,108.460938 L831.558594,104.148438 L830.324219,104.148438 L830.324219,102.546875 L831.558594,102.546875 L831.558594,100.476562 L833.839844,100.476562 Z M841.878906,109.78125 C841.618488,110.223961 841.287762,110.565103 840.886719,110.804688 C840.485675,111.044272 840.024742,111.164062 839.503906,111.164062 C838.613277,111.164062 837.916669,110.878909 837.414062,110.308594 C836.911456,109.738278 836.660156,108.851569 836.660156,107.648438 L836.660156,102.546875 L838.933594,102.546875 L838.933594,107.664062 C838.933594,108.278649 839.037759,108.720051 839.246094,108.988281 C839.454428,109.256512 839.761717,109.390625 840.167969,109.390625 C840.532554,109.390625 840.845051,109.332032 841.105469,109.214844 C841.365887,109.097656 841.579426,108.92448 841.746094,108.695312 L841.746094,102.546875 L844.027344,102.546875 L844.027344,111 L842.082031,111 L841.878906,109.78125 Z M845.394531,106.84375 C845.394531,105.51041 845.682289,104.4349 846.257812,103.617188 C846.833336,102.799475 847.644526,102.390625 848.691406,102.390625 C849.113283,102.390625 849.493488,102.48177 849.832031,102.664062 C850.170575,102.846355 850.467447,103.106769 850.722656,103.445312 L850.722656,98.8125 L853.011719,98.8125 L853.011719,111 L851.050781,111 L850.863281,109.96875 C850.597655,110.359377 850.283856,110.656249 849.921875,110.859375 C849.559894,111.062501 849.144534,111.164062 848.675781,111.164062 C847.639318,111.164062 846.833336,110.783858 846.257812,110.023438 C845.682289,109.263017 845.394531,108.257819 845.394531,107.007812 L845.394531,106.84375 Z M847.667969,107.007812 C847.667969,107.7474 847.792968,108.329425 848.042969,108.753906 C848.29297,109.178388 848.699216,109.390625 849.261719,109.390625 C849.589845,109.390625 849.876301,109.324219 850.121094,109.191406 C850.365887,109.058593 850.566405,108.864585 850.722656,108.609375 L850.722656,105.007812 C850.566405,104.742186 850.367189,104.535157 850.125,104.386719 C849.882811,104.238281 849.600262,104.164062 849.277344,104.164062 C848.720049,104.164062 848.312501,104.411456 848.054688,104.90625 C847.796874,105.401044 847.667969,106.046871 847.667969,106.84375 L847.667969,107.007812 Z M857.175781,111 L854.894531,111 L854.894531,102.546875 L857.175781,102.546875 L857.175781,111 Z M857.175781,100.523438 L854.894531,100.523438 L854.894531,98.8125 L857.175781,98.8125 L857.175781,100.523438 Z M862.792969,111.164062 C861.574213,111.164062 860.600264,110.773441 859.871094,109.992188 C859.141923,109.210934 858.777344,108.218756 858.777344,107.015625 L858.777344,106.703125 C858.777344,105.44791 859.122392,104.414067 859.8125,103.601562 C860.502608,102.789058 861.42838,102.385417 862.589844,102.390625 C863.730474,102.390625 864.615882,102.734372 865.246094,103.421875 C865.876305,104.109378 866.191406,105.039057 866.191406,106.210938 L866.191406,107.453125 L861.144531,107.453125 L861.128906,107.5 C861.170573,108.057294 861.356769,108.515623 861.6875,108.875 C862.018231,109.234377 862.467445,109.414062 863.035156,109.414062 C863.540367,109.414062 863.959634,109.363282 864.292969,109.261719 C864.626304,109.160156 864.990883,109.000001 865.386719,108.78125 L866.003906,110.1875 C865.660155,110.468751 865.209638,110.701822 864.652344,110.886719 C864.095049,111.071616 863.475264,111.164062 862.792969,111.164062 Z M862.589844,104.148438 C862.167967,104.148438 861.834637,104.309894 861.589844,104.632812 C861.345051,104.955731 861.194011,105.380206 861.136719,105.90625 L861.160156,105.945312 L863.957031,105.945312 L863.957031,105.742188 C863.957031,105.25781 863.843751,104.871095 863.617188,104.582031 C863.390624,104.292967 863.048179,104.148438 862.589844,104.148438 Z M872.089844,108.671875 C872.089844,108.421874 871.968751,108.20573 871.726562,108.023438 C871.484374,107.841145 871.03516,107.679688 870.378906,107.539062 C869.378901,107.335936 868.625003,107.035158 868.117188,106.636719 C867.609372,106.238279 867.355469,105.695316 867.355469,105.007812 C867.355469,104.278642 867.661455,103.660159 868.273438,103.152344 C868.88542,102.644529 869.704422,102.390625 870.730469,102.390625 C871.808599,102.390625 872.666663,102.643227 873.304688,103.148438 C873.942712,103.653648 874.248698,104.291663 874.222656,105.0625 L874.207031,105.109375 L872.003906,105.109375 C872.003906,104.770832 871.895834,104.494793 871.679688,104.28125 C871.463541,104.067707 871.147137,103.960938 870.730469,103.960938 C870.360675,103.960938 870.070314,104.05078 869.859375,104.230469 C869.648436,104.410157 869.542969,104.635415 869.542969,104.90625 C869.542969,105.166668 869.653645,105.380207 869.875,105.546875 C870.096355,105.713543 870.54557,105.861979 871.222656,105.992188 C872.264328,106.200522 873.037758,106.506508 873.542969,106.910156 C874.04818,107.313804 874.300781,107.869788 874.300781,108.578125 C874.300781,109.338545 873.975264,109.959633 873.324219,110.441406 C872.673174,110.923179 871.813807,111.164062 870.746094,111.164062 C869.621088,111.164062 868.731774,110.878909 868.078125,110.308594 C867.424476,109.738278 867.113281,109.088545 867.144531,108.359375 L867.160156,108.3125 L869.246094,108.3125 C869.261719,108.765627 869.410155,109.093749 869.691406,109.296875 C869.972658,109.500001 870.339841,109.601562 870.792969,109.601562 C871.214846,109.601562 871.536457,109.51823 871.757812,109.351562 C871.979168,109.184895 872.089844,108.958335 872.089844,108.671875 Z" id="Usability-Studies" fill="#032A2F"></path>
            <path d="M983.625,86.9765625 L983.765625,87.59375 L983.8125,87.59375 L983.945312,86.9921875 L986.421875,78.625 L988.828125,78.625 L984.960938,90 L982.617188,90 L978.757812,78.625 L981.164062,78.625 L983.625,86.9765625 Z M993.09375,90.1640625 C991.874994,90.1640625 990.901045,89.7734414 990.171875,88.9921875 C989.442705,88.2109336 989.078125,87.218756 989.078125,86.015625 L989.078125,85.703125 C989.078125,84.4479104 989.423174,83.4140666 990.113281,82.6015625 C990.803389,81.7890584 991.729161,81.3854166 992.890625,81.390625 C994.031256,81.390625 994.916664,81.7343716 995.546875,82.421875 C996.177086,83.1093784 996.492188,84.0390566 996.492188,85.2109375 L996.492188,86.453125 L991.445312,86.453125 L991.429688,86.5 C991.471354,87.0572945 991.65755,87.5156232 991.988281,87.875 C992.319012,88.2343768 992.768226,88.4140625 993.335938,88.4140625 C993.841148,88.4140625 994.260415,88.3632818 994.59375,88.2617188 C994.927085,88.1601557 995.291665,88.0000011 995.6875,87.78125 L996.304688,89.1875 C995.960936,89.4687514 995.510419,89.701822 994.953125,89.8867188 C994.395831,90.0716155 993.776045,90.1640625 993.09375,90.1640625 Z M992.890625,83.1484375 C992.468748,83.1484375 992.135418,83.3098942 991.890625,83.6328125 C991.645832,83.9557308 991.494792,84.3802057 991.4375,84.90625 L991.460938,84.9453125 L994.257812,84.9453125 L994.257812,84.7421875 C994.257812,84.2578101 994.144532,83.8710952 993.917969,83.5820312 C993.691405,83.2929673 993.348961,83.1484375 992.890625,83.1484375 Z M1002.26562,83.5078125 L1001.42969,83.484375 C1001.09114,83.484375 1000.8125,83.5546868 1000.59375,83.6953125 C1000.375,83.8359382 1000.20833,84.0338529 1000.09375,84.2890625 L1000.09375,90 L997.820312,90 L997.820312,81.546875 L999.9375,81.546875 L1000.03906,82.796875 C1000.23698,82.3541645 1000.49349,82.0091158 1000.80859,81.7617188 C1001.1237,81.5143217 1001.48698,81.390625 1001.89844,81.390625 C1002.01302,81.390625 1002.11849,81.3997395 1002.21484,81.4179688 C1002.3112,81.436198 1002.40885,81.4583332 1002.50781,81.484375 L1002.26562,83.5078125 Z M1007.99219,87.671875 C1007.99219,87.4218738 1007.87109,87.2057301 1007.62891,87.0234375 C1007.38672,86.8411449 1006.9375,86.6796882 1006.28125,86.5390625 C1005.28125,86.3359365 1004.52735,86.0351582 1004.01953,85.6367188 C1003.51172,85.2382793 1003.25781,84.6953159 1003.25781,84.0078125 C1003.25781,83.2786422 1003.5638,82.6601588 1004.17578,82.1523438 C1004.78776,81.6445287 1005.60677,81.390625 1006.63281,81.390625 C1007.71094,81.390625 1008.56901,81.6432266 1009.20703,82.1484375 C1009.84506,82.6536484 1010.15104,83.2916628 1010.125,84.0625 L1010.10938,84.109375 L1007.90625,84.109375 C1007.90625,83.7708316 1007.79818,83.4947927 1007.58203,83.28125 C1007.36588,83.0677073 1007.04948,82.9609375 1006.63281,82.9609375 C1006.26302,82.9609375 1005.97266,83.0507804 1005.76172,83.2304688 C1005.55078,83.4101571 1005.44531,83.6354153 1005.44531,83.90625 C1005.44531,84.166668 1005.55599,84.3802075 1005.77734,84.546875 C1005.9987,84.7135425 1006.44791,84.8619785 1007.125,84.9921875 C1008.16667,85.2005219 1008.9401,85.5065084 1009.44531,85.9101562 C1009.95052,86.3138041 1010.20312,86.8697881 1010.20312,87.578125 C1010.20312,88.3385455 1009.87761,88.959633 1009.22656,89.4414062 C1008.57552,89.9231795 1007.71615,90.1640625 1006.64844,90.1640625 C1005.52343,90.1640625 1004.63412,89.8789091 1003.98047,89.3085938 C1003.32682,88.7382784 1003.01562,88.0885453 1003.04688,87.359375 L1003.0625,87.3125 L1005.14844,87.3125 C1005.16406,87.7656273 1005.3125,88.093749 1005.59375,88.296875 C1005.875,88.500001 1006.24219,88.6015625 1006.69531,88.6015625 C1007.11719,88.6015625 1007.4388,88.51823 1007.66016,88.3515625 C1007.88151,88.184895 1007.99219,87.9583348 1007.99219,87.671875 Z M1014.07031,90 L1011.78906,90 L1011.78906,81.546875 L1014.07031,81.546875 L1014.07031,90 Z M1014.07031,79.5234375 L1011.78906,79.5234375 L1011.78906,77.8125 L1014.07031,77.8125 L1014.07031,79.5234375 Z M1015.59375,85.6953125 C1015.59375,84.4348895 1015.94531,83.4023478 1016.64844,82.5976562 C1017.35157,81.7929647 1018.32551,81.390625 1019.57031,81.390625 C1020.82032,81.390625 1021.79948,81.7916627 1022.50781,82.59375 C1023.21615,83.3958373 1023.57031,84.4296812 1023.57031,85.6953125 L1023.57031,85.859375 C1023.57031,87.1302147 1023.21745,88.1653606 1022.51172,88.9648438 C1021.80599,89.7643269 1020.83074,90.1640625 1019.58594,90.1640625 C1018.33593,90.1640625 1017.35808,89.7643269 1016.65234,88.9648438 C1015.94661,88.1653606 1015.59375,87.1302147 1015.59375,85.859375 L1015.59375,85.6953125 Z M1017.86719,85.859375 C1017.86719,86.6302122 1018.0026,87.2486956 1018.27344,87.7148438 C1018.54427,88.1809919 1018.98177,88.4140625 1019.58594,88.4140625 C1020.17448,88.4140625 1020.60547,88.1796898 1020.87891,87.7109375 C1021.15235,87.2421852 1021.28906,86.6250038 1021.28906,85.859375 L1021.28906,85.6953125 C1021.28906,84.9453087 1021.15104,84.3333357 1020.875,83.859375 C1020.59896,83.3854143 1020.16407,83.1484375 1019.57031,83.1484375 C1018.98177,83.1484375 1018.55078,83.3867164 1018.27734,83.8632812 C1018.0039,84.3398461 1017.86719,84.9505171 1017.86719,85.6953125 L1017.86719,85.859375 Z M1027.0625,81.546875 L1027.16406,82.7578125 C1027.44531,82.3255187 1027.79166,81.9895845 1028.20312,81.75 C1028.61459,81.5104155 1029.07552,81.390625 1029.58594,81.390625 C1030.44011,81.390625 1031.10677,81.6588515 1031.58594,82.1953125 C1032.06511,82.7317735 1032.30469,83.5729109 1032.30469,84.71875 L1032.30469,90 L1030.01562,90 L1030.01562,84.7265625 C1030.01562,84.1588513 1029.90104,83.7565116 1029.67188,83.5195312 C1029.44271,83.2825509 1029.09636,83.1640625 1028.63281,83.1640625 C1028.33073,83.1640625 1028.0599,83.2252598 1027.82031,83.3476562 C1027.58073,83.4700527 1027.38021,83.643228 1027.21875,83.8671875 L1027.21875,90 L1024.9375,90 L1024.9375,81.546875 L1027.0625,81.546875 Z M1045.65625,90 L1037.89062,90 L1037.89062,88.5078125 L1041.57031,84.5625 C1042.10157,83.953122 1042.47917,83.4388042 1042.70312,83.0195312 C1042.92708,82.6002583 1043.03906,82.2109393 1043.03906,81.8515625 C1043.03906,81.3723934 1042.91016,80.9804703 1042.65234,80.6757812 C1042.39453,80.3710922 1042.02865,80.21875 1041.55469,80.21875 C1041.02864,80.21875 1040.62891,80.3971336 1040.35547,80.7539062 C1040.08203,81.1106789 1039.94531,81.5859345 1039.94531,82.1796875 L1037.72656,82.1796875 L1037.71094,82.1328125 C1037.6849,81.1067657 1038.02213,80.2382848 1038.72266,79.5273438 C1039.42318,78.8164027 1040.36718,78.4609375 1041.55469,78.4609375 C1042.72657,78.4609375 1043.64713,78.765622 1044.31641,79.375 C1044.98568,79.984378 1045.32031,80.7968699 1045.32031,81.8125 C1045.32031,82.5000034 1045.13151,83.1341117 1044.75391,83.7148438 C1044.3763,84.2955758 1043.75261,85.057287 1042.88281,86 L1040.85938,88.2109375 L1040.875,88.25 L1045.65625,88.25 L1045.65625,90 Z M988.792969,111 L988.792969,99.625 L992.699219,99.625 C994.089851,99.625 995.235673,100.069006 996.136719,100.957031 C997.037765,101.845057 997.488281,102.984368 997.488281,104.375 L997.488281,106.257812 C997.488281,107.653653 997.037765,108.792964 996.136719,109.675781 C995.235673,110.558598 994.089851,111 992.699219,111 L988.792969,111 Z M991.074219,101.382812 L991.074219,109.25 L992.582031,109.25 C993.399744,109.25 994.040362,108.973961 994.503906,108.421875 C994.96745,107.869789 995.199219,107.148442 995.199219,106.257812 L995.199219,104.359375 C995.199219,103.479162 994.96745,102.763024 994.503906,102.210938 C994.040362,101.658851 993.399744,101.382812 992.582031,101.382812 L991.074219,101.382812 Z M1002.83203,111.164062 C1001.61328,111.164062 1000.63933,110.773441 999.910156,109.992188 C999.180986,109.210934 998.816406,108.218756 998.816406,107.015625 L998.816406,106.703125 C998.816406,105.44791 999.161455,104.414067 999.851562,103.601562 C1000.54167,102.789058 1001.46744,102.385417 1002.62891,102.390625 C1003.76954,102.390625 1004.65494,102.734372 1005.28516,103.421875 C1005.91537,104.109378 1006.23047,105.039057 1006.23047,106.210938 L1006.23047,107.453125 L1001.18359,107.453125 L1001.16797,107.5 C1001.20964,108.057294 1001.39583,108.515623 1001.72656,108.875 C1002.05729,109.234377 1002.50651,109.414062 1003.07422,109.414062 C1003.57943,109.414062 1003.9987,109.363282 1004.33203,109.261719 C1004.66537,109.160156 1005.02995,109.000001 1005.42578,108.78125 L1006.04297,110.1875 C1005.69922,110.468751 1005.2487,110.701822 1004.69141,110.886719 C1004.13411,111.071616 1003.51433,111.164062 1002.83203,111.164062 Z M1002.62891,104.148438 C1002.20703,104.148438 1001.8737,104.309894 1001.62891,104.632812 C1001.38411,104.955731 1001.23307,105.380206 1001.17578,105.90625 L1001.19922,105.945312 L1003.99609,105.945312 L1003.99609,105.742188 C1003.99609,105.25781 1003.88281,104.871095 1003.65625,104.582031 C1003.42969,104.292967 1003.08724,104.148438 1002.62891,104.148438 Z M1012.12891,108.671875 C1012.12891,108.421874 1012.00781,108.20573 1011.76562,108.023438 C1011.52344,107.841145 1011.07422,107.679688 1010.41797,107.539062 C1009.41796,107.335936 1008.66407,107.035158 1008.15625,106.636719 C1007.64843,106.238279 1007.39453,105.695316 1007.39453,105.007812 C1007.39453,104.278642 1007.70052,103.660159 1008.3125,103.152344 C1008.92448,102.644529 1009.74348,102.390625 1010.76953,102.390625 C1011.84766,102.390625 1012.70573,102.643227 1013.34375,103.148438 C1013.98177,103.653648 1014.28776,104.291663 1014.26172,105.0625 L1014.24609,105.109375 L1012.04297,105.109375 C1012.04297,104.770832 1011.9349,104.494793 1011.71875,104.28125 C1011.5026,104.067707 1011.1862,103.960938 1010.76953,103.960938 C1010.39974,103.960938 1010.10938,104.05078 1009.89844,104.230469 C1009.6875,104.410157 1009.58203,104.635415 1009.58203,104.90625 C1009.58203,105.166668 1009.69271,105.380207 1009.91406,105.546875 C1010.13542,105.713543 1010.58463,105.861979 1011.26172,105.992188 C1012.30339,106.200522 1013.07682,106.506508 1013.58203,106.910156 C1014.08724,107.313804 1014.33984,107.869788 1014.33984,108.578125 C1014.33984,109.338545 1014.01433,109.959633 1013.36328,110.441406 C1012.71224,110.923179 1011.85287,111.164062 1010.78516,111.164062 C1009.66015,111.164062 1008.77084,110.878909 1008.11719,110.308594 C1007.46354,109.738278 1007.15234,109.088545 1007.18359,108.359375 L1007.19922,108.3125 L1009.28516,108.3125 C1009.30078,108.765627 1009.44922,109.093749 1009.73047,109.296875 C1010.01172,109.500001 1010.3789,109.601562 1010.83203,109.601562 C1011.25391,109.601562 1011.57552,109.51823 1011.79688,109.351562 C1012.01823,109.184895 1012.12891,108.958335 1012.12891,108.671875 Z M1018.20703,111 L1015.92578,111 L1015.92578,102.546875 L1018.20703,102.546875 L1018.20703,111 Z M1018.20703,100.523438 L1015.92578,100.523438 L1015.92578,98.8125 L1018.20703,98.8125 L1018.20703,100.523438 Z M1019.73047,106.84375 C1019.73047,105.51041 1020.02083,104.4349 1020.60156,103.617188 C1021.18229,102.799475 1021.99609,102.390625 1023.04297,102.390625 C1023.51693,102.390625 1023.93359,102.497395 1024.29297,102.710938 C1024.65235,102.92448 1024.95963,103.229165 1025.21484,103.625 L1025.39453,102.546875 L1027.36328,102.546875 L1027.36328,110.960938 C1027.36328,112.059901 1027.00261,112.910153 1026.28125,113.511719 C1025.55989,114.113284 1024.556,114.414062 1023.26953,114.414062 C1022.84245,114.414062 1022.38933,114.355469 1021.91016,114.238281 C1021.43099,114.121093 1020.98828,113.960939 1020.58203,113.757812 L1021.00391,112.054688 C1021.35287,112.221355 1021.70833,112.347656 1022.07031,112.433594 C1022.43229,112.519532 1022.82682,112.5625 1023.25391,112.5625 C1023.87891,112.5625 1024.33854,112.432293 1024.63281,112.171875 C1024.92708,111.911457 1025.07422,111.505211 1025.07422,110.953125 L1025.07422,110.1875 C1024.82422,110.50521 1024.52995,110.747395 1024.19141,110.914062 C1023.85286,111.08073 1023.46485,111.164062 1023.02734,111.164062 C1021.99088,111.164062 1021.18229,110.782556 1020.60156,110.019531 C1020.02083,109.256507 1019.73047,108.25261 1019.73047,107.007812 L1019.73047,106.84375 Z M1022.01172,107.007812 C1022.01172,107.7474 1022.13672,108.329425 1022.38672,108.753906 C1022.63672,109.178388 1023.04297,109.390625 1023.60547,109.390625 C1023.95443,109.390625 1024.25,109.326824 1024.49219,109.199219 C1024.73438,109.071614 1024.92838,108.885418 1025.07422,108.640625 L1025.07422,104.96875 C1024.92838,104.71354 1024.73438,104.515626 1024.49219,104.375 C1024.25,104.234374 1023.95964,104.164062 1023.62109,104.164062 C1023.0638,104.164062 1022.65625,104.411456 1022.39844,104.90625 C1022.14062,105.401044 1022.01172,106.046871 1022.01172,106.84375 L1022.01172,107.007812 Z M1031.19922,102.546875 L1031.30078,103.757812 C1031.58203,103.325519 1031.92838,102.989585 1032.33984,102.75 C1032.7513,102.510415 1033.21224,102.390625 1033.72266,102.390625 C1034.57683,102.390625 1035.24349,102.658851 1035.72266,103.195312 C1036.20183,103.731774 1036.44141,104.572911 1036.44141,105.71875 L1036.44141,111 L1034.15234,111 L1034.15234,105.726562 C1034.15234,105.158851 1034.03776,104.756512 1033.80859,104.519531 C1033.57943,104.282551 1033.23308,104.164062 1032.76953,104.164062 C1032.46745,104.164062 1032.19662,104.22526 1031.95703,104.347656 C1031.71745,104.470053 1031.51693,104.643228 1031.35547,104.867188 L1031.35547,111 L1029.07422,111 L1029.07422,102.546875 L1031.19922,102.546875 Z" id="Version-2-Design" fill="#032A2F"></path>
            <path d="M370.882812,1.625 L370.882812,9.25 C370.882812,10.510423 370.471358,11.4778612 369.648438,12.1523437 C368.825517,12.8268263 367.750007,13.1640625 366.421875,13.1640625 C365.119785,13.1640625 364.065108,12.8255242 363.257812,12.1484375 C362.450517,11.4713508 362.046875,10.5052146 362.046875,9.25 L362.046875,1.625 L363.945312,1.625 L363.945312,9.25 C363.945312,10.046879 364.169269,10.6458313 364.617188,11.046875 C365.065106,11.4479187 365.666663,11.6484375 366.421875,11.6484375 C367.203129,11.6484375 367.825519,11.4479187 368.289062,11.046875 C368.752606,10.6458313 368.984375,10.046879 368.984375,9.25 L368.984375,1.625 L370.882812,1.625 Z M377.65625,10.703125 C377.65625,10.4114569 377.531251,10.1692718 377.28125,9.9765625 C377.031249,9.7838532 376.565108,9.61458406 375.882812,9.46875 C374.872391,9.25520727 374.108076,8.95182488 373.589844,8.55859375 C373.071612,8.16536262 372.8125,7.63021172 372.8125,6.953125 C372.8125,6.24478812 373.111976,5.6406275 373.710938,5.140625 C374.309899,4.6406225 375.098953,4.390625 376.078125,4.390625 C377.10938,4.390625 377.928382,4.64452871 378.535156,5.15234375 C379.14193,5.66015879 379.432292,6.28905875 379.40625,7.0390625 L379.390625,7.0859375 L377.570312,7.0859375 C377.570312,6.73697742 377.437501,6.43750125 377.171875,6.1875 C376.906249,5.93749875 376.541669,5.8125 376.078125,5.8125 C375.619789,5.8125 375.270835,5.91536355 375.03125,6.12109375 C374.791665,6.32682395 374.671875,6.57812352 374.671875,6.875 C374.671875,7.17187648 374.785155,7.40755121 375.011719,7.58203125 C375.238282,7.75651129 375.697913,7.91145766 376.390625,8.046875 C377.45313,8.26562609 378.240883,8.57421676 378.753906,8.97265625 C379.26693,9.37109574 379.523438,9.91405906 379.523438,10.6015625 C379.523438,11.361983 379.209639,11.9791643 378.582031,12.453125 C377.954424,12.9270857 377.127609,13.1640625 376.101562,13.1640625 C375.002599,13.1640625 374.13542,12.8828153 373.5,12.3203125 C372.86458,11.7578097 372.5625,11.1119828 372.59375,10.3828125 L372.609375,10.3359375 L374.375,10.3359375 C374.395833,10.8255233 374.572915,11.1822905 374.90625,11.40625 C375.239585,11.6302095 375.645831,11.7421875 376.125,11.7421875 C376.614586,11.7421875 376.992186,11.6484384 377.257812,11.4609375 C377.523439,11.2734366 377.65625,11.0208349 377.65625,10.703125 Z M386.3125,13 C386.244791,12.7864573 386.188802,12.578126 386.144531,12.375 C386.10026,12.171874 386.070313,11.968751 386.054688,11.765625 C385.79427,12.1614603 385.451825,12.4934882 385.027344,12.7617187 C384.602862,13.0299493 384.127607,13.1640625 383.601562,13.1640625 C382.72135,13.1640625 382.045575,12.9375023 381.574219,12.484375 C381.102862,12.0312477 380.867188,11.4088581 380.867188,10.6171875 C380.867188,9.79947508 381.190101,9.1627627 381.835938,8.70703125 C382.481774,8.2512998 383.390619,8.0234375 384.5625,8.0234375 L386.039062,8.0234375 L386.039062,7.28125 C386.039062,6.83853945 385.908855,6.49218875 385.648438,6.2421875 C385.38802,5.99218625 385.015627,5.8671875 384.53125,5.8671875 C384.098956,5.8671875 383.75521,5.97135312 383.5,6.1796875 C383.24479,6.38802187 383.117188,6.65624836 383.117188,6.984375 L381.289062,6.984375 L381.28125,6.9375 C381.244791,6.27083 381.542966,5.67969008 382.175781,5.1640625 C382.808597,4.64843492 383.632807,4.390625 384.648438,4.390625 C385.632817,4.390625 386.42708,4.6406225 387.03125,5.140625 C387.63542,5.6406275 387.9375,6.35937031 387.9375,7.296875 L387.9375,11.0546875 C387.9375,11.4036476 387.960937,11.7382796 388.007812,12.0585937 C388.054688,12.3789079 388.130208,12.6927068 388.234375,13 L386.3125,13 Z M383.984375,11.640625 C384.463544,11.640625 384.894529,11.5208345 385.277344,11.28125 C385.660158,11.0416655 385.914062,10.7682307 386.039062,10.4609375 L386.039062,9.2109375 L384.53125,9.2109375 C383.979164,9.2109375 383.546877,9.34765488 383.234375,9.62109375 C382.921873,9.89453262 382.765625,10.216144 382.765625,10.5859375 C382.765625,10.9088558 382.871093,11.1653636 383.082031,11.3554687 C383.29297,11.5455739 383.593748,11.640625 383.984375,11.640625 Z M397.351562,9.0546875 C397.351562,10.2890687 397.063805,11.2825483 396.488281,12.0351562 C395.912758,12.7877642 395.101568,13.1640625 394.054688,13.1640625 C393.528643,13.1640625 393.071617,13.0572927 392.683594,12.84375 C392.295571,12.6302073 391.971355,12.3177104 391.710938,11.90625 L391.523438,13 L389.929688,13 L389.929688,0.8125 L391.828125,0.8125 L391.828125,5.5078125 C392.088543,5.1484357 392.40104,4.8723968 392.765625,4.6796875 C393.13021,4.4869782 393.554685,4.390625 394.039062,4.390625 C395.096359,4.390625 395.912758,4.80207922 396.488281,5.625 C397.063805,6.44792078 397.351562,7.53645156 397.351562,8.890625 L397.351562,9.0546875 Z M395.453125,8.890625 C395.453125,8.01041227 395.302085,7.29948187 395,6.7578125 C394.697915,6.21614312 394.218753,5.9453125 393.5625,5.9453125 C393.140623,5.9453125 392.787762,6.03906156 392.503906,6.2265625 C392.220051,6.41406344 391.994793,6.6744775 391.828125,7.0078125 L391.828125,10.5546875 C391.989584,10.8932309 392.21354,11.154947 392.5,11.3398438 C392.78646,11.5247405 393.145831,11.6171875 393.578125,11.6171875 C394.234378,11.6171875 394.710936,11.3867211 395.007812,10.9257812 C395.304689,10.4648414 395.453125,9.84114977 395.453125,9.0546875 L395.453125,8.890625 Z M401.015625,13 L399.117188,13 L399.117188,4.546875 L401.015625,4.546875 L401.015625,13 Z M401.015625,2.4765625 L399.117188,2.4765625 L399.117188,0.8125 L401.015625,0.8125 L401.015625,2.4765625 Z M405.164062,13 L403.265625,13 L403.265625,0.8125 L405.164062,0.8125 L405.164062,13 Z M409.3125,13 L407.414062,13 L407.414062,4.546875 L409.3125,4.546875 L409.3125,13 Z M409.3125,2.4765625 L407.414062,2.4765625 L407.414062,0.8125 L409.3125,0.8125 L409.3125,2.4765625 Z M413.796875,2.4921875 L413.796875,4.546875 L415.3125,4.546875 L415.3125,5.953125 L413.796875,5.953125 L413.796875,10.625 C413.796875,10.9739601 413.872395,11.2226555 414.023438,11.3710938 C414.17448,11.519532 414.374999,11.59375 414.625,11.59375 C414.729167,11.59375 414.830729,11.5846355 414.929688,11.5664062 C415.028646,11.548177 415.122395,11.5234377 415.210938,11.4921875 L415.414062,12.8828125 C415.252603,12.9713546 415.059897,13.0403643 414.835938,13.0898438 C414.611978,13.1393232 414.38021,13.1640625 414.140625,13.1640625 C413.442705,13.1640625 412.895835,12.9596375 412.5,12.5507812 C412.104165,12.141925 411.90625,11.5000044 411.90625,10.625 L411.90625,5.953125 L410.617188,5.953125 L410.617188,4.546875 L411.90625,4.546875 L411.90625,2.4921875 L413.796875,2.4921875 Z M419.804688,9.609375 L419.992188,10.453125 L420.039062,10.453125 L421.890625,4.546875 L423.96875,4.546875 L420.46875,14.28125 C420.244791,14.8697946 419.92969,15.3723938 419.523438,15.7890625 C419.117185,16.2057312 418.54167,16.4140625 417.796875,16.4140625 C417.640624,16.4140625 417.472657,16.3984377 417.292969,16.3671875 C417.11328,16.3359373 416.940105,16.2994794 416.773438,16.2578125 L416.984375,14.7890625 C417.052084,14.7942709 417.148437,14.8020833 417.273438,14.8125 C417.398438,14.8229167 417.492187,14.828125 417.554688,14.828125 C417.898439,14.828125 418.173176,14.7109387 418.378906,14.4765625 C418.584636,14.2421863 418.752604,13.9713557 418.882812,13.6640625 L419.195312,12.8984375 L416.125,4.546875 L418.195312,4.546875 L419.804688,9.609375 Z M435.5,10.078125 C435.5,9.6041643 435.324221,9.21614734 434.972656,8.9140625 C434.621092,8.61197766 434.000004,8.34114703 433.109375,8.1015625 C431.838535,7.7682275 430.860681,7.32682566 430.175781,6.77734375 C429.490882,6.22786184 429.148438,5.50781695 429.148438,4.6171875 C429.148438,3.70051625 429.52734,2.94531547 430.285156,2.3515625 C431.042973,1.75780953 432.020827,1.4609375 433.21875,1.4609375 C434.468756,1.4609375 435.472652,1.79687164 436.230469,2.46875 C436.988285,3.14062836 437.354167,3.94791195 437.328125,4.890625 L437.3125,4.9375 L435.492188,4.9375 C435.492188,4.35416375 435.294273,3.88151223 434.898438,3.51953125 C434.502602,3.15755027 433.937504,2.9765625 433.203125,2.9765625 C432.510413,2.9765625 431.977866,3.12760266 431.605469,3.4296875 C431.233071,3.73177234 431.046875,4.12239344 431.046875,4.6015625 C431.046875,5.03385633 431.248696,5.39322773 431.652344,5.6796875 C432.055992,5.96614727 432.723954,6.23697789 433.65625,6.4921875 C434.880214,6.82031414 435.809893,7.27343461 436.445312,7.8515625 C437.080732,8.42969039 437.398438,9.16666219 437.398438,10.0625 C437.398438,11.0104214 437.019535,11.7643201 436.261719,12.3242188 C435.503902,12.8841174 434.507819,13.1640625 433.273438,13.1640625 C432.085932,13.1640625 431.044275,12.8502636 430.148438,12.2226562 C429.2526,11.5950489 428.817708,10.7343805 428.84375,9.640625 L428.859375,9.59375 L430.6875,9.59375 C430.6875,10.2864618 430.927081,10.8033837 431.40625,11.1445312 C431.885419,11.4856788 432.507809,11.65625 433.273438,11.65625 C433.976566,11.65625 434.523436,11.5143243 434.914062,11.2304688 C435.304689,10.9466132 435.5,10.5625024 435.5,10.078125 Z M441.515625,2.4921875 L441.515625,4.546875 L443.03125,4.546875 L443.03125,5.953125 L441.515625,5.953125 L441.515625,10.625 C441.515625,10.9739601 441.591145,11.2226555 441.742188,11.3710938 C441.89323,11.519532 442.093749,11.59375 442.34375,11.59375 C442.447917,11.59375 442.549479,11.5846355 442.648438,11.5664062 C442.747396,11.548177 442.841145,11.5234377 442.929688,11.4921875 L443.132812,12.8828125 C442.971353,12.9713546 442.778647,13.0403643 442.554688,13.0898438 C442.330728,13.1393232 442.09896,13.1640625 441.859375,13.1640625 C441.161455,13.1640625 440.614585,12.9596375 440.21875,12.5507812 C439.822915,12.141925 439.625,11.5000044 439.625,10.625 L439.625,5.953125 L438.335938,5.953125 L438.335938,4.546875 L439.625,4.546875 L439.625,2.4921875 L441.515625,2.4921875 Z M449.984375,11.765625 C449.718749,12.2135439 449.382815,12.5585925 448.976562,12.8007812 C448.57031,13.04297 448.101565,13.1640625 447.570312,13.1640625 C446.664058,13.1640625 445.955732,12.8750029 445.445312,12.296875 C444.934893,11.7187471 444.679688,10.8203186 444.679688,9.6015625 L444.679688,4.546875 L446.570312,4.546875 L446.570312,9.6171875 C446.570312,10.3567745 446.690103,10.8749985 446.929688,11.171875 C447.169272,11.4687515 447.531248,11.6171875 448.015625,11.6171875 C448.473961,11.6171875 448.858071,11.5351571 449.167969,11.3710937 C449.477866,11.2070304 449.721353,10.9687516 449.898438,10.65625 L449.898438,4.546875 L451.796875,4.546875 L451.796875,13 L450.140625,13 L449.984375,11.765625 Z M453.429688,8.890625 C453.429688,7.54165992 453.718747,6.45443121 454.296875,5.62890625 C454.875003,4.80338129 455.687495,4.390625 456.734375,4.390625 C457.192711,4.390625 457.602863,4.48307199 457.964844,4.66796875 C458.326825,4.85286551 458.640624,5.11718578 458.90625,5.4609375 L458.90625,0.8125 L460.804688,0.8125 L460.804688,13 L459.210938,13 L459.023438,11.953125 C458.752603,12.3489603 458.427085,12.6497386 458.046875,12.8554687 C457.666665,13.0611989 457.223961,13.1640625 456.71875,13.1640625 C455.682286,13.1640625 454.875003,12.7864621 454.296875,12.03125 C453.718747,11.2760379 453.429688,10.2838603 453.429688,9.0546875 L453.429688,8.890625 Z M455.328125,9.0546875 C455.328125,9.83594141 455.477863,10.458331 455.777344,10.921875 C456.076824,11.385419 456.55208,11.6171875 457.203125,11.6171875 C457.604169,11.6171875 457.944009,11.5312509 458.222656,11.359375 C458.501303,11.1874991 458.729166,10.9427099 458.90625,10.625 L458.90625,6.9375 C458.729166,6.62499844 458.500001,6.38151129 458.21875,6.20703125 C457.937499,6.03255121 457.604169,5.9453125 457.21875,5.9453125 C456.572913,5.9453125 456.096356,6.2174452 455.789062,6.76171875 C455.481769,7.3059923 455.328125,8.01562063 455.328125,8.890625 L455.328125,9.0546875 Z M464.867188,13 L462.96875,13 L462.96875,4.546875 L464.867188,4.546875 L464.867188,13 Z M464.867188,2.4765625 L462.96875,2.4765625 L462.96875,0.8125 L464.867188,0.8125 L464.867188,2.4765625 Z M470.617188,13.1640625 C469.419265,13.1640625 468.464847,12.7721393 467.753906,11.9882812 C467.042965,11.2044232 466.6875,10.1979228 466.6875,8.96875 L466.6875,8.65625 C466.6875,7.42707719 467.040361,6.40755613 467.746094,5.59765625 C468.451826,4.78775637 469.335932,4.38541664 470.398438,4.390625 C471.539068,4.390625 472.412757,4.73567363 473.019531,5.42578125 C473.626305,6.11588887 473.929688,7.04166086 473.929688,8.203125 L473.929688,9.3203125 L468.65625,9.3203125 L468.640625,9.359375 C468.671875,10.0312534 468.868488,10.580727 469.230469,11.0078125 C469.59245,11.434898 470.093747,11.6484375 470.734375,11.6484375 C471.244794,11.6484375 471.68229,11.5859381 472.046875,11.4609375 C472.41146,11.3359369 472.763019,11.1562512 473.101562,10.921875 L473.710938,12.1640625 C473.393228,12.4453139 472.971357,12.6822907 472.445312,12.875 C471.919268,13.0677093 471.309899,13.1640625 470.617188,13.1640625 Z M470.398438,5.9140625 C469.929685,5.9140625 469.544272,6.10025855 469.242188,6.47265625 C468.940103,6.84505395 468.752605,7.31770547 468.679688,7.890625 L468.695312,7.9296875 L472.046875,7.9296875 L472.046875,7.734375 C472.046875,7.19791398 471.910158,6.76041836 471.636719,6.421875 C471.36328,6.08333164 470.950524,5.9140625 470.398438,5.9140625 Z M480.210938,10.703125 C480.210938,10.4114569 480.085939,10.1692718 479.835938,9.9765625 C479.585936,9.7838532 479.119795,9.61458406 478.4375,9.46875 C477.427078,9.25520727 476.662763,8.95182488 476.144531,8.55859375 C475.626299,8.16536262 475.367188,7.63021172 475.367188,6.953125 C475.367188,6.24478812 475.666664,5.6406275 476.265625,5.140625 C476.864586,4.6406225 477.653641,4.390625 478.632812,4.390625 C479.664068,4.390625 480.48307,4.64452871 481.089844,5.15234375 C481.696618,5.66015879 481.986979,6.28905875 481.960938,7.0390625 L481.945312,7.0859375 L480.125,7.0859375 C480.125,6.73697742 479.992189,6.43750125 479.726562,6.1875 C479.460936,5.93749875 479.096356,5.8125 478.632812,5.8125 C478.174477,5.8125 477.825522,5.91536355 477.585938,6.12109375 C477.346353,6.32682395 477.226562,6.57812352 477.226562,6.875 C477.226562,7.17187648 477.339843,7.40755121 477.566406,7.58203125 C477.79297,7.75651129 478.252601,7.91145766 478.945312,8.046875 C480.007818,8.26562609 480.79557,8.57421676 481.308594,8.97265625 C481.821617,9.37109574 482.078125,9.91405906 482.078125,10.6015625 C482.078125,11.361983 481.764326,11.9791643 481.136719,12.453125 C480.509111,12.9270857 479.682297,13.1640625 478.65625,13.1640625 C477.557286,13.1640625 476.690107,12.8828153 476.054688,12.3203125 C475.419268,11.7578097 475.117187,11.1119828 475.148438,10.3828125 L475.164062,10.3359375 L476.929688,10.3359375 C476.950521,10.8255233 477.127602,11.1822905 477.460938,11.40625 C477.794273,11.6302095 478.200518,11.7421875 478.679688,11.7421875 C479.169273,11.7421875 479.546874,11.6484384 479.8125,11.4609375 C480.078126,11.2734366 480.210938,11.0208349 480.210938,10.703125 Z" id="Usability-Studies" fill="#032A2F"></path>
            <path d="M378.882812,87.625 L378.882812,95.25 C378.882812,96.510423 378.471358,97.4778612 377.648438,98.1523438 C376.825517,98.8268263 375.750007,99.1640625 374.421875,99.1640625 C373.119785,99.1640625 372.065108,98.8255242 371.257812,98.1484375 C370.450517,97.4713508 370.046875,96.5052146 370.046875,95.25 L370.046875,87.625 L371.945312,87.625 L371.945312,95.25 C371.945312,96.046879 372.169269,96.6458313 372.617188,97.046875 C373.065106,97.4479187 373.666663,97.6484375 374.421875,97.6484375 C375.203129,97.6484375 375.825519,97.4479187 376.289062,97.046875 C376.752606,96.6458313 376.984375,96.046879 376.984375,95.25 L376.984375,87.625 L378.882812,87.625 Z M385.65625,96.703125 C385.65625,96.4114569 385.531251,96.1692718 385.28125,95.9765625 C385.031249,95.7838532 384.565108,95.6145841 383.882812,95.46875 C382.872391,95.2552073 382.108076,94.9518249 381.589844,94.5585938 C381.071612,94.1653626 380.8125,93.6302117 380.8125,92.953125 C380.8125,92.2447881 381.111976,91.6406275 381.710938,91.140625 C382.309899,90.6406225 383.098953,90.390625 384.078125,90.390625 C385.10938,90.390625 385.928382,90.6445287 386.535156,91.1523438 C387.14193,91.6601588 387.432292,92.2890587 387.40625,93.0390625 L387.390625,93.0859375 L385.570312,93.0859375 C385.570312,92.7369774 385.437501,92.4375012 385.171875,92.1875 C384.906249,91.9374988 384.541669,91.8125 384.078125,91.8125 C383.619789,91.8125 383.270835,91.9153636 383.03125,92.1210938 C382.791665,92.3268239 382.671875,92.5781235 382.671875,92.875 C382.671875,93.1718765 382.785155,93.4075512 383.011719,93.5820312 C383.238282,93.7565113 383.697913,93.9114577 384.390625,94.046875 C385.45313,94.2656261 386.240883,94.5742168 386.753906,94.9726562 C387.26693,95.3710957 387.523438,95.9140591 387.523438,96.6015625 C387.523438,97.361983 387.209639,97.9791643 386.582031,98.453125 C385.954424,98.9270857 385.127609,99.1640625 384.101562,99.1640625 C383.002599,99.1640625 382.13542,98.8828153 381.5,98.3203125 C380.86458,97.7578097 380.5625,97.1119828 380.59375,96.3828125 L380.609375,96.3359375 L382.375,96.3359375 C382.395833,96.8255233 382.572915,97.1822905 382.90625,97.40625 C383.239585,97.6302095 383.645831,97.7421875 384.125,97.7421875 C384.614586,97.7421875 384.992186,97.6484384 385.257812,97.4609375 C385.523439,97.2734366 385.65625,97.0208349 385.65625,96.703125 Z M392.851562,99.1640625 C391.65364,99.1640625 390.699222,98.7721393 389.988281,97.9882812 C389.27734,97.2044232 388.921875,96.1979228 388.921875,94.96875 L388.921875,94.65625 C388.921875,93.4270772 389.274736,92.4075561 389.980469,91.5976562 C390.686201,90.7877564 391.570307,90.3854166 392.632812,90.390625 C393.773443,90.390625 394.647132,90.7356736 395.253906,91.4257812 C395.86068,92.1158889 396.164062,93.0416609 396.164062,94.203125 L396.164062,95.3203125 L390.890625,95.3203125 L390.875,95.359375 C390.90625,96.0312534 391.102863,96.580727 391.464844,97.0078125 C391.826825,97.434898 392.328122,97.6484375 392.96875,97.6484375 C393.479169,97.6484375 393.916665,97.5859381 394.28125,97.4609375 C394.645835,97.3359369 394.997394,97.1562512 395.335938,96.921875 L395.945312,98.1640625 C395.627603,98.4453139 395.205732,98.6822907 394.679688,98.875 C394.153643,99.0677093 393.544274,99.1640625 392.851562,99.1640625 Z M392.632812,91.9140625 C392.16406,91.9140625 391.778647,92.1002586 391.476562,92.4726562 C391.174478,92.8450539 390.98698,93.3177055 390.914062,93.890625 L390.929688,93.9296875 L394.28125,93.9296875 L394.28125,93.734375 C394.28125,93.197914 394.144533,92.7604184 393.871094,92.421875 C393.597655,92.0833316 393.184899,91.9140625 392.632812,91.9140625 Z M401.90625,92.2578125 L401.09375,92.2265625 C400.723956,92.2265625 400.415366,92.3046867 400.167969,92.4609375 C399.920572,92.6171883 399.729167,92.8385402 399.59375,93.125 L399.59375,99 L397.695312,99 L397.695312,90.546875 L399.429688,90.546875 L399.554688,91.7734375 C399.76823,91.3411437 400.042967,91.0026054 400.378906,90.7578125 C400.714845,90.5130196 401.10156,90.390625 401.539062,90.390625 C401.653646,90.390625 401.760416,90.3997395 401.859375,90.4179688 C401.958334,90.436198 402.049479,90.4583332 402.132812,90.484375 L401.90625,92.2578125 Z M414.34375,94.1484375 L409.359375,94.1484375 L409.359375,99 L407.460938,99 L407.460938,87.625 L415.140625,87.625 L415.140625,89.1484375 L409.359375,89.1484375 L409.359375,92.625 L414.34375,92.625 L414.34375,94.1484375 Z M419.851562,99.1640625 C418.65364,99.1640625 417.699222,98.7721393 416.988281,97.9882812 C416.27734,97.2044232 415.921875,96.1979228 415.921875,94.96875 L415.921875,94.65625 C415.921875,93.4270772 416.274736,92.4075561 416.980469,91.5976562 C417.686201,90.7877564 418.570307,90.3854166 419.632812,90.390625 C420.773443,90.390625 421.647132,90.7356736 422.253906,91.4257812 C422.86068,92.1158889 423.164062,93.0416609 423.164062,94.203125 L423.164062,95.3203125 L417.890625,95.3203125 L417.875,95.359375 C417.90625,96.0312534 418.102863,96.580727 418.464844,97.0078125 C418.826825,97.434898 419.328122,97.6484375 419.96875,97.6484375 C420.479169,97.6484375 420.916665,97.5859381 421.28125,97.4609375 C421.645835,97.3359369 421.997394,97.1562512 422.335938,96.921875 L422.945312,98.1640625 C422.627603,98.4453139 422.205732,98.6822907 421.679688,98.875 C421.153643,99.0677093 420.544274,99.1640625 419.851562,99.1640625 Z M419.632812,91.9140625 C419.16406,91.9140625 418.778647,92.1002586 418.476562,92.4726562 C418.174478,92.8450539 417.98698,93.3177055 417.914062,93.890625 L417.929688,93.9296875 L421.28125,93.9296875 L421.28125,93.734375 C421.28125,93.197914 421.144533,92.7604184 420.871094,92.421875 C420.597655,92.0833316 420.184899,91.9140625 419.632812,91.9140625 Z M428.320312,99.1640625 C427.12239,99.1640625 426.167972,98.7721393 425.457031,97.9882812 C424.74609,97.2044232 424.390625,96.1979228 424.390625,94.96875 L424.390625,94.65625 C424.390625,93.4270772 424.743486,92.4075561 425.449219,91.5976562 C426.154951,90.7877564 427.039057,90.3854166 428.101562,90.390625 C429.242193,90.390625 430.115882,90.7356736 430.722656,91.4257812 C431.32943,92.1158889 431.632812,93.0416609 431.632812,94.203125 L431.632812,95.3203125 L426.359375,95.3203125 L426.34375,95.359375 C426.375,96.0312534 426.571613,96.580727 426.933594,97.0078125 C427.295575,97.434898 427.796872,97.6484375 428.4375,97.6484375 C428.947919,97.6484375 429.385415,97.5859381 429.75,97.4609375 C430.114585,97.3359369 430.466144,97.1562512 430.804688,96.921875 L431.414062,98.1640625 C431.096353,98.4453139 430.674482,98.6822907 430.148438,98.875 C429.622393,99.0677093 429.013024,99.1640625 428.320312,99.1640625 Z M428.101562,91.9140625 C427.63281,91.9140625 427.247397,92.1002586 426.945312,92.4726562 C426.643228,92.8450539 426.45573,93.3177055 426.382812,93.890625 L426.398438,93.9296875 L429.75,93.9296875 L429.75,93.734375 C429.75,93.197914 429.613283,92.7604184 429.339844,92.421875 C429.066405,92.0833316 428.653649,91.9140625 428.101562,91.9140625 Z M432.8125,94.890625 C432.8125,93.5416599 433.10156,92.4544312 433.679688,91.6289062 C434.257815,90.8033813 435.070307,90.390625 436.117188,90.390625 C436.575523,90.390625 436.985675,90.483072 437.347656,90.6679688 C437.709637,90.8528655 438.023436,91.1171858 438.289062,91.4609375 L438.289062,86.8125 L440.1875,86.8125 L440.1875,99 L438.59375,99 L438.40625,97.953125 C438.135415,98.3489603 437.809898,98.6497386 437.429688,98.8554688 C437.049477,99.0611989 436.606773,99.1640625 436.101562,99.1640625 C435.065099,99.1640625 434.257815,98.7864621 433.679688,98.03125 C433.10156,97.2760379 432.8125,96.2838603 432.8125,95.0546875 L432.8125,94.890625 Z M434.710938,95.0546875 C434.710938,95.8359414 434.860676,96.458331 435.160156,96.921875 C435.459637,97.385419 435.934893,97.6171875 436.585938,97.6171875 C436.986981,97.6171875 437.326822,97.5312509 437.605469,97.359375 C437.884116,97.1874991 438.111978,96.9427099 438.289062,96.625 L438.289062,92.9375 C438.111978,92.6249984 437.882814,92.3815113 437.601562,92.2070312 C437.320311,92.0325512 436.986981,91.9453125 436.601562,91.9453125 C435.955726,91.9453125 435.479168,92.2174452 435.171875,92.7617188 C434.864582,93.3059923 434.710938,94.0156206 434.710938,94.890625 L434.710938,95.0546875 Z M449.648438,95.0546875 C449.648438,96.2890687 449.36068,97.2825483 448.785156,98.0351562 C448.209633,98.7877642 447.398443,99.1640625 446.351562,99.1640625 C445.825518,99.1640625 445.368492,99.0572927 444.980469,98.84375 C444.592446,98.6302073 444.26823,98.3177104 444.007812,97.90625 L443.820312,99 L442.226562,99 L442.226562,86.8125 L444.125,86.8125 L444.125,91.5078125 C444.385418,91.1484357 444.697915,90.8723968 445.0625,90.6796875 C445.427085,90.4869782 445.85156,90.390625 446.335938,90.390625 C447.393234,90.390625 448.209633,90.8020792 448.785156,91.625 C449.36068,92.4479208 449.648438,93.5364516 449.648438,94.890625 L449.648438,95.0546875 Z M447.75,94.890625 C447.75,94.0104123 447.59896,93.2994819 447.296875,92.7578125 C446.99479,92.2161431 446.515628,91.9453125 445.859375,91.9453125 C445.437498,91.9453125 445.084637,92.0390616 444.800781,92.2265625 C444.516926,92.4140634 444.291668,92.6744775 444.125,93.0078125 L444.125,96.5546875 C444.286459,96.8932309 444.510415,97.154947 444.796875,97.3398438 C445.083335,97.5247405 445.442706,97.6171875 445.875,97.6171875 C446.531253,97.6171875 447.007811,97.3867211 447.304688,96.9257812 C447.601564,96.4648414 447.75,95.8411498 447.75,95.0546875 L447.75,94.890625 Z M456.375,99 C456.307291,98.7864573 456.251302,98.578126 456.207031,98.375 C456.16276,98.171874 456.132813,97.968751 456.117188,97.765625 C455.85677,98.1614603 455.514325,98.4934882 455.089844,98.7617188 C454.665362,99.0299493 454.190107,99.1640625 453.664062,99.1640625 C452.78385,99.1640625 452.108075,98.9375023 451.636719,98.484375 C451.165362,98.0312477 450.929688,97.4088581 450.929688,96.6171875 C450.929688,95.7994751 451.252601,95.1627627 451.898438,94.7070312 C452.544274,94.2512998 453.453119,94.0234375 454.625,94.0234375 L456.101562,94.0234375 L456.101562,93.28125 C456.101562,92.8385395 455.971355,92.4921887 455.710938,92.2421875 C455.45052,91.9921863 455.078127,91.8671875 454.59375,91.8671875 C454.161456,91.8671875 453.81771,91.9713531 453.5625,92.1796875 C453.30729,92.3880219 453.179688,92.6562484 453.179688,92.984375 L451.351562,92.984375 L451.34375,92.9375 C451.307291,92.27083 451.605466,91.6796901 452.238281,91.1640625 C452.871097,90.6484349 453.695307,90.390625 454.710938,90.390625 C455.695317,90.390625 456.48958,90.6406225 457.09375,91.140625 C457.69792,91.6406275 458,92.3593703 458,93.296875 L458,97.0546875 C458,97.4036476 458.023437,97.7382796 458.070312,98.0585938 C458.117188,98.3789079 458.192708,98.6927068 458.296875,99 L456.375,99 Z M454.046875,97.640625 C454.526044,97.640625 454.957029,97.5208345 455.339844,97.28125 C455.722658,97.0416655 455.976562,96.7682307 456.101562,96.4609375 L456.101562,95.2109375 L454.59375,95.2109375 C454.041664,95.2109375 453.609377,95.3476549 453.296875,95.6210938 C452.984373,95.8945326 452.828125,96.216144 452.828125,96.5859375 C452.828125,96.9088558 452.933593,97.1653636 453.144531,97.3554688 C453.35547,97.5455739 453.656248,97.640625 454.046875,97.640625 Z M463.484375,97.6484375 C463.947919,97.6484375 464.33854,97.5117201 464.65625,97.2382812 C464.97396,96.9648424 465.132812,96.6223979 465.132812,96.2109375 L466.851562,96.2109375 L466.867188,96.2578125 C466.893229,97.0494831 466.571618,97.731768 465.902344,98.3046875 C465.23307,98.877607 464.427088,99.1640625 463.484375,99.1640625 C462.239577,99.1640625 461.28516,98.7630248 460.621094,97.9609375 C459.957028,97.1588502 459.625,96.1432353 459.625,94.9140625 L459.625,94.640625 C459.625,93.4166605 459.957028,92.4023478 460.621094,91.5976562 C461.28516,90.7929647 462.239577,90.390625 463.484375,90.390625 C464.500005,90.390625 465.324216,90.686195 465.957031,91.2773438 C466.589847,91.8684925 466.895833,92.6197871 466.875,93.53125 L466.859375,93.578125 L465.132812,93.578125 C465.132812,93.114581 464.98047,92.7213558 464.675781,92.3984375 C464.371092,92.0755192 463.973961,91.9140625 463.484375,91.9140625 C462.77083,91.9140625 462.265626,92.1731745 461.96875,92.6914062 C461.671874,93.209638 461.523438,93.8593711 461.523438,94.640625 L461.523438,94.9140625 C461.523438,95.7109415 461.671874,96.3658829 461.96875,96.8789062 C462.265626,97.3919296 462.77083,97.6484375 463.484375,97.6484375 Z M471.140625,95.3046875 L470.289062,95.3046875 L470.289062,99 L468.398438,99 L468.398438,86.8125 L470.289062,86.8125 L470.289062,93.78125 L471.078125,93.78125 L473.210938,90.546875 L475.445312,90.546875 L472.65625,94.390625 L475.859375,99 L473.65625,99 L471.140625,95.3046875 Z" id="User-Feedback" fill="#032A2F"></path>
            <path d="M388.109375,180.335938 C388.109375,181.726569 387.673181,182.878902 386.800781,183.792969 C385.928381,184.707036 384.796882,185.164062 383.40625,185.164062 C382.04166,185.164062 380.933598,184.707036 380.082031,183.792969 C379.230464,182.878902 378.804688,181.726569 378.804688,180.335938 L378.804688,178.289062 C378.804688,176.903639 379.230464,175.752609 380.082031,174.835938 C380.933598,173.919266 382.039056,173.460938 383.398438,173.460938 C384.789069,173.460938 385.921871,173.919266 386.796875,174.835938 C387.671879,175.752609 388.109375,176.903639 388.109375,178.289062 L388.109375,180.335938 Z M386.21875,178.273438 C386.21875,177.325516 385.964846,176.546878 385.457031,175.9375 C384.949216,175.328122 384.263025,175.023438 383.398438,175.023438 C382.5651,175.023438 381.906252,175.328122 381.421875,175.9375 C380.937498,176.546878 380.695312,177.325516 380.695312,178.273438 L380.695312,180.335938 C380.695312,181.294276 380.937498,182.079424 381.421875,182.691406 C381.906252,183.303388 382.567704,183.609375 383.40625,183.609375 C384.276046,183.609375 384.962237,183.304691 385.464844,182.695312 C385.96745,182.085934 386.21875,181.299484 386.21875,180.335938 L386.21875,178.273438 Z M397.34375,181.054688 C397.34375,182.289069 397.055992,183.282548 396.480469,184.035156 C395.904945,184.787764 395.093755,185.164062 394.046875,185.164062 C393.520831,185.164062 393.063804,185.057293 392.675781,184.84375 C392.287758,184.630207 391.963543,184.31771 391.703125,183.90625 L391.515625,185 L389.921875,185 L389.921875,172.8125 L391.820312,172.8125 L391.820312,177.507812 C392.08073,177.148436 392.393227,176.872397 392.757812,176.679688 C393.122398,176.486978 393.546873,176.390625 394.03125,176.390625 C395.088547,176.390625 395.904945,176.802079 396.480469,177.625 C397.055992,178.447921 397.34375,179.536452 397.34375,180.890625 L397.34375,181.054688 Z M395.445312,180.890625 C395.445312,180.010412 395.294272,179.299482 394.992188,178.757812 C394.690103,178.216143 394.210941,177.945312 393.554688,177.945312 C393.13281,177.945312 392.779949,178.039062 392.496094,178.226562 C392.212238,178.414063 391.98698,178.674477 391.820312,179.007812 L391.820312,182.554688 C391.981772,182.893231 392.205728,183.154947 392.492188,183.339844 C392.778647,183.524741 393.138019,183.617188 393.570312,183.617188 C394.226566,183.617188 394.703124,183.386721 395,182.925781 C395.296876,182.464841 395.445312,181.84115 395.445312,181.054688 L395.445312,180.890625 Z M403.734375,182.703125 C403.734375,182.411457 403.609376,182.169272 403.359375,181.976562 C403.109374,181.783853 402.643233,181.614584 401.960938,181.46875 C400.950516,181.255207 400.186201,180.951825 399.667969,180.558594 C399.149737,180.165363 398.890625,179.630212 398.890625,178.953125 C398.890625,178.244788 399.190101,177.640627 399.789062,177.140625 C400.388024,176.640623 401.177078,176.390625 402.15625,176.390625 C403.187505,176.390625 404.006507,176.644529 404.613281,177.152344 C405.220055,177.660159 405.510417,178.289059 405.484375,179.039062 L405.46875,179.085938 L403.648438,179.085938 C403.648438,178.736977 403.515626,178.437501 403.25,178.1875 C402.984374,177.937499 402.619794,177.8125 402.15625,177.8125 C401.697914,177.8125 401.34896,177.915364 401.109375,178.121094 C400.86979,178.326824 400.75,178.578124 400.75,178.875 C400.75,179.171876 400.86328,179.407551 401.089844,179.582031 C401.316407,179.756511 401.776038,179.911458 402.46875,180.046875 C403.531255,180.265626 404.319008,180.574217 404.832031,180.972656 C405.345055,181.371096 405.601562,181.914059 405.601562,182.601562 C405.601562,183.361983 405.287764,183.979164 404.660156,184.453125 C404.032549,184.927086 403.205734,185.164062 402.179688,185.164062 C401.080724,185.164062 400.213545,184.882815 399.578125,184.320312 C398.942705,183.75781 398.640625,183.111983 398.671875,182.382812 L398.6875,182.335938 L400.453125,182.335938 C400.473958,182.825523 400.65104,183.182291 400.984375,183.40625 C401.31771,183.630209 401.723956,183.742188 402.203125,183.742188 C402.692711,183.742188 403.070311,183.648438 403.335938,183.460938 C403.601564,183.273437 403.734375,183.020835 403.734375,182.703125 Z M410.929688,185.164062 C409.731765,185.164062 408.777347,184.772139 408.066406,183.988281 C407.355465,183.204423 407,182.197923 407,180.96875 L407,180.65625 C407,179.427077 407.352861,178.407556 408.058594,177.597656 C408.764326,176.787756 409.648432,176.385417 410.710938,176.390625 C411.851568,176.390625 412.725257,176.735674 413.332031,177.425781 C413.938805,178.115889 414.242188,179.041661 414.242188,180.203125 L414.242188,181.320312 L408.96875,181.320312 L408.953125,181.359375 C408.984375,182.031253 409.180988,182.580727 409.542969,183.007812 C409.90495,183.434898 410.406247,183.648438 411.046875,183.648438 C411.557294,183.648438 411.99479,183.585938 412.359375,183.460938 C412.72396,183.335937 413.075519,183.156251 413.414062,182.921875 L414.023438,184.164062 C413.705728,184.445314 413.283857,184.682291 412.757812,184.875 C412.231768,185.067709 411.622399,185.164062 410.929688,185.164062 Z M410.710938,177.914062 C410.242185,177.914062 409.856772,178.100259 409.554688,178.472656 C409.252603,178.845054 409.065105,179.317705 408.992188,179.890625 L409.007812,179.929688 L412.359375,179.929688 L412.359375,179.734375 C412.359375,179.197914 412.222658,178.760418 411.949219,178.421875 C411.67578,178.083332 411.263024,177.914062 410.710938,177.914062 Z M419.984375,178.257812 L419.171875,178.226562 C418.802081,178.226562 418.493491,178.304687 418.246094,178.460938 C417.998697,178.617188 417.807292,178.83854 417.671875,179.125 L417.671875,185 L415.773438,185 L415.773438,176.546875 L417.507812,176.546875 L417.632812,177.773438 C417.846355,177.341144 418.121092,177.002605 418.457031,176.757812 C418.79297,176.51302 419.179685,176.390625 419.617188,176.390625 C419.731771,176.390625 419.838541,176.399739 419.9375,176.417969 C420.036459,176.436198 420.127604,176.458333 420.210938,176.484375 L419.984375,178.257812 Z M424.421875,182.140625 L424.5625,182.828125 L424.609375,182.828125 L424.757812,182.140625 L426.4375,176.546875 L428.398438,176.546875 L425.398438,185 L423.75,185 L420.734375,176.546875 L422.695312,176.546875 L424.421875,182.140625 Z M434.554688,185 C434.486979,184.786457 434.43099,184.578126 434.386719,184.375 C434.342448,184.171874 434.3125,183.968751 434.296875,183.765625 C434.036457,184.16146 433.694013,184.493488 433.269531,184.761719 C432.84505,185.029949 432.369794,185.164062 431.84375,185.164062 C430.963537,185.164062 430.287763,184.937502 429.816406,184.484375 C429.34505,184.031248 429.109375,183.408858 429.109375,182.617188 C429.109375,181.799475 429.432288,181.162763 430.078125,180.707031 C430.723962,180.2513 431.632807,180.023438 432.804688,180.023438 L434.28125,180.023438 L434.28125,179.28125 C434.28125,178.838539 434.151043,178.492189 433.890625,178.242188 C433.630207,177.992186 433.257815,177.867188 432.773438,177.867188 C432.341144,177.867188 431.997397,177.971353 431.742188,178.179688 C431.486978,178.388022 431.359375,178.656248 431.359375,178.984375 L429.53125,178.984375 L429.523438,178.9375 C429.486979,178.27083 429.785153,177.67969 430.417969,177.164062 C431.050784,176.648435 431.874995,176.390625 432.890625,176.390625 C433.875005,176.390625 434.669268,176.640623 435.273438,177.140625 C435.877607,177.640627 436.179688,178.35937 436.179688,179.296875 L436.179688,183.054688 C436.179688,183.403648 436.203125,183.73828 436.25,184.058594 C436.296875,184.378908 436.372395,184.692707 436.476562,185 L434.554688,185 Z M432.226562,183.640625 C432.705732,183.640625 433.136717,183.520835 433.519531,183.28125 C433.902346,183.041665 434.156249,182.768231 434.28125,182.460938 L434.28125,181.210938 L432.773438,181.210938 C432.221351,181.210938 431.789064,181.347655 431.476562,181.621094 C431.164061,181.894533 431.007812,182.216144 431.007812,182.585938 C431.007812,182.908856 431.11328,183.165364 431.324219,183.355469 C431.535157,183.545574 431.835936,183.640625 432.226562,183.640625 Z M440.53125,174.492188 L440.53125,176.546875 L442.046875,176.546875 L442.046875,177.953125 L440.53125,177.953125 L440.53125,182.625 C440.53125,182.97396 440.60677,183.222656 440.757812,183.371094 C440.908855,183.519532 441.109374,183.59375 441.359375,183.59375 C441.463542,183.59375 441.565104,183.584636 441.664062,183.566406 C441.763021,183.548177 441.85677,183.523438 441.945312,183.492188 L442.148438,184.882812 C441.986978,184.971355 441.794272,185.040364 441.570312,185.089844 C441.346353,185.139323 441.114585,185.164062 440.875,185.164062 C440.17708,185.164062 439.63021,184.959637 439.234375,184.550781 C438.83854,184.141925 438.640625,183.500004 438.640625,182.625 L438.640625,177.953125 L437.351562,177.953125 L437.351562,176.546875 L438.640625,176.546875 L438.640625,174.492188 L440.53125,174.492188 Z M445.757812,185 L443.859375,185 L443.859375,176.546875 L445.757812,176.546875 L445.757812,185 Z M445.757812,174.476562 L443.859375,174.476562 L443.859375,172.8125 L445.757812,172.8125 L445.757812,174.476562 Z M447.53125,180.695312 C447.53125,179.440098 447.874997,178.408858 448.5625,177.601562 C449.26042,176.794267 450.205723,176.390625 451.398438,176.390625 C452.611985,176.390625 453.562497,176.794267 454.25,177.601562 C454.942712,178.40365 455.289062,179.43489 455.289062,180.695312 L455.289062,180.859375 C455.289062,182.130215 454.942712,183.166663 454.25,183.96875 C453.562497,184.765629 452.617194,185.164062 451.414062,185.164062 C450.205723,185.164062 449.255212,184.763025 448.5625,183.960938 C447.874997,183.15885 447.53125,182.125006 447.53125,180.859375 L447.53125,180.695312 Z M449.429688,180.859375 C449.429688,181.682296 449.591144,182.354164 449.914062,182.875 C450.231772,183.390628 450.731767,183.648438 451.414062,183.648438 C452.075524,183.648438 452.570311,183.390628 452.898438,182.875 C453.231773,182.354164 453.398438,181.682296 453.398438,180.859375 L453.398438,180.695312 C453.398438,179.888017 453.231773,179.223961 452.898438,178.703125 C452.570311,178.177081 452.070316,177.914062 451.398438,177.914062 C450.736976,177.914062 450.242189,178.177081 449.914062,178.703125 C449.591144,179.229169 449.429688,179.893225 449.429688,180.695312 L449.429688,180.859375 Z M458.664062,176.546875 L458.773438,177.765625 C459.049481,177.333331 459.397133,176.996095 459.816406,176.753906 C460.235679,176.511718 460.708331,176.390625 461.234375,176.390625 C462.114588,176.390625 462.800779,176.657549 463.292969,177.191406 C463.785159,177.725263 464.03125,178.557286 464.03125,179.6875 L464.03125,185 L462.132812,185 L462.132812,179.703125 C462.132812,179.067705 462.001303,178.615887 461.738281,178.347656 C461.475259,178.079426 461.075524,177.945312 460.539062,177.945312 C460.169269,177.945312 459.838543,178.027343 459.546875,178.191406 C459.255207,178.35547 459.015626,178.580728 458.828125,178.867188 L458.828125,185 L456.929688,185 L456.929688,176.546875 L458.664062,176.546875 Z" id="Observation" fill="#032A2F"></path>
            <path d="M203.5,95.5 L282.998773,95.5 C289.901487,95.5 295.5,89.8957296 295.5,82.9926877 L295.5,19.0073123 C295.5,14.8591576 298.855765,11.5 303.000032,11.5 L348.5,11.5 L348.5,6.5 L303.000032,6.5 C296.093209,6.5 290.5,12.0988643 290.5,19.0073123 L290.5,82.9926877 C290.5,87.1354557 287.138913,90.5 282.998773,90.5 L203.5,90.5 L203.5,95.5 Z" id="Path-12" fill="#1576BE" fill-rule="nonzero"></path>
            <path d="M637.5,90.5 L558.001227,90.5 C553.861087,90.5 550.5,87.1354557 550.5,82.9926877 L550.5,19.0073123 C550.5,12.0988643 544.906791,6.5 537.999968,6.5 L492.5,6.5 L492.5,11.5 L537.999968,11.5 C542.144235,11.5 545.5,14.8591576 545.5,19.0073123 L545.5,82.9926877 C545.5,89.8957296 551.098513,95.5 558.001227,95.5 L637.5,95.5 L637.5,90.5 Z" id="Path-12-Copy-2" fill="#1576BE" fill-rule="nonzero"></path>
            <path d="M203.5,97.5 L282.998773,97.5 C287.140592,97.5 290.5,100.859798 290.5,105.000531 L290.5,169.999469 C290.5,176.90455 296.093589,182.5 303.000032,182.5 L348.5,182.5 L348.5,177.5 L303.000032,177.5 C298.855385,177.5 295.5,174.143499 295.5,169.999469 L295.5,105.000531 C295.5,98.098504 289.902146,92.5 282.998773,92.5 L203.5,92.5 L203.5,97.5 Z" id="Path-12-Copy" fill="#1576BE" fill-rule="nonzero"></path>
            <path d="M637.5,93.5 L558.001227,93.5 C551.097854,93.5 545.5,99.098504 545.5,106.000531 L545.5,170.999469 C545.5,175.143499 542.144615,178.5 537.999968,178.5 L492.5,178.5 L492.5,183.5 L537.999968,183.5 C544.906411,183.5 550.5,177.90455 550.5,170.999469 L550.5,106.000531 C550.5,101.859798 553.859408,98.5 558.001227,98.5 L637.5,98.5 L637.5,93.5 Z" id="Path-12-Copy-3" fill="#1576BE" fill-rule="nonzero"></path>
            <polygon id="Path-14" fill="#1576BE" fill-rule="nonzero" points="206.5 96 348.5 96 348.5 91 206.5 91"></polygon>
            <polygon id="Path-15-Copy" fill="#1576BE" fill-rule="nonzero" points="340.171573 99 343 101.828427 351.828427 93 343 84.1715729 340.171573 87 346.171573 93"></polygon>
            <polygon id="Path-15-Copy-2" fill="#1576BE" fill-rule="nonzero" points="340.171573 186 343 188.828427 351.828427 180 343 171.171573 340.171573 174 346.171573 180"></polygon>
            <polygon id="Path-15-Copy-3" fill="#1576BE" fill-rule="nonzero" points="631.171573 100 634 102.828427 642.828427 94 634 85.1715729 631.171573 88 637.171573 94"></polygon>
            <g id="Group-12" transform="translate(492.000000, 86.000000)" fill-rule="nonzero" fill="#1576BE">
                <polygon id="Path-14-Copy" points="239.5 12 302 12 302 7 239.5 7"></polygon>
                <polygon id="Path-14-Copy-2" points="0.5 11 63 11 63 6 0.5 6"></polygon>
                <polygon id="Path-15-Copy-4" points="295.171573 15 298 17.8284271 306.828427 9 298 0.171572875 295.171573 3 301.171573 9"></polygon>
            </g>
            <g id="Group-12-Copy" transform="translate(896.000000, 86.000000)" fill-rule="nonzero" fill="#1576BE">
                <polygon id="Path-14-Copy" points="0.5 12 63 12 63 7 0.5 7"></polygon>
                <polygon id="Path-15-Copy-4" points="56.1715729 15 59 17.8284271 67.8284271 9 59 0.171572875 56.1715729 3 62.1715729 9"></polygon>
            </g>
        </g>
    </g>
</svg>