<svg xmlns="http://www.w3.org/2000/svg" width="190" height="102" viewBox="0 0 190 102">
  <g id="Group_7024" data-name="Group 7024" transform="translate(-19766 -7918)">
    <g id="Group_1317" data-name="Group 1317" transform="translate(19532 7855)">
      <rect id="Rectangle_233" data-name="Rectangle 233" width="190" height="102" rx="4" transform="translate(234 63)" fill="#1ba1f5"/>
      <g id="noun_Calendar_1258387" transform="translate(302.296 87.296)" opacity="0.6">
        <g id="Group_7025" data-name="Group 7025">
          <path id="Path_1118" data-name="Path 1118" d="M42.291,4.167H39.583V1.875a1.875,1.875,0,1,0-3.75,0V4.167H16.667V1.875A1.837,1.837,0,0,0,15,0a1.867,1.867,0,0,0-1.875,1.875V4.167H10.417A10.447,10.447,0,0,0,0,14.583V42.291A10.315,10.315,0,0,0,10.417,52.708H42.291A10.315,10.315,0,0,0,52.708,42.291V14.583A10.447,10.447,0,0,0,42.291,4.167ZM49.375,42.5A6.936,6.936,0,0,1,42.5,49.375H10.417A6.8,6.8,0,0,1,3.542,42.5h0V14.583a6.8,6.8,0,0,1,6.875-6.875h2.917V9.792a1.7,1.7,0,0,0,1.875,1.667,1.486,1.486,0,0,0,1.458-1.667V7.708H36.041V9.792a1.867,1.867,0,0,0,1.875,1.875,1.7,1.7,0,0,0,1.667-1.875V7.708h2.708a6.936,6.936,0,0,1,6.875,6.875Z" fill="#fff"/>
          <path id="Path_1119" data-name="Path 1119" d="M21.7,14.7H18.367A4.179,4.179,0,0,0,14.2,18.867V22.2a4.179,4.179,0,0,0,4.167,4.167H21.7A4.179,4.179,0,0,0,25.867,22.2V18.867A4.179,4.179,0,0,0,21.7,14.7Z" transform="translate(15.383 15.925)" fill="#fff"/>
        </g>
      </g>
    </g>
  </g>
</svg>
