<svg xmlns="http://www.w3.org/2000/svg" width="190" height="102" viewBox="0 0 190 102">
  <g id="Group_1318" data-name="Group 1318" transform="translate(-440 -63)">
    <rect id="Rectangle_234" data-name="Rectangle 234" width="190" height="102" rx="4" transform="translate(440 63)" fill="#20bf95"/>
    <g id="noun_dashboard_1245750" transform="translate(508.067 81.348)" opacity="0.6">
      <path id="Path_1095" data-name="Path 1095" d="M32.627,35.836l3.985-3.985q-.1-.168-.217-.328l-4.084,4.083Z" transform="translate(-13.47 -7.683)" fill="#fff"/>
      <path id="Path_1096" data-name="Path 1096" d="M31.151,34.574,35.327,30.4c-.081-.1-.166-.2-.253-.292l-4.238,4.239Z" transform="translate(-12.67 -6.914)" fill="#fff"/>
      <path id="Path_1097" data-name="Path 1097" d="M30.144,31.6l3.612-3.612c-.105-.077-.213-.152-.323-.223l-3.289,3.289V31.6Z" transform="translate(-12.295 -5.643)" fill="#fff"/>
      <path id="Path_1098" data-name="Path 1098" d="M30.144,29.932l2.9-2.9c-.118-.065-.239-.126-.361-.184l-2.54,2.54Z" transform="translate(-12.295 -5.147)" fill="#fff"/>
      <path id="Path_1099" data-name="Path 1099" d="M30.144,28.374l2.1-2.1c-.133-.051-.268-.1-.4-.14l-1.7,1.7v.545Z" transform="translate(-12.295 -4.757)" fill="#fff"/>
      <path id="Path_1100" data-name="Path 1100" d="M30.144,26.945l1.21-1.21c-.151-.034-.3-.062-.459-.086l-.75.75Z" transform="translate(-12.295 -4.497)" fill="#fff"/>
      <path id="Path_1101" data-name="Path 1101" d="M30.144,33.355l4.247-4.247c-.093-.089-.188-.176-.286-.259L30.144,32.81Z" transform="translate(-12.295 -6.233)" fill="#fff"/>
      <path id="Path_1102" data-name="Path 1102" d="M30.332,25.507c-.063,0-.125-.006-.188-.009v.2Z" transform="translate(-12.295 -4.415)" fill="#fff"/>
      <path id="Path_1103" data-name="Path 1103" d="M34.1,37.19l3.713-3.713c-.055-.125-.114-.248-.178-.368L33.788,36.96Z" transform="translate(-14.272 -8.544)" fill="#fff"/>
      <path id="Path_1104" data-name="Path 1104" d="M37.059,40.228l2.868-2.868c-.02-.159-.043-.316-.074-.471L36.744,40Z" transform="translate(-15.875 -10.594)" fill="#fff"/>
      <path id="Path_1105" data-name="Path 1105" d="M35.58,38.648,38.928,35.3c-.039-.14-.082-.278-.131-.414l-3.532,3.532Z" transform="translate(-15.073 -9.508)" fill="#fff"/>
      <path id="Path_1106" data-name="Path 1106" d="M40.012,43.943l1.329-1.329a6.317,6.317,0,0,0,.154-.7l-1.8,1.8Z" transform="translate(-17.477 -13.321)" fill="#fff"/>
      <path id="Path_1107" data-name="Path 1107" d="M38.534,41.968l2.233-2.233c.006-.113.01-.226.01-.34,0-.07,0-.14-.005-.21l-2.552,2.553Z" transform="translate(-16.676 -11.84)" fill="#fff"/>
      <path id="Path_1108" data-name="Path 1108" d="M41.368,46.348a6.481,6.481,0,0,0,.409-.744l-.6.6Z" transform="translate(-18.279 -15.323)" fill="#fff"/>
      <g id="Group_7023" data-name="Group 7023" transform="translate(7.481 17.36)">
        <path id="Path_1109" data-name="Path 1109" d="M44.2,47.226H9.666a2.187,2.187,0,0,1-2.185-2.185v-25.5A2.188,2.188,0,0,1,9.666,17.36H44.2a2.188,2.188,0,0,1,2.185,2.185v25.5A2.187,2.187,0,0,1,44.2,47.226ZM9.666,18.234a1.313,1.313,0,0,0-1.311,1.311v25.5a1.313,1.313,0,0,0,1.311,1.311H44.2a1.313,1.313,0,0,0,1.311-1.311v-25.5A1.313,1.313,0,0,0,44.2,18.234Z" transform="translate(-7.481 -17.36)" fill="#fff"/>
      </g>
      <rect id="Rectangle_1701" data-name="Rectangle 1701" width="1.678" height="5.49" transform="translate(29.753 25.963)" fill="#fff"/>
      <rect id="Rectangle_1702" data-name="Rectangle 1702" width="1.677" height="5.033" transform="translate(32.356 26.421)" fill="#fff"/>
      <rect id="Rectangle_1703" data-name="Rectangle 1703" width="1.677" height="4.117" transform="translate(34.958 27.336)" fill="#fff"/>
      <rect id="Rectangle_1704" data-name="Rectangle 1704" width="1.677" height="6.406" transform="translate(37.561 25.047)" fill="#fff"/>
      <rect id="Rectangle_1705" data-name="Rectangle 1705" width="1.677" height="6.406" transform="translate(40.163 25.047)" fill="#fff"/>
      <path id="Path_1110" data-name="Path 1110" d="M45.818,56.386,37.01,60.713,33.8,58.773,28.023,61.4l-9.367.827L14.967,64.85H45.792Z" transform="translate(-4.061 -21.172)" fill="#fff"/>
      <path id="Path_1111" data-name="Path 1111" d="M21.942,38.409A6.478,6.478,0,0,1,21.7,25.457v6.409h0l5.415,3.957h0A6.471,6.471,0,0,1,21.942,38.409Z" transform="translate(-4.33 -4.393)" fill="#fff"/>
    </g>
    <g id="noun_person_1993836" transform="translate(438.859 63.213)" opacity="0.6">
      <g id="Group_7019" data-name="Group 7019" transform="translate(14.592 8.876)">
        <circle id="Ellipse_15" data-name="Ellipse 15" cx="8.184" cy="8.184" r="8.184" transform="translate(6.237 3)" fill="#fff"/>
        <path id="Path_1091" data-name="Path 1091" d="M29.013,68.31c7.965,0,14.421-2.739,14.421-4.607,0-3.018-3.71-7.361-8.974-9.288a11.155,11.155,0,0,1-10.894,0c-5.263,1.927-8.973,6.27-8.973,9.288C14.592,65.571,21.049,68.31,29.013,68.31Z" transform="translate(-14.592 -34.459)" fill="#fff"/>
      </g>
    </g>
    <g id="noun_person_1993836-2" data-name="noun_person_1993836" transform="translate(588.128 75.089)" opacity="0.6">
      <g id="Group_7019-2" data-name="Group 7019" transform="translate(0 0)">
        <ellipse id="Ellipse_15-2" data-name="Ellipse 15" cx="8.184" cy="8.184" rx="8.184" ry="8.184" transform="translate(6.237)" fill="#fff"/>
        <path id="Path_1091-2" data-name="Path 1091" d="M29.013,68.31c-7.965,0-14.421-2.739-14.421-4.607,0-3.018,3.71-7.361,8.974-9.288a11.156,11.156,0,0,0,10.894,0c5.263,1.927,8.973,6.27,8.973,9.288C43.434,65.571,36.977,68.31,29.013,68.31Z" transform="translate(-14.592 -37.458)" fill="#fff"/>
      </g>
    </g>
    <g id="noun_person_1993836-3" data-name="noun_person_1993836" transform="translate(438.859 109.213)" opacity="0.6">
      <g id="Group_7019-3" data-name="Group 7019" transform="translate(14.592 8.876)">
        <circle id="Ellipse_15-3" data-name="Ellipse 15" cx="8.184" cy="8.184" r="8.184" transform="translate(6.237 3)" fill="#fff"/>
        <path id="Path_1091-3" data-name="Path 1091" d="M29.013,68.31c7.965,0,14.421-2.739,14.421-4.607,0-3.018-3.71-7.361-8.974-9.288a11.155,11.155,0,0,1-10.894,0c-5.263,1.927-8.973,6.27-8.973,9.288C14.592,65.571,21.049,68.31,29.013,68.31Z" transform="translate(-14.592 -34.459)" fill="#fff"/>
      </g>
    </g>
    <g id="noun_person_1993836-4" data-name="noun_person_1993836" transform="translate(588.128 121.09)" opacity="0.6">
      <g id="Group_7019-4" data-name="Group 7019" transform="translate(0 0)">
        <ellipse id="Ellipse_15-4" data-name="Ellipse 15" cx="8.184" cy="8.184" rx="8.184" ry="8.184" transform="translate(6.237)" fill="#fff"/>
        <path id="Path_1091-4" data-name="Path 1091" d="M29.013,68.31c-7.965,0-14.421-2.739-14.421-4.607,0-3.018,3.71-7.361,8.974-9.288a11.156,11.156,0,0,0,10.894,0c5.263,1.927,8.973,6.27,8.973,9.288C43.434,65.571,36.977,68.31,29.013,68.31Z" transform="translate(-14.592 -37.458)" fill="#fff"/>
      </g>
    </g>
    <path id="Path_1114" data-name="Path 1114" d="M159.265,1927.595H161v-11.209h2.5l-4.231-6.394-4.363,6.394h2.614v11.209Z" transform="translate(2240.521 920.319) rotate(120)" fill="#fff" opacity="0.6"/>
    <path id="Path_1116" data-name="Path 1116" d="M4.363,0H6.1V11.209h2.5L4.363,17.6,0,11.209H2.614V0Z" transform="translate(576.696 90.671) rotate(60)" fill="#fff" opacity="0.6"/>
    <path id="Path_1115" data-name="Path 1115" d="M4.363,0H6.1V11.209h2.5L4.363,17.6,0,11.209H2.614V0Z" transform="translate(493.725 138.916) rotate(-120)" fill="#fff" opacity="0.6"/>
    <path id="Path_1117" data-name="Path 1117" d="M4.363,17.6H6.1V6.394h2.5L4.363,0,0,6.394H2.614V17.6Z" transform="translate(561.452 130.114) rotate(-60)" fill="#fff" opacity="0.6"/>
  </g>
</svg>
