<svg xmlns="http://www.w3.org/2000/svg" width="190" height="102" viewBox="0 0 190 102">
  <g id="Group_1307" data-name="Group 1307" transform="translate(-19766 -7918)">
    <g id="Group_1317" data-name="Group 1317" transform="translate(19532 7855)">
      <rect id="Rectangle_233" data-name="Rectangle 233" width="190" height="102" rx="4" transform="translate(234 63)" fill="#1ba1f5"/>
      <g id="Group_1314" data-name="Group 1314" transform="translate(-436.586 -1929)">
        <g id="noun_thumbs_up_1351290" data-name="noun_thumbs up_1351290" transform="translate(705.066 2015.657)" opacity="0.6">
          <path id="Path_1066" data-name="Path 1066" d="M71.08,24.3A1.293,1.293,0,0,0,72.373,25.6h2.9a1.293,1.293,0,0,0,0-2.586h-2.9A1.293,1.293,0,0,0,71.08,24.3Z" transform="translate(-29.238 -10.626)" fill="#fff"/>
          <path id="Path_1067" data-name="Path 1067" d="M32.66,24.3A1.293,1.293,0,0,0,33.953,25.6h2.9a1.293,1.293,0,0,0,0-2.586h-2.9A1.293,1.293,0,0,0,32.66,24.3Z" transform="translate(-10.689 -10.626)" fill="#fff"/>
          <path id="Path_1068" data-name="Path 1068" d="M57.256,5.189v-2.9a1.293,1.293,0,1,0-2.586,0v2.9a1.293,1.293,0,1,0,2.586,0Z" transform="translate(-21.316 0)" fill="#fff"/>
          <path id="Path_1069" data-name="Path 1069" d="M68.715,7.826,66.646,9.895a1.295,1.295,0,0,0,1.831,1.831l2.069-2.069a1.295,1.295,0,1,0-1.831-1.831Z" transform="translate(-26.914 -3.113)" fill="#fff"/>
          <path id="Path_1070" data-name="Path 1070" d="M42.43,12.063a1.293,1.293,0,0,0,.915-2.208L41.277,7.786a1.295,1.295,0,0,0-1.831,1.831l2.069,2.069a1.288,1.288,0,0,0,.915.378Z" transform="translate(-13.782 -3.093)" fill="#fff"/>
          <path id="Path_1071" data-name="Path 1071" d="M13.106,31.576a2.586,2.586,0,0,0-2.586,2.586V56.8a2.586,2.586,0,0,0,2.586,2.586H20.6a2.586,2.586,0,0,0,2.586-2.4l1.6.962a9.827,9.827,0,0,0,5.053,1.4H40.766a9.542,9.542,0,0,0,3.848-.765c3.491-1.552,4.039-4.277,3.781-6.087a5.689,5.689,0,0,0,1.681-6.32,5.648,5.648,0,0,0,1.293-3.729,5.42,5.42,0,0,0-1.06-2.943,4.743,4.743,0,0,0-1.184-5.42q-.16-.15-.336-.284a4.918,4.918,0,0,0-1.986-.879h-.057a38.8,38.8,0,0,0-9.129-.776c-.129-.781-.124-2.421.9-5.508.946-2.86.864-5.224-.248-7.029a5.839,5.839,0,0,0-4.174-2.658h-.16a2.736,2.736,0,0,0-2.664,1.934,1.3,1.3,0,0,0-.041.186l-.388,2.793a8.327,8.327,0,0,1-.724,2.421l-3.77,7.918a4.443,4.443,0,0,1-3.165,2.586v-.615A2.586,2.586,0,0,0,20.6,31.576Zm0,25.219V34.162H20.6V56.8ZM23.45,37.379a7,7,0,0,0,5.224-4.138l3.739-7.9a10.9,10.9,0,0,0,.946-3.176l.4-2.612a.14.14,0,0,1,.067-.036,3.284,3.284,0,0,1,2.229,1.438c.683,1.107.683,2.788,0,4.857-1,3.02-1.314,5.4-.931,7.091a2.338,2.338,0,0,0,2.3,1.821h0a37.281,37.281,0,0,1,8.792.719h.052a2.379,2.379,0,0,1,.957.4l.166.14A2.328,2.328,0,0,1,47.7,39a1.293,1.293,0,0,0,.228,1.66,3.067,3.067,0,0,1,.874,1.893,3.553,3.553,0,0,1-1.164,2.519,1.293,1.293,0,0,0-.171,1.552c.057.1,1.386,2.41-1.246,4.344a1.314,1.314,0,0,0-.455,1.469c.14.414.688,2.534-2.152,3.781a6.977,6.977,0,0,1-2.845.538H29.817A7.241,7.241,0,0,1,26.1,55.719l-2.917-1.748V37.421Z" transform="translate(0 -7.695)" fill="#fff"/>
          <circle id="Ellipse_5" data-name="Ellipse 5" cx="1.577" cy="1.577" r="1.577" transform="translate(15.273 43.498)" fill="#fff"/>
        </g>
        <g id="noun_thumbs_up_1351290-2" data-name="noun_thumbs up_1351290" transform="translate(775.586 2016.657)" opacity="0.6">
          <path id="Path_1066-2" data-name="Path 1066" d="M76.562,24.3A1.293,1.293,0,0,1,75.269,25.6h-2.9a1.293,1.293,0,1,1,0-2.586h2.9A1.293,1.293,0,0,1,76.562,24.3Z" transform="translate(-67.034 -11.626)" fill="#fff"/>
          <path id="Path_1067-2" data-name="Path 1067" d="M38.142,24.3A1.293,1.293,0,0,1,36.849,25.6h-2.9a1.293,1.293,0,1,1,0-2.586h2.9A1.293,1.293,0,0,1,38.142,24.3Z" transform="translate(-8.743 -11.626)" fill="#fff"/>
          <path id="Path_1068-2" data-name="Path 1068" d="M54.67,5.189v-2.9a1.293,1.293,0,0,1,2.586,0v2.9a1.293,1.293,0,0,1-2.586,0Z" transform="translate(-39.24 -1)" fill="#fff"/>
          <path id="Path_1069-2" data-name="Path 1069" d="M68.477,7.826l2.069,2.069a1.295,1.295,0,0,1-1.831,1.831L66.646,9.657a1.295,1.295,0,1,1,1.831-1.831Z" transform="translate(-58.907 -4.113)" fill="#fff"/>
          <path id="Path_1070-2" data-name="Path 1070" d="M40.362,12.063a1.293,1.293,0,0,1-.915-2.208l2.069-2.069a1.295,1.295,0,0,1,1.831,1.831l-2.069,2.069a1.288,1.288,0,0,1-.915.378Z" transform="translate(-17.64 -4.093)" fill="#fff"/>
          <path id="Path_1071-2" data-name="Path 1071" d="M48.785,31.576a2.586,2.586,0,0,1,2.586,2.586V56.795a2.586,2.586,0,0,1-2.586,2.586H41.3a2.586,2.586,0,0,1-2.586-2.4l-1.6.962a9.827,9.827,0,0,1-5.053,1.4H21.124a9.543,9.543,0,0,1-3.848-.765c-3.491-1.552-4.039-4.277-3.781-6.087a5.689,5.689,0,0,1-1.681-6.32,5.648,5.648,0,0,1-1.293-3.729,5.42,5.42,0,0,1,1.06-2.943,4.743,4.743,0,0,1,1.184-5.42q.16-.15.336-.284a4.919,4.919,0,0,1,1.986-.879h.057a38.8,38.8,0,0,1,9.129-.776c.129-.781.124-2.42-.9-5.508-.946-2.86-.864-5.224.248-7.029A5.839,5.839,0,0,1,27.8,16.94h.16a2.736,2.736,0,0,1,2.664,1.934,1.3,1.3,0,0,1,.041.186l.388,2.793a8.327,8.327,0,0,0,.724,2.42l3.77,7.918a4.443,4.443,0,0,0,3.165,2.586v-.615A2.586,2.586,0,0,1,41.3,31.576Zm0,25.219V34.162H41.3V56.795ZM38.44,37.379a7,7,0,0,1-5.224-4.138l-3.739-7.9a10.9,10.9,0,0,1-.946-3.176l-.4-2.612a.14.14,0,0,0-.067-.036,3.284,3.284,0,0,0-2.229,1.438c-.683,1.107-.683,2.788,0,4.857,1,3.02,1.314,5.4.931,7.091a2.338,2.338,0,0,1-2.3,1.821h0a37.282,37.282,0,0,0-8.793.719h-.052a2.379,2.379,0,0,0-.957.4l-.166.14a2.328,2.328,0,0,0-.31,3.01,1.293,1.293,0,0,1-.228,1.66,3.067,3.067,0,0,0-.874,1.893,3.553,3.553,0,0,0,1.164,2.519,1.293,1.293,0,0,1,.171,1.552c-.057.1-1.386,2.41,1.246,4.344a1.314,1.314,0,0,1,.455,1.469c-.14.414-.688,2.534,2.152,3.781a6.977,6.977,0,0,0,2.845.538H32.074a7.241,7.241,0,0,0,3.719-1.034l2.917-1.748V37.421Z" transform="translate(-10.52 -8.695)" fill="#fff"/>
          <ellipse id="Ellipse_5-2" data-name="Ellipse 5" cx="1.577" cy="1.577" rx="1.577" ry="1.577" transform="translate(32.942 42.498)" fill="#fff"/>
        </g>
      </g>
    </g>
  </g>
</svg>
