<svg xmlns="http://www.w3.org/2000/svg" width="190" height="102" viewBox="0 0 190 102">
  <g id="Group_1318" data-name="Group 1318" transform="translate(-440 -63)">
    <rect id="Rectangle_234" data-name="Rectangle 234" width="190" height="102" rx="4" transform="translate(440 63)" fill="#ed6479"/>
    <path id="Path_1040" data-name="Path 1040" d="M-11962.238,6009c6.043-5.137,21.549-17.817,30.4-10.092s6.082,38.117-3.475,27.59-12.424-11.936-3.682-17.5c2.744-1.746,9.121-9.535,11.365-11.865,4.486-4.654,2.779-4.109-2.6-6.335-7.838-3.244-11.57-11.575-13.7,0s-2.822,15.325,7.311,22.355,20.381,5.446,17.672-6.44-12.908-31.126,0-19.861,13.684,10.024,11.855,22.146-2.746,32.409-12.729,22.056-19.967-19.168-3.242-26.383,29.736-19.049,19.469-24.95-35.047-8.689-31.725.861-6.062,27.52,14,29.379,8.816,20.786,5.494,18.314-1.3-17.086,7.047-21.562,13.51-10.328,17.105-7.807-4.908,16.217,5.711,11.056,13.5-12.38,19.172-14.021,9.861-.142,13,1.192,2.986,2.026,13.32,1.773,19.477,0,19.477,0" transform="translate(12423.122 -5887.598)" fill="none" stroke="#fff" stroke-width="2" opacity="0.5"/>
  </g>
</svg>
