<svg xmlns="http://www.w3.org/2000/svg" width="190" height="102" viewBox="0 0 190 102">
  <g id="Group_1318" data-name="Group 1318" transform="translate(-440 -63)">
    <rect id="Rectangle_234" data-name="Rectangle 234" width="190" height="102" rx="4" transform="translate(440 63)" fill="#ed6479"/>
    <g id="contract" transform="translate(499.201 48.182)" opacity="0.6">
      <path id="Path_1026" data-name="Path 1026" d="M187.494,53.245c0-.008,0-.015,0-.023,0-.024-.011-.047-.018-.07l0-.012c-.007-.023-.016-.046-.025-.069l0-.01c-.009-.022-.019-.043-.03-.063l-.006-.013c-.011-.02-.022-.038-.034-.058l-.01-.016c-.013-.02-.027-.038-.042-.057l-.008-.011a.849.849,0,0,0-.058-.064L174.53,40.057l-.012-.011c-.016-.016-.033-.031-.05-.045l-.024-.018-.044-.033-.022-.013c-.017-.011-.033-.021-.051-.03l-.016-.008-.06-.029-.013,0c-.022-.009-.044-.017-.067-.024l-.014,0c-.022-.006-.045-.013-.068-.017l-.025,0-.059-.009a.861.861,0,0,0-.086,0h-1.246l-6.162-6.162a.785.785,0,0,0-.064-.058l-.01-.008-.058-.043-.014-.008c-.019-.012-.039-.024-.059-.035l-.011-.005c-.021-.011-.043-.022-.065-.031l-.008,0c-.023-.009-.047-.018-.072-.026l-.009,0c-.024-.007-.048-.013-.072-.018l-.021,0c-.021,0-.042-.007-.063-.009a.858.858,0,0,0-.086,0H140.353a4.9,4.9,0,0,0-4.895,4.895v46.47a4.9,4.9,0,0,0,4.895,4.895h3.124v1.52a4.9,4.9,0,0,0,4.895,4.895h34.241a4.9,4.9,0,0,0,4.895-4.895V53.392a.851.851,0,0,0,0-.087C187.5,53.286,187.5,53.265,187.494,53.245ZM174.783,42.753l9.775,9.775h-7a2.775,2.775,0,0,1-2.772-2.772Zm-8.019-6.415,3.466,3.466h-3.467ZM140.353,87.921a3.171,3.171,0,0,1-3.167-3.167V38.285a3.171,3.171,0,0,1,3.167-3.167h24.683V39.8H148.372a4.9,4.9,0,0,0-4.895,4.9V87.92Zm42.259,6.415h-34.24a3.171,3.171,0,0,1-3.167-3.167V44.7a3.171,3.171,0,0,1,3.167-3.168h24.684v8.225a4.5,4.5,0,0,0,4.5,4.5h8.225V91.168a3.171,3.171,0,0,1-3.167,3.167Z" transform="translate(-116.909 0)" fill="#fff"/>
      <path id="Path_1027" data-name="Path 1027" d="M26.084,45.864H24.041V39.6a.864.864,0,0,0-.864-.864H15.864A.864.864,0,0,0,15,39.6V91.52a.864.864,0,0,0,.113.428l3.657,6.415a.864.864,0,0,0,1.5,0l3.657-6.415a.865.865,0,0,0,.113-.428V47.591H25.22V70.748a.864.864,0,0,0,1.728,0V46.727A.864.864,0,0,0,26.084,45.864Zm-3.77,32.369H16.728V44.93h5.586ZM16.728,91.291V79.961h5.586v11.33l-.251.441H16.979Zm5.586-50.824V43.2H16.728V40.467ZM19.52,96.191l-1.557-2.732h3.114Z" transform="translate(-13.793 -4.581)" fill="#fff"/>
      <path id="Path_1028" data-name="Path 1028" d="M41.264,459.014a.864.864,0,0,0-.864.864v1.093a.864.864,0,0,0,1.728,0v-1.093A.864.864,0,0,0,41.264,459.014Z" transform="translate(-35.536 -364.351)" fill="#fff"/>
      <path id="Path_1029" data-name="Path 1029" d="M242.771,414.22h-7.217a.864.864,0,1,0,0,1.728h7.217a.864.864,0,1,0,0-1.728Z" transform="translate(-201.855 -326.006)" fill="#fff"/>
      <path id="Path_1030" data-name="Path 1030" d="M311.233,237.605v-.684a3.269,3.269,0,0,0-.864-6.422,1.542,1.542,0,1,1,1.542-1.542.864.864,0,0,0,1.728,0,3.275,3.275,0,0,0-2.406-3.153v-.575a.864.864,0,0,0-1.728,0v.575a3.269,3.269,0,0,0,.864,6.423,1.542,1.542,0,0,1,.017,3.083h-.033a1.543,1.543,0,0,1-1.526-1.541.864.864,0,0,0-1.728,0,3.275,3.275,0,0,0,2.406,3.153v.684a.864.864,0,1,0,1.728,0Z" transform="translate(-263.84 -163.483)" fill="#fff"/>
      <path id="Path_1031" data-name="Path 1031" d="M237.968,235.309h-.033a1.543,1.543,0,0,1-1.526-1.541.864.864,0,1,0-1.728,0,3.275,3.275,0,0,0,2.406,3.153v.684a.864.864,0,0,0,1.728,0v-.684a3.269,3.269,0,0,0-.864-6.422,1.542,1.542,0,1,1,1.542-1.542.864.864,0,1,0,1.728,0,3.275,3.275,0,0,0-2.406-3.153v-.575a.864.864,0,0,0-1.728,0v.575a3.269,3.269,0,0,0,.864,6.423,1.542,1.542,0,1,1,.017,3.083Z" transform="translate(-201.847 -163.483)" fill="#fff"/>
      <path id="Path_1032" data-name="Path 1032" d="M382.8,235.309h-.033a1.543,1.543,0,0,1-1.525-1.541.864.864,0,1,0-1.728,0,3.275,3.275,0,0,0,2.406,3.153v.684a.864.864,0,1,0,1.728,0v-.684a3.269,3.269,0,0,0-.864-6.422,1.542,1.542,0,1,1,1.542-1.542.864.864,0,1,0,1.728,0,3.275,3.275,0,0,0-2.406-3.153v-.575a.864.864,0,0,0-1.728,0v.575a3.269,3.269,0,0,0,.864,6.423,1.542,1.542,0,0,1,.017,3.083Z" transform="translate(-325.831 -163.483)" fill="#fff"/>
      <path id="Path_1033" data-name="Path 1033" d="M242.771,347.376h-7.217a.864.864,0,1,0,0,1.728h7.217a.864.864,0,1,0,0-1.728Z" transform="translate(-201.855 -268.785)" fill="#fff"/>
      <path id="Path_1034" data-name="Path 1034" d="M242.771,380.8h-7.217a.864.864,0,1,0,0,1.728h7.217a.864.864,0,1,0,0-1.728Z" transform="translate(-201.855 -297.397)" fill="#fff"/>
      <path id="Path_1035" data-name="Path 1035" d="M235.554,163.048h16.84a.864.864,0,1,0,0-1.728h-16.84a.864.864,0,1,0,0,1.728Z" transform="translate(-201.855 -109.514)" fill="#fff"/>
      <path id="Path_1036" data-name="Path 1036" d="M235.554,196.47h16.84a.864.864,0,1,0,0-1.728h-16.84a.864.864,0,1,0,0,1.728Z" transform="translate(-201.855 -138.125)" fill="#fff"/>
      <path id="Path_1037" data-name="Path 1037" d="M333.586,390.84a.864.864,0,0,0-1.221,0l-1.091,1.09-1.09-1.09a.864.864,0,1,0-1.222,1.221l1.09,1.09-1.09,1.091a.864.864,0,1,0,1.221,1.221l1.09-1.091,1.091,1.09a.864.864,0,1,0,1.221-1.222l-1.09-1.091,1.09-1.09a.864.864,0,0,0,0-1.221Z" transform="translate(-282.339 -305.775)" fill="#fff"/>
      <path id="Path_1038" data-name="Path 1038" d="M378.146,390.841a.864.864,0,0,0-1.222,0l-1.091,1.09-1.09-1.09a.864.864,0,0,0-1.222,1.222l1.09,1.09-1.09,1.09a.864.864,0,0,0,1.222,1.222l1.09-1.091,1.091,1.091a.864.864,0,0,0,1.221-1.222l-1.09-1.09,1.09-1.09a.864.864,0,0,0,0-1.221Z" transform="translate(-320.483 -305.776)" fill="#fff"/>
      <path id="Path_1039" data-name="Path 1039" d="M422.712,390.84a.864.864,0,0,0-1.221,0l-1.091,1.09-1.09-1.09a.864.864,0,1,0-1.221,1.221l1.091,1.09-1.09,1.091a.864.864,0,1,0,1.221,1.221l1.09-1.091,1.091,1.09a.864.864,0,1,0,1.221-1.222l-1.09-1.09,1.09-1.09a.864.864,0,0,0,0-1.221Z" transform="translate(-358.634 -305.775)" fill="#fff"/>
    </g>
  </g>
</svg>
