<svg xmlns="http://www.w3.org/2000/svg" width="190" height="102" viewBox="0 0 190 102">
  <g id="Group_1318" data-name="Group 1318" transform="translate(-440 -63)">
    <rect id="Rectangle_234" data-name="Rectangle 234" width="190" height="102" rx="4" transform="translate(440 63)" fill="#20bf95"/>
    <g id="Group_1311" data-name="Group 1311" transform="translate(22.636 -2044.267)" opacity="0.6">
      <g id="noun_Head_656082" transform="translate(473.982 2158.547)">
        <path id="Path_1054" data-name="Path 1054" d="M35.508,38.033c-1.208,0-.9,2.638-.032,4.24H17.839c.744-.923,1.45-1.947,2.23-3.125a9.264,9.264,0,0,0,1.146-6.5,9.709,9.709,0,0,0-1.806-3.612c-2.171-3.31-4.534-6.723-4.424-12.008.087-4.181,2.636-7.47,5.056-9.57,4.927-4.275,16.331-4.378,20.593.482a13.885,13.885,0,0,1,3.293,8.036,6.32,6.32,0,0,1-.681,3.879c-.681,1.744,4.232,6.38,2.979,7.556-.758.74-1.516.705-2.384,1.251-.658.318.109,1.258-.308,2.812-.307,1.143-.914,1.632-1.1,2.618-.135.714.664.906.361,2.347-.259,1.231-1.091,1.6-2.438,1.806C38.572,38.516,37.3,38.084,35.508,38.033Z" transform="translate(-14.982 -4.273)" fill="none" stroke="#fff" stroke-width="3" fill-rule="evenodd"/>
      </g>
      <g id="noun_Head_656082-2" data-name="noun_Head_656082" transform="translate(519.41 2158.547)">
        <path id="Path_1054-2" data-name="Path 1054" d="M25.9,38.033c1.208,0,.9,2.638.032,4.24H43.573c-.744-.923-1.45-1.947-2.23-3.125a9.264,9.264,0,0,1-1.146-6.5A9.709,9.709,0,0,1,42,29.037c2.171-3.31,4.534-6.723,4.424-12.008-.087-4.181-2.636-7.47-5.056-9.57-4.927-4.275-16.331-4.378-20.592.482a13.885,13.885,0,0,0-3.293,8.036,6.32,6.32,0,0,0,.681,3.879c.681,1.744-4.232,6.38-2.979,7.556.758.74,1.516.705,2.384,1.251.658.318-.109,1.258.308,2.812.307,1.143.914,1.632,1.1,2.618.135.714-.664.906-.361,2.347.259,1.231,1.091,1.6,2.438,1.806C22.84,38.516,24.115,38.084,25.9,38.033Z" transform="translate(-14.982 -4.273)" fill="none" stroke="#fff" stroke-width="3" fill-rule="evenodd"/>
      </g>
      <path id="Path_1055" data-name="Path 1055" d="M24.716,0c13.65,0,24.716,6.9,24.716,15.411,0,4.068-2.528,7.768-6.917,10.66-.979.646,4.342,9.454,4.342,9.454-.962.433-10.037-6.653-11.279-6.267a37.053,37.053,0,0,1-10.863,1.564,37.014,37.014,0,0,1-11.795-1.874C11.9,28.608,2.141,36.071.977,35.525c0,0,7.477-8.5,6.8-8.889C3.05,23.9,0,19.88,0,15.411,0,6.9,11.066,0,24.716,0Z" transform="translate(487.061 2114.657)" fill="none" stroke="#fff" stroke-width="3"/>
      <path id="Path_1056" data-name="Path 1056" d="M508.9,2137.483l3.724,4.424,12.337-10.36" transform="translate(-5.156 -5.716)" fill="none" stroke="#fff" stroke-width="3"/>
    </g>
  </g>
</svg>
