<svg xmlns="http://www.w3.org/2000/svg" width="190" height="102" viewBox="0 0 190 102">
  <g id="Group_1308" data-name="Group 1308" transform="translate(-70 -1868)">
    <g id="Group_1320" data-name="Group 1320" transform="translate(-782 1805)">
      <rect id="Rectangle_236" data-name="Rectangle 236" width="190" height="102" rx="4" transform="translate(852 63)" fill="#a75be8"/>
      <path id="Path_1057" data-name="Path 1057" d="M935.775,93.94Z" transform="translate(-0.434 10.906)" fill="none" stroke="#fff" stroke-width="2"/>
      <g id="noun_Torch_2560411" transform="translate(891.129 239.972)" opacity="0.6">
        <g id="Group_1312" data-name="Group 1312" transform="translate(55.5 -161.391) rotate(45)">
          <path id="Path_1058" data-name="Path 1058" d="M11.659,27.006l8.91,2.39L41.2,50.032a6.619,6.619,0,0,0,4.668,1.94,6.022,6.022,0,0,0,3.854-1.355,6.223,6.223,0,0,0,.452-9.21L29.368,20.6l-2.39-8.91A19.035,19.035,0,0,0,22.06,3.174a.5.5,0,0,0-.707,0L3.146,21.382a.5.5,0,0,0,0,.707A19.028,19.028,0,0,0,11.659,27.006ZM49.471,42.114a5.223,5.223,0,0,1-.381,7.731,5.4,5.4,0,0,1-7.178-.521L21.535,28.948l7.385-7.385ZM26.012,11.947l2.35,8.76L20.679,28.39l-8.761-2.35A18,18,0,0,1,7.867,24.4L24.372,7.9A18.007,18.007,0,0,1,26.012,11.947ZM21.7,4.241a18,18,0,0,1,2.143,2.768L6.98,23.874a18,18,0,0,1-2.768-2.143Z" fill="#fff" stroke="#fff" stroke-width="2"/>
          <path id="Path_1059" data-name="Path 1059" d="M28,31.434,33.964,37.4a2.407,2.407,0,1,0,3.4-3.4L31.405,28.03a2.464,2.464,0,0,0-3.4,0,2.407,2.407,0,0,0,0,3.4Zm.707-2.7a1.408,1.408,0,0,1,1.99,0L36.661,34.7a1.408,1.408,0,0,1,0,1.99,1.442,1.442,0,0,1-1.99,0l-5.963-5.962a1.408,1.408,0,0,1,0-1.99Z" fill="#fff"/>
        </g>
      </g>
      <g id="Group_1313" data-name="Group 1313" transform="translate(-0.422 -4)" opacity="0.6">
        <path id="Path_1060" data-name="Path 1060" d="M929.422,80.039l2.236,5.284" fill="none" stroke="#fff" stroke-width="1"/>
        <path id="Path_1063" data-name="Path 1063" d="M931.658,80.039l-2.236,5.284" transform="translate(33)" fill="none" stroke="#fff" stroke-width="1"/>
        <path id="Path_1065" data-name="Path 1065" d="M931.658,80.039l-2.236,5.284" transform="matrix(0.921, -0.391, 0.391, 0.921, 58.181, 368.856)" fill="none" stroke="#fff" stroke-width="1"/>
        <path id="Path_1061" data-name="Path 1061" d="M929.422,80.039l2.236,5.284" transform="translate(3 7)" fill="none" stroke="#fff" stroke-width="1"/>
        <path id="Path_1062" data-name="Path 1062" d="M931.658,80.039l-2.236,5.284" transform="translate(30 7)" fill="none" stroke="#fff" stroke-width="1"/>
        <path id="Path_1064" data-name="Path 1064" d="M931.658,80.039l-2.236,5.284" transform="matrix(0.921, -0.391, 0.391, 0.921, 58.154, 376.471)" fill="none" stroke="#fff" stroke-width="1"/>
      </g>
    </g>
  </g>
</svg>
