<svg xmlns="http://www.w3.org/2000/svg" width="1350.947" height="210.677" viewBox="0 0 1350.947 210.677">
  <g id="Group_1316" data-name="Group 1316" transform="translate(-155.553 -171.156)">
    <g id="Page-1" transform="translate(155.553 174.156)">
      <g id="Group-3-Copy" transform="translate(0 0)">
        <path id="Path" d="M.463,0Z" transform="translate(45.267 94.487) rotate(180)" fill-rule="evenodd"/>
        <path id="Path-2" data-name="Path" d="M.463,0Z" transform="translate(45.267 104.967) rotate(180)" fill-rule="evenodd"/>
        <rect id="Rectangle" width="739.125" height="146.728" rx="1.7" stroke-width="6" fill="#efd5be" stroke="#000" transform="translate(939.832 146.728) rotate(180)"/>
        <rect id="Rectangle-2" data-name="Rectangle" width="53.755" height="45.203" transform="translate(208.037 94.072)"/>
        <rect id="Rectangle-Copy-9" width="53.755" height="45.203" transform="translate(265.458 94.072)"/>
        <rect id="Rectangle-Copy-13" width="111.176" height="45.203" transform="translate(208.037 45.203)"/>
        <rect id="Rectangle-Copy-16" width="53.755" height="83.077" transform="translate(322.878 7.33)"/>
        <rect id="Rectangle-Copy-10" width="53.755" height="45.203" transform="translate(322.878 94.072)"/>
        <rect id="Rectangle-Copy-14" width="53.755" height="34.208" transform="translate(208.037 7.33)"/>
        <rect id="Rectangle-Copy-15" width="53.755" height="34.208" transform="translate(265.458 7.33)"/>
        <rect id="Rectangle-Copy-11" width="53.755" height="45.203" transform="translate(380.299 94.072)"/>
        <rect id="Rectangle-Copy-17" width="53.755" height="19.547" transform="translate(380.299 70.859)"/>
        <rect id="Rectangle-Copy-18" width="53.755" height="19.547" transform="translate(380.299 47.647)"/>
        <rect id="Rectangle-Copy-19" width="53.755" height="19.547" transform="translate(380.299 24.434)"/>
        <rect id="Rectangle-Copy-20" width="53.755" height="13.439" transform="translate(380.299 7.33)"/>
        <rect id="Rectangle-Copy-12" width="53.755" height="45.203" transform="translate(437.719 94.072)"/>
        <path id="Path-3" data-name="Path" d="M23.965,48.211A23.648,23.648,0,0,1,0,24.105,23.648,23.648,0,0,1,23.965,0,23.648,23.648,0,0,1,47.93,24.105,23.648,23.648,0,0,1,23.965,48.211Z" transform="translate(835.648 207.677) rotate(180)" fill-rule="evenodd"/>
        <path id="Path-4" data-name="Path" d="M23.965,48.211A23.648,23.648,0,0,1,0,24.105,23.648,23.648,0,0,1,23.965,0,23.648,23.648,0,0,1,47.93,24.105C48.972,37.73,37.51,48.211,23.965,48.211Z" transform="translate(909.627 207.677) rotate(180)" fill-rule="evenodd"/>
        <path id="Path-5" data-name="Path" d="M26.049,28.3H0V0H16.671V3.144C15.629,12.577,19.8,22.009,26.049,28.3Z" transform="translate(936.718 186.716) rotate(180)" fill-rule="evenodd"/>
        <path id="Path-6" data-name="Path" d="M0,28.3H9.378c9.378,0,17.713-8.384,17.713-17.817V0H10.42V3.144A36.706,36.706,0,0,1,0,28.3Z" transform="translate(787.718 186.716) rotate(180)" fill-rule="evenodd"/>
        <path id="Path-7" data-name="Path" d="M22.923,31.442H0C6.252,20.961,10.42,14.673,10.42,4.192V0h3.126V4.192C12.5,14.673,16.671,20.961,22.923,31.442Z" transform="translate(859.613 188.812) rotate(180)" fill-rule="evenodd"/>
        <path id="Path-8" data-name="Path" d="M23.965,48.211A23.648,23.648,0,0,1,0,24.105,23.648,23.648,0,0,1,23.965,0,23.648,23.648,0,0,1,47.93,24.105,23.648,23.648,0,0,1,23.965,48.211Z" transform="translate(257.363 207.677) rotate(180)" fill-rule="evenodd"/>
        <path id="Path-9" data-name="Path" d="M23.965,48.211A23.648,23.648,0,0,1,0,24.105,23.648,23.648,0,0,1,23.965,0,23.648,23.648,0,0,1,47.93,24.105,23.648,23.648,0,0,1,23.965,48.211Z" transform="translate(75.021 207.677) rotate(180)" fill-rule="evenodd"/>
        <path id="Path-10" data-name="Path" d="M23.965,48.211A23.648,23.648,0,0,1,0,24.105,23.648,23.648,0,0,1,23.965,0,23.648,23.648,0,0,1,47.93,24.105,24.307,24.307,0,0,1,23.965,48.211Z" transform="translate(330.3 207.677) rotate(180)" fill-rule="evenodd"/>
        <path id="Path-11" data-name="Path" d="M27.091,28.3H17.713C8.336,28.3,0,19.913,0,10.481V0H16.671V3.144A36.706,36.706,0,0,0,27.091,28.3Z" transform="translate(359.475 186.716) rotate(180)" fill-rule="evenodd"/>
        <path id="Path-12" data-name="Path" d="M22.923,31.442H0C6.252,20.961,10.42,14.673,10.42,4.192V0h3.126V4.192C12.5,14.673,16.671,20.961,22.923,31.442Z" transform="translate(281.328 188.812) rotate(180)" fill-rule="evenodd"/>
        <path id="Path-13" data-name="Path" d="M70.853,31.442H0C6.252,20.961,10.42,14.673,10.42,4.192V0H70.853Z" transform="translate(208.391 188.812) rotate(180)" fill-rule="evenodd"/>
        <path id="Path-2-2" data-name="Path-2" d="M35.209,104.01H0V0H35.209" transform="translate(977.496 124.779) rotate(180)" fill="#efd5be" stroke="#000" stroke-linejoin="round" stroke-width="5" fill-rule="evenodd"/>
        <path id="Path-3-2" data-name="Path-3" d="M0,12.492V0" transform="translate(964.889 79.686) rotate(180)" fill="none" stroke="#000" stroke-width="5" fill-rule="evenodd"/>
        <g id="Group" transform="translate(182.342 189.86) rotate(180)">
          <path id="Path-14" data-name="Path" d="M17.713,25.153H0V7.336C0,1.048,34.385,0,34.385,0Z" transform="translate(76.063 80.7)" fill="none" fill-rule="evenodd"/>
          <path id="Path-15" data-name="Path" d="M10.42,21.3H0V.335H10.42c7.294,0,20.839-2.1,20.839,4.192V5.576C31.259,12.912,17.713,21.3,10.42,21.3Z" transform="translate(13.545 126.479)" fill="none" fill-rule="evenodd"/>
          <path id="Path-16" data-name="Path" d="M3.126,6.288A13.362,13.362,0,0,0,2.084,0H18.755V20.961H0A37.173,37.173,0,0,0,3.126,6.288Z" transform="translate(163.587)" fill-rule="evenodd"/>
          <path id="Shape" d="M131.286,40.874a30.546,30.546,0,0,0,22.923-9.432H181.3s-8.336,55.547-58.349,55.547c-12.5,19.913-14.587,28.3-14.587,28.3h4.168s0,10.481-12.5,10.481H89.608C56.266,167.689,10.42,158.256,0,158.256V41.922H52.1V0H93.776V5.24C95.86,25.153,112.531,40.874,131.286,40.874ZM76.063,86.989v17.817H93.776l16.671-25.153S76.063,81.748,76.063,86.989Z" transform="translate(0 1.048)" stroke="#000" stroke-width="1.7"/>
        </g>
      </g>
    </g>
    <rect id="Rectangle-Copy-12-2" data-name="Rectangle-Copy-12" width="45.05" height="37.883" transform="translate(1187.916 252.704)"/>
    <g id="Group_1315" data-name="Group 1315" transform="translate(-133)">
      <path id="Path_1" data-name="Path 1" d="M34.247,62.495A24.247,24.247,0,1,0,10,38.247,24.247,24.247,0,0,0,34.247,62.495Zm0-8.082A16.165,16.165,0,1,1,50.412,38.247,16.165,16.165,0,0,1,34.247,54.412Z" transform="translate(1367.573 255.285)"/>
      <path id="Path_3" data-name="Path 3" d="M56.412,101.989H20.041a4.041,4.041,0,0,0,0,8.082H60.453a4.041,4.041,0,0,0,4.041-4.041V9.041a4.041,4.041,0,1,0-8.082,0Z" transform="translate(1313.079 191.543)"/>
      <path id="Path_6" data-name="Path 6" d="M59.073,13.082,66.66,66.19a4.041,4.041,0,1,0,8-1.143L66.578,8.47a4.041,4.041,0,0,0-4-3.47H22.165a4.041,4.041,0,0,0-3.986,3.377L6.056,81.119a4.041,4.041,0,1,0,7.972,1.329L25.589,13.082Z" transform="translate(1383.697 191.543)"/>
      <path id="Path_7" data-name="Path 7" d="M10.646,24.77l5.715,5.715L28.485,18.362,22.77,12.646Z" transform="translate(1392.358 245.699)"/>
      <path id="Path_2" data-name="Path 2" d="M18.165,48.33A16.165,16.165,0,1,0,2,32.165,16.165,16.165,0,0,0,18.165,48.33Zm0-8.082a8.082,8.082,0,1,1,8.082-8.082A8.082,8.082,0,0,1,18.165,40.247Z" transform="translate(1456.398 269.45)"/>
      <path id="Path_4" data-name="Path 4" d="M53.495,26.082a4.041,4.041,0,0,0,0-8.082H9.041a4.041,4.041,0,0,0,0,8.082Z" transform="translate(1408.944 283.615)"/>
      <path id="Path_5" data-name="Path 5" d="M56.422,20.082l7.317,29.269a4.041,4.041,0,1,0,7.841-1.96L63.5,15.061A4.041,4.041,0,0,0,59.577,12H35.33A4.041,4.041,0,0,0,31.5,14.763L24.334,36.247H7.041a4.041,4.041,0,0,0,0,8.082H27.247a4.041,4.041,0,0,0,3.834-2.763l7.161-21.484Z" transform="translate(1410.944 241.12)"/>
      <path id="Path_8" data-name="Path 8" d="M19.266,26.981a4.041,4.041,0,1,0,5.715-5.715L16.9,13.184A4.041,4.041,0,0,0,11.184,18.9Z" transform="translate(1399.903 241.12)"/>
    </g>
    <line id="Line_13" data-name="Line 13" x2="391" transform="translate(1115.5 319.5)" fill="none" stroke="#000" stroke-width="4"/>
  </g>
</svg>
