<svg xmlns="http://www.w3.org/2000/svg" width="5759.049" height="1003.709" viewBox="0 0 5759.049 1003.709">
  <g id="Group_1" data-name="Group 1" transform="translate(-1990 -22213)">
    <g id="Page-1" transform="translate(1990 22216)">
      <g id="Group-3-Copy" transform="translate(0 0)">
        <path id="Path" d="M2.231,0Z" transform="translate(218.124 455.293) rotate(180)" fill-rule="evenodd"/>
        <path id="Path-2" data-name="Path" d="M2.231,0Z" transform="translate(218.124 505.795) rotate(180)" fill-rule="evenodd"/>
        <rect id="Rectangle" width="3561.538" height="707.02" rx="1.7" stroke-width="6" fill="#efd5be" stroke="#000" transform="translate(4528.66 707.02) rotate(180)"/>
        <rect id="Rectangle-2" data-name="Rectangle" width="259.025" height="217.816" transform="translate(1002.444 453.293)"/>
        <rect id="Rectangle-Copy-9" width="259.025" height="217.816" transform="translate(1279.13 453.293)"/>
        <rect id="Rectangle-Copy-13" width="535.71" height="217.816" transform="translate(1002.444 217.816)"/>
        <rect id="Rectangle-Copy-16" width="259.025" height="400.311" transform="translate(1555.815 35.322)"/>
        <rect id="Rectangle-Copy-10" width="259.025" height="217.816" transform="translate(1555.815 453.293)"/>
        <rect id="Rectangle-Copy-14" width="259.025" height="164.834" transform="translate(1002.444 35.322)"/>
        <rect id="Rectangle-Copy-15" width="259.025" height="164.834" transform="translate(1279.13 35.322)"/>
        <rect id="Rectangle-Copy-11" width="259.025" height="217.816" transform="translate(1832.501 453.293)"/>
        <rect id="Rectangle-Copy-17" width="259.025" height="94.191" transform="translate(1832.501 341.442)"/>
        <rect id="Rectangle-Copy-18" width="259.025" height="94.191" transform="translate(1832.501 229.59)"/>
        <rect id="Rectangle-Copy-19" width="259.025" height="94.191" transform="translate(1832.501 117.739)"/>
        <rect id="Rectangle-Copy-20" width="259.025" height="64.756" transform="translate(1832.501 35.322)"/>
        <rect id="Rectangle-Copy-12" width="259.025" height="217.816" transform="translate(2109.187 453.293)"/>
        <path id="Path-3" data-name="Path" d="M115.477,232.307C50.208,232.307,0,181.805,0,116.153S50.208,0,115.477,0,230.954,50.5,230.954,116.153,180.747,232.307,115.477,232.307Z" transform="translate(4026.64 1000.709) rotate(180)" fill-rule="evenodd"/>
        <path id="Path-4" data-name="Path" d="M115.477,232.307C50.208,232.307,0,181.805,0,116.153S50.208,0,115.477,0,230.954,50.5,230.954,116.153C235.975,181.805,180.747,232.307,115.477,232.307Z" transform="translate(4383.113 1000.709) rotate(180)" fill-rule="evenodd"/>
        <path id="Path-5" data-name="Path" d="M125.519,136.354H0V0H80.332V15.15C75.311,60.6,95.394,106.053,125.519,136.354Z" transform="translate(4513.652 899.706) rotate(180)" fill-rule="evenodd"/>
        <path id="Path-6" data-name="Path" d="M0,136.354H45.187c45.187,0,85.353-40.4,85.353-85.852V0H50.208V15.15C50.208,60.6,30.125,106.053,0,136.354Z" transform="translate(3795.685 899.706) rotate(180)" fill-rule="evenodd"/>
        <path id="Path-7" data-name="Path" d="M110.456,151.5H0C30.124,101,50.208,70.7,50.208,20.2V0H65.27V20.2C60.249,70.7,80.332,101,110.456,151.5Z" transform="translate(4142.117 909.806) rotate(180)" fill-rule="evenodd"/>
        <path id="Path-8" data-name="Path" d="M115.477,232.307C50.208,232.307,0,181.805,0,116.153S50.208,0,115.477,0,230.954,50.5,230.954,116.153,180.747,232.307,115.477,232.307Z" transform="translate(1240.125 1000.709) rotate(180)" fill-rule="evenodd"/>
        <path id="Path-9" data-name="Path" d="M115.477,232.307C50.207,232.307,0,181.805,0,116.153S50.207,0,115.477,0,230.954,50.5,230.954,116.153,180.747,232.307,115.477,232.307Z" transform="translate(361.494 1000.709) rotate(180)" fill-rule="evenodd"/>
        <path id="Path-10" data-name="Path" d="M115.477,232.307C50.207,232.307,0,181.805,0,116.153S50.207,0,115.477,0,230.954,50.5,230.954,116.153,175.726,232.307,115.477,232.307Z" transform="translate(1591.577 1000.709) rotate(180)" fill-rule="evenodd"/>
        <path id="Path-11" data-name="Path" d="M130.539,136.354H85.353C40.166,136.354,0,95.953,0,50.5V0H80.332V15.15C80.332,60.6,100.415,106.053,130.539,136.354Z" transform="translate(1732.158 899.706) rotate(180)" fill-rule="evenodd"/>
        <path id="Path-12" data-name="Path" d="M110.456,151.5H0C30.124,101,50.208,70.7,50.208,20.2V0H65.27V20.2C60.249,70.7,80.332,101,110.456,151.5Z" transform="translate(1355.602 909.806) rotate(180)" fill-rule="evenodd"/>
        <path id="Path-13" data-name="Path" d="M341.411,151.5H0C30.124,101,50.208,70.7,50.208,20.2V0h291.2Z" transform="translate(1004.149 909.806) rotate(180)" fill-rule="evenodd"/>
        <path id="Path-2-2" data-name="Path-2" d="M169.659,501.181H0V0H169.659" transform="translate(4710.146 601.259) rotate(180)" fill="#efd5be" stroke="#000" stroke-linejoin="round" stroke-width="5" fill-rule="evenodd"/>
        <path id="Path-3-2" data-name="Path-3" d="M0,60.193V0" transform="translate(4649.396 383.974) rotate(180)" fill="none" stroke="#000" stroke-width="5" fill-rule="evenodd"/>
        <g id="Group" transform="translate(878.631 914.856) rotate(180)">
          <path id="Path-14" data-name="Path" d="M85.353,121.2H0V35.351C0,5.05,165.685,0,165.685,0Z" transform="translate(366.515 388.861)" fill="none" fill-rule="evenodd"/>
          <path id="Path-15" data-name="Path" d="M50.207,102.619H0v-101H50.207c35.145,0,100.415-10.1,100.415,20.2v5.05C150.622,62.218,85.353,102.619,50.207,102.619Z" transform="translate(65.27 609.451)" fill="none" fill-rule="evenodd"/>
          <path id="Path-16" data-name="Path" d="M15.062,30.3c0-10.1,0-20.2-5.021-30.3H90.373V101H0C10.041,75.752,15.062,55.552,15.062,30.3Z" transform="translate(788.257)" fill-rule="evenodd"/>
          <path id="Shape" d="M632.614,196.956c45.187,0,80.332-15.15,110.457-45.451H873.61S833.444,419.162,592.448,419.162c-60.249,95.953-70.29,136.354-70.29,136.354h20.083s0,50.5-60.249,50.5H431.784C271.12,808.023,50.207,762.572,0,762.572V202.006H251.037V0h200.83V25.251C461.909,121.2,542.241,196.956,632.614,196.956Zm-266.1,222.206v85.852h85.353l80.332-121.2S366.515,393.911,366.515,419.162Z" transform="translate(0 5.05)" stroke="#000" stroke-width="1.7"/>
        </g>
      </g>
    </g>
    <g id="noun_fork_lift_2146056" data-name="noun_fork lift_2146056" transform="translate(6930.8 22323.873)">
      <g id="Group_1-2" data-name="Group 1" transform="translate(0)">
        <path id="Path_1" data-name="Path 1" d="M126.838,247.676A116.838,116.838,0,1,0,10,130.838,116.838,116.838,0,0,0,126.838,247.676Zm0-38.946a77.892,77.892,0,1,1,77.892-77.892A77.892,77.892,0,0,1,126.838,208.73Z" transform="translate(263.007 336.513)"/>
        <path id="Path_2" data-name="Path 2" d="M79.892,171.784A77.892,77.892,0,1,0,2,93.892,77.892,77.892,0,0,0,79.892,171.784Zm0-38.946a38.946,38.946,0,1,1,38.946-38.946A38.946,38.946,0,0,1,79.892,132.838Z" transform="translate(660.466 412.405)"/>
        <path id="Path_3" data-name="Path 3" d="M210.73,472.351H35.473a19.473,19.473,0,0,0,0,38.946H230.2a19.473,19.473,0,0,0,19.473-19.473V24.473a19.473,19.473,0,1,0-38.946,0Z" transform="translate(23.332 -5)"/>
        <path id="Path_4" data-name="Path 4" d="M238.675,56.946a19.473,19.473,0,1,0,0-38.946H24.473a19.473,19.473,0,0,0,0,38.946Z" transform="translate(443.264 488.297)"/>
        <path id="Path_5" data-name="Path 5" d="M260.417,50.946,295.676,191.98a19.473,19.473,0,1,0,37.783-9.446L294.513,26.75A19.473,19.473,0,0,0,275.621,12H158.784A19.473,19.473,0,0,0,140.31,25.315L105.8,128.838H22.473a19.473,19.473,0,0,0,0,38.946h97.365a19.473,19.473,0,0,0,18.474-13.315L172.819,50.946Z" transform="translate(445.264 260.622)"/>
        <path id="Path_6" data-name="Path 6" d="M261.736,43.946l36.557,255.9a19.473,19.473,0,0,0,38.555-5.508L297.9,21.719A19.473,19.473,0,0,0,278.624,5H83.895A19.473,19.473,0,0,0,64.687,21.272L6.268,371.785a19.473,19.473,0,1,0,38.416,6.4L100.391,43.946Z" transform="translate(325.423 -5)"/>
        <path id="Path_7" data-name="Path 7" d="M10.646,71.065,38.185,98.6,96.6,40.185,69.065,12.646Z" transform="translate(384.902 285.152)"/>
        <path id="Path_8" data-name="Path 8" d="M54.649,84.188A19.473,19.473,0,0,0,82.188,56.649L43.242,17.7A19.473,19.473,0,0,0,15.7,45.242Z" transform="translate(418.791 260.622)"/>
        <rect id="Rectangle-Copy-12-2" data-name="Rectangle-Copy-12" width="217.079" height="182.544" transform="translate(0 270.617)"/>
      </g>
    </g>
  </g>
</svg>
