<svg xmlns="http://www.w3.org/2000/svg" width="190" height="102" viewBox="0 0 190 102">
  <g id="Group_1318" data-name="Group 1318" transform="translate(-440 -63)">
    <rect id="Rectangle_234" data-name="Rectangle 234" width="190" height="102" rx="4" transform="translate(440 63)" fill="#20bf95"/>
    <g id="noun_Less_Time_43229" data-name="noun_Less Time_43229" transform="translate(493.87 73.692)" opacity="0.602">
      <path id="Path_1032" data-name="Path 1032" d="M77.617,5.448a16.769,16.769,0,1,0,16.769,16.77A16.769,16.769,0,0,0,77.617,5.448Zm7.287,19.3H70.33a2.53,2.53,0,1,1,0-5.059H84.9a2.53,2.53,0,1,1,0,5.059Z" transform="translate(-11.91 -5.448)" fill="#fff"/>
      <path id="Path_1033" data-name="Path 1033" d="M61.153,44.071a27.267,27.267,0,0,1,2.378,9.378h-5.4a2.029,2.029,0,0,0,0,4.057h5.382A27.322,27.322,0,0,1,38.064,82.674V77.582a2.031,2.031,0,0,0-4.06,0v5.067A27.326,27.326,0,0,1,8.976,57.507H13.93a2.029,2.029,0,0,0,0-4.057H8.956A27.335,27.335,0,0,1,34,28.118v5.26a2.031,2.031,0,0,0,4.06,0V28.084a27.156,27.156,0,0,1,11.279,3.294,20.9,20.9,0,0,1-1.089-6.467A32.693,32.693,0,1,0,67.527,45.6a20.849,20.849,0,0,1-6.374-1.525Z" transform="translate(-3.5 -7.949)" fill="#fff"/>
      <path id="Path_1034" data-name="Path 1034" d="M41.516,62.774A2.139,2.139,0,1,0,40,62.148a2.142,2.142,0,0,0,1.515.625Z" transform="translate(-8.771 -13.2)" fill="#fff"/>
      <path id="Path_1035" data-name="Path 1035" d="M39.512,53.435a5.407,5.407,0,0,0-.926.084L30.3,45.861a1.743,1.743,0,0,0-2.555,2.292l6.7,9.065a5.374,5.374,0,0,0-.217,1.5,5.268,5.268,0,0,0,.46,2.147l-8.7,13.075a1.743,1.743,0,0,0,2.724,2.079L39.155,63.977c.122.01.236.023.357.023a5.285,5.285,0,1,0,0-10.57Zm0,8.9a3.621,3.621,0,1,1,2.562-1.057,3.622,3.622,0,0,1-2.562,1.057Z" transform="translate(-6.768 -11.286)" fill="#fff"/>
    </g>
  </g>
</svg>
