<?xml version="1.0" encoding="UTF-8"?>
<svg width="926px" height="188px" viewBox="0 0 926 188" version="1.1" xmlns="http://www.w3.org/2000/svg" xmlns:xlink="http://www.w3.org/1999/xlink">
    <!-- Generator: Sketch 47 (45396) - http://www.bohemiancoding.com/sketch -->
    <title>Group 3</title>
    <desc>Created with Sketch.</desc>
    <defs></defs>
    <g id="Page-1" stroke="none" stroke-width="1" fill="none" fill-rule="evenodd">
        <g id="Desktop-HD-Copy-7" transform="translate(-141.000000, -2644.000000)">
            <g id="Group-3" transform="translate(141.000000, 2644.000000)">
                <g id="Group">
                    <rect id="Rectangle-42" stroke="#00A7B5" x="0.5" y="0.5" width="179" height="53"></rect>
                    <text id="Define-scope" font-family="Roboto-Regular, Roboto" font-size="18" font-weight="normal" fill="#464646">
                        <tspan x="38.2182617" y="32">Define scope</tspan>
                    </text>
                </g>
                <g id="Group-Copy" transform="translate(220.000000, 0.000000)">
                    <rect id="Rectangle-42" stroke="#00A7B5" x="0.5" y="0.5" width="179" height="53"></rect>
                    <text id="User-Stories" font-family="Roboto-Regular, Roboto" font-size="18" font-weight="normal" fill="#464646">
                        <tspan x="40.9648438" y="32">User Stories</tspan>
                    </text>
                </g>
                <g id="Group-Copy-10" transform="translate(440.000000, 0.000000)">
                    <rect id="Rectangle-42" stroke="#00A7B5" x="0.5" y="0.5" width="179" height="53"></rect>
                    <text id="Research" font-family="Roboto-Regular, Roboto" font-size="18" font-weight="normal" fill="#464646">
                        <tspan x="52.4697266" y="32">Research</tspan>
                    </text>
                </g>
                <g id="Group" transform="translate(180.000000, 24.000000)">
                    <path d="M0,3 L38.340374,3" id="Line-3" stroke="#00A7B6" stroke-linecap="square"></path>
                    <polygon id="Triangle-Copy" fill="#00A7B6" transform="translate(37.000000, 3.000000) rotate(-180.000000) translate(-37.000000, -3.000000) " points="34 3 40 0 40 6"></polygon>
                </g>
                <g id="Group-Copy-7" transform="translate(400.000000, 24.000000)">
                    <path d="M0,3 L38.340374,3" id="Line-3" stroke="#00A7B6" stroke-linecap="square"></path>
                    <polygon id="Triangle-Copy" fill="#00A7B6" transform="translate(37.000000, 3.000000) rotate(-180.000000) translate(-37.000000, -3.000000) " points="34 3 40 0 40 6"></polygon>
                </g>
                <g id="Group-Copy-11" transform="translate(619.000000, 24.000000)">
                    <path d="M0,3 L38.340374,3" id="Line-3" stroke="#00A7B6" stroke-linecap="square"></path>
                    <polygon id="Triangle-Copy" fill="#00A7B6" transform="translate(37.000000, 3.000000) rotate(-180.000000) translate(-37.000000, -3.000000) " points="34 3 40 0 40 6"></polygon>
                </g>
                <g id="Group-Copy-8" transform="translate(420.000000, 161.000000) scale(-1, 1) translate(-420.000000, -161.000000) translate(400.000000, 158.000000)">
                    <path d="M0,3 L38.340374,3" id="Line-3" stroke="#00A7B6" stroke-linecap="square"></path>
                    <polygon id="Triangle-Copy" fill="#00A7B6" transform="translate(37.000000, 3.000000) rotate(-180.000000) translate(-37.000000, -3.000000) " points="34 3 40 0 40 6"></polygon>
                </g>
                <g id="Group-Copy-12" transform="translate(640.000000, 161.000000) scale(-1, 1) translate(-640.000000, -161.000000) translate(620.000000, 158.000000)">
                    <path d="M0,3 L38.340374,3" id="Line-3" stroke="#00A7B6" stroke-linecap="square"></path>
                    <polygon id="Triangle-Copy" fill="#00A7B6" transform="translate(37.000000, 3.000000) rotate(-180.000000) translate(-37.000000, -3.000000) " points="34 3 40 0 40 6"></polygon>
                </g>
                <g id="Group-Copy-13" transform="translate(883.000000, 95.000000) scale(-1, 1) translate(-883.000000, -95.000000) translate(841.000000, 26.000000)">
                    <polyline id="Line-3" stroke="#00A7B6" stroke-linecap="square" points="48.8832397 0.574777235 0.255626422 0.574777235 0.255626422 135 44 135 82.340374 135"></polyline>
                    <polygon id="Triangle-Copy" fill="#00A7B6" transform="translate(81.000000, 135.000000) rotate(-180.000000) translate(-81.000000, -135.000000) " points="78 135 84 132 84 138"></polygon>
                </g>
                <g id="Group-Copy-9" transform="translate(200.000000, 161.000000) scale(-1, 1) translate(-200.000000, -161.000000) translate(180.000000, 158.000000)">
                    <path d="M0,3 L38.340374,3" id="Line-3" stroke="#00A7B6" stroke-linecap="square"></path>
                    <polygon id="Triangle-Copy" fill="#00A7B6" transform="translate(37.000000, 3.000000) rotate(-180.000000) translate(-37.000000, -3.000000) " points="34 3 40 0 40 6"></polygon>
                </g>
                <g id="Group-Copy-2" transform="translate(659.000000, 0.000000)">
                    <rect id="Rectangle-42" stroke="#00A7B5" x="0.5" y="0.5" width="216" height="53"></rect>
                    <text id="Early-Explorations" font-family="Roboto-Regular, Roboto" font-size="18" font-weight="normal" fill="#464646">
                        <tspan x="36.0419922" y="32">Early Explorations</tspan>
                    </text>
                </g>
                <g id="Group-Copy-3" transform="translate(661.000000, 134.000000)">
                    <rect id="Rectangle-42" stroke="#00A7B5" x="0.5" y="0.5" width="179" height="53"></rect>
                    <text id="Prototyping" font-family="Roboto-Regular, Roboto" font-size="18" font-weight="normal" fill="#464646">
                        <tspan x="43.1445312" y="32">Prototyping</tspan>
                    </text>
                </g>
                <g id="Group-Copy-4" transform="translate(440.000000, 134.000000)">
                    <rect id="Rectangle-42" stroke="#00A7B5" x="0.5" y="0.5" width="179" height="53"></rect>
                    <text id="Usability-Studies" font-family="Roboto-Regular, Roboto" font-size="18" font-weight="normal" fill="#464646">
                        <tspan x="22.2749023" y="32">Usability Studies</tspan>
                    </text>
                </g>
                <g id="Group-Copy-5" transform="translate(220.000000, 134.000000)">
                    <rect id="Rectangle-42" stroke="#00A7B5" x="0.5" y="0.5" width="179" height="53"></rect>
                    <text id="Iteration" font-family="Roboto-Regular, Roboto" font-size="18" font-weight="normal" fill="#464646">
                        <tspan x="56.4423828" y="32">Iteration</tspan>
                    </text>
                </g>
                <g id="Group-Copy-6" transform="translate(0.000000, 134.000000)">
                    <rect id="Rectangle-42" stroke="#00A7B5" x="0.5" y="0.5" width="179" height="53"></rect>
                    <text id="Visual-Design" font-family="Roboto-Regular, Roboto" font-size="18" font-weight="normal" fill="#464646">
                        <tspan x="35.375" y="32">Visual Design</tspan>
                    </text>
                </g>
            </g>
        </g>
    </g>
</svg>