<?xml version="1.0" encoding="UTF-8"?>
<svg width="613px" height="124px" viewBox="0 0 613 124" version="1.1" xmlns="http://www.w3.org/2000/svg" xmlns:xlink="http://www.w3.org/1999/xlink">
    <!-- Generator: Sketch 47 (45396) - http://www.bohemiancoding.com/sketch -->
    <title>Group 34</title>
    <desc>Created with Sketch.</desc>
    <defs></defs>
    <g id="Page-1" stroke="none" stroke-width="1" fill="none" fill-rule="evenodd">
        <g id="Group-34" transform="translate(1.000000, 0.000000)">
            <path d="M92,45 L92,110.666522 C234.206639,127.290958 376.412117,127.290958 518.616433,110.666522 C518.621079,110.099053 518.621079,88.2102127 518.616433,45 C376.412117,56.4266356 234.206639,56.4266356 92,45 Z" id="Path-18" stroke="#E72020" fill="#E66B12" stroke-linecap="square"></path>
            <text id="Best-Graduate-Capsto" font-family="Roboto-Bold, Roboto" font-size="24" font-weight="bold" letter-spacing="0.666666746" fill="#FFFFFF">
                <tspan x="166" y="86">Best Graduate Capstone</tspan>
            </text>
            <text id="HCDE-Open-House-2017" font-family="Roboto-Regular, Roboto" font-size="14" font-weight="normal" letter-spacing="0.388888955" fill="#FFFFFF">
                <tspan x="225" y="110">HCDE Open House 2017</tspan>
            </text>
            <path d="M443.415735,24.2283376 L443.415735,41.0785598 C470.498716,41.4983825 493.405182,40.0558163 512.135133,36.7508609 L443.415735,24.2283376 Z" id="Path-19" stroke="#E72020" fill="#E66B12" stroke-linecap="square"></path>
            <path d="M472.628872,19.6560392 L527.591809,32.1416407 L527.591809,79.3702464 L597.374639,62.712177 L552.478205,44.7841338 C580.36533,31.2744967 599.728013,16.5938266 610.566253,0.742123313 C564.587126,16.1174981 518.607999,22.4221367 472.628872,19.6560392 Z" id="Path-20" stroke="#E72020" fill="#E66B12" stroke-linecap="square"></path>
            <path d="M98.8648672,24.2283376 L98.8648672,41.0785598 C125.947848,41.4983825 148.854314,40.0558163 167.584265,36.7508609 L98.8648672,24.2283376 Z" id="Path-19" stroke="#E72020" fill="#E66B12" stroke-linecap="square" transform="translate(133.224566, 32.688938) scale(-1, 1) translate(-133.224566, -32.688938) "></path>
            <path d="M0.433747354,19.6560392 L55.3966839,32.1416407 L55.3966839,79.3702464 L125.179514,62.712177 L80.2830806,44.7841338 C108.170205,31.2744967 127.532888,16.5938266 138.371128,0.742123313 C92.3920009,16.1174981 46.4128741,22.4221367 0.433747354,19.6560392 Z" id="Path-20" stroke="#E72020" fill="#E66B12" stroke-linecap="square" transform="translate(69.402438, 40.056185) scale(-1, 1) translate(-69.402438, -40.056185) "></path>
        </g>
    </g>
</svg>