<svg xmlns="http://www.w3.org/2000/svg" width="190" height="102" viewBox="0 0 190 102">
  <g id="Group_277" data-name="Group 277" transform="translate(-19361 -8706)">
    <g id="Group_1318" data-name="Group 1318" transform="translate(18921 8643)">
      <rect id="Rectangle_234" data-name="Rectangle 234" width="190" height="102" rx="4" transform="translate(440 63)" fill="#ed6479"/>
    </g>
    <g id="noun_Water_hand_971007" data-name="noun_Water hand_971007" transform="translate(19410 8711.075)" opacity="0.6">
      <g id="Group_274" data-name="Group 274">
        <path id="Path_77" data-name="Path 77" d="M23.5,54.3c-.1,0-.1-.1-.2-.1L18.9,51c-.9-.7-2.7-1.6-3.4-1.2a2.548,2.548,0,0,0-1.1,2.7c0,.1.1.2.2.3,5.3,1.6,13.1,4.6,14.6,5.2h.1l1,.1h0c.1,0,.3-.1.3-.2a.4.4,0,0,0-.2-.4Z" fill="#fff"/>
        <path id="Path_78" data-name="Path 78" d="M84.1,62.6a21.958,21.958,0,0,1-5.9,0,.367.367,0,0,0-.3.1.188.188,0,0,0,0,.3c.3.6.4,1,.5,1.1a.949.949,0,0,1-1.8.6,22.911,22.911,0,0,0-14.3-13,87.073,87.073,0,0,0-18.4-3.5s-2.9-.1-3.6,1.4a3.179,3.179,0,0,0,.1,2.7,2.827,2.827,0,0,0,1.8,1.4,30.886,30.886,0,0,1,13.7,6.1.913.913,0,0,1,.2,1.1.961.961,0,0,1-.9.6L36.8,60.4h-.2l-7.7-.5a.367.367,0,0,1-.3-.1c-.1-.1-13.7-5.5-18-6.1-.3-.1-3-.5-3.7,1.1l-.1.2c-.4.8-1.1,2.2,1.7,3.8,4.4,2.6,36.6,14.3,38,14.8L72.1,79l10.7.9h0c.1,0,.2,0,.2-.1,4.9-5.1,2.3-14.3,1.4-17.1C84.3,62.7,84.2,62.6,84.1,62.6Z" fill="#fff"/>
        <path id="Path_79" data-name="Path 79" d="M42.9,30.2c0-5.9-9.2-16.7-10.3-17.9a1.391,1.391,0,0,0-1.9,0c-1.1,1.2-10.3,11.9-10.3,17.9a11.251,11.251,0,1,0,22.5,0ZM26.8,32.1a1.88,1.88,0,0,1,2.6-.3,3.623,3.623,0,0,0,4.5,0,1.851,1.851,0,1,1,2.3,2.9,6.846,6.846,0,0,1-4.4,1.6,8.152,8.152,0,0,1-4.7-1.6A1.88,1.88,0,0,1,26.8,32.1Z" fill="#fff"/>
      </g>
    </g>
  </g>
</svg>
