<svg xmlns="http://www.w3.org/2000/svg" viewBox="0 0 134 167.5" x="0px" y="0px"><title>Clock_5pm</title><path d="M70,3a67,67,0,1,0,67,67A67.08,67.08,0,0,0,70,3Zm0,130a63,63,0,1,1,63-63A63.07,63.07,0,0,1,70,133Z" transform="translate(-3 -3)"/><path d="M125.25,68H117.6a2,2,0,1,0,0,4h7.65A2,2,0,0,0,125.25,68Z" transform="translate(-3 -3)"/><path d="M44.11,21.15a2,2,0,0,0-3.46,2l3.83,6.63a2,2,0,0,0,3.46-2Z" transform="translate(-3 -3)"/><path d="M29.78,44.47l-6.62-3.83a2,2,0,0,0-2,3.46l6.63,3.83A2,2,0,1,0,29.78,44.47Z" transform="translate(-3 -3)"/><path d="M24.4,70a2,2,0,0,0-2-2H14.75a2,2,0,0,0,0,4H22.4A2,2,0,0,0,24.4,70Z" transform="translate(-3 -3)"/><path d="M27.78,92.07l-6.63,3.83a2,2,0,0,0,2,3.46l6.63-3.83A2,2,0,0,0,27.78,92.07Z" transform="translate(-3 -3)"/><path d="M47.2,109.49a2,2,0,0,0-2.73.73l-3.83,6.63a2,2,0,0,0,3.46,2l3.83-6.62A2,2,0,0,0,47.2,109.49Z" transform="translate(-3 -3)"/><path d="M70,115.6a2,2,0,0,0-2,2v7.65a2,2,0,0,0,4,0V117.6A2,2,0,0,0,70,115.6Z" transform="translate(-3 -3)"/><path d="M95.53,110.22a2,2,0,1,0-3.46,2l3.83,6.63a2,2,0,0,0,3.46-2Z" transform="translate(-3 -3)"/><path d="M118.85,95.89l-6.62-3.83a2,2,0,1,0-2,3.46l6.63,3.83A2,2,0,1,0,118.85,95.89Z" transform="translate(-3 -3)"/><path d="M111.23,48.2a2,2,0,0,0,1-.27l6.63-3.83a2,2,0,0,0-2-3.46l-6.63,3.83A2,2,0,0,0,111.23,48.2Z" transform="translate(-3 -3)"/><path d="M98.63,20.42a2,2,0,0,0-2.73.73l-3.83,6.63a2,2,0,0,0,3.46,2l3.83-6.62A2,2,0,0,0,98.63,20.42Z" transform="translate(-3 -3)"/><path d="M75.34,75.25A7.49,7.49,0,0,0,72,62.78V22.43s0,0,0,0V14.75a2,2,0,0,0-2-2h0a2,2,0,0,0-2,2v48a7.49,7.49,0,0,0,3.88,14.47l13.39,23.19a2,2,0,1,0,3.46-2ZM66.5,70A3.5,3.5,0,1,1,70,73.5,3.5,3.5,0,0,1,66.5,70Z" transform="translate(-3 -3)"/><text x="0" y="149" fill="#000000" font-size="5px" font-weight="bold" font-family="'Helvetica Neue', Helvetica, Arial-Unicode, Arial, Sans-serif">Created by Adam Wilson</text><text x="0" y="154" fill="#000000" font-size="5px" font-weight="bold" font-family="'Helvetica Neue', Helvetica, Arial-Unicode, Arial, Sans-serif">from the Noun Project</text></svg>