<svg xmlns="http://www.w3.org/2000/svg" xmlns:xlink="http://www.w3.org/1999/xlink" version="1.1" x="0px" y="0px" viewBox="0 0 64 80" enable-background="new 0 0 64 64" xml:space="preserve"><g><g><path fill="#000000" d="M39.723,48.564c-0.024,0.315,0.081,0.628,0.292,0.878l8.847,9.57c1.382,1.6,3.314,2.555,5.167,2.555    c0.119,0,0.237-0.004,0.355-0.011c1.059-0.07,2.003-0.445,2.743-1.086l0.918-0.788c1.106-0.951,1.697-2.424,1.621-4.041    c-0.073-1.537-0.71-3.082-1.793-4.349l-8.86-9.577c-0.334-0.392-1.312-0.466-1.695-0.131c-0.25,0.211-0.399,0.5-0.422,0.816    c-0.034,0.335,0.063,0.649,0.273,0.893l8.861,9.578c0.728,0.846,1.17,1.896,1.215,2.879c0.02,0.516-0.056,1.47-0.78,2.089    l-0.914,0.785c-0.364,0.31-0.811,0.485-1.329,0.519c-1.186,0.098-2.552-0.593-3.515-1.708l-8.844-9.573    c-0.218-0.26-0.555-0.408-0.932-0.408l-0.094,0.003c-0.276,0.019-0.508,0.105-0.672,0.252    C39.909,47.926,39.754,48.228,39.723,48.564z"/><path fill="#000000" d="M27.005,47.827c-11.912,0-21.851-9.32-22.628-21.219C3.561,14.12,13.058,3.296,25.546,2.48    c12.577-0.813,23.32,8.777,24.127,21.17c0.815,12.488-8.681,23.312-21.17,24.128C28.002,47.811,27.5,47.827,27.005,47.827z     M27.045,4.952c-0.441,0-0.888,0.014-1.335,0.044C14.609,5.721,6.167,15.342,6.892,26.444    c0.719,11.018,10.285,19.536,21.447,18.819c11.101-0.726,19.544-10.347,18.819-21.448C46.468,13.237,37.633,4.952,27.045,4.952z"/><path fill="#000000" d="M27.007,43.039c-9.398,0-17.241-7.355-17.854-16.743c-0.312-4.774,1.255-9.383,4.409-12.979    c3.155-3.596,7.522-5.748,12.296-6.06c9.916-0.641,18.401,6.925,19.04,16.705c0.643,9.855-6.851,18.396-16.705,19.039    C27.795,43.026,27.399,43.039,27.007,43.039z M27.042,8.227c-0.37,0-0.743,0.012-1.118,0.036    c-4.505,0.294-8.626,2.325-11.604,5.719c-2.978,3.393-4.456,7.743-4.161,12.248c0.604,9.231,8.622,16.374,17.967,15.765    c9.3-0.608,16.373-8.667,15.765-17.967C43.313,15.167,35.912,8.227,27.042,8.227z"/></g><path fill="#000000" d="M24.083,35.082h6.354V12.931h-6.354V35.082z M28.627,14.741v18.532h-2.743V14.741H28.627z"/><path fill="#000000" d="M32.773,18.466v16.616h6.354V18.466H32.773z M34.574,33.272V20.267h2.753v13.005H34.574z"/><path fill="#000000" d="M15.348,35.082h6.355V18.466h-6.355V35.082z M19.893,20.267v13.005H17.15V20.267H19.893z"/></g><text x="0" y="79" fill="#000000" font-size="5px" font-weight="bold" font-family="'Helvetica Neue', Helvetica, Arial-Unicode, Arial, Sans-serif">Created by Delwar Hossain</text><text x="0" y="84" fill="#000000" font-size="5px" font-weight="bold" font-family="'Helvetica Neue', Helvetica, Arial-Unicode, Arial, Sans-serif">from the Noun Project</text></svg>