<svg xmlns="http://www.w3.org/2000/svg" width="190" height="102" viewBox="0 0 190 102">
  <g id="Group_276" data-name="Group 276" transform="translate(-19161 -8706)">
    <g id="Group_1320" data-name="Group 1320" transform="translate(18309 8643)">
      <rect id="Rectangle_236" data-name="Rectangle 236" width="190" height="102" rx="4" transform="translate(852 63)" fill="#a75be8"/>
    </g>
    <g id="noun_complex_idea_1710293" data-name="noun_complex idea_1710293" transform="translate(19214 8718)" opacity="0.597">
      <path id="Path_72" data-name="Path 72" d="M24.47,6.36a1.5,1.5,0,0,0-.55,2L28,15.48A1.5,1.5,0,0,0,30.6,14L26.52,6.91a1.5,1.5,0,0,0-2.05-.55Z" fill="#fff"/>
      <path id="Path_73" data-name="Path 73" d="M15.16,17.21a1.5,1.5,0,0,0-1.5,2.6l7.07,4.08a1.5,1.5,0,1,0,1.5-2.6Z" fill="#fff"/>
      <path id="Path_74" data-name="Path 74" d="M20.15,33.31a1.5,1.5,0,0,0-1.5-1.5H10.48a1.5,1.5,0,0,0,0,3h8.17a1.5,1.5,0,0,0,1.5-1.5Z" fill="#fff"/>
      <path id="Path_75" data-name="Path 75" d="M20.8,42.71,13.72,46.8a1.5,1.5,0,1,0,1.5,2.6l7.07-4.08a1.5,1.5,0,0,0-1.5-2.6Z" fill="#fff"/>
      <path id="Path_76" data-name="Path 76" d="M74,22H70a1,1,0,0,0-1,1v1H66a1,1,0,0,0-1,1v6H62a1,1,0,0,0-1,1v6H43a1,1,0,0,0-.25.05A2,2,0,0,0,41,37h0V36h0a2,2,0,0,0,1.72-1H54a1,1,0,0,0,1-1V19h5a1,1,0,0,0,1-1V12.82a3,3,0,1,0-2,0V17H54a1,1,0,0,0-1,1V33H42.72A2,2,0,0,0,41,32h0V31h0a2,2,0,0,0,1.72-1H49a1,1,0,0,0,1-1V21a1,1,0,0,0-1-1H45V8h1a1,1,0,0,0,1-1V3a1,1,0,0,0-1-1H42a1,1,0,0,0-1,1V7a1,1,0,0,0,1,1h1V21a1,1,0,0,0,1,1h4v6H42.72A2,2,0,0,0,41,27h0V15.48a1,1,0,0,0-1-1h-.12A18.52,18.52,0,0,0,21.5,33c0,5.43,3.05,10.84,5.74,15.61a42.3,42.3,0,0,1,3.87,8h-.6a1,1,0,0,0,.07,2h.07l.81-.06v1l-.77.06a1,1,0,0,0,.07,2h.7v1h-.55a1,1,0,0,0,.07,2h.48v1h-.34a1,1,0,1,0,.07,2h.26v.62c.4,2.53,2.38,4.12,4.78,4.89a4.14,4.14,0,0,0,3.22,2.83.968.968,0,0,0,1.47-.86V51h0a2,2,0,0,0,1.72-1H53v4H52a1,1,0,0,0-1,1v9H49.82a3,3,0,1,0,0,2H52a1,1,0,0,0,1-1V56h1a1,1,0,0,0,1-1V49a1,1,0,0,0-1-1H42.72A2,2,0,0,0,41,47h0V46h0a2,2,0,0,0,1.72-1H57v4a1,1,0,0,0,1,1h2v8a1,1,0,0,0,1,1h5.59l-.41.42a1,1,0,1,0,1.42,1.41L69,59.41l1.42,1.42a1,1,0,0,0,1.41-1.42L70.41,58l1.41-1.41a1,1,0,0,0-1.42-1.41L69,56.58l-1.41-1.41a1,1,0,0,0-1.41,1.42l.41.41H62V49a1,1,0,0,0-1-1H59V44a1,1,0,0,0-1-1H42.72A2,2,0,0,0,41,42h0V41h0a2,2,0,0,0,1.75-1.05A1,1,0,0,0,43,40H62a1,1,0,0,0,1-1V33h3a1,1,0,0,0,1-1V26h2v1a1,1,0,0,0,1,1h4a1,1,0,0,0,1-1V23A1,1,0,0,0,74,22ZM60,9a1,1,0,1,1-1,1A1,1,0,0,1,60,9ZM43,4h2V6H43Zm4,62a1,1,0,1,1,1-1A1,1,0,0,1,47,66ZM35.2,36a5.64,5.64,0,0,1-.69-1.66,1,1,0,0,0-1-.77H32v-1.1h1.53a1,1,0,0,0,1-.77,5.7,5.7,0,0,1,.66-1.7A1,1,0,0,0,35,28.79l-1-1.07.75-.75L35.79,28a1,1,0,0,0,1.24.14,5.62,5.62,0,0,1,1.68-.7,1,1,0,0,0,.29-.12v2.16a3.62,3.62,0,0,0,0,7v2.13a1,1,0,0,0-.29-.12A5.67,5.67,0,0,1,37,37.8a1,1,0,0,0-1.23.14L34.72,39,34,38.28l1.09-1.09A1,1,0,0,0,35.2,36ZM39,34.28a1.62,1.62,0,0,1,0-2.55ZM29.86,47.13C27.22,42.47,24.5,37.64,24.5,33A15.51,15.51,0,0,1,39,17.55V23h-.52a1,1,0,0,0-1,1v1.76a7.59,7.59,0,0,0-.8.33l-1.25-1.25a1,1,0,0,0-1.41,0L31.85,27a1,1,0,0,0,0,1.41l1.26,1.26a7.56,7.56,0,0,0-.33.79H31a1,1,0,0,0-1,1v3.06a1,1,0,0,0,1,1h1.79a7.649,7.649,0,0,0,.32.78l-1.27,1.27a1,1,0,0,0,0,1.41L34,41.15a1,1,0,0,0,1.41,0l1.27-1.27a7.58,7.58,0,0,0,.78.32V42a1,1,0,0,0,1,1H39V56.05l-4.84.35C33.44,53.49,31.69,50.38,29.86,47.13ZM39,58.06v1l-4.49.33v-1ZM34.5,62.4v-1l4.5-.33v1ZM39,64.08v1l-4.49.33v-1Zm-4.5,3.78v-.45l4.5-.33v3.54C36.9,70.41,34.84,69.52,34.5,67.86ZM73,26H71V24h2Z" fill="#fff"/>
    </g>
  </g>
</svg>
