<?xml version="1.0" encoding="UTF-8"?>
<svg width="789px" height="786px" viewBox="0 0 789 786" version="1.1" xmlns="http://www.w3.org/2000/svg" xmlns:xlink="http://www.w3.org/1999/xlink">
    <!-- Generator: Sketch 42 (36781) - http://www.bohemiancoding.com/sketch -->
    <title>Group 14</title>
    <desc>Created with Sketch.</desc>
    <defs>
        <rect id="path-1" x="0" y="0" width="361" height="782"></rect>
        <mask id="mask-2" maskContentUnits="userSpaceOnUse" maskUnits="objectBoundingBox" x="0" y="0" width="361" height="782" fill="white">
            <use xlink:href="#path-1"></use>
        </mask>
        <rect id="path-3" x="0" y="0" width="360" height="136"></rect>
        <filter x="-50%" y="-50%" width="200%" height="200%" filterUnits="objectBoundingBox" id="filter-4">
            <feOffset dx="0" dy="4" in="SourceAlpha" result="shadowOffsetOuter1"></feOffset>
            <feGaussianBlur stdDeviation="2" in="shadowOffsetOuter1" result="shadowBlurOuter1"></feGaussianBlur>
            <feColorMatrix values="0 0 0 0 0   0 0 0 0 0   0 0 0 0 0  0 0 0 0.24 0" type="matrix" in="shadowBlurOuter1" result="shadowMatrixOuter1"></feColorMatrix>
            <feOffset dx="0" dy="0" in="SourceAlpha" result="shadowOffsetOuter2"></feOffset>
            <feGaussianBlur stdDeviation="2" in="shadowOffsetOuter2" result="shadowBlurOuter2"></feGaussianBlur>
            <feColorMatrix values="0 0 0 0 0   0 0 0 0 0   0 0 0 0 0  0 0 0 0.12 0" type="matrix" in="shadowBlurOuter2" result="shadowMatrixOuter2"></feColorMatrix>
            <feMerge>
                <feMergeNode in="shadowMatrixOuter1"></feMergeNode>
                <feMergeNode in="shadowMatrixOuter2"></feMergeNode>
            </feMerge>
        </filter>
        <rect id="path-5" x="0" y="0" width="360" height="48"></rect>
        <linearGradient x1="97.7559293%" y1="8.89063539%" x2="0%" y2="100%" id="linearGradient-7">
            <stop stop-color="#12BDD4" stop-opacity="0.897843071" offset="0%"></stop>
            <stop stop-color="#20DBF5" stop-opacity="0.959051566" offset="48.9055869%"></stop>
            <stop stop-color="#1CD3ED" offset="100%"></stop>
        </linearGradient>
        <path d="M0,12.3411035 C0,12.3411035 36.3956044,-1.8259796 92,0.197889415 L39.4285714,153 L2.02197802,153 C2.02197802,153 0,151.988065 0,149.964196 L0,12.3411035 Z" id="path-8"></path>
        <linearGradient x1="100%" y1="50%" x2="5.4349633%" y2="50%" id="linearGradient-10">
            <stop stop-color="#FFFFFF" offset="0%"></stop>
            <stop stop-color="#E2E2E2" offset="100%"></stop>
        </linearGradient>
        <rect id="path-11" x="0" y="0" width="160" height="36" rx="2"></rect>
        <filter x="-50%" y="-50%" width="200%" height="200%" filterUnits="objectBoundingBox" id="filter-12">
            <feOffset dx="0" dy="1" in="SourceAlpha" result="shadowOffsetOuter1"></feOffset>
            <feGaussianBlur stdDeviation="0.5" in="shadowOffsetOuter1" result="shadowBlurOuter1"></feGaussianBlur>
            <feColorMatrix values="0 0 0 0 0.557902849   0 0 0 0 0.557902849   0 0 0 0 0.557902849  0 0 0 0.5 0" type="matrix" in="shadowBlurOuter1"></feColorMatrix>
        </filter>
        <rect id="path-13" x="0" y="0" width="160" height="36" rx="2"></rect>
        <filter x="-50%" y="-50%" width="200%" height="200%" filterUnits="objectBoundingBox" id="filter-14">
            <feOffset dx="0" dy="1" in="SourceAlpha" result="shadowOffsetOuter1"></feOffset>
            <feGaussianBlur stdDeviation="0.5" in="shadowOffsetOuter1" result="shadowBlurOuter1"></feGaussianBlur>
            <feComposite in="shadowBlurOuter1" in2="SourceAlpha" operator="out" result="shadowBlurOuter1"></feComposite>
            <feColorMatrix values="0 0 0 0 0.556862745   0 0 0 0 0.556862745   0 0 0 0 0.556862745  0 0 0 0.5 0" type="matrix" in="shadowBlurOuter1"></feColorMatrix>
        </filter>
        <mask id="mask-15" maskContentUnits="userSpaceOnUse" maskUnits="objectBoundingBox" x="0" y="0" width="160" height="36" fill="white">
            <use xlink:href="#path-13"></use>
        </mask>
        <rect id="path-16" x="0" y="0" width="160" height="36" rx="2"></rect>
        <filter x="-50%" y="-50%" width="200%" height="200%" filterUnits="objectBoundingBox" id="filter-17">
            <feOffset dx="0" dy="1" in="SourceAlpha" result="shadowOffsetOuter1"></feOffset>
            <feGaussianBlur stdDeviation="0.5" in="shadowOffsetOuter1" result="shadowBlurOuter1"></feGaussianBlur>
            <feComposite in="shadowBlurOuter1" in2="SourceAlpha" operator="out" result="shadowBlurOuter1"></feComposite>
            <feColorMatrix values="0 0 0 0 0.556862745   0 0 0 0 0.556862745   0 0 0 0 0.556862745  0 0 0 0.5 0" type="matrix" in="shadowBlurOuter1"></feColorMatrix>
        </filter>
        <mask id="mask-18" maskContentUnits="userSpaceOnUse" maskUnits="objectBoundingBox" x="0" y="0" width="160" height="36" fill="white">
            <use xlink:href="#path-16"></use>
        </mask>
        <rect id="path-19" x="0" y="0" width="160" height="36" rx="2"></rect>
        <filter x="-50%" y="-50%" width="200%" height="200%" filterUnits="objectBoundingBox" id="filter-20">
            <feMorphology radius="0.5" operator="dilate" in="SourceAlpha" result="shadowSpreadOuter1"></feMorphology>
            <feOffset dx="0" dy="1" in="shadowSpreadOuter1" result="shadowOffsetOuter1"></feOffset>
            <feGaussianBlur stdDeviation="0.5" in="shadowOffsetOuter1" result="shadowBlurOuter1"></feGaussianBlur>
            <feColorMatrix values="0 0 0 0 0.556862745   0 0 0 0 0.556862745   0 0 0 0 0.556862745  0 0 0 0.5 0" type="matrix" in="shadowBlurOuter1"></feColorMatrix>
        </filter>
        <rect id="path-21" x="0" y="0" width="361" height="782"></rect>
        <mask id="mask-22" maskContentUnits="userSpaceOnUse" maskUnits="objectBoundingBox" x="0" y="0" width="361" height="782" fill="white">
            <use xlink:href="#path-21"></use>
        </mask>
        <mask id="mask-24" maskContentUnits="userSpaceOnUse" maskUnits="objectBoundingBox" x="0" y="0" width="361" height="782" fill="white">
            <use xlink:href="#path-21"></use>
        </mask>
        <rect id="path-25" x="0" y="0" width="360" height="136"></rect>
        <filter x="-50%" y="-50%" width="200%" height="200%" filterUnits="objectBoundingBox" id="filter-26">
            <feOffset dx="0" dy="4" in="SourceAlpha" result="shadowOffsetOuter1"></feOffset>
            <feGaussianBlur stdDeviation="2" in="shadowOffsetOuter1" result="shadowBlurOuter1"></feGaussianBlur>
            <feColorMatrix values="0 0 0 0 0   0 0 0 0 0   0 0 0 0 0  0 0 0 0.24 0" type="matrix" in="shadowBlurOuter1" result="shadowMatrixOuter1"></feColorMatrix>
            <feOffset dx="0" dy="0" in="SourceAlpha" result="shadowOffsetOuter2"></feOffset>
            <feGaussianBlur stdDeviation="2" in="shadowOffsetOuter2" result="shadowBlurOuter2"></feGaussianBlur>
            <feColorMatrix values="0 0 0 0 0   0 0 0 0 0   0 0 0 0 0  0 0 0 0.12 0" type="matrix" in="shadowBlurOuter2" result="shadowMatrixOuter2"></feColorMatrix>
            <feMerge>
                <feMergeNode in="shadowMatrixOuter1"></feMergeNode>
                <feMergeNode in="shadowMatrixOuter2"></feMergeNode>
            </feMerge>
        </filter>
        <path d="M0,0 L132,0 L58.0262046,141 L3,141 C3,141 0,140.050325 0,138 L0,0 Z" id="path-27"></path>
        <filter x="-50%" y="-50%" width="200%" height="200%" filterUnits="objectBoundingBox" id="filter-28">
            <feGaussianBlur stdDeviation="31.5457589 0" in="SourceGraphic"></feGaussianBlur>
        </filter>
        <path d="M0,12.3411035 C0,12.3411035 36.3956044,-1.8259796 92,0.197889415 L39.4285714,153 L2.02197802,153 C2.02197802,153 0,151.988065 0,149.964196 L0,12.3411035 Z" id="path-30"></path>
        <rect id="path-32" x="0" y="0" width="160" height="36" rx="2"></rect>
        <filter x="-50%" y="-50%" width="200%" height="200%" filterUnits="objectBoundingBox" id="filter-33">
            <feOffset dx="0" dy="1" in="SourceAlpha" result="shadowOffsetOuter1"></feOffset>
            <feGaussianBlur stdDeviation="0.5" in="shadowOffsetOuter1" result="shadowBlurOuter1"></feGaussianBlur>
            <feColorMatrix values="0 0 0 0 0.557902849   0 0 0 0 0.557902849   0 0 0 0 0.557902849  0 0 0 0.5 0" type="matrix" in="shadowBlurOuter1"></feColorMatrix>
        </filter>
        <rect id="path-34" x="0" y="0" width="160" height="36" rx="2"></rect>
        <filter x="-50%" y="-50%" width="200%" height="200%" filterUnits="objectBoundingBox" id="filter-35">
            <feOffset dx="0" dy="1" in="SourceAlpha" result="shadowOffsetOuter1"></feOffset>
            <feGaussianBlur stdDeviation="0.5" in="shadowOffsetOuter1" result="shadowBlurOuter1"></feGaussianBlur>
            <feComposite in="shadowBlurOuter1" in2="SourceAlpha" operator="out" result="shadowBlurOuter1"></feComposite>
            <feColorMatrix values="0 0 0 0 0.556862745   0 0 0 0 0.556862745   0 0 0 0 0.556862745  0 0 0 0.5 0" type="matrix" in="shadowBlurOuter1"></feColorMatrix>
        </filter>
        <mask id="mask-36" maskContentUnits="userSpaceOnUse" maskUnits="objectBoundingBox" x="0" y="0" width="160" height="36" fill="white">
            <use xlink:href="#path-34"></use>
        </mask>
        <rect id="path-37" x="0" y="0" width="160" height="36" rx="2"></rect>
        <filter x="-50%" y="-50%" width="200%" height="200%" filterUnits="objectBoundingBox" id="filter-38">
            <feOffset dx="0" dy="1" in="SourceAlpha" result="shadowOffsetOuter1"></feOffset>
            <feGaussianBlur stdDeviation="0.5" in="shadowOffsetOuter1" result="shadowBlurOuter1"></feGaussianBlur>
            <feComposite in="shadowBlurOuter1" in2="SourceAlpha" operator="out" result="shadowBlurOuter1"></feComposite>
            <feColorMatrix values="0 0 0 0 0.556862745   0 0 0 0 0.556862745   0 0 0 0 0.556862745  0 0 0 0.5 0" type="matrix" in="shadowBlurOuter1"></feColorMatrix>
        </filter>
        <mask id="mask-39" maskContentUnits="userSpaceOnUse" maskUnits="objectBoundingBox" x="0" y="0" width="160" height="36" fill="white">
            <use xlink:href="#path-37"></use>
        </mask>
    </defs>
    <g id="High-fi-screens" stroke="none" stroke-width="1" fill="none" fill-rule="evenodd">
        <g id="Home_10pc-Copy-51" transform="translate(-1500.000000, -105.000000)">
            <g id="Group-14" transform="translate(1504.000000, 109.000000)">
                <g id="Group-3">
                    <use id="Rectangle-2" stroke="#CBCBCB" mask="url(#mask-2)" stroke-width="2" stroke-linecap="square" fill="#FFFFFF" xlink:href="#path-1"></use>
                    <g id="Statusbar">
                        <rect id="Background" fill-opacity="0.2" fill="#000000" fill-rule="evenodd" x="0" y="0" width="360" height="24"></rect>
                        <g id="Battery" stroke-width="1" fill-rule="evenodd" transform="translate(301.500000, 5.000000)">
                            <path d="M2.35294118,0.5 L1.00844055,0.5 C0.451494215,0.5 0,0.947489426 0,1.49850233 L0,12.5014977 C0,13.0529553 0.456996918,13.5 1.00844055,13.5 L7.49155945,13.5 C8.04850578,13.5 8.5,13.0525106 8.5,12.5014977 L8.5,1.49850233 C8.5,0.94704472 8.04300308,0.5 7.49155945,0.5 L6.11764706,0.5 C6.11764706,0.223857625 5.89342185,0 5.62547751,0 L2.84511072,0 C2.57329299,0 2.35294118,0.231933594 2.35294118,0.5 Z" id="Rectangle-2" fill="#D8D8D8" opacity="0.356984608"></path>
                            <path d="M0,7 L0,12.4986199 C0,13.0516669 0.456996918,13.5 1.00844055,13.5 L7.49155945,13.5 C8.04850578,13.5 8.5,13.0532287 8.5,12.4986199 L8.5,7 L0,7 Z" id="Rectangle-7" fill-opacity="0.9" fill="#FFFFFF" opacity="0.9"></path>
                        </g>
                        <text id="12:00" font-family="Roboto-Regular, Roboto" font-size="13" font-weight="normal" fill="#FFFFFF">
                            <tspan x="318.5" y="18.5">12:00</tspan>
                        </text>
                        <g id="Signal-" stroke-width="1" fill-rule="evenodd" transform="translate(277.000000, 6.000000)">
                            <polygon id="Rectangle-8" fill-opacity="0.3" fill="#D8D8D8" points="0 12 12 12 12 0"></polygon>
                            <polygon id="Rectangle-9" fill="#FFFFFF" points="0 12 6 12 6 6"></polygon>
                        </g>
                        <g id="wifi" stroke-width="1" fill-rule="evenodd" transform="translate(254.000000, 6.000000)" fill="#FFFFFF">
                            <path d="M7,0.0530433655 L14,10.0530434 C14,10.0530434 11.859952,12 7,12 C2.14004803,12 0,10.0530434 0,10.0530434 L7,0.0530433655 Z" id="Triangle-1" fill-opacity="0.3" transform="translate(7.000000, 6.026522) scale(1, -1) translate(-7.000000, -6.026522) "></path>
                            <path d="M7,3.53757238 L12,10.6209057 C12,10.6209057 10.4713943,12 7,12 C3.52860573,12 2,10.6209057 2,10.6209057 L7,3.53757238 Z" id="Triangle-2" transform="translate(7.000000, 7.768786) scale(1, -1) translate(-7.000000, -7.768786) "></path>
                        </g>
                    </g>
                    <path d="M338,47 C336.895431,47 336,46.1045695 336,45 C336,43.8954305 336.895431,43 338,43 C339.104569,43 340,43.8954305 340,45 C340,46.1045695 339.104569,47 338,47 Z M338,53 C336.895431,53 336,52.1045695 336,51 C336,49.8954305 336.895431,49 338,49 C339.104569,49 340,49.8954305 340,51 C340,52.1045695 339.104569,53 338,53 Z M338,59 C336.895431,59 336,58.1045695 336,57 C336,55.8954305 336.895431,55 338,55 C339.104569,55 340,55.8954305 340,57 C340,58.1045695 339.104569,59 338,59 Z" id="more" fill="#FFFFFF"></path>
                    <g id="Rectangle-11">
                        <use fill="black" fill-opacity="1" filter="url(#filter-4)" xlink:href="#path-3"></use>
                        <use fill="#026F8B" fill-rule="evenodd" xlink:href="#path-3"></use>
                    </g>
                    <g id="tabs" transform="translate(0.000000, 88.000000)">
                        <mask id="mask-6" fill="white">
                            <use xlink:href="#path-5"></use>
                        </mask>
                        <use id="bounds" fill-opacity="0" fill="#FFFFFF" xlink:href="#path-5"></use>
                        <g id="Group-9" mask="url(#mask-6)">
                            <g transform="translate(214.000000, 14.000000)">
                                <text id="Water-News" font-family="Roboto-Regular, Roboto" font-size="14" font-weight="normal" line-spacing="16" fill-opacity="0.602496603">
                                    <tspan x="22.4672852" y="14.1865234" fill="#FFFFFF">Water News</tspan>
                                </text>
                                <g id="water_drop" opacity="0.603487319" stroke-width="1" fill-rule="evenodd">
                                    <g id="Shape" fill-rule="nonzero" fill="#FFFFFF">
                                        <path d="M6.67379679,18.3529412 C4.33796791,18.3529412 2.25882353,17.1713135 1.10374332,15.2103143 C-0.0513368984,13.2241741 -0.0513368984,10.8860596 1.10374332,8.89991942 L6.23743316,0.251410153 C6.34010695,0.100564061 6.49411765,0 6.67379679,0 C6.85347594,0 7.03315508,0.100564061 7.11016043,0.251410153 L12.2181818,8.89991942 C13.373262,10.8609186 13.3989305,13.2241741 12.2181818,15.2103143 C11.0887701,17.1713135 9.00962567,18.3529412 6.67379679,18.3529412 Z M6.67379679,1.50846092 L2.00213904,9.40273973 L2.00213904,9.40273973 C1.02673797,11.0620467 1.02673797,13.0481869 2.00213904,14.707494 C2.97754011,16.366801 4.72299465,17.3473006 6.67379679,17.3473006 C8.62459893,17.3473006 10.3700535,16.366801 11.3454545,14.707494 C12.3208556,13.0481869 12.3208556,11.0620467 11.3454545,9.40273973 L6.67379679,1.50846092 Z"></path>
                                        <path d="M6.93048128,16.0902498 C6.64812834,16.0902498 6.4171123,15.8639807 6.4171123,15.5874295 C6.4171123,15.3108783 6.64812834,15.0846092 6.93048128,15.0846092 C8.49625668,15.0846092 9.7540107,13.8526994 9.7540107,12.3190975 C9.7540107,12.0425463 9.98502674,11.8162772 10.2673797,11.8162772 C10.5497326,11.8162772 10.7807487,12.0425463 10.7807487,12.3190975 C10.7807487,14.4058018 9.06096257,16.0902498 6.93048128,16.0902498 Z"></path>
                                    </g>
                                </g>
                            </g>
                        </g>
                        <rect id="indicator" fill="#28C9E7" mask="url(#mask-6)" x="1" y="45" width="180" height="3"></rect>
                        <g id="Group-11" mask="url(#mask-6)">
                            <g transform="translate(56.000000, 14.000000)">
                                <text id="Home" fill="none" font-family="Roboto-Regular, Roboto" font-size="14" font-weight="normal" line-spacing="16">
                                    <tspan x="28" y="17" fill="#FFFFFF">Home</tspan>
                                </text>
                                <polygon id="Shape" fill="#FFFFFF" fill-rule="nonzero" points="8 17 8 11 12 11 12 17 17 17 17 9 20 9 10 0 0 9 3 9 3 17"></polygon>
                            </g>
                        </g>
                    </g>
                    <g id="Statusbar">
                        <rect id="Background" fill-opacity="0.2" fill="#000000" fill-rule="evenodd" x="0" y="0" width="360" height="24"></rect>
                        <g id="Battery" stroke-width="1" fill-rule="evenodd" transform="translate(301.500000, 5.000000)">
                            <path d="M2.35294118,0.5 L1.00844055,0.5 C0.451494215,0.5 0,0.947489426 0,1.49850233 L0,12.5014977 C0,13.0529553 0.456996918,13.5 1.00844055,13.5 L7.49155945,13.5 C8.04850578,13.5 8.5,13.0525106 8.5,12.5014977 L8.5,1.49850233 C8.5,0.94704472 8.04300308,0.5 7.49155945,0.5 L6.11764706,0.5 C6.11764706,0.223857625 5.89342185,0 5.62547751,0 L2.84511072,0 C2.57329299,0 2.35294118,0.231933594 2.35294118,0.5 Z" id="Rectangle-2" fill="#D8D8D8" opacity="0.356984608"></path>
                            <path d="M0,7 L0,12.4986199 C0,13.0516669 0.456996918,13.5 1.00844055,13.5 L7.49155945,13.5 C8.04850578,13.5 8.5,13.0532287 8.5,12.4986199 L8.5,7 L0,7 Z" id="Rectangle-7" fill-opacity="0.9" fill="#FFFFFF" opacity="0.9"></path>
                        </g>
                        <text id="12:00" font-family="Roboto-Regular, Roboto" font-size="13" font-weight="normal" fill="#FFFFFF">
                            <tspan x="318.5" y="18.5">12:00</tspan>
                        </text>
                        <g id="Signal-" stroke-width="1" fill-rule="evenodd" transform="translate(277.000000, 6.000000)">
                            <polygon id="Rectangle-8" fill-opacity="0.3" fill="#D8D8D8" points="0 12 12 12 12 0"></polygon>
                            <polygon id="Rectangle-9" fill="#FFFFFF" points="0 12 6 12 6 6"></polygon>
                        </g>
                        <g id="wifi" stroke-width="1" fill-rule="evenodd" transform="translate(254.000000, 6.000000)" fill="#FFFFFF">
                            <path d="M7,0.0530433655 L14,10.0530434 C14,10.0530434 11.859952,12 7,12 C2.14004803,12 0,10.0530434 0,10.0530434 L7,0.0530433655 Z" id="Triangle-1" fill-opacity="0.3" transform="translate(7.000000, 6.026522) scale(1, -1) translate(-7.000000, -6.026522) "></path>
                            <path d="M7,3.53757238 L12,10.6209057 C12,10.6209057 10.4713943,12 7,12 C3.52860573,12 2,10.6209057 2,10.6209057 L7,3.53757238 Z" id="Triangle-2" transform="translate(7.000000, 7.768786) scale(1, -1) translate(-7.000000, -7.768786) "></path>
                        </g>
                    </g>
                    <text id="Pump-It-Up" font-family="Roboto-Regular, Roboto" font-size="20" font-weight="normal" fill="#FFFFFF">
                        <tspan x="72" y="53">Pump It Up</tspan>
                    </text>
                    <g id="Group-4" transform="translate(24.000000, 511.000000)">
                        <g id="Group-7" transform="translate(0.000000, 0.500000)">
                            <text id="Sump-Tank-Level:-65%" font-family="Roboto-Medium, Roboto" font-size="14" font-weight="400" fill="#232323">
                                <tspan x="27" y="15">Sump Tank Level: 65%</tspan>
                                <tspan x="167.540039" y="15" font-family="Roboto-Bold, Roboto" font-weight="bold"></tspan>
                                <tspan x="27" y="34" font-family="Roboto-Regular, Roboto" font-weight="normal">You can fill overhead tank 2 times</tspan>
                            </text>
                            <polygon id="Shape" stroke="#417505" stroke-width="2" fill="#417505" fill-rule="nonzero" points="14.3434561 12.2386571 4.50794334 22.7804194 0 17.9487783 1.15567275 16.7101212 4.50794334 20.2943204 13.1877833 11"></polygon>
                        </g>
                    </g>
                    <text id="Overhead-Tank-Level" font-family="Roboto-Medium, Roboto" font-size="16" font-weight="400" fill="#04172D">
                        <tspan x="24.234375" y="177">Overhead Tank Level</tspan>
                    </text>
                    <g id="Group-5" transform="translate(96.000000, 205.000000)">
                        <polygon id="Path-7" fill="url(#linearGradient-7)" points="165 144 165 125.904128 6 125.904128 6 144"></polygon>
                        <path d="M3.99035296,2 C2.89111137,2 2,2.8918163 2,4.000416 L2,138.837405 C2,138.837405 85.4381701,165.50213 168.87634,138.837405 L168.87634,4.000416 C168.87634,2.89561675 167.9785,2 166.885987,2 L3.99035296,2 Z" id="Path-3" stroke="#04172D" stroke-width="4" stroke-linecap="square" transform="translate(85.438170, 76.344197) rotate(-180.000000) translate(-85.438170, -76.344197) "></path>
                        <path d="M2,18 C2,18 85.0060606,-9 168.00303,18 L168.00303,14 C168.00303,14 87,-13 2,14 L2,18 Z" id="Path-5" fill="#04172D"></path>
                        <path d="M2,146 L169,146 L169,148 C169,149.104569 168.101494,150 167.008172,150 L3.99182786,150 C2.89177171,150 2,149.11227 2,148 L2,146 Z" id="Rectangle-4" fill="#04172D"></path>
                        <g id="Group-2">
                            <mask id="mask-9" fill="white">
                                <use xlink:href="#path-8"></use>
                            </mask>
                            <g id="Path-6"></g>
                            <rect id="Rectangle-5" fill="url(#linearGradient-10)" opacity="0.302536232" mask="url(#mask-9)" x="0" y="-1" width="92" height="154"></rect>
                        </g>
                        <text id="10%" font-family="Roboto-Medium, Roboto" font-size="32" font-weight="400" fill="#04172D">
                            <tspan x="55.0625" y="67">10%</tspan>
                        </text>
                        <text id="100-litres" font-family="Roboto-Medium, Roboto" font-size="12" font-weight="400" fill="#04172D">
                            <tspan x="60.2050781" y="89">100 litres</tspan>
                        </text>
                        <text id="(About-5-buckets)" font-family="Roboto-Medium, Roboto" font-size="12" font-weight="400" fill="#04172D">
                            <tspan x="37.4589844" y="108">(About 5 buckets)</tspan>
                        </text>
                    </g>
                    <g id="Group-Copy" transform="translate(100.000000, 382.000000)">
                        <g id="Rectangle">
                            <use fill="black" fill-opacity="1" filter="url(#filter-12)" xlink:href="#path-11"></use>
                            <use fill="#026F8B" fill-rule="evenodd" xlink:href="#path-11"></use>
                        </g>
                        <text id="FILL-TANK-100%" font-family="Roboto-Regular, Roboto" font-size="14" font-weight="normal" fill="#FFFFFF">
                            <tspan x="28.1938477" y="22">FILL TANK 100%</tspan>
                        </text>
                    </g>
                    <g id="Group-10" transform="translate(16.000000, 436.000000)">
                        <g id="Rectangle-7">
                            <use fill="black" fill-opacity="1" filter="url(#filter-14)" xlink:href="#path-13"></use>
                            <use stroke="#F1F1F1" mask="url(#mask-15)" stroke-width="2" stroke-linecap="square" fill="#FFFFFF" fill-rule="evenodd" xlink:href="#path-13"></use>
                        </g>
                        <g id="Group-6" transform="translate(23.000000, 8.000000)" font-size="14" font-family="Roboto-Regular, Roboto" fill="#253046" font-weight="normal">
                            <text id="SET-PUMP-TIMER">
                                <tspan x="0" y="15">SET PUMP TIMER</tspan>
                            </text>
                        </g>
                    </g>
                    <g id="Group-10-Copy" transform="translate(184.000000, 436.000000)">
                        <g id="Rectangle-7">
                            <use fill="black" fill-opacity="1" filter="url(#filter-17)" xlink:href="#path-16"></use>
                            <use stroke="#F1F1F1" mask="url(#mask-18)" stroke-width="2" stroke-linecap="square" fill="#FFFFFF" fill-rule="evenodd" xlink:href="#path-16"></use>
                        </g>
                        <g id="Group-8" transform="translate(25.000000, 8.000000)" font-size="14" font-family="Roboto-Regular, Roboto" fill="#232323" font-weight="normal">
                            <text id="SET-TANK-LEVEL">
                                <tspan x="0" y="15">SET TANK LEVEL</tspan>
                            </text>
                        </g>
                    </g>
                    <path d="M0.5,497.5 L360.588878,497.5" id="Line" stroke="#BFBFBF" stroke-linecap="square"></path>
                    <path d="M0.5,563.5 L360.588878,563.5" id="Line-Copy" stroke="#BFBFBF" stroke-linecap="square"></path>
                    <g id="Group-12" transform="translate(24.000000, 589.000000)">
                        <text id="Next-Water-Supply" font-family="Roboto-Medium, Roboto" font-size="16" font-weight="400" fill="#04172D">
                            <tspan x="0" y="17">Next Water Supply</tspan>
                        </text>
                        <text id="Thursday,-17-Feb-201" font-family="Roboto-Regular, Roboto" font-size="16" font-weight="normal" line-spacing="32" fill="#232323">
                            <tspan x="75.1015625" y="63">Thursday, 17 Feb 2017</tspan>
                            <tspan x="81.8359375" y="95">06:00am to 10:00am</tspan>
                        </text>
                        <g id="Group-10-Copy-2" transform="translate(76.000000, 133.000000)">
                            <g id="Rectangle-7">
                                <use fill="black" fill-opacity="1" filter="url(#filter-20)" xlink:href="#path-19"></use>
                                <use fill="#026F8B" fill-rule="evenodd" xlink:href="#path-19"></use>
                            </g>
                            <g id="Group-6" transform="translate(30.000000, 8.000000)" font-size="14" font-family="Roboto-Regular, Roboto" fill="#FFFFFF" font-weight="normal">
                                <text id="GET-SCHEDULE">
                                    <tspan x="0" y="15">GET SCHEDULE</tspan>
                                </text>
                            </g>
                        </g>
                    </g>
                    <g id="hamburger" transform="translate(24.000000, 33.000000)">
                        <g id="Group">
                            <polygon id="Shape" points="0 0 24 0 24 24 0 24"></polygon>
                            <path d="M3,19 L21,19 L21,17 L3,17 L3,19 Z M3,14 L21,14 L21,12 L3,12 L3,14 Z M3,7 L3,9 L21,9 L21,7 L3,7 Z" id="Shape" fill="#FFFFFF" fill-rule="nonzero"></path>
                        </g>
                    </g>
                    <g id="arrow_down" transform="translate(318.000000, 526.000000)" fill-rule="nonzero" fill="#454545">
                        <g id="Group">
                            <polygon id="Shape" points="1.41 0.795 6 5.375 10.59 0.795 12 2.205 6 8.205 0 2.205"></polygon>
                        </g>
                    </g>
                </g>
                <g id="Group-5-Copy" transform="translate(448.000000, 586.000000)"></g>
                <g id="tabs" transform="translate(400.000000, 88.000000)"></g>
                <g id="Group-13" transform="translate(424.000000, 0.000000)">
                    <mask id="mask-23" fill="white">
                        <use xlink:href="#path-21"></use>
                    </mask>
                    <g id="Rectangle-2" stroke="#CBCBCB" mask="url(#mask-22)" stroke-width="2" stroke-linecap="square" fill="#FFFFFF">
                        <use mask="url(#mask-24)" xlink:href="#path-21"></use>
                    </g>
                    <g id="Statusbar" mask="url(#mask-23)">
                        <rect id="Background" fill-opacity="0.2" fill="#000000" fill-rule="evenodd" x="0" y="0" width="360" height="24"></rect>
                        <g id="Battery" stroke-width="1" fill-rule="evenodd" transform="translate(301.500000, 5.000000)">
                            <path d="M2.35294118,0.5 L1.00844055,0.5 C0.451494215,0.5 0,0.947489426 0,1.49850233 L0,12.5014977 C0,13.0529553 0.456996918,13.5 1.00844055,13.5 L7.49155945,13.5 C8.04850578,13.5 8.5,13.0525106 8.5,12.5014977 L8.5,1.49850233 C8.5,0.94704472 8.04300308,0.5 7.49155945,0.5 L6.11764706,0.5 C6.11764706,0.223857625 5.89342185,0 5.62547751,0 L2.84511072,0 C2.57329299,0 2.35294118,0.231933594 2.35294118,0.5 Z" id="Rectangle-2" fill="#D8D8D8" opacity="0.356984608"></path>
                            <path d="M0,7 L0,12.4986199 C0,13.0516669 0.456996918,13.5 1.00844055,13.5 L7.49155945,13.5 C8.04850578,13.5 8.5,13.0532287 8.5,12.4986199 L8.5,7 L0,7 Z" id="Rectangle-7" fill-opacity="0.9" fill="#FFFFFF" opacity="0.9"></path>
                        </g>
                        <text id="12:00" font-family="Roboto-Regular, Roboto" font-size="13" font-weight="normal" fill="#FFFFFF">
                            <tspan x="318.5" y="18.5">12:00</tspan>
                        </text>
                        <g id="Signal-" stroke-width="1" fill-rule="evenodd" transform="translate(277.000000, 6.000000)">
                            <polygon id="Rectangle-8" fill-opacity="0.3" fill="#D8D8D8" points="0 12 12 12 12 0"></polygon>
                            <polygon id="Rectangle-9" fill="#FFFFFF" points="0 12 6 12 6 6"></polygon>
                        </g>
                        <g id="wifi" stroke-width="1" fill-rule="evenodd" transform="translate(254.000000, 6.000000)" fill="#FFFFFF">
                            <path d="M7,0.0530433655 L14,10.0530434 C14,10.0530434 11.859952,12 7,12 C2.14004803,12 0,10.0530434 0,10.0530434 L7,0.0530433655 Z" id="Triangle-1" fill-opacity="0.3" transform="translate(7.000000, 6.026522) scale(1, -1) translate(-7.000000, -6.026522) "></path>
                            <path d="M7,3.53757238 L12,10.6209057 C12,10.6209057 10.4713943,12 7,12 C3.52860573,12 2,10.6209057 2,10.6209057 L7,3.53757238 Z" id="Triangle-2" transform="translate(7.000000, 7.768786) scale(1, -1) translate(-7.000000, -7.768786) "></path>
                        </g>
                    </g>
                    <path d="M338,47 C336.895431,47 336,46.1045695 336,45 C336,43.8954305 336.895431,43 338,43 C339.104569,43 340,43.8954305 340,45 C340,46.1045695 339.104569,47 338,47 Z M338,53 C336.895431,53 336,52.1045695 336,51 C336,49.8954305 336.895431,49 338,49 C339.104569,49 340,49.8954305 340,51 C340,52.1045695 339.104569,53 338,53 Z M338,59 C336.895431,59 336,58.1045695 336,57 C336,55.8954305 336.895431,55 338,55 C339.104569,55 340,55.8954305 340,57 C340,58.1045695 339.104569,59 338,59 Z" id="more" fill="#FFFFFF" mask="url(#mask-23)"></path>
                    <g id="Rectangle-11" mask="url(#mask-23)">
                        <use fill="black" fill-opacity="1" filter="url(#filter-26)" xlink:href="#path-25"></use>
                        <use fill="#026F8B" fill-rule="evenodd" xlink:href="#path-25"></use>
                    </g>
                    <rect id="bounds" fill-opacity="0" fill="#FFFFFF" mask="url(#mask-23)" x="0" y="88" width="360" height="48"></rect>
                    <g id="Group-9" mask="url(#mask-23)">
                        <g transform="translate(214.000000, 102.000000)">
                            <text id="Water-News" font-family="Roboto-Regular, Roboto" font-size="14" font-weight="normal" line-spacing="16" fill-opacity="0.602496603">
                                <tspan x="22.4672852" y="14.1865234" fill="#FFFFFF">Water News</tspan>
                            </text>
                            <g id="water_drop" opacity="0.603487319" stroke-width="1" fill-rule="evenodd">
                                <g transform="translate(0.000000, 0.000000)" id="Shape" fill-rule="nonzero" fill="#FFFFFF">
                                    <path d="M6.67379679,18.3529412 C4.33796791,18.3529412 2.25882353,17.1713135 1.10374332,15.2103143 C-0.0513368984,13.2241741 -0.0513368984,10.8860596 1.10374332,8.89991942 L6.23743316,0.251410153 C6.34010695,0.100564061 6.49411765,0 6.67379679,0 C6.85347594,0 7.03315508,0.100564061 7.11016043,0.251410153 L12.2181818,8.89991942 C13.373262,10.8609186 13.3989305,13.2241741 12.2181818,15.2103143 C11.0887701,17.1713135 9.00962567,18.3529412 6.67379679,18.3529412 Z M6.67379679,1.50846092 L2.00213904,9.40273973 L2.00213904,9.40273973 C1.02673797,11.0620467 1.02673797,13.0481869 2.00213904,14.707494 C2.97754011,16.366801 4.72299465,17.3473006 6.67379679,17.3473006 C8.62459893,17.3473006 10.3700535,16.366801 11.3454545,14.707494 C12.3208556,13.0481869 12.3208556,11.0620467 11.3454545,9.40273973 L6.67379679,1.50846092 Z"></path>
                                    <path d="M6.93048128,16.0902498 C6.64812834,16.0902498 6.4171123,15.8639807 6.4171123,15.5874295 C6.4171123,15.3108783 6.64812834,15.0846092 6.93048128,15.0846092 C8.49625668,15.0846092 9.7540107,13.8526994 9.7540107,12.3190975 C9.7540107,12.0425463 9.98502674,11.8162772 10.2673797,11.8162772 C10.5497326,11.8162772 10.7807487,12.0425463 10.7807487,12.3190975 C10.7807487,14.4058018 9.06096257,16.0902498 6.93048128,16.0902498 Z"></path>
                                </g>
                            </g>
                        </g>
                    </g>
                    <rect id="indicator" fill="#28C9E7" mask="url(#mask-23)" x="1" y="133" width="180" height="3"></rect>
                    <g id="Group-11" mask="url(#mask-23)">
                        <g transform="translate(56.000000, 102.000000)">
                            <text id="Home" fill="none" font-family="Roboto-Regular, Roboto" font-size="14" font-weight="normal" line-spacing="16">
                                <tspan x="28" y="17" fill="#FFFFFF">Home</tspan>
                            </text>
                            <polygon id="Shape" fill="#FFFFFF" fill-rule="nonzero" points="8 17 8 11 12 11 12 17 17 17 17 9 20 9 10 0 0 9 3 9 3 17"></polygon>
                        </g>
                    </g>
                    <g id="Statusbar" mask="url(#mask-23)">
                        <rect id="Background" fill-opacity="0.2" fill="#000000" fill-rule="evenodd" x="0" y="0" width="360" height="24"></rect>
                        <g id="Battery" stroke-width="1" fill-rule="evenodd" transform="translate(301.500000, 5.000000)">
                            <path d="M2.35294118,0.5 L1.00844055,0.5 C0.451494215,0.5 0,0.947489426 0,1.49850233 L0,12.5014977 C0,13.0529553 0.456996918,13.5 1.00844055,13.5 L7.49155945,13.5 C8.04850578,13.5 8.5,13.0525106 8.5,12.5014977 L8.5,1.49850233 C8.5,0.94704472 8.04300308,0.5 7.49155945,0.5 L6.11764706,0.5 C6.11764706,0.223857625 5.89342185,0 5.62547751,0 L2.84511072,0 C2.57329299,0 2.35294118,0.231933594 2.35294118,0.5 Z" id="Rectangle-2" fill="#D8D8D8" opacity="0.356984608"></path>
                            <path d="M0,7 L0,12.4986199 C0,13.0516669 0.456996918,13.5 1.00844055,13.5 L7.49155945,13.5 C8.04850578,13.5 8.5,13.0532287 8.5,12.4986199 L8.5,7 L0,7 Z" id="Rectangle-7" fill-opacity="0.9" fill="#FFFFFF" opacity="0.9"></path>
                        </g>
                        <text id="12:00" font-family="Roboto-Regular, Roboto" font-size="13" font-weight="normal" fill="#FFFFFF">
                            <tspan x="318.5" y="18.5">12:00</tspan>
                        </text>
                        <g id="Signal-" stroke-width="1" fill-rule="evenodd" transform="translate(277.000000, 6.000000)">
                            <polygon id="Rectangle-8" fill-opacity="0.3" fill="#D8D8D8" points="0 12 12 12 12 0"></polygon>
                            <polygon id="Rectangle-9" fill="#FFFFFF" points="0 12 6 12 6 6"></polygon>
                        </g>
                        <g id="wifi" stroke-width="1" fill-rule="evenodd" transform="translate(254.000000, 6.000000)" fill="#FFFFFF">
                            <path d="M7,0.0530433655 L14,10.0530434 C14,10.0530434 11.859952,12 7,12 C2.14004803,12 0,10.0530434 0,10.0530434 L7,0.0530433655 Z" id="Triangle-1" fill-opacity="0.3" transform="translate(7.000000, 6.026522) scale(1, -1) translate(-7.000000, -6.026522) "></path>
                            <path d="M7,3.53757238 L12,10.6209057 C12,10.6209057 10.4713943,12 7,12 C3.52860573,12 2,10.6209057 2,10.6209057 L7,3.53757238 Z" id="Triangle-2" transform="translate(7.000000, 7.768786) scale(1, -1) translate(-7.000000, -7.768786) "></path>
                        </g>
                    </g>
                    <text id="Pump-It-Up" mask="url(#mask-23)" font-family="Roboto-Regular, Roboto" font-size="20" font-weight="normal" fill="#FFFFFF">
                        <tspan x="72" y="53">Pump It Up</tspan>
                    </text>
                    <polygon id="Path-7" fill="url(#linearGradient-7)" mask="url(#mask-23)" points="294.029586 718 294.029586 626 56 626 56 718"></polygon>
                    <path d="M51.9867607,587.850989 C50.8862351,587.850989 49.9940828,588.742805 49.9940828,589.851405 L49.9940828,724.688394 L299.814876,724.688394 L299.814876,589.851405 C299.814876,588.746606 298.91028,587.850989 297.822198,587.850989 L51.9867607,587.850989 Z" id="Path-3" stroke="#04172D" stroke-width="4" stroke-linecap="square" mask="url(#mask-23)" transform="translate(174.904480, 656.269691) rotate(-180.000000) translate(-174.904480, -656.269691) "></path>
                    <path d="M49.9940828,720 L300,720 L300,722 C300,723.104569 299.094733,724 298.005845,724 L51.9882374,724 C50.8868962,724 49.9940828,723.11227 49.9940828,722 L49.9940828,720 Z" id="Rectangle-4" fill="#04172D" mask="url(#mask-23)"></path>
                    <g id="Group-2" mask="url(#mask-23)">
                        <g transform="translate(48.000000, 586.000000)">
                            <mask id="mask-29" fill="white">
                                <use xlink:href="#path-27"></use>
                            </mask>
                            <g id="Path-6" stroke="none" fill="none" filter="url(#filter-28)"></g>
                            <rect id="Rectangle-5" stroke="none" fill="url(#linearGradient-10)" fill-rule="evenodd" opacity="0.302536232" mask="url(#mask-29)" x="-1" y="0" width="137.727811" height="141"></rect>
                        </g>
                    </g>
                    <text id="65%" mask="url(#mask-23)" font-family="Roboto-Medium, Roboto" font-size="32" font-weight="400" fill="#04172D">
                        <tspan x="144.973743" y="641">65%</tspan>
                    </text>
                    <text id="2000-litres" mask="url(#mask-23)" font-family="Roboto-Medium, Roboto" font-size="12" font-weight="400" fill="#04172D">
                        <tspan x="146.469478" y="663">2000 litres</tspan>
                    </text>
                    <text id="Overhead-Tank-Level" mask="url(#mask-23)" font-family="Roboto-Medium, Roboto" font-size="16" font-weight="400" fill="#04172D">
                        <tspan x="24.234375" y="177">Overhead Tank Level</tspan>
                    </text>
                    <g id="Group-5" mask="url(#mask-23)">
                        <g transform="translate(96.000000, 205.000000)">
                            <polygon id="Path-7" stroke="none" fill="url(#linearGradient-7)" fill-rule="evenodd" points="165 144 165 125.904128 6 125.904128 6 144"></polygon>
                            <path d="M3.99035296,2 C2.89111137,2 2,2.8918163 2,4.000416 L2,138.837405 C2,138.837405 85.4381701,165.50213 168.87634,138.837405 L168.87634,4.000416 C168.87634,2.89561675 167.9785,2 166.885987,2 L3.99035296,2 Z" id="Path-3" stroke="#04172D" stroke-width="4" stroke-linecap="square" fill="none" transform="translate(85.438170, 76.344197) rotate(-180.000000) translate(-85.438170, -76.344197) "></path>
                            <path d="M2,18 C2,18 85.0060606,-9 168.00303,18 L168.00303,14 C168.00303,14 87,-13 2,14 L2,18 Z" id="Path-5" stroke="none" fill="#04172D" fill-rule="evenodd"></path>
                            <path d="M2,146 L169,146 L169,148 C169,149.104569 168.101494,150 167.008172,150 L3.99182786,150 C2.89177171,150 2,149.11227 2,148 L2,146 Z" id="Rectangle-4" stroke="none" fill="#04172D" fill-rule="evenodd"></path>
                            <g id="Group-2" stroke="none" stroke-width="1" fill="none" fill-rule="evenodd">
                                <mask id="mask-31" fill="white">
                                    <use xlink:href="#path-30"></use>
                                </mask>
                                <g id="Path-6"></g>
                                <rect id="Rectangle-5" fill="url(#linearGradient-10)" opacity="0.302536232" mask="url(#mask-31)" x="0" y="-1" width="92" height="154"></rect>
                            </g>
                            <text id="10%" stroke="none" fill="none" font-family="Roboto-Medium, Roboto" font-size="32" font-weight="400">
                                <tspan x="55.0625" y="67" fill="#04172D">10%</tspan>
                            </text>
                            <text id="100-litres" stroke="none" fill="none" font-family="Roboto-Medium, Roboto" font-size="12" font-weight="400">
                                <tspan x="60.2050781" y="89" fill="#04172D">100 litres</tspan>
                            </text>
                            <text id="(About-5-buckets)" stroke="none" fill="none" font-family="Roboto-Medium, Roboto" font-size="12" font-weight="400">
                                <tspan x="37.4589844" y="108" fill="#04172D">(About 5 buckets)</tspan>
                            </text>
                        </g>
                    </g>
                    <g id="Group-Copy" mask="url(#mask-23)">
                        <g transform="translate(100.000000, 382.000000)">
                            <g id="Rectangle">
                                <use fill="black" fill-opacity="1" filter="url(#filter-33)" xlink:href="#path-32"></use>
                                <use fill="#026F8B" fill-rule="evenodd" xlink:href="#path-32"></use>
                            </g>
                            <text id="FILL-TANK-100%" font-family="Roboto-Regular, Roboto" font-size="14" font-weight="normal">
                                <tspan x="28.1938477" y="22" fill="#FFFFFF">FILL TANK 100%</tspan>
                            </text>
                        </g>
                    </g>
                    <g id="Group-10" mask="url(#mask-23)">
                        <g transform="translate(16.000000, 436.000000)">
                            <g id="Rectangle-7">
                                <use fill="black" fill-opacity="1" filter="url(#filter-35)" xlink:href="#path-34"></use>
                                <use stroke="#F1F1F1" mask="url(#mask-36)" stroke-width="2" stroke-linecap="square" fill="#FFFFFF" fill-rule="evenodd" xlink:href="#path-34"></use>
                            </g>
                            <g id="Group-6" stroke-width="1" fill-rule="evenodd" transform="translate(23.000000, 8.000000)" font-size="14" font-family="Roboto-Regular, Roboto" font-weight="normal">
                                <text id="SET-PUMP-TIMER" fill="#253046">
                                    <tspan x="0" y="15">SET PUMP TIMER</tspan>
                                </text>
                            </g>
                        </g>
                    </g>
                    <g id="Group-10-Copy" mask="url(#mask-23)">
                        <g transform="translate(184.000000, 436.000000)">
                            <g id="Rectangle-7">
                                <use fill="black" fill-opacity="1" filter="url(#filter-38)" xlink:href="#path-37"></use>
                                <use stroke="#F1F1F1" mask="url(#mask-39)" stroke-width="2" stroke-linecap="square" fill="#FFFFFF" fill-rule="evenodd" xlink:href="#path-37"></use>
                            </g>
                            <g id="Group-8" stroke-width="1" fill-rule="evenodd" transform="translate(25.000000, 8.000000)" font-size="14" font-family="Roboto-Regular, Roboto" font-weight="normal">
                                <text id="SET-TANK-LEVEL" fill="#232323">
                                    <tspan x="0" y="15">SET TANK LEVEL</tspan>
                                </text>
                            </g>
                        </g>
                    </g>
                    <path d="M0.5,497.5 L360.588878,497.5" id="Line" stroke="#BFBFBF" stroke-linecap="square" mask="url(#mask-23)"></path>
                    <path d="M-0.5,752.5 L359.588878,752.5" id="Line-Copy" stroke="#BFBFBF" stroke-linecap="square" mask="url(#mask-23)"></path>
                    <g id="hamburger" mask="url(#mask-23)">
                        <g transform="translate(24.000000, 33.000000)" id="Group">
                            <g>
                                <polygon id="Shape" points="0 0 24 0 24 24 0 24"></polygon>
                                <path d="M3,19 L21,19 L21,17 L3,17 L3,19 Z M3,14 L21,14 L21,12 L3,12 L3,14 Z M3,7 L3,9 L21,9 L21,7 L3,7 Z" id="Shape" fill="#FFFFFF" fill-rule="nonzero"></path>
                            </g>
                        </g>
                    </g>
                    <g id="arrow_down" mask="url(#mask-23)">
                        <g transform="translate(318.000000, 521.000000)" id="Group">
                            <g>
                                <polygon id="Shape" fill="#454545" fill-rule="nonzero" transform="translate(6.000000, 4.545000) rotate(-180.000000) translate(-6.000000, -4.545000) " points="1.41 0.84 6 5.42 10.59 0.84 12 2.25 6 8.25 0 2.25"></polygon>
                            </g>
                        </g>
                    </g>
                    <g id="Group-7" mask="url(#mask-23)">
                        <g transform="translate(24.000000, 511.500000)">
                            <text id="Sump-Tank-Level:-65%" stroke="none" fill="none" font-family="Roboto-Medium, Roboto" font-size="14" font-weight="400">
                                <tspan x="27" y="15" fill="#232323">Sump Tank Level: 65%</tspan>
                                <tspan x="167.540039" y="15" font-family="Roboto-Bold, Roboto" font-weight="bold" fill="#232323"></tspan>
                                <tspan x="27" y="34" font-family="Roboto-Regular, Roboto" font-weight="normal" fill="#232323">You can fill overhead tank 2 times</tspan>
                            </text>
                            <polygon id="Shape" stroke="#417505" stroke-width="2" fill="#417505" fill-rule="nonzero" points="14.3434561 12.2386571 4.50794334 22.7804194 0 17.9487783 1.15567275 16.7101212 4.50794334 20.2943204 13.1877833 11"></polygon>
                        </g>
                    </g>
                </g>
                <g id="Group-6" transform="translate(324.000000, 542.000000)">
                    <ellipse id="Oval-4" fill="#D24A4B" cx="6" cy="6" rx="6" ry="6"></ellipse>
                    <path d="M6,6 L115,6" id="Path-7" stroke="#D24A4B" stroke-width="2" stroke-linecap="square"></path>
                    <polygon id="Triangle" fill="#D24A4B" transform="translate(119.044114, 6.067849) rotate(-91.000000) translate(-119.044114, -6.067849) " points="119.044114 10.0078487 113.044114 2.1278486 125.044114 2.1278486"></polygon>
                </g>
            </g>
        </g>
    </g>
</svg>