<svg xmlns="http://www.w3.org/2000/svg" xmlns:xlink="http://www.w3.org/1999/xlink" version="1.1" x="0px" y="0px" viewBox="0 0 100 125" style="enable-background:new 0 0 100 100;" xml:space="preserve"><style type="text/css">
	.st0{fill:#FFFFFF;stroke:#000000;stroke-width:3;stroke-miterlimit:10;}
	.st1{stroke:#000000;stroke-width:3;stroke-miterlimit:10;}
	.st2{fill:none;stroke:#000000;stroke-width:3;stroke-miterlimit:10;}
	.st3{stroke:#FFFFFF;stroke-width:3;stroke-miterlimit:10;}
	.st4{fill:#FFFFFF;stroke:#000000;stroke-width:4;stroke-miterlimit:10;}
	.st5{fill:#FFFFFF;stroke:#000000;stroke-width:2;stroke-miterlimit:10;}
	.st6{stroke:#000000;stroke-width:2;stroke-miterlimit:10;}
	.st7{fill:none;stroke:#000000;stroke-width:2;stroke-miterlimit:10;}
	.st8{stroke:#FFFFFF;stroke-width:2;stroke-miterlimit:10;}
	.st9{fill:none;stroke:#000000;stroke-width:5;stroke-miterlimit:10;}
	.st10{fill:none;}
	.st11{stroke:#000000;stroke-width:4;stroke-miterlimit:10;}
	.st12{fill:none;stroke:#000000;stroke-width:4;stroke-miterlimit:10;}
	.st13{fill:#FFFFFF;stroke:#000000;stroke-width:4;stroke-linecap:round;stroke-miterlimit:10;}
	.st14{fill:#FFFFFF;}
	.st15{fill:none;stroke:#000000;stroke-width:4;stroke-linecap:round;stroke-miterlimit:10;}
	.st16{fill:#FFFFFF;stroke:#000000;stroke-width:3;stroke-linecap:round;stroke-miterlimit:10;}
	.st17{fill:none;stroke:#000000;stroke-width:5;stroke-linecap:round;stroke-miterlimit:10;}
	.st18{fill:none;stroke:#000000;stroke-miterlimit:10;}
	.st19{fill:none;stroke:#FFFFFF;stroke-width:3;stroke-miterlimit:10;}
	.st20{stroke:#FFFFFF;stroke-width:1.5;stroke-miterlimit:10;}
	.st21{stroke:#FFFFFF;stroke-miterlimit:10;}
	.st22{fill:#FFFFFF;stroke:#000000;stroke-width:5;stroke-miterlimit:10;}
	.st23{fill:#FFFFFF;stroke:#000000;stroke-width:5;stroke-linecap:round;stroke-miterlimit:10;}
	.st24{fill:none;stroke:#000000;stroke-width:2;stroke-linecap:round;stroke-miterlimit:10;}
	.st25{fill:none;stroke:#FFFFFF;stroke-width:2;stroke-miterlimit:10;}
	.st26{fill:#FFFFFF;stroke:#FFFFFF;stroke-width:2;stroke-miterlimit:10;}
</style><g><polygon points="7.1,85.6 14.4,93.1 26.8,90.1 10.2,73.6  "/><path d="M5.7,94.9l5.3-1.4l-4.5-4.6L5,94.2c-0.1,0.3,0.1,0.5,0.1,0.5C5.2,94.9,5.4,95,5.7,94.9z"/><path d="M34.7,87.3L75.9,46c-1-0.3-1.9-0.9-2.7-1.7l-2.5-2.5L27.5,85.1l2.2,2.2C31.1,88.7,33.3,88.7,34.7,87.3z"/><rect x="38.3" y="26.7" transform="matrix(0.7071 0.7071 -0.7071 0.7071 53.0771 -13.5692)" width="9.3" height="61.1"/><path d="M15.1,72.7l43.2-43.2l-2.4-2.4c-0.8-0.8-1.3-1.7-1.7-2.7L13,65.6c-1.4,1.4-1.4,3.6,0,5L15.1,72.7z"/><path d="M62.8,20c-0.7-0.7-1.2-1.5-1.5-2.4l-2.5,2.5c-1.1,1.1-1.1,3,0,4.1l17.3,17.3c1.1,1.1,3,1.1,4.1,0l2.6-2.6   c-1-0.3-1.9-0.9-2.7-1.6L62.8,20z"/><path d="M65.7,17.1L83,34.4c1.1,1.1,3,1.1,4.1,0l7-7c1.1-1.1,1.1-3,0-4.1L94,23L77.3,6.3l-0.4-0.4c-1.1-1.1-3-1.1-4.1,0l-7,7   C64.6,14.1,64.6,15.9,65.7,17.1z M76.4,14.8c0.6-0.6,1.6-0.6,2.2,0l6.4,6.4c0.6,0.6,0.6,1.6,0,2.2l-1.6,1.6c-0.6,0.6-1.6,0.6-2.2,0   l-6.4-6.4c-0.6-0.6-0.6-1.6,0-2.2L76.4,14.8z"/></g><text x="0" y="115" fill="#000000" font-size="5px" font-weight="bold" font-family="'Helvetica Neue', Helvetica, Arial-Unicode, Arial, Sans-serif">Created by Anastasia Latysheva</text><text x="0" y="120" fill="#000000" font-size="5px" font-weight="bold" font-family="'Helvetica Neue', Helvetica, Arial-Unicode, Arial, Sans-serif">from the Noun Project</text></svg>