<?xml version="1.0" encoding="UTF-8"?>
<svg width="353px" height="294px" viewBox="0 0 353 294" version="1.1" xmlns="http://www.w3.org/2000/svg" xmlns:xlink="http://www.w3.org/1999/xlink">
    <!-- Generator: Sketch 43.1 (39012) - http://www.bohemiancoding.com/sketch -->
    <title>piulogo</title>
    <desc>Created with Sketch.</desc>
    <defs></defs>
    <g id="Page-1" stroke="none" stroke-width="1" fill="none" fill-rule="evenodd">
        <g id="piulogo">
            <path d="M9.2578125,257.679688 L3.69140625,257.679688 L2.55859375,261 L0.15625,261 L5.38085938,246.78125 L7.62695312,246.78125 L12.7929688,261 L10.3808594,261 L9.2578125,257.679688 Z M4.375,255.697266 L8.58398438,255.697266 L6.5234375,249.623047 L6.46484375,249.623047 L4.375,255.697266 Z M25.0585938,258.128906 C25.0585938,257.764321 24.9023453,257.46159 24.5898438,257.220703 C24.2773422,256.979817 23.6946657,256.76823 22.8417969,256.585938 C21.5787697,256.319009 20.6233756,255.939781 19.9755859,255.448242 C19.3277962,254.956703 19.0039062,254.287765 19.0039062,253.441406 C19.0039062,252.555985 19.3782515,251.800784 20.1269531,251.175781 C20.8756548,250.550778 21.861973,250.238281 23.0859375,250.238281 C24.3750064,250.238281 25.3987592,250.555661 26.1572266,251.19043 C26.9156939,251.825198 27.278646,252.611323 27.2460938,253.548828 L27.2265625,253.607422 L24.9511719,253.607422 C24.9511719,253.171222 24.7851579,252.796877 24.453125,252.484375 C24.1210921,252.171873 23.6653675,252.015625 23.0859375,252.015625 C22.513018,252.015625 22.0768244,252.144204 21.7773438,252.401367 C21.4778631,252.65853 21.328125,252.972654 21.328125,253.34375 C21.328125,253.714846 21.4697251,254.009439 21.7529297,254.227539 C22.0361342,254.445639 22.6106728,254.639322 23.4765625,254.808594 C24.8046941,255.082033 25.7893848,255.467771 26.4306641,255.96582 C27.0719433,256.46387 27.3925781,257.142574 27.3925781,258.001953 C27.3925781,258.952479 27.0003294,259.723955 26.2158203,260.316406 C25.4313112,260.908857 24.3977929,261.205078 23.1152344,261.205078 C21.7415296,261.205078 20.6575561,260.853519 19.8632812,260.150391 C19.0690064,259.447262 18.6914061,258.639979 18.7304688,257.728516 L18.75,257.669922 L20.9570312,257.669922 C20.983073,258.281904 21.204425,258.727863 21.6210938,259.007812 C22.0377625,259.287762 22.5455699,259.427734 23.1445312,259.427734 C23.7565135,259.427734 24.228514,259.310548 24.5605469,259.076172 C24.8925798,258.841796 25.0585938,258.526044 25.0585938,258.128906 Z M31.6894531,250.433594 L31.8164062,251.810547 C32.1614601,251.309242 32.5943984,250.921876 33.1152344,250.648438 C33.6360703,250.374999 34.2382778,250.238281 34.921875,250.238281 C35.6119826,250.238281 36.2044246,250.39453 36.6992188,250.707031 C37.1940129,251.019533 37.5651029,251.488278 37.8125,252.113281 C38.1380225,251.527341 38.5677057,251.068361 39.1015625,250.736328 C39.6354193,250.404295 40.2604131,250.238281 40.9765625,250.238281 C42.0377657,250.238281 42.8759735,250.601233 43.4912109,251.327148 C44.1064484,252.053064 44.4140625,253.154941 44.4140625,254.632812 L44.4140625,261 L42.0410156,261 L42.0410156,254.623047 C42.0410156,253.724605 41.8863948,253.093101 41.5771484,252.728516 C41.2679021,252.36393 40.8040396,252.181641 40.1855469,252.181641 C39.6777318,252.181641 39.2480486,252.318358 38.8964844,252.591797 C38.5449201,252.865236 38.2910164,253.233071 38.1347656,253.695312 C38.1347656,253.792969 38.1380208,253.877604 38.1445312,253.949219 C38.1510417,254.020834 38.1542969,254.089192 38.1542969,254.154297 L38.1542969,261 L35.78125,261 L35.78125,254.623047 C35.78125,253.757157 35.623374,253.133791 35.3076172,252.75293 C34.9918604,252.372068 34.5279979,252.181641 33.9160156,252.181641 C33.4342424,252.181641 33.0257178,252.274413 32.6904297,252.459961 C32.3551416,252.645509 32.0898447,252.90755 31.8945312,253.246094 L31.8945312,261 L29.5214844,261 L29.5214844,250.433594 L31.6894531,250.433594 Z M53.2714844,261 C53.1868485,260.733072 53.1168623,260.472658 53.0615234,260.21875 C53.0061846,259.964842 52.9687501,259.710939 52.9492188,259.457031 C52.6236963,259.951825 52.1956407,260.36686 51.6650391,260.702148 C51.1344375,261.037437 50.5403679,261.205078 49.8828125,261.205078 C48.7825466,261.205078 47.9378285,260.921878 47.3486328,260.355469 C46.7594372,259.78906 46.4648438,259.011073 46.4648438,258.021484 C46.4648438,256.999344 46.8684855,256.203453 47.6757812,255.633789 C48.483077,255.064125 49.6191333,254.779297 51.0839844,254.779297 L52.9296875,254.779297 L52.9296875,253.851562 C52.9296875,253.298174 52.7669287,252.865236 52.4414062,252.552734 C52.1158838,252.240233 51.6503937,252.083984 51.0449219,252.083984 C50.5045546,252.083984 50.0748714,252.214191 49.7558594,252.474609 C49.4368474,252.735027 49.2773438,253.07031 49.2773438,253.480469 L46.9921875,253.480469 L46.9824219,253.421875 C46.9368487,252.588538 47.3095664,251.849613 48.1005859,251.205078 C48.8916055,250.560544 49.9218687,250.238281 51.1914062,250.238281 C52.4218812,250.238281 53.4147098,250.550778 54.1699219,251.175781 C54.925134,251.800784 55.3027344,252.699213 55.3027344,253.871094 L55.3027344,258.568359 C55.3027344,259.004559 55.332031,259.42285 55.390625,259.823242 C55.449219,260.223635 55.5436191,260.615883 55.6738281,261 L53.2714844,261 Z M50.3613281,259.300781 C50.9602895,259.300781 51.499021,259.151043 51.9775391,258.851562 C52.4560571,258.552082 52.7734367,258.210288 52.9296875,257.826172 L52.9296875,256.263672 L51.0449219,256.263672 C50.3548143,256.263672 49.8144551,256.434569 49.4238281,256.776367 C49.0332012,257.118166 48.8378906,257.52018 48.8378906,257.982422 C48.8378906,258.38607 48.9697252,258.706705 49.2333984,258.944336 C49.4970716,259.181967 49.8730444,259.300781 50.3613281,259.300781 Z M63.0566406,252.572266 L62.0410156,252.533203 C61.5787737,252.533203 61.1930354,252.630858 60.8837891,252.826172 C60.5745427,253.021485 60.3352873,253.298175 60.1660156,253.65625 L60.1660156,261 L57.7929688,261 L57.7929688,250.433594 L59.9609375,250.433594 L60.1171875,251.966797 C60.3841159,251.42643 60.727537,251.003257 61.1474609,250.697266 C61.5673849,250.391275 62.0507785,250.238281 62.5976562,250.238281 C62.7408861,250.238281 62.8743483,250.249674 62.9980469,250.272461 C63.1217454,250.295248 63.2356766,250.322917 63.3398438,250.355469 L63.0566406,252.572266 Z M67.8710938,247.865234 L67.8710938,250.433594 L69.765625,250.433594 L69.765625,252.191406 L67.8710938,252.191406 L67.8710938,258.03125 C67.8710938,258.46745 67.9654938,258.778319 68.1542969,258.963867 C68.3430999,259.149415 68.5937484,259.242188 68.90625,259.242188 C69.036459,259.242188 69.1634108,259.230794 69.2871094,259.208008 C69.4108079,259.185221 69.5279942,259.154297 69.6386719,259.115234 L69.8925781,260.853516 C69.6907542,260.964193 69.4498712,261.050455 69.1699219,261.112305 C68.8899726,261.174154 68.6002619,261.205078 68.3007812,261.205078 C67.4283811,261.205078 66.7447941,260.949547 66.25,260.438477 C65.7552059,259.927406 65.5078125,259.125005 65.5078125,258.03125 L65.5078125,252.191406 L63.8964844,252.191406 L63.8964844,250.433594 L65.5078125,250.433594 L65.5078125,247.865234 L67.8710938,247.865234 Z M86.1523438,257.953125 L86.2109375,257.943359 L87.8613281,250.433594 L90.1367188,250.433594 L87.2460938,261 L85.3027344,261 L83.0566406,253.783203 L83.0371094,253.685547 L83.0273438,253.783203 L80.8007812,261 L78.8574219,261 L75.9667969,250.433594 L78.2421875,250.433594 L79.9316406,257.835938 L79.9902344,257.845703 L82.1875,250.433594 L83.9160156,250.433594 L86.1523438,257.953125 Z M98.1542969,261 C98.069661,260.733072 97.9996748,260.472658 97.9443359,260.21875 C97.8889971,259.964842 97.8515626,259.710939 97.8320312,259.457031 C97.5065088,259.951825 97.0784532,260.36686 96.5478516,260.702148 C96.01725,261.037437 95.4231804,261.205078 94.765625,261.205078 C93.6653591,261.205078 92.820641,260.921878 92.2314453,260.355469 C91.6422497,259.78906 91.3476562,259.011073 91.3476562,258.021484 C91.3476562,256.999344 91.751298,256.203453 92.5585938,255.633789 C93.3658895,255.064125 94.5019458,254.779297 95.9667969,254.779297 L97.8125,254.779297 L97.8125,253.851562 C97.8125,253.298174 97.6497412,252.865236 97.3242188,252.552734 C96.9986963,252.240233 96.5332062,252.083984 95.9277344,252.083984 C95.3873671,252.083984 94.9576839,252.214191 94.6386719,252.474609 C94.3196599,252.735027 94.1601562,253.07031 94.1601562,253.480469 L91.875,253.480469 L91.8652344,253.421875 C91.8196612,252.588538 92.1923789,251.849613 92.9833984,251.205078 C93.774418,250.560544 94.8046812,250.238281 96.0742188,250.238281 C97.3046937,250.238281 98.2975223,250.550778 99.0527344,251.175781 C99.8079465,251.800784 100.185547,252.699213 100.185547,253.871094 L100.185547,258.568359 C100.185547,259.004559 100.214843,259.42285 100.273438,259.823242 C100.332032,260.223635 100.426432,260.615883 100.556641,261 L98.1542969,261 Z M95.2441406,259.300781 C95.843102,259.300781 96.3818335,259.151043 96.8603516,258.851562 C97.3388696,258.552082 97.6562492,258.210288 97.8125,257.826172 L97.8125,256.263672 L95.9277344,256.263672 C95.2376268,256.263672 94.6972676,256.434569 94.3066406,256.776367 C93.9160137,257.118166 93.7207031,257.52018 93.7207031,257.982422 C93.7207031,258.38607 93.8525377,258.706705 94.1162109,258.944336 C94.3798841,259.181967 94.7558569,259.300781 95.2441406,259.300781 Z M105.625,247.865234 L105.625,250.433594 L107.519531,250.433594 L107.519531,252.191406 L105.625,252.191406 L105.625,258.03125 C105.625,258.46745 105.7194,258.778319 105.908203,258.963867 C106.097006,259.149415 106.347655,259.242188 106.660156,259.242188 C106.790365,259.242188 106.917317,259.230794 107.041016,259.208008 C107.164714,259.185221 107.2819,259.154297 107.392578,259.115234 L107.646484,260.853516 C107.44466,260.964193 107.203777,261.050455 106.923828,261.112305 C106.643879,261.174154 106.354168,261.205078 106.054688,261.205078 C105.182287,261.205078 104.4987,260.949547 104.003906,260.438477 C103.509112,259.927406 103.261719,259.125005 103.261719,258.03125 L103.261719,252.191406 L101.650391,252.191406 L101.650391,250.433594 L103.261719,250.433594 L103.261719,247.865234 L105.625,247.865234 Z M114.160156,261.205078 C112.662753,261.205078 111.469731,260.715174 110.581055,259.735352 C109.692378,258.755529 109.248047,257.497404 109.248047,255.960938 L109.248047,255.570312 C109.248047,254.033846 109.689123,252.759445 110.571289,251.74707 C111.453455,250.734695 112.558587,250.231771 113.886719,250.238281 C115.312507,250.238281 116.404619,250.669592 117.163086,251.532227 C117.921553,252.394861 118.300781,253.552076 118.300781,255.003906 L118.300781,256.400391 L111.708984,256.400391 L111.689453,256.449219 C111.728516,257.289067 111.974282,257.975909 112.426758,258.509766 C112.879234,259.043622 113.505855,259.310547 114.306641,259.310547 C114.944665,259.310547 115.491534,259.232423 115.947266,259.076172 C116.402997,258.919921 116.842446,258.695314 117.265625,258.402344 L118.027344,259.955078 C117.630206,260.306642 117.102868,260.602863 116.445312,260.84375 C115.787757,261.084637 115.026046,261.205078 114.160156,261.205078 Z M113.886719,252.142578 C113.300778,252.142578 112.819012,252.375323 112.441406,252.84082 C112.0638,253.306317 111.829428,253.897132 111.738281,254.613281 L111.757812,254.662109 L115.947266,254.662109 L115.947266,254.417969 C115.947266,253.747392 115.776369,253.200523 115.43457,252.777344 C115.092772,252.354165 114.576826,252.142578 113.886719,252.142578 Z M125.478516,252.572266 L124.462891,252.533203 C124.000649,252.533203 123.61491,252.630858 123.305664,252.826172 C122.996418,253.021485 122.757162,253.298175 122.587891,253.65625 L122.587891,261 L120.214844,261 L120.214844,250.433594 L122.382812,250.433594 L122.539062,251.966797 C122.805991,251.42643 123.149412,251.003257 123.569336,250.697266 C123.98926,250.391275 124.472654,250.238281 125.019531,250.238281 C125.162761,250.238281 125.296223,250.249674 125.419922,250.272461 C125.54362,250.295248 125.657552,250.322917 125.761719,250.355469 L125.478516,252.572266 Z M134.287109,250.433594 L134.414062,251.810547 C134.759116,251.309242 135.192055,250.921876 135.712891,250.648438 C136.233727,250.374999 136.835934,250.238281 137.519531,250.238281 C138.209639,250.238281 138.802081,250.39453 139.296875,250.707031 C139.791669,251.019533 140.162759,251.488278 140.410156,252.113281 C140.735679,251.527341 141.165362,251.068361 141.699219,250.736328 C142.233076,250.404295 142.858069,250.238281 143.574219,250.238281 C144.635422,250.238281 145.47363,250.601233 146.088867,251.327148 C146.704105,252.053064 147.011719,253.154941 147.011719,254.632812 L147.011719,261 L144.638672,261 L144.638672,254.623047 C144.638672,253.724605 144.484051,253.093101 144.174805,252.728516 C143.865558,252.36393 143.401696,252.181641 142.783203,252.181641 C142.275388,252.181641 141.845705,252.318358 141.494141,252.591797 C141.142576,252.865236 140.888673,253.233071 140.732422,253.695312 C140.732422,253.792969 140.735677,253.877604 140.742188,253.949219 C140.748698,254.020834 140.751953,254.089192 140.751953,254.154297 L140.751953,261 L138.378906,261 L138.378906,254.623047 C138.378906,253.757157 138.22103,253.133791 137.905273,252.75293 C137.589517,252.372068 137.125654,252.181641 136.513672,252.181641 C136.031899,252.181641 135.623374,252.274413 135.288086,252.459961 C134.952798,252.645509 134.687501,252.90755 134.492188,253.246094 L134.492188,261 L132.119141,261 L132.119141,250.433594 L134.287109,250.433594 Z M155.869141,261 C155.784505,260.733072 155.714519,260.472658 155.65918,260.21875 C155.603841,259.964842 155.566406,259.710939 155.546875,259.457031 C155.221353,259.951825 154.793297,260.36686 154.262695,260.702148 C153.732094,261.037437 153.138024,261.205078 152.480469,261.205078 C151.380203,261.205078 150.535485,260.921878 149.946289,260.355469 C149.357093,259.78906 149.0625,259.011073 149.0625,258.021484 C149.0625,256.999344 149.466142,256.203453 150.273438,255.633789 C151.080733,255.064125 152.21679,254.779297 153.681641,254.779297 L155.527344,254.779297 L155.527344,253.851562 C155.527344,253.298174 155.364585,252.865236 155.039062,252.552734 C154.71354,252.240233 154.24805,252.083984 153.642578,252.083984 C153.102211,252.083984 152.672528,252.214191 152.353516,252.474609 C152.034504,252.735027 151.875,253.07031 151.875,253.480469 L149.589844,253.480469 L149.580078,253.421875 C149.534505,252.588538 149.907223,251.849613 150.698242,251.205078 C151.489262,250.560544 152.519525,250.238281 153.789062,250.238281 C155.019537,250.238281 156.012366,250.550778 156.767578,251.175781 C157.52279,251.800784 157.900391,252.699213 157.900391,253.871094 L157.900391,258.568359 C157.900391,259.004559 157.929687,259.42285 157.988281,259.823242 C158.046875,260.223635 158.141275,260.615883 158.271484,261 L155.869141,261 Z M152.958984,259.300781 C153.557946,259.300781 154.096677,259.151043 154.575195,258.851562 C155.053713,258.552082 155.371093,258.210288 155.527344,257.826172 L155.527344,256.263672 L153.642578,256.263672 C152.952471,256.263672 152.412111,256.434569 152.021484,256.776367 C151.630857,257.118166 151.435547,257.52018 151.435547,257.982422 C151.435547,258.38607 151.567381,258.706705 151.831055,258.944336 C152.094728,259.181967 152.470701,259.300781 152.958984,259.300781 Z M162.539062,250.433594 L162.675781,251.957031 C163.020835,251.416664 163.455401,250.995119 163.979492,250.692383 C164.503583,250.389647 165.094398,250.238281 165.751953,250.238281 C166.852219,250.238281 167.709958,250.571937 168.325195,251.239258 C168.940433,251.906579 169.248047,252.946608 169.248047,254.359375 L169.248047,261 L166.875,261 L166.875,254.378906 C166.875,253.584631 166.710614,253.019858 166.381836,252.68457 C166.053058,252.349282 165.553389,252.181641 164.882812,252.181641 C164.420571,252.181641 164.007163,252.284179 163.642578,252.489258 C163.277993,252.694337 162.978517,252.97591 162.744141,253.333984 L162.744141,261 L160.371094,261 L160.371094,250.433594 L162.539062,250.433594 Z M178.076172,261 C177.991536,260.733072 177.92155,260.472658 177.866211,260.21875 C177.810872,259.964842 177.773438,259.710939 177.753906,259.457031 C177.428384,259.951825 177.000328,260.36686 176.469727,260.702148 C175.939125,261.037437 175.345055,261.205078 174.6875,261.205078 C173.587234,261.205078 172.742516,260.921878 172.15332,260.355469 C171.564125,259.78906 171.269531,259.011073 171.269531,258.021484 C171.269531,256.999344 171.673173,256.203453 172.480469,255.633789 C173.287764,255.064125 174.423821,254.779297 175.888672,254.779297 L177.734375,254.779297 L177.734375,253.851562 C177.734375,253.298174 177.571616,252.865236 177.246094,252.552734 C176.920571,252.240233 176.455081,252.083984 175.849609,252.083984 C175.309242,252.083984 174.879559,252.214191 174.560547,252.474609 C174.241535,252.735027 174.082031,253.07031 174.082031,253.480469 L171.796875,253.480469 L171.787109,253.421875 C171.741536,252.588538 172.114254,251.849613 172.905273,251.205078 C173.696293,250.560544 174.726556,250.238281 175.996094,250.238281 C177.226569,250.238281 178.219397,250.550778 178.974609,251.175781 C179.729821,251.800784 180.107422,252.699213 180.107422,253.871094 L180.107422,258.568359 C180.107422,259.004559 180.136718,259.42285 180.195312,259.823242 C180.253907,260.223635 180.348307,260.615883 180.478516,261 L178.076172,261 Z M175.166016,259.300781 C175.764977,259.300781 176.303709,259.151043 176.782227,258.851562 C177.260745,258.552082 177.578124,258.210288 177.734375,257.826172 L177.734375,256.263672 L175.849609,256.263672 C175.159502,256.263672 174.619143,256.434569 174.228516,256.776367 C173.837889,257.118166 173.642578,257.52018 173.642578,257.982422 C173.642578,258.38607 173.774413,258.706705 174.038086,258.944336 C174.301759,259.181967 174.677732,259.300781 175.166016,259.300781 Z M182.167969,255.863281 C182.167969,254.183585 182.535804,252.826177 183.271484,251.791016 C184.007165,250.755854 185.02929,250.238281 186.337891,250.238281 C186.969404,250.238281 187.524412,250.373371 188.00293,250.643555 C188.481448,250.913738 188.886717,251.302732 189.21875,251.810547 L189.453125,250.433594 L191.425781,250.433594 L191.425781,261 C191.425781,262.360684 191.005864,263.412106 190.166016,264.154297 C189.326168,264.896488 188.134773,265.267578 186.591797,265.267578 C186.077471,265.267578 185.522464,265.194337 184.926758,265.047852 C184.331052,264.901366 183.79232,264.707683 183.310547,264.466797 L183.818359,262.601562 C184.208986,262.803386 184.640297,262.961262 185.112305,263.075195 C185.584312,263.189128 186.070961,263.246094 186.572266,263.246094 C187.431645,263.246094 188.059894,263.062176 188.457031,262.694336 C188.854169,262.326496 189.052734,261.761723 189.052734,261 L189.052734,259.916016 C188.720701,260.339195 188.328453,260.65983 187.875977,260.87793 C187.4235,261.09603 186.9043,261.205078 186.318359,261.205078 C185.02278,261.205078 184.007165,260.733078 183.271484,259.789062 C182.535804,258.845047 182.167969,257.604825 182.167969,256.068359 L182.167969,255.863281 Z M184.541016,256.068359 C184.541016,257.038416 184.734699,257.814776 185.12207,258.397461 C185.509442,258.980146 186.110022,259.271484 186.923828,259.271484 C187.431643,259.271484 187.859699,259.165691 188.208008,258.954102 C188.556317,258.742512 188.83789,258.438153 189.052734,258.041016 L189.052734,253.412109 C188.831379,253.027993 188.546551,252.726889 188.198242,252.508789 C187.849933,252.290689 187.431643,252.181641 186.943359,252.181641 C186.129553,252.181641 185.525718,252.523434 185.131836,253.207031 C184.737954,253.890628 184.541016,254.776036 184.541016,255.863281 L184.541016,256.068359 Z M198.457031,261.205078 C196.959628,261.205078 195.766606,260.715174 194.87793,259.735352 C193.989253,258.755529 193.544922,257.497404 193.544922,255.960938 L193.544922,255.570312 C193.544922,254.033846 193.985998,252.759445 194.868164,251.74707 C195.75033,250.734695 196.855462,250.231771 198.183594,250.238281 C199.609382,250.238281 200.701494,250.669592 201.459961,251.532227 C202.218428,252.394861 202.597656,253.552076 202.597656,255.003906 L202.597656,256.400391 L196.005859,256.400391 L195.986328,256.449219 C196.025391,257.289067 196.271157,257.975909 196.723633,258.509766 C197.176109,259.043622 197.80273,259.310547 198.603516,259.310547 C199.24154,259.310547 199.788409,259.232423 200.244141,259.076172 C200.699872,258.919921 201.139321,258.695314 201.5625,258.402344 L202.324219,259.955078 C201.927081,260.306642 201.399743,260.602863 200.742188,260.84375 C200.084632,261.084637 199.322921,261.205078 198.457031,261.205078 Z M198.183594,252.142578 C197.597653,252.142578 197.115887,252.375323 196.738281,252.84082 C196.360675,253.306317 196.126303,253.897132 196.035156,254.613281 L196.054688,254.662109 L200.244141,254.662109 L200.244141,254.417969 C200.244141,253.747392 200.073244,253.200523 199.731445,252.777344 C199.389647,252.354165 198.873701,252.142578 198.183594,252.142578 Z M206.679688,250.433594 L206.806641,251.810547 C207.151694,251.309242 207.584633,250.921876 208.105469,250.648438 C208.626305,250.374999 209.228512,250.238281 209.912109,250.238281 C210.602217,250.238281 211.194659,250.39453 211.689453,250.707031 C212.184247,251.019533 212.555337,251.488278 212.802734,252.113281 C213.128257,251.527341 213.55794,251.068361 214.091797,250.736328 C214.625654,250.404295 215.250647,250.238281 215.966797,250.238281 C217.028,250.238281 217.866208,250.601233 218.481445,251.327148 C219.096683,252.053064 219.404297,253.154941 219.404297,254.632812 L219.404297,261 L217.03125,261 L217.03125,254.623047 C217.03125,253.724605 216.876629,253.093101 216.567383,252.728516 C216.258136,252.36393 215.794274,252.181641 215.175781,252.181641 C214.667966,252.181641 214.238283,252.318358 213.886719,252.591797 C213.535154,252.865236 213.281251,253.233071 213.125,253.695312 C213.125,253.792969 213.128255,253.877604 213.134766,253.949219 C213.141276,254.020834 213.144531,254.089192 213.144531,254.154297 L213.144531,261 L210.771484,261 L210.771484,254.623047 C210.771484,253.757157 210.613608,253.133791 210.297852,252.75293 C209.982095,252.372068 209.518232,252.181641 208.90625,252.181641 C208.424477,252.181641 208.015952,252.274413 207.680664,252.459961 C207.345376,252.645509 207.080079,252.90755 206.884766,253.246094 L206.884766,261 L204.511719,261 L204.511719,250.433594 L206.679688,250.433594 Z M226.435547,261.205078 C224.938144,261.205078 223.745122,260.715174 222.856445,259.735352 C221.967769,258.755529 221.523438,257.497404 221.523438,255.960938 L221.523438,255.570312 C221.523438,254.033846 221.964514,252.759445 222.84668,251.74707 C223.728846,250.734695 224.833978,250.231771 226.162109,250.238281 C227.587898,250.238281 228.680009,250.669592 229.438477,251.532227 C230.196944,252.394861 230.576172,253.552076 230.576172,255.003906 L230.576172,256.400391 L223.984375,256.400391 L223.964844,256.449219 C224.003906,257.289067 224.249672,257.975909 224.702148,258.509766 C225.154625,259.043622 225.781246,259.310547 226.582031,259.310547 C227.220055,259.310547 227.766925,259.232423 228.222656,259.076172 C228.678388,258.919921 229.117836,258.695314 229.541016,258.402344 L230.302734,259.955078 C229.905597,260.306642 229.378258,260.602863 228.720703,260.84375 C228.063148,261.084637 227.301437,261.205078 226.435547,261.205078 Z M226.162109,252.142578 C225.576169,252.142578 225.094403,252.375323 224.716797,252.84082 C224.339191,253.306317 224.104818,253.897132 224.013672,254.613281 L224.033203,254.662109 L228.222656,254.662109 L228.222656,254.417969 C228.222656,253.747392 228.05176,253.200523 227.709961,252.777344 C227.368162,252.354165 226.852217,252.142578 226.162109,252.142578 Z M234.638672,250.433594 L234.775391,251.957031 C235.120444,251.416664 235.55501,250.995119 236.079102,250.692383 C236.603193,250.389647 237.194007,250.238281 237.851562,250.238281 C238.951828,250.238281 239.809567,250.571937 240.424805,251.239258 C241.040042,251.906579 241.347656,252.946608 241.347656,254.359375 L241.347656,261 L238.974609,261 L238.974609,254.378906 C238.974609,253.584631 238.810223,253.019858 238.481445,252.68457 C238.152668,252.349282 237.652998,252.181641 236.982422,252.181641 C236.52018,252.181641 236.106773,252.284179 235.742188,252.489258 C235.377602,252.694337 235.078126,252.97591 234.84375,253.333984 L234.84375,261 L232.470703,261 L232.470703,250.433594 L234.638672,250.433594 Z M246.767578,247.865234 L246.767578,250.433594 L248.662109,250.433594 L248.662109,252.191406 L246.767578,252.191406 L246.767578,258.03125 C246.767578,258.46745 246.861978,258.778319 247.050781,258.963867 C247.239584,259.149415 247.490233,259.242188 247.802734,259.242188 C247.932943,259.242188 248.059895,259.230794 248.183594,259.208008 C248.307292,259.185221 248.424479,259.154297 248.535156,259.115234 L248.789062,260.853516 C248.587239,260.964193 248.346356,261.050455 248.066406,261.112305 C247.786457,261.174154 247.496746,261.205078 247.197266,261.205078 C246.324865,261.205078 245.641279,260.949547 245.146484,260.438477 C244.65169,259.927406 244.404297,259.125005 244.404297,258.03125 L244.404297,252.191406 L242.792969,252.191406 L242.792969,250.433594 L244.404297,250.433594 L244.404297,247.865234 L246.767578,247.865234 Z M261.689453,258.128906 C261.689453,257.764321 261.533205,257.46159 261.220703,257.220703 C260.908202,256.979817 260.325525,256.76823 259.472656,256.585938 C258.209629,256.319009 257.254235,255.939781 256.606445,255.448242 C255.958656,254.956703 255.634766,254.287765 255.634766,253.441406 C255.634766,252.555985 256.009111,251.800784 256.757812,251.175781 C257.506514,250.550778 258.492832,250.238281 259.716797,250.238281 C261.005866,250.238281 262.029619,250.555661 262.788086,251.19043 C263.546553,251.825198 263.909505,252.611323 263.876953,253.548828 L263.857422,253.607422 L261.582031,253.607422 C261.582031,253.171222 261.416017,252.796877 261.083984,252.484375 C260.751951,252.171873 260.296227,252.015625 259.716797,252.015625 C259.143877,252.015625 258.707684,252.144204 258.408203,252.401367 C258.108722,252.65853 257.958984,252.972654 257.958984,253.34375 C257.958984,253.714846 258.100585,254.009439 258.383789,254.227539 C258.666994,254.445639 259.241532,254.639322 260.107422,254.808594 C261.435554,255.082033 262.420244,255.467771 263.061523,255.96582 C263.702803,256.46387 264.023438,257.142574 264.023438,258.001953 C264.023438,258.952479 263.631189,259.723955 262.84668,260.316406 C262.062171,260.908857 261.028652,261.205078 259.746094,261.205078 C258.372389,261.205078 257.288415,260.853519 256.494141,260.150391 C255.699866,259.447262 255.322265,258.639979 255.361328,257.728516 L255.380859,257.669922 L257.587891,257.669922 C257.613932,258.281904 257.835284,258.727863 258.251953,259.007812 C258.668622,259.287762 259.176429,259.427734 259.775391,259.427734 C260.387373,259.427734 260.859373,259.310548 261.191406,259.076172 C261.523439,258.841796 261.689453,258.526044 261.689453,258.128906 Z M269.658203,256.761719 L269.892578,257.816406 L269.951172,257.816406 L272.265625,250.433594 L274.863281,250.433594 L270.488281,262.601562 C270.208332,263.337243 269.814456,263.965492 269.306641,264.486328 C268.798826,265.007164 268.079432,265.267578 267.148438,265.267578 C266.953124,265.267578 266.743165,265.248047 266.518555,265.208984 C266.293944,265.169922 266.077475,265.124349 265.869141,265.072266 L266.132812,263.236328 C266.217448,263.242839 266.33789,263.252604 266.494141,263.265625 C266.650391,263.278646 266.767578,263.285156 266.845703,263.285156 C267.275393,263.285156 267.618814,263.138673 267.875977,262.845703 C268.133139,262.552733 268.343098,262.214195 268.505859,261.830078 L268.896484,260.873047 L265.058594,250.433594 L267.646484,250.433594 L269.658203,256.761719 Z M282.226562,258.128906 C282.226562,257.764321 282.070314,257.46159 281.757812,257.220703 C281.445311,256.979817 280.862634,256.76823 280.009766,256.585938 C278.746738,256.319009 277.791344,255.939781 277.143555,255.448242 C276.495765,254.956703 276.171875,254.287765 276.171875,253.441406 C276.171875,252.555985 276.54622,251.800784 277.294922,251.175781 C278.043624,250.550778 279.029942,250.238281 280.253906,250.238281 C281.542975,250.238281 282.566728,250.555661 283.325195,251.19043 C284.083663,251.825198 284.446615,252.611323 284.414062,253.548828 L284.394531,253.607422 L282.119141,253.607422 C282.119141,253.171222 281.953127,252.796877 281.621094,252.484375 C281.289061,252.171873 280.833336,252.015625 280.253906,252.015625 C279.680987,252.015625 279.244793,252.144204 278.945312,252.401367 C278.645832,252.65853 278.496094,252.972654 278.496094,253.34375 C278.496094,253.714846 278.637694,254.009439 278.920898,254.227539 C279.204103,254.445639 279.778642,254.639322 280.644531,254.808594 C281.972663,255.082033 282.957354,255.467771 283.598633,255.96582 C284.239912,256.46387 284.560547,257.142574 284.560547,258.001953 C284.560547,258.952479 284.168298,259.723955 283.383789,260.316406 C282.59928,260.908857 281.565762,261.205078 280.283203,261.205078 C278.909498,261.205078 277.825525,260.853519 277.03125,260.150391 C276.236975,259.447262 275.859375,258.639979 275.898438,257.728516 L275.917969,257.669922 L278.125,257.669922 C278.151042,258.281904 278.372394,258.727863 278.789062,259.007812 C279.205731,259.287762 279.713539,259.427734 280.3125,259.427734 C280.924482,259.427734 281.396483,259.310548 281.728516,259.076172 C282.060549,258.841796 282.226562,258.526044 282.226562,258.128906 Z M289.638672,247.865234 L289.638672,250.433594 L291.533203,250.433594 L291.533203,252.191406 L289.638672,252.191406 L289.638672,258.03125 C289.638672,258.46745 289.733072,258.778319 289.921875,258.963867 C290.110678,259.149415 290.361327,259.242188 290.673828,259.242188 C290.804037,259.242188 290.930989,259.230794 291.054688,259.208008 C291.178386,259.185221 291.295572,259.154297 291.40625,259.115234 L291.660156,260.853516 C291.458332,260.964193 291.217449,261.050455 290.9375,261.112305 C290.657551,261.174154 290.36784,261.205078 290.068359,261.205078 C289.195959,261.205078 288.512372,260.949547 288.017578,260.438477 C287.522784,259.927406 287.275391,259.125005 287.275391,258.03125 L287.275391,252.191406 L285.664062,252.191406 L285.664062,250.433594 L287.275391,250.433594 L287.275391,247.865234 L289.638672,247.865234 Z M298.173828,261.205078 C296.676425,261.205078 295.483403,260.715174 294.594727,259.735352 C293.70605,258.755529 293.261719,257.497404 293.261719,255.960938 L293.261719,255.570312 C293.261719,254.033846 293.702795,252.759445 294.584961,251.74707 C295.467127,250.734695 296.572259,250.231771 297.900391,250.238281 C299.326179,250.238281 300.41829,250.669592 301.176758,251.532227 C301.935225,252.394861 302.314453,253.552076 302.314453,255.003906 L302.314453,256.400391 L295.722656,256.400391 L295.703125,256.449219 C295.742188,257.289067 295.987953,257.975909 296.44043,258.509766 C296.892906,259.043622 297.519527,259.310547 298.320312,259.310547 C298.958337,259.310547 299.505206,259.232423 299.960938,259.076172 C300.416669,258.919921 300.856118,258.695314 301.279297,258.402344 L302.041016,259.955078 C301.643878,260.306642 301.11654,260.602863 300.458984,260.84375 C299.801429,261.084637 299.039718,261.205078 298.173828,261.205078 Z M297.900391,252.142578 C297.31445,252.142578 296.832684,252.375323 296.455078,252.84082 C296.077472,253.306317 295.843099,253.897132 295.751953,254.613281 L295.771484,254.662109 L299.960938,254.662109 L299.960938,254.417969 C299.960938,253.747392 299.790041,253.200523 299.448242,252.777344 C299.106444,252.354165 298.590498,252.142578 297.900391,252.142578 Z M306.396484,250.433594 L306.523438,251.810547 C306.868491,251.309242 307.30143,250.921876 307.822266,250.648438 C308.343102,250.374999 308.945309,250.238281 309.628906,250.238281 C310.319014,250.238281 310.911456,250.39453 311.40625,250.707031 C311.901044,251.019533 312.272134,251.488278 312.519531,252.113281 C312.845054,251.527341 313.274737,251.068361 313.808594,250.736328 C314.342451,250.404295 314.967444,250.238281 315.683594,250.238281 C316.744797,250.238281 317.583005,250.601233 318.198242,251.327148 C318.81348,252.053064 319.121094,253.154941 319.121094,254.632812 L319.121094,261 L316.748047,261 L316.748047,254.623047 C316.748047,253.724605 316.593426,253.093101 316.28418,252.728516 C315.974933,252.36393 315.511071,252.181641 314.892578,252.181641 C314.384763,252.181641 313.95508,252.318358 313.603516,252.591797 C313.251951,252.865236 312.998048,253.233071 312.841797,253.695312 C312.841797,253.792969 312.845052,253.877604 312.851562,253.949219 C312.858073,254.020834 312.861328,254.089192 312.861328,254.154297 L312.861328,261 L310.488281,261 L310.488281,254.623047 C310.488281,253.757157 310.330405,253.133791 310.014648,252.75293 C309.698892,252.372068 309.235029,252.181641 308.623047,252.181641 C308.141274,252.181641 307.732749,252.274413 307.397461,252.459961 C307.062173,252.645509 306.796876,252.90755 306.601562,253.246094 L306.601562,261 L304.228516,261 L304.228516,250.433594 L306.396484,250.433594 Z M2.02148438,293 L2.02148438,284.191406 L0.41015625,284.191406 L0.41015625,282.433594 L2.02148438,282.433594 L2.02148438,281.203125 C2.02148438,280.037755 2.33886401,279.139326 2.97363281,278.507812 C3.60840161,277.876299 4.49869219,277.560547 5.64453125,277.560547 C5.87239697,277.560547 6.10351445,277.57845 6.33789062,277.614258 C6.5722668,277.650065 6.83593604,277.700521 7.12890625,277.765625 L6.88476562,279.601562 C6.75455664,279.575521 6.60970132,279.552734 6.45019531,279.533203 C6.29068931,279.513672 6.11979258,279.503906 5.9375,279.503906 C5.42317451,279.503906 5.03743618,279.650389 4.78027344,279.943359 C4.52311069,280.23633 4.39453125,280.656247 4.39453125,281.203125 L4.39453125,282.433594 L6.54296875,282.433594 L6.54296875,284.191406 L4.39453125,284.191406 L4.39453125,293 L2.02148438,293 Z M7.83203125,287.619141 C7.83203125,286.050122 8.26171445,284.761073 9.12109375,283.751953 C9.99349395,282.742833 11.1751228,282.238281 12.6660156,282.238281 C14.1829503,282.238281 15.3710895,282.742833 16.2304688,283.751953 C17.0963585,284.754562 17.5292969,286.043612 17.5292969,287.619141 L17.5292969,287.824219 C17.5292969,289.412768 17.0963585,290.708328 16.2304688,291.710938 C15.3710895,292.707036 14.1894606,293.205078 12.6855469,293.205078 C11.1751227,293.205078 9.9869835,292.703781 9.12109375,291.701172 C8.26171445,290.698563 7.83203125,289.406258 7.83203125,287.824219 L7.83203125,287.619141 Z M10.2050781,287.824219 C10.2050781,288.85287 10.406899,289.692705 10.8105469,290.34375 C11.2076843,290.988284 11.832678,291.310547 12.6855469,291.310547 C13.5123739,291.310547 14.1308573,290.988284 14.5410156,290.34375 C14.9576844,289.692705 15.1660156,288.85287 15.1660156,287.824219 L15.1660156,287.619141 C15.1660156,286.610021 14.9576844,285.779951 14.5410156,285.128906 C14.1308573,284.471351 13.5058636,284.142578 12.6660156,284.142578 C11.8391886,284.142578 11.2207052,284.471351 10.8105469,285.128906 C10.406899,285.786462 10.2050781,286.616531 10.2050781,287.619141 L10.2050781,287.824219 Z M24.8632812,284.572266 L23.8476562,284.533203 C23.3854144,284.533203 22.999676,284.630858 22.6904297,284.826172 C22.3811833,285.021485 22.1419279,285.298175 21.9726562,285.65625 L21.9726562,293 L19.5996094,293 L19.5996094,282.433594 L21.7675781,282.433594 L21.9238281,283.966797 C22.1907565,283.42643 22.5341776,283.003257 22.9541016,282.697266 C23.3740255,282.391275 23.8574191,282.238281 24.4042969,282.238281 C24.5475268,282.238281 24.680989,282.249674 24.8046875,282.272461 C24.928386,282.295248 25.0423172,282.322917 25.1464844,282.355469 L24.8632812,284.572266 Z M37.4414062,290.128906 C37.4414062,289.764321 37.2851578,289.46159 36.9726562,289.220703 C36.6601547,288.979817 36.0774782,288.76823 35.2246094,288.585938 C33.9615822,288.319009 33.0061881,287.939781 32.3583984,287.448242 C31.7106087,286.956703 31.3867187,286.287765 31.3867187,285.441406 C31.3867187,284.555985 31.761064,283.800784 32.5097656,283.175781 C33.2584673,282.550778 34.2447855,282.238281 35.46875,282.238281 C36.7578189,282.238281 37.7815717,282.555661 38.5400391,283.19043 C39.2985064,283.825198 39.6614585,284.611323 39.6289062,285.548828 L39.609375,285.607422 L37.3339844,285.607422 C37.3339844,285.171222 37.1679704,284.796877 36.8359375,284.484375 C36.5039046,284.171873 36.04818,284.015625 35.46875,284.015625 C34.8958305,284.015625 34.4596369,284.144204 34.1601562,284.401367 C33.8606756,284.65853 33.7109375,284.972654 33.7109375,285.34375 C33.7109375,285.714846 33.8525376,286.009439 34.1357422,286.227539 C34.4189467,286.445639 34.9934853,286.639322 35.859375,286.808594 C37.1875066,287.082033 38.1721973,287.467771 38.8134766,287.96582 C39.4547558,288.46387 39.7753906,289.142574 39.7753906,290.001953 C39.7753906,290.952479 39.3831419,291.723955 38.5986328,292.316406 C37.8141237,292.908857 36.7806054,293.205078 35.4980469,293.205078 C34.1243421,293.205078 33.0403686,292.853519 32.2460938,292.150391 C31.4518189,291.447262 31.0742186,290.639979 31.1132812,289.728516 L31.1328125,289.669922 L33.3398438,289.669922 C33.3658855,290.281904 33.5872375,290.727863 34.0039062,291.007812 C34.420575,291.287762 34.9283824,291.427734 35.5273438,291.427734 C36.139326,291.427734 36.6113265,291.310548 36.9433594,291.076172 C37.2753923,290.841796 37.4414062,290.526044 37.4414062,290.128906 Z M44.8535156,279.865234 L44.8535156,282.433594 L46.7480469,282.433594 L46.7480469,284.191406 L44.8535156,284.191406 L44.8535156,290.03125 C44.8535156,290.46745 44.9479157,290.778319 45.1367188,290.963867 C45.3255218,291.149415 45.5761703,291.242188 45.8886719,291.242188 C46.0188809,291.242188 46.1458327,291.230794 46.2695312,291.208008 C46.3932298,291.185221 46.5104161,291.154297 46.6210938,291.115234 L46.875,292.853516 C46.6731761,292.964193 46.4322931,293.050455 46.1523438,293.112305 C45.8723944,293.174154 45.5826838,293.205078 45.2832031,293.205078 C44.4108029,293.205078 43.727216,292.949547 43.2324219,292.438477 C42.7376277,291.927406 42.4902344,291.125005 42.4902344,290.03125 L42.4902344,284.191406 L40.8789062,284.191406 L40.8789062,282.433594 L42.4902344,282.433594 L42.4902344,279.865234 L44.8535156,279.865234 Z M55.2148438,293 C55.1302079,292.733072 55.0602216,292.472658 55.0048828,292.21875 C54.949544,291.964842 54.9121095,291.710939 54.8925781,291.457031 C54.5670557,291.951825 54.139,292.36686 53.6083984,292.702148 C53.0777968,293.037437 52.4837272,293.205078 51.8261719,293.205078 C50.725906,293.205078 49.8811878,292.921878 49.2919922,292.355469 C48.7027965,291.78906 48.4082031,291.011073 48.4082031,290.021484 C48.4082031,288.999344 48.8118449,288.203453 49.6191406,287.633789 C50.4264363,287.064125 51.5624927,286.779297 53.0273438,286.779297 L54.8730469,286.779297 L54.8730469,285.851562 C54.8730469,285.298174 54.7102881,284.865236 54.3847656,284.552734 C54.0592432,284.240233 53.593753,284.083984 52.9882812,284.083984 C52.447914,284.083984 52.0182308,284.214191 51.6992188,284.474609 C51.3802067,284.735027 51.2207031,285.07031 51.2207031,285.480469 L48.9355469,285.480469 L48.9257812,285.421875 C48.8802081,284.588538 49.2529257,283.849613 50.0439453,283.205078 C50.8349649,282.560544 51.865228,282.238281 53.1347656,282.238281 C54.3652405,282.238281 55.3580691,282.550778 56.1132812,283.175781 C56.8684934,283.800784 57.2460938,284.699213 57.2460938,285.871094 L57.2460938,290.568359 C57.2460938,291.004559 57.2753903,291.42285 57.3339844,291.823242 C57.3925784,292.223635 57.4869785,292.615883 57.6171875,293 L55.2148438,293 Z M52.3046875,291.300781 C52.9036488,291.300781 53.4423804,291.151043 53.9208984,290.851562 C54.3994165,290.552082 54.7167961,290.210288 54.8730469,289.826172 L54.8730469,288.263672 L52.9882812,288.263672 C52.2981736,288.263672 51.7578145,288.434569 51.3671875,288.776367 C50.9765605,289.118166 50.78125,289.52018 50.78125,289.982422 C50.78125,290.38607 50.9130846,290.706705 51.1767578,290.944336 C51.440431,291.181967 51.8164038,291.300781 52.3046875,291.300781 Z M61.8847656,282.433594 L62.0214844,283.957031 C62.3665382,283.416664 62.8011042,282.995119 63.3251953,282.692383 C63.8492865,282.389647 64.4401009,282.238281 65.0976562,282.238281 C66.1979222,282.238281 67.055661,282.571937 67.6708984,283.239258 C68.2861359,283.906579 68.59375,284.946608 68.59375,286.359375 L68.59375,293 L66.2207031,293 L66.2207031,286.378906 C66.2207031,285.584631 66.0563167,285.019858 65.7275391,284.68457 C65.3987614,284.349282 64.8990919,284.181641 64.2285156,284.181641 C63.7662737,284.181641 63.3528664,284.284179 62.9882812,284.489258 C62.6236961,284.694337 62.3242199,284.97591 62.0898438,285.333984 L62.0898438,293 L59.7167969,293 L59.7167969,282.433594 L61.8847656,282.433594 Z M70.625,287.863281 C70.625,286.177075 70.9863245,284.818039 71.7089844,283.786133 C72.4316442,282.754227 73.4472591,282.238281 74.7558594,282.238281 C75.3287789,282.238281 75.8414691,282.35384 76.2939453,282.584961 C76.7464215,282.816082 77.1386702,283.146482 77.4707031,283.576172 L77.4707031,277.765625 L79.84375,277.765625 L79.84375,293 L77.8515625,293 L77.6171875,291.691406 C77.2786441,292.1862 76.8717472,292.562173 76.3964844,292.819336 C75.9212216,293.076499 75.3678417,293.205078 74.7363281,293.205078 C73.4407487,293.205078 72.4316442,292.733078 71.7089844,291.789062 C70.9863245,290.845047 70.625,289.604825 70.625,288.068359 L70.625,287.863281 Z M72.9980469,288.068359 C72.9980469,289.044927 73.1852195,289.822914 73.5595703,290.402344 C73.9339211,290.981774 74.5279907,291.271484 75.3417969,291.271484 C75.8431015,291.271484 76.2679019,291.164064 76.6162109,290.949219 C76.96452,290.734374 77.2493479,290.428387 77.4707031,290.03125 L77.4707031,285.421875 C77.2493479,285.031248 76.9628924,284.726889 76.6113281,284.508789 C76.2597639,284.290689 75.8431014,284.181641 75.3613281,284.181641 C74.5540324,284.181641 73.9583353,284.521806 73.5742188,285.202148 C73.1901022,285.88249 72.9980469,286.769526 72.9980469,287.863281 L72.9980469,288.068359 Z M86.9628906,287.912109 L81.8359375,287.912109 L81.8359375,285.998047 L86.9628906,285.998047 L86.9628906,287.912109 Z M95.3125,293 C95.2278642,292.733072 95.1578779,292.472658 95.1025391,292.21875 C95.0472002,291.964842 95.0097657,291.710939 94.9902344,291.457031 C94.6647119,291.951825 94.2366563,292.36686 93.7060547,292.702148 C93.1754531,293.037437 92.5813835,293.205078 91.9238281,293.205078 C90.8235622,293.205078 89.9788441,292.921878 89.3896484,292.355469 C88.8004528,291.78906 88.5058594,291.011073 88.5058594,290.021484 C88.5058594,288.999344 88.9095012,288.203453 89.7167969,287.633789 C90.5240926,287.064125 91.6601489,286.779297 93.125,286.779297 L94.9707031,286.779297 L94.9707031,285.851562 C94.9707031,285.298174 94.8079443,284.865236 94.4824219,284.552734 C94.1568994,284.240233 93.6914093,284.083984 93.0859375,284.083984 C92.5455702,284.083984 92.115887,284.214191 91.796875,284.474609 C91.477863,284.735027 91.3183594,285.07031 91.3183594,285.480469 L89.0332031,285.480469 L89.0234375,285.421875 C88.9778644,284.588538 89.350582,283.849613 90.1416016,283.205078 C90.9326211,282.560544 91.9628843,282.238281 93.2324219,282.238281 C94.4628968,282.238281 95.4557254,282.550778 96.2109375,283.175781 C96.9661496,283.800784 97.34375,284.699213 97.34375,285.871094 L97.34375,290.568359 C97.34375,291.004559 97.3730466,291.42285 97.4316406,291.823242 C97.4902347,292.223635 97.5846348,292.615883 97.7148438,293 L95.3125,293 Z M92.4023438,291.300781 C93.0013051,291.300781 93.5400367,291.151043 94.0185547,290.851562 C94.4970727,290.552082 94.8144523,290.210288 94.9707031,289.826172 L94.9707031,288.263672 L93.0859375,288.263672 C92.3958299,288.263672 91.8554707,288.434569 91.4648438,288.776367 C91.0742168,289.118166 90.8789062,289.52018 90.8789062,289.982422 C90.8789062,290.38607 91.0107409,290.706705 91.2744141,290.944336 C91.5380873,291.181967 91.9140601,291.300781 92.4023438,291.300781 Z M102.363281,293 L99.9902344,293 L99.9902344,277.765625 L102.363281,277.765625 L102.363281,293 Z M104.580078,287.619141 C104.580078,286.050122 105.009761,284.761073 105.869141,283.751953 C106.741541,282.742833 107.92317,282.238281 109.414062,282.238281 C110.930997,282.238281 112.119136,282.742833 112.978516,283.751953 C113.844405,284.754562 114.277344,286.043612 114.277344,287.619141 L114.277344,287.824219 C114.277344,289.412768 113.844405,290.708328 112.978516,291.710938 C112.119136,292.707036 110.937508,293.205078 109.433594,293.205078 C107.92317,293.205078 106.73503,292.703781 105.869141,291.701172 C105.009761,290.698563 104.580078,289.406258 104.580078,287.824219 L104.580078,287.619141 Z M106.953125,287.824219 C106.953125,288.85287 107.154946,289.692705 107.558594,290.34375 C107.955731,290.988284 108.580725,291.310547 109.433594,291.310547 C110.260421,291.310547 110.878904,290.988284 111.289062,290.34375 C111.705731,289.692705 111.914062,288.85287 111.914062,287.824219 L111.914062,287.619141 C111.914062,286.610021 111.705731,285.779951 111.289062,285.128906 C110.878904,284.471351 110.25391,284.142578 109.414062,284.142578 C108.587235,284.142578 107.968752,284.471351 107.558594,285.128906 C107.154946,285.786462 106.953125,286.616531 106.953125,287.619141 L106.953125,287.824219 Z M118.496094,282.433594 L118.632812,283.957031 C118.977866,283.416664 119.412432,282.995119 119.936523,282.692383 C120.460615,282.389647 121.051429,282.238281 121.708984,282.238281 C122.80925,282.238281 123.666989,282.571937 124.282227,283.239258 C124.897464,283.906579 125.205078,284.946608 125.205078,286.359375 L125.205078,293 L122.832031,293 L122.832031,286.378906 C122.832031,285.584631 122.667645,285.019858 122.338867,284.68457 C122.01009,284.349282 121.51042,284.181641 120.839844,284.181641 C120.377602,284.181641 119.964195,284.284179 119.599609,284.489258 C119.235024,284.694337 118.935548,284.97591 118.701172,285.333984 L118.701172,293 L116.328125,293 L116.328125,282.433594 L118.496094,282.433594 Z M132.207031,293.205078 C130.709628,293.205078 129.516606,292.715174 128.62793,291.735352 C127.739253,290.755529 127.294922,289.497404 127.294922,287.960938 L127.294922,287.570312 C127.294922,286.033846 127.735998,284.759445 128.618164,283.74707 C129.50033,282.734695 130.605462,282.231771 131.933594,282.238281 C133.359382,282.238281 134.451494,282.669592 135.209961,283.532227 C135.968428,284.394861 136.347656,285.552076 136.347656,287.003906 L136.347656,288.400391 L129.755859,288.400391 L129.736328,288.449219 C129.775391,289.289067 130.021157,289.975909 130.473633,290.509766 C130.926109,291.043622 131.55273,291.310547 132.353516,291.310547 C132.99154,291.310547 133.538409,291.232423 133.994141,291.076172 C134.449872,290.919921 134.889321,290.695314 135.3125,290.402344 L136.074219,291.955078 C135.677081,292.306642 135.149743,292.602863 134.492188,292.84375 C133.834632,293.084637 133.072921,293.205078 132.207031,293.205078 Z M131.933594,284.142578 C131.347653,284.142578 130.865887,284.375323 130.488281,284.84082 C130.110675,285.306317 129.876303,285.897132 129.785156,286.613281 L129.804688,286.662109 L133.994141,286.662109 L133.994141,286.417969 C133.994141,285.747392 133.823244,285.200523 133.481445,284.777344 C133.139647,284.354165 132.623701,284.142578 131.933594,284.142578 Z M145.585938,283.800781 C145.937502,283.305987 146.365557,282.921876 146.870117,282.648438 C147.374677,282.374999 147.93294,282.238281 148.544922,282.238281 C149.664719,282.238281 150.538734,282.591468 151.166992,283.297852 C151.795251,284.004235 152.109375,285.093092 152.109375,286.564453 L152.109375,293 L149.736328,293 L149.736328,286.544922 C149.736328,285.711584 149.570314,285.109377 149.238281,284.738281 C148.906248,284.367186 148.408206,284.181641 147.744141,284.181641 C147.281899,284.181641 146.866864,284.277668 146.499023,284.469727 C146.131183,284.661785 145.826824,284.927082 145.585938,285.265625 L145.585938,293 L143.212891,293 L143.212891,277.765625 L145.585938,277.765625 L145.585938,283.800781 Z M154.130859,287.619141 C154.130859,286.050122 154.560543,284.761073 155.419922,283.751953 C156.292322,282.742833 157.473951,282.238281 158.964844,282.238281 C160.481778,282.238281 161.669918,282.742833 162.529297,283.751953 C163.395187,284.754562 163.828125,286.043612 163.828125,287.619141 L163.828125,287.824219 C163.828125,289.412768 163.395187,290.708328 162.529297,291.710938 C161.669918,292.707036 160.488289,293.205078 158.984375,293.205078 C157.473951,293.205078 156.285812,292.703781 155.419922,291.701172 C154.560543,290.698563 154.130859,289.406258 154.130859,287.824219 L154.130859,287.619141 Z M156.503906,287.824219 C156.503906,288.85287 156.705727,289.692705 157.109375,290.34375 C157.506512,290.988284 158.131506,291.310547 158.984375,291.310547 C159.811202,291.310547 160.429685,290.988284 160.839844,290.34375 C161.256512,289.692705 161.464844,288.85287 161.464844,287.824219 L161.464844,287.619141 C161.464844,286.610021 161.256512,285.779951 160.839844,285.128906 C160.429685,284.471351 159.804692,284.142578 158.964844,284.142578 C158.138017,284.142578 157.519533,284.471351 157.109375,285.128906 C156.705727,285.786462 156.503906,286.616531 156.503906,287.619141 L156.503906,287.824219 Z M168.066406,282.433594 L168.193359,283.810547 C168.538413,283.309242 168.971352,282.921876 169.492188,282.648438 C170.013023,282.374999 170.615231,282.238281 171.298828,282.238281 C171.988936,282.238281 172.581378,282.39453 173.076172,282.707031 C173.570966,283.019533 173.942056,283.488278 174.189453,284.113281 C174.514976,283.527341 174.944659,283.068361 175.478516,282.736328 C176.012372,282.404295 176.637366,282.238281 177.353516,282.238281 C178.414719,282.238281 179.252927,282.601233 179.868164,283.327148 C180.483402,284.053064 180.791016,285.154941 180.791016,286.632812 L180.791016,293 L178.417969,293 L178.417969,286.623047 C178.417969,285.724605 178.263348,285.093101 177.954102,284.728516 C177.644855,284.36393 177.180993,284.181641 176.5625,284.181641 C176.054685,284.181641 175.625002,284.318358 175.273438,284.591797 C174.921873,284.865236 174.66797,285.233071 174.511719,285.695312 C174.511719,285.792969 174.514974,285.877604 174.521484,285.949219 C174.527995,286.020834 174.53125,286.089192 174.53125,286.154297 L174.53125,293 L172.158203,293 L172.158203,286.623047 C172.158203,285.757157 172.000327,285.133791 171.68457,284.75293 C171.368814,284.372068 170.904951,284.181641 170.292969,284.181641 C169.811196,284.181641 169.402671,284.274413 169.067383,284.459961 C168.732095,284.645509 168.466798,284.90755 168.271484,285.246094 L168.271484,293 L165.898438,293 L165.898438,282.433594 L168.066406,282.433594 Z M187.822266,293.205078 C186.324862,293.205078 185.13184,292.715174 184.243164,291.735352 C183.354488,290.755529 182.910156,289.497404 182.910156,287.960938 L182.910156,287.570312 C182.910156,286.033846 183.351233,284.759445 184.233398,283.74707 C185.115564,282.734695 186.220696,282.231771 187.548828,282.238281 C188.974617,282.238281 190.066728,282.669592 190.825195,283.532227 C191.583663,284.394861 191.962891,285.552076 191.962891,287.003906 L191.962891,288.400391 L185.371094,288.400391 L185.351562,288.449219 C185.390625,289.289067 185.636391,289.975909 186.088867,290.509766 C186.541343,291.043622 187.167965,291.310547 187.96875,291.310547 C188.606774,291.310547 189.153644,291.232423 189.609375,291.076172 C190.065106,290.919921 190.504555,290.695314 190.927734,290.402344 L191.689453,291.955078 C191.292316,292.306642 190.764977,292.602863 190.107422,292.84375 C189.449867,293.084637 188.688155,293.205078 187.822266,293.205078 Z M187.548828,284.142578 C186.962888,284.142578 186.481122,284.375323 186.103516,284.84082 C185.72591,285.306317 185.491537,285.897132 185.400391,286.613281 L185.419922,286.662109 L189.609375,286.662109 L189.609375,286.417969 C189.609375,285.747392 189.438478,285.200523 189.09668,284.777344 C188.754881,284.354165 188.238936,284.142578 187.548828,284.142578 Z M199.814453,290.128906 C199.814453,289.764321 199.658205,289.46159 199.345703,289.220703 C199.033202,288.979817 198.450525,288.76823 197.597656,288.585938 C196.334629,288.319009 195.379235,287.939781 194.731445,287.448242 C194.083656,286.956703 193.759766,286.287765 193.759766,285.441406 C193.759766,284.555985 194.134111,283.800784 194.882812,283.175781 C195.631514,282.550778 196.617832,282.238281 197.841797,282.238281 C199.130866,282.238281 200.154619,282.555661 200.913086,283.19043 C201.671553,283.825198 202.034505,284.611323 202.001953,285.548828 L201.982422,285.607422 L199.707031,285.607422 C199.707031,285.171222 199.541017,284.796877 199.208984,284.484375 C198.876951,284.171873 198.421227,284.015625 197.841797,284.015625 C197.268877,284.015625 196.832684,284.144204 196.533203,284.401367 C196.233722,284.65853 196.083984,284.972654 196.083984,285.34375 C196.083984,285.714846 196.225585,286.009439 196.508789,286.227539 C196.791994,286.445639 197.366532,286.639322 198.232422,286.808594 C199.560554,287.082033 200.545244,287.467771 201.186523,287.96582 C201.827803,288.46387 202.148438,289.142574 202.148438,290.001953 C202.148438,290.952479 201.756189,291.723955 200.97168,292.316406 C200.187171,292.908857 199.153652,293.205078 197.871094,293.205078 C196.497389,293.205078 195.413415,292.853519 194.619141,292.150391 C193.824866,291.447262 193.447265,290.639979 193.486328,289.728516 L193.505859,289.669922 L195.712891,289.669922 C195.738932,290.281904 195.960284,290.727863 196.376953,291.007812 C196.793622,291.287762 197.301429,291.427734 197.900391,291.427734 C198.512373,291.427734 198.984373,291.310548 199.316406,291.076172 C199.648439,290.841796 199.814453,290.526044 199.814453,290.128906 Z M211.787109,293 L209.414062,293 L209.414062,282.433594 L211.787109,282.433594 L211.787109,293 Z M211.787109,279.845703 L209.414062,279.845703 L209.414062,277.765625 L211.787109,277.765625 L211.787109,279.845703 Z M216.591797,282.433594 L216.728516,283.957031 C217.073569,283.416664 217.508135,282.995119 218.032227,282.692383 C218.556318,282.389647 219.147132,282.238281 219.804688,282.238281 C220.904953,282.238281 221.762692,282.571937 222.37793,283.239258 C222.993167,283.906579 223.300781,284.946608 223.300781,286.359375 L223.300781,293 L220.927734,293 L220.927734,286.378906 C220.927734,285.584631 220.763348,285.019858 220.43457,284.68457 C220.105793,284.349282 219.606123,284.181641 218.935547,284.181641 C218.473305,284.181641 218.059898,284.284179 217.695312,284.489258 C217.330727,284.694337 217.031251,284.97591 216.796875,285.333984 L216.796875,293 L214.423828,293 L214.423828,282.433594 L216.591797,282.433594 Z M233.564453,293 L231.191406,293 L231.191406,278.78125 L233.564453,278.78125 L233.564453,293 Z M238.652344,282.433594 L238.789062,283.957031 C239.134116,283.416664 239.568682,282.995119 240.092773,282.692383 C240.616865,282.389647 241.207679,282.238281 241.865234,282.238281 C242.9655,282.238281 243.823239,282.571937 244.438477,283.239258 C245.053714,283.906579 245.361328,284.946608 245.361328,286.359375 L245.361328,293 L242.988281,293 L242.988281,286.378906 C242.988281,285.584631 242.823895,285.019858 242.495117,284.68457 C242.16634,284.349282 241.66667,284.181641 240.996094,284.181641 C240.533852,284.181641 240.120445,284.284179 239.755859,284.489258 C239.391274,284.694337 239.091798,284.97591 238.857422,285.333984 L238.857422,293 L236.484375,293 L236.484375,282.433594 L238.652344,282.433594 Z M247.392578,287.863281 C247.392578,286.177075 247.753903,284.818039 248.476562,283.786133 C249.199222,282.754227 250.214837,282.238281 251.523438,282.238281 C252.096357,282.238281 252.609047,282.35384 253.061523,282.584961 C253.514,282.816082 253.906248,283.146482 254.238281,283.576172 L254.238281,277.765625 L256.611328,277.765625 L256.611328,293 L254.619141,293 L254.384766,291.691406 C254.046222,292.1862 253.639325,292.562173 253.164062,292.819336 C252.6888,293.076499 252.13542,293.205078 251.503906,293.205078 C250.208327,293.205078 249.199222,292.733078 248.476562,291.789062 C247.753903,290.845047 247.392578,289.604825 247.392578,288.068359 L247.392578,287.863281 Z M249.765625,288.068359 C249.765625,289.044927 249.952798,289.822914 250.327148,290.402344 C250.701499,290.981774 251.295569,291.271484 252.109375,291.271484 C252.61068,291.271484 253.03548,291.164064 253.383789,290.949219 C253.732098,290.734374 254.016926,290.428387 254.238281,290.03125 L254.238281,285.421875 C254.016926,285.031248 253.730471,284.726889 253.378906,284.508789 C253.027342,284.290689 252.610679,284.181641 252.128906,284.181641 C251.321611,284.181641 250.725913,284.521806 250.341797,285.202148 C249.95768,285.88249 249.765625,286.769526 249.765625,287.863281 L249.765625,288.068359 Z M261.689453,293 L259.316406,293 L259.316406,282.433594 L261.689453,282.433594 L261.689453,293 Z M261.689453,279.845703 L259.316406,279.845703 L259.316406,277.765625 L261.689453,277.765625 L261.689453,279.845703 Z M270.703125,293 C270.618489,292.733072 270.548503,292.472658 270.493164,292.21875 C270.437825,291.964842 270.400391,291.710939 270.380859,291.457031 C270.055337,291.951825 269.627281,292.36686 269.09668,292.702148 C268.566078,293.037437 267.972008,293.205078 267.314453,293.205078 C266.214187,293.205078 265.369469,292.921878 264.780273,292.355469 C264.191078,291.78906 263.896484,291.011073 263.896484,290.021484 C263.896484,288.999344 264.300126,288.203453 265.107422,287.633789 C265.914718,287.064125 267.050774,286.779297 268.515625,286.779297 L270.361328,286.779297 L270.361328,285.851562 C270.361328,285.298174 270.198569,284.865236 269.873047,284.552734 C269.547524,284.240233 269.082034,284.083984 268.476562,284.083984 C267.936195,284.083984 267.506512,284.214191 267.1875,284.474609 C266.868488,284.735027 266.708984,285.07031 266.708984,285.480469 L264.423828,285.480469 L264.414062,285.421875 C264.368489,284.588538 264.741207,283.849613 265.532227,283.205078 C266.323246,282.560544 267.353509,282.238281 268.623047,282.238281 C269.853522,282.238281 270.84635,282.550778 271.601562,283.175781 C272.356775,283.800784 272.734375,284.699213 272.734375,285.871094 L272.734375,290.568359 C272.734375,291.004559 272.763672,291.42285 272.822266,291.823242 C272.88086,292.223635 272.97526,292.615883 273.105469,293 L270.703125,293 Z M267.792969,291.300781 C268.39193,291.300781 268.930662,291.151043 269.40918,290.851562 C269.887698,290.552082 270.205077,290.210288 270.361328,289.826172 L270.361328,288.263672 L268.476562,288.263672 C267.786455,288.263672 267.246096,288.434569 266.855469,288.776367 C266.464842,289.118166 266.269531,289.52018 266.269531,289.982422 C266.269531,290.38607 266.401366,290.706705 266.665039,290.944336 C266.928712,291.181967 267.304685,291.300781 267.792969,291.300781 Z" id="A-smart-water-manage" fill="#026F8B"></path>
            <g transform="translate(4.000000, 0.000000)">
                <polygon id="Path-2-Copy" fill="#4FCEDE" fill-rule="nonzero" points="127.05 75.95 118.95 75.95 118.95 153.942673 186.063223 153.72319 186.036734 145.623233 127.05 145.81614"></polygon>
                <polygon id="Path" fill="#032A2F" fill-rule="nonzero" points="260 179.143837 196 179.143837 196 111 186 111 186 189.143837 270 189.143837 270 111 260 111"></polygon>
                <rect id="Rectangle" fill="#4FCFDF" x="202" y="125.332781" width="52" height="49.5467926"></rect>
                <g id="Group-Copy-5" transform="translate(81.000000, 1.000000)">
                    <polygon id="Path" fill="#032A2F" fill-rule="nonzero" points="10 68.2748285 10 1.24344979e-14 0 1.24344979e-14 0 78.2748285 84 78.2748285 84 0 74 2.48689958e-14 74 68.2748285"></polygon>
                    <rect id="Rectangle" fill="#4FCFDF" x="16" y="14.4589402" width="52" height="49.5467926"></rect>
                </g>
                <path d="M302.295044,158.016069 L302.295044,189.454545 L291.689941,189.454545 L291.689941,111.073686 L321.674927,111.073686 C330.037029,111.073686 336.532814,113.226985 341.162476,117.533647 C345.792137,121.840309 348.106934,127.510663 348.106934,134.544877 C348.106934,141.686759 345.792137,147.384029 341.162476,151.636857 C336.532814,155.889686 330.037029,158.016069 321.674927,158.016069 L302.295044,158.016069 Z M302.295044,149.725786 L321.674927,149.725786 C326.986477,149.725786 330.952135,148.299225 333.572021,145.446062 C336.191908,142.592898 337.501831,138.995095 337.501831,134.652544 C337.501831,130.309992 336.182936,126.685273 333.545105,123.778276 C330.907274,120.871279 326.950588,119.417802 321.674927,119.417802 L302.295044,119.417802 L302.295044,149.725786 Z" id="P-Copy-3" fill="#032A2F"></path>
                <path d="M203.005859,0.619140625 L227.984375,64.3035889 L228.307373,64.3035889 L253.285889,0.619140625 L266.851807,0.619140625 L266.851807,79 L256.246704,79 L256.246704,47.9921875 L257.323364,16.1230469 L257.054199,16.0692139 L231.64502,79 L224.592896,79 L199.291382,16.2307129 L199.022217,16.2845459 L200.045044,47.9921875 L200.045044,79 L189.439941,79 L189.439941,0.619140625 L203.005859,0.619140625 Z M301.890625,47.5615234 L301.890625,79 L291.285522,79 L291.285522,0.619140625 L321.270508,0.619140625 C329.63261,0.619140625 336.128395,2.7724394 340.758057,7.07910156 C345.387718,11.3857637 347.702515,17.0561172 347.702515,24.090332 C347.702515,31.2322134 345.387718,36.9294831 340.758057,41.182312 C336.128395,45.4351409 329.63261,47.5615234 321.270508,47.5615234 L301.890625,47.5615234 Z M301.890625,39.2712402 L321.270508,39.2712402 C326.582058,39.2712402 330.547716,37.8446798 333.167603,34.9915161 C335.787489,32.1383524 337.097412,28.5405491 337.097412,24.197998 C337.097412,19.855447 335.778517,16.2307274 333.140686,13.3237305 C330.502855,10.4167335 326.546169,8.96325684 321.270508,8.96325684 L301.890625,8.96325684 L301.890625,39.2712402 Z" id="MP-Copy" fill="#032A2F"></path>
                <path d="M11.2950439,47.5615234 L11.2950439,79 L0.689941406,79 L0.689941406,0.619140625 L30.6749268,0.619140625 C39.0370291,0.619140625 45.5328138,2.7724394 50.1624756,7.07910156 C54.7921374,11.3857637 57.1069336,17.0561172 57.1069336,24.090332 C57.1069336,31.2322134 54.7921374,36.9294831 50.1624756,41.182312 C45.5328138,45.4351409 39.0370291,47.5615234 30.6749268,47.5615234 L11.2950439,47.5615234 Z M11.2950439,39.2712402 L30.6749268,39.2712402 C35.9864768,39.2712402 39.9521353,37.8446798 42.5720215,34.9915161 C45.1919076,32.1383524 46.5018311,28.5405491 46.5018311,24.197998 C46.5018311,19.855447 45.1829356,16.2307274 42.545105,13.3237305 C39.9072744,10.4167335 35.9505879,8.96325684 30.6749268,8.96325684 L11.2950439,8.96325684 L11.2950439,39.2712402 Z" id="P-Copy-2" fill="#032A2F"></path>
                <path d="M11.887207,189 L1.22827148,189 L1.22827148,110.619141 L11.887207,110.619141 L11.887207,189 Z M83.3774414,118.963257 L58.1835938,118.963257 L58.1835938,189 L47.5784912,189 L47.5784912,118.963257 L22.4384766,118.963257 L22.4384766,110.619141 L83.3774414,110.619141 L83.3774414,118.963257 Z" id="IT-Copy" fill="#032A2F"></path>
            </g>
        </g>
    </g>
</svg>