<?xml version="1.0" encoding="UTF-8"?>
<svg width="364px" height="392px" viewBox="0 0 364 392" version="1.1" xmlns="http://www.w3.org/2000/svg" xmlns:xlink="http://www.w3.org/1999/xlink">
    <!-- Generator: Sketch 47.1 (45422) - http://www.bohemiancoding.com/sketch -->
    <title>piulogo</title>
    <desc>Created with Sketch.</desc>
    <defs></defs>
    <g id="Page-1" stroke="none" stroke-width="1" fill="none" fill-rule="evenodd">
        <g id="Desktop-HD-Copy" transform="translate(-131.000000, -215.000000)">
            <g id="piulogo" transform="translate(131.000000, 178.000000)">
                <text id="A-smart-water-manage" font-family="Roboto-Medium, Roboto" font-size="21" font-weight="400" line-spacing="32" fill="#026F8B">
                    <tspan x="10" y="284">A smart water management system </tspan>
                    <tspan x="10" y="316">for stand-alone homes in India</tspan>
                </text>
                <g id="Group-34" transform="translate(1.000000, 350.000000)">
                    <path d="M54.9,27 L54.9,70.1138298 C139.2,81.0287234 223.499311,81.0287234 307.797934,70.1138298 C307.800689,69.7412541 307.800689,55.3699775 307.797934,27 C223.499311,34.5022402 139.2,34.5022402 54.9,27 Z" id="Path-18" stroke="#E72020" stroke-width="0.595125" fill="#E66B12" stroke-linecap="square"></path>
                    <g id="Group-25" transform="translate(87.300000, 37.800000)" fill="#FFFFFF">
                        <text id="Best-Graduate-Capsto" font-family="Roboto-Bold, Roboto" font-size="12.35169" font-weight="bold" letter-spacing="0.343102545">
                            <tspan x="0" y="13">Best Graduate Capstone Project</tspan>
                        </text>
                        <text id="HCDE-Open-House-2017" font-family="Roboto-Medium, Roboto" font-size="9" font-weight="400" letter-spacing="0.250000039">
                            <tspan x="43.2" y="30.6">HCDE Open House 2017</tspan>
                        </text>
                    </g>
                    <path d="M262.8,14.4 L262.8,24.2584734 C278.761443,24.5040969 292.261443,23.660102 303.3,21.7264887 L262.8,14.4 Z" id="Path-19" stroke="#E72020" stroke-width="0.595125" fill="#E66B12" stroke-linecap="square"></path>
                    <path d="M279.9,12.3401634 L312.534116,20.4862482 L312.534116,51.3 L353.96751,40.4316373 L327.310357,28.734695 C343.868272,19.9204902 355.36482,10.3422585 361.8,9.09494702e-13 C334.5,10.0314836 307.2,14.1448714 279.9,12.3401634 Z" id="Path-20" stroke="#E72020" stroke-width="0.595125" fill="#E66B12" stroke-linecap="square"></path>
                    <path d="M58.5,14.4 L58.5,24.2584734 C74.4614428,24.5040969 87.9614428,23.660102 99,21.7264887 L58.5,14.4 Z" id="Path-19" stroke="#E72020" stroke-width="0.595125" fill="#E66B12" stroke-linecap="square" transform="translate(78.750000, 19.350000) scale(-1, 1) translate(-78.750000, -19.350000) "></path>
                    <path d="M0,12.3401634 L32.6341162,20.4862482 L32.6341162,51.3 L74.06751,40.4316373 L47.4103566,28.734695 C63.9682724,19.9204902 75.4648202,10.3422585 81.9,9.09494702e-13 C54.6,10.0314836 27.3,14.1448714 0,12.3401634 Z" id="Path-20" stroke="#E72020" stroke-width="0.595125" fill="#E66B12" stroke-linecap="square" transform="translate(40.950000, 25.650000) scale(-1, 1) translate(-40.950000, -25.650000) "></path>
                </g>
                <g>
                    <polyline id="Path-2-Copy" stroke="#4FCEDE" stroke-width="8.1" stroke-linecap="square" points="132 117 132 186.879406 191 186.686456"></polyline>
                    <polyline id="Path" stroke="#032A2F" stroke-width="10" stroke-linecap="square" points="200 153 200 221.143837 274 221.143837 274 153"></polyline>
                    <rect id="Rectangle" fill="#4FCEDE" x="211" y="162.332781" width="52" height="49.5467926"></rect>
                    <g id="Group-Copy-5" transform="translate(95.000000, 43.000000)">
                        <polyline id="Path" stroke="#032A2F" stroke-width="10" stroke-linecap="square" points="0 0 0 68.2748285 74 68.2748285 74 0"></polyline>
                        <rect id="Rectangle" fill="#4FCEDE" x="11" y="9.45894019" width="52" height="49.5467926"></rect>
                    </g>
                    <text id="P-Copy-3" font-family="Roboto-Regular, Roboto" font-size="110.25" font-weight="normal" fill="#032A2F">
                        <tspan x="291" y="226.454545">P</tspan>
                    </text>
                    <text id="MP-Copy" font-family="Roboto-Regular, Roboto" font-size="110.25" font-weight="normal" letter-spacing="5" fill="#032A2F">
                        <tspan x="188.75" y="116">M</tspan>
                        <tspan x="290.595581" y="116">P</tspan>
                    </text>
                    <text id="P-Copy-2" font-family="Roboto-Regular, Roboto" font-size="110.25" font-weight="normal" fill="#032A2F">
                        <tspan x="0" y="116">P</tspan>
                    </text>
                    <text id="IT-Copy" font-family="Roboto-Regular, Roboto" font-size="110.25" font-weight="normal" fill="#032A2F">
                        <tspan x="0" y="226">IT</tspan>
                    </text>
                </g>
            </g>
        </g>
    </g>
</svg>