<?xml version="1.0" encoding="UTF-8"?>
<svg width="404px" height="398px" viewBox="0 0 404 398" version="1.1" xmlns="http://www.w3.org/2000/svg" xmlns:xlink="http://www.w3.org/1999/xlink">
    <!-- Generator: Sketch 47.1 (45422) - http://www.bohemiancoding.com/sketch -->
    <title>piulogo</title>
    <desc>Created with Sketch.</desc>
    <defs></defs>
    <g id="Page-1" stroke="none" stroke-width="1" fill="none" fill-rule="evenodd">
        <g id="Desktop-HD-Copy" transform="translate(-97.000000, -215.000000)">
            <g id="piulogo" transform="translate(98.000000, 178.000000)">
                <text id="A-smart-water-manage" font-family="Roboto-Medium, Roboto" font-size="20" font-weight="400" line-spacing="32" fill="#026F8B">
                    <tspan x="45" y="285">A smart water management system </tspan>
                    <tspan x="45" y="317">for stand-alone homes in India</tspan>
                </text>
                <g id="Group-34" transform="translate(0.000000, 347.000000)">
                    <path d="M61,30 L61,77.9042553 C154.666667,90.0319149 248.332568,90.0319149 341.997705,77.9042553 C342.000765,77.4902823 342.000765,61.5221972 341.997705,30 C248.332568,38.3358224 154.666667,38.3358224 61,30 Z" id="Path-18" stroke="#E72020" stroke-width="0.66125" fill="#E66B12" stroke-linecap="square"></path>
                    <g id="Group-25" transform="translate(97.000000, 42.000000)" fill="#FFFFFF">
                        <text id="Best-Graduate-Capsto" font-family="Roboto-Bold, Roboto" font-size="13.7241" font-weight="bold" letter-spacing="0.381225061">
                            <tspan x="0" y="14">Best Graduate Capstone Project</tspan>
                        </text>
                        <text id="HCDE-Open-House-2017" font-family="Roboto-Medium, Roboto" font-size="10" font-weight="400" letter-spacing="0.277777821">
                            <tspan x="48" y="34">HCDE Open House 2017</tspan>
                        </text>
                    </g>
                    <path d="M292,16 L292,26.9538593 C309.734936,27.2267743 324.734936,26.2890022 337,24.140543 L292,16 Z" id="Path-19" stroke="#E72020" stroke-width="0.66125" fill="#E66B12" stroke-linecap="square"></path>
                    <path d="M311,13.7112927 L347.260129,22.762498 L347.260129,57 L393.297233,44.9240414 L363.678174,31.9274389 C382.075858,22.133878 394.8498,11.4913984 402,9.09494702e-13 C371.666667,11.1460929 341.333333,15.7165238 311,13.7112927 Z" id="Path-20" stroke="#E72020" stroke-width="0.66125" fill="#E66B12" stroke-linecap="square"></path>
                    <path d="M65,16 L65,26.9538593 C82.7349365,27.2267743 97.7349365,26.2890022 110,24.140543 L65,16 Z" id="Path-19" stroke="#E72020" stroke-width="0.66125" fill="#E66B12" stroke-linecap="square" transform="translate(87.500000, 21.500000) scale(-1, 1) translate(-87.500000, -21.500000) "></path>
                    <path d="M0,13.7112927 L36.2601291,22.762498 L36.2601291,57 L82.2972333,44.9240414 L52.678174,31.9274389 C71.0758582,22.133878 83.8498002,11.4913984 91,9.09494702e-13 C60.6666667,11.1460929 30.3333333,15.7165238 0,13.7112927 Z" id="Path-20" stroke="#E72020" stroke-width="0.66125" fill="#E66B12" stroke-linecap="square" transform="translate(45.500000, 28.500000) scale(-1, 1) translate(-45.500000, -28.500000) "></path>
                </g>
                <g transform="translate(38.000000, 0.000000)">
                    <polyline id="Path-2-Copy" stroke="#4FCEDE" stroke-width="8.1" stroke-linecap="square" points="132 117 132 186.879406 191 186.686456"></polyline>
                    <polyline id="Path" stroke="#032A2F" stroke-width="10" stroke-linecap="square" points="200 153 200 221.143837 274 221.143837 274 153"></polyline>
                    <rect id="Rectangle" fill="#4FCEDE" x="211" y="162.332781" width="52" height="49.5467926"></rect>
                    <g id="Group-Copy-5" transform="translate(95.000000, 43.000000)">
                        <polyline id="Path" stroke="#032A2F" stroke-width="10" stroke-linecap="square" points="0 0 0 68.2748285 74 68.2748285 74 0"></polyline>
                        <rect id="Rectangle" fill="#4FCEDE" x="11" y="9.45894019" width="52" height="49.5467926"></rect>
                    </g>
                    <text id="P-Copy-3" font-family="Roboto-Regular, Roboto" font-size="110.25" font-weight="normal" fill="#032A2F">
                        <tspan x="291" y="226.454545">P</tspan>
                    </text>
                    <text id="MP-Copy" font-family="Roboto-Regular, Roboto" font-size="110.25" font-weight="normal" letter-spacing="5" fill="#032A2F">
                        <tspan x="188.75" y="116">M</tspan>
                        <tspan x="290.595581" y="116">P</tspan>
                    </text>
                    <text id="P-Copy-2" font-family="Roboto-Regular, Roboto" font-size="110.25" font-weight="normal" fill="#032A2F">
                        <tspan x="0" y="116">P</tspan>
                    </text>
                    <text id="IT-Copy" font-family="Roboto-Regular, Roboto" font-size="110.25" font-weight="normal" fill="#032A2F">
                        <tspan x="0" y="226">IT</tspan>
                    </text>
                </g>
            </g>
        </g>
    </g>
</svg>