<?xml version="1.0" encoding="UTF-8"?>
<svg width="775px" height="798px" viewBox="0 0 775 798" version="1.1" xmlns="http://www.w3.org/2000/svg" xmlns:xlink="http://www.w3.org/1999/xlink">
    <!-- Generator: Sketch 42 (36781) - http://www.bohemiancoding.com/sketch -->
    <title>process_img_2</title>
    <desc>Created with Sketch.</desc>
    <defs>
        <circle id="path-1" cx="382.5" cy="397.5" r="369.5"></circle>
        <mask id="mask-2" maskContentUnits="userSpaceOnUse" maskUnits="objectBoundingBox" x="0" y="0" width="739" height="739" fill="white">
            <use xlink:href="#path-1"></use>
        </mask>
        <circle id="path-3" cx="382.5" cy="397.5" r="300.5"></circle>
        <mask id="mask-4" maskContentUnits="userSpaceOnUse" maskUnits="objectBoundingBox" x="0" y="0" width="601" height="601" fill="white">
            <use xlink:href="#path-3"></use>
        </mask>
        <circle id="path-5" cx="382.5" cy="397.5" r="378.5"></circle>
        <mask id="mask-6" maskContentUnits="userSpaceOnUse" maskUnits="objectBoundingBox" x="0" y="0" width="757" height="757" fill="white">
            <use xlink:href="#path-5"></use>
        </mask>
        <ellipse id="path-7" cx="55.5" cy="55.5" rx="55.5" ry="55.5"></ellipse>
        <path d="M63.0489801,27.8153397 C53.5791738,30.8516055 46.7147041,39.832496 46.7147041,50.4391522 L93.5054687,50.4391522 C93.5054687,39.8800051 86.7023557,30.9320921 77.2982864,27.856497 C79.9892745,25.7183206 81.7184822,22.3924135 81.7184822,18.6569647 C81.7184822,12.2059292 76.5612053,6.97633166 70.1993818,6.97633166 C63.8375583,6.97633166 58.6802813,12.2059292 58.6802813,18.6569647 C58.6802813,22.3685305 60.387448,25.6757748 63.0489801,27.8153397 Z" id="path-9"></path>
        <mask id="mask-10" maskContentUnits="userSpaceOnUse" maskUnits="objectBoundingBox" x="0" y="0" width="46.7907647" height="43.4628205" fill="white">
            <use xlink:href="#path-9"></use>
        </mask>
        <path d="M16.334276,27.8153397 C6.86446968,30.8516055 0,39.832496 0,50.4391522 L46.7907647,50.4391522 C46.7907647,39.8800051 39.9876516,30.9320921 30.5835823,27.856497 C33.2745704,25.7183206 35.0037781,22.3924135 35.0037781,18.6569647 C35.0037781,12.2059292 29.8465012,6.97633166 23.4846777,6.97633166 C17.1228542,6.97633166 11.9655772,12.2059292 11.9655772,18.6569647 C11.9655772,22.3685305 13.6727439,25.6757748 16.334276,27.8153397 Z" id="path-11"></path>
        <mask id="mask-12" maskContentUnits="userSpaceOnUse" maskUnits="objectBoundingBox" x="0" y="0" width="46.7907647" height="43.4628205" fill="white">
            <use xlink:href="#path-11"></use>
        </mask>
        <path d="M38.3572263,34.6855155 C27.1488276,38.2299447 19.0240876,48.7139182 19.0240876,61.095753 L74.4053205,61.095753 C74.4053205,48.7693786 66.3532019,38.3239019 55.222609,34.7335611 C58.4076444,32.2375296 60.4543229,28.3549835 60.4543229,23.9943528 C60.4543229,16.4636424 54.3502048,10.3587955 46.8203935,10.3587955 C39.2905821,10.3587955 33.186464,16.4636424 33.186464,23.9943528 C33.186464,28.3271034 35.207055,32.1878633 38.3572263,34.6855155 Z" id="path-13"></path>
        <mask id="mask-14" maskContentUnits="userSpaceOnUse" maskUnits="objectBoundingBox" x="0" y="0" width="55.3812329" height="50.7369575" fill="white">
            <use xlink:href="#path-13"></use>
        </mask>
        <ellipse id="path-15" cx="25.9597167" cy="25.9628162" rx="25.8540273" ry="25.8571142"></ellipse>
        <mask id="mask-16" maskContentUnits="userSpaceOnUse" maskUnits="objectBoundingBox" x="0" y="0" width="51.7080547" height="51.7142285" fill="white">
            <use xlink:href="#path-15"></use>
        </mask>
        <ellipse id="path-17" cx="25.967948" cy="25.9706894" rx="21.5053289" ry="21.5078966"></ellipse>
        <mask id="mask-18" maskContentUnits="userSpaceOnUse" maskUnits="objectBoundingBox" x="0" y="0" width="43.0106579" height="43.0157933" fill="white">
            <use xlink:href="#path-17"></use>
        </mask>
        <ellipse id="path-19" cx="55.5" cy="55.5" rx="55.5" ry="55.5"></ellipse>
        <ellipse id="path-21" cx="55.5" cy="55.5" rx="55.5" ry="55.5"></ellipse>
        <ellipse id="path-23" cx="55.5" cy="55.5" rx="55.5" ry="55.5"></ellipse>
        <ellipse id="path-25" cx="55.5" cy="55.5" rx="55.5" ry="55.5"></ellipse>
        <rect id="path-27" x="19.8536585" y="17.4471545" width="55.3495935" height="76.4065041" rx="1.2"></rect>
        <mask id="mask-28" maskContentUnits="userSpaceOnUse" maskUnits="objectBoundingBox" x="0" y="0" width="55.3495935" height="76.4065041" fill="white">
            <use xlink:href="#path-27"></use>
        </mask>
        <path d="M56.9347647,67.3429801 C45.7263659,70.8874094 37.601626,81.3713829 37.601626,93.7532177 L92.9828589,93.7532177 C92.9828589,81.4268433 84.9307403,70.9813666 73.8001474,67.3910257 C76.9851827,64.8949943 79.0318613,61.0124481 79.0318613,56.6518175 C79.0318613,49.1211071 72.9277432,43.0162602 65.3979318,43.0162602 C57.8681205,43.0162602 51.7640024,49.1211071 51.7640024,56.6518175 C51.7640024,60.984568 53.7845934,64.8453279 56.9347647,67.3429801 Z" id="path-29"></path>
        <mask id="mask-30" maskContentUnits="userSpaceOnUse" maskUnits="objectBoundingBox" x="0" y="0" width="55.3812329" height="50.7369575" fill="white">
            <use xlink:href="#path-29"></use>
        </mask>
    </defs>
    <g id="Poster" stroke="none" stroke-width="1" fill="none" fill-rule="evenodd">
        <g id="Artboard-5" transform="translate(-257.000000, -815.000000)">
            <g id="process_img_2" transform="translate(257.000000, 815.000000)">
                <use id="Oval-14" stroke="#53B0BD" mask="url(#mask-2)" stroke-width="120" stroke-linecap="square" opacity="0.397871377" xlink:href="#path-1"></use>
                <path d="M64,210 C64,210 141,58 333,31 C332,32 317,62 340,91 C336,92 195,106 114,244 L64,210 Z" id="Path-49" fill="#F6F6F6"></path>
                <polygon id="Path-50" fill="#026F8B" points="59 218 109 253 114 244 64 210"></polygon>
                <polyline id="Path-48" stroke="#F6F6F6" stroke-width="40" stroke-linecap="square" points="596 178 639 178 641 130"></polyline>
                <polyline id="Path-48-Copy-2" stroke="#F6F6F6" stroke-width="40" stroke-linecap="square" transform="translate(62.662659, 500.218267) rotate(-150.000000) translate(-62.662659, -500.218267) " points="37.2668332 520.906089 86.1399001 521.556724 88.0584844 478.879809"></polyline>
                <polygon id="Path-51" fill="#026F8B" points="579 158 620 158 622 116 614 110 612 150 570 151"></polygon>
                <path d="M685,462 L705,494 L743,481 C743,481 744,475 745,469 C745,469 709,479 709,479 L688,446 L685,462 Z" id="Path-52" fill="#026F8B"></path>
                <polygon id="Path-53" fill="#026F8B" points="399 767 370 735 406 706 422 705 387 735 416 765"></polygon>
                <polygon id="Path-54" fill="#026F8B" points="38 531 59 497 99 520 106 537 64 514 44 546"></polygon>
                <polyline id="Path-48-Copy-3" stroke="#F6F6F6" stroke-width="40" stroke-linecap="square" transform="translate(375.452620, 735.915715) rotate(-220.000000) translate(-375.452620, -735.915715) " points="350.934567 759.616448 399.970672 760.295 397.86853 711.536431"></polyline>
                <polyline id="Path-48-Copy" stroke="#F6F6F6" stroke-width="40" stroke-linecap="square" points="679 489 697 518 736 504.5"></polyline>
                <use id="Oval-14-Copy" stroke-opacity="0.209748641" stroke="#026F8B" mask="url(#mask-4)" stroke-width="4" stroke-linecap="square" xlink:href="#path-3"></use>
                <use id="Oval-14-Copy-2" stroke-opacity="0.209748641" stroke="#026F8B" mask="url(#mask-6)" stroke-width="4" stroke-linecap="square" xlink:href="#path-5"></use>
                <g id="Group-3" transform="translate(327.000000, 0.000000)">
                    <mask id="mask-8" fill="white">
                        <use xlink:href="#path-7"></use>
                    </mask>
                    <use id="Oval-7" fill="#E9F3F4" xlink:href="#path-7"></use>
                    <g id="Group-2" mask="url(#mask-8)">
                        <g transform="translate(9.626016, 18.951220)">
                            <use id="Combined-Shape-Copy-2" stroke="#FFFFFF" mask="url(#mask-10)" stroke-width="5.4" stroke-linecap="square" fill-opacity="0.44140625" fill="#026F8B" xlink:href="#path-9"></use>
                            <use id="Combined-Shape-Copy" stroke="#FFFFFF" mask="url(#mask-12)" stroke-width="5.4" stroke-linecap="square" fill-opacity="0.44140625" fill="#026F8B" xlink:href="#path-11"></use>
                            <use id="Combined-Shape" stroke="#FFFFFF" mask="url(#mask-14)" stroke-width="5.4" stroke-linecap="square" fill="#026F8B" xlink:href="#path-13"></use>
                            <g id="Group" stroke="none" stroke-width="1" fill="none" transform="translate(69.328583, 50.898689) rotate(-40.000000) translate(-69.328583, -50.898689) translate(43.328583, 6.398689)">
                                <path d="M17.216623,47.2596329 L33.4691423,47.5458771 L34.2925649,79.5065343 C34.4145195,84.2401298 30.6806125,88.077467 25.9443394,88.077467 L25.7153853,88.077467 C20.9828331,88.077467 17.1529534,84.2374243 17.1610962,79.5082752 L17.216623,47.2596329 Z" id="Rectangle-13" fill="#53B0BD"></path>
                                <use id="Oval-2" stroke="#FFFFFF" mask="url(#mask-16)" stroke-width="9" stroke-linecap="square" xlink:href="#path-15"></use>
                                <use id="Oval-2-Copy" stroke="#D63D31" mask="url(#mask-18)" stroke-width="4.8" stroke-linecap="square" xlink:href="#path-17"></use>
                            </g>
                        </g>
                    </g>
                </g>
                <g id="Group-3-Copy" transform="translate(664.000000, 260.000000)">
                    <mask id="mask-20" fill="white">
                        <use xlink:href="#path-19"></use>
                    </mask>
                    <use id="Oval-7" fill="#E9F3F4" xlink:href="#path-19"></use>
                    <path d="M61.4207561,76.1370223 L49.5610891,76.1370223 C48.7298934,76.1370223 48.0562029,76.8108435 48.0562029,77.6421621 C48.0562029,78.4733172 48.7298934,79.1469748 49.5610891,79.1469748 L61.4207561,79.1469748 C62.2521154,79.1469748 62.9258058,78.4733172 62.9258058,77.6421621 C62.9258058,76.8108435 62.2521154,76.1370223 61.4207561,76.1370223 Z" id="light-bulb-18-icon-path" fill="#D63D31" mask="url(#mask-20)"></path>
                    <g id="idea" mask="url(#mask-20)">
                        <g transform="translate(25.569106, 21.959350)">
                            <path d="M35.5811275,59.1883179 L24.2628334,59.1883179 C23.4316378,59.1883179 22.7579473,59.8623026 22.7579473,60.6932942 C22.7579473,61.5246128 23.4316378,62.1982704 24.2628334,62.1982704 L35.5811275,62.1982704 C36.4123232,62.1982704 37.0860136,61.5246128 37.0860136,60.6932942 C37.0860136,59.8623026 36.4123232,59.1883179 35.5811275,59.1883179 Z" id="light-bulb-18-icon-path" fill="#D63D31" fill-rule="evenodd"></path>
                            <path d="M24.3405229,64.1292913 C27.270643,66.8379869 27.5724053,67.3821138 28.7419999,67.3821138 L30.9948313,67.3821138 C32.1380933,67.3821138 32.4200652,66.8777293 35.5031109,64.1292913 L24.3405229,64.1292913 Z M47.0551277,28.0697204 C47.0551277,38.2596296 38.2915908,43.9699367 38.2915908,52.0113051 L34.3008049,52.0113051 C34.3042396,42.1004101 42.9925403,36.8804224 42.9925403,28.0697204 C42.9925403,11.5774574 16.8515842,11.5516167 16.8515842,28.0697204 C16.8515842,36.8724086 25.3892491,41.8676802 25.5869893,52.0113051 L21.5523701,52.0113051 C21.5523701,43.9699367 12.7888333,38.2596296 12.7888333,28.0697204 C12.7886697,6.16987923 47.0551277,6.14763659 47.0551277,28.0697204 Z M32.0903347,7.37801437 L27.9911107,7.37801437 L27.9911107,0 L32.0903347,0 L32.0903347,7.37801437 Z M46.1661965,3.92026521 L42.5542081,1.9822117 L38.9467993,8.70455884 L42.5589512,10.6426124 L46.1661965,3.92026521 Z M56.6487153,14.0720676 L54.2609496,10.740251 L47.7024855,15.4404805 L50.0900876,18.7721336 L56.6487153,14.0720676 Z M57.3726177,39.9289725 L49.9937527,36.9396271 L48.4548468,40.7387027 L55.8338753,43.7278844 L57.3726177,39.9289725 Z M59.8272781,25.4408367 L51.4654368,25.4408367 L51.4654368,29.5396972 L59.8272781,29.5396972 L59.8272781,25.4408367 Z M20.9149893,8.70455884 L17.3075805,1.9822117 L13.6955922,3.92026521 L17.3028374,10.6426124 L20.9149893,8.70455884 Z M12.1594667,15.4404805 L5.60067549,10.740251 L3.21290977,14.0720676 L9.77153743,18.7721336 L12.1594667,15.4404805 Z M11.4780891,40.3802036 L9.79705229,36.6419683 L2.41802372,39.959229 L4.0987334,43.6974644 L11.4780891,40.3802036 Z M8.39667897,25.4408367 L0.0345104847,25.4408367 L0.0345104847,29.5396972 L8.39667897,29.5396972 L8.39667897,25.4408367 Z" id="light-bulb-18-icon" fill="#53B0BD" fill-rule="nonzero"></path>
                        </g>
                    </g>
                </g>
                <g id="Group-3-Copy-2" transform="translate(566.000000, 582.000000)">
                    <mask id="mask-22" fill="white">
                        <use xlink:href="#path-21"></use>
                    </mask>
                    <use id="Oval-7" fill="#E9F3F4" xlink:href="#path-21"></use>
                    <g id="Group-4-Copy" opacity="0.5" mask="url(#mask-22)">
                        <g transform="translate(51.439024, 23.162602)">
                            <rect id="Rectangle" fill="#FFFFFF" x="0" y="0" width="35.796748" height="65.2764228"></rect>
                            <rect id="Rectangle-2" fill="#666666" x="0" y="0" width="35.796748" height="10.2298871"></rect>
                            <rect id="Rectangle-2-Copy" fill="#666666" x="4.87030585" y="20.4597743" width="26.0561363" height="10.2298871"></rect>
                            <rect id="Rectangle-3" fill="#53B0BD" x="4.87030585" y="14.126987" width="14.3674022" height="1.21784371"></rect>
                            <rect id="Rectangle-3-Copy-4" fill="#53B0BD" x="4.87030585" y="40.9195486" width="14.3674022" height="1.21784371"></rect>
                            <rect id="Rectangle-3-Copy" fill="#53B0BD" x="4.87030585" y="17.2933807" width="9.4970964" height="1.21784371"></rect>
                            <rect id="Rectangle-3-Copy-2" fill="#D63D31" x="13.1498258" y="32.6382114" width="9.4970964" height="2.43568742"></rect>
                            <rect id="Rectangle-2-Copy-2" fill="#666666" x="4.87030585" y="44.0859422" width="26.0561363" height="10.2298871"></rect>
                        </g>
                    </g>
                    <g id="Group-4-Copy-2" opacity="0.5" mask="url(#mask-22)">
                        <g transform="translate(23.764228, 22.861789)">
                            <rect id="Rectangle" fill="#FFFFFF" x="0" y="0" width="35.796748" height="65.2764228"></rect>
                            <rect id="Rectangle-2" fill="#666666" x="0" y="0" width="35.796748" height="10.2298871"></rect>
                            <rect id="Rectangle-2-Copy" fill="#666666" x="4.87030585" y="20.4597743" width="26.0561363" height="10.2298871"></rect>
                            <rect id="Rectangle-3" fill="#666666" x="4.87030585" y="14.126987" width="14.3674022" height="1.21784371"></rect>
                            <rect id="Rectangle-3-Copy-4" fill="#666666" x="4.87030585" y="40.9195486" width="14.3674022" height="1.21784371"></rect>
                            <rect id="Rectangle-3-Copy" fill="#666666" x="4.87030585" y="17.2933807" width="9.4970964" height="1.21784371"></rect>
                            <rect id="Rectangle-3-Copy-2" fill="#D63D31" x="13.1498258" y="32.6382114" width="9.4970964" height="2.43568742"></rect>
                            <rect id="Rectangle-2-Copy-2" fill="#666666" x="4.87030585" y="44.0859422" width="26.0561363" height="10.2298871"></rect>
                        </g>
                    </g>
                    <g id="Group-4" mask="url(#mask-22)">
                        <g transform="translate(33.390244, 15.341463)">
                            <rect id="Rectangle" fill="#FFFFFF" x="0" y="0" width="44.2195122" height="80.6178862"></rect>
                            <rect id="Rectangle-2" fill="#3A3A3A" x="0" y="0" width="44.2195122" height="12.6341463"></rect>
                            <rect id="Rectangle-2-Copy" fill="#676767" x="6.01626016" y="25.2682927" width="32.1869919" height="12.6341463"></rect>
                            <rect id="Rectangle-3" fill="#676767" x="6.01626016" y="17.4471545" width="17.7479675" height="1.50406504"></rect>
                            <rect id="Rectangle-3-Copy-4" fill="#676767" x="6.01626016" y="53.5447154" width="17.7479675" height="3.00813008"></rect>
                            <rect id="Rectangle-3-Copy" fill="#676767" x="6.01626016" y="21.3577236" width="11.7317073" height="1.50406504"></rect>
                            <rect id="Rectangle-3-Copy-2" fill="#3B3B3B" x="16.2439024" y="40.3089431" width="11.7317073" height="3.00813008"></rect>
                            <rect id="Rectangle-2-Copy-2" fill="#676767" x="6.01626016" y="58.9593496" width="32.1869919" height="12.6341463"></rect>
                        </g>
                    </g>
                </g>
                <g id="Group-3-Copy-4" transform="translate(0.000000, 260.000000)">
                    <mask id="mask-24" fill="white">
                        <use xlink:href="#path-23"></use>
                    </mask>
                    <use id="Oval-7" fill="#E9F3F4" xlink:href="#path-23"></use>
                    <g id="Group-4" mask="url(#mask-24)">
                        <g transform="translate(34.000000, 15.000000)">
                            <rect id="Rectangle-6" fill="#2F2F2F" x="0" y="0" width="42.3902439" height="79.5985772" rx="3"></rect>
                            <rect id="Rectangle" fill="#FFFFFF" x="1.76626016" y="5.41565041" width="39.0515814" height="71.1960804"></rect>
                            <rect id="Rectangle-2" fill="#026F8B" x="1.76626016" y="5.41565041" width="39.0515814" height="11.1575947"></rect>
                            <rect id="Rectangle-2-Copy" fill="#82B7C4" x="7.07940049" y="27.7308398" width="28.4253007" height="11.1575947"></rect>
                            <rect id="Rectangle-3" fill="#82B7C4" x="7.07940049" y="20.8237574" width="15.673764" height="1.32828508"></rect>
                            <rect id="Rectangle-3-Copy-4" fill="#82B7C4" x="7.07940049" y="52.7025993" width="15.673764" height="2.65657016"></rect>
                            <rect id="Rectangle-3-Copy" fill="#82B7C4" x="7.07940049" y="24.2772986" width="10.3606236" height="1.32828508"></rect>
                            <rect id="Rectangle-3-Copy-2" fill="#D63D31" x="16.111739" y="41.0136906" width="10.3606236" height="2.65657016"></rect>
                            <rect id="Rectangle-3-Copy-3" fill="#D63D31" x="16.111739" y="45.7955169" width="10.3606236" height="2.65657016"></rect>
                            <rect id="Rectangle-2-Copy-2" fill="#82B7C4" x="7.07940049" y="57.4844256" width="28.4253007" height="11.1575947"></rect>
                        </g>
                    </g>
                </g>
                <g id="Group-3-Copy-3" transform="translate(79.000000, 582.000000)">
                    <mask id="mask-26" fill="white">
                        <use xlink:href="#path-25"></use>
                    </mask>
                    <use id="Oval-7" fill="#E9F3F4" xlink:href="#path-25"></use>
                    <g id="Rectangle-4" mask="url(#mask-26)" stroke-linecap="square" stroke-width="6.6" stroke="#FFFFFF">
                        <use mask="url(#mask-28)" xlink:href="#path-27"></use>
                    </g>
                    <rect id="Rectangle-5" fill="#53B0BD" mask="url(#mask-26)" x="35.796748" y="31.2845528" width="28.5772358" height="3.30894309"></rect>
                    <rect id="Rectangle-5-Copy" fill="#53B0BD" mask="url(#mask-26)" x="35.796748" y="44.2195122" width="28.5772358" height="3.30894309"></rect>
                    <g id="close_x" mask="url(#mask-26)">
                        <g transform="translate(26.772358, 43.918699)" id="Group">
                            <g>
                                <polygon id="Shape" stroke="#D63D31" stroke-width="0.9" fill-rule="nonzero" points="4.21138211 0.424146341 3.78723577 0 2.10569106 1.68154472 0.424146341 0 0 0.424146341 1.68154472 2.10569106 0 3.78723577 0.424146341 4.21138211 2.10569106 2.5298374 3.78723577 4.21138211 4.21138211 3.78723577 2.5298374 2.10569106"></polygon>
                                <polygon id="Shape-Copy" stroke="#D63D31" stroke-width="0.9" fill-rule="nonzero" points="4.21138211 26.294065 3.78723577 25.8699187 2.10569106 27.5514634 0.424146341 25.8699187 0 26.294065 1.68154472 27.9756098 0 29.6571545 0.424146341 30.0813008 2.10569106 28.3997561 3.78723577 30.0813008 4.21138211 29.6571545 2.5298374 27.9756098"></polygon>
                            </g>
                        </g>
                    </g>
                    <rect id="Rectangle-5-Copy-2" fill="#53B0BD" mask="url(#mask-26)" x="35.796748" y="57.1544715" width="28.5772358" height="3.30894309"></rect>
                    <rect id="Rectangle-5-Copy-3" fill="#53B0BD" mask="url(#mask-26)" x="35.796748" y="70.0894309" width="28.5772358" height="3.30894309"></rect>
                    <g id="check" mask="url(#mask-26)" stroke-width="0.9" stroke="#026F8B" fill-rule="nonzero">
                        <g transform="translate(26.170732, 30.682927)" id="Shape">
                            <polygon points="5.26422764 0.424146341 1.65447154 4.03390244 0 2.37943089 0.424146341 1.95528455 1.65447154 3.18260163 4.8400813 0"></polygon>
                        </g>
                    </g>
                    <g id="check-copy" mask="url(#mask-26)" stroke-width="0.9" stroke="#026F8B" fill-rule="nonzero">
                        <g transform="translate(26.170732, 56.552846)" id="Shape">
                            <polygon points="5.26422764 0.424146341 1.65447154 4.03390244 0 2.37943089 0.424146341 1.95528455 1.65447154 3.18260163 4.8400813 0"></polygon>
                        </g>
                    </g>
                    <g id="Combined-Shape" mask="url(#mask-26)" stroke="#FFFFFF" stroke-width="5.4" fill="#026F8B" stroke-linecap="square">
                        <use mask="url(#mask-30)" xlink:href="#path-29"></use>
                    </g>
                </g>
                <text id="Research" font-family="Roboto-Regular, Roboto" font-size="18" font-weight="normal" fill-opacity="0.92394135" fill="#032A2F">
                    <tspan x="344" y="146">Research</tspan>
                </text>
                <text id="Ideation" font-family="Roboto-Regular, Roboto" font-size="18" font-weight="normal" fill-opacity="0.92394135" fill="#032A2F">
                    <tspan x="582" y="323">Ideation</tspan>
                </text>
                <text id="Low-Fidelity-Prototy" font-family="Roboto-Regular, Roboto" font-size="18" font-weight="normal" fill-opacity="0.92394135" fill="#032A2F">
                    <tspan x="456.189941" y="609">Low-Fidelity </tspan>
                    <tspan x="465.383301" y="633">Prototype</tspan>
                </text>
                <text id="Usability-Study" font-family="Roboto-Regular, Roboto" font-size="18" font-weight="normal" fill-opacity="0.92394135" fill="#032A2F">
                    <tspan x="199.981934" y="609">Usability Study</tspan>
                </text>
                <text id="High-Fidelity-Protot" font-family="Roboto-Regular, Roboto" font-size="18" font-weight="normal" fill-opacity="0.92394135" fill="#032A2F">
                    <tspan x="125.058594" y="311">High-Fidelity </tspan>
                    <tspan x="136.383301" y="335">Prototype</tspan>
                </text>
                <text id="PROCESS-Copy" font-family="Roboto-Black, Roboto" font-size="30" font-weight="700" fill="#53B0BD">
                    <tspan x="315.888184" y="406">PROCESS</tspan>
                </text>
            </g>
        </g>
    </g>
</svg>