<svg xmlns="http://www.w3.org/2000/svg" xmlns:xlink="http://www.w3.org/1999/xlink" width="190" height="102" viewBox="0 0 190 102">
  <defs>
    <clipPath id="clip-path">
      <rect id="Rectangle_100" data-name="Rectangle 100" width="190" height="102" rx="3" transform="translate(19766 7918)" fill="#fff"/>
    </clipPath>
  </defs>
  <g id="Group_278" data-name="Group 278" transform="translate(-19761 -8706)">
    <g id="Mask_Group_7" data-name="Mask Group 7" transform="translate(-5 788)" clip-path="url(#clip-path)">
      <g id="Group_1317" data-name="Group 1317" transform="translate(19532 7855)">
        <rect id="Rectangle_233" data-name="Rectangle 233" width="190" height="102" rx="4" transform="translate(234 63)" fill="#20bf95"/>
      </g>
      <g id="noun_Water_Pump_2734485" data-name="noun_Water Pump_2734485" transform="translate(19829.893 7941.27)" opacity="0.6">
        <g id="Group_275" data-name="Group 275" transform="translate(-5.893 -4.342)">
          <path id="Path_80" data-name="Path 80" d="M26.3,15.481,30.69,4.492a21.057,21.057,0,0,0-16.175.2L19.182,15.57a9.27,9.27,0,0,0-4.971,5.1l-10.989-4.4a21.1,21.1,0,0,0,.206,16.175L14.3,27.784a9.27,9.27,0,0,0,5.1,4.971l-4.39,10.971a21.1,21.1,0,0,0,16.175-.188L26.514,32.657a9.311,9.311,0,0,0,4.971-5.088l10.989,4.39a21.121,21.121,0,0,0-.2-16.184L31.4,20.452A9.27,9.27,0,0,0,26.3,15.481Zm3.174,11.284a7.139,7.139,0,1,1-3.979-9.281A7.138,7.138,0,0,1,29.474,26.764Z" transform="translate(5.737 10.512)" fill="#fff"/>
          <circle id="Ellipse_3" data-name="Ellipse 3" cx="4.748" cy="4.748" r="4.748" transform="translate(23.837 29.873)" fill="#fff"/>
          <path id="Path_81" data-name="Path 81" d="M73.07,28.772H57.092A28.59,28.59,0,0,0,18.609,9.637l.072-6.643a1.528,1.528,0,0,0-.438-1.082,1.555,1.555,0,0,0-1.073-.447H2.38a1.5,1.5,0,0,0-1.5,1.511v33.11a28.585,28.585,0,0,0,55.847,8.6H73.07a1.5,1.5,0,0,0,1.52-1.493V30.274A1.509,1.509,0,0,0,73.07,28.772ZM29.463,61.658A25.6,25.6,0,0,1,3.891,36.086V4.478H15.649l-.08,7.511a1.469,1.469,0,0,0,.715,1.288,1.492,1.492,0,0,0,1.484.063,25.22,25.22,0,0,1,11.7-2.817,25.568,25.568,0,1,1,0,51.135Zm42.1-19.975H57.5a28.772,28.772,0,0,0,.554-5.6,28.394,28.394,0,0,0-.322-4.3H71.577v9.9Z" transform="translate(-0.878 -1.465)" fill="#fff"/>
        </g>
      </g>
    </g>
  </g>
</svg>
