<?xml version="1.0" encoding="UTF-8"?>
<svg width="210px" height="161px" viewBox="0 0 210 161" version="1.1" xmlns="http://www.w3.org/2000/svg" xmlns:xlink="http://www.w3.org/1999/xlink">
    <!-- Generator: Sketch 42 (36781) - http://www.bohemiancoding.com/sketch -->
    <title>recommendation_icon</title>
    <desc>Created with Sketch.</desc>
    <defs></defs>
    <g id="Poster" stroke="none" stroke-width="1" fill="none" fill-rule="evenodd">
        <g id="Desktop-HD-Copy" transform="translate(-1005.000000, -6472.000000)">
            <g id="recommendation_icon" transform="translate(1005.000000, 6472.000000)">
                <rect id="Rectangle-9" fill="#026F8B" x="0" y="0" width="210" height="160.391061"></rect>
                <text id="Recommendations" font-family="Roboto-Regular, Roboto" font-size="24" font-weight="normal" fill="#FFFFFF">
                    <tspan x="3.36523438" y="137">Recommendations</tspan>
                </text>
                <g id="document_icon" transform="translate(79.000000, 8.000000)" fill-rule="nonzero" fill="#F6F6F6">
                    <g id="Group">
                        <g id="Shape">
                            <path d="M7.2998125,0.912545455 C3.4949375,0.912545455 0.395375,4.01290909 0.395375,7.82345455 L0.395375,76.1689091 C0.395375,79.9794545 3.491125,83.0836364 7.2998125,83.0836364 L51.7001875,83.0836364 C55.5050625,83.0836364 58.6008125,79.9832727 58.6008125,76.1689091 L58.6008125,24.7914545 C58.6008125,22.9472727 57.8840625,21.21 56.5801875,19.9041818 L39.6450625,2.94 C38.3411875,1.63418182 36.6065,0.916363636 34.7650625,0.916363636 L7.2998125,0.916363636 L7.2998125,0.912545455 Z M38.3755,5.29581818 L54.227875,21.1718182 L41.5894375,21.1718182 C39.816625,21.1718182 38.3755,19.7285455 38.3755,17.9530909 L38.3755,5.29581818 L38.3755,5.29581818 Z M41.5894375,23.7414545 L55.89775,23.7414545 C55.981625,24.0812727 56.0388125,24.4287273 56.0388125,24.7914545 L56.0388125,76.1727273 C56.0388125,78.5705455 54.0944375,80.5178182 51.7001875,80.5178182 L7.2998125,80.5178182 C4.9055625,80.5178182 2.9611875,78.5667273 2.9611875,76.1727273 L2.9611875,7.82727273 C2.9611875,5.42945455 4.909375,3.48218182 7.2998125,3.48218182 L34.7650625,3.48218182 C35.1234375,3.48218182 35.470375,3.53945455 35.8096875,3.62345455 L35.8096875,17.9530909 C35.8096875,21.1450909 38.4021875,23.7414545 41.5894375,23.7414545 Z"></path>
                            <path d="M45.748875,47.964 L13.251125,47.964 C12.542,47.964 11.970125,48.5367273 11.970125,49.2469091 C11.970125,49.9570909 12.542,50.5298182 13.251125,50.5298182 L45.7450625,50.5298182 C46.4541875,50.5298182 47.0260625,49.9570909 47.0260625,49.2469091 C47.029875,48.5367273 46.458,47.964 45.748875,47.964 Z"></path>
                            <path d="M11.970125,36.4636364 C11.970125,37.1738182 12.542,37.7465455 13.251125,37.7465455 L45.7450625,37.7465455 C46.4541875,37.7465455 47.0260625,37.1738182 47.0260625,36.4636364 C47.0260625,35.7534545 46.4541875,35.1807273 45.7450625,35.1807273 L13.251125,35.1807273 C12.5458125,35.1807273 11.970125,35.7572727 11.970125,36.4636364 Z"></path>
                            <path d="M45.748875,60.7434545 L13.251125,60.7434545 C12.542,60.7434545 11.970125,61.3161818 11.970125,62.0263636 C11.970125,62.7365455 12.542,63.3092727 13.251125,63.3092727 L45.7450625,63.3092727 C46.4541875,63.3092727 47.0260625,62.7365455 47.0260625,62.0263636 C47.0260625,61.3161818 46.458,60.7434545 45.748875,60.7434545 Z"></path>
                        </g>
                    </g>
                </g>
            </g>
        </g>
    </g>
</svg>