<?xml version="1.0" encoding="UTF-8"?>
<svg width="210px" height="161px" viewBox="0 0 210 161" version="1.1" xmlns="http://www.w3.org/2000/svg" xmlns:xlink="http://www.w3.org/1999/xlink">
    <!-- Generator: Sketch 42 (36781) - http://www.bohemiancoding.com/sketch -->
    <title>sketching_icon</title>
    <desc>Created with Sketch.</desc>
    <defs></defs>
    <g id="Poster" stroke="none" stroke-width="1" fill="none" fill-rule="evenodd">
        <g id="Desktop-HD-Copy" transform="translate(-281.000000, -4389.000000)">
            <g id="sketching_icon" transform="translate(281.000000, 4389.000000)">
                <rect id="Rectangle-9" fill="#026F8B" x="0" y="0" width="210" height="160.391061"></rect>
                <text id="Sketching" font-family="Roboto-Regular, Roboto" font-size="24" font-weight="normal" fill="#FFFFFF">
                    <tspan x="51.1347656" y="128">Sketching</tspan>
                </text>
                <g id="Group" transform="translate(80.000000, 31.000000)" fill-rule="nonzero" fill="#F6F6F6">
                    <polygon id="Shape" points="1.69801061 43.8822222 5.69655172 47.9655556 12.4885942 46.3322222 3.39602122 37.3488889"></polygon>
                    <path d="M0.931167109,48.9455556 L3.83421751,48.1833333 L1.3693634,45.6788889 L0.547745358,48.5644444 C0.492970822,48.7277778 0.602519894,48.8366667 0.602519894,48.8366667 C0.65729443,48.9455556 0.766843501,49 0.931167109,48.9455556 Z" id="Shape"></path>
                    <path d="M16.8157825,44.8077778 L39.3828912,22.3222222 C38.8351459,22.1588889 38.3421751,21.8322222 37.9039788,21.3966667 L36.5346154,20.0355556 L12.8720159,43.61 L14.0770557,44.8077778 C14.8438992,45.57 16.048939,45.57 16.8157825,44.8077778 Z" id="Shape"></path>
                    <rect id="Rectangle-path" transform="translate(21.343210, 28.464764) rotate(45.000000) translate(-21.343210, -28.464764) " x="18.7962186" y="11.832146" width="5.09398298" height="33.2652365"></rect>
                    <path d="M6.07997347,36.8588889 L29.7425729,13.3388889 L28.4279841,12.0322222 C27.9897878,11.5966667 27.7159151,11.1066667 27.496817,10.5622222 L4.92970822,32.9933333 C4.16286472,33.7555556 4.16286472,34.9533333 4.92970822,35.7155556 L6.07997347,36.8588889 Z" id="Shape"></path>
                    <path d="M32.2074271,8.16666667 C31.8240053,7.78555556 31.5501326,7.35 31.385809,6.86 L30.0164456,8.22111111 C29.4139257,8.82 29.4139257,9.85444444 30.0164456,10.4533333 L39.4924403,19.8722222 C40.0949602,20.4711111 41.1356764,20.4711111 41.7381963,19.8722222 L43.1623342,18.4566667 C42.6145889,18.2933333 42.121618,17.9666667 41.6834218,17.5855556 L32.2074271,8.16666667 Z" id="Shape"></path>
                    <path d="M33.7958886,6.58777778 L43.2718833,16.0066667 C43.8744032,16.6055556 44.9151194,16.6055556 45.5176393,16.0066667 L49.3518568,12.1955556 C49.9543767,11.5966667 49.9543767,10.5622222 49.3518568,9.96333333 L49.2970822,9.8 L40.1497347,0.707777778 L39.9306366,0.49 C39.3281167,-0.108888889 38.2874005,-0.108888889 37.6848806,0.49 L33.8506631,4.30111111 C33.1933687,4.95444444 33.1933687,5.93444444 33.7958886,6.58777778 Z M39.6567639,5.33555556 C39.9854111,5.00888889 40.5331565,5.00888889 40.8618037,5.33555556 L44.367374,8.82 C44.6960212,9.14666667 44.6960212,9.69111111 44.367374,10.0177778 L43.4909814,10.8888889 C43.1623342,11.2155556 42.6145889,11.2155556 42.2859416,10.8888889 L38.7803714,7.40444444 C38.4517241,7.07777778 38.4517241,6.53333333 38.7803714,6.20666667 L39.6567639,5.33555556 Z" id="Shape"></path>
                </g>
            </g>
        </g>
    </g>
</svg>