<?xml version="1.0" encoding="UTF-8"?>
<svg width="210px" height="161px" viewBox="0 0 210 161" version="1.1" xmlns="http://www.w3.org/2000/svg" xmlns:xlink="http://www.w3.org/1999/xlink">
    <!-- Generator: Sketch 42 (36781) - http://www.bohemiancoding.com/sketch -->
    <title>usability_icon</title>
    <desc>Created with Sketch.</desc>
    <defs>
        <rect id="path-1" x="0" y="0" width="44.2195122" height="80.6178862"></rect>
        <mask id="mask-2" maskContentUnits="userSpaceOnUse" maskUnits="objectBoundingBox" x="0" y="0" width="44.2195122" height="80.6178862" fill="white">
            <use xlink:href="#path-1"></use>
        </mask>
        <path d="M111.333139,62.32672 C100.12474,65.8711492 92,76.3551227 92,88.7369575 L147.381233,88.7369575 C147.381233,76.4105832 139.329114,65.9651064 128.198521,62.3747656 C131.383557,59.8787341 133.430235,55.996188 133.430235,51.6355573 C133.430235,44.104847 127.326117,38 119.796306,38 C112.266494,38 106.162376,44.104847 106.162376,51.6355573 C106.162376,55.9683079 108.182967,59.8290678 111.333139,62.32672 Z" id="path-3"></path>
        <mask id="mask-4" maskContentUnits="userSpaceOnUse" maskUnits="objectBoundingBox" x="0" y="0" width="55.3812329" height="50.7369575" fill="white">
            <use xlink:href="#path-3"></use>
        </mask>
    </defs>
    <g id="Poster" stroke="none" stroke-width="1" fill="none" fill-rule="evenodd">
        <g id="Desktop-HD-Copy" transform="translate(-621.000000, -6472.000000)">
            <g id="usability_icon" transform="translate(621.000000, 6472.000000)">
                <rect id="Rectangle-9" fill="#026F8B" x="0" y="0" width="210" height="160.391061"></rect>
                <g id="Group-4" transform="translate(69.000000, 8.000000)">
                    <use id="Rectangle" stroke="#CBCBCB" mask="url(#mask-2)" stroke-width="2" stroke-linecap="square" xlink:href="#path-1"></use>
                    <rect id="Rectangle-2" fill="#FFFFFF" x="0" y="0" width="44.2195122" height="12.6341463"></rect>
                    <rect id="Rectangle-2-Copy" fill="#EBEBEB" x="6.01626016" y="25.2682927" width="32.1869919" height="12.6341463"></rect>
                    <rect id="Rectangle-3" fill="#EBEBEB" x="6.01626016" y="17.4471545" width="17.7479675" height="1.50406504"></rect>
                    <rect id="Rectangle-3-Copy-4" fill="#EBEBEB" x="6.01626016" y="53.5447154" width="17.7479675" height="3.00813008"></rect>
                    <rect id="Rectangle-3-Copy" fill="#EBEBEB" x="6.01626016" y="21.3577236" width="11.7317073" height="1.50406504"></rect>
                    <rect id="Rectangle-3-Copy-2" fill="#D9D9D9" x="16.2439024" y="40.3089431" width="11.7317073" height="3.00813008"></rect>
                    <rect id="Rectangle-2-Copy-2" fill="#EBEBEB" x="6.01626016" y="58.9593496" width="32.1869919" height="12.6341463"></rect>
                </g>
                <use id="Combined-Shape" stroke="#FFFFFF" mask="url(#mask-4)" stroke-width="5.4" stroke-linecap="square" fill="#026F8B" xlink:href="#path-3"></use>
                <text id="Usability-Sudy" font-family="Roboto-Regular, Roboto" font-size="24" font-weight="normal" fill="#FFFFFF">
                    <tspan x="29.2910156" y="140.736957">Usability Sudy</tspan>
                </text>
            </g>
        </g>
    </g>
</svg>