<?xml version="1.0" encoding="UTF-8"?>
<svg width="263px" height="93px" viewBox="0 0 263 93" version="1.1" xmlns="http://www.w3.org/2000/svg" xmlns:xlink="http://www.w3.org/1999/xlink">
    <!-- Generator: Sketch 42 (36781) - http://www.bohemiancoding.com/sketch -->
    <title>userneed6</title>
    <desc>Created with Sketch.</desc>
    <defs></defs>
    <g id="Poster" stroke="none" stroke-width="1" fill="none" fill-rule="evenodd">
        <g id="Desktop-HD-Copy" transform="translate(-589.000000, -5134.000000)">
            <g id="Group-9" transform="translate(248.000000, 4987.000000)">
                <g id="userneed6" transform="translate(341.250000, 147.000000)">
                    <rect id="Rectangle-2" fill="#FFFFFF" x="0" y="0" width="262.5" height="93"></rect>
                    <g id="clockicon" transform="translate(13.500000, 9.000000)" fill-rule="nonzero" fill="#026F8B">
                        <g id="Clock_5pm">
                            <path d="M20.25,8.05325955e-16 C9.06623382,-1.7448729e-15 1.34220993e-15,9.06623382 0,20.25 C-1.34220993e-15,31.4337662 9.06623382,40.5 20.25,40.5 C31.4337662,40.5 40.5,31.4337662 40.5,20.25 C40.4866767,9.07175716 31.4282428,0.0133233072 20.25,0 L20.25,8.05325955e-16 Z M20.25,39.2910448 C9.73392135,39.2910448 1.20895522,30.7660787 1.20895522,20.25 C1.20895522,9.73392135 9.73392135,1.20895522 20.25,1.20895522 C30.7660787,1.20895522 39.2910448,9.73392135 39.2910448,20.25 C39.279385,30.7612452 30.7612452,39.279385 20.25,39.2910448 Z" id="Shape"></path>
                            <path d="M36.948694,19.6455224 L34.6365672,19.6455224 C34.3027234,19.6455224 34.0320896,19.9161562 34.0320896,20.25 C34.0320896,20.5838438 34.3027234,20.8544776 34.6365672,20.8544776 L36.948694,20.8544776 C37.2825378,20.8544776 37.5531716,20.5838438 37.5531716,20.25 C37.5531716,19.9161562 37.2825378,19.6455224 36.948694,19.6455224 Z" id="Shape"></path>
                            <path d="M12.4250373,5.48563433 C12.2512524,5.21225776 11.8928572,5.12447092 11.6124016,5.28658394 C11.3319461,5.44869697 11.2291378,5.80307548 11.379291,6.09011194 L12.5368657,8.09395522 C12.7106506,8.36733179 13.0690458,8.45511863 13.3495013,8.29300561 C13.6299569,8.13089259 13.7327652,7.77651407 13.5826119,7.48947761 L12.4250373,5.48563433 Z" id="Shape"></path>
                            <path d="M8.09395522,12.5338433 L6.09313433,11.3762687 C5.80609787,11.2261154 5.45171935,11.3289237 5.28960633,11.6093793 C5.12749331,11.8898348 5.21528015,12.24823 5.48865672,12.4220149 L7.4925,13.5795896 C7.68012901,13.704492 7.92166688,13.7146262 8.11909907,13.6058797 C8.31653125,13.4971332 8.43705959,13.2875713 8.43177445,13.062233 C8.4264893,12.8368948 8.29626865,12.6332141 8.09395522,12.5338433 L8.09395522,12.5338433 Z" id="Shape"></path>
                            <path d="M6.46791045,20.25 C6.46791045,19.9161562 6.1972766,19.6455224 5.86343284,19.6455224 L3.55130597,19.6455224 C3.2174622,19.6455224 2.94682836,19.9161562 2.94682836,20.25 C2.94682836,20.5838438 3.2174622,20.8544776 3.55130597,20.8544776 L5.86343284,20.8544776 C6.1972766,20.8544776 6.46791045,20.5838438 6.46791045,20.25 Z" id="Shape"></path>
                            <path d="M7.48947761,26.9204104 L5.48563433,28.0779851 C5.21225776,28.25177 5.12447092,28.6101652 5.28658394,28.8906207 C5.44869697,29.1710763 5.80307548,29.2738846 6.09011194,29.1237313 L8.09395522,27.9661567 C8.36733179,27.7923718 8.45511863,27.4339766 8.29300561,27.153521 C8.13089259,26.8730655 7.77651407,26.7702572 7.48947761,26.9204104 L7.48947761,26.9204104 Z" id="Shape"></path>
                            <path d="M13.3589552,32.1854104 C13.0701385,32.0188061 12.70096,32.1175242 12.5338433,32.4060448 L11.3762687,34.4098881 C11.2261154,34.6969245 11.3289237,35.051303 11.6093793,35.2134161 C11.8898348,35.3755291 12.24823,35.2877422 12.4220149,35.0143657 L13.5795896,33.0135448 C13.6605638,32.8745658 13.6828081,32.7090452 13.6413989,32.5536191 C13.5999898,32.398193 13.4983424,32.26568 13.3589552,32.1854104 Z" id="Shape"></path>
                            <path d="M20.25,34.0320896 C19.9161562,34.0320896 19.6455224,34.3027234 19.6455224,34.6365672 L19.6455224,36.948694 C19.6455224,37.2825378 19.9161562,37.5531716 20.25,37.5531716 C20.5838438,37.5531716 20.8544776,37.2825378 20.8544776,36.948694 L20.8544776,34.6365672 C20.8544776,34.3027234 20.5838438,34.0320896 20.25,34.0320896 Z" id="Shape"></path>
                            <path d="M27.9661567,32.4060448 C27.8632366,32.2093004 27.6607375,32.0848178 27.4387198,32.0818127 C27.2167021,32.0788076 27.010908,32.1977638 26.9027005,32.3916505 C26.7944931,32.5855372 26.8012925,32.8231409 26.9204104,33.0105224 L28.0779851,35.0143657 C28.25177,35.2877422 28.6101652,35.3755291 28.8906207,35.2134161 C29.1710763,35.051303 29.2738846,34.6969245 29.1237313,34.4098881 L27.9661567,32.4060448 Z" id="Shape"></path>
                            <path d="M35.0143657,28.0749627 L33.0135448,26.9173881 C32.8261633,26.7982701 32.5885595,26.7914707 32.3946728,26.8996781 C32.2007861,27.0078856 32.08183,27.2136797 32.0848351,27.4356974 C32.0878402,27.6577152 32.2123228,27.8602142 32.4090672,27.9631343 L34.4129104,29.120709 C34.6005395,29.2456114 34.8420773,29.2557456 35.0395095,29.1469991 C35.2369417,29.0382526 35.35747,28.8286907 35.3521849,28.6033524 C35.3468997,28.3780142 35.2166791,28.1743335 35.0143657,28.0749627 L35.0143657,28.0749627 Z" id="Shape"></path>
                            <path d="M32.711306,13.661194 C32.8174703,13.6610056 32.9217126,13.6328602 33.0135448,13.5795896 L35.0173881,12.4220149 C35.2907646,12.24823 35.3785515,11.8898348 35.2164384,11.6093793 C35.0543254,11.3289237 34.6999469,11.2261154 34.4129104,11.3762687 L32.4090672,12.5338433 C32.1727819,12.6709074 32.0577807,12.9494038 32.1285164,13.2132479 C32.1992521,13.4770921 32.4381448,13.6607108 32.711306,13.661194 Z" id="Shape"></path>
                            <path d="M28.903097,5.265 C28.6142803,5.09839569 28.2451018,5.19711374 28.0779851,5.48563433 L26.9204104,7.48947761 C26.7702572,7.77651407 26.8730655,8.13089259 27.153521,8.29300561 C27.4339766,8.45511863 27.7923718,8.36733179 27.9661567,8.09395522 L29.1237313,6.09313433 C29.2047056,5.95415533 29.2269498,5.78863472 29.1855407,5.63320864 C29.1441316,5.47778255 29.0424842,5.34526959 28.903097,5.265 Z" id="Shape"></path>
                            <path d="M21.8639552,21.8367537 C22.4262913,21.2649831 22.6441455,20.4383661 22.4366593,19.6637094 C22.2291731,18.8890528 21.6273177,18.2819891 20.8544776,18.0678358 L20.8544776,5.8725 L20.8544776,5.8725 L20.8544776,3.55130597 C20.8544776,3.2174622 20.5838438,2.94682836 20.25,2.94682836 L20.25,2.94682836 C19.9161562,2.94682836 19.6455224,3.2174622 19.6455224,3.55130597 L19.6455224,18.0587687 C18.4378426,18.3825971 17.7213395,19.6241299 18.0451679,20.8318097 C18.3689964,22.0394895 19.6105291,22.7559926 20.818209,22.4321642 L24.8651866,29.4410821 C24.9681067,29.6378265 25.1706057,29.762309 25.3926235,29.7653141 C25.6146412,29.7683192 25.8204353,29.6493631 25.9286428,29.4554764 C26.0368502,29.2615897 26.0300508,29.0239859 25.9109328,28.8366045 L21.8639552,21.8367537 Z M19.1921642,20.25 C19.1921642,19.6657734 19.6657734,19.1921642 20.25,19.1921642 C20.8342266,19.1921642 21.3078358,19.6657734 21.3078358,20.25 C21.3078358,20.8342266 20.8342266,21.3078358 20.25,21.3078358 C19.6657734,21.3078358 19.1921642,20.8342266 19.1921642,20.25 Z" id="Shape"></path>
                        </g>
                    </g>
                    <text id="User-Need-6" font-family="Roboto-MediumItalic, Roboto" font-size="13.5" font-style="italic" font-weight="500" fill="#032A2F">
                        <tspan x="72" y="20">User Need 6</tspan>
                    </text>
                    <text id="I-want-to-be-able-to" font-family="Roboto-Italic, Roboto" font-size="13.5" font-style="italic" font-weight="normal" fill="#032A2F">
                        <tspan x="72" y="44">I want to be able to control when</tspan>
                        <tspan x="72" y="62">water gets pumped up to the </tspan>
                        <tspan x="72" y="80">overhead tank</tspan>
                    </text>
                </g>
            </g>
        </g>
    </g>
</svg>