<?xml version="1.0" encoding="UTF-8"?>
<svg width="350px" height="124px" viewBox="0 0 350 124" version="1.1" xmlns="http://www.w3.org/2000/svg" xmlns:xlink="http://www.w3.org/1999/xlink">
    <!-- Generator: Sketch 42 (36781) - http://www.bohemiancoding.com/sketch -->
    <title>userneed5</title>
    <desc>Created with Sketch.</desc>
    <defs></defs>
    <g id="Poster" stroke="none" stroke-width="1" fill="none" fill-rule="evenodd">
        <g id="Artboard-5" transform="translate(-1556.000000, -1686.000000)">
            <g id="userneed5" transform="translate(1556.000000, 1686.000000)">
                <rect id="Rectangle-2" fill="#FFFFFF" x="0" y="0" width="350" height="124"></rect>
                <text id="User-Need-5" font-family="Roboto-MediumItalic, Roboto" font-size="18" font-style="italic" font-weight="500" fill="#032A2F">
                    <tspan x="101" y="26">User Need 5</tspan>
                </text>
                <text id="I-want-to-be-able-to" font-family="Roboto-Italic, Roboto" font-size="18" font-style="italic" font-weight="normal" fill="#032A2F">
                    <tspan x="101" y="58">I want to be able to control how</tspan>
                    <tspan x="101" y="82">much water gets pumped up to</tspan>
                    <tspan x="101" y="106">the overhead tank</tspan>
                </text>
                <g id="Group-3" transform="translate(18.000000, 14.000000)">
                    <g id="Group-Copy" transform="translate(36.622143, 0.000000)">
                        <path d="M2.80331752e-14,30.6509539 L21.9080509,30.6509539 L21.9080509,2.99475028 C21.9080509,1.34079537 20.570583,2.86042426e-13 18.9077662,2.57457199e-13 L3.00028474,-1.60058458e-14 C1.34327323,-4.44912736e-14 -4.48753425e-15,1.33674214 -2.64816699e-15,2.99475028 L2.80331752e-14,30.6509539 Z" id="Path-38" stroke="#026F8B" stroke-linecap="square"></path>
                        <rect id="Rectangle" fill="#026F8B" x="1.68492315" y="21.9761556" width="18.5341547" height="6.93983862"></rect>
                    </g>
                    <g id="Group-Copy-2" transform="translate(0.000000, 31.009259)">
                        <path d="M2.92688139e-14,30.6417989 L22.7194602,30.6417989 L22.7194602,2.9938558 C22.7194602,1.3403949 21.3830745,2.88554146e-13 19.7259248,2.61091969e-13 L2.99353536,-1.6196099e-14 C1.34025143,-4.35942125e-14 -4.45636624e-15,1.33634287 -2.54887427e-15,2.9938558 L2.92688139e-14,30.6417989 Z" id="Path-38" stroke="#026F8B" stroke-linecap="square"></path>
                        <rect id="Rectangle" fill="#026F8B" x="1.74732771" y="6.41416083" width="19.2206048" height="22.4931966"></rect>
                    </g>
                    <polyline id="Path-39" stroke="#026F8B" stroke-linecap="square" points="23.2207143 54.3279055 29.9446547 54.3279055 29.9446547 27.4044056 36.6221516 27.4044056"></polyline>
                </g>
            </g>
        </g>
    </g>
</svg>