<?xml version="1.0" encoding="UTF-8"?>
<svg width="350px" height="124px" viewBox="0 0 350 124" version="1.1" xmlns="http://www.w3.org/2000/svg" xmlns:xlink="http://www.w3.org/1999/xlink">
    <!-- Generator: Sketch 42 (36781) - http://www.bohemiancoding.com/sketch -->
    <title>userneed6</title>
    <desc>Created with Sketch.</desc>
    <defs></defs>
    <g id="Poster" stroke="none" stroke-width="1" fill="none" fill-rule="evenodd">
        <g id="Artboard-5" transform="translate(-856.000000, -1686.000000)">
            <g id="userneed6" transform="translate(856.000000, 1686.000000)">
                <rect id="Rectangle-2" fill="#FFFFFF" x="0" y="0" width="350" height="124"></rect>
                <g id="clockicon" transform="translate(18.000000, 12.000000)" fill-rule="nonzero" fill="#026F8B">
                    <g id="Clock_5pm">
                        <path d="M27,1.07376794e-15 C12.0883118,-2.3264972e-15 1.78961323e-15,12.0883118 0,27 C-1.78961323e-15,41.9116882 12.0883118,54 27,54 C41.9116882,54 54,41.9116882 54,27 C53.9822356,12.0956762 41.9043238,0.0177644096 27,0 L27,1.07376794e-15 Z M27,52.3880597 C12.9785618,52.3880597 1.6119403,41.0214382 1.6119403,27 C1.6119403,12.9785618 12.9785618,1.6119403 27,1.6119403 C41.0214382,1.6119403 52.3880597,12.9785618 52.3880597,27 C52.3725134,41.0149937 41.0149937,52.3725134 27,52.3880597 Z" id="Shape"></path>
                        <path d="M49.2649254,26.1940299 L46.1820896,26.1940299 C45.7369645,26.1940299 45.3761194,26.554875 45.3761194,27 C45.3761194,27.445125 45.7369645,27.8059701 46.1820896,27.8059701 L49.2649254,27.8059701 C49.7100504,27.8059701 50.0708955,27.445125 50.0708955,27 C50.0708955,26.554875 49.7100504,26.1940299 49.2649254,26.1940299 Z" id="Shape"></path>
                        <path d="M16.5667164,7.3141791 C16.3350032,6.94967701 15.8571429,6.8326279 15.4832022,7.04877859 C15.1092615,7.26492929 14.9721837,7.73743398 15.1723881,8.12014925 L16.7158209,10.7919403 C16.9475341,11.1564424 17.4253944,11.2734915 17.7993351,11.0573408 C18.1732758,10.8411901 18.3103536,10.3686854 18.1101493,9.98597015 L16.5667164,7.3141791 Z" id="Shape"></path>
                        <path d="M10.7919403,16.711791 L8.1241791,15.1683582 C7.74146383,14.9681538 7.26895914,15.1052316 7.05280844,15.4791723 C6.83665775,15.853113 6.95370686,16.3309734 7.31820896,16.5626866 L9.99,18.1061194 C10.240172,18.272656 10.5622225,18.2861683 10.8254654,18.1411729 C11.0887083,17.9961775 11.2494128,17.7167618 11.2423659,17.4163107 C11.2353191,17.1158597 11.0616915,16.8442854 10.7919403,16.711791 L10.7919403,16.711791 Z" id="Shape"></path>
                        <path d="M8.6238806,27 C8.6238806,26.554875 8.26303547,26.1940299 7.81791045,26.1940299 L4.73507463,26.1940299 C4.2899496,26.1940299 3.92910448,26.554875 3.92910448,27 C3.92910448,27.445125 4.2899496,27.8059701 4.73507463,27.8059701 L7.81791045,27.8059701 C8.26303547,27.8059701 8.6238806,27.445125 8.6238806,27 Z" id="Shape"></path>
                        <path d="M9.98597015,35.8938806 L7.3141791,37.4373134 C6.94967701,37.6690266 6.8326279,38.146887 7.04877859,38.5208277 C7.26492929,38.8947684 7.73743398,39.0318462 8.12014925,38.8316418 L10.7919403,37.288209 C11.1564424,37.0564958 11.2734915,36.5786354 11.0573408,36.2046947 C10.8411901,35.830754 10.3686854,35.6936762 9.98597015,35.8938806 L9.98597015,35.8938806 Z" id="Shape"></path>
                        <path d="M17.8119403,42.9138806 C17.4268513,42.6917415 16.9346133,42.8233656 16.711791,43.2080597 L15.1683582,45.8798507 C14.9681538,46.262566 15.1052316,46.7350707 15.4791723,46.9512214 C15.853113,47.1673721 16.3309734,47.050323 16.5626866,46.6858209 L18.1061194,44.0180597 C18.214085,43.8327544 18.2437441,43.6120602 18.1885319,43.4048254 C18.1333197,43.1975907 17.9977898,43.0209067 17.8119403,42.9138806 Z" id="Shape"></path>
                        <path d="M27,45.3761194 C26.554875,45.3761194 26.1940299,45.7369645 26.1940299,46.1820896 L26.1940299,49.2649254 C26.1940299,49.7100504 26.554875,50.0708955 27,50.0708955 C27.445125,50.0708955 27.8059701,49.7100504 27.8059701,49.2649254 L27.8059701,46.1820896 C27.8059701,45.7369645 27.445125,45.3761194 27,45.3761194 Z" id="Shape"></path>
                        <path d="M37.288209,43.2080597 C37.1509822,42.9457338 36.8809834,42.7797571 36.5849598,42.7757503 C36.2889361,42.7717435 36.014544,42.9303517 35.8702674,43.1888673 C35.7259908,43.4473829 35.7350566,43.7641879 35.8938806,44.0140299 L37.4373134,46.6858209 C37.6690266,47.050323 38.146887,47.1673721 38.5208277,46.9512214 C38.8947684,46.7350707 39.0318462,46.262566 38.8316418,45.8798507 L37.288209,43.2080597 Z" id="Shape"></path>
                        <path d="M46.6858209,37.4332836 L44.0180597,35.8898507 C43.7682178,35.7310268 43.4514127,35.7219609 43.1928971,35.8662375 C42.9343815,36.0105141 42.7757733,36.2849063 42.7797801,36.5809299 C42.7837869,36.8769535 42.9497637,37.1469523 43.2120896,37.2841791 L45.8838806,38.8276119 C46.1340526,38.9941486 46.4561031,39.0076608 46.719346,38.8626654 C46.9825889,38.7176701 47.1432934,38.4382543 47.1362465,38.1378033 C47.1291997,37.8373522 46.9555721,37.5657779 46.6858209,37.4332836 L46.6858209,37.4332836 Z" id="Shape"></path>
                        <path d="M43.6150746,18.2149254 C43.7566271,18.2146742 43.8956169,18.1771469 44.0180597,18.1061194 L46.6898507,16.5626866 C47.0543528,16.3309734 47.171402,15.853113 46.9552513,15.4791723 C46.7391006,15.1052316 46.2665959,14.9681538 45.8838806,15.1683582 L43.2120896,16.711791 C42.8970426,16.8945432 42.7437076,17.2658717 42.8380218,17.6176639 C42.9323361,17.9694561 43.2508597,18.214281 43.6150746,18.2149254 Z" id="Shape"></path>
                        <path d="M38.5374627,7.02 C38.1523737,6.79786092 37.6601357,6.92948499 37.4373134,7.3141791 L35.8938806,9.98597015 C35.6936762,10.3686854 35.830754,10.8411901 36.2046947,11.0573408 C36.5786354,11.2734915 37.0564958,11.1564424 37.288209,10.7919403 L38.8316418,8.1241791 C38.9396074,7.93887377 38.9692665,7.71817963 38.9140543,7.51094485 C38.8588421,7.30371007 38.7233122,7.12702612 38.5374627,7.02 Z" id="Shape"></path>
                        <path d="M29.1519403,29.1156716 C29.9017217,28.3533108 30.192194,27.2511548 29.9155457,26.2182793 C29.6388974,25.1854037 28.8364236,24.3759855 27.8059701,24.0904478 L27.8059701,7.83 L27.8059701,7.83 L27.8059701,4.73507463 C27.8059701,4.2899496 27.445125,3.92910448 27,3.92910448 L27,3.92910448 C26.554875,3.92910448 26.1940299,4.2899496 26.1940299,4.73507463 L26.1940299,24.0783582 C24.5837901,24.5101295 23.6284527,26.1655065 24.0602239,27.7757463 C24.4919952,29.385986 26.1473722,30.3413235 27.7576119,29.9095522 L33.1535821,39.2547761 C33.2908089,39.517102 33.5608076,39.6830787 33.8568313,39.6870855 C34.1528549,39.6910923 34.4272471,39.5324841 34.5715237,39.2739685 C34.7158003,39.0154529 34.7067344,38.6986479 34.5479104,38.448806 L29.1519403,29.1156716 Z M25.5895522,27 C25.5895522,26.2210312 26.2210312,25.5895522 27,25.5895522 C27.7789688,25.5895522 28.4104478,26.2210312 28.4104478,27 C28.4104478,27.7789688 27.7789688,28.4104478 27,28.4104478 C26.2210312,28.4104478 25.5895522,27.7789688 25.5895522,27 Z" id="Shape"></path>
                    </g>
                </g>
                <text id="User-Need-6" font-family="Roboto-MediumItalic, Roboto" font-size="18" font-style="italic" font-weight="500" fill="#032A2F">
                    <tspan x="96" y="27">User Need 6</tspan>
                </text>
                <text id="I-want-to-be-able-to" font-family="Roboto-Italic, Roboto" font-size="18" font-style="italic" font-weight="normal" fill="#032A2F">
                    <tspan x="96" y="59">I want to be able to control when</tspan>
                    <tspan x="96" y="83">water gets pumped up to the </tspan>
                    <tspan x="96" y="107">overhead tank</tspan>
                </text>
            </g>
        </g>
    </g>
</svg>