<?xml version="1.0" encoding="UTF-8"?>
<svg width="264px" height="93px" viewBox="0 0 264 93" version="1.1" xmlns="http://www.w3.org/2000/svg" xmlns:xlink="http://www.w3.org/1999/xlink">
    <!-- Generator: Sketch 53.2 (72643) - https://sketchapp.com -->
    <title>userneed2</title>
    <desc>Created with Sketch.</desc>
    <g id="Poster" stroke="none" stroke-width="1" fill="none" fill-rule="evenodd">
        <g id="Desktop-HD-Copy-2" transform="translate(-248.000000, -4987.000000)">
            <g id="Group-9" transform="translate(248.000000, 4987.000000)">
                <g id="userneed2">
                    <rect id="Rectangle-2" fill="#FFFFFF" x="0" y="0" width="262.5" height="93"></rect>
                    <path d="M79.826416,10.362793 L79.826416,16.5986328 C79.826416,17.3105504 79.6737076,17.933469 79.3682861,18.4674072 C79.0628647,19.0013454 78.6212187,19.41223 78.043335,19.7000732 C77.4654512,19.9879165 76.7744181,20.1318359 75.9702148,20.1318359 C74.7748964,20.1318359 73.8454623,19.8154329 73.1818848,19.1826172 C72.5183072,18.5498015 72.1865234,17.679693 72.1865234,16.5722656 L72.1865234,10.362793 L73.7685547,10.362793 L73.7685547,16.4602051 C73.7685547,17.2556192 73.9531232,17.8422833 74.3222656,18.2202148 C74.6914081,18.5981464 75.258297,18.7871094 76.0229492,18.7871094 C77.5083082,18.7871094 78.2509766,18.0070879 78.2509766,16.4470215 L78.2509766,10.362793 L79.826416,10.362793 Z M87.0246582,17.923584 C87.0246582,18.6355016 86.7653835,19.1815167 86.2468262,19.5616455 C85.7282689,19.9417744 84.9856005,20.1318359 84.0187988,20.1318359 C83.0476026,20.1318359 82.2675811,19.9846206 81.6787109,19.6901855 L81.6787109,18.3520508 C82.5356488,18.7475606 83.3332483,18.9453125 84.0715332,18.9453125 C85.0251513,18.9453125 85.5019531,18.6574736 85.5019531,18.0817871 C85.5019531,17.8972159 85.4492193,17.7434088 85.34375,17.6203613 C85.2382807,17.4973138 85.0646985,17.3698737 84.822998,17.2380371 C84.5812976,17.1062005 84.2451193,16.9567879 83.8144531,16.7897949 C82.9750935,16.464598 82.407106,16.1394059 82.1104736,15.814209 C81.8138413,15.489012 81.6655273,15.0671413 81.6655273,14.548584 C81.6655273,13.9245574 81.9171117,13.4400652 82.4202881,13.0950928 C82.9234644,12.7501203 83.6079058,12.5776367 84.4736328,12.5776367 C85.3305707,12.5776367 86.1413536,12.751219 86.9060059,13.0983887 L86.4050293,14.2651367 C85.6184043,13.9399398 84.9570339,13.7773438 84.4208984,13.7773438 C83.6035115,13.7773438 83.1948242,14.0102516 83.1948242,14.4760742 C83.1948242,14.704591 83.3013905,14.8979484 83.5145264,15.0561523 C83.7276622,15.2143563 84.1923792,15.4318834 84.9086914,15.7087402 C85.5107452,15.9416516 85.9479967,16.1547842 86.220459,16.3481445 C86.4929213,16.5415049 86.6950677,16.7645251 86.8269043,17.0172119 C86.9587409,17.2698987 87.0246582,17.5720197 87.0246582,17.923584 Z M91.8828125,20.1318359 C90.7490178,20.1318359 89.86243,19.8011508 89.2230225,19.1397705 C88.583615,18.4783902 88.263916,17.5676328 88.263916,16.4074707 C88.263916,15.2165468 88.5605439,14.280521 89.1538086,13.5993652 C89.7470733,12.9182095 90.5622507,12.5776367 91.5993652,12.5776367 C92.5617724,12.5776367 93.3220187,12.8698701 93.880127,13.4543457 C94.4382352,14.0388213 94.7172852,14.8430125 94.7172852,15.8669434 L94.7172852,16.7041016 L89.8591309,16.7041016 C89.8811036,17.4116246 90.0722638,17.9554424 90.4326172,18.3355713 C90.7929706,18.7157001 91.3005338,18.9057617 91.9553223,18.9057617 C92.3859885,18.9057617 92.7869854,18.8651127 93.1583252,18.7838135 C93.5296649,18.7025142 93.9284647,18.5673838 94.3547363,18.378418 L94.3547363,19.6374512 C93.9768048,19.8176279 93.5944844,19.945068 93.2077637,20.0197754 C92.821043,20.0944828 92.379397,20.1318359 91.8828125,20.1318359 Z M91.5993652,13.7509766 C91.1071753,13.7509766 90.71277,13.9069809 90.4161377,14.2189941 C90.1195054,14.5310074 89.9426272,14.9858369 89.885498,15.5834961 L93.1945801,15.5834961 C93.185791,14.9814423 93.0407729,14.5255142 92.7595215,14.2156982 C92.4782701,13.9058822 92.0915552,13.7509766 91.5993652,13.7509766 Z M100.175293,12.5776367 C100.487306,12.5776367 100.744384,12.5996092 100.946533,12.6435547 L100.794922,14.0871582 C100.575194,14.0344236 100.346681,14.0080566 100.109375,14.0080566 C99.489743,14.0080566 98.9876728,14.2102031 98.6031494,14.614502 C98.218626,15.0188008 98.0263672,15.5439421 98.0263672,16.1899414 L98.0263672,20 L96.4772949,20 L96.4772949,12.7094727 L97.6901855,12.7094727 L97.8945312,13.994873 L97.9736328,13.994873 C98.2153332,13.5598123 98.5306377,13.214845 98.9195557,12.9599609 C99.3084736,12.7050769 99.7270485,12.5776367 100.175293,12.5776367 Z M113.998291,20 L112.066895,20 L107.327393,12.3205566 L107.274658,12.3205566 L107.307617,12.7490234 C107.369141,13.5664103 107.399902,14.3134732 107.399902,14.9902344 L107.399902,20 L105.969482,20 L105.969482,10.362793 L107.881104,10.362793 L112.607422,18.0026855 L112.646973,18.0026855 C112.638184,17.9016108 112.620606,17.5335725 112.594238,16.8985596 C112.567871,16.2635466 112.554688,15.7680682 112.554688,15.4121094 L112.554688,10.362793 L113.998291,10.362793 L113.998291,20 Z M119.561768,20.1318359 C118.427973,20.1318359 117.541385,19.8011508 116.901978,19.1397705 C116.26257,18.4783902 115.942871,17.5676328 115.942871,16.4074707 C115.942871,15.2165468 116.239499,14.280521 116.832764,13.5993652 C117.426028,12.9182095 118.241206,12.5776367 119.27832,12.5776367 C120.240727,12.5776367 121.000974,12.8698701 121.559082,13.4543457 C122.11719,14.0388213 122.39624,14.8430125 122.39624,15.8669434 L122.39624,16.7041016 L117.538086,16.7041016 C117.560059,17.4116246 117.751219,17.9554424 118.111572,18.3355713 C118.471926,18.7157001 118.979489,18.9057617 119.634277,18.9057617 C120.064944,18.9057617 120.465941,18.8651127 120.83728,18.7838135 C121.20862,18.7025142 121.60742,18.5673838 122.033691,18.378418 L122.033691,19.6374512 C121.65576,19.8176279 121.273439,19.945068 120.886719,20.0197754 C120.499998,20.0944828 120.058352,20.1318359 119.561768,20.1318359 Z M119.27832,13.7509766 C118.78613,13.7509766 118.391725,13.9069809 118.095093,14.2189941 C117.79846,14.5310074 117.621582,14.9858369 117.564453,15.5834961 L120.873535,15.5834961 C120.864746,14.9814423 120.719728,14.5255142 120.438477,14.2156982 C120.157225,13.9058822 119.77051,13.7509766 119.27832,13.7509766 Z M127.340088,20.1318359 C126.206293,20.1318359 125.319705,19.8011508 124.680298,19.1397705 C124.04089,18.4783902 123.721191,17.5676328 123.721191,16.4074707 C123.721191,15.2165468 124.017819,14.280521 124.611084,13.5993652 C125.204349,12.9182095 126.019526,12.5776367 127.056641,12.5776367 C128.019048,12.5776367 128.779294,12.8698701 129.337402,13.4543457 C129.895511,14.0388213 130.174561,14.8430125 130.174561,15.8669434 L130.174561,16.7041016 L125.316406,16.7041016 C125.338379,17.4116246 125.529539,17.9554424 125.889893,18.3355713 C126.250246,18.7157001 126.757809,18.9057617 127.412598,18.9057617 C127.843264,18.9057617 128.244261,18.8651127 128.615601,18.7838135 C128.98694,18.7025142 129.38574,18.5673838 129.812012,18.378418 L129.812012,19.6374512 C129.43408,19.8176279 129.05176,19.945068 128.665039,20.0197754 C128.278318,20.0944828 127.836672,20.1318359 127.340088,20.1318359 Z M127.056641,13.7509766 C126.564451,13.7509766 126.170045,13.9069809 125.873413,14.2189941 C125.576781,14.5310074 125.399903,14.9858369 125.342773,15.5834961 L128.651855,15.5834961 C128.643066,14.9814423 128.498048,14.5255142 128.216797,14.2156982 C127.935545,13.9058822 127.548831,13.7509766 127.056641,13.7509766 Z M134.393311,20.1318359 C133.483638,20.1318359 132.773928,19.8022494 132.26416,19.1430664 C131.754392,18.4838834 131.499512,17.5588438 131.499512,16.3679199 C131.499512,15.1726014 131.757688,14.2420688 132.274048,13.5762939 C132.790408,12.9105191 133.505611,12.5776367 134.419678,12.5776367 C135.37769,12.5776367 136.107175,12.9313929 136.608154,13.638916 L136.687256,13.638916 C136.612548,13.1159642 136.575195,12.7028824 136.575195,12.3996582 L136.575195,9.74316406 L138.130859,9.74316406 L138.130859,20 L136.917969,20 L136.647705,19.0441895 L136.575195,19.0441895 C136.078611,19.7692907 135.351323,20.1318359 134.393311,20.1318359 Z M134.808594,18.8793945 C135.445804,18.8793945 135.909422,18.7003192 136.199463,18.3421631 C136.489503,17.984007 136.638916,17.4028361 136.647705,16.5986328 L136.647705,16.3811035 C136.647705,15.4626419 136.498293,14.8100605 136.199463,14.4233398 C135.900633,14.0366192 135.43262,13.8432617 134.79541,13.8432617 C134.250486,13.8432617 133.830812,14.0640847 133.536377,14.5057373 C133.241942,14.9473899 133.094727,15.5769002 133.094727,16.3942871 C133.094727,17.2028849 133.237547,17.8192117 133.523193,18.2432861 C133.808839,18.6673605 134.237302,18.8793945 134.808594,18.8793945 Z M149.87085,20 L143.338379,20 L143.338379,18.8266602 L145.823486,16.3283691 C146.557377,15.5769005 147.044066,15.044069 147.283569,14.7298584 C147.523072,14.4156478 147.697753,14.1201186 147.807617,13.8432617 C147.917481,13.5664049 147.972412,13.269777 147.972412,12.9533691 C147.972412,12.5183084 147.841676,12.1755384 147.5802,11.9250488 C147.318724,11.6745593 146.957278,11.5493164 146.49585,11.5493164 C146.126707,11.5493164 145.769655,11.617431 145.424683,11.7536621 C145.07971,11.8898933 144.68091,12.1359845 144.228271,12.4919434 L143.391113,11.4702148 C143.927249,11.0175759 144.447996,10.6967783 144.953369,10.5078125 C145.458743,10.3188467 145.997067,10.2243652 146.568359,10.2243652 C147.464848,10.2243652 148.183347,10.4583717 148.723877,10.9263916 C149.264407,11.3944115 149.534668,12.0239218 149.534668,12.8149414 C149.534668,13.2500022 149.456666,13.663084 149.300659,14.0541992 C149.144653,14.4453145 148.905153,14.8485087 148.582153,15.2637939 C148.259154,15.6790792 147.721928,16.240475 146.970459,16.947998 L145.296143,18.5695801 L145.296143,18.635498 L149.87085,18.635498 L149.87085,20 Z" id="UserNeed2" fill="#032A2F" fill-rule="nonzero"></path>
                    <path d="M72.3249512,47 L72.3249512,37.362793 L73.4455566,37.362793 L73.4455566,47 L72.3249512,47 Z M85.3305664,47 L84.0056152,42.7614746 C83.9221187,42.502196 83.7661144,41.9133347 83.5375977,40.994873 L83.4848633,40.994873 C83.3090812,41.7639199 83.1552741,42.3571756 83.0234375,42.7746582 L81.6589355,47 L80.3933105,47 L78.4223633,39.7753906 L79.5693359,39.7753906 C80.0351586,41.5903411 80.3900134,42.9724074 80.6339111,43.9216309 C80.8778088,44.8708544 81.0173338,45.5102523 81.0524902,45.8398438 L81.1052246,45.8398438 C81.1535647,45.5893542 81.2315668,45.2652608 81.3392334,44.8675537 C81.4469,44.4698466 81.5402828,44.1545422 81.6193848,43.9216309 L82.9443359,39.7753906 L84.1308594,39.7753906 L85.4228516,43.9216309 C85.6689465,44.677494 85.8359371,45.3124974 85.9238281,45.8266602 L85.9765625,45.8266602 C85.9941407,45.6684562 86.0413815,45.4245622 86.1182861,45.0949707 C86.1951908,44.7653792 86.6533161,42.9922036 87.4926758,39.7753906 L88.6264648,39.7753906 L86.6291504,47 L85.3305664,47 Z M94.3745117,47 L94.1569824,45.9716797 L94.104248,45.9716797 C93.7438947,46.4243187 93.3846453,46.7308342 93.0264893,46.8912354 C92.6683332,47.0516365 92.2211941,47.1318359 91.6850586,47.1318359 C90.9687464,47.1318359 90.4073507,46.9472675 90.0008545,46.578125 C89.5943583,46.2089825 89.3911133,45.6838413 89.3911133,45.0026855 C89.3911133,43.5436939 90.5578497,42.7790531 92.8913574,42.7087402 L94.1174316,42.6691895 L94.1174316,42.2209473 C94.1174316,41.6540499 93.9954846,41.235475 93.7515869,40.96521 C93.5076892,40.6949449 93.1176785,40.5598145 92.581543,40.5598145 C91.9794892,40.5598145 91.2983436,40.7443829 90.5380859,41.1135254 L90.2019043,40.2763672 C90.5578631,40.0830068 90.9478739,39.931397 91.3719482,39.8215332 C91.7960226,39.7116694 92.2211893,39.6567383 92.6474609,39.6567383 C93.5087934,39.6567383 94.1470927,39.8478985 94.5623779,40.2302246 C94.9776632,40.6125507 95.1853027,41.2255817 95.1853027,42.0693359 L95.1853027,47 L94.3745117,47 Z M91.9025879,46.2287598 C92.5837436,46.2287598 93.1187725,46.0419941 93.5076904,45.668457 C93.8966084,45.29492 94.0910645,44.771976 94.0910645,44.0996094 L94.0910645,43.4470215 L92.9968262,43.4931641 C92.1267046,43.5239259 91.4993916,43.6590564 91.1148682,43.8985596 C90.7303448,44.1380627 90.5380859,44.5104955 90.5380859,45.0158691 C90.5380859,45.4113789 90.6578357,45.7124013 90.8973389,45.9189453 C91.136842,46.1254893 91.4719217,46.2287598 91.9025879,46.2287598 Z M102.383545,47 L102.383545,42.326416 C102.383545,41.7375459 102.249513,41.2980972 101.981445,41.0080566 C101.713378,40.7180161 101.293704,40.572998 100.722412,40.572998 C99.966549,40.572998 99.4128436,40.7773417 99.0612793,41.1860352 C98.709715,41.5947286 98.5339355,42.2692824 98.5339355,43.2097168 L98.5339355,47 L97.4396973,47 L97.4396973,39.7753906 L98.3295898,39.7753906 L98.5075684,40.7641602 L98.5603027,40.7641602 C98.7844249,40.4082013 99.0986308,40.1324473 99.5029297,39.9368896 C99.9072286,39.741332 100.357664,39.6435547 100.854248,39.6435547 C101.72437,39.6435547 102.379148,39.8533915 102.818604,40.2730713 C103.258059,40.6927511 103.477783,41.3640091 103.477783,42.2868652 L103.477783,47 L102.383545,47 Z M108.059082,46.2287598 C108.252442,46.2287598 108.439208,46.2144777 108.619385,46.1859131 C108.799561,46.1573485 108.942382,46.1276857 109.047852,46.0969238 L109.047852,46.934082 C108.929199,46.9912112 108.754518,47.038452 108.523804,47.0758057 C108.29309,47.1131594 108.08545,47.1318359 107.900879,47.1318359 C106.503411,47.1318359 105.804688,46.3957593 105.804688,44.923584 L105.804688,40.6257324 L104.769775,40.6257324 L104.769775,40.0983887 L105.804688,39.6435547 L106.266113,38.1010742 L106.898926,38.1010742 L106.898926,39.7753906 L108.995117,39.7753906 L108.995117,40.6257324 L106.898926,40.6257324 L106.898926,44.8774414 C106.898926,45.3125022 107.002196,45.6464832 107.20874,45.8793945 C107.415284,46.1123059 107.698729,46.2287598 108.059082,46.2287598 Z M116.331787,46.2287598 C116.525147,46.2287598 116.711913,46.2144777 116.89209,46.1859131 C117.072267,46.1573485 117.215087,46.1276857 117.320557,46.0969238 L117.320557,46.934082 C117.201904,46.9912112 117.027223,47.038452 116.796509,47.0758057 C116.565795,47.1131594 116.358155,47.1318359 116.173584,47.1318359 C114.776116,47.1318359 114.077393,46.3957593 114.077393,44.923584 L114.077393,40.6257324 L113.04248,40.6257324 L113.04248,40.0983887 L114.077393,39.6435547 L114.538818,38.1010742 L115.171631,38.1010742 L115.171631,39.7753906 L117.267822,39.7753906 L117.267822,40.6257324 L115.171631,40.6257324 L115.171631,44.8774414 C115.171631,45.3125022 115.274901,45.6464832 115.481445,45.8793945 C115.687989,46.1123059 115.971434,46.2287598 116.331787,46.2287598 Z M125,43.3811035 C125,44.5588438 124.703372,45.4783902 124.110107,46.1397705 C123.516843,46.8011508 122.697271,47.1318359 121.651367,47.1318359 C121.005368,47.1318359 120.431887,46.9802261 119.930908,46.677002 C119.429929,46.3737778 119.043214,45.9387235 118.770752,45.3718262 C118.49829,44.8049288 118.362061,44.1413612 118.362061,43.3811035 C118.362061,42.2033633 118.656491,41.286014 119.245361,40.6290283 C119.834231,39.9720426 120.651606,39.6435547 121.69751,39.6435547 C122.708257,39.6435547 123.51135,39.979733 124.106812,40.6520996 C124.702273,41.3244663 125,42.2341251 125,43.3811035 Z M119.49585,43.3811035 C119.49585,44.3039597 119.680418,45.0070777 120.049561,45.4904785 C120.418703,45.9738794 120.961422,46.2155762 121.677734,46.2155762 C122.394047,46.2155762 122.937864,45.974978 123.309204,45.4937744 C123.680544,45.0125708 123.866211,44.3083542 123.866211,43.3811035 C123.866211,42.4626419 123.680544,41.765017 123.309204,41.288208 C122.937864,40.811399 122.389652,40.572998 121.664551,40.572998 C120.948239,40.572998 120.407717,40.8081031 120.042969,41.2783203 C119.678221,41.7485375 119.49585,42.4494582 119.49585,43.3811035 Z M133.786865,39.6567383 C134.736089,39.6567383 135.473264,39.9808317 135.998413,40.6290283 C136.523562,41.2772249 136.786133,42.1945741 136.786133,43.3811035 C136.786133,44.5676329 136.521365,45.4893766 135.991821,46.1463623 C135.462278,46.803348 134.7273,47.1318359 133.786865,47.1318359 C133.316648,47.1318359 132.887087,47.0450448 132.498169,46.87146 C132.109251,46.6978751 131.78296,46.43091 131.519287,46.0705566 L131.440186,46.0705566 L131.209473,47 L130.425049,47 L130.425049,36.7431641 L131.519287,36.7431641 L131.519287,39.2348633 C131.519287,39.7929715 131.501709,40.2939431 131.466553,40.737793 L131.519287,40.737793 C132.029055,40.0170862 132.784907,39.6567383 133.786865,39.6567383 Z M133.628662,40.572998 C132.881588,40.572998 132.343263,40.7872293 132.013672,41.2156982 C131.68408,41.6441672 131.519287,42.3659617 131.519287,43.3811035 C131.519287,44.3962453 131.688475,45.1224343 132.026855,45.5596924 C132.365236,45.9969504 132.907955,46.2155762 133.655029,46.2155762 C134.327396,46.2155762 134.828367,45.9705835 135.157959,45.4805908 C135.48755,44.9905981 135.652344,44.2863815 135.652344,43.3679199 C135.652344,42.4274855 135.48755,41.7265648 135.157959,41.2651367 C134.828367,40.8037086 134.318607,40.572998 133.628662,40.572998 Z M141.749756,47.1318359 C140.681879,47.1318359 139.839236,46.8066439 139.221802,46.15625 C138.604367,45.5058561 138.295654,44.602789 138.295654,43.4470215 C138.295654,42.2824649 138.582395,41.3574253 139.155884,40.671875 C139.729373,39.9863247 140.499507,39.6435547 141.466309,39.6435547 C142.371587,39.6435547 143.087888,39.9412812 143.615234,40.5367432 C144.142581,41.1322051 144.40625,41.9177197 144.40625,42.8933105 L144.40625,43.5854492 L139.429443,43.5854492 C139.451416,44.433598 139.665647,45.0773904 140.072144,45.5168457 C140.47864,45.956301 141.051022,46.1760254 141.789307,46.1760254 C142.567143,46.1760254 143.336178,46.0134294 144.096436,45.6882324 L144.096436,46.6638184 C143.709715,46.8308114 143.343874,46.9505612 142.998901,47.0230713 C142.653929,47.0955814 142.237551,47.1318359 141.749756,47.1318359 Z M141.453125,40.5598145 C140.873044,40.5598145 140.410524,40.7487774 140.065552,41.126709 C139.720579,41.5046406 139.517334,42.0275846 139.455811,42.6955566 L143.23291,42.6955566 C143.23291,42.0056118 143.079103,41.4771747 142.771484,41.1102295 C142.463866,40.7432843 142.024417,40.5598145 141.453125,40.5598145 Z M154.221436,47 L154.003906,45.9716797 L153.951172,45.9716797 C153.590819,46.4243187 153.231569,46.7308342 152.873413,46.8912354 C152.515257,47.0516365 152.068118,47.1318359 151.531982,47.1318359 C150.81567,47.1318359 150.254274,46.9472675 149.847778,46.578125 C149.441282,46.2089825 149.238037,45.6838413 149.238037,45.0026855 C149.238037,43.5436939 150.404773,42.7790531 152.738281,42.7087402 L153.964355,42.6691895 L153.964355,42.2209473 C153.964355,41.6540499 153.842408,41.235475 153.598511,40.96521 C153.354613,40.6949449 152.964602,40.5598145 152.428467,40.5598145 C151.826413,40.5598145 151.145267,40.7443829 150.38501,41.1135254 L150.048828,40.2763672 C150.404787,40.0830068 150.794798,39.931397 151.218872,39.8215332 C151.642946,39.7116694 152.068113,39.6567383 152.494385,39.6567383 C153.355717,39.6567383 153.994016,39.8478985 154.409302,40.2302246 C154.824587,40.6125507 155.032227,41.2255817 155.032227,42.0693359 L155.032227,47 L154.221436,47 Z M151.749512,46.2287598 C152.430667,46.2287598 152.965696,46.0419941 153.354614,45.668457 C153.743532,45.29492 153.937988,44.771976 153.937988,44.0996094 L153.937988,43.4470215 L152.84375,43.4931641 C151.973628,43.5239259 151.346315,43.6590564 150.961792,43.8985596 C150.577269,44.1380627 150.38501,44.5104955 150.38501,45.0158691 C150.38501,45.4113789 150.50476,45.7124013 150.744263,45.9189453 C150.983766,46.1254893 151.318846,46.2287598 151.749512,46.2287598 Z M160.648438,39.6567383 C161.597661,39.6567383 162.334836,39.9808317 162.859985,40.6290283 C163.385134,41.2772249 163.647705,42.1945741 163.647705,43.3811035 C163.647705,44.5676329 163.382937,45.4893766 162.853394,46.1463623 C162.32385,46.803348 161.588872,47.1318359 160.648438,47.1318359 C160.17822,47.1318359 159.748659,47.0450448 159.359741,46.87146 C158.970823,46.6978751 158.644533,46.43091 158.380859,46.0705566 L158.301758,46.0705566 L158.071045,47 L157.286621,47 L157.286621,36.7431641 L158.380859,36.7431641 L158.380859,39.2348633 C158.380859,39.7929715 158.363281,40.2939431 158.328125,40.737793 L158.380859,40.737793 C158.890628,40.0170862 159.646479,39.6567383 160.648438,39.6567383 Z M160.490234,40.572998 C159.74316,40.572998 159.204836,40.7872293 158.875244,41.2156982 C158.545653,41.6441672 158.380859,42.3659617 158.380859,43.3811035 C158.380859,44.3962453 158.550047,45.1224343 158.888428,45.5596924 C159.226808,45.9969504 159.769528,46.2155762 160.516602,46.2155762 C161.188968,46.2155762 161.68994,45.9705835 162.019531,45.4805908 C162.349123,44.9905981 162.513916,44.2863815 162.513916,43.3679199 C162.513916,42.4274855 162.349123,41.7265648 162.019531,41.2651367 C161.68994,40.8037086 161.180179,40.572998 160.490234,40.572998 Z M166.653564,47 L165.559326,47 L165.559326,36.7431641 L166.653564,36.7431641 L166.653564,47 Z M172.025879,47.1318359 C170.958002,47.1318359 170.11536,46.8066439 169.497925,46.15625 C168.88049,45.5058561 168.571777,44.602789 168.571777,43.4470215 C168.571777,42.2824649 168.858518,41.3574253 169.432007,40.671875 C170.005496,39.9863247 170.77563,39.6435547 171.742432,39.6435547 C172.64771,39.6435547 173.364011,39.9412812 173.891357,40.5367432 C174.418704,41.1322051 174.682373,41.9177197 174.682373,42.8933105 L174.682373,43.5854492 L169.705566,43.5854492 C169.727539,44.433598 169.94177,45.0773904 170.348267,45.5168457 C170.754763,45.956301 171.327145,46.1760254 172.06543,46.1760254 C172.843266,46.1760254 173.612301,46.0134294 174.372559,45.6882324 L174.372559,46.6638184 C173.985838,46.8308114 173.619997,46.9505612 173.275024,47.0230713 C172.930052,47.0955814 172.513674,47.1318359 172.025879,47.1318359 Z M171.729248,40.5598145 C171.149167,40.5598145 170.686647,40.7487774 170.341675,41.126709 C169.996702,41.5046406 169.793457,42.0275846 169.731934,42.6955566 L173.509033,42.6955566 C173.509033,42.0056118 173.355226,41.4771747 173.047607,41.1102295 C172.739989,40.7432843 172.30054,40.5598145 171.729248,40.5598145 Z M182.388184,46.2287598 C182.581544,46.2287598 182.76831,46.2144777 182.948486,46.1859131 C183.128663,46.1573485 183.271484,46.1276857 183.376953,46.0969238 L183.376953,46.934082 C183.2583,46.9912112 183.083619,47.038452 182.852905,47.0758057 C182.622191,47.1131594 182.414552,47.1318359 182.22998,47.1318359 C180.832513,47.1318359 180.133789,46.3957593 180.133789,44.923584 L180.133789,40.6257324 L179.098877,40.6257324 L179.098877,40.0983887 L180.133789,39.6435547 L180.595215,38.1010742 L181.228027,38.1010742 L181.228027,39.7753906 L183.324219,39.7753906 L183.324219,40.6257324 L181.228027,40.6257324 L181.228027,44.8774414 C181.228027,45.3125022 181.331298,45.6464832 181.537842,45.8793945 C181.744386,46.1123059 182.02783,46.2287598 182.388184,46.2287598 Z M191.056396,43.3811035 C191.056396,44.5588438 190.759769,45.4783902 190.166504,46.1397705 C189.573239,46.8011508 188.753667,47.1318359 187.707764,47.1318359 C187.061764,47.1318359 186.488284,46.9802261 185.987305,46.677002 C185.486326,46.3737778 185.099611,45.9387235 184.827148,45.3718262 C184.554686,44.8049288 184.418457,44.1413612 184.418457,43.3811035 C184.418457,42.2033633 184.712888,41.286014 185.301758,40.6290283 C185.890628,39.9720426 186.708003,39.6435547 187.753906,39.6435547 C188.764653,39.6435547 189.567746,39.979733 190.163208,40.6520996 C190.75867,41.3244663 191.056396,42.2341251 191.056396,43.3811035 Z M185.552246,43.3811035 C185.552246,44.3039597 185.736815,45.0070777 186.105957,45.4904785 C186.4751,45.9738794 187.017819,46.2155762 187.734131,46.2155762 C188.450443,46.2155762 188.994261,45.974978 189.365601,45.4937744 C189.73694,45.0125708 189.922607,44.3083542 189.922607,43.3811035 C189.922607,42.4626419 189.73694,41.765017 189.365601,41.288208 C188.994261,40.811399 188.446049,40.572998 187.720947,40.572998 C187.004635,40.572998 186.464113,40.8081031 186.099365,41.2783203 C185.734617,41.7485375 185.552246,42.4494582 185.552246,43.3811035 Z M199.737793,40.6257324 L197.898682,40.6257324 L197.898682,47 L196.804443,47 L196.804443,40.6257324 L195.512451,40.6257324 L195.512451,40.1313477 L196.804443,39.7358398 L196.804443,39.3337402 C196.804443,37.5583407 197.58007,36.6706543 199.131348,36.6706543 C199.513674,36.6706543 199.961911,36.7475578 200.476074,36.9013672 L200.192627,37.7780762 C199.77075,37.641845 199.410402,37.5737305 199.111572,37.5737305 C198.698484,37.5737305 198.393067,37.7110582 198.195312,37.9857178 C197.997558,38.2603773 197.898682,38.7009247 197.898682,39.307373 L197.898682,39.7753906 L199.737793,39.7753906 L199.737793,40.6257324 Z M202.150391,47 L201.056152,47 L201.056152,39.7753906 L202.150391,39.7753906 L202.150391,47 Z M200.963867,37.817627 C200.963867,37.5671374 201.02539,37.3836676 201.148438,37.2672119 C201.271485,37.1507563 201.425292,37.0925293 201.609863,37.0925293 C201.785645,37.0925293 201.937255,37.1518549 202.064697,37.2705078 C202.192139,37.3891607 202.255859,37.571532 202.255859,37.817627 C202.255859,38.0637219 202.192139,38.2471918 202.064697,38.368042 C201.937255,38.4888922 201.785645,38.5493164 201.609863,38.5493164 C201.425292,38.5493164 201.271485,38.4888922 201.148438,38.368042 C201.02539,38.2471918 200.963867,38.0637219 200.963867,37.817627 Z M205.564941,47 L204.470703,47 L204.470703,36.7431641 L205.564941,36.7431641 L205.564941,47 Z M208.979492,47 L207.885254,47 L207.885254,36.7431641 L208.979492,36.7431641 L208.979492,47 Z M217.140137,46.2287598 C217.333497,46.2287598 217.520263,46.2144777 217.700439,46.1859131 C217.880616,46.1573485 218.023437,46.1276857 218.128906,46.0969238 L218.128906,46.934082 C218.010253,46.9912112 217.835572,47.038452 217.604858,47.0758057 C217.374144,47.1131594 217.166505,47.1318359 216.981934,47.1318359 C215.584466,47.1318359 214.885742,46.3957593 214.885742,44.923584 L214.885742,40.6257324 L213.85083,40.6257324 L213.85083,40.0983887 L214.885742,39.6435547 L215.347168,38.1010742 L215.97998,38.1010742 L215.97998,39.7753906 L218.076172,39.7753906 L218.076172,40.6257324 L215.97998,40.6257324 L215.97998,44.8774414 C215.97998,45.3125022 216.083251,45.6464832 216.289795,45.8793945 C216.496339,46.1123059 216.779783,46.2287598 217.140137,46.2287598 Z M224.516357,47 L224.516357,42.326416 C224.516357,41.7375459 224.382326,41.2980972 224.114258,41.0080566 C223.84619,40.7180161 223.426517,40.572998 222.855225,40.572998 C222.094967,40.572998 221.540163,40.779539 221.190796,41.192627 C220.841429,41.605715 220.666748,42.282466 220.666748,43.2229004 L220.666748,47 L219.57251,47 L219.57251,36.7431641 L220.666748,36.7431641 L220.666748,39.8479004 C220.666748,40.2214374 220.64917,40.5312488 220.614014,40.7773438 L220.679932,40.7773438 C220.895265,40.430174 221.20178,40.1566172 221.599487,39.956665 C221.997194,39.7567129 222.450925,39.6567383 222.960693,39.6567383 C223.843999,39.6567383 224.506468,39.8665751 224.94812,40.2862549 C225.389773,40.7059347 225.610596,41.3727982 225.610596,42.2868652 L225.610596,47 L224.516357,47 Z M230.9104,47.1318359 C229.842524,47.1318359 228.999881,46.8066439 228.382446,46.15625 C227.765012,45.5058561 227.456299,44.602789 227.456299,43.4470215 C227.456299,42.2824649 227.743039,41.3574253 228.316528,40.671875 C228.890018,39.9863247 229.660151,39.6435547 230.626953,39.6435547 C231.532231,39.6435547 232.248533,39.9412812 232.775879,40.5367432 C233.303225,41.1322051 233.566895,41.9177197 233.566895,42.8933105 L233.566895,43.5854492 L228.590088,43.5854492 C228.612061,44.433598 228.826292,45.0773904 229.232788,45.5168457 C229.639284,45.956301 230.211666,46.1760254 230.949951,46.1760254 C231.727787,46.1760254 232.496822,46.0134294 233.25708,45.6882324 L233.25708,46.6638184 C232.870359,46.8308114 232.504518,46.9505612 232.159546,47.0230713 C231.814573,47.0955814 231.398196,47.1318359 230.9104,47.1318359 Z M230.61377,40.5598145 C230.033689,40.5598145 229.571169,40.7487774 229.226196,41.126709 C228.881224,41.5046406 228.677979,42.0275846 228.616455,42.6955566 L232.393555,42.6955566 C232.393555,42.0056118 232.239748,41.4771747 231.932129,41.1102295 C231.62451,40.7432843 231.185061,40.5598145 230.61377,40.5598145 Z M74.4936523,64.2287598 C74.6870127,64.2287598 74.8737784,64.2144777 75.0539551,64.1859131 C75.2341318,64.1573485 75.3769526,64.1276857 75.4824219,64.0969238 L75.4824219,64.934082 C75.3637689,64.9912112 75.1890881,65.038452 74.958374,65.0758057 C74.72766,65.1131594 74.5200205,65.1318359 74.3354492,65.1318359 C72.9379813,65.1318359 72.2392578,64.3957593 72.2392578,62.923584 L72.2392578,58.6257324 L71.2043457,58.6257324 L71.2043457,58.0983887 L72.2392578,57.6435547 L72.7006836,56.1010742 L73.3334961,56.1010742 L73.3334961,57.7753906 L75.4296875,57.7753906 L75.4296875,58.6257324 L73.3334961,58.6257324 L73.3334961,62.8774414 C73.3334961,63.3125022 73.4367665,63.6464832 73.6433105,63.8793945 C73.8498545,64.1123059 74.133299,64.2287598 74.4936523,64.2287598 Z M81.3688965,65 L81.1513672,63.9716797 L81.0986328,63.9716797 C80.7382794,64.4243187 80.3790301,64.7308342 80.020874,64.8912354 C79.6627179,65.0516365 79.2155789,65.1318359 78.6794434,65.1318359 C77.9631312,65.1318359 77.4017354,64.9472675 76.9952393,64.578125 C76.5887431,64.2089825 76.385498,63.6838413 76.385498,63.0026855 C76.385498,61.5436939 77.5522344,60.7790531 79.8857422,60.7087402 L81.1118164,60.6691895 L81.1118164,60.2209473 C81.1118164,59.6540499 80.9898694,59.235475 80.7459717,58.96521 C80.502074,58.6949449 80.1120632,58.5598145 79.5759277,58.5598145 C78.9738739,58.5598145 78.2927284,58.7443829 77.5324707,59.1135254 L77.1962891,58.2763672 C77.5522479,58.0830068 77.9422586,57.931397 78.366333,57.8215332 C78.7904074,57.7116694 79.215574,57.6567383 79.6418457,57.6567383 C80.5031781,57.6567383 81.1414774,57.8478985 81.5567627,58.2302246 C81.972048,58.6125507 82.1796875,59.2255817 82.1796875,60.0693359 L82.1796875,65 L81.3688965,65 Z M78.8969727,64.2287598 C79.5781284,64.2287598 80.1131572,64.0419941 80.5020752,63.668457 C80.8909932,63.29492 81.0854492,62.771976 81.0854492,62.0996094 L81.0854492,61.4470215 L79.9912109,61.4931641 C79.1210894,61.5239259 78.4937763,61.6590564 78.1092529,61.8985596 C77.7247295,62.1380627 77.5324707,62.5104955 77.5324707,63.0158691 C77.5324707,63.4113789 77.6522205,63.7124013 77.8917236,63.9189453 C78.1312268,64.1254893 78.4663064,64.2287598 78.8969727,64.2287598 Z M89.3779297,65 L89.3779297,60.326416 C89.3779297,59.7375459 89.2438978,59.2980972 88.9758301,59.0080566 C88.7077623,58.7180161 88.2880888,58.572998 87.7167969,58.572998 C86.9609337,58.572998 86.4072283,58.7773417 86.0556641,59.1860352 C85.7040998,59.5947286 85.5283203,60.2692824 85.5283203,61.2097168 L85.5283203,65 L84.434082,65 L84.434082,57.7753906 L85.3239746,57.7753906 L85.5019531,58.7641602 L85.5546875,58.7641602 C85.7788097,58.4082013 86.0930156,58.1324473 86.4973145,57.9368896 C86.9016133,57.741332 87.3520483,57.6435547 87.8486328,57.6435547 C88.7187544,57.6435547 89.373533,57.8533915 89.8129883,58.2730713 C90.2524436,58.6927511 90.472168,59.3640091 90.472168,60.2868652 L90.472168,65 L89.3779297,65 Z M93.8010254,61.302002 C93.9899912,61.0339342 94.2778301,60.6823752 94.6645508,60.2473145 L96.9980469,57.7753906 L98.2966309,57.7753906 L95.369873,60.8537598 L98.5009766,65 L97.1760254,65 L94.625,61.5854492 L93.8010254,62.2973633 L93.8010254,65 L92.7199707,65 L92.7199707,54.7431641 L93.8010254,54.7431641 L93.8010254,60.1813965 C93.8010254,60.4230969 93.7834474,60.7966283 93.748291,61.302002 L93.8010254,61.302002 Z M106.608887,57.6435547 C106.929689,57.6435547 107.217528,57.6699216 107.472412,57.7226562 L107.320801,58.737793 C107.021971,58.6718747 106.758302,58.638916 106.529785,58.638916 C105.94531,58.638916 105.445437,58.8762183 105.030151,59.3508301 C104.614866,59.8254418 104.407227,60.4165004 104.407227,61.1240234 L104.407227,65 L103.312988,65 L103.312988,57.7753906 L104.216064,57.7753906 L104.341309,59.1135254 L104.394043,59.1135254 C104.662111,58.6433082 104.985106,58.280763 105.363037,58.0258789 C105.740969,57.7709948 106.156248,57.6435547 106.608887,57.6435547 Z M111.605469,65.1318359 C110.537592,65.1318359 109.694949,64.8066439 109.077515,64.15625 C108.46008,63.5058561 108.151367,62.602789 108.151367,61.4470215 C108.151367,60.2824649 108.438107,59.3574253 109.011597,58.671875 C109.585086,57.9863247 110.35522,57.6435547 111.322021,57.6435547 C112.227299,57.6435547 112.943601,57.9412812 113.470947,58.5367432 C113.998294,59.1322051 114.261963,59.9177197 114.261963,60.8933105 L114.261963,61.5854492 L109.285156,61.5854492 C109.307129,62.433598 109.52136,63.0773904 109.927856,63.5168457 C110.334353,63.956301 110.906735,64.1760254 111.64502,64.1760254 C112.422855,64.1760254 113.191891,64.0134294 113.952148,63.6882324 L113.952148,64.6638184 C113.565428,64.8308114 113.199587,64.9505612 112.854614,65.0230713 C112.509642,65.0955814 112.093264,65.1318359 111.605469,65.1318359 Z M111.308838,58.5598145 C110.728757,58.5598145 110.266237,58.7487774 109.921265,59.126709 C109.576292,59.5046406 109.373047,60.0275846 109.311523,60.6955566 L113.088623,60.6955566 C113.088623,60.0056118 112.934816,59.4771747 112.627197,59.1102295 C112.319579,58.7432843 111.88013,58.5598145 111.308838,58.5598145 Z M125.336182,65 L125.336182,60.3000488 C125.336182,59.7243624 125.213136,59.292604 124.967041,59.0047607 C124.720946,58.7169175 124.338626,58.572998 123.820068,58.572998 C123.138913,58.572998 122.635744,58.7685527 122.310547,59.159668 C121.98535,59.5507832 121.822754,60.152828 121.822754,60.9658203 L121.822754,65 L120.728516,65 L120.728516,60.3000488 C120.728516,59.7243624 120.60547,59.292604 120.359375,59.0047607 C120.11328,58.7169175 119.728762,58.572998 119.205811,58.572998 C118.52026,58.572998 118.01819,58.7784403 117.699585,59.1893311 C117.38098,59.6002218 117.22168,60.273677 117.22168,61.2097168 L117.22168,65 L116.127441,65 L116.127441,57.7753906 L117.017334,57.7753906 L117.195312,58.7641602 L117.248047,58.7641602 C117.454591,58.4125959 117.745726,58.1379404 118.12146,57.9401855 C118.497194,57.7424307 118.917966,57.6435547 119.383789,57.6435547 C120.513189,57.6435547 121.251463,58.052242 121.598633,58.8696289 L121.651367,58.8696289 C121.8667,58.4916973 122.178709,58.1928722 122.587402,57.9731445 C122.996096,57.7534169 123.461911,57.6435547 123.984863,57.6435547 C124.80225,57.6435547 125.414183,57.8533915 125.820679,58.2730713 C126.227175,58.6927511 126.43042,59.3640091 126.43042,60.2868652 L126.43042,65 L125.336182,65 Z M134.920654,61.3811035 C134.920654,62.5588438 134.624026,63.4783902 134.030762,64.1397705 C133.437497,64.8011508 132.617925,65.1318359 131.572021,65.1318359 C130.926022,65.1318359 130.352542,64.9802261 129.851562,64.677002 C129.350583,64.3737778 128.963869,63.9387235 128.691406,63.3718262 C128.418944,62.8049288 128.282715,62.1413612 128.282715,61.3811035 C128.282715,60.2033633 128.577145,59.286014 129.166016,58.6290283 C129.754886,57.9720426 130.57226,57.6435547 131.618164,57.6435547 C132.628911,57.6435547 133.432004,57.979733 134.027466,58.6520996 C134.622928,59.3244663 134.920654,60.2341251 134.920654,61.3811035 Z M129.416504,61.3811035 C129.416504,62.3039597 129.601072,63.0070777 129.970215,63.4904785 C130.339357,63.9738794 130.882076,64.2155762 131.598389,64.2155762 C132.314701,64.2155762 132.858519,63.974978 133.229858,63.4937744 C133.601198,63.0125708 133.786865,62.3083542 133.786865,61.3811035 C133.786865,60.4626419 133.601198,59.765017 133.229858,59.288208 C132.858519,58.811399 132.310306,58.572998 131.585205,58.572998 C130.868893,58.572998 130.328371,58.8081031 129.963623,59.2783203 C129.598875,59.7485375 129.416504,60.4494582 129.416504,61.3811035 Z M139.172363,64.2287598 C139.365724,64.2287598 139.552489,64.2144777 139.732666,64.1859131 C139.912843,64.1573485 140.055664,64.1276857 140.161133,64.0969238 L140.161133,64.934082 C140.04248,64.9912112 139.867799,65.038452 139.637085,65.0758057 C139.406371,65.1131594 139.198731,65.1318359 139.01416,65.1318359 C137.616692,65.1318359 136.917969,64.3957593 136.917969,62.923584 L136.917969,58.6257324 L135.883057,58.6257324 L135.883057,58.0983887 L136.917969,57.6435547 L137.379395,56.1010742 L138.012207,56.1010742 L138.012207,57.7753906 L140.108398,57.7753906 L140.108398,58.6257324 L138.012207,58.6257324 L138.012207,62.8774414 C138.012207,63.3125022 138.115477,63.6464832 138.322021,63.8793945 C138.528565,64.1123059 138.81201,64.2287598 139.172363,64.2287598 Z M144.656738,65.1318359 C143.588862,65.1318359 142.746219,64.8066439 142.128784,64.15625 C141.511349,63.5058561 141.202637,62.602789 141.202637,61.4470215 C141.202637,60.2824649 141.489377,59.3574253 142.062866,58.671875 C142.636355,57.9863247 143.406489,57.6435547 144.373291,57.6435547 C145.278569,57.6435547 145.99487,57.9412812 146.522217,58.5367432 C147.049563,59.1322051 147.313232,59.9177197 147.313232,60.8933105 L147.313232,61.5854492 L142.336426,61.5854492 C142.358399,62.433598 142.57263,63.0773904 142.979126,63.5168457 C143.385622,63.956301 143.958004,64.1760254 144.696289,64.1760254 C145.474125,64.1760254 146.24316,64.0134294 147.003418,63.6882324 L147.003418,64.6638184 C146.616697,64.8308114 146.250856,64.9505612 145.905884,65.0230713 C145.560911,65.0955814 145.144534,65.1318359 144.656738,65.1318359 Z M144.360107,58.5598145 C143.780026,58.5598145 143.317507,58.7487774 142.972534,59.126709 C142.627562,59.5046406 142.424317,60.0275846 142.362793,60.6955566 L146.139893,60.6955566 C146.139893,60.0056118 145.986086,59.4771747 145.678467,59.1102295 C145.370848,58.7432843 144.931399,58.5598145 144.360107,58.5598145 Z M150.272949,65 L149.178711,65 L149.178711,54.7431641 L150.272949,54.7431641 L150.272949,65 Z M151.446289,57.7753906 L152.619629,57.7753906 L154.20166,61.8952637 C154.54883,62.8356981 154.76416,63.5146464 154.847656,63.9321289 L154.900391,63.9321289 C154.95752,63.7080067 155.07727,63.3245877 155.259644,62.7818604 C155.442018,62.239133 156.038569,60.5703265 157.049316,57.7753906 L158.222656,57.7753906 L155.11792,66.0019531 C154.810301,66.8149455 154.451052,67.3917219 154.040161,67.7322998 C153.62927,68.0728777 153.125003,68.2431641 152.527344,68.2431641 C152.193358,68.2431641 151.863771,68.2058109 151.538574,68.1311035 L151.538574,67.2543945 C151.780275,67.3071292 152.050536,67.3334961 152.349365,67.3334961 C153.100834,67.3334961 153.636961,66.9116253 153.957764,66.0678711 L154.359863,65.0395508 L151.446289,57.7753906 Z M160.002441,63.4311523 L160.101318,63.5827637 C159.98706,64.022219 159.822267,64.5330781 159.606934,65.1153564 C159.3916,65.6976347 159.167482,66.2392553 158.93457,66.7402344 L158.110596,66.7402344 C158.229249,66.2832008 158.359985,65.7185092 158.502808,65.0461426 C158.645631,64.3737759 158.745605,63.8354512 158.802734,63.4311523 L160.002441,63.4311523 Z M171.571045,65 L170.246094,60.7614746 C170.162597,60.502196 170.006593,59.9133347 169.778076,58.994873 L169.725342,58.994873 C169.54956,59.7639199 169.395753,60.3571756 169.263916,60.7746582 L167.899414,65 L166.633789,65 L164.662842,57.7753906 L165.809814,57.7753906 C166.275637,59.5903411 166.630492,60.9724074 166.87439,61.9216309 C167.118287,62.8708544 167.257812,63.5102523 167.292969,63.8398438 L167.345703,63.8398438 C167.394043,63.5893542 167.472045,63.2652608 167.579712,62.8675537 C167.687378,62.4698466 167.780761,62.1545422 167.859863,61.9216309 L169.184814,57.7753906 L170.371338,57.7753906 L171.66333,61.9216309 C171.909425,62.677494 172.076416,63.3124974 172.164307,63.8266602 L172.217041,63.8266602 C172.234619,63.6684562 172.28186,63.4245622 172.358765,63.0949707 C172.435669,62.7653792 172.893795,60.9922036 173.733154,57.7753906 L174.866943,57.7753906 L172.869629,65 L171.571045,65 Z M177.266357,65 L176.172119,65 L176.172119,57.7753906 L177.266357,57.7753906 L177.266357,65 Z M176.079834,55.817627 C176.079834,55.5671374 176.141357,55.3836676 176.264404,55.2672119 C176.387452,55.1507563 176.541259,55.0925293 176.72583,55.0925293 C176.901612,55.0925293 177.053222,55.1518549 177.180664,55.2705078 C177.308106,55.3891607 177.371826,55.571532 177.371826,55.817627 C177.371826,56.0637219 177.308106,56.2471918 177.180664,56.368042 C177.053222,56.4888922 176.901612,56.5493164 176.72583,56.5493164 C176.541259,56.5493164 176.387452,56.4888922 176.264404,56.368042 C176.141357,56.2471918 176.079834,56.0637219 176.079834,55.817627 Z M181.920166,64.2287598 C182.113526,64.2287598 182.300292,64.2144777 182.480469,64.1859131 C182.660645,64.1573485 182.803466,64.1276857 182.908936,64.0969238 L182.908936,64.934082 C182.790283,64.9912112 182.615602,65.038452 182.384888,65.0758057 C182.154174,65.1131594 181.946534,65.1318359 181.761963,65.1318359 C180.364495,65.1318359 179.665771,64.3957593 179.665771,62.923584 L179.665771,58.6257324 L178.630859,58.6257324 L178.630859,58.0983887 L179.665771,57.6435547 L180.127197,56.1010742 L180.76001,56.1010742 L180.76001,57.7753906 L182.856201,57.7753906 L182.856201,58.6257324 L180.76001,58.6257324 L180.76001,62.8774414 C180.76001,63.3125022 180.86328,63.6464832 181.069824,63.8793945 C181.276368,64.1123059 181.559813,64.2287598 181.920166,64.2287598 Z M189.296387,65 L189.296387,60.326416 C189.296387,59.7375459 189.162355,59.2980972 188.894287,59.0080566 C188.626219,58.7180161 188.206546,58.572998 187.635254,58.572998 C186.874996,58.572998 186.320192,58.779539 185.970825,59.192627 C185.621458,59.605715 185.446777,60.282466 185.446777,61.2229004 L185.446777,65 L184.352539,65 L184.352539,54.7431641 L185.446777,54.7431641 L185.446777,57.8479004 C185.446777,58.2214374 185.429199,58.5312488 185.394043,58.7773438 L185.459961,58.7773438 C185.675294,58.430174 185.98181,58.1566172 186.379517,57.956665 C186.777224,57.7567129 187.230954,57.6567383 187.740723,57.6567383 C188.624028,57.6567383 189.286497,57.8665751 189.728149,58.2862549 C190.169802,58.7059347 190.390625,59.3727982 190.390625,60.2868652 L190.390625,65 L189.296387,65 Z M198.874268,61.3811035 C198.874268,62.5588438 198.57764,63.4783902 197.984375,64.1397705 C197.39111,64.8011508 196.571538,65.1318359 195.525635,65.1318359 C194.879635,65.1318359 194.306155,64.9802261 193.805176,64.677002 C193.304197,64.3737778 192.917482,63.9387235 192.64502,63.3718262 C192.372557,62.8049288 192.236328,62.1413612 192.236328,61.3811035 C192.236328,60.2033633 192.530759,59.286014 193.119629,58.6290283 C193.708499,57.9720426 194.525874,57.6435547 195.571777,57.6435547 C196.582525,57.6435547 197.385617,57.979733 197.981079,58.6520996 C198.576541,59.3244663 198.874268,60.2341251 198.874268,61.3811035 Z M193.370117,61.3811035 C193.370117,62.3039597 193.554686,63.0070777 193.923828,63.4904785 C194.292971,63.9738794 194.83569,64.2155762 195.552002,64.2155762 C196.268314,64.2155762 196.812132,63.974978 197.183472,63.4937744 C197.554811,63.0125708 197.740479,62.3083542 197.740479,61.3811035 C197.740479,60.4626419 197.554811,59.765017 197.183472,59.288208 C196.812132,58.811399 196.26392,58.572998 195.538818,58.572998 C194.822506,58.572998 194.281984,58.8081031 193.917236,59.2783203 C193.552488,59.7485375 193.370117,60.4494582 193.370117,61.3811035 Z M201.820801,57.7753906 L201.820801,62.4621582 C201.820801,63.0510283 201.954833,63.4904771 202.2229,63.7805176 C202.490968,64.0705581 202.910642,64.2155762 203.481934,64.2155762 C204.237797,64.2155762 204.790404,64.0090353 205.139771,63.5959473 C205.489137,63.1828593 205.663818,62.5083055 205.663818,61.5722656 L205.663818,57.7753906 L206.758057,57.7753906 L206.758057,65 L205.85498,65 L205.696777,64.0310059 L205.637451,64.0310059 C205.413329,64.3869647 205.102419,64.6594229 204.704712,64.8483887 C204.307005,65.0373545 203.853274,65.1318359 203.343506,65.1318359 C202.464595,65.1318359 201.806521,64.9230978 201.369263,64.5056152 C200.932005,64.0881327 200.713379,63.4201706 200.713379,62.501709 L200.713379,57.7753906 L201.820801,57.7753906 Z M211.411865,64.2287598 C211.605226,64.2287598 211.791991,64.2144777 211.972168,64.1859131 C212.152345,64.1573485 212.295165,64.1276857 212.400635,64.0969238 L212.400635,64.934082 C212.281982,64.9912112 212.107301,65.038452 211.876587,65.0758057 C211.645873,65.1131594 211.438233,65.1318359 211.253662,65.1318359 C209.856194,65.1318359 209.157471,64.3957593 209.157471,62.923584 L209.157471,58.6257324 L208.122559,58.6257324 L208.122559,58.0983887 L209.157471,57.6435547 L209.618896,56.1010742 L210.251709,56.1010742 L210.251709,57.7753906 L212.3479,57.7753906 L212.3479,58.6257324 L210.251709,58.6257324 L210.251709,62.8774414 C210.251709,63.3125022 210.354979,63.6464832 210.561523,63.8793945 C210.768067,64.1123059 211.051512,64.2287598 211.411865,64.2287598 Z M223.250732,65 L221.925781,60.7614746 C221.842285,60.502196 221.68628,59.9133347 221.457764,58.994873 L221.405029,58.994873 C221.229247,59.7639199 221.07544,60.3571756 220.943604,60.7746582 L219.579102,65 L218.313477,65 L216.342529,57.7753906 L217.489502,57.7753906 C217.955325,59.5903411 218.310179,60.9724074 218.554077,61.9216309 C218.797975,62.8708544 218.9375,63.5102523 218.972656,63.8398438 L219.025391,63.8398438 C219.073731,63.5893542 219.151733,63.2652608 219.259399,62.8675537 C219.367066,62.4698466 219.460449,62.1545422 219.539551,61.9216309 L220.864502,57.7753906 L222.051025,57.7753906 L223.343018,61.9216309 C223.589113,62.677494 223.756103,63.3124974 223.843994,63.8266602 L223.896729,63.8266602 C223.914307,63.6684562 223.961547,63.4245622 224.038452,63.0949707 C224.115357,62.7653792 224.573482,60.9922036 225.412842,57.7753906 L226.546631,57.7753906 L224.549316,65 L223.250732,65 Z M232.294678,65 L232.077148,63.9716797 L232.024414,63.9716797 C231.664061,64.4243187 231.304811,64.7308342 230.946655,64.8912354 C230.588499,65.0516365 230.14136,65.1318359 229.605225,65.1318359 C228.888912,65.1318359 228.327517,64.9472675 227.921021,64.578125 C227.514524,64.2089825 227.311279,63.6838413 227.311279,63.0026855 C227.311279,61.5436939 228.478016,60.7790531 230.811523,60.7087402 L232.037598,60.6691895 L232.037598,60.2209473 C232.037598,59.6540499 231.915651,59.235475 231.671753,58.96521 C231.427855,58.6949449 231.037844,58.5598145 230.501709,58.5598145 C229.899655,58.5598145 229.21851,58.7443829 228.458252,59.1135254 L228.12207,58.2763672 C228.478029,58.0830068 228.86804,57.931397 229.292114,57.8215332 C229.716189,57.7116694 230.141355,57.6567383 230.567627,57.6567383 C231.428959,57.6567383 232.067259,57.8478985 232.482544,58.2302246 C232.897829,58.6125507 233.105469,59.2255817 233.105469,60.0693359 L233.105469,65 L232.294678,65 Z M229.822754,64.2287598 C230.50391,64.2287598 231.038938,64.0419941 231.427856,63.668457 C231.816774,63.29492 232.01123,62.771976 232.01123,62.0996094 L232.01123,61.4470215 L230.916992,61.4931641 C230.046871,61.5239259 229.419558,61.6590564 229.035034,61.8985596 C228.650511,62.1380627 228.458252,62.5104955 228.458252,63.0158691 C228.458252,63.4113789 228.578002,63.7124013 228.817505,63.9189453 C229.057008,64.1254893 229.392088,64.2287598 229.822754,64.2287598 Z M236.454102,65 L235.359863,65 L235.359863,54.7431641 L236.454102,54.7431641 L236.454102,65 Z M239.855469,61.302002 C240.044435,61.0339342 240.332273,60.6823752 240.718994,60.2473145 L243.05249,57.7753906 L244.351074,57.7753906 L241.424316,60.8537598 L244.55542,65 L243.230469,65 L240.679443,61.5854492 L239.855469,62.2973633 L239.855469,65 L238.774414,65 L238.774414,54.7431641 L239.855469,54.7431641 L239.855469,60.1813965 C239.855469,60.4230969 239.837891,60.7966283 239.802734,61.302002 L239.855469,61.302002 Z M246.954834,65 L245.860596,65 L245.860596,57.7753906 L246.954834,57.7753906 L246.954834,65 Z M245.768311,55.817627 C245.768311,55.5671374 245.829833,55.3836676 245.952881,55.2672119 C246.075928,55.1507563 246.229735,55.0925293 246.414307,55.0925293 C246.590089,55.0925293 246.741699,55.1518549 246.869141,55.2705078 C246.996583,55.3891607 247.060303,55.571532 247.060303,55.817627 C247.060303,56.0637219 246.996583,56.2471918 246.869141,56.368042 C246.741699,56.4888922 246.590089,56.5493164 246.414307,56.5493164 C246.229735,56.5493164 246.075928,56.4888922 245.952881,56.368042 C245.829833,56.2471918 245.768311,56.0637219 245.768311,55.817627 Z M254.218994,65 L254.218994,60.326416 C254.218994,59.7375459 254.084962,59.2980972 253.816895,59.0080566 C253.548827,58.7180161 253.129153,58.572998 252.557861,58.572998 C251.801998,58.572998 251.248293,58.7773417 250.896729,59.1860352 C250.545164,59.5947286 250.369385,60.2692824 250.369385,61.2097168 L250.369385,65 L249.275146,65 L249.275146,57.7753906 L250.165039,57.7753906 L250.343018,58.7641602 L250.395752,58.7641602 C250.619874,58.4082013 250.93408,58.1324473 251.338379,57.9368896 C251.742678,57.741332 252.193113,57.6435547 252.689697,57.6435547 C253.559819,57.6435547 254.214597,57.8533915 254.654053,58.2730713 C255.093508,58.6927511 255.313232,59.3640091 255.313232,60.2868652 L255.313232,65 L254.218994,65 Z M263.473877,57.7753906 L263.473877,58.4675293 L262.135742,58.6257324 C262.25879,58.7795418 262.368652,58.9805896 262.465332,59.2288818 C262.562012,59.4771741 262.610352,59.7573227 262.610352,60.0693359 C262.610352,60.776859 262.368655,61.3415506 261.885254,61.7634277 C261.401853,62.1853048 260.738285,62.3962402 259.894531,62.3962402 C259.679198,62.3962402 259.477052,62.3786623 259.288086,62.3435059 C258.822263,62.5896008 258.589355,62.8994122 258.589355,63.2729492 C258.589355,63.4707041 258.670653,63.6168208 258.833252,63.7113037 C258.99585,63.8057866 259.2749,63.8530273 259.67041,63.8530273 L260.949219,63.8530273 C261.731449,63.8530273 262.332395,64.0178206 262.752075,64.3474121 C263.171755,64.6770036 263.381592,65.1560027 263.381592,65.7844238 C263.381592,66.5842325 263.060794,67.1939676 262.419189,67.6136475 C261.777585,68.0333273 260.841559,68.2431641 259.611084,68.2431641 C258.666255,68.2431641 257.937869,68.0673846 257.425903,67.7158203 C256.913938,67.3642561 256.657959,66.867679 256.657959,66.2260742 C256.657959,65.7866189 256.798583,65.4064957 257.079834,65.0856934 C257.361085,64.764891 257.756589,64.5473639 258.266357,64.4331055 C258.081786,64.349609 257.926881,64.2199716 257.801636,64.0441895 C257.676391,63.8684073 257.61377,63.6640637 257.61377,63.4311523 C257.61377,63.1674792 257.684081,62.9367686 257.824707,62.7390137 C257.965333,62.5412588 258.187254,62.3500986 258.490479,62.1655273 C258.116941,62.011718 257.812623,61.750246 257.577515,61.3811035 C257.342406,61.011961 257.224854,60.5900903 257.224854,60.1154785 C257.224854,59.3244589 257.462156,58.7147238 257.936768,58.2862549 C258.411379,57.8577859 259.083736,57.6435547 259.953857,57.6435547 C260.331789,57.6435547 260.672362,57.6874996 260.975586,57.7753906 L263.473877,57.7753906 Z M257.712646,66.2128906 C257.712646,66.6040059 257.87744,66.9006338 258.207031,67.1027832 C258.536623,67.3049327 259.00903,67.4060059 259.624268,67.4060059 C260.542729,67.4060059 261.222776,67.2686781 261.664429,66.9940186 C262.106081,66.719359 262.326904,66.3469262 262.326904,65.876709 C262.326904,65.4855937 262.206056,65.2142342 261.964355,65.0626221 C261.722655,64.91101 261.267826,64.8352051 260.599854,64.8352051 L259.288086,64.8352051 C258.791501,64.8352051 258.404787,64.9538562 258.12793,65.1911621 C257.851073,65.428468 257.712646,65.7690407 257.712646,66.2128906 Z M258.305908,60.0891113 C258.305908,60.5944849 258.448729,60.9768053 258.734375,61.236084 C259.020021,61.4953626 259.417722,61.625 259.92749,61.625 C260.995367,61.625 261.529297,61.1064505 261.529297,60.0693359 C261.529297,58.9838813 260.988775,58.4411621 259.907715,58.4411621 C259.393552,58.4411621 258.998048,58.5795885 258.721191,58.8564453 C258.444335,59.1333022 258.305908,59.5441867 258.305908,60.0891113 Z M74.4936523,82.2287598 C74.6870127,82.2287598 74.8737784,82.2144777 75.0539551,82.1859131 C75.2341318,82.1573485 75.3769526,82.1276857 75.4824219,82.0969238 L75.4824219,82.934082 C75.3637689,82.9912112 75.1890881,83.038452 74.958374,83.0758057 C74.72766,83.1131594 74.5200205,83.1318359 74.3354492,83.1318359 C72.9379813,83.1318359 72.2392578,82.3957593 72.2392578,80.923584 L72.2392578,76.6257324 L71.2043457,76.6257324 L71.2043457,76.0983887 L72.2392578,75.6435547 L72.7006836,74.1010742 L73.3334961,74.1010742 L73.3334961,75.7753906 L75.4296875,75.7753906 L75.4296875,76.6257324 L73.3334961,76.6257324 L73.3334961,80.8774414 C73.3334961,81.3125022 73.4367665,81.6464832 73.6433105,81.8793945 C73.8498545,82.1123059 74.133299,82.2287598 74.4936523,82.2287598 Z M83.1618652,79.3811035 C83.1618652,80.5588438 82.8652373,81.4783902 82.2719727,82.1397705 C81.678708,82.8011508 80.8591361,83.1318359 79.8132324,83.1318359 C79.1672331,83.1318359 78.5937525,82.9802261 78.0927734,82.677002 C77.5917944,82.3737778 77.2050795,81.9387235 76.9326172,81.3718262 C76.6601549,80.8049288 76.5239258,80.1413612 76.5239258,79.3811035 C76.5239258,78.2033633 76.8183564,77.286014 77.4072266,76.6290283 C77.9960967,75.9720426 78.8134713,75.6435547 79.859375,75.6435547 C80.8701222,75.6435547 81.6732148,75.979733 82.2686768,76.6520996 C82.8641387,77.3244663 83.1618652,78.2341251 83.1618652,79.3811035 Z M77.6577148,79.3811035 C77.6577148,80.3039597 77.8422833,81.0070777 78.2114258,81.4904785 C78.5805683,81.9738794 79.1232874,82.2155762 79.8395996,82.2155762 C80.5559118,82.2155762 81.0997296,81.974978 81.4710693,81.4937744 C81.8424091,81.0125708 82.0280762,80.3083542 82.0280762,79.3811035 C82.0280762,78.4626419 81.8424091,77.765017 81.4710693,77.288208 C81.0997296,76.811399 80.5515173,76.572998 79.826416,76.572998 C79.1101038,76.572998 78.5695819,76.8081031 78.204834,77.2783203 C77.8400861,77.7485375 77.6577148,78.4494582 77.6577148,79.3811035 Z M90.9204102,82.2287598 C91.1137705,82.2287598 91.3005362,82.2144777 91.4807129,82.1859131 C91.6608896,82.1573485 91.8037104,82.1276857 91.9091797,82.0969238 L91.9091797,82.934082 C91.7905268,82.9912112 91.6158459,83.038452 91.3851318,83.0758057 C91.1544178,83.1131594 90.9467783,83.1318359 90.762207,83.1318359 C89.3647391,83.1318359 88.6660156,82.3957593 88.6660156,80.923584 L88.6660156,76.6257324 L87.6311035,76.6257324 L87.6311035,76.0983887 L88.6660156,75.6435547 L89.1274414,74.1010742 L89.7602539,74.1010742 L89.7602539,75.7753906 L91.8564453,75.7753906 L91.8564453,76.6257324 L89.7602539,76.6257324 L89.7602539,80.8774414 C89.7602539,81.3125022 89.8635244,81.6464832 90.0700684,81.8793945 C90.2766124,82.1123059 90.5600568,82.2287598 90.9204102,82.2287598 Z M98.2966309,83 L98.2966309,78.326416 C98.2966309,77.7375459 98.162599,77.2980972 97.8945312,77.0080566 C97.6264635,76.7180161 97.20679,76.572998 96.635498,76.572998 C95.8752403,76.572998 95.3204363,76.779539 94.9710693,77.192627 C94.6217024,77.605715 94.4470215,78.282466 94.4470215,79.2229004 L94.4470215,83 L93.3527832,83 L93.3527832,72.7431641 L94.4470215,72.7431641 L94.4470215,75.8479004 C94.4470215,76.2214374 94.4294435,76.5312488 94.3942871,76.7773438 L94.4602051,76.7773438 C94.6755382,76.430174 94.9820537,76.1566172 95.3797607,75.956665 C95.7774678,75.7567129 96.2311986,75.6567383 96.7409668,75.6567383 C97.624272,75.6567383 98.286741,75.8665751 98.7283936,76.2862549 C99.1700462,76.7059347 99.3908691,77.3727982 99.3908691,78.2868652 L99.3908691,83 L98.2966309,83 Z M104.690674,83.1318359 C103.622797,83.1318359 102.780154,82.8066439 102.16272,82.15625 C101.545285,81.5058561 101.236572,80.602789 101.236572,79.4470215 C101.236572,78.2824649 101.523313,77.3574253 102.096802,76.671875 C102.670291,75.9863247 103.440425,75.6435547 104.407227,75.6435547 C105.312505,75.6435547 106.028806,75.9412812 106.556152,76.5367432 C107.083499,77.1322051 107.347168,77.9177197 107.347168,78.8933105 L107.347168,79.5854492 L102.370361,79.5854492 C102.392334,80.433598 102.606565,81.0773904 103.013062,81.5168457 C103.419558,81.956301 103.99194,82.1760254 104.730225,82.1760254 C105.508061,82.1760254 106.277096,82.0134294 107.037354,81.6882324 L107.037354,82.6638184 C106.650633,82.8308114 106.284792,82.9505612 105.939819,83.0230713 C105.594847,83.0955814 105.178469,83.1318359 104.690674,83.1318359 Z M104.394043,76.5598145 C103.813962,76.5598145 103.351442,76.7487774 103.00647,77.126709 C102.661497,77.5046406 102.458252,78.0275846 102.396729,78.6955566 L106.173828,78.6955566 C106.173828,78.0056118 106.020021,77.4771747 105.712402,77.1102295 C105.404784,76.7432843 104.965335,76.5598145 104.394043,76.5598145 Z M116.081299,83.1318359 C115.611082,83.1318359 115.18152,83.0450448 114.792603,82.87146 C114.403685,82.6978751 114.077394,82.43091 113.813721,82.0705566 L113.734619,82.0705566 C113.787354,82.4924338 113.813721,82.8923321 113.813721,83.2702637 L113.813721,86.2431641 L112.719482,86.2431641 L112.719482,75.7753906 L113.609375,75.7753906 L113.760986,76.7641602 L113.813721,76.7641602 C114.094972,76.3686504 114.422361,76.0830087 114.795898,75.9072266 C115.169435,75.7314444 115.597898,75.6435547 116.081299,75.6435547 C117.039311,75.6435547 117.778684,75.970944 118.299438,76.6257324 C118.820193,77.2805209 119.080566,78.1989687 119.080566,79.3811035 C119.080566,80.5676329 118.815799,81.4893766 118.286255,82.1463623 C117.756711,82.803348 117.021733,83.1318359 116.081299,83.1318359 Z M115.923096,76.572998 C115.184811,76.572998 114.650881,76.7773417 114.321289,77.1860352 C113.991698,77.5947286 113.82251,78.2451127 113.813721,79.137207 L113.813721,79.3811035 C113.813721,80.3962453 113.982908,81.1224343 114.321289,81.5596924 C114.65967,81.9969504 115.202389,82.2155762 115.949463,82.2155762 C116.573489,82.2155762 117.062376,81.9628932 117.416138,81.4575195 C117.769899,80.9521459 117.946777,80.2556197 117.946777,79.3679199 C117.946777,78.4670365 117.769899,77.7760034 117.416138,77.2947998 C117.062376,76.8135962 116.5647,76.572998 115.923096,76.572998 Z M122.020508,75.7753906 L122.020508,80.4621582 C122.020508,81.0510283 122.15454,81.4904771 122.422607,81.7805176 C122.690675,82.0705581 123.110349,82.2155762 123.681641,82.2155762 C124.437504,82.2155762 124.990111,82.0090353 125.339478,81.5959473 C125.688845,81.1828593 125.863525,80.5083055 125.863525,79.5722656 L125.863525,75.7753906 L126.957764,75.7753906 L126.957764,83 L126.054688,83 L125.896484,82.0310059 L125.837158,82.0310059 C125.613036,82.3869647 125.302126,82.6594229 124.904419,82.8483887 C124.506712,83.0373545 124.052981,83.1318359 123.543213,83.1318359 C122.664302,83.1318359 122.006228,82.9230978 121.56897,82.5056152 C121.131712,82.0881327 120.913086,81.4201706 120.913086,80.501709 L120.913086,75.7753906 L122.020508,75.7753906 Z M138.486816,83 L138.486816,78.3000488 C138.486816,77.7243624 138.363771,77.292604 138.117676,77.0047607 C137.871581,76.7169175 137.48926,76.572998 136.970703,76.572998 C136.289547,76.572998 135.786379,76.7685527 135.461182,77.159668 C135.135985,77.5507832 134.973389,78.152828 134.973389,78.9658203 L134.973389,83 L133.87915,83 L133.87915,78.3000488 C133.87915,77.7243624 133.756105,77.292604 133.51001,77.0047607 C133.263915,76.7169175 132.879397,76.572998 132.356445,76.572998 C131.670895,76.572998 131.168825,76.7784403 130.85022,77.1893311 C130.531615,77.6002218 130.372314,78.273677 130.372314,79.2097168 L130.372314,83 L129.278076,83 L129.278076,75.7753906 L130.167969,75.7753906 L130.345947,76.7641602 L130.398682,76.7641602 C130.605226,76.4125959 130.89636,76.1379404 131.272095,75.9401855 C131.647829,75.7424307 132.068601,75.6435547 132.534424,75.6435547 C133.663824,75.6435547 134.402098,76.052242 134.749268,76.8696289 L134.802002,76.8696289 C135.017335,76.4916973 135.329344,76.1928722 135.738037,75.9731445 C136.146731,75.7534169 136.612546,75.6435547 137.135498,75.6435547 C137.952885,75.6435547 138.564817,75.8533915 138.971313,76.2730713 C139.37781,76.6927511 139.581055,77.3640091 139.581055,78.2868652 L139.581055,83 L138.486816,83 Z M145.197266,83.1318359 C144.727048,83.1318359 144.297487,83.0450448 143.908569,82.87146 C143.519651,82.6978751 143.193361,82.43091 142.929688,82.0705566 L142.850586,82.0705566 C142.903321,82.4924338 142.929688,82.8923321 142.929688,83.2702637 L142.929688,86.2431641 L141.835449,86.2431641 L141.835449,75.7753906 L142.725342,75.7753906 L142.876953,76.7641602 L142.929688,76.7641602 C143.210939,76.3686504 143.538328,76.0830087 143.911865,75.9072266 C144.285402,75.7314444 144.713865,75.6435547 145.197266,75.6435547 C146.155278,75.6435547 146.894651,75.970944 147.415405,76.6257324 C147.93616,77.2805209 148.196533,78.1989687 148.196533,79.3811035 C148.196533,80.5676329 147.931765,81.4893766 147.402222,82.1463623 C146.872678,82.803348 146.1377,83.1318359 145.197266,83.1318359 Z M145.039062,76.572998 C144.300778,76.572998 143.766847,76.7773417 143.437256,77.1860352 C143.107664,77.5947286 142.938477,78.2451127 142.929688,79.137207 L142.929688,79.3811035 C142.929688,80.3962453 143.098875,81.1224343 143.437256,81.5596924 C143.775636,81.9969504 144.318356,82.2155762 145.06543,82.2155762 C145.689456,82.2155762 146.178343,81.9628932 146.532104,81.4575195 C146.885866,80.9521459 147.062744,80.2556197 147.062744,79.3679199 C147.062744,78.4670365 146.885866,77.7760034 146.532104,77.2947998 C146.178343,76.8135962 145.680667,76.572998 145.039062,76.572998 Z M158.275391,81.0290527 C158.275391,81.7014194 158.024905,82.2199689 157.523926,82.5847168 C157.022947,82.9494647 156.319829,83.1318359 155.414551,83.1318359 C154.456538,83.1318359 153.709475,82.9802261 153.17334,82.677002 L153.17334,81.6618652 C153.52051,81.8376474 153.892942,81.9760737 154.290649,82.0771484 C154.688356,82.1782232 155.071775,82.2287598 155.440918,82.2287598 C156.01221,82.2287598 156.451659,82.1375742 156.759277,81.9552002 C157.066896,81.7728262 157.220703,81.4948749 157.220703,81.1213379 C157.220703,80.8400865 157.098756,80.5994883 156.854858,80.3995361 C156.610961,80.199584 156.135257,79.9633803 155.427734,79.690918 C154.755368,79.4404284 154.277467,79.2218027 153.994019,79.0350342 C153.71057,78.8482657 153.499634,78.6362317 153.361206,78.3989258 C153.222778,78.1616199 153.153564,77.8781755 153.153564,77.548584 C153.153564,76.9597139 153.393064,76.4949968 153.87207,76.1544189 C154.351077,75.8138411 155.008052,75.6435547 155.843018,75.6435547 C156.620853,75.6435547 157.3811,75.8017562 158.123779,76.1181641 L157.734863,77.0080566 C157.009762,76.709227 156.352786,76.5598145 155.763916,76.5598145 C155.245359,76.5598145 154.854249,76.6411125 154.590576,76.8037109 C154.326903,76.9663094 154.195068,77.1904283 154.195068,77.4760742 C154.195068,77.6694346 154.244506,77.8342278 154.343384,77.970459 C154.442261,78.1066901 154.601561,78.2363275 154.821289,78.359375 C155.041017,78.4824225 155.462888,78.6603992 156.086914,78.8933105 C156.943852,79.2053238 157.522826,79.5195297 157.823853,79.8359375 C158.124879,80.1523453 158.275391,80.5500464 158.275391,81.0290527 Z M165.954834,83 L164.629883,78.7614746 C164.546386,78.502196 164.390382,77.9133347 164.161865,76.994873 L164.109131,76.994873 C163.933349,77.7639199 163.779542,78.3571756 163.647705,78.7746582 L162.283203,83 L161.017578,83 L159.046631,75.7753906 L160.193604,75.7753906 C160.659426,77.5903411 161.014281,78.9724074 161.258179,79.9216309 C161.502076,80.8708544 161.641601,81.5102523 161.676758,81.8398438 L161.729492,81.8398438 C161.777832,81.5893542 161.855834,81.2652608 161.963501,80.8675537 C162.071168,80.4698466 162.16455,80.1545422 162.243652,79.9216309 L163.568604,75.7753906 L164.755127,75.7753906 L166.047119,79.9216309 C166.293214,80.677494 166.460205,81.3124974 166.548096,81.8266602 L166.60083,81.8266602 C166.618408,81.6684562 166.665649,81.4245622 166.742554,81.0949707 C166.819458,80.7653792 167.277584,78.9922036 168.116943,75.7753906 L169.250732,75.7753906 L167.253418,83 L165.954834,83 Z M171.650146,83 L170.555908,83 L170.555908,75.7753906 L171.650146,75.7753906 L171.650146,83 Z M170.463623,73.817627 C170.463623,73.5671374 170.525146,73.3836676 170.648193,73.2672119 C170.771241,73.1507563 170.925048,73.0925293 171.109619,73.0925293 C171.285401,73.0925293 171.437011,73.1518549 171.564453,73.2705078 C171.691895,73.3891607 171.755615,73.571532 171.755615,73.817627 C171.755615,74.0637219 171.691895,74.2471918 171.564453,74.368042 C171.437011,74.4888922 171.285401,74.5493164 171.109619,74.5493164 C170.925048,74.5493164 170.771241,74.4888922 170.648193,74.368042 C170.525146,74.2471918 170.463623,74.0637219 170.463623,73.817627 Z M176.303955,82.2287598 C176.497315,82.2287598 176.684081,82.2144777 176.864258,82.1859131 C177.044434,82.1573485 177.187255,82.1276857 177.292725,82.0969238 L177.292725,82.934082 C177.174072,82.9912112 176.999391,83.038452 176.768677,83.0758057 C176.537963,83.1131594 176.330323,83.1318359 176.145752,83.1318359 C174.748284,83.1318359 174.049561,82.3957593 174.049561,80.923584 L174.049561,76.6257324 L173.014648,76.6257324 L173.014648,76.0983887 L174.049561,75.6435547 L174.510986,74.1010742 L175.143799,74.1010742 L175.143799,75.7753906 L177.23999,75.7753906 L177.23999,76.6257324 L175.143799,76.6257324 L175.143799,80.8774414 C175.143799,81.3125022 175.247069,81.6464832 175.453613,81.8793945 C175.660157,82.1123059 175.943602,82.2287598 176.303955,82.2287598 Z M181.623535,83.1318359 C180.577631,83.1318359 179.767947,82.8099397 179.194458,82.1661377 C178.620969,81.5223356 178.334229,80.6115782 178.334229,79.4338379 C178.334229,78.2253358 178.625363,77.2915072 179.207642,76.6323242 C179.78992,75.9731412 180.619379,75.6435547 181.696045,75.6435547 C182.043215,75.6435547 182.390379,75.6809078 182.737549,75.7556152 C183.084719,75.8303226 183.357177,75.9182124 183.554932,76.0192871 L183.21875,76.9487305 C182.97705,76.8520503 182.71338,76.7718509 182.427734,76.7081299 C182.142088,76.6444089 181.889405,76.6125488 181.669678,76.6125488 C180.201897,76.6125488 179.468018,77.5485746 179.468018,79.4206543 C179.468018,80.308354 179.647093,80.9894996 180.005249,81.4641113 C180.363405,81.9387231 180.894039,82.1760254 181.597168,82.1760254 C182.199222,82.1760254 182.816647,82.046388 183.449463,81.7871094 L183.449463,82.7561035 C182.966062,83.006593 182.357426,83.1318359 181.623535,83.1318359 Z M190.107178,83 L190.107178,78.326416 C190.107178,77.7375459 189.973146,77.2980972 189.705078,77.0080566 C189.43701,76.7180161 189.017337,76.572998 188.446045,76.572998 C187.685787,76.572998 187.130983,76.779539 186.781616,77.192627 C186.432249,77.605715 186.257568,78.282466 186.257568,79.2229004 L186.257568,83 L185.16333,83 L185.16333,72.7431641 L186.257568,72.7431641 L186.257568,75.8479004 C186.257568,76.2214374 186.23999,76.5312488 186.204834,76.7773438 L186.270752,76.7773438 C186.486085,76.430174 186.792601,76.1566172 187.190308,75.956665 C187.588015,75.7567129 188.041745,75.6567383 188.551514,75.6567383 C189.434819,75.6567383 190.097288,75.8665751 190.53894,76.2862549 C190.980593,76.7059347 191.201416,77.3727982 191.201416,78.2868652 L191.201416,83 L190.107178,83 Z" id="Iwanttobeabletofllthetankremotely,withoutwalkingtothepumpswitch" fill="#032A2F" fill-rule="nonzero"></path>
                    <g id="Group-2" transform="translate(13.500000, 10.500000)">
                        <polygon id="Path-40" stroke="#026F8B" stroke-width="0.75" stroke-linecap="square" points="10.2214286 31.3181818 6.24642857 34.3295455 6.24642857 39.75 34.6392857 39.75 34.6392857 34.3295455 31.2321429 31.3181818"></polygon>
                        <ellipse id="Oval" stroke="#026F8B" stroke-width="2.25" cx="20.1589286" cy="17.1647727" rx="8.24464286" ry="8.8125"></ellipse>
                        <ellipse id="Oval-Copy" fill="#026F8B" cx="20.1589286" cy="17.1647727" rx="1.9875" ry="2.10795455"></ellipse>
                        <path d="M12.4928571,22.8863636 L12.4928571,31.3181818" id="Path-41" stroke="#026F8B" stroke-width="0.75" stroke-linecap="square"></path>
                        <path d="M27.825,22.8863636 L27.825,31.3181818" id="Path-41-Copy" stroke="#026F8B" stroke-width="0.75" stroke-linecap="square"></path>
                        <path d="M17.0357143,7.85686516 L17.0357143,1.20454545" id="Path-42" stroke="#026F8B" stroke-width="0.75" stroke-linecap="square"></path>
                        <path d="M23.2821429,7.85686516 L23.2821429,1.20454545" id="Path-42-Copy" stroke="#026F8B" stroke-width="0.75" stroke-linecap="square"></path>
                        <polygon id="Path-43" stroke="#026F8B" stroke-width="0.75" fill="#FFFFFF" stroke-linecap="square" points="13.0607143 0 15.3321429 4.81818182 24.9857143 4.81818182 26.6892857 0"></polygon>
                        <polyline id="Path-44" stroke="#026F8B" stroke-width="0.75" stroke-linecap="square" points="26.1214286 9.63636364 39.75 9.63636364 39.75 24.7052225 31.7176739 24.7052225 31.7176739 20.4763712 28.9607142 20.4763712"></polyline>
                        <polyline id="Path-45" stroke="#026F8B" stroke-width="0.75" stroke-linecap="square" points="33.5035714 25.2954545 33.5035714 28.3068182 38.0817821 28.3068182 38.0817821 25.2952211"></polyline>
                        <path d="M12.4928571,27.1022727 C12.4928571,27.1022727 7.38214286,27.1022727 7.38214286,23.4886364 L0.567857143,23.4886364 C0.567857143,23.4886364 2.31870079e-12,30.7159091 5.67857143,34.9318182" id="Path-46" stroke="#026F8B" stroke-width="0.75" stroke-linecap="square"></path>
                        <polyline id="Path-47" stroke="#026F8B" stroke-width="0.75" stroke-linecap="square" points="2.27142857 23.4886364 2.27142857 20.4772727 5.67857143 20.4772727 5.67857143 23.4886364"></polyline>
                    </g>
                </g>
            </g>
        </g>
    </g>
</svg>