<?xml version="1.0" encoding="UTF-8"?>
<svg width="350px" height="124px" viewBox="0 0 350 124" version="1.1" xmlns="http://www.w3.org/2000/svg" xmlns:xlink="http://www.w3.org/1999/xlink">
    <!-- Generator: Sketch 42 (36781) - http://www.bohemiancoding.com/sketch -->
    <title>userneed2</title>
    <desc>Created with Sketch.</desc>
    <defs>
        <ellipse id="path-1" cx="26.8785714" cy="22.8863636" rx="12.4928571" ry="13.25"></ellipse>
        <mask id="mask-2" maskContentUnits="userSpaceOnUse" maskUnits="objectBoundingBox" x="0" y="0" width="24.9857143" height="26.5" fill="white">
            <use xlink:href="#path-1"></use>
        </mask>
    </defs>
    <g id="Poster" stroke="none" stroke-width="1" fill="none" fill-rule="evenodd">
        <g id="Artboard-5" transform="translate(-144.000000, -1686.000000)">
            <g id="userneed2" transform="translate(144.000000, 1686.000000)">
                <rect id="Rectangle-2" fill="#FFFFFF" x="0" y="0" width="350" height="124"></rect>
                <text id="User-Need-2" font-family="Roboto-MediumItalic, Roboto" font-size="18" font-style="italic" font-weight="500" fill="#032A2F">
                    <tspan x="95" y="27">User Need 2</tspan>
                </text>
                <text id="I-want-to-be-able-to" font-family="Roboto-Italic, Roboto" font-size="18" font-style="italic" font-weight="normal" fill="#032A2F">
                    <tspan x="95" y="59">I want to be able to fill the </tspan>
                    <tspan x="95" y="83">tank remotely, without walking </tspan>
                    <tspan x="95" y="107">to the pump switch</tspan>
                </text>
                <g id="Group-2" transform="translate(18.000000, 14.000000)">
                    <polygon id="Path-40" stroke="#026F8B" stroke-linecap="square" points="13.6285714 41.7575758 8.32857143 45.7727273 8.32857143 53 46.1857143 53 46.1857143 45.7727273 41.6428571 41.7575758"></polygon>
                    <use id="Oval" stroke="#026F8B" mask="url(#mask-2)" stroke-width="6" stroke-linecap="square" xlink:href="#path-1"></use>
                    <ellipse id="Oval-Copy" fill="#026F8B" cx="26.8785714" cy="22.8863636" rx="2.65" ry="2.81060606"></ellipse>
                    <path d="M16.6571429,30.5151515 L16.6571429,41.7575758" id="Path-41" stroke="#026F8B" stroke-linecap="square"></path>
                    <path d="M37.1,30.5151515 L37.1,41.7575758" id="Path-41-Copy" stroke="#026F8B" stroke-linecap="square"></path>
                    <path d="M22.7142857,10.4758202 L22.7142857,1.60606061" id="Path-42" stroke="#026F8B" stroke-linecap="square"></path>
                    <path d="M31.0428571,10.4758202 L31.0428571,1.60606061" id="Path-42-Copy" stroke="#026F8B" stroke-linecap="square"></path>
                    <polygon id="Path-43" stroke="#026F8B" stroke-linecap="square" fill="#FFFFFF" points="17.4142857 0 20.4428571 6.42424242 33.3142857 6.42424242 35.5857143 0"></polygon>
                    <polyline id="Path-44" stroke="#026F8B" stroke-linecap="square" points="34.8285714 12.8484848 53 12.8484848 53 32.9402966 42.2902319 32.9402966 42.2902319 27.3018283 38.6142855 27.3018283"></polyline>
                    <polyline id="Path-45" stroke="#026F8B" stroke-linecap="square" points="44.6714286 33.7272727 44.6714286 37.7424242 50.7757094 37.7424242 50.7757094 33.7269615"></polyline>
                    <path d="M16.6571429,36.1363636 C16.6571429,36.1363636 9.84285714,36.1363636 9.84285714,31.3181818 L0.757142857,31.3181818 C0.757142857,31.3181818 3.09141601e-12,40.9545455 7.57142857,46.5757576" id="Path-46" stroke="#026F8B" stroke-linecap="square"></path>
                    <polyline id="Path-47" stroke="#026F8B" stroke-linecap="square" points="3.02857143 31.3181818 3.02857143 27.3030303 7.57142857 27.3030303 7.57142857 31.3181818"></polyline>
                </g>
            </g>
        </g>
    </g>
</svg>