<?xml version="1.0" encoding="UTF-8"?>
<svg width="277px" height="93px" viewBox="0 0 277 93" version="1.1" xmlns="http://www.w3.org/2000/svg" xmlns:xlink="http://www.w3.org/1999/xlink">
    <!-- Generator: Sketch 53.2 (72643) - https://sketchapp.com -->
    <title>userneed1</title>
    <desc>Created with Sketch.</desc>
    <g id="Poster" stroke="none" stroke-width="1" fill="none" fill-rule="evenodd">
        <g id="Desktop-HD-Copy-2" transform="translate(-589.000000, -4987.000000)">
            <g id="Group-9" transform="translate(248.000000, 4987.000000)">
                <g id="userneed1" transform="translate(341.250000, 0.000000)">
                    <rect id="Rectangle-2" fill="#FFFFFF" x="0" y="0" width="262.5" height="93"></rect>
                    <g id="Group" transform="translate(13.500000, 8.000000)">
                        <path d="M5.89783919e-14,42.25 L40.4791811,42.25 L40.4791811,3.24707316 C40.4791811,2.00604892 39.4785666,1 38.2306668,1 L2.24851425,1 C1.00669412,1 -2.32775292e-15,1.99922955 -4.27156229e-16,3.24707316 L5.89783919e-14,42.25 Z" id="Path-38" stroke="#026F8B" stroke-width="0.75" stroke-linecap="square"></path>
                        <rect id="Rectangle" fill="#026F8B" x="3.11320755" y="30.5754717" width="34.245283" height="9.33962264"></rect>
                        <path d="M19.0389197,17.5507628 L19.0389197,16.9413878 C19.0389197,16.2431421 19.1658716,15.6623374 19.4197791,15.1989562 C19.6736866,14.735575 20.1180181,14.2563317 20.7527869,13.761212 C21.5081618,13.1645294 21.9953395,12.7011551 22.2143347,12.3710753 C22.43333,12.0409955 22.542826,11.6474448 22.542826,11.1904113 C22.542826,10.6572055 22.3650934,10.2477857 22.0096228,9.96213978 C21.6541523,9.67649382 21.1431711,9.53367298 20.4766638,9.53367298 C19.8736335,9.53367298 19.3150453,9.61936548 18.8008826,9.79075306 C18.2867199,9.96214063 17.78526,10.1684374 17.2964881,10.4096495 L16.4966834,8.73386829 C17.785264,8.01657955 19.1658655,7.65794056 20.6385291,7.65794056 C21.8826759,7.65794056 22.8697266,7.96262501 23.5997107,8.57200306 C24.3296948,9.18138111 24.6946814,10.0224371 24.6946814,11.0951964 C24.6946814,11.571273 24.6248579,11.9949748 24.4852088,12.3663146 C24.3455596,12.7376543 24.1345022,13.0915326 23.8520301,13.4279601 C23.5695579,13.7643876 23.0823802,14.2023715 22.3904822,14.7419249 C21.8001472,15.2053062 21.4050096,15.5893355 21.2050574,15.8940245 C21.0051052,16.1987136 20.9051306,16.6081333 20.9051306,17.122296 L20.9051306,17.5507628 L19.0389197,17.5507628 Z M18.6485388,20.5881163 C18.6485388,19.6296155 19.1150869,19.1503722 20.048197,19.1503722 C20.5052306,19.1503722 20.8543482,19.2757372 21.0955603,19.5264708 C21.3367725,19.7772045 21.4573767,20.1310828 21.4573767,20.5881163 C21.4573767,21.0388022 21.3351856,21.3958543 21.0907996,21.6592833 C20.8464136,21.9227124 20.4988829,22.0544249 20.048197,22.0544249 C19.5975112,22.0544249 19.2515674,21.9258862 19.0103552,21.6688048 C18.7691431,21.4117235 18.6485388,21.0514976 18.6485388,20.5881163 Z" id="?" fill="#026F8B" fill-rule="nonzero"></path>
                    </g>
                    <path d="M80.826416,10.362793 L80.826416,16.5986328 C80.826416,17.3105504 80.6737076,17.933469 80.3682861,18.4674072 C80.0628647,19.0013454 79.6212187,19.41223 79.043335,19.7000732 C78.4654512,19.9879165 77.7744181,20.1318359 76.9702148,20.1318359 C75.7748964,20.1318359 74.8454623,19.8154329 74.1818848,19.1826172 C73.5183072,18.5498015 73.1865234,17.679693 73.1865234,16.5722656 L73.1865234,10.362793 L74.7685547,10.362793 L74.7685547,16.4602051 C74.7685547,17.2556192 74.9531232,17.8422833 75.3222656,18.2202148 C75.6914081,18.5981464 76.258297,18.7871094 77.0229492,18.7871094 C78.5083082,18.7871094 79.2509766,18.0070879 79.2509766,16.4470215 L79.2509766,10.362793 L80.826416,10.362793 Z M88.0246582,17.923584 C88.0246582,18.6355016 87.7653835,19.1815167 87.2468262,19.5616455 C86.7282689,19.9417744 85.9856005,20.1318359 85.0187988,20.1318359 C84.0476026,20.1318359 83.2675811,19.9846206 82.6787109,19.6901855 L82.6787109,18.3520508 C83.5356488,18.7475606 84.3332483,18.9453125 85.0715332,18.9453125 C86.0251513,18.9453125 86.5019531,18.6574736 86.5019531,18.0817871 C86.5019531,17.8972159 86.4492193,17.7434088 86.34375,17.6203613 C86.2382807,17.4973138 86.0646985,17.3698737 85.822998,17.2380371 C85.5812976,17.1062005 85.2451193,16.9567879 84.8144531,16.7897949 C83.9750935,16.464598 83.407106,16.1394059 83.1104736,15.814209 C82.8138413,15.489012 82.6655273,15.0671413 82.6655273,14.548584 C82.6655273,13.9245574 82.9171117,13.4400652 83.4202881,13.0950928 C83.9234644,12.7501203 84.6079058,12.5776367 85.4736328,12.5776367 C86.3305707,12.5776367 87.1413536,12.751219 87.9060059,13.0983887 L87.4050293,14.2651367 C86.6184043,13.9399398 85.9570339,13.7773438 85.4208984,13.7773438 C84.6035115,13.7773438 84.1948242,14.0102516 84.1948242,14.4760742 C84.1948242,14.704591 84.3013905,14.8979484 84.5145264,15.0561523 C84.7276622,15.2143563 85.1923792,15.4318834 85.9086914,15.7087402 C86.5107452,15.9416516 86.9479967,16.1547842 87.220459,16.3481445 C87.4929213,16.5415049 87.6950677,16.7645251 87.8269043,17.0172119 C87.9587409,17.2698987 88.0246582,17.5720197 88.0246582,17.923584 Z M92.8828125,20.1318359 C91.7490178,20.1318359 90.86243,19.8011508 90.2230225,19.1397705 C89.583615,18.4783902 89.263916,17.5676328 89.263916,16.4074707 C89.263916,15.2165468 89.5605439,14.280521 90.1538086,13.5993652 C90.7470733,12.9182095 91.5622507,12.5776367 92.5993652,12.5776367 C93.5617724,12.5776367 94.3220187,12.8698701 94.880127,13.4543457 C95.4382352,14.0388213 95.7172852,14.8430125 95.7172852,15.8669434 L95.7172852,16.7041016 L90.8591309,16.7041016 C90.8811036,17.4116246 91.0722638,17.9554424 91.4326172,18.3355713 C91.7929706,18.7157001 92.3005338,18.9057617 92.9553223,18.9057617 C93.3859885,18.9057617 93.7869854,18.8651127 94.1583252,18.7838135 C94.5296649,18.7025142 94.9284647,18.5673838 95.3547363,18.378418 L95.3547363,19.6374512 C94.9768048,19.8176279 94.5944844,19.945068 94.2077637,20.0197754 C93.821043,20.0944828 93.379397,20.1318359 92.8828125,20.1318359 Z M92.5993652,13.7509766 C92.1071753,13.7509766 91.71277,13.9069809 91.4161377,14.2189941 C91.1195054,14.5310074 90.9426272,14.9858369 90.885498,15.5834961 L94.1945801,15.5834961 C94.185791,14.9814423 94.0407729,14.5255142 93.7595215,14.2156982 C93.4782701,13.9058822 93.0915552,13.7509766 92.5993652,13.7509766 Z M101.175293,12.5776367 C101.487306,12.5776367 101.744384,12.5996092 101.946533,12.6435547 L101.794922,14.0871582 C101.575194,14.0344236 101.346681,14.0080566 101.109375,14.0080566 C100.489743,14.0080566 99.9876728,14.2102031 99.6031494,14.614502 C99.218626,15.0188008 99.0263672,15.5439421 99.0263672,16.1899414 L99.0263672,20 L97.4772949,20 L97.4772949,12.7094727 L98.6901855,12.7094727 L98.8945312,13.994873 L98.9736328,13.994873 C99.2153332,13.5598123 99.5306377,13.214845 99.9195557,12.9599609 C100.308474,12.7050769 100.727049,12.5776367 101.175293,12.5776367 Z M114.998291,20 L113.066895,20 L108.327393,12.3205566 L108.274658,12.3205566 L108.307617,12.7490234 C108.369141,13.5664103 108.399902,14.3134732 108.399902,14.9902344 L108.399902,20 L106.969482,20 L106.969482,10.362793 L108.881104,10.362793 L113.607422,18.0026855 L113.646973,18.0026855 C113.638184,17.9016108 113.620606,17.5335725 113.594238,16.8985596 C113.567871,16.2635466 113.554688,15.7680682 113.554688,15.4121094 L113.554688,10.362793 L114.998291,10.362793 L114.998291,20 Z M120.561768,20.1318359 C119.427973,20.1318359 118.541385,19.8011508 117.901978,19.1397705 C117.26257,18.4783902 116.942871,17.5676328 116.942871,16.4074707 C116.942871,15.2165468 117.239499,14.280521 117.832764,13.5993652 C118.426028,12.9182095 119.241206,12.5776367 120.27832,12.5776367 C121.240727,12.5776367 122.000974,12.8698701 122.559082,13.4543457 C123.11719,14.0388213 123.39624,14.8430125 123.39624,15.8669434 L123.39624,16.7041016 L118.538086,16.7041016 C118.560059,17.4116246 118.751219,17.9554424 119.111572,18.3355713 C119.471926,18.7157001 119.979489,18.9057617 120.634277,18.9057617 C121.064944,18.9057617 121.465941,18.8651127 121.83728,18.7838135 C122.20862,18.7025142 122.60742,18.5673838 123.033691,18.378418 L123.033691,19.6374512 C122.65576,19.8176279 122.273439,19.945068 121.886719,20.0197754 C121.499998,20.0944828 121.058352,20.1318359 120.561768,20.1318359 Z M120.27832,13.7509766 C119.78613,13.7509766 119.391725,13.9069809 119.095093,14.2189941 C118.79846,14.5310074 118.621582,14.9858369 118.564453,15.5834961 L121.873535,15.5834961 C121.864746,14.9814423 121.719728,14.5255142 121.438477,14.2156982 C121.157225,13.9058822 120.77051,13.7509766 120.27832,13.7509766 Z M128.340088,20.1318359 C127.206293,20.1318359 126.319705,19.8011508 125.680298,19.1397705 C125.04089,18.4783902 124.721191,17.5676328 124.721191,16.4074707 C124.721191,15.2165468 125.017819,14.280521 125.611084,13.5993652 C126.204349,12.9182095 127.019526,12.5776367 128.056641,12.5776367 C129.019048,12.5776367 129.779294,12.8698701 130.337402,13.4543457 C130.895511,14.0388213 131.174561,14.8430125 131.174561,15.8669434 L131.174561,16.7041016 L126.316406,16.7041016 C126.338379,17.4116246 126.529539,17.9554424 126.889893,18.3355713 C127.250246,18.7157001 127.757809,18.9057617 128.412598,18.9057617 C128.843264,18.9057617 129.244261,18.8651127 129.615601,18.7838135 C129.98694,18.7025142 130.38574,18.5673838 130.812012,18.378418 L130.812012,19.6374512 C130.43408,19.8176279 130.05176,19.945068 129.665039,20.0197754 C129.278318,20.0944828 128.836672,20.1318359 128.340088,20.1318359 Z M128.056641,13.7509766 C127.564451,13.7509766 127.170045,13.9069809 126.873413,14.2189941 C126.576781,14.5310074 126.399903,14.9858369 126.342773,15.5834961 L129.651855,15.5834961 C129.643066,14.9814423 129.498048,14.5255142 129.216797,14.2156982 C128.935545,13.9058822 128.548831,13.7509766 128.056641,13.7509766 Z M135.393311,20.1318359 C134.483638,20.1318359 133.773928,19.8022494 133.26416,19.1430664 C132.754392,18.4838834 132.499512,17.5588438 132.499512,16.3679199 C132.499512,15.1726014 132.757688,14.2420688 133.274048,13.5762939 C133.790408,12.9105191 134.505611,12.5776367 135.419678,12.5776367 C136.37769,12.5776367 137.107175,12.9313929 137.608154,13.638916 L137.687256,13.638916 C137.612548,13.1159642 137.575195,12.7028824 137.575195,12.3996582 L137.575195,9.74316406 L139.130859,9.74316406 L139.130859,20 L137.917969,20 L137.647705,19.0441895 L137.575195,19.0441895 C137.078611,19.7692907 136.351323,20.1318359 135.393311,20.1318359 Z M135.808594,18.8793945 C136.445804,18.8793945 136.909422,18.7003192 137.199463,18.3421631 C137.489503,17.984007 137.638916,17.4028361 137.647705,16.5986328 L137.647705,16.3811035 C137.647705,15.4626419 137.498293,14.8100605 137.199463,14.4233398 C136.900633,14.0366192 136.43262,13.8432617 135.79541,13.8432617 C135.250486,13.8432617 134.830812,14.0640847 134.536377,14.5057373 C134.241942,14.9473899 134.094727,15.5769002 134.094727,16.3942871 C134.094727,17.2028849 134.237547,17.8192117 134.523193,18.2432861 C134.808839,18.6673605 135.237302,18.8793945 135.808594,18.8793945 Z M148.886719,20 L147.337646,20 L147.337646,13.7773438 C147.337646,13.0346643 147.355224,12.445803 147.390381,12.0107422 C147.289306,12.1162115 147.165162,12.2326654 147.017944,12.3601074 C146.870727,12.4875495 146.377446,12.8918423 145.538086,13.572998 L144.760254,12.5908203 L147.594727,10.362793 L148.886719,10.362793 L148.886719,20 Z" id="UserNeed1" fill="#032A2F" fill-rule="nonzero"></path>
                    <path d="M73.3249512,47 L73.3249512,37.362793 L74.4455566,37.362793 L74.4455566,47 L73.3249512,47 Z M86.3305664,47 L85.0056152,42.7614746 C84.9221187,42.502196 84.7661144,41.9133347 84.5375977,40.994873 L84.4848633,40.994873 C84.3090812,41.7639199 84.1552741,42.3571756 84.0234375,42.7746582 L82.6589355,47 L81.3933105,47 L79.4223633,39.7753906 L80.5693359,39.7753906 C81.0351586,41.5903411 81.3900134,42.9724074 81.6339111,43.9216309 C81.8778088,44.8708544 82.0173338,45.5102523 82.0524902,45.8398438 L82.1052246,45.8398438 C82.1535647,45.5893542 82.2315668,45.2652608 82.3392334,44.8675537 C82.4469,44.4698466 82.5402828,44.1545422 82.6193848,43.9216309 L83.9443359,39.7753906 L85.1308594,39.7753906 L86.4228516,43.9216309 C86.6689465,44.677494 86.8359371,45.3124974 86.9238281,45.8266602 L86.9765625,45.8266602 C86.9941407,45.6684562 87.0413815,45.4245622 87.1182861,45.0949707 C87.1951908,44.7653792 87.6533161,42.9922036 88.4926758,39.7753906 L89.6264648,39.7753906 L87.6291504,47 L86.3305664,47 Z M95.3745117,47 L95.1569824,45.9716797 L95.104248,45.9716797 C94.7438947,46.4243187 94.3846453,46.7308342 94.0264893,46.8912354 C93.6683332,47.0516365 93.2211941,47.1318359 92.6850586,47.1318359 C91.9687464,47.1318359 91.4073507,46.9472675 91.0008545,46.578125 C90.5943583,46.2089825 90.3911133,45.6838413 90.3911133,45.0026855 C90.3911133,43.5436939 91.5578497,42.7790531 93.8913574,42.7087402 L95.1174316,42.6691895 L95.1174316,42.2209473 C95.1174316,41.6540499 94.9954846,41.235475 94.7515869,40.96521 C94.5076892,40.6949449 94.1176785,40.5598145 93.581543,40.5598145 C92.9794892,40.5598145 92.2983436,40.7443829 91.5380859,41.1135254 L91.2019043,40.2763672 C91.5578631,40.0830068 91.9478739,39.931397 92.3719482,39.8215332 C92.7960226,39.7116694 93.2211893,39.6567383 93.6474609,39.6567383 C94.5087934,39.6567383 95.1470927,39.8478985 95.5623779,40.2302246 C95.9776632,40.6125507 96.1853027,41.2255817 96.1853027,42.0693359 L96.1853027,47 L95.3745117,47 Z M92.9025879,46.2287598 C93.5837436,46.2287598 94.1187725,46.0419941 94.5076904,45.668457 C94.8966084,45.29492 95.0910645,44.771976 95.0910645,44.0996094 L95.0910645,43.4470215 L93.9968262,43.4931641 C93.1267046,43.5239259 92.4993916,43.6590564 92.1148682,43.8985596 C91.7303448,44.1380627 91.5380859,44.5104955 91.5380859,45.0158691 C91.5380859,45.4113789 91.6578357,45.7124013 91.8973389,45.9189453 C92.136842,46.1254893 92.4719217,46.2287598 92.9025879,46.2287598 Z M103.383545,47 L103.383545,42.326416 C103.383545,41.7375459 103.249513,41.2980972 102.981445,41.0080566 C102.713378,40.7180161 102.293704,40.572998 101.722412,40.572998 C100.966549,40.572998 100.412844,40.7773417 100.061279,41.1860352 C99.709715,41.5947286 99.5339355,42.2692824 99.5339355,43.2097168 L99.5339355,47 L98.4396973,47 L98.4396973,39.7753906 L99.3295898,39.7753906 L99.5075684,40.7641602 L99.5603027,40.7641602 C99.7844249,40.4082013 100.098631,40.1324473 100.50293,39.9368896 C100.907229,39.741332 101.357664,39.6435547 101.854248,39.6435547 C102.72437,39.6435547 103.379148,39.8533915 103.818604,40.2730713 C104.258059,40.6927511 104.477783,41.3640091 104.477783,42.2868652 L104.477783,47 L103.383545,47 Z M109.059082,46.2287598 C109.252442,46.2287598 109.439208,46.2144777 109.619385,46.1859131 C109.799561,46.1573485 109.942382,46.1276857 110.047852,46.0969238 L110.047852,46.934082 C109.929199,46.9912112 109.754518,47.038452 109.523804,47.0758057 C109.29309,47.1131594 109.08545,47.1318359 108.900879,47.1318359 C107.503411,47.1318359 106.804688,46.3957593 106.804688,44.923584 L106.804688,40.6257324 L105.769775,40.6257324 L105.769775,40.0983887 L106.804688,39.6435547 L107.266113,38.1010742 L107.898926,38.1010742 L107.898926,39.7753906 L109.995117,39.7753906 L109.995117,40.6257324 L107.898926,40.6257324 L107.898926,44.8774414 C107.898926,45.3125022 108.002196,45.6464832 108.20874,45.8793945 C108.415284,46.1123059 108.698729,46.2287598 109.059082,46.2287598 Z M117.331787,46.2287598 C117.525147,46.2287598 117.711913,46.2144777 117.89209,46.1859131 C118.072267,46.1573485 118.215087,46.1276857 118.320557,46.0969238 L118.320557,46.934082 C118.201904,46.9912112 118.027223,47.038452 117.796509,47.0758057 C117.565795,47.1131594 117.358155,47.1318359 117.173584,47.1318359 C115.776116,47.1318359 115.077393,46.3957593 115.077393,44.923584 L115.077393,40.6257324 L114.04248,40.6257324 L114.04248,40.0983887 L115.077393,39.6435547 L115.538818,38.1010742 L116.171631,38.1010742 L116.171631,39.7753906 L118.267822,39.7753906 L118.267822,40.6257324 L116.171631,40.6257324 L116.171631,44.8774414 C116.171631,45.3125022 116.274901,45.6464832 116.481445,45.8793945 C116.687989,46.1123059 116.971434,46.2287598 117.331787,46.2287598 Z M126,43.3811035 C126,44.5588438 125.703372,45.4783902 125.110107,46.1397705 C124.516843,46.8011508 123.697271,47.1318359 122.651367,47.1318359 C122.005368,47.1318359 121.431887,46.9802261 120.930908,46.677002 C120.429929,46.3737778 120.043214,45.9387235 119.770752,45.3718262 C119.49829,44.8049288 119.362061,44.1413612 119.362061,43.3811035 C119.362061,42.2033633 119.656491,41.286014 120.245361,40.6290283 C120.834231,39.9720426 121.651606,39.6435547 122.69751,39.6435547 C123.708257,39.6435547 124.51135,39.979733 125.106812,40.6520996 C125.702273,41.3244663 126,42.2341251 126,43.3811035 Z M120.49585,43.3811035 C120.49585,44.3039597 120.680418,45.0070777 121.049561,45.4904785 C121.418703,45.9738794 121.961422,46.2155762 122.677734,46.2155762 C123.394047,46.2155762 123.937864,45.974978 124.309204,45.4937744 C124.680544,45.0125708 124.866211,44.3083542 124.866211,43.3811035 C124.866211,42.4626419 124.680544,41.765017 124.309204,41.288208 C123.937864,40.811399 123.389652,40.572998 122.664551,40.572998 C121.948239,40.572998 121.407717,40.8081031 121.042969,41.2783203 C120.678221,41.7485375 120.49585,42.4494582 120.49585,43.3811035 Z M132.506104,43.302002 C132.695069,43.0339342 132.982908,42.6823752 133.369629,42.2473145 L135.703125,39.7753906 L137.001709,39.7753906 L134.074951,42.8537598 L137.206055,47 L135.881104,47 L133.330078,43.5854492 L132.506104,44.2973633 L132.506104,47 L131.425049,47 L131.425049,36.7431641 L132.506104,36.7431641 L132.506104,42.1813965 C132.506104,42.4230969 132.488526,42.7966283 132.453369,43.302002 L132.506104,43.302002 Z M143.455078,47 L143.455078,42.326416 C143.455078,41.7375459 143.321046,41.2980972 143.052979,41.0080566 C142.784911,40.7180161 142.365237,40.572998 141.793945,40.572998 C141.038082,40.572998 140.484377,40.7773417 140.132812,41.1860352 C139.781248,41.5947286 139.605469,42.2692824 139.605469,43.2097168 L139.605469,47 L138.51123,47 L138.51123,39.7753906 L139.401123,39.7753906 L139.579102,40.7641602 L139.631836,40.7641602 C139.855958,40.4082013 140.170164,40.1324473 140.574463,39.9368896 C140.978762,39.741332 141.429197,39.6435547 141.925781,39.6435547 C142.795903,39.6435547 143.450681,39.8533915 143.890137,40.2730713 C144.329592,40.6927511 144.549316,41.3640091 144.549316,42.2868652 L144.549316,47 L143.455078,47 Z M153.032959,43.3811035 C153.032959,44.5588438 152.736331,45.4783902 152.143066,46.1397705 C151.549802,46.8011508 150.73023,47.1318359 149.684326,47.1318359 C149.038327,47.1318359 148.464846,46.9802261 147.963867,46.677002 C147.462888,46.3737778 147.076173,45.9387235 146.803711,45.3718262 C146.531249,44.8049288 146.39502,44.1413612 146.39502,43.3811035 C146.39502,42.2033633 146.68945,41.286014 147.27832,40.6290283 C147.86719,39.9720426 148.684565,39.6435547 149.730469,39.6435547 C150.741216,39.6435547 151.544309,39.979733 152.139771,40.6520996 C152.735232,41.3244663 153.032959,42.2341251 153.032959,43.3811035 Z M147.528809,43.3811035 C147.528809,44.3039597 147.713377,45.0070777 148.08252,45.4904785 C148.451662,45.9738794 148.994381,46.2155762 149.710693,46.2155762 C150.427006,46.2155762 150.970823,45.974978 151.342163,45.4937744 C151.713503,45.0125708 151.89917,44.3083542 151.89917,43.3811035 C151.89917,42.4626419 151.713503,41.765017 151.342163,41.288208 C150.970823,40.811399 150.422611,40.572998 149.69751,40.572998 C148.981198,40.572998 148.440676,40.8081031 148.075928,41.2783203 C147.71118,41.7485375 147.528809,42.4494582 147.528809,43.3811035 Z M160.580566,47 L159.255615,42.7614746 C159.172119,42.502196 159.016114,41.9133347 158.787598,40.994873 L158.734863,40.994873 C158.559081,41.7639199 158.405274,42.3571756 158.273438,42.7746582 L156.908936,47 L155.643311,47 L153.672363,39.7753906 L154.819336,39.7753906 C155.285159,41.5903411 155.640013,42.9724074 155.883911,43.9216309 C156.127809,44.8708544 156.267334,45.5102523 156.30249,45.8398438 L156.355225,45.8398438 C156.403565,45.5893542 156.481567,45.2652608 156.589233,44.8675537 C156.6969,44.4698466 156.790283,44.1545422 156.869385,43.9216309 L158.194336,39.7753906 L159.380859,39.7753906 L160.672852,43.9216309 C160.918947,44.677494 161.085937,45.3124974 161.173828,45.8266602 L161.226562,45.8266602 C161.244141,45.6684562 161.291381,45.4245622 161.368286,45.0949707 C161.445191,44.7653792 161.903316,42.9922036 162.742676,39.7753906 L163.876465,39.7753906 L161.87915,47 L160.580566,47 Z M169.782715,47 L168.688477,47 L168.688477,39.7753906 L169.782715,39.7753906 L169.782715,47 Z M168.596191,37.817627 C168.596191,37.5671374 168.657714,37.3836676 168.780762,37.2672119 C168.903809,37.1507563 169.057616,37.0925293 169.242188,37.0925293 C169.41797,37.0925293 169.569579,37.1518549 169.697021,37.2705078 C169.824464,37.3891607 169.888184,37.571532 169.888184,37.817627 C169.888184,38.0637219 169.824464,38.2471918 169.697021,38.368042 C169.569579,38.4888922 169.41797,38.5493164 169.242188,38.5493164 C169.057616,38.5493164 168.903809,38.4888922 168.780762,38.368042 C168.657714,38.2471918 168.596191,38.0637219 168.596191,37.817627 Z M175.359375,40.6257324 L173.520264,40.6257324 L173.520264,47 L172.426025,47 L172.426025,40.6257324 L171.134033,40.6257324 L171.134033,40.1313477 L172.426025,39.7358398 L172.426025,39.3337402 C172.426025,37.5583407 173.201652,36.6706543 174.75293,36.6706543 C175.135256,36.6706543 175.583494,36.7475578 176.097656,36.9013672 L175.814209,37.7780762 C175.392332,37.641845 175.031984,37.5737305 174.733154,37.5737305 C174.320066,37.5737305 174.014649,37.7110582 173.816895,37.9857178 C173.61914,38.2603773 173.520264,38.7009247 173.520264,39.307373 L173.520264,39.7753906 L175.359375,39.7753906 L175.359375,40.6257324 Z M182.518066,46.2287598 C182.711427,46.2287598 182.898192,46.2144777 183.078369,46.1859131 C183.258546,46.1573485 183.401367,46.1276857 183.506836,46.0969238 L183.506836,46.934082 C183.388183,46.9912112 183.213502,47.038452 182.982788,47.0758057 C182.752074,47.1131594 182.544435,47.1318359 182.359863,47.1318359 C180.962395,47.1318359 180.263672,46.3957593 180.263672,44.923584 L180.263672,40.6257324 L179.22876,40.6257324 L179.22876,40.0983887 L180.263672,39.6435547 L180.725098,38.1010742 L181.35791,38.1010742 L181.35791,39.7753906 L183.454102,39.7753906 L183.454102,40.6257324 L181.35791,40.6257324 L181.35791,44.8774414 C181.35791,45.3125022 181.461181,45.6464832 181.667725,45.8793945 C181.874269,46.1123059 182.157713,46.2287598 182.518066,46.2287598 Z M189.894287,47 L189.894287,42.326416 C189.894287,41.7375459 189.760255,41.2980972 189.492188,41.0080566 C189.22412,40.7180161 188.804446,40.572998 188.233154,40.572998 C187.472897,40.572998 186.918093,40.779539 186.568726,41.192627 C186.219359,41.605715 186.044678,42.282466 186.044678,43.2229004 L186.044678,47 L184.950439,47 L184.950439,36.7431641 L186.044678,36.7431641 L186.044678,39.8479004 C186.044678,40.2214374 186.0271,40.5312488 185.991943,40.7773438 L186.057861,40.7773438 C186.273194,40.430174 186.57971,40.1566172 186.977417,39.956665 C187.375124,39.7567129 187.828855,39.6567383 188.338623,39.6567383 C189.221928,39.6567383 189.884397,39.8665751 190.32605,40.2862549 C190.767702,40.7059347 190.988525,41.3727982 190.988525,42.2868652 L190.988525,47 L189.894287,47 Z M196.28833,47.1318359 C195.220454,47.1318359 194.377811,46.8066439 193.760376,46.15625 C193.142941,45.5058561 192.834229,44.602789 192.834229,43.4470215 C192.834229,42.2824649 193.120969,41.3574253 193.694458,40.671875 C194.267947,39.9863247 195.038081,39.6435547 196.004883,39.6435547 C196.910161,39.6435547 197.626462,39.9412812 198.153809,40.5367432 C198.681155,41.1322051 198.944824,41.9177197 198.944824,42.8933105 L198.944824,43.5854492 L193.968018,43.5854492 C193.98999,44.433598 194.204222,45.0773904 194.610718,45.5168457 C195.017214,45.956301 195.589596,46.1760254 196.327881,46.1760254 C197.105717,46.1760254 197.874752,46.0134294 198.63501,45.6882324 L198.63501,46.6638184 C198.248289,46.8308114 197.882448,46.9505612 197.537476,47.0230713 C197.192503,47.0955814 196.776125,47.1318359 196.28833,47.1318359 Z M195.991699,40.5598145 C195.411618,40.5598145 194.949098,40.7487774 194.604126,41.126709 C194.259154,41.5046406 194.055909,42.0275846 193.994385,42.6955566 L197.771484,42.6955566 C197.771484,42.0056118 197.617677,41.4771747 197.310059,41.1102295 C197.00244,40.7432843 196.562991,40.5598145 195.991699,40.5598145 Z M204.106201,39.6435547 C204.427004,39.6435547 204.714842,39.6699216 204.969727,39.7226562 L204.818115,40.737793 C204.519286,40.6718747 204.255616,40.638916 204.0271,40.638916 C203.442624,40.638916 202.942751,40.8762183 202.527466,41.3508301 C202.112181,41.8254418 201.904541,42.4165004 201.904541,43.1240234 L201.904541,47 L200.810303,47 L200.810303,39.7753906 L201.713379,39.7753906 L201.838623,41.1135254 L201.891357,41.1135254 C202.159425,40.6433082 202.48242,40.280763 202.860352,40.0258789 C203.238283,39.7709948 203.653562,39.6435547 204.106201,39.6435547 Z M209.102783,47.1318359 C208.034907,47.1318359 207.192264,46.8066439 206.574829,46.15625 C205.957394,45.5058561 205.648682,44.602789 205.648682,43.4470215 C205.648682,42.2824649 205.935422,41.3574253 206.508911,40.671875 C207.0824,39.9863247 207.852534,39.6435547 208.819336,39.6435547 C209.724614,39.6435547 210.440915,39.9412812 210.968262,40.5367432 C211.495608,41.1322051 211.759277,41.9177197 211.759277,42.8933105 L211.759277,43.5854492 L206.782471,43.5854492 C206.804443,44.433598 207.018675,45.0773904 207.425171,45.5168457 C207.831667,45.956301 208.404049,46.1760254 209.142334,46.1760254 C209.92017,46.1760254 210.689205,46.0134294 211.449463,45.6882324 L211.449463,46.6638184 C211.062742,46.8308114 210.696901,46.9505612 210.351929,47.0230713 C210.006956,47.0955814 209.590579,47.1318359 209.102783,47.1318359 Z M208.806152,40.5598145 C208.226071,40.5598145 207.763552,40.7487774 207.418579,41.126709 C207.073607,41.5046406 206.870362,42.0275846 206.808838,42.6955566 L210.585938,42.6955566 C210.585938,42.0056118 210.43213,41.4771747 210.124512,41.1102295 C209.816893,40.7432843 209.377444,40.5598145 208.806152,40.5598145 Z M218.22583,47 L217.131592,47 L217.131592,39.7753906 L218.22583,39.7753906 L218.22583,47 Z M217.039307,37.817627 C217.039307,37.5671374 217.100829,37.3836676 217.223877,37.2672119 C217.346924,37.1507563 217.500731,37.0925293 217.685303,37.0925293 C217.861085,37.0925293 218.012695,37.1518549 218.140137,37.2705078 C218.267579,37.3891607 218.331299,37.571532 218.331299,37.817627 C218.331299,38.0637219 218.267579,38.2471918 218.140137,38.368042 C218.012695,38.4888922 217.861085,38.5493164 217.685303,38.5493164 C217.500731,38.5493164 217.346924,38.4888922 217.223877,38.368042 C217.100829,38.2471918 217.039307,38.0637219 217.039307,37.817627 Z M225.206543,45.0290527 C225.206543,45.7014194 224.956057,46.2199689 224.455078,46.5847168 C223.954099,46.9494647 223.250981,47.1318359 222.345703,47.1318359 C221.387691,47.1318359 220.640628,46.9802261 220.104492,46.677002 L220.104492,45.6618652 C220.451662,45.8376474 220.824095,45.9760737 221.221802,46.0771484 C221.619509,46.1782232 222.002928,46.2287598 222.37207,46.2287598 C222.943362,46.2287598 223.382811,46.1375742 223.69043,45.9552002 C223.998048,45.7728262 224.151855,45.4948749 224.151855,45.1213379 C224.151855,44.8400865 224.029908,44.5994883 223.786011,44.3995361 C223.542113,44.199584 223.06641,43.9633803 222.358887,43.690918 C221.68652,43.4404284 221.20862,43.2218027 220.925171,43.0350342 C220.641722,42.8482657 220.430787,42.6362317 220.292358,42.3989258 C220.15393,42.1616199 220.084717,41.8781755 220.084717,41.548584 C220.084717,40.9597139 220.324216,40.4949968 220.803223,40.1544189 C221.282229,39.8138411 221.939205,39.6435547 222.77417,39.6435547 C223.552006,39.6435547 224.312252,39.8017562 225.054932,40.1181641 L224.666016,41.0080566 C223.940914,40.709227 223.283938,40.5598145 222.695068,40.5598145 C222.176511,40.5598145 221.785402,40.6411125 221.521729,40.8037109 C221.258055,40.9663094 221.126221,41.1904283 221.126221,41.4760742 C221.126221,41.6694346 221.175659,41.8342278 221.274536,41.970459 C221.373414,42.1066901 221.532714,42.2363275 221.752441,42.359375 C221.972169,42.4824225 222.39404,42.6603992 223.018066,42.8933105 C223.875004,43.2053238 224.453978,43.5195297 224.755005,43.8359375 C225.056032,44.1523453 225.206543,44.5500464 225.206543,45.0290527 Z M233.545166,47.1318359 C232.47729,47.1318359 231.634647,46.8066439 231.017212,46.15625 C230.399777,45.5058561 230.091064,44.602789 230.091064,43.4470215 C230.091064,42.2824649 230.377805,41.3574253 230.951294,40.671875 C231.524783,39.9863247 232.294917,39.6435547 233.261719,39.6435547 C234.166997,39.6435547 234.883298,39.9412812 235.410645,40.5367432 C235.937991,41.1322051 236.20166,41.9177197 236.20166,42.8933105 L236.20166,43.5854492 L231.224854,43.5854492 C231.246826,44.433598 231.461058,45.0773904 231.867554,45.5168457 C232.27405,45.956301 232.846432,46.1760254 233.584717,46.1760254 C234.362553,46.1760254 235.131588,46.0134294 235.891846,45.6882324 L235.891846,46.6638184 C235.505125,46.8308114 235.139284,46.9505612 234.794312,47.0230713 C234.449339,47.0955814 234.032961,47.1318359 233.545166,47.1318359 Z M233.248535,40.5598145 C232.668454,40.5598145 232.205934,40.7487774 231.860962,41.126709 C231.515989,41.5046406 231.312744,42.0275846 231.251221,42.6955566 L235.02832,42.6955566 C235.02832,42.0056118 234.874513,41.4771747 234.566895,41.1102295 C234.259276,40.7432843 233.819827,40.5598145 233.248535,40.5598145 Z M243.010986,47 L243.010986,42.326416 C243.010986,41.7375459 242.876954,41.2980972 242.608887,41.0080566 C242.340819,40.7180161 241.921145,40.572998 241.349854,40.572998 C240.59399,40.572998 240.040285,40.7773417 239.688721,41.1860352 C239.337156,41.5947286 239.161377,42.2692824 239.161377,43.2097168 L239.161377,47 L238.067139,47 L238.067139,39.7753906 L238.957031,39.7753906 L239.13501,40.7641602 L239.187744,40.7641602 C239.411866,40.4082013 239.726072,40.1324473 240.130371,39.9368896 C240.53467,39.741332 240.985105,39.6435547 241.481689,39.6435547 C242.351811,39.6435547 243.00659,39.8533915 243.446045,40.2730713 C243.8855,40.6927511 244.105225,41.3640091 244.105225,42.2868652 L244.105225,47 L243.010986,47 Z M252.588867,43.3811035 C252.588867,44.5588438 252.292239,45.4783902 251.698975,46.1397705 C251.10571,46.8011508 250.286138,47.1318359 249.240234,47.1318359 C248.594235,47.1318359 248.020754,46.9802261 247.519775,46.677002 C247.018796,46.3737778 246.632081,45.9387235 246.359619,45.3718262 C246.087157,44.8049288 245.950928,44.1413612 245.950928,43.3811035 C245.950928,42.2033633 246.245358,41.286014 246.834229,40.6290283 C247.423099,39.9720426 248.240473,39.6435547 249.286377,39.6435547 C250.297124,39.6435547 251.100217,39.979733 251.695679,40.6520996 C252.291141,41.3244663 252.588867,42.2341251 252.588867,43.3811035 Z M247.084717,43.3811035 C247.084717,44.3039597 247.269285,45.0070777 247.638428,45.4904785 C248.00757,45.9738794 248.550289,46.2155762 249.266602,46.2155762 C249.982914,46.2155762 250.526732,45.974978 250.898071,45.4937744 C251.269411,45.0125708 251.455078,44.3083542 251.455078,43.3811035 C251.455078,42.4626419 251.269411,41.765017 250.898071,41.288208 C250.526732,40.811399 249.978519,40.572998 249.253418,40.572998 C248.537106,40.572998 247.996584,40.8081031 247.631836,41.2783203 C247.267088,41.7485375 247.084717,42.4494582 247.084717,43.3811035 Z M255.5354,39.7753906 L255.5354,44.4621582 C255.5354,45.0510283 255.669432,45.4904771 255.9375,45.7805176 C256.205568,46.0705581 256.625241,46.2155762 257.196533,46.2155762 C257.952396,46.2155762 258.505003,46.0090353 258.85437,45.5959473 C259.203737,45.1828593 259.378418,44.5083055 259.378418,43.5722656 L259.378418,39.7753906 L260.472656,39.7753906 L260.472656,47 L259.56958,47 L259.411377,46.0310059 L259.352051,46.0310059 C259.127929,46.3869647 258.817019,46.6594229 258.419312,46.8483887 C258.021604,47.0373545 257.567874,47.1318359 257.058105,47.1318359 C256.179195,47.1318359 255.52112,46.9230978 255.083862,46.5056152 C254.646604,46.0881327 254.427979,45.4201706 254.427979,44.501709 L254.427979,39.7753906 L255.5354,39.7753906 Z M268.705811,39.7753906 L268.705811,40.4675293 L267.367676,40.6257324 C267.490723,40.7795418 267.600585,40.9805896 267.697266,41.2288818 C267.793946,41.4771741 267.842285,41.7573227 267.842285,42.0693359 C267.842285,42.776859 267.600588,43.3415506 267.117188,43.7634277 C266.633787,44.1853048 265.970219,44.3962402 265.126465,44.3962402 C264.911132,44.3962402 264.708985,44.3786623 264.52002,44.3435059 C264.054197,44.5896008 263.821289,44.8994122 263.821289,45.2729492 C263.821289,45.4707041 263.902587,45.6168208 264.065186,45.7113037 C264.227784,45.8057866 264.506834,45.8530273 264.902344,45.8530273 L266.181152,45.8530273 C266.963383,45.8530273 267.564329,46.0178206 267.984009,46.3474121 C268.403689,46.6770036 268.613525,47.1560027 268.613525,47.7844238 C268.613525,48.5842325 268.292728,49.1939676 267.651123,49.6136475 C267.009518,50.0333273 266.073492,50.2431641 264.843018,50.2431641 C263.898189,50.2431641 263.169802,50.0673846 262.657837,49.7158203 C262.145871,49.3642561 261.889893,48.867679 261.889893,48.2260742 C261.889893,47.7866189 262.030516,47.4064957 262.311768,47.0856934 C262.593019,46.764891 262.988523,46.5473639 263.498291,46.4331055 C263.31372,46.349609 263.158814,46.2199716 263.033569,46.0441895 C262.908325,45.8684073 262.845703,45.6640637 262.845703,45.4311523 C262.845703,45.1674792 262.916015,44.9367686 263.056641,44.7390137 C263.197266,44.5412588 263.419188,44.3500986 263.722412,44.1655273 C263.348875,44.011718 263.044557,43.750246 262.809448,43.3811035 C262.57434,43.011961 262.456787,42.5900903 262.456787,42.1154785 C262.456787,41.3244589 262.694089,40.7147238 263.168701,40.2862549 C263.643313,39.8577859 264.315669,39.6435547 265.185791,39.6435547 C265.563723,39.6435547 265.904295,39.6874996 266.20752,39.7753906 L268.705811,39.7753906 Z M262.94458,48.2128906 C262.94458,48.6040059 263.109373,48.9006338 263.438965,49.1027832 C263.768556,49.3049327 264.240964,49.4060059 264.856201,49.4060059 C265.774663,49.4060059 266.45471,49.2686781 266.896362,48.9940186 C267.338015,48.719359 267.558838,48.3469262 267.558838,47.876709 C267.558838,47.4855937 267.437989,47.2142342 267.196289,47.0626221 C266.954589,46.91101 266.499759,46.8352051 265.831787,46.8352051 L264.52002,46.8352051 C264.023435,46.8352051 263.63672,46.9538562 263.359863,47.1911621 C263.083006,47.428468 262.94458,47.7690407 262.94458,48.2128906 Z M263.537842,42.0891113 C263.537842,42.5944849 263.680663,42.9768053 263.966309,43.236084 C264.251955,43.4953626 264.649656,43.625 265.159424,43.625 C266.2273,43.625 266.76123,43.1064505 266.76123,42.0693359 C266.76123,40.9838813 266.220709,40.4411621 265.139648,40.4411621 C264.625486,40.4411621 264.229982,40.5795885 263.953125,40.8564453 C263.676268,41.1333022 263.537842,41.5441867 263.537842,42.0891113 Z M275.132812,47 L275.132812,42.326416 C275.132812,41.7375459 274.998781,41.2980972 274.730713,41.0080566 C274.462645,40.7180161 274.042972,40.572998 273.47168,40.572998 C272.711422,40.572998 272.156618,40.779539 271.807251,41.192627 C271.457884,41.605715 271.283203,42.282466 271.283203,43.2229004 L271.283203,47 L270.188965,47 L270.188965,36.7431641 L271.283203,36.7431641 L271.283203,39.8479004 C271.283203,40.2214374 271.265625,40.5312488 271.230469,40.7773438 L271.296387,40.7773438 C271.51172,40.430174 271.818235,40.1566172 272.215942,39.956665 C272.613649,39.7567129 273.06738,39.6567383 273.577148,39.6567383 C274.460454,39.6567383 275.122923,39.8665751 275.564575,40.2862549 C276.006228,40.7059347 276.227051,41.3727982 276.227051,42.2868652 L276.227051,47 L275.132812,47 Z M79.0598145,65 L77.7348633,60.7614746 C77.6513668,60.502196 77.4953625,59.9133347 77.2668457,58.994873 L77.2141113,58.994873 C77.0383292,59.7639199 76.8845221,60.3571756 76.7526855,60.7746582 L75.3881836,65 L74.1225586,65 L72.1516113,57.7753906 L73.298584,57.7753906 C73.7644066,59.5903411 74.1192615,60.9724074 74.3631592,61.9216309 C74.6070569,62.8708544 74.7465819,63.5102523 74.7817383,63.8398438 L74.8344727,63.8398438 C74.8828127,63.5893542 74.9608149,63.2652608 75.0684814,62.8675537 C75.176148,62.4698466 75.2695309,62.1545422 75.3486328,61.9216309 L76.673584,57.7753906 L77.8601074,57.7753906 L79.1520996,61.9216309 C79.3981946,62.677494 79.5651851,63.3124974 79.6530762,63.8266602 L79.7058105,63.8266602 C79.7233888,63.6684562 79.7706295,63.4245622 79.8475342,63.0949707 C79.9244389,62.7653792 80.3825642,60.9922036 81.2219238,57.7753906 L82.3557129,57.7753906 L80.3583984,65 L79.0598145,65 Z M88.1037598,65 L87.8862305,63.9716797 L87.8334961,63.9716797 C87.4731427,64.4243187 87.1138934,64.7308342 86.7557373,64.8912354 C86.3975812,65.0516365 85.9504421,65.1318359 85.4143066,65.1318359 C84.6979945,65.1318359 84.1365987,64.9472675 83.7301025,64.578125 C83.3236064,64.2089825 83.1203613,63.6838413 83.1203613,63.0026855 C83.1203613,61.5436939 84.2870977,60.7790531 86.6206055,60.7087402 L87.8466797,60.6691895 L87.8466797,60.2209473 C87.8466797,59.6540499 87.7247327,59.235475 87.480835,58.96521 C87.2369373,58.6949449 86.8469265,58.5598145 86.310791,58.5598145 C85.7087372,58.5598145 85.0275917,58.7443829 84.267334,59.1135254 L83.9311523,58.2763672 C84.2871112,58.0830068 84.6771219,57.931397 85.1011963,57.8215332 C85.5252707,57.7116694 85.9504373,57.6567383 86.376709,57.6567383 C87.2380414,57.6567383 87.8763407,57.8478985 88.291626,58.2302246 C88.7069113,58.6125507 88.9145508,59.2255817 88.9145508,60.0693359 L88.9145508,65 L88.1037598,65 Z M85.6318359,64.2287598 C86.3129917,64.2287598 86.8480205,64.0419941 87.2369385,63.668457 C87.6258564,63.29492 87.8203125,62.771976 87.8203125,62.0996094 L87.8203125,61.4470215 L86.7260742,61.4931641 C85.8559527,61.5239259 85.2286396,61.6590564 84.8441162,61.8985596 C84.4595928,62.1380627 84.267334,62.5104955 84.267334,63.0158691 C84.267334,63.4113789 84.3870838,63.7124013 84.6265869,63.9189453 C84.8660901,64.1254893 85.2011697,64.2287598 85.6318359,64.2287598 Z M93.5024414,64.2287598 C93.6958017,64.2287598 93.8825675,64.2144777 94.0627441,64.1859131 C94.2429208,64.1573485 94.3857417,64.1276857 94.4912109,64.0969238 L94.4912109,64.934082 C94.372558,64.9912112 94.1978771,65.038452 93.9671631,65.0758057 C93.736449,65.1131594 93.5288095,65.1318359 93.3442383,65.1318359 C91.9467704,65.1318359 91.2480469,64.3957593 91.2480469,62.923584 L91.2480469,58.6257324 L90.2131348,58.6257324 L90.2131348,58.0983887 L91.2480469,57.6435547 L91.7094727,56.1010742 L92.3422852,56.1010742 L92.3422852,57.7753906 L94.4384766,57.7753906 L94.4384766,58.6257324 L92.3422852,58.6257324 L92.3422852,62.8774414 C92.3422852,63.3125022 92.4455556,63.6464832 92.6520996,63.8793945 C92.8586436,64.1123059 93.142088,64.2287598 93.5024414,64.2287598 Z M98.9868164,65.1318359 C97.91894,65.1318359 97.076297,64.8066439 96.4588623,64.15625 C95.8414276,63.5058561 95.5327148,62.602789 95.5327148,61.4470215 C95.5327148,60.2824649 95.8194551,59.3574253 96.3929443,58.671875 C96.9664335,57.9863247 97.7365674,57.6435547 98.7033691,57.6435547 C99.6086471,57.6435547 100.324949,57.9412812 100.852295,58.5367432 C101.379641,59.1322051 101.643311,59.9177197 101.643311,60.8933105 L101.643311,61.5854492 L96.6665039,61.5854492 C96.6884767,62.433598 96.9027079,63.0773904 97.3092041,63.5168457 C97.7157003,63.956301 98.2880822,64.1760254 99.0263672,64.1760254 C99.8042031,64.1760254 100.573238,64.0134294 101.333496,63.6882324 L101.333496,64.6638184 C100.946775,64.8308114 100.580934,64.9505612 100.235962,65.0230713 C99.8909895,65.0955814 99.4746118,65.1318359 98.9868164,65.1318359 Z M98.6901855,58.5598145 C98.1101045,58.5598145 97.6475847,58.7487774 97.3026123,59.126709 C96.9576399,59.5046406 96.7543948,60.0275846 96.6928711,60.6955566 L100.469971,60.6955566 C100.469971,60.0056118 100.316164,59.4771747 100.008545,59.1102295 C99.7009262,58.7432843 99.2614775,58.5598145 98.6901855,58.5598145 Z M106.804688,57.6435547 C107.12549,57.6435547 107.413329,57.6699216 107.668213,57.7226562 L107.516602,58.737793 C107.217772,58.6718747 106.954103,58.638916 106.725586,58.638916 C106.14111,58.638916 105.641237,58.8762183 105.225952,59.3508301 C104.810667,59.8254418 104.603027,60.4165004 104.603027,61.1240234 L104.603027,65 L103.508789,65 L103.508789,57.7753906 L104.411865,57.7753906 L104.537109,59.1135254 L104.589844,59.1135254 C104.857911,58.6433082 105.180906,58.280763 105.558838,58.0258789 C105.936769,57.7709948 106.352049,57.6435547 106.804688,57.6435547 Z M115.782715,58.6257324 L113.943604,58.6257324 L113.943604,65 L112.849365,65 L112.849365,58.6257324 L111.557373,58.6257324 L111.557373,58.1313477 L112.849365,57.7358398 L112.849365,57.3337402 C112.849365,55.5583407 113.624992,54.6706543 115.17627,54.6706543 C115.558596,54.6706543 116.006833,54.7475578 116.520996,54.9013672 L116.237549,55.7780762 C115.815672,55.641845 115.455324,55.5737305 115.156494,55.5737305 C114.743406,55.5737305 114.437989,55.7110582 114.240234,55.9857178 C114.042479,56.2603773 113.943604,56.7009247 113.943604,57.307373 L113.943604,57.7753906 L115.782715,57.7753906 L115.782715,58.6257324 Z M123.336914,61.3811035 C123.336914,62.5588438 123.040286,63.4783902 122.447021,64.1397705 C121.853757,64.8011508 121.034185,65.1318359 119.988281,65.1318359 C119.342282,65.1318359 118.768801,64.9802261 118.267822,64.677002 C117.766843,64.3737778 117.380128,63.9387235 117.107666,63.3718262 C116.835204,62.8049288 116.698975,62.1413612 116.698975,61.3811035 C116.698975,60.2033633 116.993405,59.286014 117.582275,58.6290283 C118.171146,57.9720426 118.98852,57.6435547 120.034424,57.6435547 C121.045171,57.6435547 121.848264,57.979733 122.443726,58.6520996 C123.039188,59.3244663 123.336914,60.2341251 123.336914,61.3811035 Z M117.832764,61.3811035 C117.832764,62.3039597 118.017332,63.0070777 118.386475,63.4904785 C118.755617,63.9738794 119.298336,64.2155762 120.014648,64.2155762 C120.730961,64.2155762 121.274778,63.974978 121.646118,63.4937744 C122.017458,63.0125708 122.203125,62.3083542 122.203125,61.3811035 C122.203125,60.4626419 122.017458,59.765017 121.646118,59.288208 C121.274778,58.811399 120.726566,58.572998 120.001465,58.572998 C119.285153,58.572998 118.744631,58.8081031 118.379883,59.2783203 C118.015135,59.7485375 117.832764,60.4494582 117.832764,61.3811035 Z M128.551025,57.6435547 C128.871828,57.6435547 129.159667,57.6699216 129.414551,57.7226562 L129.262939,58.737793 C128.96411,58.6718747 128.700441,58.638916 128.471924,58.638916 C127.887448,58.638916 127.387575,58.8762183 126.97229,59.3508301 C126.557005,59.8254418 126.349365,60.4165004 126.349365,61.1240234 L126.349365,65 L125.255127,65 L125.255127,57.7753906 L126.158203,57.7753906 L126.283447,59.1135254 L126.336182,59.1135254 C126.604249,58.6433082 126.927244,58.280763 127.305176,58.0258789 C127.683107,57.7709948 128.098386,57.6435547 128.551025,57.6435547 Z M143.481445,65 L143.481445,60.3000488 C143.481445,59.7243624 143.3584,59.292604 143.112305,59.0047607 C142.86621,58.7169175 142.483889,58.572998 141.965332,58.572998 C141.284176,58.572998 140.781007,58.7685527 140.455811,59.159668 C140.130614,59.5507832 139.968018,60.152828 139.968018,60.9658203 L139.968018,65 L138.873779,65 L138.873779,60.3000488 C138.873779,59.7243624 138.750734,59.292604 138.504639,59.0047607 C138.258544,58.7169175 137.874026,58.572998 137.351074,58.572998 C136.665524,58.572998 136.163454,58.7784403 135.844849,59.1893311 C135.526244,59.6002218 135.366943,60.273677 135.366943,61.2097168 L135.366943,65 L134.272705,65 L134.272705,57.7753906 L135.162598,57.7753906 L135.340576,58.7641602 L135.393311,58.7641602 C135.599855,58.4125959 135.890989,58.1379404 136.266724,57.9401855 C136.642458,57.7424307 137.06323,57.6435547 137.529053,57.6435547 C138.658453,57.6435547 139.396727,58.052242 139.743896,58.8696289 L139.796631,58.8696289 C140.011964,58.4916973 140.323973,58.1928722 140.732666,57.9731445 C141.141359,57.7534169 141.607175,57.6435547 142.130127,57.6435547 C142.947514,57.6435547 143.559446,57.8533915 143.965942,58.2730713 C144.372439,58.6927511 144.575684,59.3640091 144.575684,60.2868652 L144.575684,65 L143.481445,65 Z M149.88208,65.1318359 C148.814204,65.1318359 147.971561,64.8066439 147.354126,64.15625 C146.736691,63.5058561 146.427979,62.602789 146.427979,61.4470215 C146.427979,60.2824649 146.714719,59.3574253 147.288208,58.671875 C147.861697,57.9863247 148.631831,57.6435547 149.598633,57.6435547 C150.503911,57.6435547 151.220212,57.9412812 151.747559,58.5367432 C152.274905,59.1322051 152.538574,59.9177197 152.538574,60.8933105 L152.538574,61.5854492 L147.561768,61.5854492 C147.58374,62.433598 147.797972,63.0773904 148.204468,63.5168457 C148.610964,63.956301 149.183346,64.1760254 149.921631,64.1760254 C150.699467,64.1760254 151.468502,64.0134294 152.22876,63.6882324 L152.22876,64.6638184 C151.842039,64.8308114 151.476198,64.9505612 151.131226,65.0230713 C150.786253,65.0955814 150.369875,65.1318359 149.88208,65.1318359 Z M149.585449,58.5598145 C149.005368,58.5598145 148.542848,58.7487774 148.197876,59.126709 C147.852904,59.5046406 147.649659,60.0275846 147.588135,60.6955566 L151.365234,60.6955566 C151.365234,60.0056118 151.211427,59.4771747 150.903809,59.1102295 C150.59619,58.7432843 150.156741,58.5598145 149.585449,58.5598145 Z M160.244385,64.2287598 C160.437745,64.2287598 160.624511,64.2144777 160.804688,64.1859131 C160.984864,64.1573485 161.127685,64.1276857 161.233154,64.0969238 L161.233154,64.934082 C161.114501,64.9912112 160.93982,65.038452 160.709106,65.0758057 C160.478392,65.1131594 160.270753,65.1318359 160.086182,65.1318359 C158.688714,65.1318359 157.98999,64.3957593 157.98999,62.923584 L157.98999,58.6257324 L156.955078,58.6257324 L156.955078,58.0983887 L157.98999,57.6435547 L158.451416,56.1010742 L159.084229,56.1010742 L159.084229,57.7753906 L161.18042,57.7753906 L161.18042,58.6257324 L159.084229,58.6257324 L159.084229,62.8774414 C159.084229,63.3125022 159.187499,63.6464832 159.394043,63.8793945 C159.600587,64.1123059 159.884031,64.2287598 160.244385,64.2287598 Z M168.912598,61.3811035 C168.912598,62.5588438 168.61597,63.4783902 168.022705,64.1397705 C167.42944,64.8011508 166.609869,65.1318359 165.563965,65.1318359 C164.917966,65.1318359 164.344485,64.9802261 163.843506,64.677002 C163.342527,64.3737778 162.955812,63.9387235 162.68335,63.3718262 C162.410887,62.8049288 162.274658,62.1413612 162.274658,61.3811035 C162.274658,60.2033633 162.569089,59.286014 163.157959,58.6290283 C163.746829,57.9720426 164.564204,57.6435547 165.610107,57.6435547 C166.620855,57.6435547 167.423947,57.979733 168.019409,58.6520996 C168.614871,59.3244663 168.912598,60.2341251 168.912598,61.3811035 Z M163.408447,61.3811035 C163.408447,62.3039597 163.593016,63.0070777 163.962158,63.4904785 C164.331301,63.9738794 164.87402,64.2155762 165.590332,64.2155762 C166.306644,64.2155762 166.850462,63.974978 167.221802,63.4937744 C167.593142,63.0125708 167.778809,62.3083542 167.778809,61.3811035 C167.778809,60.4626419 167.593142,59.765017 167.221802,59.288208 C166.850462,58.811399 166.30225,58.572998 165.577148,58.572998 C164.860836,58.572998 164.320314,58.8081031 163.955566,59.2783203 C163.590818,59.7485375 163.408447,60.4494582 163.408447,61.3811035 Z M175.365967,57.7753906 L175.365967,62.4621582 C175.365967,63.0510283 175.499999,63.4904771 175.768066,63.7805176 C176.036134,64.0705581 176.455808,64.2155762 177.0271,64.2155762 C177.782963,64.2155762 178.33557,64.0090353 178.684937,63.5959473 C179.034304,63.1828593 179.208984,62.5083055 179.208984,61.5722656 L179.208984,57.7753906 L180.303223,57.7753906 L180.303223,65 L179.400146,65 L179.241943,64.0310059 L179.182617,64.0310059 C178.958495,64.3869647 178.647585,64.6594229 178.249878,64.8483887 C177.852171,65.0373545 177.39844,65.1318359 176.888672,65.1318359 C176.009761,65.1318359 175.351687,64.9230978 174.914429,64.5056152 C174.477171,64.0881327 174.258545,63.4201706 174.258545,62.501709 L174.258545,57.7753906 L175.365967,57.7753906 Z M187.283936,63.0290527 C187.283936,63.7014194 187.03345,64.2199689 186.532471,64.5847168 C186.031492,64.9494647 185.328374,65.1318359 184.423096,65.1318359 C183.465083,65.1318359 182.71802,64.9802261 182.181885,64.677002 L182.181885,63.6618652 C182.529054,63.8376474 182.901487,63.9760737 183.299194,64.0771484 C183.696901,64.1782232 184.08032,64.2287598 184.449463,64.2287598 C185.020755,64.2287598 185.460204,64.1375742 185.767822,63.9552002 C186.075441,63.7728262 186.229248,63.4948749 186.229248,63.1213379 C186.229248,62.8400865 186.107301,62.5994883 185.863403,62.3995361 C185.619506,62.199584 185.143802,61.9633803 184.436279,61.690918 C183.763913,61.4404284 183.286012,61.2218027 183.002563,61.0350342 C182.719115,60.8482657 182.508179,60.6362317 182.369751,60.3989258 C182.231323,60.1616199 182.162109,59.8781755 182.162109,59.548584 C182.162109,58.9597139 182.401609,58.4949968 182.880615,58.1544189 C183.359622,57.8138411 184.016597,57.6435547 184.851562,57.6435547 C185.629398,57.6435547 186.389645,57.8017562 187.132324,58.1181641 L186.743408,59.0080566 C186.018307,58.709227 185.361331,58.5598145 184.772461,58.5598145 C184.253904,58.5598145 183.862794,58.6411125 183.599121,58.8037109 C183.335448,58.9663094 183.203613,59.1904283 183.203613,59.4760742 C183.203613,59.6694346 183.253051,59.8342278 183.351929,59.970459 C183.450806,60.1066901 183.610106,60.2363275 183.829834,60.359375 C184.049562,60.4824225 184.471432,60.6603992 185.095459,60.8933105 C185.952397,61.2053238 186.531371,61.5195297 186.832397,61.8359375 C187.133424,62.1523453 187.283936,62.5500464 187.283936,63.0290527 Z M192.115723,65.1318359 C191.047846,65.1318359 190.205203,64.8066439 189.587769,64.15625 C188.970334,63.5058561 188.661621,62.602789 188.661621,61.4470215 C188.661621,60.2824649 188.948361,59.3574253 189.521851,58.671875 C190.09534,57.9863247 190.865474,57.6435547 191.832275,57.6435547 C192.737553,57.6435547 193.453855,57.9412812 193.981201,58.5367432 C194.508548,59.1322051 194.772217,59.9177197 194.772217,60.8933105 L194.772217,61.5854492 L189.79541,61.5854492 C189.817383,62.433598 190.031614,63.0773904 190.43811,63.5168457 C190.844607,63.956301 191.416988,64.1760254 192.155273,64.1760254 C192.933109,64.1760254 193.702145,64.0134294 194.462402,63.6882324 L194.462402,64.6638184 C194.075682,64.8308114 193.709841,64.9505612 193.364868,65.0230713 C193.019896,65.0955814 192.603518,65.1318359 192.115723,65.1318359 Z M191.819092,58.5598145 C191.239011,58.5598145 190.776491,58.7487774 190.431519,59.126709 C190.086546,59.5046406 189.883301,60.0275846 189.821777,60.6955566 L193.598877,60.6955566 C193.598877,60.0056118 193.44507,59.4771747 193.137451,59.1102295 C192.829832,58.7432843 192.390384,58.5598145 191.819092,58.5598145 Z M204.587402,65 L204.369873,63.9716797 L204.317139,63.9716797 C203.956785,64.4243187 203.597536,64.7308342 203.23938,64.8912354 C202.881224,65.0516365 202.434085,65.1318359 201.897949,65.1318359 C201.181637,65.1318359 200.620241,64.9472675 200.213745,64.578125 C199.807249,64.2089825 199.604004,63.6838413 199.604004,63.0026855 C199.604004,61.5436939 200.77074,60.7790531 203.104248,60.7087402 L204.330322,60.6691895 L204.330322,60.2209473 C204.330322,59.6540499 204.208375,59.235475 203.964478,58.96521 C203.72058,58.6949449 203.330569,58.5598145 202.794434,58.5598145 C202.19238,58.5598145 201.511234,58.7443829 200.750977,59.1135254 L200.414795,58.2763672 C200.770754,58.0830068 201.160764,57.931397 201.584839,57.8215332 C202.008913,57.7116694 202.43408,57.6567383 202.860352,57.6567383 C203.721684,57.6567383 204.359983,57.8478985 204.775269,58.2302246 C205.190554,58.6125507 205.398193,59.2255817 205.398193,60.0693359 L205.398193,65 L204.587402,65 Z M202.115479,64.2287598 C202.796634,64.2287598 203.331663,64.0419941 203.720581,63.668457 C204.109499,63.29492 204.303955,62.771976 204.303955,62.0996094 L204.303955,61.4470215 L203.209717,61.4931641 C202.339595,61.5239259 201.712282,61.6590564 201.327759,61.8985596 C200.943235,62.1380627 200.750977,62.5104955 200.750977,63.0158691 C200.750977,63.4113789 200.870726,63.7124013 201.110229,63.9189453 C201.349733,64.1254893 201.684812,64.2287598 202.115479,64.2287598 Z M209.986084,64.2287598 C210.179444,64.2287598 210.36621,64.2144777 210.546387,64.1859131 C210.726563,64.1573485 210.869384,64.1276857 210.974854,64.0969238 L210.974854,64.934082 C210.856201,64.9912112 210.68152,65.038452 210.450806,65.0758057 C210.220092,65.1131594 210.012452,65.1318359 209.827881,65.1318359 C208.430413,65.1318359 207.731689,64.3957593 207.731689,62.923584 L207.731689,58.6257324 L206.696777,58.6257324 L206.696777,58.0983887 L207.731689,57.6435547 L208.193115,56.1010742 L208.825928,56.1010742 L208.825928,57.7753906 L210.922119,57.7753906 L210.922119,58.6257324 L208.825928,58.6257324 L208.825928,62.8774414 C208.825928,63.3125022 208.929198,63.6464832 209.135742,63.8793945 C209.342286,64.1123059 209.625731,64.2287598 209.986084,64.2287598 Z M220.368164,65 L220.150635,63.9716797 L220.0979,63.9716797 C219.737547,64.4243187 219.378298,64.7308342 219.020142,64.8912354 C218.661986,65.0516365 218.214846,65.1318359 217.678711,65.1318359 C216.962399,65.1318359 216.401003,64.9472675 215.994507,64.578125 C215.588011,64.2089825 215.384766,63.6838413 215.384766,63.0026855 C215.384766,61.5436939 216.551502,60.7790531 218.88501,60.7087402 L220.111084,60.6691895 L220.111084,60.2209473 C220.111084,59.6540499 219.989137,59.235475 219.745239,58.96521 C219.501342,58.6949449 219.111331,58.5598145 218.575195,58.5598145 C217.973142,58.5598145 217.291996,58.7443829 216.531738,59.1135254 L216.195557,58.2763672 C216.551515,58.0830068 216.941526,57.931397 217.365601,57.8215332 C217.789675,57.7116694 218.214842,57.6567383 218.641113,57.6567383 C219.502446,57.6567383 220.140745,57.8478985 220.55603,58.2302246 C220.971316,58.6125507 221.178955,59.2255817 221.178955,60.0693359 L221.178955,65 L220.368164,65 Z M217.89624,64.2287598 C218.577396,64.2287598 219.112425,64.0419941 219.501343,63.668457 C219.890261,63.29492 220.084717,62.771976 220.084717,62.0996094 L220.084717,61.4470215 L218.990479,61.4931641 C218.120357,61.5239259 217.493044,61.6590564 217.108521,61.8985596 C216.723997,62.1380627 216.531738,62.5104955 216.531738,63.0158691 C216.531738,63.4113789 216.651488,63.7124013 216.890991,63.9189453 C217.130494,64.1254893 217.465574,64.2287598 217.89624,64.2287598 Z M228.377197,65 L228.377197,60.326416 C228.377197,59.7375459 228.243165,59.2980972 227.975098,59.0080566 C227.70703,58.7180161 227.287356,58.572998 226.716064,58.572998 C225.960201,58.572998 225.406496,58.7773417 225.054932,59.1860352 C224.703367,59.5947286 224.527588,60.2692824 224.527588,61.2097168 L224.527588,65 L223.43335,65 L223.43335,57.7753906 L224.323242,57.7753906 L224.501221,58.7641602 L224.553955,58.7641602 C224.778077,58.4082013 225.092283,58.1324473 225.496582,57.9368896 C225.900881,57.741332 226.351316,57.6435547 226.8479,57.6435547 C227.718022,57.6435547 228.372801,57.8533915 228.812256,58.2730713 C229.251711,58.6927511 229.471436,59.3640091 229.471436,60.2868652 L229.471436,65 L228.377197,65 Z M230.572266,57.7753906 L231.745605,57.7753906 L233.327637,61.8952637 C233.674806,62.8356981 233.890136,63.5146464 233.973633,63.9321289 L234.026367,63.9321289 C234.083496,63.7080067 234.203246,63.3245877 234.38562,62.7818604 C234.567994,62.239133 235.164546,60.5703265 236.175293,57.7753906 L237.348633,57.7753906 L234.243896,66.0019531 C233.936278,66.8149455 233.577028,67.3917219 233.166138,67.7322998 C232.755247,68.0728777 232.25098,68.2431641 231.65332,68.2431641 C231.319334,68.2431641 230.989748,68.2058109 230.664551,68.1311035 L230.664551,67.2543945 C230.906251,67.3071292 231.176512,67.3334961 231.475342,67.3334961 C232.22681,67.3334961 232.762938,66.9116253 233.08374,66.0678711 L233.48584,65.0395508 L230.572266,57.7753906 Z M247.94165,57.7753906 L247.94165,58.4675293 L246.603516,58.6257324 C246.726563,58.7795418 246.836425,58.9805896 246.933105,59.2288818 C247.029786,59.4771741 247.078125,59.7573227 247.078125,60.0693359 C247.078125,60.776859 246.836428,61.3415506 246.353027,61.7634277 C245.869626,62.1853048 245.206059,62.3962402 244.362305,62.3962402 C244.146972,62.3962402 243.944825,62.3786623 243.755859,62.3435059 C243.290037,62.5896008 243.057129,62.8994122 243.057129,63.2729492 C243.057129,63.4707041 243.138427,63.6168208 243.301025,63.7113037 C243.463624,63.8057866 243.742674,63.8530273 244.138184,63.8530273 L245.416992,63.8530273 C246.199223,63.8530273 246.800169,64.0178206 247.219849,64.3474121 C247.639528,64.6770036 247.849365,65.1560027 247.849365,65.7844238 C247.849365,66.5842325 247.528568,67.1939676 246.886963,67.6136475 C246.245358,68.0333273 245.309332,68.2431641 244.078857,68.2431641 C243.134028,68.2431641 242.405642,68.0673846 241.893677,67.7158203 C241.381711,67.3642561 241.125732,66.867679 241.125732,66.2260742 C241.125732,65.7866189 241.266356,65.4064957 241.547607,65.0856934 C241.828859,64.764891 242.224363,64.5473639 242.734131,64.4331055 C242.54956,64.349609 242.394654,64.2199716 242.269409,64.0441895 C242.144164,63.8684073 242.081543,63.6640637 242.081543,63.4311523 C242.081543,63.1674792 242.151855,62.9367686 242.29248,62.7390137 C242.433106,62.5412588 242.655028,62.3500986 242.958252,62.1655273 C242.584715,62.011718 242.280397,61.750246 242.045288,61.3811035 C241.810179,61.011961 241.692627,60.5900903 241.692627,60.1154785 C241.692627,59.3244589 241.929929,58.7147238 242.404541,58.2862549 C242.879153,57.8577859 243.551509,57.6435547 244.421631,57.6435547 C244.799562,57.6435547 245.140135,57.6874996 245.443359,57.7753906 L247.94165,57.7753906 Z M242.18042,66.2128906 C242.18042,66.6040059 242.345213,66.9006338 242.674805,67.1027832 C243.004396,67.3049327 243.476804,67.4060059 244.092041,67.4060059 C245.010503,67.4060059 245.69055,67.2686781 246.132202,66.9940186 C246.573855,66.719359 246.794678,66.3469262 246.794678,65.876709 C246.794678,65.4855937 246.673829,65.2142342 246.432129,65.0626221 C246.190428,64.91101 245.735599,64.8352051 245.067627,64.8352051 L243.755859,64.8352051 C243.259275,64.8352051 242.87256,64.9538562 242.595703,65.1911621 C242.318846,65.428468 242.18042,65.7690407 242.18042,66.2128906 Z M242.773682,60.0891113 C242.773682,60.5944849 242.916502,60.9768053 243.202148,61.236084 C243.487794,61.4953626 243.885495,61.625 244.395264,61.625 C245.46314,61.625 245.99707,61.1064505 245.99707,60.0693359 C245.99707,58.9838813 245.456548,58.4411621 244.375488,58.4411621 C243.861326,58.4411621 243.465822,58.5795885 243.188965,58.8564453 C242.912108,59.1333022 242.773682,59.5441867 242.773682,60.0891113 Z M250.519043,65 L249.424805,65 L249.424805,57.7753906 L250.519043,57.7753906 L250.519043,65 Z M249.33252,55.817627 C249.33252,55.5671374 249.394042,55.3836676 249.51709,55.2672119 C249.640137,55.1507563 249.793944,55.0925293 249.978516,55.0925293 C250.154298,55.0925293 250.305908,55.1518549 250.43335,55.2705078 C250.560792,55.3891607 250.624512,55.571532 250.624512,55.817627 C250.624512,56.0637219 250.560792,56.2471918 250.43335,56.368042 C250.305908,56.4888922 250.154298,56.5493164 249.978516,56.5493164 C249.793944,56.5493164 249.640137,56.4888922 249.51709,56.368042 C249.394042,56.2471918 249.33252,56.0637219 249.33252,55.817627 Z M254.421387,65 L251.679199,57.7753906 L252.852539,57.7753906 L254.408203,62.0600586 C254.759767,63.0620167 254.966308,63.7124008 255.027832,64.0112305 L255.080566,64.0112305 C255.128906,63.7783191 255.281615,63.2960242 255.538696,62.5643311 C255.795778,61.8326379 256.372554,60.2363404 257.269043,57.7753906 L258.442383,57.7753906 L255.700195,65 L254.421387,65 Z M262.654541,65.1318359 C261.586665,65.1318359 260.744022,64.8066439 260.126587,64.15625 C259.509152,63.5058561 259.200439,62.602789 259.200439,61.4470215 C259.200439,60.2824649 259.48718,59.3574253 260.060669,58.671875 C260.634158,57.9863247 261.404292,57.6435547 262.371094,57.6435547 C263.276372,57.6435547 263.992673,57.9412812 264.52002,58.5367432 C265.047366,59.1322051 265.311035,59.9177197 265.311035,60.8933105 L265.311035,61.5854492 L260.334229,61.5854492 C260.356201,62.433598 260.570433,63.0773904 260.976929,63.5168457 C261.383425,63.956301 261.955807,64.1760254 262.694092,64.1760254 C263.471928,64.1760254 264.240963,64.0134294 265.001221,63.6882324 L265.001221,64.6638184 C264.6145,64.8308114 264.248659,64.9505612 263.903687,65.0230713 C263.558714,65.0955814 263.142336,65.1318359 262.654541,65.1318359 Z M262.35791,58.5598145 C261.777829,58.5598145 261.315309,58.7487774 260.970337,59.126709 C260.625364,59.5046406 260.422119,60.0275846 260.360596,60.6955566 L264.137695,60.6955566 C264.137695,60.0056118 263.983888,59.4771747 263.67627,59.1102295 C263.368651,58.7432843 262.929202,58.5598145 262.35791,58.5598145 Z M272.120361,65 L272.120361,60.326416 C272.120361,59.7375459 271.986329,59.2980972 271.718262,59.0080566 C271.450194,58.7180161 271.03052,58.572998 270.459229,58.572998 C269.703365,58.572998 269.14966,58.7773417 268.798096,59.1860352 C268.446531,59.5947286 268.270752,60.2692824 268.270752,61.2097168 L268.270752,65 L267.176514,65 L267.176514,57.7753906 L268.066406,57.7753906 L268.244385,58.7641602 L268.297119,58.7641602 C268.521241,58.4082013 268.835447,58.1324473 269.239746,57.9368896 C269.644045,57.741332 270.09448,57.6435547 270.591064,57.6435547 C271.461186,57.6435547 272.115965,57.8533915 272.55542,58.2730713 C272.994875,58.6927511 273.2146,59.3640091 273.2146,60.2868652 L273.2146,65 L272.120361,65 Z M76.5219727,83.1318359 C76.0517555,83.1318359 75.6221943,83.0450448 75.2332764,82.87146 C74.8443584,82.6978751 74.5180677,82.43091 74.2543945,82.0705566 L74.175293,82.0705566 C74.2280276,82.4924338 74.2543945,82.8923321 74.2543945,83.2702637 L74.2543945,86.2431641 L73.1601562,86.2431641 L73.1601562,75.7753906 L74.0500488,75.7753906 L74.2016602,76.7641602 L74.2543945,76.7641602 C74.5356459,76.3686504 74.8630352,76.0830087 75.2365723,75.9072266 C75.6101093,75.7314444 76.0385718,75.6435547 76.5219727,75.6435547 C77.4799853,75.6435547 78.2193577,75.970944 78.7401123,76.6257324 C79.2608669,77.2805209 79.5212402,78.1989687 79.5212402,79.3811035 C79.5212402,80.5676329 79.2564724,81.4893766 78.7269287,82.1463623 C78.197385,82.803348 77.462407,83.1318359 76.5219727,83.1318359 Z M76.3637695,76.572998 C75.6254846,76.572998 75.0915544,76.7773417 74.7619629,77.1860352 C74.4323714,77.5947286 74.2631836,78.2451127 74.2543945,79.137207 L74.2543945,79.3811035 C74.2543945,80.3962453 74.4235823,81.1224343 74.7619629,81.5596924 C75.1003435,81.9969504 75.6430627,82.2155762 76.3901367,82.2155762 C77.0141633,82.2155762 77.50305,81.9628932 77.8568115,81.4575195 C78.2105731,80.9521459 78.3874512,80.2556197 78.3874512,79.3679199 C78.3874512,78.4670365 78.2105731,77.7760034 77.8568115,77.2947998 C77.50305,76.8135962 77.0053743,76.572998 76.3637695,76.572998 Z M87.6687012,79.3811035 C87.6687012,80.5588438 87.3720733,81.4783902 86.7788086,82.1397705 C86.1855439,82.8011508 85.365972,83.1318359 84.3200684,83.1318359 C83.674069,83.1318359 83.1005884,82.9802261 82.5996094,82.677002 C82.0986303,82.3737778 81.7119154,81.9387235 81.4394531,81.3718262 C81.1669908,80.8049288 81.0307617,80.1413612 81.0307617,79.3811035 C81.0307617,78.2033633 81.3251924,77.286014 81.9140625,76.6290283 C82.5029326,75.9720426 83.3203073,75.6435547 84.3662109,75.6435547 C85.3769582,75.6435547 86.1800507,75.979733 86.7755127,76.6520996 C87.3709747,77.3244663 87.6687012,78.2341251 87.6687012,79.3811035 Z M82.1645508,79.3811035 C82.1645508,80.3039597 82.3491192,81.0070777 82.7182617,81.4904785 C83.0874042,81.9738794 83.6301234,82.2155762 84.3464355,82.2155762 C85.0627477,82.2155762 85.6065655,81.974978 85.9779053,81.4937744 C86.349245,81.0125708 86.5349121,80.3083542 86.5349121,79.3811035 C86.5349121,78.4626419 86.349245,77.765017 85.9779053,77.288208 C85.6065655,76.811399 85.0583532,76.572998 84.333252,76.572998 C83.6169398,76.572998 83.0764178,76.8081031 82.7116699,77.2783203 C82.346922,77.7485375 82.1645508,78.4494582 82.1645508,79.3811035 Z M90.6811523,83 L89.5869141,83 L89.5869141,75.7753906 L90.6811523,75.7753906 L90.6811523,83 Z M89.4946289,73.817627 C89.4946289,73.5671374 89.5561517,73.3836676 89.6791992,73.2672119 C89.8022467,73.1507563 89.9560538,73.0925293 90.140625,73.0925293 C90.3164071,73.0925293 90.4680169,73.1518549 90.595459,73.2705078 C90.722901,73.3891607 90.7866211,73.571532 90.7866211,73.817627 C90.7866211,74.0637219 90.722901,74.2471918 90.595459,74.368042 C90.4680169,74.4888922 90.3164071,74.5493164 90.140625,74.5493164 C89.9560538,74.5493164 89.8022467,74.4888922 89.6791992,74.368042 C89.5561517,74.2471918 89.4946289,74.0637219 89.4946289,73.817627 Z M97.9453125,83 L97.9453125,78.326416 C97.9453125,77.7375459 97.8112806,77.2980972 97.5432129,77.0080566 C97.2751451,76.7180161 96.8554716,76.572998 96.2841797,76.572998 C95.5283165,76.572998 94.9746111,76.7773417 94.6230469,77.1860352 C94.2714826,77.5947286 94.0957031,78.2692824 94.0957031,79.2097168 L94.0957031,83 L93.0014648,83 L93.0014648,75.7753906 L93.8913574,75.7753906 L94.0693359,76.7641602 L94.1220703,76.7641602 C94.3461925,76.4082013 94.6603984,76.1324473 95.0646973,75.9368896 C95.4689962,75.741332 95.9194311,75.6435547 96.4160156,75.6435547 C97.2861372,75.6435547 97.9409158,75.8533915 98.3803711,76.2730713 C98.8198264,76.6927511 99.0395508,77.3640091 99.0395508,78.2868652 L99.0395508,83 L97.9453125,83 Z M103.62085,82.2287598 C103.81421,82.2287598 104.000976,82.2144777 104.181152,82.1859131 C104.361329,82.1573485 104.50415,82.1276857 104.609619,82.0969238 L104.609619,82.934082 C104.490966,82.9912112 104.316285,83.038452 104.085571,83.0758057 C103.854857,83.1131594 103.647218,83.1318359 103.462646,83.1318359 C102.065179,83.1318359 101.366455,82.3957593 101.366455,80.923584 L101.366455,76.6257324 L100.331543,76.6257324 L100.331543,76.0983887 L101.366455,75.6435547 L101.827881,74.1010742 L102.460693,74.1010742 L102.460693,75.7753906 L104.556885,75.7753906 L104.556885,76.6257324 L102.460693,76.6257324 L102.460693,80.8774414 C102.460693,81.3125022 102.563964,81.6464832 102.770508,81.8793945 C102.977052,82.1123059 103.260496,82.2287598 103.62085,82.2287598 Z M115.795898,79.3811035 C115.795898,80.5588438 115.499271,81.4783902 114.906006,82.1397705 C114.312741,82.8011508 113.493169,83.1318359 112.447266,83.1318359 C111.801266,83.1318359 111.227786,82.9802261 110.726807,82.677002 C110.225828,82.3737778 109.839113,81.9387235 109.56665,81.3718262 C109.294188,80.8049288 109.157959,80.1413612 109.157959,79.3811035 C109.157959,78.2033633 109.45239,77.286014 110.04126,76.6290283 C110.63013,75.9720426 111.447505,75.6435547 112.493408,75.6435547 C113.504155,75.6435547 114.307248,75.979733 114.90271,76.6520996 C115.498172,77.3244663 115.795898,78.2341251 115.795898,79.3811035 Z M110.291748,79.3811035 C110.291748,80.3039597 110.476317,81.0070777 110.845459,81.4904785 C111.214601,81.9738794 111.757321,82.2155762 112.473633,82.2155762 C113.189945,82.2155762 113.733763,81.974978 114.105103,81.4937744 C114.476442,81.0125708 114.662109,80.3083542 114.662109,79.3811035 C114.662109,78.4626419 114.476442,77.765017 114.105103,77.288208 C113.733763,76.811399 113.185551,76.572998 112.460449,76.572998 C111.744137,76.572998 111.203615,76.8081031 110.838867,77.2783203 C110.474119,77.7485375 110.291748,78.4494582 110.291748,79.3811035 Z M120.970459,76.6257324 L119.131348,76.6257324 L119.131348,83 L118.037109,83 L118.037109,76.6257324 L116.745117,76.6257324 L116.745117,76.1313477 L118.037109,75.7358398 L118.037109,75.3337402 C118.037109,73.5583407 118.812736,72.6706543 120.364014,72.6706543 C120.74634,72.6706543 121.194578,72.7475578 121.70874,72.9013672 L121.425293,73.7780762 C121.003416,73.641845 120.643068,73.5737305 120.344238,73.5737305 C119.93115,73.5737305 119.625733,73.7110582 119.427979,73.9857178 C119.230224,74.2603773 119.131348,74.7009247 119.131348,75.307373 L119.131348,75.7753906 L120.970459,75.7753906 L120.970459,76.6257324 Z M128.12915,82.2287598 C128.322511,82.2287598 128.509276,82.2144777 128.689453,82.1859131 C128.86963,82.1573485 129.012451,82.1276857 129.11792,82.0969238 L129.11792,82.934082 C128.999267,82.9912112 128.824586,83.038452 128.593872,83.0758057 C128.363158,83.1131594 128.155519,83.1318359 127.970947,83.1318359 C126.573479,83.1318359 125.874756,82.3957593 125.874756,80.923584 L125.874756,76.6257324 L124.839844,76.6257324 L124.839844,76.0983887 L125.874756,75.6435547 L126.336182,74.1010742 L126.968994,74.1010742 L126.968994,75.7753906 L129.065186,75.7753906 L129.065186,76.6257324 L126.968994,76.6257324 L126.968994,80.8774414 C126.968994,81.3125022 127.072265,81.6464832 127.278809,81.8793945 C127.485353,82.1123059 127.768797,82.2287598 128.12915,82.2287598 Z M131.655762,83 L130.561523,83 L130.561523,75.7753906 L131.655762,75.7753906 L131.655762,83 Z M130.469238,73.817627 C130.469238,73.5671374 130.530761,73.3836676 130.653809,73.2672119 C130.776856,73.1507563 130.930663,73.0925293 131.115234,73.0925293 C131.291017,73.0925293 131.442626,73.1518549 131.570068,73.2705078 C131.69751,73.3891607 131.76123,73.571532 131.76123,73.817627 C131.76123,74.0637219 131.69751,74.2471918 131.570068,74.368042 C131.442626,74.4888922 131.291017,74.5493164 131.115234,74.5493164 C130.930663,74.5493164 130.776856,74.4888922 130.653809,74.368042 C130.530761,74.2471918 130.469238,74.0637219 130.469238,73.817627 Z M143.184814,83 L143.184814,78.3000488 C143.184814,77.7243624 143.061769,77.292604 142.815674,77.0047607 C142.569579,76.7169175 142.187258,76.572998 141.668701,76.572998 C140.987545,76.572998 140.484377,76.7685527 140.15918,77.159668 C139.833983,77.5507832 139.671387,78.152828 139.671387,78.9658203 L139.671387,83 L138.577148,83 L138.577148,78.3000488 C138.577148,77.7243624 138.454103,77.292604 138.208008,77.0047607 C137.961913,76.7169175 137.577395,76.572998 137.054443,76.572998 C136.368893,76.572998 135.866823,76.7784403 135.548218,77.1893311 C135.229613,77.6002218 135.070312,78.273677 135.070312,79.2097168 L135.070312,83 L133.976074,83 L133.976074,75.7753906 L134.865967,75.7753906 L135.043945,76.7641602 L135.09668,76.7641602 C135.303224,76.4125959 135.594358,76.1379404 135.970093,75.9401855 C136.345827,75.7424307 136.766599,75.6435547 137.232422,75.6435547 C138.361822,75.6435547 139.100096,76.052242 139.447266,76.8696289 L139.5,76.8696289 C139.715333,76.4916973 140.027342,76.1928722 140.436035,75.9731445 C140.844729,75.7534169 141.310544,75.6435547 141.833496,75.6435547 C142.650883,75.6435547 143.262815,75.8533915 143.669312,76.2730713 C144.075808,76.6927511 144.279053,77.3640091 144.279053,78.2868652 L144.279053,83 L143.184814,83 Z M149.585449,83.1318359 C148.517573,83.1318359 147.67493,82.8066439 147.057495,82.15625 C146.44006,81.5058561 146.131348,80.602789 146.131348,79.4470215 C146.131348,78.2824649 146.418088,77.3574253 146.991577,76.671875 C147.565066,75.9863247 148.3352,75.6435547 149.302002,75.6435547 C150.20728,75.6435547 150.923581,75.9412812 151.450928,76.5367432 C151.978274,77.1322051 152.241943,77.9177197 152.241943,78.8933105 L152.241943,79.5854492 L147.265137,79.5854492 C147.287109,80.433598 147.501341,81.0773904 147.907837,81.5168457 C148.314333,81.956301 148.886715,82.1760254 149.625,82.1760254 C150.402836,82.1760254 151.171871,82.0134294 151.932129,81.6882324 L151.932129,82.6638184 C151.545408,82.8308114 151.179567,82.9505612 150.834595,83.0230713 C150.489622,83.0955814 150.073245,83.1318359 149.585449,83.1318359 Z M149.288818,76.5598145 C148.708737,76.5598145 148.246218,76.7487774 147.901245,77.126709 C147.556273,77.5046406 147.353028,78.0275846 147.291504,78.6955566 L151.068604,78.6955566 C151.068604,78.0056118 150.914796,77.4771747 150.607178,77.1102295 C150.299559,76.7432843 149.86011,76.5598145 149.288818,76.5598145 Z" id="Iwanttoknowifthereisenoughwaterformetouseatanygivenpointoftime" fill="#032A2F" fill-rule="nonzero"></path>
                </g>
            </g>
        </g>
    </g>
</svg>