<?xml version="1.0" encoding="UTF-8"?>
<svg width="263px" height="93px" viewBox="0 0 263 93" version="1.1" xmlns="http://www.w3.org/2000/svg" xmlns:xlink="http://www.w3.org/1999/xlink">
    <!-- Generator: Sketch 42 (36781) - http://www.bohemiancoding.com/sketch -->
    <title>userneed3a</title>
    <desc>Created with Sketch.</desc>
    <defs></defs>
    <g id="Poster" stroke="none" stroke-width="1" fill="none" fill-rule="evenodd">
        <g id="Artboard-5" transform="translate(-792.000000, -1283.000000)">
            <g id="Group-9-Copy-3" transform="translate(110.000000, 1283.000000)">
                <g id="userneed3a" transform="translate(682.500000, 0.000000)">
                    <rect id="Rectangle-2" fill="#FFFFFF" x="0" y="0" width="262.5" height="93"></rect>
                    <g id="Group-11">
                        <text id="User-Need" font-family="Roboto-MediumItalic, Roboto" font-size="13.5" font-style="italic" font-weight="500" fill="#032A2F">
                            <tspan x="62.75" y="14.25">User Need</tspan>
                        </text>
                        <text id="I-want-to-be-able-to" font-family="Roboto-Italic, Roboto" font-size="13.5" font-style="italic" font-weight="normal" fill="#032A2F">
                            <tspan x="62.75" y="38.25">I want to be able to control how</tspan>
                            <tspan x="62.75" y="56.25">much water gets pumped up to</tspan>
                            <tspan x="62.75" y="74.25">the overhead tank</tspan>
                        </text>
                        <g id="Group-3" transform="translate(0.500000, 5.500000)">
                            <g id="Group-Copy" transform="translate(27.466607, 0.000000)">
                                <path d="M2.14689706e-14,22.9882154 L16.4310382,22.9882154 L16.4310382,2.24606271 C16.4310382,1.00559653 15.4279373,2.15419998e-13 14.1808246,1.93981078e-13 L2.25021356,-1.1116206e-14 C1.00745493,-3.24802768e-14 -2.92156147e-15,1.0025566 -1.54203603e-15,2.24606271 L2.14689706e-14,22.9882154 Z" id="Path-38" stroke="#026F8B" stroke-width="0.75" stroke-linecap="square"></path>
                                <rect id="Rectangle" fill="#026F8B" x="1.26369236" y="16.4821167" width="13.900616" height="5.20487897"></rect>
                            </g>
                            <g id="Group-Copy-2" transform="translate(0.000000, 23.256944)">
                                <path d="M2.23956997e-14,22.9813492 L17.0395951,22.9813492 L17.0395951,2.24539185 C17.0395951,1.00529617 16.0247199,2.15762946e-13 14.7944436,1.95374887e-13 L2.24515152,-1.25911635e-14 C1.00518857,-3.31397486e-14 -2.8810663e-15,1.01713283 -1.46756649e-15,2.24539185 L2.23956997e-14,22.9813492 Z" id="Path-38" stroke="#026F8B" stroke-width="0.75" stroke-linecap="square"></path>
                                <rect id="Rectangle" fill="#026F8B" x="1.31049578" y="4.81062062" width="14.4154536" height="16.8698975"></rect>
                            </g>
                            <polyline id="Path-39" stroke="#026F8B" stroke-width="0.75" stroke-linecap="square" points="17.4155357 40.7459291 22.458491 40.7459291 22.458491 20.5533042 27.4666137 20.5533042"></polyline>
                        </g>
                    </g>
                </g>
            </g>
        </g>
    </g>
</svg>