<?xml version="1.0" encoding="UTF-8"?>
<svg width="279px" height="93px" viewBox="0 0 279 93" version="1.1" xmlns="http://www.w3.org/2000/svg" xmlns:xlink="http://www.w3.org/1999/xlink">
    <!-- Generator: Sketch 53.2 (72643) - https://sketchapp.com -->
    <title>userneed6</title>
    <desc>Created with Sketch.</desc>
    <g id="Poster" stroke="none" stroke-width="1" fill="none" fill-rule="evenodd">
        <g id="Desktop-HD-Copy-2" transform="translate(-589.000000, -5134.000000)">
            <g id="Group-9" transform="translate(248.000000, 4987.000000)">
                <g id="userneed6" transform="translate(341.250000, 147.000000)">
                    <rect id="Rectangle-2" fill="#FFFFFF" x="0" y="0" width="262.5" height="93"></rect>
                    <g id="clockicon" transform="translate(13.500000, 9.000000)" fill="#026F8B" fill-rule="nonzero">
                        <g id="Clock_5pm">
                            <path d="M20.25,8.05325955e-16 C9.06623382,-1.7448729e-15 1.34220993e-15,9.06623382 0,20.25 C-1.34220993e-15,31.4337662 9.06623382,40.5 20.25,40.5 C31.4337662,40.5 40.5,31.4337662 40.5,20.25 C40.4866767,9.07175716 31.4282428,0.0133233072 20.25,0 L20.25,8.05325955e-16 Z M20.25,39.2910448 C9.73392135,39.2910448 1.20895522,30.7660787 1.20895522,20.25 C1.20895522,9.73392135 9.73392135,1.20895522 20.25,1.20895522 C30.7660787,1.20895522 39.2910448,9.73392135 39.2910448,20.25 C39.279385,30.7612452 30.7612452,39.279385 20.25,39.2910448 Z" id="Shape"></path>
                            <path d="M36.948694,19.6455224 L34.6365672,19.6455224 C34.3027234,19.6455224 34.0320896,19.9161562 34.0320896,20.25 C34.0320896,20.5838438 34.3027234,20.8544776 34.6365672,20.8544776 L36.948694,20.8544776 C37.2825378,20.8544776 37.5531716,20.5838438 37.5531716,20.25 C37.5531716,19.9161562 37.2825378,19.6455224 36.948694,19.6455224 Z" id="Shape"></path>
                            <path d="M12.4250373,5.48563433 C12.2512524,5.21225776 11.8928572,5.12447092 11.6124016,5.28658394 C11.3319461,5.44869697 11.2291378,5.80307548 11.379291,6.09011194 L12.5368657,8.09395522 C12.7106506,8.36733179 13.0690458,8.45511863 13.3495013,8.29300561 C13.6299569,8.13089259 13.7327652,7.77651407 13.5826119,7.48947761 L12.4250373,5.48563433 Z" id="Shape"></path>
                            <path d="M8.09395522,12.5338433 L6.09313433,11.3762687 C5.80609787,11.2261154 5.45171935,11.3289237 5.28960633,11.6093793 C5.12749331,11.8898348 5.21528015,12.24823 5.48865672,12.4220149 L7.4925,13.5795896 C7.68012901,13.704492 7.92166688,13.7146262 8.11909907,13.6058797 C8.31653125,13.4971332 8.43705959,13.2875713 8.43177445,13.062233 C8.4264893,12.8368948 8.29626865,12.6332141 8.09395522,12.5338433 L8.09395522,12.5338433 Z" id="Shape"></path>
                            <path d="M6.46791045,20.25 C6.46791045,19.9161562 6.1972766,19.6455224 5.86343284,19.6455224 L3.55130597,19.6455224 C3.2174622,19.6455224 2.94682836,19.9161562 2.94682836,20.25 C2.94682836,20.5838438 3.2174622,20.8544776 3.55130597,20.8544776 L5.86343284,20.8544776 C6.1972766,20.8544776 6.46791045,20.5838438 6.46791045,20.25 Z" id="Shape"></path>
                            <path d="M7.48947761,26.9204104 L5.48563433,28.0779851 C5.21225776,28.25177 5.12447092,28.6101652 5.28658394,28.8906207 C5.44869697,29.1710763 5.80307548,29.2738846 6.09011194,29.1237313 L8.09395522,27.9661567 C8.36733179,27.7923718 8.45511863,27.4339766 8.29300561,27.153521 C8.13089259,26.8730655 7.77651407,26.7702572 7.48947761,26.9204104 L7.48947761,26.9204104 Z" id="Shape"></path>
                            <path d="M13.3589552,32.1854104 C13.0701385,32.0188061 12.70096,32.1175242 12.5338433,32.4060448 L11.3762687,34.4098881 C11.2261154,34.6969245 11.3289237,35.051303 11.6093793,35.2134161 C11.8898348,35.3755291 12.24823,35.2877422 12.4220149,35.0143657 L13.5795896,33.0135448 C13.6605638,32.8745658 13.6828081,32.7090452 13.6413989,32.5536191 C13.5999898,32.398193 13.4983424,32.26568 13.3589552,32.1854104 Z" id="Shape"></path>
                            <path d="M20.25,34.0320896 C19.9161562,34.0320896 19.6455224,34.3027234 19.6455224,34.6365672 L19.6455224,36.948694 C19.6455224,37.2825378 19.9161562,37.5531716 20.25,37.5531716 C20.5838438,37.5531716 20.8544776,37.2825378 20.8544776,36.948694 L20.8544776,34.6365672 C20.8544776,34.3027234 20.5838438,34.0320896 20.25,34.0320896 Z" id="Shape"></path>
                            <path d="M27.9661567,32.4060448 C27.8632366,32.2093004 27.6607375,32.0848178 27.4387198,32.0818127 C27.2167021,32.0788076 27.010908,32.1977638 26.9027005,32.3916505 C26.7944931,32.5855372 26.8012925,32.8231409 26.9204104,33.0105224 L28.0779851,35.0143657 C28.25177,35.2877422 28.6101652,35.3755291 28.8906207,35.2134161 C29.1710763,35.051303 29.2738846,34.6969245 29.1237313,34.4098881 L27.9661567,32.4060448 Z" id="Shape"></path>
                            <path d="M35.0143657,28.0749627 L33.0135448,26.9173881 C32.8261633,26.7982701 32.5885595,26.7914707 32.3946728,26.8996781 C32.2007861,27.0078856 32.08183,27.2136797 32.0848351,27.4356974 C32.0878402,27.6577152 32.2123228,27.8602142 32.4090672,27.9631343 L34.4129104,29.120709 C34.6005395,29.2456114 34.8420773,29.2557456 35.0395095,29.1469991 C35.2369417,29.0382526 35.35747,28.8286907 35.3521849,28.6033524 C35.3468997,28.3780142 35.2166791,28.1743335 35.0143657,28.0749627 L35.0143657,28.0749627 Z" id="Shape"></path>
                            <path d="M32.711306,13.661194 C32.8174703,13.6610056 32.9217126,13.6328602 33.0135448,13.5795896 L35.0173881,12.4220149 C35.2907646,12.24823 35.3785515,11.8898348 35.2164384,11.6093793 C35.0543254,11.3289237 34.6999469,11.2261154 34.4129104,11.3762687 L32.4090672,12.5338433 C32.1727819,12.6709074 32.0577807,12.9494038 32.1285164,13.2132479 C32.1992521,13.4770921 32.4381448,13.6607108 32.711306,13.661194 Z" id="Shape"></path>
                            <path d="M28.903097,5.265 C28.6142803,5.09839569 28.2451018,5.19711374 28.0779851,5.48563433 L26.9204104,7.48947761 C26.7702572,7.77651407 26.8730655,8.13089259 27.153521,8.29300561 C27.4339766,8.45511863 27.7923718,8.36733179 27.9661567,8.09395522 L29.1237313,6.09313433 C29.2047056,5.95415533 29.2269498,5.78863472 29.1855407,5.63320864 C29.1441316,5.47778255 29.0424842,5.34526959 28.903097,5.265 Z" id="Shape"></path>
                            <path d="M21.8639552,21.8367537 C22.4262913,21.2649831 22.6441455,20.4383661 22.4366593,19.6637094 C22.2291731,18.8890528 21.6273177,18.2819891 20.8544776,18.0678358 L20.8544776,5.8725 L20.8544776,5.8725 L20.8544776,3.55130597 C20.8544776,3.2174622 20.5838438,2.94682836 20.25,2.94682836 L20.25,2.94682836 C19.9161562,2.94682836 19.6455224,3.2174622 19.6455224,3.55130597 L19.6455224,18.0587687 C18.4378426,18.3825971 17.7213395,19.6241299 18.0451679,20.8318097 C18.3689964,22.0394895 19.6105291,22.7559926 20.818209,22.4321642 L24.8651866,29.4410821 C24.9681067,29.6378265 25.1706057,29.762309 25.3926235,29.7653141 C25.6146412,29.7683192 25.8204353,29.6493631 25.9286428,29.4554764 C26.0368502,29.2615897 26.0300508,29.0239859 25.9109328,28.8366045 L21.8639552,21.8367537 Z M19.1921642,20.25 C19.1921642,19.6657734 19.6657734,19.1921642 20.25,19.1921642 C20.8342266,19.1921642 21.3078358,19.6657734 21.3078358,20.25 C21.3078358,20.8342266 20.8342266,21.3078358 20.25,21.3078358 C19.6657734,21.3078358 19.1921642,20.8342266 19.1921642,20.25 Z" id="Shape"></path>
                        </g>
                    </g>
                    <path d="M80.826416,13.362793 L80.826416,19.5986328 C80.826416,20.3105504 80.6737076,20.933469 80.3682861,21.4674072 C80.0628647,22.0013454 79.6212187,22.41223 79.043335,22.7000732 C78.4654512,22.9879165 77.7744181,23.1318359 76.9702148,23.1318359 C75.7748964,23.1318359 74.8454623,22.8154329 74.1818848,22.1826172 C73.5183072,21.5498015 73.1865234,20.679693 73.1865234,19.5722656 L73.1865234,13.362793 L74.7685547,13.362793 L74.7685547,19.4602051 C74.7685547,20.2556192 74.9531232,20.8422833 75.3222656,21.2202148 C75.6914081,21.5981464 76.258297,21.7871094 77.0229492,21.7871094 C78.5083082,21.7871094 79.2509766,21.0070879 79.2509766,19.4470215 L79.2509766,13.362793 L80.826416,13.362793 Z M88.0246582,20.923584 C88.0246582,21.6355016 87.7653835,22.1815167 87.2468262,22.5616455 C86.7282689,22.9417744 85.9856005,23.1318359 85.0187988,23.1318359 C84.0476026,23.1318359 83.2675811,22.9846206 82.6787109,22.6901855 L82.6787109,21.3520508 C83.5356488,21.7475606 84.3332483,21.9453125 85.0715332,21.9453125 C86.0251513,21.9453125 86.5019531,21.6574736 86.5019531,21.0817871 C86.5019531,20.8972159 86.4492193,20.7434088 86.34375,20.6203613 C86.2382807,20.4973138 86.0646985,20.3698737 85.822998,20.2380371 C85.5812976,20.1062005 85.2451193,19.9567879 84.8144531,19.7897949 C83.9750935,19.464598 83.407106,19.1394059 83.1104736,18.814209 C82.8138413,18.489012 82.6655273,18.0671413 82.6655273,17.548584 C82.6655273,16.9245574 82.9171117,16.4400652 83.4202881,16.0950928 C83.9234644,15.7501203 84.6079058,15.5776367 85.4736328,15.5776367 C86.3305707,15.5776367 87.1413536,15.751219 87.9060059,16.0983887 L87.4050293,17.2651367 C86.6184043,16.9399398 85.9570339,16.7773438 85.4208984,16.7773438 C84.6035115,16.7773438 84.1948242,17.0102516 84.1948242,17.4760742 C84.1948242,17.704591 84.3013905,17.8979484 84.5145264,18.0561523 C84.7276622,18.2143563 85.1923792,18.4318834 85.9086914,18.7087402 C86.5107452,18.9416516 86.9479967,19.1547842 87.220459,19.3481445 C87.4929213,19.5415049 87.6950677,19.7645251 87.8269043,20.0172119 C87.9587409,20.2698987 88.0246582,20.5720197 88.0246582,20.923584 Z M92.8828125,23.1318359 C91.7490178,23.1318359 90.86243,22.8011508 90.2230225,22.1397705 C89.583615,21.4783902 89.263916,20.5676328 89.263916,19.4074707 C89.263916,18.2165468 89.5605439,17.280521 90.1538086,16.5993652 C90.7470733,15.9182095 91.5622507,15.5776367 92.5993652,15.5776367 C93.5617724,15.5776367 94.3220187,15.8698701 94.880127,16.4543457 C95.4382352,17.0388213 95.7172852,17.8430125 95.7172852,18.8669434 L95.7172852,19.7041016 L90.8591309,19.7041016 C90.8811036,20.4116246 91.0722638,20.9554424 91.4326172,21.3355713 C91.7929706,21.7157001 92.3005338,21.9057617 92.9553223,21.9057617 C93.3859885,21.9057617 93.7869854,21.8651127 94.1583252,21.7838135 C94.5296649,21.7025142 94.9284647,21.5673838 95.3547363,21.378418 L95.3547363,22.6374512 C94.9768048,22.8176279 94.5944844,22.945068 94.2077637,23.0197754 C93.821043,23.0944828 93.379397,23.1318359 92.8828125,23.1318359 Z M92.5993652,16.7509766 C92.1071753,16.7509766 91.71277,16.9069809 91.4161377,17.2189941 C91.1195054,17.5310074 90.9426272,17.9858369 90.885498,18.5834961 L94.1945801,18.5834961 C94.185791,17.9814423 94.0407729,17.5255142 93.7595215,17.2156982 C93.4782701,16.9058822 93.0915552,16.7509766 92.5993652,16.7509766 Z M101.175293,15.5776367 C101.487306,15.5776367 101.744384,15.5996092 101.946533,15.6435547 L101.794922,17.0871582 C101.575194,17.0344236 101.346681,17.0080566 101.109375,17.0080566 C100.489743,17.0080566 99.9876728,17.2102031 99.6031494,17.614502 C99.218626,18.0188008 99.0263672,18.5439421 99.0263672,19.1899414 L99.0263672,23 L97.4772949,23 L97.4772949,15.7094727 L98.6901855,15.7094727 L98.8945312,16.994873 L98.9736328,16.994873 C99.2153332,16.5598123 99.5306377,16.214845 99.9195557,15.9599609 C100.308474,15.7050769 100.727049,15.5776367 101.175293,15.5776367 Z M114.998291,23 L113.066895,23 L108.327393,15.3205566 L108.274658,15.3205566 L108.307617,15.7490234 C108.369141,16.5664103 108.399902,17.3134732 108.399902,17.9902344 L108.399902,23 L106.969482,23 L106.969482,13.362793 L108.881104,13.362793 L113.607422,21.0026855 L113.646973,21.0026855 C113.638184,20.9016108 113.620606,20.5335725 113.594238,19.8985596 C113.567871,19.2635466 113.554688,18.7680682 113.554688,18.4121094 L113.554688,13.362793 L114.998291,13.362793 L114.998291,23 Z M120.561768,23.1318359 C119.427973,23.1318359 118.541385,22.8011508 117.901978,22.1397705 C117.26257,21.4783902 116.942871,20.5676328 116.942871,19.4074707 C116.942871,18.2165468 117.239499,17.280521 117.832764,16.5993652 C118.426028,15.9182095 119.241206,15.5776367 120.27832,15.5776367 C121.240727,15.5776367 122.000974,15.8698701 122.559082,16.4543457 C123.11719,17.0388213 123.39624,17.8430125 123.39624,18.8669434 L123.39624,19.7041016 L118.538086,19.7041016 C118.560059,20.4116246 118.751219,20.9554424 119.111572,21.3355713 C119.471926,21.7157001 119.979489,21.9057617 120.634277,21.9057617 C121.064944,21.9057617 121.465941,21.8651127 121.83728,21.7838135 C122.20862,21.7025142 122.60742,21.5673838 123.033691,21.378418 L123.033691,22.6374512 C122.65576,22.8176279 122.273439,22.945068 121.886719,23.0197754 C121.499998,23.0944828 121.058352,23.1318359 120.561768,23.1318359 Z M120.27832,16.7509766 C119.78613,16.7509766 119.391725,16.9069809 119.095093,17.2189941 C118.79846,17.5310074 118.621582,17.9858369 118.564453,18.5834961 L121.873535,18.5834961 C121.864746,17.9814423 121.719728,17.5255142 121.438477,17.2156982 C121.157225,16.9058822 120.77051,16.7509766 120.27832,16.7509766 Z M128.340088,23.1318359 C127.206293,23.1318359 126.319705,22.8011508 125.680298,22.1397705 C125.04089,21.4783902 124.721191,20.5676328 124.721191,19.4074707 C124.721191,18.2165468 125.017819,17.280521 125.611084,16.5993652 C126.204349,15.9182095 127.019526,15.5776367 128.056641,15.5776367 C129.019048,15.5776367 129.779294,15.8698701 130.337402,16.4543457 C130.895511,17.0388213 131.174561,17.8430125 131.174561,18.8669434 L131.174561,19.7041016 L126.316406,19.7041016 C126.338379,20.4116246 126.529539,20.9554424 126.889893,21.3355713 C127.250246,21.7157001 127.757809,21.9057617 128.412598,21.9057617 C128.843264,21.9057617 129.244261,21.8651127 129.615601,21.7838135 C129.98694,21.7025142 130.38574,21.5673838 130.812012,21.378418 L130.812012,22.6374512 C130.43408,22.8176279 130.05176,22.945068 129.665039,23.0197754 C129.278318,23.0944828 128.836672,23.1318359 128.340088,23.1318359 Z M128.056641,16.7509766 C127.564451,16.7509766 127.170045,16.9069809 126.873413,17.2189941 C126.576781,17.5310074 126.399903,17.9858369 126.342773,18.5834961 L129.651855,18.5834961 C129.643066,17.9814423 129.498048,17.5255142 129.216797,17.2156982 C128.935545,16.9058822 128.548831,16.7509766 128.056641,16.7509766 Z M135.393311,23.1318359 C134.483638,23.1318359 133.773928,22.8022494 133.26416,22.1430664 C132.754392,21.4838834 132.499512,20.5588438 132.499512,19.3679199 C132.499512,18.1726014 132.757688,17.2420688 133.274048,16.5762939 C133.790408,15.9105191 134.505611,15.5776367 135.419678,15.5776367 C136.37769,15.5776367 137.107175,15.9313929 137.608154,16.638916 L137.687256,16.638916 C137.612548,16.1159642 137.575195,15.7028824 137.575195,15.3996582 L137.575195,12.7431641 L139.130859,12.7431641 L139.130859,23 L137.917969,23 L137.647705,22.0441895 L137.575195,22.0441895 C137.078611,22.7692907 136.351323,23.1318359 135.393311,23.1318359 Z M135.808594,21.8793945 C136.445804,21.8793945 136.909422,21.7003192 137.199463,21.3421631 C137.489503,20.984007 137.638916,20.4028361 137.647705,19.5986328 L137.647705,19.3811035 C137.647705,18.4626419 137.498293,17.8100605 137.199463,17.4233398 C136.900633,17.0366192 136.43262,16.8432617 135.79541,16.8432617 C135.250486,16.8432617 134.830812,17.0640847 134.536377,17.5057373 C134.241942,17.9473899 134.094727,18.5769002 134.094727,19.3942871 C134.094727,20.2028849 134.237547,20.8192117 134.523193,21.2432861 C134.808839,21.6673605 135.237302,21.8793945 135.808594,21.8793945 Z M144.364746,18.8933105 C144.364746,15.1227839 145.900619,13.2375488 148.972412,13.2375488 C149.455813,13.2375488 149.8645,13.274902 150.198486,13.3496094 L150.198486,14.6416016 C149.8645,14.5449214 149.477785,14.496582 149.03833,14.496582 C148.00561,14.496582 147.229983,14.7734347 146.711426,15.3271484 C146.192869,15.8808621 145.911621,16.7685486 145.867676,17.9902344 L145.946777,17.9902344 C146.153321,17.6342756 146.443358,17.3585215 146.816895,17.1629639 C147.190432,16.9674062 147.62988,16.8696289 148.135254,16.8696289 C149.00977,16.8696289 149.690916,17.1376926 150.178711,17.6738281 C150.666506,18.2099636 150.9104,18.9372513 150.9104,19.8557129 C150.9104,20.8664601 150.628055,21.6651582 150.063354,22.2518311 C149.498654,22.8385039 148.728521,23.1318359 147.75293,23.1318359 C147.062985,23.1318359 146.463137,22.965944 145.953369,22.6341553 C145.443601,22.3023665 145.051393,21.8189729 144.776733,21.18396 C144.502074,20.548947 144.364746,19.7854049 144.364746,18.8933105 Z M147.726562,21.8530273 C148.258303,21.8530273 148.668089,21.6816423 148.955933,21.3388672 C149.243776,20.996092 149.387695,20.5061067 149.387695,19.8688965 C149.387695,19.3151828 149.252565,18.8801285 148.9823,18.5637207 C148.712035,18.2473129 148.306643,18.0891113 147.766113,18.0891113 C147.432127,18.0891113 147.124513,18.1605217 146.843262,18.3033447 C146.56201,18.4461677 146.340089,18.6417224 146.17749,18.8900146 C146.014892,19.1383069 145.933594,19.3920885 145.933594,19.6513672 C145.933594,20.2709992 146.101683,20.7928446 146.437866,21.2169189 C146.77405,21.6409933 147.203611,21.8530273 147.726562,21.8530273 Z" id="UserNeed6" fill="#032A2F" fill-rule="nonzero"></path>
                    <path d="M73.3249512,50 L73.3249512,40.362793 L74.4455566,40.362793 L74.4455566,50 L73.3249512,50 Z M86.3305664,50 L85.0056152,45.7614746 C84.9221187,45.502196 84.7661144,44.9133347 84.5375977,43.994873 L84.4848633,43.994873 C84.3090812,44.7639199 84.1552741,45.3571756 84.0234375,45.7746582 L82.6589355,50 L81.3933105,50 L79.4223633,42.7753906 L80.5693359,42.7753906 C81.0351586,44.5903411 81.3900134,45.9724074 81.6339111,46.9216309 C81.8778088,47.8708544 82.0173338,48.5102523 82.0524902,48.8398438 L82.1052246,48.8398438 C82.1535647,48.5893542 82.2315668,48.2652608 82.3392334,47.8675537 C82.4469,47.4698466 82.5402828,47.1545422 82.6193848,46.9216309 L83.9443359,42.7753906 L85.1308594,42.7753906 L86.4228516,46.9216309 C86.6689465,47.677494 86.8359371,48.3124974 86.9238281,48.8266602 L86.9765625,48.8266602 C86.9941407,48.6684562 87.0413815,48.4245622 87.1182861,48.0949707 C87.1951908,47.7653792 87.6533161,45.9922036 88.4926758,42.7753906 L89.6264648,42.7753906 L87.6291504,50 L86.3305664,50 Z M95.3745117,50 L95.1569824,48.9716797 L95.104248,48.9716797 C94.7438947,49.4243187 94.3846453,49.7308342 94.0264893,49.8912354 C93.6683332,50.0516365 93.2211941,50.1318359 92.6850586,50.1318359 C91.9687464,50.1318359 91.4073507,49.9472675 91.0008545,49.578125 C90.5943583,49.2089825 90.3911133,48.6838413 90.3911133,48.0026855 C90.3911133,46.5436939 91.5578497,45.7790531 93.8913574,45.7087402 L95.1174316,45.6691895 L95.1174316,45.2209473 C95.1174316,44.6540499 94.9954846,44.235475 94.7515869,43.96521 C94.5076892,43.6949449 94.1176785,43.5598145 93.581543,43.5598145 C92.9794892,43.5598145 92.2983436,43.7443829 91.5380859,44.1135254 L91.2019043,43.2763672 C91.5578631,43.0830068 91.9478739,42.931397 92.3719482,42.8215332 C92.7960226,42.7116694 93.2211893,42.6567383 93.6474609,42.6567383 C94.5087934,42.6567383 95.1470927,42.8478985 95.5623779,43.2302246 C95.9776632,43.6125507 96.1853027,44.2255817 96.1853027,45.0693359 L96.1853027,50 L95.3745117,50 Z M92.9025879,49.2287598 C93.5837436,49.2287598 94.1187725,49.0419941 94.5076904,48.668457 C94.8966084,48.29492 95.0910645,47.771976 95.0910645,47.0996094 L95.0910645,46.4470215 L93.9968262,46.4931641 C93.1267046,46.5239259 92.4993916,46.6590564 92.1148682,46.8985596 C91.7303448,47.1380627 91.5380859,47.5104955 91.5380859,48.0158691 C91.5380859,48.4113789 91.6578357,48.7124013 91.8973389,48.9189453 C92.136842,49.1254893 92.4719217,49.2287598 92.9025879,49.2287598 Z M103.383545,50 L103.383545,45.326416 C103.383545,44.7375459 103.249513,44.2980972 102.981445,44.0080566 C102.713378,43.7180161 102.293704,43.572998 101.722412,43.572998 C100.966549,43.572998 100.412844,43.7773417 100.061279,44.1860352 C99.709715,44.5947286 99.5339355,45.2692824 99.5339355,46.2097168 L99.5339355,50 L98.4396973,50 L98.4396973,42.7753906 L99.3295898,42.7753906 L99.5075684,43.7641602 L99.5603027,43.7641602 C99.7844249,43.4082013 100.098631,43.1324473 100.50293,42.9368896 C100.907229,42.741332 101.357664,42.6435547 101.854248,42.6435547 C102.72437,42.6435547 103.379148,42.8533915 103.818604,43.2730713 C104.258059,43.6927511 104.477783,44.3640091 104.477783,45.2868652 L104.477783,50 L103.383545,50 Z M109.059082,49.2287598 C109.252442,49.2287598 109.439208,49.2144777 109.619385,49.1859131 C109.799561,49.1573485 109.942382,49.1276857 110.047852,49.0969238 L110.047852,49.934082 C109.929199,49.9912112 109.754518,50.038452 109.523804,50.0758057 C109.29309,50.1131594 109.08545,50.1318359 108.900879,50.1318359 C107.503411,50.1318359 106.804688,49.3957593 106.804688,47.923584 L106.804688,43.6257324 L105.769775,43.6257324 L105.769775,43.0983887 L106.804688,42.6435547 L107.266113,41.1010742 L107.898926,41.1010742 L107.898926,42.7753906 L109.995117,42.7753906 L109.995117,43.6257324 L107.898926,43.6257324 L107.898926,47.8774414 C107.898926,48.3125022 108.002196,48.6464832 108.20874,48.8793945 C108.415284,49.1123059 108.698729,49.2287598 109.059082,49.2287598 Z M117.331787,49.2287598 C117.525147,49.2287598 117.711913,49.2144777 117.89209,49.1859131 C118.072267,49.1573485 118.215087,49.1276857 118.320557,49.0969238 L118.320557,49.934082 C118.201904,49.9912112 118.027223,50.038452 117.796509,50.0758057 C117.565795,50.1131594 117.358155,50.1318359 117.173584,50.1318359 C115.776116,50.1318359 115.077393,49.3957593 115.077393,47.923584 L115.077393,43.6257324 L114.04248,43.6257324 L114.04248,43.0983887 L115.077393,42.6435547 L115.538818,41.1010742 L116.171631,41.1010742 L116.171631,42.7753906 L118.267822,42.7753906 L118.267822,43.6257324 L116.171631,43.6257324 L116.171631,47.8774414 C116.171631,48.3125022 116.274901,48.6464832 116.481445,48.8793945 C116.687989,49.1123059 116.971434,49.2287598 117.331787,49.2287598 Z M126,46.3811035 C126,47.5588438 125.703372,48.4783902 125.110107,49.1397705 C124.516843,49.8011508 123.697271,50.1318359 122.651367,50.1318359 C122.005368,50.1318359 121.431887,49.9802261 120.930908,49.677002 C120.429929,49.3737778 120.043214,48.9387235 119.770752,48.3718262 C119.49829,47.8049288 119.362061,47.1413612 119.362061,46.3811035 C119.362061,45.2033633 119.656491,44.286014 120.245361,43.6290283 C120.834231,42.9720426 121.651606,42.6435547 122.69751,42.6435547 C123.708257,42.6435547 124.51135,42.979733 125.106812,43.6520996 C125.702273,44.3244663 126,45.2341251 126,46.3811035 Z M120.49585,46.3811035 C120.49585,47.3039597 120.680418,48.0070777 121.049561,48.4904785 C121.418703,48.9738794 121.961422,49.2155762 122.677734,49.2155762 C123.394047,49.2155762 123.937864,48.974978 124.309204,48.4937744 C124.680544,48.0125708 124.866211,47.3083542 124.866211,46.3811035 C124.866211,45.4626419 124.680544,44.765017 124.309204,44.288208 C123.937864,43.811399 123.389652,43.572998 122.664551,43.572998 C121.948239,43.572998 121.407717,43.8081031 121.042969,44.2783203 C120.678221,44.7485375 120.49585,45.4494582 120.49585,46.3811035 Z M134.786865,42.6567383 C135.736089,42.6567383 136.473264,42.9808317 136.998413,43.6290283 C137.523562,44.2772249 137.786133,45.1945741 137.786133,46.3811035 C137.786133,47.5676329 137.521365,48.4893766 136.991821,49.1463623 C136.462278,49.803348 135.7273,50.1318359 134.786865,50.1318359 C134.316648,50.1318359 133.887087,50.0450448 133.498169,49.87146 C133.109251,49.6978751 132.78296,49.43091 132.519287,49.0705566 L132.440186,49.0705566 L132.209473,50 L131.425049,50 L131.425049,39.7431641 L132.519287,39.7431641 L132.519287,42.2348633 C132.519287,42.7929715 132.501709,43.2939431 132.466553,43.737793 L132.519287,43.737793 C133.029055,43.0170862 133.784907,42.6567383 134.786865,42.6567383 Z M134.628662,43.572998 C133.881588,43.572998 133.343263,43.7872293 133.013672,44.2156982 C132.68408,44.6441672 132.519287,45.3659617 132.519287,46.3811035 C132.519287,47.3962453 132.688475,48.1224343 133.026855,48.5596924 C133.365236,48.9969504 133.907955,49.2155762 134.655029,49.2155762 C135.327396,49.2155762 135.828367,48.9705835 136.157959,48.4805908 C136.48755,47.9905981 136.652344,47.2863815 136.652344,46.3679199 C136.652344,45.4274855 136.48755,44.7265648 136.157959,44.2651367 C135.828367,43.8037086 135.318607,43.572998 134.628662,43.572998 Z M142.749756,50.1318359 C141.681879,50.1318359 140.839236,49.8066439 140.221802,49.15625 C139.604367,48.5058561 139.295654,47.602789 139.295654,46.4470215 C139.295654,45.2824649 139.582395,44.3574253 140.155884,43.671875 C140.729373,42.9863247 141.499507,42.6435547 142.466309,42.6435547 C143.371587,42.6435547 144.087888,42.9412812 144.615234,43.5367432 C145.142581,44.1322051 145.40625,44.9177197 145.40625,45.8933105 L145.40625,46.5854492 L140.429443,46.5854492 C140.451416,47.433598 140.665647,48.0773904 141.072144,48.5168457 C141.47864,48.956301 142.051022,49.1760254 142.789307,49.1760254 C143.567143,49.1760254 144.336178,49.0134294 145.096436,48.6882324 L145.096436,49.6638184 C144.709715,49.8308114 144.343874,49.9505612 143.998901,50.0230713 C143.653929,50.0955814 143.237551,50.1318359 142.749756,50.1318359 Z M142.453125,43.5598145 C141.873044,43.5598145 141.410524,43.7487774 141.065552,44.126709 C140.720579,44.5046406 140.517334,45.0275846 140.455811,45.6955566 L144.23291,45.6955566 C144.23291,45.0056118 144.079103,44.4771747 143.771484,44.1102295 C143.463866,43.7432843 143.024417,43.5598145 142.453125,43.5598145 Z M155.221436,50 L155.003906,48.9716797 L154.951172,48.9716797 C154.590819,49.4243187 154.231569,49.7308342 153.873413,49.8912354 C153.515257,50.0516365 153.068118,50.1318359 152.531982,50.1318359 C151.81567,50.1318359 151.254274,49.9472675 150.847778,49.578125 C150.441282,49.2089825 150.238037,48.6838413 150.238037,48.0026855 C150.238037,46.5436939 151.404773,45.7790531 153.738281,45.7087402 L154.964355,45.6691895 L154.964355,45.2209473 C154.964355,44.6540499 154.842408,44.235475 154.598511,43.96521 C154.354613,43.6949449 153.964602,43.5598145 153.428467,43.5598145 C152.826413,43.5598145 152.145267,43.7443829 151.38501,44.1135254 L151.048828,43.2763672 C151.404787,43.0830068 151.794798,42.931397 152.218872,42.8215332 C152.642946,42.7116694 153.068113,42.6567383 153.494385,42.6567383 C154.355717,42.6567383 154.994016,42.8478985 155.409302,43.2302246 C155.824587,43.6125507 156.032227,44.2255817 156.032227,45.0693359 L156.032227,50 L155.221436,50 Z M152.749512,49.2287598 C153.430667,49.2287598 153.965696,49.0419941 154.354614,48.668457 C154.743532,48.29492 154.937988,47.771976 154.937988,47.0996094 L154.937988,46.4470215 L153.84375,46.4931641 C152.973628,46.5239259 152.346315,46.6590564 151.961792,46.8985596 C151.577269,47.1380627 151.38501,47.5104955 151.38501,48.0158691 C151.38501,48.4113789 151.50476,48.7124013 151.744263,48.9189453 C151.983766,49.1254893 152.318846,49.2287598 152.749512,49.2287598 Z M161.648438,42.6567383 C162.597661,42.6567383 163.334836,42.9808317 163.859985,43.6290283 C164.385134,44.2772249 164.647705,45.1945741 164.647705,46.3811035 C164.647705,47.5676329 164.382937,48.4893766 163.853394,49.1463623 C163.32385,49.803348 162.588872,50.1318359 161.648438,50.1318359 C161.17822,50.1318359 160.748659,50.0450448 160.359741,49.87146 C159.970823,49.6978751 159.644533,49.43091 159.380859,49.0705566 L159.301758,49.0705566 L159.071045,50 L158.286621,50 L158.286621,39.7431641 L159.380859,39.7431641 L159.380859,42.2348633 C159.380859,42.7929715 159.363281,43.2939431 159.328125,43.737793 L159.380859,43.737793 C159.890628,43.0170862 160.646479,42.6567383 161.648438,42.6567383 Z M161.490234,43.572998 C160.74316,43.572998 160.204836,43.7872293 159.875244,44.2156982 C159.545653,44.6441672 159.380859,45.3659617 159.380859,46.3811035 C159.380859,47.3962453 159.550047,48.1224343 159.888428,48.5596924 C160.226808,48.9969504 160.769528,49.2155762 161.516602,49.2155762 C162.188968,49.2155762 162.68994,48.9705835 163.019531,48.4805908 C163.349123,47.9905981 163.513916,47.2863815 163.513916,46.3679199 C163.513916,45.4274855 163.349123,44.7265648 163.019531,44.2651367 C162.68994,43.8037086 162.180179,43.572998 161.490234,43.572998 Z M167.653564,50 L166.559326,50 L166.559326,39.7431641 L167.653564,39.7431641 L167.653564,50 Z M173.025879,50.1318359 C171.958002,50.1318359 171.11536,49.8066439 170.497925,49.15625 C169.88049,48.5058561 169.571777,47.602789 169.571777,46.4470215 C169.571777,45.2824649 169.858518,44.3574253 170.432007,43.671875 C171.005496,42.9863247 171.77563,42.6435547 172.742432,42.6435547 C173.64771,42.6435547 174.364011,42.9412812 174.891357,43.5367432 C175.418704,44.1322051 175.682373,44.9177197 175.682373,45.8933105 L175.682373,46.5854492 L170.705566,46.5854492 C170.727539,47.433598 170.94177,48.0773904 171.348267,48.5168457 C171.754763,48.956301 172.327145,49.1760254 173.06543,49.1760254 C173.843266,49.1760254 174.612301,49.0134294 175.372559,48.6882324 L175.372559,49.6638184 C174.985838,49.8308114 174.619997,49.9505612 174.275024,50.0230713 C173.930052,50.0955814 173.513674,50.1318359 173.025879,50.1318359 Z M172.729248,43.5598145 C172.149167,43.5598145 171.686647,43.7487774 171.341675,44.126709 C170.996702,44.5046406 170.793457,45.0275846 170.731934,45.6955566 L174.509033,45.6955566 C174.509033,45.0056118 174.355226,44.4771747 174.047607,44.1102295 C173.739989,43.7432843 173.30054,43.5598145 172.729248,43.5598145 Z M183.388184,49.2287598 C183.581544,49.2287598 183.76831,49.2144777 183.948486,49.1859131 C184.128663,49.1573485 184.271484,49.1276857 184.376953,49.0969238 L184.376953,49.934082 C184.2583,49.9912112 184.083619,50.038452 183.852905,50.0758057 C183.622191,50.1131594 183.414552,50.1318359 183.22998,50.1318359 C181.832513,50.1318359 181.133789,49.3957593 181.133789,47.923584 L181.133789,43.6257324 L180.098877,43.6257324 L180.098877,43.0983887 L181.133789,42.6435547 L181.595215,41.1010742 L182.228027,41.1010742 L182.228027,42.7753906 L184.324219,42.7753906 L184.324219,43.6257324 L182.228027,43.6257324 L182.228027,47.8774414 C182.228027,48.3125022 182.331298,48.6464832 182.537842,48.8793945 C182.744386,49.1123059 183.02783,49.2287598 183.388184,49.2287598 Z M192.056396,46.3811035 C192.056396,47.5588438 191.759769,48.4783902 191.166504,49.1397705 C190.573239,49.8011508 189.753667,50.1318359 188.707764,50.1318359 C188.061764,50.1318359 187.488284,49.9802261 186.987305,49.677002 C186.486326,49.3737778 186.099611,48.9387235 185.827148,48.3718262 C185.554686,47.8049288 185.418457,47.1413612 185.418457,46.3811035 C185.418457,45.2033633 185.712888,44.286014 186.301758,43.6290283 C186.890628,42.9720426 187.708003,42.6435547 188.753906,42.6435547 C189.764653,42.6435547 190.567746,42.979733 191.163208,43.6520996 C191.75867,44.3244663 192.056396,45.2341251 192.056396,46.3811035 Z M186.552246,46.3811035 C186.552246,47.3039597 186.736815,48.0070777 187.105957,48.4904785 C187.4751,48.9738794 188.017819,49.2155762 188.734131,49.2155762 C189.450443,49.2155762 189.994261,48.974978 190.365601,48.4937744 C190.73694,48.0125708 190.922607,47.3083542 190.922607,46.3811035 C190.922607,45.4626419 190.73694,44.765017 190.365601,44.288208 C189.994261,43.811399 189.446049,43.572998 188.720947,43.572998 C188.004635,43.572998 187.464113,43.8081031 187.099365,44.2783203 C186.734617,44.7485375 186.552246,45.4494582 186.552246,46.3811035 Z M200.368652,50.1318359 C199.322749,50.1318359 198.513064,49.8099397 197.939575,49.1661377 C197.366086,48.5223356 197.079346,47.6115782 197.079346,46.4338379 C197.079346,45.2253358 197.37048,44.2915072 197.952759,43.6323242 C198.535037,42.9731412 199.364497,42.6435547 200.441162,42.6435547 C200.788332,42.6435547 201.135496,42.6809078 201.482666,42.7556152 C201.829836,42.8303226 202.102294,42.9182124 202.300049,43.0192871 L201.963867,43.9487305 C201.722167,43.8520503 201.458498,43.7718509 201.172852,43.7081299 C200.887206,43.6444089 200.634523,43.6125488 200.414795,43.6125488 C198.947014,43.6125488 198.213135,44.5485746 198.213135,46.4206543 C198.213135,47.308354 198.39221,47.9894996 198.750366,48.4641113 C199.108522,48.9387231 199.639157,49.1760254 200.342285,49.1760254 C200.944339,49.1760254 201.561764,49.046388 202.19458,48.7871094 L202.19458,49.7561035 C201.711179,50.006593 201.102543,50.1318359 200.368652,50.1318359 Z M210.144287,46.3811035 C210.144287,47.5588438 209.847659,48.4783902 209.254395,49.1397705 C208.66113,49.8011508 207.841558,50.1318359 206.795654,50.1318359 C206.149655,50.1318359 205.576174,49.9802261 205.075195,49.677002 C204.574216,49.3737778 204.187501,48.9387235 203.915039,48.3718262 C203.642577,47.8049288 203.506348,47.1413612 203.506348,46.3811035 C203.506348,45.2033633 203.800778,44.286014 204.389648,43.6290283 C204.978519,42.9720426 205.795893,42.6435547 206.841797,42.6435547 C207.852544,42.6435547 208.655637,42.979733 209.251099,43.6520996 C209.846561,44.3244663 210.144287,45.2341251 210.144287,46.3811035 Z M204.640137,46.3811035 C204.640137,47.3039597 204.824705,48.0070777 205.193848,48.4904785 C205.56299,48.9738794 206.105709,49.2155762 206.822021,49.2155762 C207.538334,49.2155762 208.082151,48.974978 208.453491,48.4937744 C208.824831,48.0125708 209.010498,47.3083542 209.010498,46.3811035 C209.010498,45.4626419 208.824831,44.765017 208.453491,44.288208 C208.082151,43.811399 207.533939,43.572998 206.808838,43.572998 C206.092526,43.572998 205.552004,43.8081031 205.187256,44.2783203 C204.822508,44.7485375 204.640137,45.4494582 204.640137,46.3811035 Z M217.006348,50 L217.006348,45.326416 C217.006348,44.7375459 216.872316,44.2980972 216.604248,44.0080566 C216.33618,43.7180161 215.916507,43.572998 215.345215,43.572998 C214.589352,43.572998 214.035646,43.7773417 213.684082,44.1860352 C213.332518,44.5947286 213.156738,45.2692824 213.156738,46.2097168 L213.156738,50 L212.0625,50 L212.0625,42.7753906 L212.952393,42.7753906 L213.130371,43.7641602 L213.183105,43.7641602 C213.407228,43.4082013 213.721434,43.1324473 214.125732,42.9368896 C214.530031,42.741332 214.980466,42.6435547 215.477051,42.6435547 C216.347172,42.6435547 217.001951,42.8533915 217.441406,43.2730713 C217.880862,43.6927511 218.100586,44.3640091 218.100586,45.2868652 L218.100586,50 L217.006348,50 Z M222.681885,49.2287598 C222.875245,49.2287598 223.062011,49.2144777 223.242188,49.1859131 C223.422364,49.1573485 223.565185,49.1276857 223.670654,49.0969238 L223.670654,49.934082 C223.552001,49.9912112 223.37732,50.038452 223.146606,50.0758057 C222.915892,50.1131594 222.708253,50.1318359 222.523682,50.1318359 C221.126214,50.1318359 220.42749,49.3957593 220.42749,47.923584 L220.42749,43.6257324 L219.392578,43.6257324 L219.392578,43.0983887 L220.42749,42.6435547 L220.888916,41.1010742 L221.521729,41.1010742 L221.521729,42.7753906 L223.61792,42.7753906 L223.61792,43.6257324 L221.521729,43.6257324 L221.521729,47.8774414 C221.521729,48.3125022 221.624999,48.6464832 221.831543,48.8793945 C222.038087,49.1123059 222.321531,49.2287598 222.681885,49.2287598 Z M228.410156,42.6435547 C228.730959,42.6435547 229.018798,42.6699216 229.273682,42.7226562 L229.12207,43.737793 C228.823241,43.6718747 228.559571,43.638916 228.331055,43.638916 C227.746579,43.638916 227.246706,43.8762183 226.831421,44.3508301 C226.416136,44.8254418 226.208496,45.4165004 226.208496,46.1240234 L226.208496,50 L225.114258,50 L225.114258,42.7753906 L226.017334,42.7753906 L226.142578,44.1135254 L226.195312,44.1135254 C226.46338,43.6433082 226.786375,43.280763 227.164307,43.0258789 C227.542238,42.7709948 227.957517,42.6435547 228.410156,42.6435547 Z M236.590576,46.3811035 C236.590576,47.5588438 236.293948,48.4783902 235.700684,49.1397705 C235.107419,49.8011508 234.287847,50.1318359 233.241943,50.1318359 C232.595944,50.1318359 232.022463,49.9802261 231.521484,49.677002 C231.020505,49.3737778 230.63379,48.9387235 230.361328,48.3718262 C230.088866,47.8049288 229.952637,47.1413612 229.952637,46.3811035 C229.952637,45.2033633 230.247067,44.286014 230.835938,43.6290283 C231.424808,42.9720426 232.242182,42.6435547 233.288086,42.6435547 C234.298833,42.6435547 235.101926,42.979733 235.697388,43.6520996 C236.29285,44.3244663 236.590576,45.2341251 236.590576,46.3811035 Z M231.086426,46.3811035 C231.086426,47.3039597 231.270994,48.0070777 231.640137,48.4904785 C232.009279,48.9738794 232.551998,49.2155762 233.268311,49.2155762 C233.984623,49.2155762 234.528441,48.974978 234.89978,48.4937744 C235.27112,48.0125708 235.456787,47.3083542 235.456787,46.3811035 C235.456787,45.4626419 235.27112,44.765017 234.89978,44.288208 C234.528441,43.811399 233.980228,43.572998 233.255127,43.572998 C232.538815,43.572998 231.998293,43.8081031 231.633545,44.2783203 C231.268797,44.7485375 231.086426,45.4494582 231.086426,46.3811035 Z M239.603027,50 L238.508789,50 L238.508789,39.7431641 L239.603027,39.7431641 L239.603027,50 Z M251.329834,50 L250.004883,45.7614746 C249.921386,45.502196 249.765382,44.9133347 249.536865,43.994873 L249.484131,43.994873 C249.308349,44.7639199 249.154542,45.3571756 249.022705,45.7746582 L247.658203,50 L246.392578,50 L244.421631,42.7753906 L245.568604,42.7753906 C246.034426,44.5903411 246.389281,45.9724074 246.633179,46.9216309 C246.877076,47.8708544 247.016601,48.5102523 247.051758,48.8398438 L247.104492,48.8398438 C247.152832,48.5893542 247.230834,48.2652608 247.338501,47.8675537 C247.446168,47.4698466 247.53955,47.1545422 247.618652,46.9216309 L248.943604,42.7753906 L250.130127,42.7753906 L251.422119,46.9216309 C251.668214,47.677494 251.835205,48.3124974 251.923096,48.8266602 L251.97583,48.8266602 C251.993408,48.6684562 252.040649,48.4245622 252.117554,48.0949707 C252.194458,47.7653792 252.652584,45.9922036 253.491943,42.7753906 L254.625732,42.7753906 L252.628418,50 L251.329834,50 Z M260.874756,50 L260.874756,45.326416 C260.874756,44.7375459 260.740724,44.2980972 260.472656,44.0080566 C260.204589,43.7180161 259.784915,43.572998 259.213623,43.572998 C258.453365,43.572998 257.898561,43.779539 257.549194,44.192627 C257.199827,44.605715 257.025146,45.282466 257.025146,46.2229004 L257.025146,50 L255.930908,50 L255.930908,39.7431641 L257.025146,39.7431641 L257.025146,42.8479004 C257.025146,43.2214374 257.007569,43.5312488 256.972412,43.7773438 L257.03833,43.7773438 C257.253663,43.430174 257.560179,43.1566172 257.957886,42.956665 C258.355593,42.7567129 258.809324,42.6567383 259.319092,42.6567383 C260.202397,42.6567383 260.864866,42.8665751 261.306519,43.2862549 C261.748171,43.7059347 261.968994,44.3727982 261.968994,45.2868652 L261.968994,50 L260.874756,50 Z M267.268799,50.1318359 C266.200922,50.1318359 265.358279,49.8066439 264.740845,49.15625 C264.12341,48.5058561 263.814697,47.602789 263.814697,46.4470215 C263.814697,45.2824649 264.101438,44.3574253 264.674927,43.671875 C265.248416,42.9863247 266.01855,42.6435547 266.985352,42.6435547 C267.89063,42.6435547 268.606931,42.9412812 269.134277,43.5367432 C269.661624,44.1322051 269.925293,44.9177197 269.925293,45.8933105 L269.925293,46.5854492 L264.948486,46.5854492 C264.970459,47.433598 265.18469,48.0773904 265.591187,48.5168457 C265.997683,48.956301 266.570065,49.1760254 267.30835,49.1760254 C268.086186,49.1760254 268.855221,49.0134294 269.615479,48.6882324 L269.615479,49.6638184 C269.228758,49.8308114 268.862917,49.9505612 268.517944,50.0230713 C268.172972,50.0955814 267.756594,50.1318359 267.268799,50.1318359 Z M266.972168,43.5598145 C266.392087,43.5598145 265.929567,43.7487774 265.584595,44.126709 C265.239622,44.5046406 265.036377,45.0275846 264.974854,45.6955566 L268.751953,45.6955566 C268.751953,45.0056118 268.598146,44.4771747 268.290527,44.1102295 C267.982909,43.7432843 267.54346,43.5598145 266.972168,43.5598145 Z M276.734619,50 L276.734619,45.326416 C276.734619,44.7375459 276.600587,44.2980972 276.33252,44.0080566 C276.064452,43.7180161 275.644778,43.572998 275.073486,43.572998 C274.317623,43.572998 273.763918,43.7773417 273.412354,44.1860352 C273.060789,44.5947286 272.88501,45.2692824 272.88501,46.2097168 L272.88501,50 L271.790771,50 L271.790771,42.7753906 L272.680664,42.7753906 L272.858643,43.7641602 L272.911377,43.7641602 C273.135499,43.4082013 273.449705,43.1324473 273.854004,42.9368896 C274.258303,42.741332 274.708738,42.6435547 275.205322,42.6435547 C276.075444,42.6435547 276.730222,42.8533915 277.169678,43.2730713 C277.609133,43.6927511 277.828857,44.3640091 277.828857,45.2868652 L277.828857,50 L276.734619,50 Z M79.0598145,68 L77.7348633,63.7614746 C77.6513668,63.502196 77.4953625,62.9133347 77.2668457,61.994873 L77.2141113,61.994873 C77.0383292,62.7639199 76.8845221,63.3571756 76.7526855,63.7746582 L75.3881836,68 L74.1225586,68 L72.1516113,60.7753906 L73.298584,60.7753906 C73.7644066,62.5903411 74.1192615,63.9724074 74.3631592,64.9216309 C74.6070569,65.8708544 74.7465819,66.5102523 74.7817383,66.8398438 L74.8344727,66.8398438 C74.8828127,66.5893542 74.9608149,66.2652608 75.0684814,65.8675537 C75.176148,65.4698466 75.2695309,65.1545422 75.3486328,64.9216309 L76.673584,60.7753906 L77.8601074,60.7753906 L79.1520996,64.9216309 C79.3981946,65.677494 79.5651851,66.3124974 79.6530762,66.8266602 L79.7058105,66.8266602 C79.7233888,66.6684562 79.7706295,66.4245622 79.8475342,66.0949707 C79.9244389,65.7653792 80.3825642,63.9922036 81.2219238,60.7753906 L82.3557129,60.7753906 L80.3583984,68 L79.0598145,68 Z M88.1037598,68 L87.8862305,66.9716797 L87.8334961,66.9716797 C87.4731427,67.4243187 87.1138934,67.7308342 86.7557373,67.8912354 C86.3975812,68.0516365 85.9504421,68.1318359 85.4143066,68.1318359 C84.6979945,68.1318359 84.1365987,67.9472675 83.7301025,67.578125 C83.3236064,67.2089825 83.1203613,66.6838413 83.1203613,66.0026855 C83.1203613,64.5436939 84.2870977,63.7790531 86.6206055,63.7087402 L87.8466797,63.6691895 L87.8466797,63.2209473 C87.8466797,62.6540499 87.7247327,62.235475 87.480835,61.96521 C87.2369373,61.6949449 86.8469265,61.5598145 86.310791,61.5598145 C85.7087372,61.5598145 85.0275917,61.7443829 84.267334,62.1135254 L83.9311523,61.2763672 C84.2871112,61.0830068 84.6771219,60.931397 85.1011963,60.8215332 C85.5252707,60.7116694 85.9504373,60.6567383 86.376709,60.6567383 C87.2380414,60.6567383 87.8763407,60.8478985 88.291626,61.2302246 C88.7069113,61.6125507 88.9145508,62.2255817 88.9145508,63.0693359 L88.9145508,68 L88.1037598,68 Z M85.6318359,67.2287598 C86.3129917,67.2287598 86.8480205,67.0419941 87.2369385,66.668457 C87.6258564,66.29492 87.8203125,65.771976 87.8203125,65.0996094 L87.8203125,64.4470215 L86.7260742,64.4931641 C85.8559527,64.5239259 85.2286396,64.6590564 84.8441162,64.8985596 C84.4595928,65.1380627 84.267334,65.5104955 84.267334,66.0158691 C84.267334,66.4113789 84.3870838,66.7124013 84.6265869,66.9189453 C84.8660901,67.1254893 85.2011697,67.2287598 85.6318359,67.2287598 Z M93.5024414,67.2287598 C93.6958017,67.2287598 93.8825675,67.2144777 94.0627441,67.1859131 C94.2429208,67.1573485 94.3857417,67.1276857 94.4912109,67.0969238 L94.4912109,67.934082 C94.372558,67.9912112 94.1978771,68.038452 93.9671631,68.0758057 C93.736449,68.1131594 93.5288095,68.1318359 93.3442383,68.1318359 C91.9467704,68.1318359 91.2480469,67.3957593 91.2480469,65.923584 L91.2480469,61.6257324 L90.2131348,61.6257324 L90.2131348,61.0983887 L91.2480469,60.6435547 L91.7094727,59.1010742 L92.3422852,59.1010742 L92.3422852,60.7753906 L94.4384766,60.7753906 L94.4384766,61.6257324 L92.3422852,61.6257324 L92.3422852,65.8774414 C92.3422852,66.3125022 92.4455556,66.6464832 92.6520996,66.8793945 C92.8586436,67.1123059 93.142088,67.2287598 93.5024414,67.2287598 Z M98.9868164,68.1318359 C97.91894,68.1318359 97.076297,67.8066439 96.4588623,67.15625 C95.8414276,66.5058561 95.5327148,65.602789 95.5327148,64.4470215 C95.5327148,63.2824649 95.8194551,62.3574253 96.3929443,61.671875 C96.9664335,60.9863247 97.7365674,60.6435547 98.7033691,60.6435547 C99.6086471,60.6435547 100.324949,60.9412812 100.852295,61.5367432 C101.379641,62.1322051 101.643311,62.9177197 101.643311,63.8933105 L101.643311,64.5854492 L96.6665039,64.5854492 C96.6884767,65.433598 96.9027079,66.0773904 97.3092041,66.5168457 C97.7157003,66.956301 98.2880822,67.1760254 99.0263672,67.1760254 C99.8042031,67.1760254 100.573238,67.0134294 101.333496,66.6882324 L101.333496,67.6638184 C100.946775,67.8308114 100.580934,67.9505612 100.235962,68.0230713 C99.8909895,68.0955814 99.4746118,68.1318359 98.9868164,68.1318359 Z M98.6901855,61.5598145 C98.1101045,61.5598145 97.6475847,61.7487774 97.3026123,62.126709 C96.9576399,62.5046406 96.7543948,63.0275846 96.6928711,63.6955566 L100.469971,63.6955566 C100.469971,63.0056118 100.316164,62.4771747 100.008545,62.1102295 C99.7009262,61.7432843 99.2614775,61.5598145 98.6901855,61.5598145 Z M106.804688,60.6435547 C107.12549,60.6435547 107.413329,60.6699216 107.668213,60.7226562 L107.516602,61.737793 C107.217772,61.6718747 106.954103,61.638916 106.725586,61.638916 C106.14111,61.638916 105.641237,61.8762183 105.225952,62.3508301 C104.810667,62.8254418 104.603027,63.4165004 104.603027,64.1240234 L104.603027,68 L103.508789,68 L103.508789,60.7753906 L104.411865,60.7753906 L104.537109,62.1135254 L104.589844,62.1135254 C104.857911,61.6433082 105.180906,61.280763 105.558838,61.0258789 C105.936769,60.7709948 106.352049,60.6435547 106.804688,60.6435547 Z M118.439209,60.7753906 L118.439209,61.4675293 L117.101074,61.6257324 C117.224122,61.7795418 117.333984,61.9805896 117.430664,62.2288818 C117.527344,62.4771741 117.575684,62.7573227 117.575684,63.0693359 C117.575684,63.776859 117.333987,64.3415506 116.850586,64.7634277 C116.367185,65.1853048 115.703618,65.3962402 114.859863,65.3962402 C114.64453,65.3962402 114.442384,65.3786623 114.253418,65.3435059 C113.787595,65.5896008 113.554688,65.8994122 113.554688,66.2729492 C113.554688,66.4707041 113.635986,66.6168208 113.798584,66.7113037 C113.961182,66.8057866 114.240232,66.8530273 114.635742,66.8530273 L115.914551,66.8530273 C116.696781,66.8530273 117.297727,67.0178206 117.717407,67.3474121 C118.137087,67.6770036 118.346924,68.1560027 118.346924,68.7844238 C118.346924,69.5842325 118.026126,70.1939676 117.384521,70.6136475 C116.742917,71.0333273 115.806891,71.2431641 114.576416,71.2431641 C113.631587,71.2431641 112.903201,71.0673846 112.391235,70.7158203 C111.87927,70.3642561 111.623291,69.867679 111.623291,69.2260742 C111.623291,68.7866189 111.763915,68.4064957 112.045166,68.0856934 C112.326417,67.764891 112.721921,67.5473639 113.231689,67.4331055 C113.047118,67.349609 112.892213,67.2199716 112.766968,67.0441895 C112.641723,66.8684073 112.579102,66.6640637 112.579102,66.4311523 C112.579102,66.1674792 112.649413,65.9367686 112.790039,65.7390137 C112.930665,65.5412588 113.152586,65.3500986 113.455811,65.1655273 C113.082274,65.011718 112.777955,64.750246 112.542847,64.3811035 C112.307738,64.011961 112.190186,63.5900903 112.190186,63.1154785 C112.190186,62.3244589 112.427488,61.7147238 112.9021,61.2862549 C113.376711,60.8577859 114.049068,60.6435547 114.919189,60.6435547 C115.297121,60.6435547 115.637694,60.6874996 115.940918,60.7753906 L118.439209,60.7753906 Z M112.677979,69.2128906 C112.677979,69.6040059 112.842772,69.9006338 113.172363,70.1027832 C113.501955,70.3049327 113.974362,70.4060059 114.5896,70.4060059 C115.508061,70.4060059 116.188108,70.2686781 116.629761,69.9940186 C117.071413,69.719359 117.292236,69.3469262 117.292236,68.876709 C117.292236,68.4855937 117.171388,68.2142342 116.929688,68.0626221 C116.687987,67.91101 116.233158,67.8352051 115.565186,67.8352051 L114.253418,67.8352051 C113.756833,67.8352051 113.370119,67.9538562 113.093262,68.1911621 C112.816405,68.428468 112.677979,68.7690407 112.677979,69.2128906 Z M113.27124,63.0891113 C113.27124,63.5944849 113.414061,63.9768053 113.699707,64.236084 C113.985353,64.4953626 114.383054,64.625 114.892822,64.625 C115.960699,64.625 116.494629,64.1064505 116.494629,63.0693359 C116.494629,61.9838813 115.954107,61.4411621 114.873047,61.4411621 C114.358884,61.4411621 113.96338,61.5795885 113.686523,61.8564453 C113.409667,62.1333022 113.27124,62.5441867 113.27124,63.0891113 Z M122.974365,68.1318359 C121.906489,68.1318359 121.063846,67.8066439 120.446411,67.15625 C119.828976,66.5058561 119.520264,65.602789 119.520264,64.4470215 C119.520264,63.2824649 119.807004,62.3574253 120.380493,61.671875 C120.953982,60.9863247 121.724116,60.6435547 122.690918,60.6435547 C123.596196,60.6435547 124.312497,60.9412812 124.839844,61.5367432 C125.36719,62.1322051 125.630859,62.9177197 125.630859,63.8933105 L125.630859,64.5854492 L120.654053,64.5854492 C120.676026,65.433598 120.890257,66.0773904 121.296753,66.5168457 C121.703249,66.956301 122.275631,67.1760254 123.013916,67.1760254 C123.791752,67.1760254 124.560787,67.0134294 125.321045,66.6882324 L125.321045,67.6638184 C124.934324,67.8308114 124.568483,67.9505612 124.223511,68.0230713 C123.878538,68.0955814 123.462161,68.1318359 122.974365,68.1318359 Z M122.677734,61.5598145 C122.097653,61.5598145 121.635134,61.7487774 121.290161,62.126709 C120.945189,62.5046406 120.741944,63.0275846 120.68042,63.6955566 L124.45752,63.6955566 C124.45752,63.0056118 124.303712,62.4771747 123.996094,62.1102295 C123.688475,61.7432843 123.249026,61.5598145 122.677734,61.5598145 Z M129.829834,67.2287598 C130.023194,67.2287598 130.20996,67.2144777 130.390137,67.1859131 C130.570313,67.1573485 130.713134,67.1276857 130.818604,67.0969238 L130.818604,67.934082 C130.699951,67.9912112 130.52527,68.038452 130.294556,68.0758057 C130.063842,68.1131594 129.856202,68.1318359 129.671631,68.1318359 C128.274163,68.1318359 127.575439,67.3957593 127.575439,65.923584 L127.575439,61.6257324 L126.540527,61.6257324 L126.540527,61.0983887 L127.575439,60.6435547 L128.036865,59.1010742 L128.669678,59.1010742 L128.669678,60.7753906 L130.765869,60.7753906 L130.765869,61.6257324 L128.669678,61.6257324 L128.669678,65.8774414 C128.669678,66.3125022 128.772948,66.6464832 128.979492,66.8793945 C129.186036,67.1123059 129.469481,67.2287598 129.829834,67.2287598 Z M136.922607,66.0290527 C136.922607,66.7014194 136.672122,67.2199689 136.171143,67.5847168 C135.670164,67.9494647 134.967046,68.1318359 134.061768,68.1318359 C133.103755,68.1318359 132.356692,67.9802261 131.820557,67.677002 L131.820557,66.6618652 C132.167726,66.8376474 132.540159,66.9760737 132.937866,67.0771484 C133.335573,67.1782232 133.718992,67.2287598 134.088135,67.2287598 C134.659427,67.2287598 135.098875,67.1375742 135.406494,66.9552002 C135.714113,66.7728262 135.86792,66.4948749 135.86792,66.1213379 C135.86792,65.8400865 135.745973,65.5994883 135.502075,65.3995361 C135.258177,65.199584 134.782474,64.9633803 134.074951,64.690918 C133.402585,64.4404284 132.924684,64.2218027 132.641235,64.0350342 C132.357787,63.8482657 132.146851,63.6362317 132.008423,63.3989258 C131.869994,63.1616199 131.800781,62.8781755 131.800781,62.548584 C131.800781,61.9597139 132.040281,61.4949968 132.519287,61.1544189 C132.998293,60.8138411 133.655269,60.6435547 134.490234,60.6435547 C135.26807,60.6435547 136.028317,60.8017562 136.770996,61.1181641 L136.38208,62.0080566 C135.656979,61.709227 135.000003,61.5598145 134.411133,61.5598145 C133.892576,61.5598145 133.501466,61.6411125 133.237793,61.8037109 C132.97412,61.9663094 132.842285,62.1904283 132.842285,62.4760742 C132.842285,62.6694346 132.891723,62.8342278 132.990601,62.970459 C133.089478,63.1066901 133.248778,63.2363275 133.468506,63.359375 C133.688234,63.4824225 134.110104,63.6603992 134.734131,63.8933105 C135.591069,64.2053238 136.170042,64.5195297 136.471069,64.8359375 C136.772096,65.1523453 136.922607,65.5500464 136.922607,66.0290527 Z M145.571045,68.1318359 C145.100828,68.1318359 144.671267,68.0450448 144.282349,67.87146 C143.893431,67.6978751 143.56714,67.43091 143.303467,67.0705566 L143.224365,67.0705566 C143.2771,67.4924338 143.303467,67.8923321 143.303467,68.2702637 L143.303467,71.2431641 L142.209229,71.2431641 L142.209229,60.7753906 L143.099121,60.7753906 L143.250732,61.7641602 L143.303467,61.7641602 C143.584718,61.3686504 143.912108,61.0830087 144.285645,60.9072266 C144.659182,60.7314444 145.087644,60.6435547 145.571045,60.6435547 C146.529058,60.6435547 147.26843,60.970944 147.789185,61.6257324 C148.309939,62.2805209 148.570312,63.1989687 148.570312,64.3811035 C148.570312,65.5676329 148.305545,66.4893766 147.776001,67.1463623 C147.246457,67.803348 146.511479,68.1318359 145.571045,68.1318359 Z M145.412842,61.572998 C144.674557,61.572998 144.140627,61.7773417 143.811035,62.1860352 C143.481444,62.5947286 143.312256,63.2451127 143.303467,64.137207 L143.303467,64.3811035 C143.303467,65.3962453 143.472655,66.1224343 143.811035,66.5596924 C144.149416,66.9969504 144.692135,67.2155762 145.439209,67.2155762 C146.063236,67.2155762 146.552122,66.9628932 146.905884,66.4575195 C147.259645,65.9521459 147.436523,65.2556197 147.436523,64.3679199 C147.436523,63.4670365 147.259645,62.7760034 146.905884,62.2947998 C146.552122,61.8135962 146.054447,61.572998 145.412842,61.572998 Z M151.510254,60.7753906 L151.510254,65.4621582 C151.510254,66.0510283 151.644286,66.4904771 151.912354,66.7805176 C152.180421,67.0705581 152.600095,67.2155762 153.171387,67.2155762 C153.92725,67.2155762 154.479857,67.0090353 154.829224,66.5959473 C155.178591,66.1828593 155.353271,65.5083055 155.353271,64.5722656 L155.353271,60.7753906 L156.44751,60.7753906 L156.44751,68 L155.544434,68 L155.38623,67.0310059 L155.326904,67.0310059 C155.102782,67.3869647 154.791872,67.6594229 154.394165,67.8483887 C153.996458,68.0373545 153.542727,68.1318359 153.032959,68.1318359 C152.154048,68.1318359 151.495974,67.9230978 151.058716,67.5056152 C150.621458,67.0881327 150.402832,66.4201706 150.402832,65.501709 L150.402832,60.7753906 L151.510254,60.7753906 Z M167.976562,68 L167.976562,63.3000488 C167.976562,62.7243624 167.853517,62.292604 167.607422,62.0047607 C167.361327,61.7169175 166.979006,61.572998 166.460449,61.572998 C165.779293,61.572998 165.276125,61.7685527 164.950928,62.159668 C164.625731,62.5507832 164.463135,63.152828 164.463135,63.9658203 L164.463135,68 L163.368896,68 L163.368896,63.3000488 C163.368896,62.7243624 163.245851,62.292604 162.999756,62.0047607 C162.753661,61.7169175 162.369143,61.572998 161.846191,61.572998 C161.160641,61.572998 160.658571,61.7784403 160.339966,62.1893311 C160.021361,62.6002218 159.862061,63.273677 159.862061,64.2097168 L159.862061,68 L158.767822,68 L158.767822,60.7753906 L159.657715,60.7753906 L159.835693,61.7641602 L159.888428,61.7641602 C160.094972,61.4125959 160.386107,61.1379404 160.761841,60.9401855 C161.137575,60.7424307 161.558347,60.6435547 162.02417,60.6435547 C163.15357,60.6435547 163.891844,61.052242 164.239014,61.8696289 L164.291748,61.8696289 C164.507081,61.4916973 164.81909,61.1928722 165.227783,60.9731445 C165.636477,60.7534169 166.102292,60.6435547 166.625244,60.6435547 C167.442631,60.6435547 168.054563,60.8533915 168.46106,61.2730713 C168.867556,61.6927511 169.070801,62.3640091 169.070801,63.2868652 L169.070801,68 L167.976562,68 Z M174.687012,68.1318359 C174.216795,68.1318359 173.787233,68.0450448 173.398315,67.87146 C173.009397,67.6978751 172.683107,67.43091 172.419434,67.0705566 L172.340332,67.0705566 C172.393067,67.4924338 172.419434,67.8923321 172.419434,68.2702637 L172.419434,71.2431641 L171.325195,71.2431641 L171.325195,60.7753906 L172.215088,60.7753906 L172.366699,61.7641602 L172.419434,61.7641602 C172.700685,61.3686504 173.028074,61.0830087 173.401611,60.9072266 C173.775148,60.7314444 174.203611,60.6435547 174.687012,60.6435547 C175.645024,60.6435547 176.384397,60.970944 176.905151,61.6257324 C177.425906,62.2805209 177.686279,63.1989687 177.686279,64.3811035 C177.686279,65.5676329 177.421511,66.4893766 176.891968,67.1463623 C176.362424,67.803348 175.627446,68.1318359 174.687012,68.1318359 Z M174.528809,61.572998 C173.790524,61.572998 173.256593,61.7773417 172.927002,62.1860352 C172.59741,62.5947286 172.428223,63.2451127 172.419434,64.137207 L172.419434,64.3811035 C172.419434,65.3962453 172.588621,66.1224343 172.927002,66.5596924 C173.265383,66.9969504 173.808102,67.2155762 174.555176,67.2155762 C175.179202,67.2155762 175.668089,66.9628932 176.021851,66.4575195 C176.375612,65.9521459 176.55249,65.2556197 176.55249,64.3679199 C176.55249,63.4670365 176.375612,62.7760034 176.021851,62.2947998 C175.668089,61.8135962 175.170413,61.572998 174.528809,61.572998 Z M182.649902,68.1318359 C181.582026,68.1318359 180.739383,67.8066439 180.121948,67.15625 C179.504514,66.5058561 179.195801,65.602789 179.195801,64.4470215 C179.195801,63.2824649 179.482541,62.3574253 180.05603,61.671875 C180.629519,60.9863247 181.399653,60.6435547 182.366455,60.6435547 C183.271733,60.6435547 183.988034,60.9412812 184.515381,61.5367432 C185.042727,62.1322051 185.306396,62.9177197 185.306396,63.8933105 L185.306396,64.5854492 L180.32959,64.5854492 C180.351563,65.433598 180.565794,66.0773904 180.97229,66.5168457 C181.378786,66.956301 181.951168,67.1760254 182.689453,67.1760254 C183.467289,67.1760254 184.236324,67.0134294 184.996582,66.6882324 L184.996582,67.6638184 C184.609861,67.8308114 184.24402,67.9505612 183.899048,68.0230713 C183.554075,68.0955814 183.137698,68.1318359 182.649902,68.1318359 Z M182.353271,61.5598145 C181.77319,61.5598145 181.310671,61.7487774 180.965698,62.126709 C180.620726,62.5046406 180.417481,63.0275846 180.355957,63.6955566 L184.133057,63.6955566 C184.133057,63.0056118 183.97925,62.4771747 183.671631,62.1102295 C183.364012,61.7432843 182.924563,61.5598145 182.353271,61.5598145 Z M192.089355,67.0310059 L192.030029,67.0310059 C191.524656,67.7648962 190.768804,68.1318359 189.762451,68.1318359 C188.817622,68.1318359 188.082644,67.8088411 187.557495,67.1628418 C187.032346,66.5168425 186.769775,65.5983946 186.769775,64.4074707 C186.769775,63.2165468 187.033445,62.2915072 187.560791,61.6323242 C188.088137,60.9731412 188.822017,60.6435547 189.762451,60.6435547 C190.742437,60.6435547 191.493894,60.9995082 192.016846,61.7114258 L192.102539,61.7114258 L192.056396,61.1906738 L192.030029,60.6831055 L192.030029,57.7431641 L193.124268,57.7431641 L193.124268,68 L192.234375,68 L192.089355,67.0310059 Z M189.900879,67.2155762 C190.647953,67.2155762 191.189574,67.0123311 191.525757,66.605835 C191.86194,66.1993388 192.030029,65.5434616 192.030029,64.6381836 L192.030029,64.4074707 C192.030029,63.3835398 191.859743,62.6529563 191.519165,62.2156982 C191.178587,61.7784402 190.634769,61.5598145 189.887695,61.5598145 C189.246091,61.5598145 188.755007,61.8092016 188.414429,62.3079834 C188.073851,62.8067652 187.903564,63.5109818 187.903564,64.4206543 C187.903564,65.3435105 188.072752,66.0400367 188.411133,66.5102539 C188.749513,66.9804711 189.24609,67.2155762 189.900879,67.2155762 Z M199.979736,60.7753906 L199.979736,65.4621582 C199.979736,66.0510283 200.113768,66.4904771 200.381836,66.7805176 C200.649904,67.0705581 201.069577,67.2155762 201.640869,67.2155762 C202.396732,67.2155762 202.949339,67.0090353 203.298706,66.5959473 C203.648073,66.1828593 203.822754,65.5083055 203.822754,64.5722656 L203.822754,60.7753906 L204.916992,60.7753906 L204.916992,68 L204.013916,68 L203.855713,67.0310059 L203.796387,67.0310059 C203.572265,67.3869647 203.261355,67.6594229 202.863647,67.8483887 C202.46594,68.0373545 202.01221,68.1318359 201.502441,68.1318359 C200.623531,68.1318359 199.965456,67.9230978 199.528198,67.5056152 C199.09094,67.0881327 198.872314,66.4201706 198.872314,65.501709 L198.872314,60.7753906 L199.979736,60.7753906 Z M210.599121,68.1318359 C210.128904,68.1318359 209.699343,68.0450448 209.310425,67.87146 C208.921507,67.6978751 208.595216,67.43091 208.331543,67.0705566 L208.252441,67.0705566 C208.305176,67.4924338 208.331543,67.8923321 208.331543,68.2702637 L208.331543,71.2431641 L207.237305,71.2431641 L207.237305,60.7753906 L208.127197,60.7753906 L208.278809,61.7641602 L208.331543,61.7641602 C208.612794,61.3686504 208.940184,61.0830087 209.313721,60.9072266 C209.687258,60.7314444 210.11572,60.6435547 210.599121,60.6435547 C211.557134,60.6435547 212.296506,60.970944 212.817261,61.6257324 C213.338015,62.2805209 213.598389,63.1989687 213.598389,64.3811035 C213.598389,65.5676329 213.333621,66.4893766 212.804077,67.1463623 C212.274533,67.803348 211.539555,68.1318359 210.599121,68.1318359 Z M210.440918,61.572998 C209.702633,61.572998 209.168703,61.7773417 208.839111,62.1860352 C208.50952,62.5947286 208.340332,63.2451127 208.331543,64.137207 L208.331543,64.3811035 C208.331543,65.3962453 208.500731,66.1224343 208.839111,66.5596924 C209.177492,66.9969504 209.720211,67.2155762 210.467285,67.2155762 C211.091312,67.2155762 211.580198,66.9628932 211.93396,66.4575195 C212.287721,65.9521459 212.4646,65.2556197 212.4646,64.3679199 C212.4646,63.4670365 212.287721,62.7760034 211.93396,62.2947998 C211.580198,61.8135962 211.082523,61.572998 210.440918,61.572998 Z M221.350342,67.2287598 C221.543702,67.2287598 221.730468,67.2144777 221.910645,67.1859131 C222.090821,67.1573485 222.233642,67.1276857 222.339111,67.0969238 L222.339111,67.934082 C222.220458,67.9912112 222.045778,68.038452 221.815063,68.0758057 C221.584349,68.1131594 221.37671,68.1318359 221.192139,68.1318359 C219.794671,68.1318359 219.095947,67.3957593 219.095947,65.923584 L219.095947,61.6257324 L218.061035,61.6257324 L218.061035,61.0983887 L219.095947,60.6435547 L219.557373,59.1010742 L220.190186,59.1010742 L220.190186,60.7753906 L222.286377,60.7753906 L222.286377,61.6257324 L220.190186,61.6257324 L220.190186,65.8774414 C220.190186,66.3125022 220.293456,66.6464832 220.5,66.8793945 C220.706544,67.1123059 220.989988,67.2287598 221.350342,67.2287598 Z M230.018555,64.3811035 C230.018555,65.5588438 229.721927,66.4783902 229.128662,67.1397705 C228.535397,67.8011508 227.715826,68.1318359 226.669922,68.1318359 C226.023923,68.1318359 225.450442,67.9802261 224.949463,67.677002 C224.448484,67.3737778 224.061769,66.9387235 223.789307,66.3718262 C223.516844,65.8049288 223.380615,65.1413612 223.380615,64.3811035 C223.380615,63.2033633 223.675046,62.286014 224.263916,61.6290283 C224.852786,60.9720426 225.670161,60.6435547 226.716064,60.6435547 C227.726812,60.6435547 228.529904,60.979733 229.125366,61.6520996 C229.720828,62.3244663 230.018555,63.2341251 230.018555,64.3811035 Z M224.514404,64.3811035 C224.514404,65.3039597 224.698973,66.0070777 225.068115,66.4904785 C225.437258,66.9738794 225.979977,67.2155762 226.696289,67.2155762 C227.412601,67.2155762 227.956419,66.974978 228.327759,66.4937744 C228.699099,66.0125708 228.884766,65.3083542 228.884766,64.3811035 C228.884766,63.4626419 228.699099,62.765017 228.327759,62.288208 C227.956419,61.811399 227.408207,61.572998 226.683105,61.572998 C225.966793,61.572998 225.426271,61.8081031 225.061523,62.2783203 C224.696776,62.7485375 224.514404,63.4494582 224.514404,64.3811035 Z M237.7771,67.2287598 C237.97046,67.2287598 238.157226,67.2144777 238.337402,67.1859131 C238.517579,67.1573485 238.6604,67.1276857 238.765869,67.0969238 L238.765869,67.934082 C238.647216,67.9912112 238.472535,68.038452 238.241821,68.0758057 C238.011107,68.1131594 237.803468,68.1318359 237.618896,68.1318359 C236.221429,68.1318359 235.522705,67.3957593 235.522705,65.923584 L235.522705,61.6257324 L234.487793,61.6257324 L234.487793,61.0983887 L235.522705,60.6435547 L235.984131,59.1010742 L236.616943,59.1010742 L236.616943,60.7753906 L238.713135,60.7753906 L238.713135,61.6257324 L236.616943,61.6257324 L236.616943,65.8774414 C236.616943,66.3125022 236.720214,66.6464832 236.926758,66.8793945 C237.133302,67.1123059 237.416746,67.2287598 237.7771,67.2287598 Z M245.15332,68 L245.15332,63.326416 C245.15332,62.7375459 245.019288,62.2980972 244.751221,62.0080566 C244.483153,61.7180161 244.063479,61.572998 243.492188,61.572998 C242.73193,61.572998 242.177126,61.779539 241.827759,62.192627 C241.478392,62.605715 241.303711,63.282466 241.303711,64.2229004 L241.303711,68 L240.209473,68 L240.209473,57.7431641 L241.303711,57.7431641 L241.303711,60.8479004 C241.303711,61.2214374 241.286133,61.5312488 241.250977,61.7773438 L241.316895,61.7773438 C241.532228,61.430174 241.838743,61.1566172 242.23645,60.956665 C242.634157,60.7567129 243.087888,60.6567383 243.597656,60.6567383 C244.480961,60.6567383 245.14343,60.8665751 245.585083,61.2862549 C246.026736,61.7059347 246.247559,62.3727982 246.247559,63.2868652 L246.247559,68 L245.15332,68 Z M251.547363,68.1318359 C250.479487,68.1318359 249.636844,67.8066439 249.019409,67.15625 C248.401974,66.5058561 248.093262,65.602789 248.093262,64.4470215 C248.093262,63.2824649 248.380002,62.3574253 248.953491,61.671875 C249.52698,60.9863247 250.297114,60.6435547 251.263916,60.6435547 C252.169194,60.6435547 252.885495,60.9412812 253.412842,61.5367432 C253.940188,62.1322051 254.203857,62.9177197 254.203857,63.8933105 L254.203857,64.5854492 L249.227051,64.5854492 C249.249024,65.433598 249.463255,66.0773904 249.869751,66.5168457 C250.276247,66.956301 250.848629,67.1760254 251.586914,67.1760254 C252.36475,67.1760254 253.133785,67.0134294 253.894043,66.6882324 L253.894043,67.6638184 C253.507322,67.8308114 253.141481,67.9505612 252.796509,68.0230713 C252.451536,68.0955814 252.035159,68.1318359 251.547363,68.1318359 Z M251.250732,61.5598145 C250.670651,61.5598145 250.208132,61.7487774 249.863159,62.126709 C249.518187,62.5046406 249.314942,63.0275846 249.253418,63.6955566 L253.030518,63.6955566 C253.030518,63.0056118 252.876711,62.4771747 252.569092,62.1102295 C252.261473,61.7432843 251.822024,61.5598145 251.250732,61.5598145 Z M79.3959961,82.3811035 C79.3959961,83.5588438 79.0993682,84.4783902 78.5061035,85.1397705 C77.9128388,85.8011508 77.0932669,86.1318359 76.0473633,86.1318359 C75.401364,86.1318359 74.8278834,85.9802261 74.3269043,85.677002 C73.8259252,85.3737778 73.4392103,84.9387235 73.166748,84.3718262 C72.8942857,83.8049288 72.7580566,83.1413612 72.7580566,82.3811035 C72.7580566,81.2033633 73.0524873,80.286014 73.6413574,79.6290283 C74.2302276,78.9720426 75.0476022,78.6435547 76.0935059,78.6435547 C77.1042531,78.6435547 77.9073457,78.979733 78.5028076,79.6520996 C79.0982696,80.3244663 79.3959961,81.2341251 79.3959961,82.3811035 Z M73.8918457,82.3811035 C73.8918457,83.3039597 74.0764142,84.0070777 74.4455566,84.4904785 C74.8146991,84.9738794 75.3574183,85.2155762 76.0737305,85.2155762 C76.7900426,85.2155762 77.3338604,84.974978 77.7052002,84.4937744 C78.0765399,84.0125708 78.262207,83.3083542 78.262207,82.3811035 C78.262207,81.4626419 78.0765399,80.765017 77.7052002,80.288208 C77.3338604,79.811399 76.7856482,79.572998 76.0605469,79.572998 C75.3442347,79.572998 74.8037128,79.8081031 74.4389648,80.2783203 C74.0742169,80.7485375 73.8918457,81.4494582 73.8918457,82.3811035 Z M82.6259766,86 L79.8837891,78.7753906 L81.0571289,78.7753906 L82.612793,83.0600586 C82.9643572,84.0620167 83.1708981,84.7124008 83.2324219,85.0112305 L83.2851562,85.0112305 C83.3334963,84.7783191 83.4862048,84.2960242 83.7432861,83.5643311 C84.0003675,82.8326379 84.577144,81.2363404 85.4736328,78.7753906 L86.6469727,78.7753906 L83.9047852,86 L82.6259766,86 Z M90.8591309,86.1318359 C89.7912544,86.1318359 88.9486115,85.8066439 88.3311768,85.15625 C87.713742,84.5058561 87.4050293,83.602789 87.4050293,82.4470215 C87.4050293,81.2824649 87.6917696,80.3574253 88.2652588,79.671875 C88.838748,78.9863247 89.6088819,78.6435547 90.5756836,78.6435547 C91.4809616,78.6435547 92.197263,78.9412812 92.7246094,79.5367432 C93.2519558,80.1322051 93.515625,80.9177197 93.515625,81.8933105 L93.515625,82.5854492 L88.5388184,82.5854492 C88.5607911,83.433598 88.7750224,84.0773904 89.1815186,84.5168457 C89.5880147,84.956301 90.1603967,85.1760254 90.8986816,85.1760254 C91.6765176,85.1760254 92.4455528,85.0134294 93.2058105,84.6882324 L93.2058105,85.6638184 C92.8190899,85.8308114 92.4532488,85.9505612 92.1082764,86.0230713 C91.7633039,86.0955814 91.3469263,86.1318359 90.8591309,86.1318359 Z M90.5625,79.5598145 C89.982419,79.5598145 89.5198992,79.7487774 89.1749268,80.126709 C88.8299543,80.5046406 88.6267093,81.0275846 88.5651855,81.6955566 L92.3422852,81.6955566 C92.3422852,81.0056118 92.1884781,80.4771747 91.8808594,80.1102295 C91.5732406,79.7432843 91.1337919,79.5598145 90.5625,79.5598145 Z M98.677002,78.6435547 C98.9978043,78.6435547 99.2856433,78.6699216 99.5405273,78.7226562 L99.388916,79.737793 C99.0900864,79.6718747 98.8264172,79.638916 98.5979004,79.638916 C98.0134248,79.638916 97.5135519,79.8762183 97.0982666,80.3508301 C96.6829813,80.8254418 96.4753418,81.4165004 96.4753418,82.1240234 L96.4753418,86 L95.3811035,86 L95.3811035,78.7753906 L96.2841797,78.7753906 L96.4094238,80.1135254 L96.4621582,80.1135254 C96.7302259,79.6433082 97.0532208,79.280763 97.4311523,79.0258789 C97.8090839,78.7709948 98.224363,78.6435547 98.677002,78.6435547 Z M105.835693,86 L105.835693,81.326416 C105.835693,80.7375459 105.701661,80.2980972 105.433594,80.0080566 C105.165526,79.7180161 104.745852,79.572998 104.174561,79.572998 C103.414303,79.572998 102.859499,79.779539 102.510132,80.192627 C102.160765,80.605715 101.986084,81.282466 101.986084,82.2229004 L101.986084,86 L100.891846,86 L100.891846,75.7431641 L101.986084,75.7431641 L101.986084,78.8479004 C101.986084,79.2214374 101.968506,79.5312488 101.93335,79.7773438 L101.999268,79.7773438 C102.214601,79.430174 102.521116,79.1566172 102.918823,78.956665 C103.31653,78.7567129 103.770261,78.6567383 104.280029,78.6567383 C105.163334,78.6567383 105.825803,78.8665751 106.267456,79.2862549 C106.709109,79.7059347 106.929932,80.3727982 106.929932,81.2868652 L106.929932,86 L105.835693,86 Z M112.229736,86.1318359 C111.16186,86.1318359 110.319217,85.8066439 109.701782,85.15625 C109.084347,84.5058561 108.775635,83.602789 108.775635,82.4470215 C108.775635,81.2824649 109.062375,80.3574253 109.635864,79.671875 C110.209353,78.9863247 110.979487,78.6435547 111.946289,78.6435547 C112.851567,78.6435547 113.567868,78.9412812 114.095215,79.5367432 C114.622561,80.1322051 114.88623,80.9177197 114.88623,81.8933105 L114.88623,82.5854492 L109.909424,82.5854492 C109.931397,83.433598 110.145628,84.0773904 110.552124,84.5168457 C110.95862,84.956301 111.531002,85.1760254 112.269287,85.1760254 C113.047123,85.1760254 113.816158,85.0134294 114.576416,84.6882324 L114.576416,85.6638184 C114.189695,85.8308114 113.823854,85.9505612 113.478882,86.0230713 C113.133909,86.0955814 112.717532,86.1318359 112.229736,86.1318359 Z M111.933105,79.5598145 C111.353024,79.5598145 110.890505,79.7487774 110.545532,80.126709 C110.20056,80.5046406 109.997315,81.0275846 109.935791,81.6955566 L113.712891,81.6955566 C113.712891,81.0056118 113.559084,80.4771747 113.251465,80.1102295 C112.943846,79.7432843 112.504397,79.5598145 111.933105,79.5598145 Z M121.19458,86 L120.977051,84.9716797 L120.924316,84.9716797 C120.563963,85.4243187 120.204714,85.7308342 119.846558,85.8912354 C119.488402,86.0516365 119.041262,86.1318359 118.505127,86.1318359 C117.788815,86.1318359 117.227419,85.9472675 116.820923,85.578125 C116.414427,85.2089825 116.211182,84.6838413 116.211182,84.0026855 C116.211182,82.5436939 117.377918,81.7790531 119.711426,81.7087402 L120.9375,81.6691895 L120.9375,81.2209473 C120.9375,80.6540499 120.815553,80.235475 120.571655,79.96521 C120.327758,79.6949449 119.937747,79.5598145 119.401611,79.5598145 C118.799558,79.5598145 118.118412,79.7443829 117.358154,80.1135254 L117.021973,79.2763672 C117.377931,79.0830068 117.767942,78.931397 118.192017,78.8215332 C118.616091,78.7116694 119.041258,78.6567383 119.467529,78.6567383 C120.328862,78.6567383 120.967161,78.8478985 121.382446,79.2302246 C121.797732,79.6125507 122.005371,80.2255817 122.005371,81.0693359 L122.005371,86 L121.19458,86 Z M118.722656,85.2287598 C119.403812,85.2287598 119.938841,85.0419941 120.327759,84.668457 C120.716677,84.29492 120.911133,83.771976 120.911133,83.0996094 L120.911133,82.4470215 L119.816895,82.4931641 C118.946773,82.5239259 118.31946,82.6590564 117.934937,82.8985596 C117.550413,83.1380627 117.358154,83.5104955 117.358154,84.0158691 C117.358154,84.4113789 117.477904,84.7124013 117.717407,84.9189453 C117.95691,85.1254893 118.29199,85.2287598 118.722656,85.2287598 Z M129.177246,85.0310059 L129.11792,85.0310059 C128.612546,85.7648962 127.856694,86.1318359 126.850342,86.1318359 C125.905513,86.1318359 125.170535,85.8088411 124.645386,85.1628418 C124.120237,84.5168425 123.857666,83.5983946 123.857666,82.4074707 C123.857666,81.2165468 124.121335,80.2915072 124.648682,79.6323242 C125.176028,78.9731412 125.909907,78.6435547 126.850342,78.6435547 C127.830327,78.6435547 128.581784,78.9995082 129.104736,79.7114258 L129.19043,79.7114258 L129.144287,79.1906738 L129.11792,78.6831055 L129.11792,75.7431641 L130.212158,75.7431641 L130.212158,86 L129.322266,86 L129.177246,85.0310059 Z M126.98877,85.2155762 C127.735844,85.2155762 128.277464,85.0123311 128.613647,84.605835 C128.949831,84.1993388 129.11792,83.5434616 129.11792,82.6381836 L129.11792,82.4074707 C129.11792,81.3835398 128.947634,80.6529563 128.607056,80.2156982 C128.266478,79.7784402 127.72266,79.5598145 126.975586,79.5598145 C126.333981,79.5598145 125.842897,79.8092016 125.502319,80.3079834 C125.161741,80.8067652 124.991455,81.5109818 124.991455,82.4206543 C124.991455,83.3435105 125.160643,84.0400367 125.499023,84.5102539 C125.837404,84.9804711 126.333981,85.2155762 126.98877,85.2155762 Z M138.372803,85.2287598 C138.566163,85.2287598 138.752929,85.2144777 138.933105,85.1859131 C139.113282,85.1573485 139.256103,85.1276857 139.361572,85.0969238 L139.361572,85.934082 C139.242919,85.9912112 139.068238,86.038452 138.837524,86.0758057 C138.60681,86.1131594 138.399171,86.1318359 138.2146,86.1318359 C136.817132,86.1318359 136.118408,85.3957593 136.118408,83.923584 L136.118408,79.6257324 L135.083496,79.6257324 L135.083496,79.0983887 L136.118408,78.6435547 L136.579834,77.1010742 L137.212646,77.1010742 L137.212646,78.7753906 L139.308838,78.7753906 L139.308838,79.6257324 L137.212646,79.6257324 L137.212646,83.8774414 C137.212646,84.3125022 137.315917,84.6464832 137.522461,84.8793945 C137.729005,85.1123059 138.012449,85.2287598 138.372803,85.2287598 Z M145.248047,86 L145.030518,84.9716797 L144.977783,84.9716797 C144.61743,85.4243187 144.258181,85.7308342 143.900024,85.8912354 C143.541868,86.0516365 143.094729,86.1318359 142.558594,86.1318359 C141.842282,86.1318359 141.280886,85.9472675 140.87439,85.578125 C140.467893,85.2089825 140.264648,84.6838413 140.264648,84.0026855 C140.264648,82.5436939 141.431385,81.7790531 143.764893,81.7087402 L144.990967,81.6691895 L144.990967,81.2209473 C144.990967,80.6540499 144.86902,80.235475 144.625122,79.96521 C144.381224,79.6949449 143.991214,79.5598145 143.455078,79.5598145 C142.853024,79.5598145 142.171879,79.7443829 141.411621,80.1135254 L141.075439,79.2763672 C141.431398,79.0830068 141.821409,78.931397 142.245483,78.8215332 C142.669558,78.7116694 143.094724,78.6567383 143.520996,78.6567383 C144.382329,78.6567383 145.020628,78.8478985 145.435913,79.2302246 C145.851198,79.6125507 146.058838,80.2255817 146.058838,81.0693359 L146.058838,86 L145.248047,86 Z M142.776123,85.2287598 C143.457279,85.2287598 143.992308,85.0419941 144.381226,84.668457 C144.770144,84.29492 144.9646,83.771976 144.9646,83.0996094 L144.9646,82.4470215 L143.870361,82.4931641 C143.00024,82.5239259 142.372927,82.6590564 141.988403,82.8985596 C141.60388,83.1380627 141.411621,83.5104955 141.411621,84.0158691 C141.411621,84.4113789 141.531371,84.7124013 141.770874,84.9189453 C142.010377,85.1254893 142.345457,85.2287598 142.776123,85.2287598 Z M153.25708,86 L153.25708,81.326416 C153.25708,80.7375459 153.123048,80.2980972 152.85498,80.0080566 C152.586913,79.7180161 152.167239,79.572998 151.595947,79.572998 C150.840084,79.572998 150.286379,79.7773417 149.934814,80.1860352 C149.58325,80.5947286 149.407471,81.2692824 149.407471,82.2097168 L149.407471,86 L148.313232,86 L148.313232,78.7753906 L149.203125,78.7753906 L149.381104,79.7641602 L149.433838,79.7641602 C149.65796,79.4082013 149.972166,79.1324473 150.376465,78.9368896 C150.780764,78.741332 151.231199,78.6435547 151.727783,78.6435547 C152.597905,78.6435547 153.252683,78.8533915 153.692139,79.2730713 C154.131594,79.6927511 154.351318,80.3640091 154.351318,81.2868652 L154.351318,86 L153.25708,86 Z M157.680176,82.302002 C157.869142,82.0339342 158.15698,81.6823752 158.543701,81.2473145 L160.877197,78.7753906 L162.175781,78.7753906 L159.249023,81.8537598 L162.380127,86 L161.055176,86 L158.50415,82.5854492 L157.680176,83.2973633 L157.680176,86 L156.599121,86 L156.599121,75.7431641 L157.680176,75.7431641 L157.680176,81.1813965 C157.680176,81.4230969 157.662598,81.7966283 157.627441,82.302002 L157.680176,82.302002 Z" id="Iwanttobeabletocontrolwhenwatergetspumpeduptotheoverheadtank" fill="#032A2F" fill-rule="nonzero"></path>
                </g>
            </g>
        </g>
    </g>
</svg>