<?xml version="1.0" encoding="UTF-8"?>
<svg width="271px" height="93px" viewBox="0 0 271 93" version="1.1" xmlns="http://www.w3.org/2000/svg" xmlns:xlink="http://www.w3.org/1999/xlink">
    <!-- Generator: Sketch 53.2 (72643) - https://sketchapp.com -->
    <title>userneed3</title>
    <desc>Created with Sketch.</desc>
    <g id="Poster" stroke="none" stroke-width="1" fill="none" fill-rule="evenodd">
        <g id="Desktop-HD-Copy-2" transform="translate(-930.000000, -5134.000000)">
            <g id="Group-9" transform="translate(248.000000, 4987.000000)">
                <g id="userneed3" transform="translate(682.500000, 147.000000)">
                    <rect id="Rectangle-2" fill="#FFFFFF" x="0" y="0" width="262.5" height="93"></rect>
                    <g id="Group-4" transform="translate(13.500000, 5.250000)">
                        <path d="M20.9958973,1.68525647 L1.34574353,40.9855639 C1.21825266,41.2405457 1.22405232,41.25 1.49480224,41.25 L40.5051978,41.25 C40.7663035,41.25 40.7773984,41.2318478 40.6542565,40.9855639 L21.0041027,1.68525647 C20.9354784,1.54800774 20.9221493,1.53716313 21.002096,1.53672742 C21.0798089,1.53630388 21.0638002,1.54945056 20.9958973,1.68525647 Z" id="Triangle" stroke="#026F8B" stroke-width="1.5"></path>
                        <text id="!" font-family="Roboto-Regular, Roboto" font-size="22.5" font-weight="normal" fill="#026F8B">
                            <tspan x="18" y="34.5">!</tspan>
                        </text>
                    </g>
                    <path d="M82.826416,13.362793 L82.826416,19.5986328 C82.826416,20.3105504 82.6737076,20.933469 82.3682861,21.4674072 C82.0628647,22.0013454 81.6212187,22.41223 81.043335,22.7000732 C80.4654512,22.9879165 79.7744181,23.1318359 78.9702148,23.1318359 C77.7748964,23.1318359 76.8454623,22.8154329 76.1818848,22.1826172 C75.5183072,21.5498015 75.1865234,20.679693 75.1865234,19.5722656 L75.1865234,13.362793 L76.7685547,13.362793 L76.7685547,19.4602051 C76.7685547,20.2556192 76.9531232,20.8422833 77.3222656,21.2202148 C77.6914081,21.5981464 78.258297,21.7871094 79.0229492,21.7871094 C80.5083082,21.7871094 81.2509766,21.0070879 81.2509766,19.4470215 L81.2509766,13.362793 L82.826416,13.362793 Z M90.0246582,20.923584 C90.0246582,21.6355016 89.7653835,22.1815167 89.2468262,22.5616455 C88.7282689,22.9417744 87.9856005,23.1318359 87.0187988,23.1318359 C86.0476026,23.1318359 85.2675811,22.9846206 84.6787109,22.6901855 L84.6787109,21.3520508 C85.5356488,21.7475606 86.3332483,21.9453125 87.0715332,21.9453125 C88.0251513,21.9453125 88.5019531,21.6574736 88.5019531,21.0817871 C88.5019531,20.8972159 88.4492193,20.7434088 88.34375,20.6203613 C88.2382807,20.4973138 88.0646985,20.3698737 87.822998,20.2380371 C87.5812976,20.1062005 87.2451193,19.9567879 86.8144531,19.7897949 C85.9750935,19.464598 85.407106,19.1394059 85.1104736,18.814209 C84.8138413,18.489012 84.6655273,18.0671413 84.6655273,17.548584 C84.6655273,16.9245574 84.9171117,16.4400652 85.4202881,16.0950928 C85.9234644,15.7501203 86.6079058,15.5776367 87.4736328,15.5776367 C88.3305707,15.5776367 89.1413536,15.751219 89.9060059,16.0983887 L89.4050293,17.2651367 C88.6184043,16.9399398 87.9570339,16.7773438 87.4208984,16.7773438 C86.6035115,16.7773438 86.1948242,17.0102516 86.1948242,17.4760742 C86.1948242,17.704591 86.3013905,17.8979484 86.5145264,18.0561523 C86.7276622,18.2143563 87.1923792,18.4318834 87.9086914,18.7087402 C88.5107452,18.9416516 88.9479967,19.1547842 89.220459,19.3481445 C89.4929213,19.5415049 89.6950677,19.7645251 89.8269043,20.0172119 C89.9587409,20.2698987 90.0246582,20.5720197 90.0246582,20.923584 Z M94.8828125,23.1318359 C93.7490178,23.1318359 92.86243,22.8011508 92.2230225,22.1397705 C91.583615,21.4783902 91.263916,20.5676328 91.263916,19.4074707 C91.263916,18.2165468 91.5605439,17.280521 92.1538086,16.5993652 C92.7470733,15.9182095 93.5622507,15.5776367 94.5993652,15.5776367 C95.5617724,15.5776367 96.3220187,15.8698701 96.880127,16.4543457 C97.4382352,17.0388213 97.7172852,17.8430125 97.7172852,18.8669434 L97.7172852,19.7041016 L92.8591309,19.7041016 C92.8811036,20.4116246 93.0722638,20.9554424 93.4326172,21.3355713 C93.7929706,21.7157001 94.3005338,21.9057617 94.9553223,21.9057617 C95.3859885,21.9057617 95.7869854,21.8651127 96.1583252,21.7838135 C96.5296649,21.7025142 96.9284647,21.5673838 97.3547363,21.378418 L97.3547363,22.6374512 C96.9768048,22.8176279 96.5944844,22.945068 96.2077637,23.0197754 C95.821043,23.0944828 95.379397,23.1318359 94.8828125,23.1318359 Z M94.5993652,16.7509766 C94.1071753,16.7509766 93.71277,16.9069809 93.4161377,17.2189941 C93.1195054,17.5310074 92.9426272,17.9858369 92.885498,18.5834961 L96.1945801,18.5834961 C96.185791,17.9814423 96.0407729,17.5255142 95.7595215,17.2156982 C95.4782701,16.9058822 95.0915552,16.7509766 94.5993652,16.7509766 Z M103.175293,15.5776367 C103.487306,15.5776367 103.744384,15.5996092 103.946533,15.6435547 L103.794922,17.0871582 C103.575194,17.0344236 103.346681,17.0080566 103.109375,17.0080566 C102.489743,17.0080566 101.987673,17.2102031 101.603149,17.614502 C101.218626,18.0188008 101.026367,18.5439421 101.026367,19.1899414 L101.026367,23 L99.4772949,23 L99.4772949,15.7094727 L100.690186,15.7094727 L100.894531,16.994873 L100.973633,16.994873 C101.215333,16.5598123 101.530638,16.214845 101.919556,15.9599609 C102.308474,15.7050769 102.727049,15.5776367 103.175293,15.5776367 Z M116.998291,23 L115.066895,23 L110.327393,15.3205566 L110.274658,15.3205566 L110.307617,15.7490234 C110.369141,16.5664103 110.399902,17.3134732 110.399902,17.9902344 L110.399902,23 L108.969482,23 L108.969482,13.362793 L110.881104,13.362793 L115.607422,21.0026855 L115.646973,21.0026855 C115.638184,20.9016108 115.620606,20.5335725 115.594238,19.8985596 C115.567871,19.2635466 115.554688,18.7680682 115.554688,18.4121094 L115.554688,13.362793 L116.998291,13.362793 L116.998291,23 Z M122.561768,23.1318359 C121.427973,23.1318359 120.541385,22.8011508 119.901978,22.1397705 C119.26257,21.4783902 118.942871,20.5676328 118.942871,19.4074707 C118.942871,18.2165468 119.239499,17.280521 119.832764,16.5993652 C120.426028,15.9182095 121.241206,15.5776367 122.27832,15.5776367 C123.240727,15.5776367 124.000974,15.8698701 124.559082,16.4543457 C125.11719,17.0388213 125.39624,17.8430125 125.39624,18.8669434 L125.39624,19.7041016 L120.538086,19.7041016 C120.560059,20.4116246 120.751219,20.9554424 121.111572,21.3355713 C121.471926,21.7157001 121.979489,21.9057617 122.634277,21.9057617 C123.064944,21.9057617 123.465941,21.8651127 123.83728,21.7838135 C124.20862,21.7025142 124.60742,21.5673838 125.033691,21.378418 L125.033691,22.6374512 C124.65576,22.8176279 124.273439,22.945068 123.886719,23.0197754 C123.499998,23.0944828 123.058352,23.1318359 122.561768,23.1318359 Z M122.27832,16.7509766 C121.78613,16.7509766 121.391725,16.9069809 121.095093,17.2189941 C120.79846,17.5310074 120.621582,17.9858369 120.564453,18.5834961 L123.873535,18.5834961 C123.864746,17.9814423 123.719728,17.5255142 123.438477,17.2156982 C123.157225,16.9058822 122.77051,16.7509766 122.27832,16.7509766 Z M130.340088,23.1318359 C129.206293,23.1318359 128.319705,22.8011508 127.680298,22.1397705 C127.04089,21.4783902 126.721191,20.5676328 126.721191,19.4074707 C126.721191,18.2165468 127.017819,17.280521 127.611084,16.5993652 C128.204349,15.9182095 129.019526,15.5776367 130.056641,15.5776367 C131.019048,15.5776367 131.779294,15.8698701 132.337402,16.4543457 C132.895511,17.0388213 133.174561,17.8430125 133.174561,18.8669434 L133.174561,19.7041016 L128.316406,19.7041016 C128.338379,20.4116246 128.529539,20.9554424 128.889893,21.3355713 C129.250246,21.7157001 129.757809,21.9057617 130.412598,21.9057617 C130.843264,21.9057617 131.244261,21.8651127 131.615601,21.7838135 C131.98694,21.7025142 132.38574,21.5673838 132.812012,21.378418 L132.812012,22.6374512 C132.43408,22.8176279 132.05176,22.945068 131.665039,23.0197754 C131.278318,23.0944828 130.836672,23.1318359 130.340088,23.1318359 Z M130.056641,16.7509766 C129.564451,16.7509766 129.170045,16.9069809 128.873413,17.2189941 C128.576781,17.5310074 128.399903,17.9858369 128.342773,18.5834961 L131.651855,18.5834961 C131.643066,17.9814423 131.498048,17.5255142 131.216797,17.2156982 C130.935545,16.9058822 130.548831,16.7509766 130.056641,16.7509766 Z M137.393311,23.1318359 C136.483638,23.1318359 135.773928,22.8022494 135.26416,22.1430664 C134.754392,21.4838834 134.499512,20.5588438 134.499512,19.3679199 C134.499512,18.1726014 134.757688,17.2420688 135.274048,16.5762939 C135.790408,15.9105191 136.505611,15.5776367 137.419678,15.5776367 C138.37769,15.5776367 139.107175,15.9313929 139.608154,16.638916 L139.687256,16.638916 C139.612548,16.1159642 139.575195,15.7028824 139.575195,15.3996582 L139.575195,12.7431641 L141.130859,12.7431641 L141.130859,23 L139.917969,23 L139.647705,22.0441895 L139.575195,22.0441895 C139.078611,22.7692907 138.351323,23.1318359 137.393311,23.1318359 Z M137.808594,21.8793945 C138.445804,21.8793945 138.909422,21.7003192 139.199463,21.3421631 C139.489503,20.984007 139.638916,20.4028361 139.647705,19.5986328 L139.647705,19.3811035 C139.647705,18.4626419 139.498293,17.8100605 139.199463,17.4233398 C138.900633,17.0366192 138.43262,16.8432617 137.79541,16.8432617 C137.250486,16.8432617 136.830812,17.0640847 136.536377,17.5057373 C136.241942,17.9473899 136.094727,18.5769002 136.094727,19.3942871 C136.094727,20.2028849 136.237547,20.8192117 136.523193,21.2432861 C136.808839,21.6673605 137.237302,21.8793945 137.808594,21.8793945 Z M152.508301,15.5776367 C152.508301,16.1884796 152.330324,16.6971415 151.974365,17.1036377 C151.618406,17.5101339 151.117435,17.7836907 150.471436,17.9243164 L150.471436,17.9770508 C151.244877,18.073731 151.824949,18.3143291 152.21167,18.6988525 C152.598391,19.0833759 152.791748,19.5942351 152.791748,20.2314453 C152.791748,21.158696 152.464359,21.8738989 151.80957,22.3770752 C151.154782,22.8802515 150.223151,23.1318359 149.014648,23.1318359 C147.946772,23.1318359 147.045902,22.9582537 146.312012,22.611084 L146.312012,21.2333984 C146.720705,21.4355479 147.153562,21.5915522 147.610596,21.701416 C148.067629,21.8112798 148.507078,21.8662109 148.928955,21.8662109 C149.676029,21.8662109 150.234129,21.7277846 150.603271,21.4509277 C150.972414,21.1740709 151.156982,20.7456084 151.156982,20.1655273 C151.156982,19.6513646 150.952639,19.2734387 150.543945,19.0317383 C150.135252,18.7900379 149.493657,18.6691895 148.619141,18.6691895 L147.781982,18.6691895 L147.781982,17.4101562 L148.632324,17.4101562 C150.170418,17.4101562 150.939453,16.8784233 150.939453,15.8149414 C150.939453,15.4018534 150.805421,15.0832531 150.537354,14.8591309 C150.269286,14.6350086 149.873782,14.5229492 149.35083,14.5229492 C148.986082,14.5229492 148.634523,14.5745844 148.296143,14.6778564 C147.957762,14.7811284 147.557864,14.9821762 147.096436,15.2810059 L146.338379,14.1999512 C147.221684,13.5495573 148.247797,13.2243652 149.416748,13.2243652 C150.387944,13.2243652 151.145993,13.4331034 151.690918,13.8505859 C152.235843,14.2680685 152.508301,14.8437463 152.508301,15.5776367 Z" id="UserNeed3" fill="#032A2F" fill-rule="nonzero"></path>
                    <path d="M75.3249512,50 L75.3249512,40.362793 L76.4455566,40.362793 L76.4455566,50 L75.3249512,50 Z M88.3305664,50 L87.0056152,45.7614746 C86.9221187,45.502196 86.7661144,44.9133347 86.5375977,43.994873 L86.4848633,43.994873 C86.3090812,44.7639199 86.1552741,45.3571756 86.0234375,45.7746582 L84.6589355,50 L83.3933105,50 L81.4223633,42.7753906 L82.5693359,42.7753906 C83.0351586,44.5903411 83.3900134,45.9724074 83.6339111,46.9216309 C83.8778088,47.8708544 84.0173338,48.5102523 84.0524902,48.8398438 L84.1052246,48.8398438 C84.1535647,48.5893542 84.2315668,48.2652608 84.3392334,47.8675537 C84.4469,47.4698466 84.5402828,47.1545422 84.6193848,46.9216309 L85.9443359,42.7753906 L87.1308594,42.7753906 L88.4228516,46.9216309 C88.6689465,47.677494 88.8359371,48.3124974 88.9238281,48.8266602 L88.9765625,48.8266602 C88.9941407,48.6684562 89.0413815,48.4245622 89.1182861,48.0949707 C89.1951908,47.7653792 89.6533161,45.9922036 90.4926758,42.7753906 L91.6264648,42.7753906 L89.6291504,50 L88.3305664,50 Z M97.3745117,50 L97.1569824,48.9716797 L97.104248,48.9716797 C96.7438947,49.4243187 96.3846453,49.7308342 96.0264893,49.8912354 C95.6683332,50.0516365 95.2211941,50.1318359 94.6850586,50.1318359 C93.9687464,50.1318359 93.4073507,49.9472675 93.0008545,49.578125 C92.5943583,49.2089825 92.3911133,48.6838413 92.3911133,48.0026855 C92.3911133,46.5436939 93.5578497,45.7790531 95.8913574,45.7087402 L97.1174316,45.6691895 L97.1174316,45.2209473 C97.1174316,44.6540499 96.9954846,44.235475 96.7515869,43.96521 C96.5076892,43.6949449 96.1176785,43.5598145 95.581543,43.5598145 C94.9794892,43.5598145 94.2983436,43.7443829 93.5380859,44.1135254 L93.2019043,43.2763672 C93.5578631,43.0830068 93.9478739,42.931397 94.3719482,42.8215332 C94.7960226,42.7116694 95.2211893,42.6567383 95.6474609,42.6567383 C96.5087934,42.6567383 97.1470927,42.8478985 97.5623779,43.2302246 C97.9776632,43.6125507 98.1853027,44.2255817 98.1853027,45.0693359 L98.1853027,50 L97.3745117,50 Z M94.9025879,49.2287598 C95.5837436,49.2287598 96.1187725,49.0419941 96.5076904,48.668457 C96.8966084,48.29492 97.0910645,47.771976 97.0910645,47.0996094 L97.0910645,46.4470215 L95.9968262,46.4931641 C95.1267046,46.5239259 94.4993916,46.6590564 94.1148682,46.8985596 C93.7303448,47.1380627 93.5380859,47.5104955 93.5380859,48.0158691 C93.5380859,48.4113789 93.6578357,48.7124013 93.8973389,48.9189453 C94.136842,49.1254893 94.4719217,49.2287598 94.9025879,49.2287598 Z M105.383545,50 L105.383545,45.326416 C105.383545,44.7375459 105.249513,44.2980972 104.981445,44.0080566 C104.713378,43.7180161 104.293704,43.572998 103.722412,43.572998 C102.966549,43.572998 102.412844,43.7773417 102.061279,44.1860352 C101.709715,44.5947286 101.533936,45.2692824 101.533936,46.2097168 L101.533936,50 L100.439697,50 L100.439697,42.7753906 L101.32959,42.7753906 L101.507568,43.7641602 L101.560303,43.7641602 C101.784425,43.4082013 102.098631,43.1324473 102.50293,42.9368896 C102.907229,42.741332 103.357664,42.6435547 103.854248,42.6435547 C104.72437,42.6435547 105.379148,42.8533915 105.818604,43.2730713 C106.258059,43.6927511 106.477783,44.3640091 106.477783,45.2868652 L106.477783,50 L105.383545,50 Z M111.059082,49.2287598 C111.252442,49.2287598 111.439208,49.2144777 111.619385,49.1859131 C111.799561,49.1573485 111.942382,49.1276857 112.047852,49.0969238 L112.047852,49.934082 C111.929199,49.9912112 111.754518,50.038452 111.523804,50.0758057 C111.29309,50.1131594 111.08545,50.1318359 110.900879,50.1318359 C109.503411,50.1318359 108.804688,49.3957593 108.804688,47.923584 L108.804688,43.6257324 L107.769775,43.6257324 L107.769775,43.0983887 L108.804688,42.6435547 L109.266113,41.1010742 L109.898926,41.1010742 L109.898926,42.7753906 L111.995117,42.7753906 L111.995117,43.6257324 L109.898926,43.6257324 L109.898926,47.8774414 C109.898926,48.3125022 110.002196,48.6464832 110.20874,48.8793945 C110.415284,49.1123059 110.698729,49.2287598 111.059082,49.2287598 Z M119.331787,49.2287598 C119.525147,49.2287598 119.711913,49.2144777 119.89209,49.1859131 C120.072267,49.1573485 120.215087,49.1276857 120.320557,49.0969238 L120.320557,49.934082 C120.201904,49.9912112 120.027223,50.038452 119.796509,50.0758057 C119.565795,50.1131594 119.358155,50.1318359 119.173584,50.1318359 C117.776116,50.1318359 117.077393,49.3957593 117.077393,47.923584 L117.077393,43.6257324 L116.04248,43.6257324 L116.04248,43.0983887 L117.077393,42.6435547 L117.538818,41.1010742 L118.171631,41.1010742 L118.171631,42.7753906 L120.267822,42.7753906 L120.267822,43.6257324 L118.171631,43.6257324 L118.171631,47.8774414 C118.171631,48.3125022 118.274901,48.6464832 118.481445,48.8793945 C118.687989,49.1123059 118.971434,49.2287598 119.331787,49.2287598 Z M128,46.3811035 C128,47.5588438 127.703372,48.4783902 127.110107,49.1397705 C126.516843,49.8011508 125.697271,50.1318359 124.651367,50.1318359 C124.005368,50.1318359 123.431887,49.9802261 122.930908,49.677002 C122.429929,49.3737778 122.043214,48.9387235 121.770752,48.3718262 C121.49829,47.8049288 121.362061,47.1413612 121.362061,46.3811035 C121.362061,45.2033633 121.656491,44.286014 122.245361,43.6290283 C122.834231,42.9720426 123.651606,42.6435547 124.69751,42.6435547 C125.708257,42.6435547 126.51135,42.979733 127.106812,43.6520996 C127.702273,44.3244663 128,45.2341251 128,46.3811035 Z M122.49585,46.3811035 C122.49585,47.3039597 122.680418,48.0070777 123.049561,48.4904785 C123.418703,48.9738794 123.961422,49.2155762 124.677734,49.2155762 C125.394047,49.2155762 125.937864,48.974978 126.309204,48.4937744 C126.680544,48.0125708 126.866211,47.3083542 126.866211,46.3811035 C126.866211,45.4626419 126.680544,44.765017 126.309204,44.288208 C125.937864,43.811399 125.389652,43.572998 124.664551,43.572998 C123.948239,43.572998 123.407717,43.8081031 123.042969,44.2783203 C122.678221,44.7485375 122.49585,45.4494582 122.49585,46.3811035 Z M136.786865,42.6567383 C137.736089,42.6567383 138.473264,42.9808317 138.998413,43.6290283 C139.523562,44.2772249 139.786133,45.1945741 139.786133,46.3811035 C139.786133,47.5676329 139.521365,48.4893766 138.991821,49.1463623 C138.462278,49.803348 137.7273,50.1318359 136.786865,50.1318359 C136.316648,50.1318359 135.887087,50.0450448 135.498169,49.87146 C135.109251,49.6978751 134.78296,49.43091 134.519287,49.0705566 L134.440186,49.0705566 L134.209473,50 L133.425049,50 L133.425049,39.7431641 L134.519287,39.7431641 L134.519287,42.2348633 C134.519287,42.7929715 134.501709,43.2939431 134.466553,43.737793 L134.519287,43.737793 C135.029055,43.0170862 135.784907,42.6567383 136.786865,42.6567383 Z M136.628662,43.572998 C135.881588,43.572998 135.343263,43.7872293 135.013672,44.2156982 C134.68408,44.6441672 134.519287,45.3659617 134.519287,46.3811035 C134.519287,47.3962453 134.688475,48.1224343 135.026855,48.5596924 C135.365236,48.9969504 135.907955,49.2155762 136.655029,49.2155762 C137.327396,49.2155762 137.828367,48.9705835 138.157959,48.4805908 C138.48755,47.9905981 138.652344,47.2863815 138.652344,46.3679199 C138.652344,45.4274855 138.48755,44.7265648 138.157959,44.2651367 C137.828367,43.8037086 137.318607,43.572998 136.628662,43.572998 Z M144.749756,50.1318359 C143.681879,50.1318359 142.839236,49.8066439 142.221802,49.15625 C141.604367,48.5058561 141.295654,47.602789 141.295654,46.4470215 C141.295654,45.2824649 141.582395,44.3574253 142.155884,43.671875 C142.729373,42.9863247 143.499507,42.6435547 144.466309,42.6435547 C145.371587,42.6435547 146.087888,42.9412812 146.615234,43.5367432 C147.142581,44.1322051 147.40625,44.9177197 147.40625,45.8933105 L147.40625,46.5854492 L142.429443,46.5854492 C142.451416,47.433598 142.665647,48.0773904 143.072144,48.5168457 C143.47864,48.956301 144.051022,49.1760254 144.789307,49.1760254 C145.567143,49.1760254 146.336178,49.0134294 147.096436,48.6882324 L147.096436,49.6638184 C146.709715,49.8308114 146.343874,49.9505612 145.998901,50.0230713 C145.653929,50.0955814 145.237551,50.1318359 144.749756,50.1318359 Z M144.453125,43.5598145 C143.873044,43.5598145 143.410524,43.7487774 143.065552,44.126709 C142.720579,44.5046406 142.517334,45.0275846 142.455811,45.6955566 L146.23291,45.6955566 C146.23291,45.0056118 146.079103,44.4771747 145.771484,44.1102295 C145.463866,43.7432843 145.024417,43.5598145 144.453125,43.5598145 Z M157.722412,50 L157.722412,45.326416 C157.722412,44.7375459 157.58838,44.2980972 157.320312,44.0080566 C157.052245,43.7180161 156.632571,43.572998 156.061279,43.572998 C155.305416,43.572998 154.751711,43.7773417 154.400146,44.1860352 C154.048582,44.5947286 153.872803,45.2692824 153.872803,46.2097168 L153.872803,50 L152.778564,50 L152.778564,42.7753906 L153.668457,42.7753906 L153.846436,43.7641602 L153.89917,43.7641602 C154.123292,43.4082013 154.437498,43.1324473 154.841797,42.9368896 C155.246096,42.741332 155.696531,42.6435547 156.193115,42.6435547 C157.063237,42.6435547 157.718015,42.8533915 158.157471,43.2730713 C158.596926,43.6927511 158.81665,44.3640091 158.81665,45.2868652 L158.81665,50 L157.722412,50 Z M167.300293,46.3811035 C167.300293,47.5588438 167.003665,48.4783902 166.4104,49.1397705 C165.817136,49.8011508 164.997564,50.1318359 163.95166,50.1318359 C163.305661,50.1318359 162.73218,49.9802261 162.231201,49.677002 C161.730222,49.3737778 161.343507,48.9387235 161.071045,48.3718262 C160.798583,47.8049288 160.662354,47.1413612 160.662354,46.3811035 C160.662354,45.2033633 160.956784,44.286014 161.545654,43.6290283 C162.134524,42.9720426 162.951899,42.6435547 163.997803,42.6435547 C165.00855,42.6435547 165.811643,42.979733 166.407104,43.6520996 C167.002566,44.3244663 167.300293,45.2341251 167.300293,46.3811035 Z M161.796143,46.3811035 C161.796143,47.3039597 161.980711,48.0070777 162.349854,48.4904785 C162.718996,48.9738794 163.261715,49.2155762 163.978027,49.2155762 C164.69434,49.2155762 165.238157,48.974978 165.609497,48.4937744 C165.980837,48.0125708 166.166504,47.3083542 166.166504,46.3811035 C166.166504,45.4626419 165.980837,44.765017 165.609497,44.288208 C165.238157,43.811399 164.689945,43.572998 163.964844,43.572998 C163.248532,43.572998 162.70801,43.8081031 162.343262,44.2783203 C161.978514,44.7485375 161.796143,45.4494582 161.796143,46.3811035 Z M171.552002,49.2287598 C171.745362,49.2287598 171.932128,49.2144777 172.112305,49.1859131 C172.292481,49.1573485 172.435302,49.1276857 172.540771,49.0969238 L172.540771,49.934082 C172.422119,49.9912112 172.247438,50.038452 172.016724,50.0758057 C171.78601,50.1131594 171.57837,50.1318359 171.393799,50.1318359 C169.996331,50.1318359 169.297607,49.3957593 169.297607,47.923584 L169.297607,43.6257324 L168.262695,43.6257324 L168.262695,43.0983887 L169.297607,42.6435547 L169.759033,41.1010742 L170.391846,41.1010742 L170.391846,42.7753906 L172.488037,42.7753906 L172.488037,43.6257324 L170.391846,43.6257324 L170.391846,47.8774414 C170.391846,48.3125022 170.495116,48.6464832 170.70166,48.8793945 C170.908204,49.1123059 171.191649,49.2287598 171.552002,49.2287598 Z M175.078613,50 L173.984375,50 L173.984375,42.7753906 L175.078613,42.7753906 L175.078613,50 Z M173.89209,40.817627 C173.89209,40.5671374 173.953613,40.3836676 174.07666,40.2672119 C174.199708,40.1507563 174.353515,40.0925293 174.538086,40.0925293 C174.713868,40.0925293 174.865478,40.1518549 174.99292,40.2705078 C175.120362,40.3891607 175.184082,40.571532 175.184082,40.817627 C175.184082,41.0637219 175.120362,41.2471918 174.99292,41.368042 C174.865478,41.4888922 174.713868,41.5493164 174.538086,41.5493164 C174.353515,41.5493164 174.199708,41.4888922 174.07666,41.368042 C173.953613,41.2471918 173.89209,41.0637219 173.89209,40.817627 Z M180.655273,43.6257324 L178.816162,43.6257324 L178.816162,50 L177.721924,50 L177.721924,43.6257324 L176.429932,43.6257324 L176.429932,43.1313477 L177.721924,42.7358398 L177.721924,42.3337402 C177.721924,40.5583407 178.497551,39.6706543 180.048828,39.6706543 C180.431154,39.6706543 180.879392,39.7475578 181.393555,39.9013672 L181.110107,40.7780762 C180.68823,40.641845 180.327882,40.5737305 180.029053,40.5737305 C179.615965,40.5737305 179.310548,40.7110582 179.112793,40.9857178 C178.915038,41.2603773 178.816162,41.7009247 178.816162,42.307373 L178.816162,42.7753906 L180.655273,42.7753906 L180.655273,43.6257324 Z M183.067871,50 L181.973633,50 L181.973633,42.7753906 L183.067871,42.7753906 L183.067871,50 Z M181.881348,40.817627 C181.881348,40.5671374 181.94287,40.3836676 182.065918,40.2672119 C182.188965,40.1507563 182.342773,40.0925293 182.527344,40.0925293 C182.703126,40.0925293 182.854736,40.1518549 182.982178,40.2705078 C183.10962,40.3891607 183.17334,40.571532 183.17334,40.817627 C183.17334,41.0637219 183.10962,41.2471918 182.982178,41.368042 C182.854736,41.4888922 182.703126,41.5493164 182.527344,41.5493164 C182.342773,41.5493164 182.188965,41.4888922 182.065918,41.368042 C181.94287,41.2471918 181.881348,41.0637219 181.881348,40.817627 Z M188.440186,50.1318359 C187.372309,50.1318359 186.529666,49.8066439 185.912231,49.15625 C185.294797,48.5058561 184.986084,47.602789 184.986084,46.4470215 C184.986084,45.2824649 185.272824,44.3574253 185.846313,43.671875 C186.419803,42.9863247 187.189937,42.6435547 188.156738,42.6435547 C189.062016,42.6435547 189.778318,42.9412812 190.305664,43.5367432 C190.83301,44.1322051 191.09668,44.9177197 191.09668,45.8933105 L191.09668,46.5854492 L186.119873,46.5854492 C186.141846,47.433598 186.356077,48.0773904 186.762573,48.5168457 C187.169069,48.956301 187.741451,49.1760254 188.479736,49.1760254 C189.257572,49.1760254 190.026608,49.0134294 190.786865,48.6882324 L190.786865,49.6638184 C190.400145,49.8308114 190.034303,49.9505612 189.689331,50.0230713 C189.344359,50.0955814 188.927981,50.1318359 188.440186,50.1318359 Z M188.143555,43.5598145 C187.563474,43.5598145 187.100954,43.7487774 186.755981,44.126709 C186.411009,44.5046406 186.207764,45.0275846 186.14624,45.6955566 L189.92334,45.6955566 C189.92334,45.0056118 189.769533,44.4771747 189.461914,44.1102295 C189.154295,43.7432843 188.714847,43.5598145 188.143555,43.5598145 Z M197.879639,49.0310059 L197.820312,49.0310059 C197.314939,49.7648962 196.559087,50.1318359 195.552734,50.1318359 C194.607905,50.1318359 193.872927,49.8088411 193.347778,49.1628418 C192.822629,48.5168425 192.560059,47.5983946 192.560059,46.4074707 C192.560059,45.2165468 192.823728,44.2915072 193.351074,43.6323242 C193.878421,42.9731412 194.6123,42.6435547 195.552734,42.6435547 C196.53272,42.6435547 197.284177,42.9995082 197.807129,43.7114258 L197.892822,43.7114258 L197.84668,43.1906738 L197.820312,42.6831055 L197.820312,39.7431641 L198.914551,39.7431641 L198.914551,50 L198.024658,50 L197.879639,49.0310059 Z M195.691162,49.2155762 C196.438236,49.2155762 196.979857,49.0123311 197.31604,48.605835 C197.652223,48.1993388 197.820312,47.5434616 197.820312,46.6381836 L197.820312,46.4074707 C197.820312,45.3835398 197.650026,44.6529563 197.309448,44.2156982 C196.96887,43.7784402 196.425053,43.5598145 195.677979,43.5598145 C195.036374,43.5598145 194.54529,43.8092016 194.204712,44.3079834 C193.864134,44.8067652 193.693848,45.5109818 193.693848,46.4206543 C193.693848,47.3435105 193.863035,48.0400367 194.201416,48.5102539 C194.539797,48.9804711 195.036374,49.2155762 195.691162,49.2155762 Z M210.977539,46.3811035 C210.977539,47.5588438 210.680911,48.4783902 210.087646,49.1397705 C209.494382,49.8011508 208.67481,50.1318359 207.628906,50.1318359 C206.982907,50.1318359 206.409426,49.9802261 205.908447,49.677002 C205.407468,49.3737778 205.020753,48.9387235 204.748291,48.3718262 C204.475829,47.8049288 204.3396,47.1413612 204.3396,46.3811035 C204.3396,45.2033633 204.63403,44.286014 205.2229,43.6290283 C205.811771,42.9720426 206.629145,42.6435547 207.675049,42.6435547 C208.685796,42.6435547 209.488889,42.979733 210.084351,43.6520996 C210.679813,44.3244663 210.977539,45.2341251 210.977539,46.3811035 Z M205.473389,46.3811035 C205.473389,47.3039597 205.657957,48.0070777 206.0271,48.4904785 C206.396242,48.9738794 206.938961,49.2155762 207.655273,49.2155762 C208.371586,49.2155762 208.915403,48.974978 209.286743,48.4937744 C209.658083,48.0125708 209.84375,47.3083542 209.84375,46.3811035 C209.84375,45.4626419 209.658083,44.765017 209.286743,44.288208 C208.915403,43.811399 208.367191,43.572998 207.64209,43.572998 C206.925778,43.572998 206.385256,43.8081031 206.020508,44.2783203 C205.65576,44.7485375 205.473389,45.4494582 205.473389,46.3811035 Z M216.1521,43.6257324 L214.312988,43.6257324 L214.312988,50 L213.21875,50 L213.21875,43.6257324 L211.926758,43.6257324 L211.926758,43.1313477 L213.21875,42.7358398 L213.21875,42.3337402 C213.21875,40.5583407 213.994377,39.6706543 215.545654,39.6706543 C215.92798,39.6706543 216.376218,39.7475578 216.890381,39.9013672 L216.606934,40.7780762 C216.185056,40.641845 215.824709,40.5737305 215.525879,40.5737305 C215.112791,40.5737305 214.807374,40.7110582 214.609619,40.9857178 C214.411864,41.2603773 214.312988,41.7009247 214.312988,42.307373 L214.312988,42.7753906 L216.1521,42.7753906 L216.1521,43.6257324 Z M223.310791,49.2287598 C223.504151,49.2287598 223.690917,49.2144777 223.871094,49.1859131 C224.05127,49.1573485 224.194091,49.1276857 224.299561,49.0969238 L224.299561,49.934082 C224.180908,49.9912112 224.006227,50.038452 223.775513,50.0758057 C223.544799,50.1131594 223.337159,50.1318359 223.152588,50.1318359 C221.75512,50.1318359 221.056396,49.3957593 221.056396,47.923584 L221.056396,43.6257324 L220.021484,43.6257324 L220.021484,43.0983887 L221.056396,42.6435547 L221.517822,41.1010742 L222.150635,41.1010742 L222.150635,42.7753906 L224.246826,42.7753906 L224.246826,43.6257324 L222.150635,43.6257324 L222.150635,47.8774414 C222.150635,48.3125022 222.253905,48.6464832 222.460449,48.8793945 C222.666993,49.1123059 222.950438,49.2287598 223.310791,49.2287598 Z M230.687012,50 L230.687012,45.326416 C230.687012,44.7375459 230.55298,44.2980972 230.284912,44.0080566 C230.016844,43.7180161 229.597171,43.572998 229.025879,43.572998 C228.265621,43.572998 227.710817,43.779539 227.36145,44.192627 C227.012083,44.605715 226.837402,45.282466 226.837402,46.2229004 L226.837402,50 L225.743164,50 L225.743164,39.7431641 L226.837402,39.7431641 L226.837402,42.8479004 C226.837402,43.2214374 226.819824,43.5312488 226.784668,43.7773438 L226.850586,43.7773438 C227.065919,43.430174 227.372435,43.1566172 227.770142,42.956665 C228.167849,42.7567129 228.621579,42.6567383 229.131348,42.6567383 C230.014653,42.6567383 230.677122,42.8665751 231.118774,43.2862549 C231.560427,43.7059347 231.78125,44.3727982 231.78125,45.2868652 L231.78125,50 L230.687012,50 Z M237.081055,50.1318359 C236.013178,50.1318359 235.170535,49.8066439 234.553101,49.15625 C233.935666,48.5058561 233.626953,47.602789 233.626953,46.4470215 C233.626953,45.2824649 233.913693,44.3574253 234.487183,43.671875 C235.060672,42.9863247 235.830806,42.6435547 236.797607,42.6435547 C237.702885,42.6435547 238.419187,42.9412812 238.946533,43.5367432 C239.47388,44.1322051 239.737549,44.9177197 239.737549,45.8933105 L239.737549,46.5854492 L234.760742,46.5854492 C234.782715,47.433598 234.996946,48.0773904 235.403442,48.5168457 C235.809939,48.956301 236.382321,49.1760254 237.120605,49.1760254 C237.898441,49.1760254 238.667477,49.0134294 239.427734,48.6882324 L239.427734,49.6638184 C239.041014,49.8308114 238.675173,49.9505612 238.3302,50.0230713 C237.985228,50.0955814 237.56885,50.1318359 237.081055,50.1318359 Z M236.784424,43.5598145 C236.204343,43.5598145 235.741823,43.7487774 235.396851,44.126709 C235.051878,44.5046406 234.848633,45.0275846 234.787109,45.6955566 L238.564209,45.6955566 C238.564209,45.0056118 238.410402,44.4771747 238.102783,44.1102295 C237.795164,43.7432843 237.355716,43.5598145 236.784424,43.5598145 Z M81.3959961,64.3811035 C81.3959961,65.5588438 81.0993682,66.4783902 80.5061035,67.1397705 C79.9128388,67.8011508 79.0932669,68.1318359 78.0473633,68.1318359 C77.401364,68.1318359 76.8278834,67.9802261 76.3269043,67.677002 C75.8259252,67.3737778 75.4392103,66.9387235 75.166748,66.3718262 C74.8942857,65.8049288 74.7580566,65.1413612 74.7580566,64.3811035 C74.7580566,63.2033633 75.0524873,62.286014 75.6413574,61.6290283 C76.2302276,60.9720426 77.0476022,60.6435547 78.0935059,60.6435547 C79.1042531,60.6435547 79.9073457,60.979733 80.5028076,61.6520996 C81.0982696,62.3244663 81.3959961,63.2341251 81.3959961,64.3811035 Z M75.8918457,64.3811035 C75.8918457,65.3039597 76.0764142,66.0070777 76.4455566,66.4904785 C76.8146991,66.9738794 77.3574183,67.2155762 78.0737305,67.2155762 C78.7900426,67.2155762 79.3338604,66.974978 79.7052002,66.4937744 C80.0765399,66.0125708 80.262207,65.3083542 80.262207,64.3811035 C80.262207,63.4626419 80.0765399,62.765017 79.7052002,62.288208 C79.3338604,61.811399 78.7856482,61.572998 78.0605469,61.572998 C77.3442347,61.572998 76.8037128,61.8081031 76.4389648,62.2783203 C76.0742169,62.7485375 75.8918457,63.4494582 75.8918457,64.3811035 Z M84.6259766,68 L81.8837891,60.7753906 L83.0571289,60.7753906 L84.612793,65.0600586 C84.9643572,66.0620167 85.1708981,66.7124008 85.2324219,67.0112305 L85.2851562,67.0112305 C85.3334963,66.7783191 85.4862048,66.2960242 85.7432861,65.5643311 C86.0003675,64.8326379 86.577144,63.2363404 87.4736328,60.7753906 L88.6469727,60.7753906 L85.9047852,68 L84.6259766,68 Z M92.8591309,68.1318359 C91.7912544,68.1318359 90.9486115,67.8066439 90.3311768,67.15625 C89.713742,66.5058561 89.4050293,65.602789 89.4050293,64.4470215 C89.4050293,63.2824649 89.6917696,62.3574253 90.2652588,61.671875 C90.838748,60.9863247 91.6088819,60.6435547 92.5756836,60.6435547 C93.4809616,60.6435547 94.197263,60.9412812 94.7246094,61.5367432 C95.2519558,62.1322051 95.515625,62.9177197 95.515625,63.8933105 L95.515625,64.5854492 L90.5388184,64.5854492 C90.5607911,65.433598 90.7750224,66.0773904 91.1815186,66.5168457 C91.5880147,66.956301 92.1603967,67.1760254 92.8986816,67.1760254 C93.6765176,67.1760254 94.4455528,67.0134294 95.2058105,66.6882324 L95.2058105,67.6638184 C94.8190899,67.8308114 94.4532488,67.9505612 94.1082764,68.0230713 C93.7633039,68.0955814 93.3469263,68.1318359 92.8591309,68.1318359 Z M92.5625,61.5598145 C91.982419,61.5598145 91.5198992,61.7487774 91.1749268,62.126709 C90.8299543,62.5046406 90.6267093,63.0275846 90.5651855,63.6955566 L94.3422852,63.6955566 C94.3422852,63.0056118 94.1884781,62.4771747 93.8808594,62.1102295 C93.5732406,61.7432843 93.1337919,61.5598145 92.5625,61.5598145 Z M100.677002,60.6435547 C100.997804,60.6435547 101.285643,60.6699216 101.540527,60.7226562 L101.388916,61.737793 C101.090086,61.6718747 100.826417,61.638916 100.5979,61.638916 C100.013425,61.638916 99.5135519,61.8762183 99.0982666,62.3508301 C98.6829813,62.8254418 98.4753418,63.4165004 98.4753418,64.1240234 L98.4753418,68 L97.3811035,68 L97.3811035,60.7753906 L98.2841797,60.7753906 L98.4094238,62.1135254 L98.4621582,62.1135254 C98.7302259,61.6433082 99.0532208,61.280763 99.4311523,61.0258789 C99.8090839,60.7709948 100.224363,60.6435547 100.677002,60.6435547 Z M107.064453,68 L106.846924,66.9716797 L106.794189,66.9716797 C106.433836,67.4243187 106.074587,67.7308342 105.716431,67.8912354 C105.358275,68.0516365 104.911135,68.1318359 104.375,68.1318359 C103.658688,68.1318359 103.097292,67.9472675 102.690796,67.578125 C102.2843,67.2089825 102.081055,66.6838413 102.081055,66.0026855 C102.081055,64.5436939 103.247791,63.7790531 105.581299,63.7087402 L106.807373,63.6691895 L106.807373,63.2209473 C106.807373,62.6540499 106.685426,62.235475 106.441528,61.96521 C106.197631,61.6949449 105.80762,61.5598145 105.271484,61.5598145 C104.669431,61.5598145 103.988285,61.7443829 103.228027,62.1135254 L102.891846,61.2763672 C103.247805,61.0830068 103.637815,60.931397 104.06189,60.8215332 C104.485964,60.7116694 104.911131,60.6567383 105.337402,60.6567383 C106.198735,60.6567383 106.837034,60.8478985 107.252319,61.2302246 C107.667605,61.6125507 107.875244,62.2255817 107.875244,63.0693359 L107.875244,68 L107.064453,68 Z M104.592529,67.2287598 C105.273685,67.2287598 105.808714,67.0419941 106.197632,66.668457 C106.58655,66.29492 106.781006,65.771976 106.781006,65.0996094 L106.781006,64.4470215 L105.686768,64.4931641 C104.816646,64.5239259 104.189333,64.6590564 103.80481,64.8985596 C103.420286,65.1380627 103.228027,65.5104955 103.228027,66.0158691 C103.228027,66.4113789 103.347777,66.7124013 103.58728,66.9189453 C103.826783,67.1254893 104.161863,67.2287598 104.592529,67.2287598 Z M111.223877,68 L110.129639,68 L110.129639,57.7431641 L111.223877,57.7431641 L111.223877,68 Z M114.638428,68 L113.544189,68 L113.544189,57.7431641 L114.638428,57.7431641 L114.638428,68 Z M126.365234,68 L125.040283,63.7614746 C124.956787,63.502196 124.800782,62.9133347 124.572266,61.994873 L124.519531,61.994873 C124.343749,62.7639199 124.189942,63.3571756 124.058105,63.7746582 L122.693604,68 L121.427979,68 L119.457031,60.7753906 L120.604004,60.7753906 C121.069827,62.5903411 121.424681,63.9724074 121.668579,64.9216309 C121.912477,65.8708544 122.052002,66.5102523 122.087158,66.8398438 L122.139893,66.8398438 C122.188233,66.5893542 122.266235,66.2652608 122.373901,65.8675537 C122.481568,65.4698466 122.574951,65.1545422 122.654053,64.9216309 L123.979004,60.7753906 L125.165527,60.7753906 L126.45752,64.9216309 C126.703615,65.677494 126.870605,66.3124974 126.958496,66.8266602 L127.01123,66.8266602 C127.028809,66.6684562 127.076049,66.4245622 127.152954,66.0949707 C127.229859,65.7653792 127.687984,63.9922036 128.527344,60.7753906 L129.661133,60.7753906 L127.663818,68 L126.365234,68 Z M135.40918,68 L135.19165,66.9716797 L135.138916,66.9716797 C134.778563,67.4243187 134.419313,67.7308342 134.061157,67.8912354 C133.703001,68.0516365 133.255862,68.1318359 132.719727,68.1318359 C132.003414,68.1318359 131.442019,67.9472675 131.035522,67.578125 C130.629026,67.2089825 130.425781,66.6838413 130.425781,66.0026855 C130.425781,64.5436939 131.592518,63.7790531 133.926025,63.7087402 L135.1521,63.6691895 L135.1521,63.2209473 C135.1521,62.6540499 135.030153,62.235475 134.786255,61.96521 C134.542357,61.6949449 134.152346,61.5598145 133.616211,61.5598145 C133.014157,61.5598145 132.333012,61.7443829 131.572754,62.1135254 L131.236572,61.2763672 C131.592531,61.0830068 131.982542,60.931397 132.406616,60.8215332 C132.830691,60.7116694 133.255857,60.6567383 133.682129,60.6567383 C134.543461,60.6567383 135.181761,60.8478985 135.597046,61.2302246 C136.012331,61.6125507 136.219971,62.2255817 136.219971,63.0693359 L136.219971,68 L135.40918,68 Z M132.937256,67.2287598 C133.618412,67.2287598 134.15344,67.0419941 134.542358,66.668457 C134.931276,66.29492 135.125732,65.771976 135.125732,65.0996094 L135.125732,64.4470215 L134.031494,64.4931641 C133.161373,64.5239259 132.53406,64.6590564 132.149536,64.8985596 C131.765013,65.1380627 131.572754,65.5104955 131.572754,66.0158691 C131.572754,66.4113789 131.692504,66.7124013 131.932007,66.9189453 C132.17151,67.1254893 132.50659,67.2287598 132.937256,67.2287598 Z M140.807861,67.2287598 C141.001222,67.2287598 141.187987,67.2144777 141.368164,67.1859131 C141.548341,67.1573485 141.691162,67.1276857 141.796631,67.0969238 L141.796631,67.934082 C141.677978,67.9912112 141.503297,68.038452 141.272583,68.0758057 C141.041869,68.1131594 140.834229,68.1318359 140.649658,68.1318359 C139.25219,68.1318359 138.553467,67.3957593 138.553467,65.923584 L138.553467,61.6257324 L137.518555,61.6257324 L137.518555,61.0983887 L138.553467,60.6435547 L139.014893,59.1010742 L139.647705,59.1010742 L139.647705,60.7753906 L141.743896,60.7753906 L141.743896,61.6257324 L139.647705,61.6257324 L139.647705,65.8774414 C139.647705,66.3125022 139.750976,66.6464832 139.95752,66.8793945 C140.164064,67.1123059 140.447508,67.2287598 140.807861,67.2287598 Z M146.292236,68.1318359 C145.22436,68.1318359 144.381717,67.8066439 143.764282,67.15625 C143.146847,66.5058561 142.838135,65.602789 142.838135,64.4470215 C142.838135,63.2824649 143.124875,62.3574253 143.698364,61.671875 C144.271853,60.9863247 145.041987,60.6435547 146.008789,60.6435547 C146.914067,60.6435547 147.630368,60.9412812 148.157715,61.5367432 C148.685061,62.1322051 148.94873,62.9177197 148.94873,63.8933105 L148.94873,64.5854492 L143.971924,64.5854492 C143.993897,65.433598 144.208128,66.0773904 144.614624,66.5168457 C145.02112,66.956301 145.593502,67.1760254 146.331787,67.1760254 C147.109623,67.1760254 147.878658,67.0134294 148.638916,66.6882324 L148.638916,67.6638184 C148.252195,67.8308114 147.886354,67.9505612 147.541382,68.0230713 C147.196409,68.0955814 146.780032,68.1318359 146.292236,68.1318359 Z M145.995605,61.5598145 C145.415524,61.5598145 144.953005,61.7487774 144.608032,62.126709 C144.26306,62.5046406 144.059815,63.0275846 143.998291,63.6955566 L147.775391,63.6955566 C147.775391,63.0056118 147.621584,62.4771747 147.313965,62.1102295 C147.006346,61.7432843 146.566897,61.5598145 145.995605,61.5598145 Z M154.110107,60.6435547 C154.43091,60.6435547 154.718749,60.6699216 154.973633,60.7226562 L154.822021,61.737793 C154.523192,61.6718747 154.259523,61.638916 154.031006,61.638916 C153.44653,61.638916 152.946657,61.8762183 152.531372,62.3508301 C152.116087,62.8254418 151.908447,63.4165004 151.908447,64.1240234 L151.908447,68 L150.814209,68 L150.814209,60.7753906 L151.717285,60.7753906 L151.842529,62.1135254 L151.895264,62.1135254 C152.163331,61.6433082 152.486326,61.280763 152.864258,61.0258789 C153.242189,60.7709948 153.657468,60.6435547 154.110107,60.6435547 Z M164.492188,66.0290527 C164.492188,66.7014194 164.241702,67.2199689 163.740723,67.5847168 C163.239744,67.9494647 162.536626,68.1318359 161.631348,68.1318359 C160.673335,68.1318359 159.926272,67.9802261 159.390137,67.677002 L159.390137,66.6618652 C159.737306,66.8376474 160.109739,66.9760737 160.507446,67.0771484 C160.905153,67.1782232 161.288572,67.2287598 161.657715,67.2287598 C162.229007,67.2287598 162.668455,67.1375742 162.976074,66.9552002 C163.283693,66.7728262 163.4375,66.4948749 163.4375,66.1213379 C163.4375,65.8400865 163.315553,65.5994883 163.071655,65.3995361 C162.827758,65.199584 162.352054,64.9633803 161.644531,64.690918 C160.972165,64.4404284 160.494264,64.2218027 160.210815,64.0350342 C159.927367,63.8482657 159.716431,63.6362317 159.578003,63.3989258 C159.439575,63.1616199 159.370361,62.8781755 159.370361,62.548584 C159.370361,61.9597139 159.609861,61.4949968 160.088867,61.1544189 C160.567873,60.8138411 161.224849,60.6435547 162.059814,60.6435547 C162.83765,60.6435547 163.597897,60.8017562 164.340576,61.1181641 L163.95166,62.0080566 C163.226559,61.709227 162.569583,61.5598145 161.980713,61.5598145 C161.462156,61.5598145 161.071046,61.6411125 160.807373,61.8037109 C160.5437,61.9663094 160.411865,62.1904283 160.411865,62.4760742 C160.411865,62.6694346 160.461303,62.8342278 160.560181,62.970459 C160.659058,63.1066901 160.818358,63.2363275 161.038086,63.359375 C161.257814,63.4824225 161.679684,63.6603992 162.303711,63.8933105 C163.160649,64.2053238 163.739623,64.5195297 164.040649,64.8359375 C164.341676,65.1523453 164.492188,65.5500464 164.492188,66.0290527 Z M167.366211,68 L166.271973,68 L166.271973,60.7753906 L167.366211,60.7753906 L167.366211,68 Z M166.179688,58.817627 C166.179688,58.5671374 166.24121,58.3836676 166.364258,58.2672119 C166.487305,58.1507563 166.641112,58.0925293 166.825684,58.0925293 C167.001466,58.0925293 167.153076,58.1518549 167.280518,58.2705078 C167.40796,58.3891607 167.47168,58.571532 167.47168,58.817627 C167.47168,59.0637219 167.40796,59.2471918 167.280518,59.368042 C167.153076,59.4888922 167.001466,59.5493164 166.825684,59.5493164 C166.641112,59.5493164 166.487305,59.4888922 166.364258,59.368042 C166.24121,59.2471918 166.179688,59.0637219 166.179688,58.817627 Z M172.02002,67.2287598 C172.21338,67.2287598 172.400146,67.2144777 172.580322,67.1859131 C172.760499,67.1573485 172.90332,67.1276857 173.008789,67.0969238 L173.008789,67.934082 C172.890136,67.9912112 172.715455,68.038452 172.484741,68.0758057 C172.254027,68.1131594 172.046388,68.1318359 171.861816,68.1318359 C170.464348,68.1318359 169.765625,67.3957593 169.765625,65.923584 L169.765625,61.6257324 L168.730713,61.6257324 L168.730713,61.0983887 L169.765625,60.6435547 L170.227051,59.1010742 L170.859863,59.1010742 L170.859863,60.7753906 L172.956055,60.7753906 L172.956055,61.6257324 L170.859863,61.6257324 L170.859863,65.8774414 C170.859863,66.3125022 170.963134,66.6464832 171.169678,66.8793945 C171.376222,67.1123059 171.659666,67.2287598 172.02002,67.2287598 Z M175.480713,60.7753906 L175.480713,65.4621582 C175.480713,66.0510283 175.614745,66.4904771 175.882812,66.7805176 C176.15088,67.0705581 176.570554,67.2155762 177.141846,67.2155762 C177.897709,67.2155762 178.450316,67.0090353 178.799683,66.5959473 C179.14905,66.1828593 179.32373,65.5083055 179.32373,64.5722656 L179.32373,60.7753906 L180.417969,60.7753906 L180.417969,68 L179.514893,68 L179.356689,67.0310059 L179.297363,67.0310059 C179.073241,67.3869647 178.762331,67.6594229 178.364624,67.8483887 C177.966917,68.0373545 177.513186,68.1318359 177.003418,68.1318359 C176.124507,68.1318359 175.466433,67.9230978 175.029175,67.5056152 C174.591917,67.0881327 174.373291,66.4201706 174.373291,65.501709 L174.373291,60.7753906 L175.480713,60.7753906 Z M187.181152,68 L186.963623,66.9716797 L186.910889,66.9716797 C186.550535,67.4243187 186.191286,67.7308342 185.83313,67.8912354 C185.474974,68.0516365 185.027835,68.1318359 184.491699,68.1318359 C183.775387,68.1318359 183.213991,67.9472675 182.807495,67.578125 C182.400999,67.2089825 182.197754,66.6838413 182.197754,66.0026855 C182.197754,64.5436939 183.36449,63.7790531 185.697998,63.7087402 L186.924072,63.6691895 L186.924072,63.2209473 C186.924072,62.6540499 186.802125,62.235475 186.558228,61.96521 C186.31433,61.6949449 185.924319,61.5598145 185.388184,61.5598145 C184.78613,61.5598145 184.104984,61.7443829 183.344727,62.1135254 L183.008545,61.2763672 C183.364504,61.0830068 183.754514,60.931397 184.178589,60.8215332 C184.602663,60.7116694 185.02783,60.6567383 185.454102,60.6567383 C186.315434,60.6567383 186.953733,60.8478985 187.369019,61.2302246 C187.784304,61.6125507 187.991943,62.2255817 187.991943,63.0693359 L187.991943,68 L187.181152,68 Z M184.709229,67.2287598 C185.390384,67.2287598 185.925413,67.0419941 186.314331,66.668457 C186.703249,66.29492 186.897705,65.771976 186.897705,65.0996094 L186.897705,64.4470215 L185.803467,64.4931641 C184.933345,64.5239259 184.306032,64.6590564 183.921509,64.8985596 C183.536985,65.1380627 183.344727,65.5104955 183.344727,66.0158691 C183.344727,66.4113789 183.464476,66.7124013 183.703979,66.9189453 C183.943483,67.1254893 184.278562,67.2287598 184.709229,67.2287598 Z M192.579834,67.2287598 C192.773194,67.2287598 192.95996,67.2144777 193.140137,67.1859131 C193.320313,67.1573485 193.463134,67.1276857 193.568604,67.0969238 L193.568604,67.934082 C193.449951,67.9912112 193.27527,68.038452 193.044556,68.0758057 C192.813842,68.1131594 192.606202,68.1318359 192.421631,68.1318359 C191.024163,68.1318359 190.325439,67.3957593 190.325439,65.923584 L190.325439,61.6257324 L189.290527,61.6257324 L189.290527,61.0983887 L190.325439,60.6435547 L190.786865,59.1010742 L191.419678,59.1010742 L191.419678,60.7753906 L193.515869,60.7753906 L193.515869,61.6257324 L191.419678,61.6257324 L191.419678,65.8774414 C191.419678,66.3125022 191.522948,66.6464832 191.729492,66.8793945 C191.936036,67.1123059 192.219481,67.2287598 192.579834,67.2287598 Z M196.106445,68 L195.012207,68 L195.012207,60.7753906 L196.106445,60.7753906 L196.106445,68 Z M194.919922,58.817627 C194.919922,58.5671374 194.981445,58.3836676 195.104492,58.2672119 C195.22754,58.1507563 195.381347,58.0925293 195.565918,58.0925293 C195.7417,58.0925293 195.89331,58.1518549 196.020752,58.2705078 C196.148194,58.3891607 196.211914,58.571532 196.211914,58.817627 C196.211914,59.0637219 196.148194,59.2471918 196.020752,59.368042 C195.89331,59.4888922 195.7417,59.5493164 195.565918,59.5493164 C195.381347,59.5493164 195.22754,59.4888922 195.104492,59.368042 C194.981445,59.2471918 194.919922,59.0637219 194.919922,58.817627 Z M204.662598,64.3811035 C204.662598,65.5588438 204.36597,66.4783902 203.772705,67.1397705 C203.17944,67.8011508 202.359869,68.1318359 201.313965,68.1318359 C200.667966,68.1318359 200.094485,67.9802261 199.593506,67.677002 C199.092527,67.3737778 198.705812,66.9387235 198.43335,66.3718262 C198.160887,65.8049288 198.024658,65.1413612 198.024658,64.3811035 C198.024658,63.2033633 198.319089,62.286014 198.907959,61.6290283 C199.496829,60.9720426 200.314204,60.6435547 201.360107,60.6435547 C202.370855,60.6435547 203.173947,60.979733 203.769409,61.6520996 C204.364871,62.3244663 204.662598,63.2341251 204.662598,64.3811035 Z M199.158447,64.3811035 C199.158447,65.3039597 199.343016,66.0070777 199.712158,66.4904785 C200.081301,66.9738794 200.62402,67.2155762 201.340332,67.2155762 C202.056644,67.2155762 202.600462,66.974978 202.971802,66.4937744 C203.343142,66.0125708 203.528809,65.3083542 203.528809,64.3811035 C203.528809,63.4626419 203.343142,62.765017 202.971802,62.288208 C202.600462,61.811399 202.05225,61.572998 201.327148,61.572998 C200.610836,61.572998 200.070314,61.8081031 199.705566,62.2783203 C199.340818,62.7485375 199.158447,63.4494582 199.158447,64.3811035 Z M211.524658,68 L211.524658,63.326416 C211.524658,62.7375459 211.390626,62.2980972 211.122559,62.0080566 C210.854491,61.7180161 210.434817,61.572998 209.863525,61.572998 C209.107662,61.572998 208.553957,61.7773417 208.202393,62.1860352 C207.850828,62.5947286 207.675049,63.2692824 207.675049,64.2097168 L207.675049,68 L206.580811,68 L206.580811,60.7753906 L207.470703,60.7753906 L207.648682,61.7641602 L207.701416,61.7641602 C207.925538,61.4082013 208.239744,61.1324473 208.644043,60.9368896 C209.048342,60.741332 209.498777,60.6435547 209.995361,60.6435547 C210.865483,60.6435547 211.520261,60.8533915 211.959717,61.2730713 C212.399172,61.6927511 212.618896,62.3640091 212.618896,63.2868652 L212.618896,68 L211.524658,68 Z M224.609375,64.3811035 C224.609375,65.5588438 224.312747,66.4783902 223.719482,67.1397705 C223.126218,67.8011508 222.306646,68.1318359 221.260742,68.1318359 C220.614743,68.1318359 220.041262,67.9802261 219.540283,67.677002 C219.039304,67.3737778 218.652589,66.9387235 218.380127,66.3718262 C218.107665,65.8049288 217.971436,65.1413612 217.971436,64.3811035 C217.971436,63.2033633 218.265866,62.286014 218.854736,61.6290283 C219.443606,60.9720426 220.260981,60.6435547 221.306885,60.6435547 C222.317632,60.6435547 223.120725,60.979733 223.716187,61.6520996 C224.311648,62.3244663 224.609375,63.2341251 224.609375,64.3811035 Z M219.105225,64.3811035 C219.105225,65.3039597 219.289793,66.0070777 219.658936,66.4904785 C220.028078,66.9738794 220.570797,67.2155762 221.287109,67.2155762 C222.003422,67.2155762 222.547239,66.974978 222.918579,66.4937744 C223.289919,66.0125708 223.475586,65.3083542 223.475586,64.3811035 C223.475586,63.4626419 223.289919,62.765017 222.918579,62.288208 C222.547239,61.811399 221.999027,61.572998 221.273926,61.572998 C220.557614,61.572998 220.017092,61.8081031 219.652344,62.2783203 C219.287596,62.7485375 219.105225,63.4494582 219.105225,64.3811035 Z M229.823486,60.6435547 C230.144289,60.6435547 230.432128,60.6699216 230.687012,60.7226562 L230.5354,61.737793 C230.236571,61.6718747 229.972902,61.638916 229.744385,61.638916 C229.159909,61.638916 228.660036,61.8762183 228.244751,62.3508301 C227.829466,62.8254418 227.621826,63.4165004 227.621826,64.1240234 L227.621826,68 L226.527588,68 L226.527588,60.7753906 L227.430664,60.7753906 L227.555908,62.1135254 L227.608643,62.1135254 C227.87671,61.6433082 228.199705,61.280763 228.577637,61.0258789 C228.955568,60.7709948 229.370847,60.6435547 229.823486,60.6435547 Z M241.444824,68 L240.119873,63.7614746 C240.036377,63.502196 239.880372,62.9133347 239.651855,61.994873 L239.599121,61.994873 C239.423339,62.7639199 239.269532,63.3571756 239.137695,63.7746582 L237.773193,68 L236.507568,68 L234.536621,60.7753906 L235.683594,60.7753906 C236.149416,62.5903411 236.504271,63.9724074 236.748169,64.9216309 C236.992067,65.8708544 237.131592,66.5102523 237.166748,66.8398438 L237.219482,66.8398438 C237.267823,66.5893542 237.345825,66.2652608 237.453491,65.8675537 C237.561158,65.4698466 237.654541,65.1545422 237.733643,64.9216309 L239.058594,60.7753906 L240.245117,60.7753906 L241.537109,64.9216309 C241.783204,65.677494 241.950195,66.3124974 242.038086,66.8266602 L242.09082,66.8266602 C242.108399,66.6684562 242.155639,66.4245622 242.232544,66.0949707 C242.309449,65.7653792 242.767574,63.9922036 243.606934,60.7753906 L244.740723,60.7753906 L242.743408,68 L241.444824,68 Z M250.48877,68 L250.27124,66.9716797 L250.218506,66.9716797 C249.858152,67.4243187 249.498903,67.7308342 249.140747,67.8912354 C248.782591,68.0516365 248.335452,68.1318359 247.799316,68.1318359 C247.083004,68.1318359 246.521608,67.9472675 246.115112,67.578125 C245.708616,67.2089825 245.505371,66.6838413 245.505371,66.0026855 C245.505371,64.5436939 246.672107,63.7790531 249.005615,63.7087402 L250.231689,63.6691895 L250.231689,63.2209473 C250.231689,62.6540499 250.109742,62.235475 249.865845,61.96521 C249.621947,61.6949449 249.231936,61.5598145 248.695801,61.5598145 C248.093747,61.5598145 247.412601,61.7443829 246.652344,62.1135254 L246.316162,61.2763672 C246.672121,61.0830068 247.062132,60.931397 247.486206,60.8215332 C247.91028,60.7116694 248.335447,60.6567383 248.761719,60.6567383 C249.623051,60.6567383 250.26135,60.8478985 250.676636,61.2302246 C251.091921,61.6125507 251.299561,62.2255817 251.299561,63.0693359 L251.299561,68 L250.48877,68 Z M248.016846,67.2287598 C248.698001,67.2287598 249.23303,67.0419941 249.621948,66.668457 C250.010866,66.29492 250.205322,65.771976 250.205322,65.0996094 L250.205322,64.4470215 L249.111084,64.4931641 C248.240962,64.5239259 247.613649,64.6590564 247.229126,64.8985596 C246.844603,65.1380627 246.652344,65.5104955 246.652344,66.0158691 C246.652344,66.4113789 246.772094,66.7124013 247.011597,66.9189453 C247.2511,67.1254893 247.586179,67.2287598 248.016846,67.2287598 Z M255.887451,67.2287598 C256.080812,67.2287598 256.267577,67.2144777 256.447754,67.1859131 C256.627931,67.1573485 256.770751,67.1276857 256.876221,67.0969238 L256.876221,67.934082 C256.757568,67.9912112 256.582887,68.038452 256.352173,68.0758057 C256.121459,68.1131594 255.913819,68.1318359 255.729248,68.1318359 C254.33178,68.1318359 253.633057,67.3957593 253.633057,65.923584 L253.633057,61.6257324 L252.598145,61.6257324 L252.598145,61.0983887 L253.633057,60.6435547 L254.094482,59.1010742 L254.727295,59.1010742 L254.727295,60.7753906 L256.823486,60.7753906 L256.823486,61.6257324 L254.727295,61.6257324 L254.727295,65.8774414 C254.727295,66.3125022 254.830565,66.6464832 255.037109,66.8793945 C255.243653,67.1123059 255.527098,67.2287598 255.887451,67.2287598 Z M261.371826,68.1318359 C260.30395,68.1318359 259.461307,67.8066439 258.843872,67.15625 C258.226437,66.5058561 257.917725,65.602789 257.917725,64.4470215 C257.917725,63.2824649 258.204465,62.3574253 258.777954,61.671875 C259.351443,60.9863247 260.121577,60.6435547 261.088379,60.6435547 C261.993657,60.6435547 262.709958,60.9412812 263.237305,61.5367432 C263.764651,62.1322051 264.02832,62.9177197 264.02832,63.8933105 L264.02832,64.5854492 L259.051514,64.5854492 C259.073486,65.433598 259.287718,66.0773904 259.694214,66.5168457 C260.10071,66.956301 260.673092,67.1760254 261.411377,67.1760254 C262.189213,67.1760254 262.958248,67.0134294 263.718506,66.6882324 L263.718506,67.6638184 C263.331785,67.8308114 262.965944,67.9505612 262.620972,68.0230713 C262.275999,68.0955814 261.859622,68.1318359 261.371826,68.1318359 Z M261.075195,61.5598145 C260.495114,61.5598145 260.032594,61.7487774 259.687622,62.126709 C259.34265,62.5046406 259.139405,63.0275846 259.077881,63.6955566 L262.85498,63.6955566 C262.85498,63.0056118 262.701173,62.4771747 262.393555,62.1102295 C262.085936,61.7432843 261.646487,61.5598145 261.075195,61.5598145 Z M269.189697,60.6435547 C269.5105,60.6435547 269.798339,60.6699216 270.053223,60.7226562 L269.901611,61.737793 C269.602782,61.6718747 269.339112,61.638916 269.110596,61.638916 C268.52612,61.638916 268.026247,61.8762183 267.610962,62.3508301 C267.195677,62.8254418 266.988037,63.4165004 266.988037,64.1240234 L266.988037,68 L265.893799,68 L265.893799,60.7753906 L266.796875,60.7753906 L266.922119,62.1135254 L266.974854,62.1135254 C267.242921,61.6433082 267.565916,61.280763 267.943848,61.0258789 C268.321779,60.7709948 268.737058,60.6435547 269.189697,60.6435547 Z M79.8205566,84.0290527 C79.8205566,84.7014194 79.5700709,85.2199689 79.0690918,85.5847168 C78.5681127,85.9494647 77.8649948,86.1318359 76.9597168,86.1318359 C76.0017042,86.1318359 75.2546414,85.9802261 74.7185059,85.677002 L74.7185059,84.6618652 C75.0656756,84.8376474 75.4381084,84.9760737 75.8358154,85.0771484 C76.2335225,85.1782232 76.6169415,85.2287598 76.986084,85.2287598 C77.5573759,85.2287598 77.9968246,85.1375742 78.3044434,84.9552002 C78.6120621,84.7728262 78.7658691,84.4948749 78.7658691,84.1213379 C78.7658691,83.8400865 78.6439221,83.5994883 78.4000244,83.3995361 C78.1561267,83.199584 77.6804235,82.9633803 76.9729004,82.690918 C76.3005337,82.4404284 75.8226333,82.2218027 75.5391846,82.0350342 C75.2557359,81.8482657 75.0448005,81.6362317 74.9063721,81.3989258 C74.7679436,81.1616199 74.6987305,80.8781755 74.6987305,80.548584 C74.6987305,79.9597139 74.93823,79.4949968 75.4172363,79.1544189 C75.8962426,78.8138411 76.5532185,78.6435547 77.3881836,78.6435547 C78.1660195,78.6435547 78.9262658,78.8017562 79.6689453,79.1181641 L79.2800293,80.0080566 C78.554928,79.709227 77.8979522,79.5598145 77.309082,79.5598145 C76.7905248,79.5598145 76.3994154,79.6411125 76.1357422,79.8037109 C75.872069,79.9663094 75.7402344,80.1904283 75.7402344,80.4760742 C75.7402344,80.6694346 75.7896724,80.8342278 75.8885498,80.970459 C75.9874273,81.1066901 76.1467274,81.2363275 76.3664551,81.359375 C76.5861827,81.4824225 77.0080535,81.6603992 77.6320801,81.8933105 C78.489018,82.2053238 79.0679917,82.5195297 79.3690186,82.8359375 C79.6700455,83.1523453 79.8205566,83.5500464 79.8205566,84.0290527 Z M86.5441895,86 L86.5441895,81.326416 C86.5441895,80.7375459 86.4101576,80.2980972 86.1420898,80.0080566 C85.8740221,79.7180161 85.4543486,79.572998 84.8830566,79.572998 C84.1227989,79.572998 83.5679949,79.779539 83.2186279,80.192627 C82.8692609,80.605715 82.6945801,81.282466 82.6945801,82.2229004 L82.6945801,86 L81.6003418,86 L81.6003418,75.7431641 L82.6945801,75.7431641 L82.6945801,78.8479004 C82.6945801,79.2214374 82.6770021,79.5312488 82.6418457,79.7773438 L82.7077637,79.7773438 C82.9230968,79.430174 83.2296123,79.1566172 83.6273193,78.956665 C84.0250264,78.7567129 84.4787572,78.6567383 84.9885254,78.6567383 C85.8718306,78.6567383 86.5342995,78.8665751 86.9759521,79.2862549 C87.4176047,79.7059347 87.6384277,80.3727982 87.6384277,81.2868652 L87.6384277,86 L86.5441895,86 Z M96.1220703,82.3811035 C96.1220703,83.5588438 95.8254424,84.4783902 95.2321777,85.1397705 C94.638913,85.8011508 93.8193412,86.1318359 92.7734375,86.1318359 C92.1274382,86.1318359 91.5539576,85.9802261 91.0529785,85.677002 C90.5519994,85.3737778 90.1652846,84.9387235 89.8928223,84.3718262 C89.62036,83.8049288 89.4841309,83.1413612 89.4841309,82.3811035 C89.4841309,81.2033633 89.7785615,80.286014 90.3674316,79.6290283 C90.9563018,78.9720426 91.7736764,78.6435547 92.8195801,78.6435547 C93.8303273,78.6435547 94.6334199,78.979733 95.2288818,79.6520996 C95.8243438,80.3244663 96.1220703,81.2341251 96.1220703,82.3811035 Z M90.6179199,82.3811035 C90.6179199,83.3039597 90.8024884,84.0070777 91.1716309,84.4904785 C91.5407733,84.9738794 92.0834925,85.2155762 92.7998047,85.2155762 C93.5161169,85.2155762 94.0599347,84.974978 94.4312744,84.4937744 C94.8026142,84.0125708 94.9882812,83.3083542 94.9882812,82.3811035 C94.9882812,81.4626419 94.8026142,80.765017 94.4312744,80.288208 C94.0599347,79.811399 93.5117224,79.572998 92.7866211,79.572998 C92.0703089,79.572998 91.529787,79.8081031 91.1650391,80.2783203 C90.8002911,80.7485375 90.6179199,81.4494582 90.6179199,82.3811035 Z M101.336182,78.6435547 C101.656984,78.6435547 101.944823,78.6699216 102.199707,78.7226562 L102.048096,79.737793 C101.749266,79.6718747 101.485597,79.638916 101.25708,79.638916 C100.672604,79.638916 100.172732,79.8762183 99.7574463,80.3508301 C99.342161,80.8254418 99.1345215,81.4165004 99.1345215,82.1240234 L99.1345215,86 L98.0402832,86 L98.0402832,78.7753906 L98.9433594,78.7753906 L99.0686035,80.1135254 L99.1213379,80.1135254 C99.3894056,79.6433082 99.7124005,79.280763 100.090332,79.0258789 C100.468264,78.7709948 100.883543,78.6435547 101.336182,78.6435547 Z M105.884521,85.2287598 C106.077882,85.2287598 106.264648,85.2144777 106.444824,85.1859131 C106.625001,85.1573485 106.767822,85.1276857 106.873291,85.0969238 L106.873291,85.934082 C106.754638,85.9912112 106.579957,86.038452 106.349243,86.0758057 C106.118529,86.1131594 105.91089,86.1318359 105.726318,86.1318359 C104.32885,86.1318359 103.630127,85.3957593 103.630127,83.923584 L103.630127,79.6257324 L102.595215,79.6257324 L102.595215,79.0983887 L103.630127,78.6435547 L104.091553,77.1010742 L104.724365,77.1010742 L104.724365,78.7753906 L106.820557,78.7753906 L106.820557,79.6257324 L104.724365,79.6257324 L104.724365,83.8774414 C104.724365,84.3125022 104.827636,84.6464832 105.03418,84.8793945 C105.240724,85.1123059 105.524168,85.2287598 105.884521,85.2287598 Z M112.759766,86 L112.542236,84.9716797 L112.489502,84.9716797 C112.129149,85.4243187 111.769899,85.7308342 111.411743,85.8912354 C111.053587,86.0516365 110.606448,86.1318359 110.070312,86.1318359 C109.354,86.1318359 108.792605,85.9472675 108.386108,85.578125 C107.979612,85.2089825 107.776367,84.6838413 107.776367,84.0026855 C107.776367,82.5436939 108.943104,81.7790531 111.276611,81.7087402 L112.502686,81.6691895 L112.502686,81.2209473 C112.502686,80.6540499 112.380739,80.235475 112.136841,79.96521 C111.892943,79.6949449 111.502932,79.5598145 110.966797,79.5598145 C110.364743,79.5598145 109.683598,79.7443829 108.92334,80.1135254 L108.587158,79.2763672 C108.943117,79.0830068 109.333128,78.931397 109.757202,78.8215332 C110.181277,78.7116694 110.606443,78.6567383 111.032715,78.6567383 C111.894047,78.6567383 112.532347,78.8478985 112.947632,79.2302246 C113.362917,79.6125507 113.570557,80.2255817 113.570557,81.0693359 L113.570557,86 L112.759766,86 Z M110.287842,85.2287598 C110.968998,85.2287598 111.504026,85.0419941 111.892944,84.668457 C112.281862,84.29492 112.476318,83.771976 112.476318,83.0996094 L112.476318,82.4470215 L111.38208,82.4931641 C110.511959,82.5239259 109.884645,82.6590564 109.500122,82.8985596 C109.115599,83.1380627 108.92334,83.5104955 108.92334,84.0158691 C108.92334,84.4113789 109.04309,84.7124013 109.282593,84.9189453 C109.522096,85.1254893 109.857176,85.2287598 110.287842,85.2287598 Z M121.737793,78.7753906 L121.737793,79.4675293 L120.399658,79.6257324 C120.522706,79.7795418 120.632568,79.9805896 120.729248,80.2288818 C120.825928,80.4771741 120.874268,80.7573227 120.874268,81.0693359 C120.874268,81.776859 120.632571,82.3415506 120.14917,82.7634277 C119.665769,83.1853048 119.002201,83.3962402 118.158447,83.3962402 C117.943114,83.3962402 117.740968,83.3786623 117.552002,83.3435059 C117.086179,83.5896008 116.853271,83.8994122 116.853271,84.2729492 C116.853271,84.4707041 116.934569,84.6168208 117.097168,84.7113037 C117.259766,84.8057866 117.538816,84.8530273 117.934326,84.8530273 L119.213135,84.8530273 C119.995365,84.8530273 120.596311,85.0178206 121.015991,85.3474121 C121.435671,85.6770036 121.645508,86.1560027 121.645508,86.7844238 C121.645508,87.5842325 121.32471,88.1939676 120.683105,88.6136475 C120.041501,89.0333273 119.105475,89.2431641 117.875,89.2431641 C116.930171,89.2431641 116.201785,89.0673846 115.689819,88.7158203 C115.177854,88.3642561 114.921875,87.867679 114.921875,87.2260742 C114.921875,86.7866189 115.062499,86.4064957 115.34375,86.0856934 C115.625001,85.764891 116.020505,85.5473639 116.530273,85.4331055 C116.345702,85.349609 116.190797,85.2199716 116.065552,85.0441895 C115.940307,84.8684073 115.877686,84.6640637 115.877686,84.4311523 C115.877686,84.1674792 115.947997,83.9367686 116.088623,83.7390137 C116.229249,83.5412588 116.45117,83.3500986 116.754395,83.1655273 C116.380858,83.011718 116.076539,82.750246 115.841431,82.3811035 C115.606322,82.011961 115.48877,81.5900903 115.48877,81.1154785 C115.48877,80.3244589 115.726072,79.7147238 116.200684,79.2862549 C116.675295,78.8577859 117.347652,78.6435547 118.217773,78.6435547 C118.595705,78.6435547 118.936278,78.6874996 119.239502,78.7753906 L121.737793,78.7753906 Z M115.976562,87.2128906 C115.976562,87.6040059 116.141356,87.9006338 116.470947,88.1027832 C116.800539,88.3049327 117.272946,88.4060059 117.888184,88.4060059 C118.806645,88.4060059 119.486692,88.2686781 119.928345,87.9940186 C120.369997,87.719359 120.59082,87.3469262 120.59082,86.876709 C120.59082,86.4855937 120.469972,86.2142342 120.228271,86.0626221 C119.986571,85.91101 119.531742,85.8352051 118.86377,85.8352051 L117.552002,85.8352051 C117.055417,85.8352051 116.668703,85.9538562 116.391846,86.1911621 C116.114989,86.428468 115.976562,86.7690407 115.976562,87.2128906 Z M116.569824,81.0891113 C116.569824,81.5944849 116.712645,81.9768053 116.998291,82.236084 C117.283937,82.4953626 117.681638,82.625 118.191406,82.625 C119.259283,82.625 119.793213,82.1064505 119.793213,81.0693359 C119.793213,79.9838813 119.252691,79.4411621 118.171631,79.4411621 C117.657468,79.4411621 117.261964,79.5795885 116.985107,79.8564453 C116.708251,80.1333022 116.569824,80.5441867 116.569824,81.0891113 Z M126.272949,86.1318359 C125.205073,86.1318359 124.36243,85.8066439 123.744995,85.15625 C123.12756,84.5058561 122.818848,83.602789 122.818848,82.4470215 C122.818848,81.2824649 123.105588,80.3574253 123.679077,79.671875 C124.252566,78.9863247 125.0227,78.6435547 125.989502,78.6435547 C126.89478,78.6435547 127.611081,78.9412812 128.138428,79.5367432 C128.665774,80.1322051 128.929443,80.9177197 128.929443,81.8933105 L128.929443,82.5854492 L123.952637,82.5854492 C123.974609,83.433598 124.188841,84.0773904 124.595337,84.5168457 C125.001833,84.956301 125.574215,85.1760254 126.3125,85.1760254 C127.090336,85.1760254 127.859371,85.0134294 128.619629,84.6882324 L128.619629,85.6638184 C128.232908,85.8308114 127.867067,85.9505612 127.522095,86.0230713 C127.177122,86.0955814 126.760745,86.1318359 126.272949,86.1318359 Z M125.976318,79.5598145 C125.396237,79.5598145 124.933718,79.7487774 124.588745,80.126709 C124.243773,80.5046406 124.040528,81.0275846 123.979004,81.6955566 L127.756104,81.6955566 C127.756104,81.0056118 127.602296,80.4771747 127.294678,80.1102295 C126.987059,79.7432843 126.54761,79.5598145 125.976318,79.5598145 Z M135.395996,86 L134.301758,86 L134.301758,78.7753906 L135.395996,78.7753906 L135.395996,86 Z M134.209473,76.817627 C134.209473,76.5671374 134.270995,76.3836676 134.394043,76.2672119 C134.51709,76.1507563 134.670898,76.0925293 134.855469,76.0925293 C135.031251,76.0925293 135.182861,76.1518549 135.310303,76.2705078 C135.437745,76.3891607 135.501465,76.571532 135.501465,76.817627 C135.501465,77.0637219 135.437745,77.2471918 135.310303,77.368042 C135.182861,77.4888922 135.031251,77.5493164 134.855469,77.5493164 C134.670898,77.5493164 134.51709,77.4888922 134.394043,77.368042 C134.270995,77.2471918 134.209473,77.0637219 134.209473,76.817627 Z M142.660156,86 L142.660156,81.326416 C142.660156,80.7375459 142.526124,80.2980972 142.258057,80.0080566 C141.989989,79.7180161 141.570315,79.572998 140.999023,79.572998 C140.24316,79.572998 139.689455,79.7773417 139.337891,80.1860352 C138.986326,80.5947286 138.810547,81.2692824 138.810547,82.2097168 L138.810547,86 L137.716309,86 L137.716309,78.7753906 L138.606201,78.7753906 L138.78418,79.7641602 L138.836914,79.7641602 C139.061036,79.4082013 139.375242,79.1324473 139.779541,78.9368896 C140.18384,78.741332 140.634275,78.6435547 141.130859,78.6435547 C142.000981,78.6435547 142.65576,78.8533915 143.095215,79.2730713 C143.53467,79.6927511 143.754395,80.3640091 143.754395,81.2868652 L143.754395,86 L142.660156,86 Z M158.717773,86 L158.717773,81.3000488 C158.717773,80.7243624 158.594728,80.292604 158.348633,80.0047607 C158.102538,79.7169175 157.720217,79.572998 157.20166,79.572998 C156.520504,79.572998 156.017336,79.7685527 155.692139,80.159668 C155.366942,80.5507832 155.204346,81.152828 155.204346,81.9658203 L155.204346,86 L154.110107,86 L154.110107,81.3000488 C154.110107,80.7243624 153.987062,80.292604 153.740967,80.0047607 C153.494872,79.7169175 153.110354,79.572998 152.587402,79.572998 C151.901852,79.572998 151.399782,79.7784403 151.081177,80.1893311 C150.762572,80.6002218 150.603271,81.273677 150.603271,82.2097168 L150.603271,86 L149.509033,86 L149.509033,78.7753906 L150.398926,78.7753906 L150.576904,79.7641602 L150.629639,79.7641602 C150.836183,79.4125959 151.127317,79.1379404 151.503052,78.9401855 C151.878786,78.7424307 152.299558,78.6435547 152.765381,78.6435547 C153.894781,78.6435547 154.633055,79.052242 154.980225,79.8696289 L155.032959,79.8696289 C155.248292,79.4916973 155.560301,79.1928722 155.968994,78.9731445 C156.377688,78.7534169 156.843503,78.6435547 157.366455,78.6435547 C158.183842,78.6435547 158.795774,78.8533915 159.202271,79.2730713 C159.608767,79.6927511 159.812012,80.3640091 159.812012,81.2868652 L159.812012,86 L158.717773,86 Z M160.919434,78.7753906 L162.092773,78.7753906 L163.674805,82.8952637 C164.021974,83.8356981 164.237304,84.5146464 164.320801,84.9321289 L164.373535,84.9321289 C164.430664,84.7080067 164.550414,84.3245877 164.732788,83.7818604 C164.915162,83.239133 165.511714,81.5703265 166.522461,78.7753906 L167.695801,78.7753906 L164.591064,87.0019531 C164.283446,87.8149455 163.924196,88.3917219 163.513306,88.7322998 C163.102415,89.0728777 162.598148,89.2431641 162.000488,89.2431641 C161.666502,89.2431641 161.336916,89.2058109 161.011719,89.1311035 L161.011719,88.2543945 C161.253419,88.3071292 161.52368,88.3334961 161.82251,88.3334961 C162.573978,88.3334961 163.110106,87.9116253 163.430908,87.0678711 L163.833008,86.0395508 L160.919434,78.7753906 Z M175.671875,78.6435547 C175.992677,78.6435547 176.280516,78.6699216 176.5354,78.7226562 L176.383789,79.737793 C176.084959,79.6718747 175.82129,79.638916 175.592773,79.638916 C175.008298,79.638916 174.508425,79.8762183 174.09314,80.3508301 C173.677854,80.8254418 173.470215,81.4165004 173.470215,82.1240234 L173.470215,86 L172.375977,86 L172.375977,78.7753906 L173.279053,78.7753906 L173.404297,80.1135254 L173.457031,80.1135254 C173.725099,79.6433082 174.048094,79.280763 174.426025,79.0258789 C174.803957,78.7709948 175.219236,78.6435547 175.671875,78.6435547 Z M180.668457,86.1318359 C179.600581,86.1318359 178.757938,85.8066439 178.140503,85.15625 C177.523068,84.5058561 177.214355,83.602789 177.214355,82.4470215 C177.214355,81.2824649 177.501096,80.3574253 178.074585,79.671875 C178.648074,78.9863247 179.418208,78.6435547 180.38501,78.6435547 C181.290288,78.6435547 182.006589,78.9412812 182.533936,79.5367432 C183.061282,80.1322051 183.324951,80.9177197 183.324951,81.8933105 L183.324951,82.5854492 L178.348145,82.5854492 C178.370117,83.433598 178.584349,84.0773904 178.990845,84.5168457 C179.397341,84.956301 179.969723,85.1760254 180.708008,85.1760254 C181.485844,85.1760254 182.254879,85.0134294 183.015137,84.6882324 L183.015137,85.6638184 C182.628416,85.8308114 182.262575,85.9505612 181.917603,86.0230713 C181.57263,86.0955814 181.156252,86.1318359 180.668457,86.1318359 Z M180.371826,79.5598145 C179.791745,79.5598145 179.329225,79.7487774 178.984253,80.126709 C178.639281,80.5046406 178.436035,81.0275846 178.374512,81.6955566 L182.151611,81.6955566 C182.151611,81.0056118 181.997804,80.4771747 181.690186,80.1102295 C181.382567,79.7432843 180.943118,79.5598145 180.371826,79.5598145 Z M191.103271,78.7753906 L191.103271,79.4675293 L189.765137,79.6257324 C189.888184,79.7795418 189.998046,79.9805896 190.094727,80.2288818 C190.191407,80.4771741 190.239746,80.7573227 190.239746,81.0693359 C190.239746,81.776859 189.998049,82.3415506 189.514648,82.7634277 C189.031248,83.1853048 188.36768,83.3962402 187.523926,83.3962402 C187.308593,83.3962402 187.106446,83.3786623 186.91748,83.3435059 C186.451658,83.5896008 186.21875,83.8994122 186.21875,84.2729492 C186.21875,84.4707041 186.300048,84.6168208 186.462646,84.7113037 C186.625245,84.8057866 186.904295,84.8530273 187.299805,84.8530273 L188.578613,84.8530273 C189.360844,84.8530273 189.96179,85.0178206 190.38147,85.3474121 C190.80115,85.6770036 191.010986,86.1560027 191.010986,86.7844238 C191.010986,87.5842325 190.690189,88.1939676 190.048584,88.6136475 C189.406979,89.0333273 188.470953,89.2431641 187.240479,89.2431641 C186.29565,89.2431641 185.567263,89.0673846 185.055298,88.7158203 C184.543332,88.3642561 184.287354,87.867679 184.287354,87.2260742 C184.287354,86.7866189 184.427977,86.4064957 184.709229,86.0856934 C184.99048,85.764891 185.385984,85.5473639 185.895752,85.4331055 C185.711181,85.349609 185.556275,85.2199716 185.43103,85.0441895 C185.305786,84.8684073 185.243164,84.6640637 185.243164,84.4311523 C185.243164,84.1674792 185.313476,83.9367686 185.454102,83.7390137 C185.594727,83.5412588 185.816649,83.3500986 186.119873,83.1655273 C185.746336,83.011718 185.442018,82.750246 185.206909,82.3811035 C184.971801,82.011961 184.854248,81.5900903 184.854248,81.1154785 C184.854248,80.3244589 185.09155,79.7147238 185.566162,79.2862549 C186.040774,78.8577859 186.71313,78.6435547 187.583252,78.6435547 C187.961184,78.6435547 188.301756,78.6874996 188.60498,78.7753906 L191.103271,78.7753906 Z M185.342041,87.2128906 C185.342041,87.6040059 185.506834,87.9006338 185.836426,88.1027832 C186.166017,88.3049327 186.638425,88.4060059 187.253662,88.4060059 C188.172124,88.4060059 188.852171,88.2686781 189.293823,87.9940186 C189.735476,87.719359 189.956299,87.3469262 189.956299,86.876709 C189.956299,86.4855937 189.83545,86.2142342 189.59375,86.0626221 C189.35205,85.91101 188.89722,85.8352051 188.229248,85.8352051 L186.91748,85.8352051 C186.420896,85.8352051 186.034181,85.9538562 185.757324,86.1911621 C185.480467,86.428468 185.342041,86.7690407 185.342041,87.2128906 Z M185.935303,81.0891113 C185.935303,81.5944849 186.078124,81.9768053 186.36377,82.236084 C186.649415,82.4953626 187.047117,82.625 187.556885,82.625 C188.624761,82.625 189.158691,82.1064505 189.158691,81.0693359 C189.158691,79.9838813 188.618169,79.4411621 187.537109,79.4411621 C187.022947,79.4411621 186.627443,79.5795885 186.350586,79.8564453 C186.073729,80.1333022 185.935303,80.5441867 185.935303,81.0891113 Z M193.680664,86 L192.586426,86 L192.586426,78.7753906 L193.680664,78.7753906 L193.680664,86 Z M192.494141,76.817627 C192.494141,76.5671374 192.555663,76.3836676 192.678711,76.2672119 C192.801758,76.1507563 192.955565,76.0925293 193.140137,76.0925293 C193.315919,76.0925293 193.467529,76.1518549 193.594971,76.2705078 C193.722413,76.3891607 193.786133,76.571532 193.786133,76.817627 C193.786133,77.0637219 193.722413,77.2471918 193.594971,77.368042 C193.467529,77.4888922 193.315919,77.5493164 193.140137,77.5493164 C192.955565,77.5493164 192.801758,77.4888922 192.678711,77.368042 C192.555663,77.2471918 192.494141,77.0637219 192.494141,76.817627 Z M202.236816,82.3811035 C202.236816,83.5588438 201.940189,84.4783902 201.346924,85.1397705 C200.753659,85.8011508 199.934087,86.1318359 198.888184,86.1318359 C198.242184,86.1318359 197.668704,85.9802261 197.167725,85.677002 C196.666746,85.3737778 196.280031,84.9387235 196.007568,84.3718262 C195.735106,83.8049288 195.598877,83.1413612 195.598877,82.3811035 C195.598877,81.2033633 195.893308,80.286014 196.482178,79.6290283 C197.071048,78.9720426 197.888423,78.6435547 198.934326,78.6435547 C199.945073,78.6435547 200.748166,78.979733 201.343628,79.6520996 C201.93909,80.3244663 202.236816,81.2341251 202.236816,82.3811035 Z M196.732666,82.3811035 C196.732666,83.3039597 196.917234,84.0070777 197.286377,84.4904785 C197.655519,84.9738794 198.198239,85.2155762 198.914551,85.2155762 C199.630863,85.2155762 200.174681,84.974978 200.546021,84.4937744 C200.91736,84.0125708 201.103027,83.3083542 201.103027,82.3811035 C201.103027,81.4626419 200.91736,80.765017 200.546021,80.288208 C200.174681,79.811399 199.626468,79.572998 198.901367,79.572998 C198.185055,79.572998 197.644533,79.8081031 197.279785,80.2783203 C196.915037,80.7485375 196.732666,81.4494582 196.732666,82.3811035 Z M209.098877,86 L209.098877,81.326416 C209.098877,80.7375459 208.964845,80.2980972 208.696777,80.0080566 C208.42871,79.7180161 208.009036,79.572998 207.437744,79.572998 C206.681881,79.572998 206.128176,79.7773417 205.776611,80.1860352 C205.425047,80.5947286 205.249268,81.2692824 205.249268,82.2097168 L205.249268,86 L204.155029,86 L204.155029,78.7753906 L205.044922,78.7753906 L205.2229,79.7641602 L205.275635,79.7641602 C205.499757,79.4082013 205.813963,79.1324473 206.218262,78.9368896 C206.622561,78.741332 207.072996,78.6435547 207.56958,78.6435547 C208.439702,78.6435547 209.09448,78.8533915 209.533936,79.2730713 C209.973391,79.6927511 210.193115,80.3640091 210.193115,81.2868652 L210.193115,86 L209.098877,86 Z" id="Iwanttobenotifedoftheoverallwatersituationorwatershortageinmyregion" fill="#032A2F" fill-rule="nonzero"></path>
                </g>
            </g>
        </g>
    </g>
</svg>