<?xml version="1.0" encoding="UTF-8"?>
<svg width="276px" height="93px" viewBox="0 0 276 93" version="1.1" xmlns="http://www.w3.org/2000/svg" xmlns:xlink="http://www.w3.org/1999/xlink">
    <!-- Generator: Sketch 53.2 (72643) - https://sketchapp.com -->
    <title>userneed5</title>
    <desc>Created with Sketch.</desc>
    <g id="Poster" stroke="none" stroke-width="1" fill="none" fill-rule="evenodd">
        <g id="Desktop-HD-Copy-2" transform="translate(-930.000000, -4987.000000)">
            <g id="Group-9" transform="translate(248.000000, 4987.000000)">
                <g id="userneed5" transform="translate(682.500000, 0.000000)">
                    <rect id="Rectangle-2" fill="#FFFFFF" x="0" y="0" width="262.5" height="93"></rect>
                    <path d="M84.826416,10.362793 L84.826416,16.5986328 C84.826416,17.3105504 84.6737076,17.933469 84.3682861,18.4674072 C84.0628647,19.0013454 83.6212187,19.41223 83.043335,19.7000732 C82.4654512,19.9879165 81.7744181,20.1318359 80.9702148,20.1318359 C79.7748964,20.1318359 78.8454623,19.8154329 78.1818848,19.1826172 C77.5183072,18.5498015 77.1865234,17.679693 77.1865234,16.5722656 L77.1865234,10.362793 L78.7685547,10.362793 L78.7685547,16.4602051 C78.7685547,17.2556192 78.9531232,17.8422833 79.3222656,18.2202148 C79.6914081,18.5981464 80.258297,18.7871094 81.0229492,18.7871094 C82.5083082,18.7871094 83.2509766,18.0070879 83.2509766,16.4470215 L83.2509766,10.362793 L84.826416,10.362793 Z M92.0246582,17.923584 C92.0246582,18.6355016 91.7653835,19.1815167 91.2468262,19.5616455 C90.7282689,19.9417744 89.9856005,20.1318359 89.0187988,20.1318359 C88.0476026,20.1318359 87.2675811,19.9846206 86.6787109,19.6901855 L86.6787109,18.3520508 C87.5356488,18.7475606 88.3332483,18.9453125 89.0715332,18.9453125 C90.0251513,18.9453125 90.5019531,18.6574736 90.5019531,18.0817871 C90.5019531,17.8972159 90.4492193,17.7434088 90.34375,17.6203613 C90.2382807,17.4973138 90.0646985,17.3698737 89.822998,17.2380371 C89.5812976,17.1062005 89.2451193,16.9567879 88.8144531,16.7897949 C87.9750935,16.464598 87.407106,16.1394059 87.1104736,15.814209 C86.8138413,15.489012 86.6655273,15.0671413 86.6655273,14.548584 C86.6655273,13.9245574 86.9171117,13.4400652 87.4202881,13.0950928 C87.9234644,12.7501203 88.6079058,12.5776367 89.4736328,12.5776367 C90.3305707,12.5776367 91.1413536,12.751219 91.9060059,13.0983887 L91.4050293,14.2651367 C90.6184043,13.9399398 89.9570339,13.7773438 89.4208984,13.7773438 C88.6035115,13.7773438 88.1948242,14.0102516 88.1948242,14.4760742 C88.1948242,14.704591 88.3013905,14.8979484 88.5145264,15.0561523 C88.7276622,15.2143563 89.1923792,15.4318834 89.9086914,15.7087402 C90.5107452,15.9416516 90.9479967,16.1547842 91.220459,16.3481445 C91.4929213,16.5415049 91.6950677,16.7645251 91.8269043,17.0172119 C91.9587409,17.2698987 92.0246582,17.5720197 92.0246582,17.923584 Z M96.8828125,20.1318359 C95.7490178,20.1318359 94.86243,19.8011508 94.2230225,19.1397705 C93.583615,18.4783902 93.263916,17.5676328 93.263916,16.4074707 C93.263916,15.2165468 93.5605439,14.280521 94.1538086,13.5993652 C94.7470733,12.9182095 95.5622507,12.5776367 96.5993652,12.5776367 C97.5617724,12.5776367 98.3220187,12.8698701 98.880127,13.4543457 C99.4382352,14.0388213 99.7172852,14.8430125 99.7172852,15.8669434 L99.7172852,16.7041016 L94.8591309,16.7041016 C94.8811036,17.4116246 95.0722638,17.9554424 95.4326172,18.3355713 C95.7929706,18.7157001 96.3005338,18.9057617 96.9553223,18.9057617 C97.3859885,18.9057617 97.7869854,18.8651127 98.1583252,18.7838135 C98.5296649,18.7025142 98.9284647,18.5673838 99.3547363,18.378418 L99.3547363,19.6374512 C98.9768048,19.8176279 98.5944844,19.945068 98.2077637,20.0197754 C97.821043,20.0944828 97.379397,20.1318359 96.8828125,20.1318359 Z M96.5993652,13.7509766 C96.1071753,13.7509766 95.71277,13.9069809 95.4161377,14.2189941 C95.1195054,14.5310074 94.9426272,14.9858369 94.885498,15.5834961 L98.1945801,15.5834961 C98.185791,14.9814423 98.0407729,14.5255142 97.7595215,14.2156982 C97.4782701,13.9058822 97.0915552,13.7509766 96.5993652,13.7509766 Z M105.175293,12.5776367 C105.487306,12.5776367 105.744384,12.5996092 105.946533,12.6435547 L105.794922,14.0871582 C105.575194,14.0344236 105.346681,14.0080566 105.109375,14.0080566 C104.489743,14.0080566 103.987673,14.2102031 103.603149,14.614502 C103.218626,15.0188008 103.026367,15.5439421 103.026367,16.1899414 L103.026367,20 L101.477295,20 L101.477295,12.7094727 L102.690186,12.7094727 L102.894531,13.994873 L102.973633,13.994873 C103.215333,13.5598123 103.530638,13.214845 103.919556,12.9599609 C104.308474,12.7050769 104.727049,12.5776367 105.175293,12.5776367 Z M118.998291,20 L117.066895,20 L112.327393,12.3205566 L112.274658,12.3205566 L112.307617,12.7490234 C112.369141,13.5664103 112.399902,14.3134732 112.399902,14.9902344 L112.399902,20 L110.969482,20 L110.969482,10.362793 L112.881104,10.362793 L117.607422,18.0026855 L117.646973,18.0026855 C117.638184,17.9016108 117.620606,17.5335725 117.594238,16.8985596 C117.567871,16.2635466 117.554688,15.7680682 117.554688,15.4121094 L117.554688,10.362793 L118.998291,10.362793 L118.998291,20 Z M124.561768,20.1318359 C123.427973,20.1318359 122.541385,19.8011508 121.901978,19.1397705 C121.26257,18.4783902 120.942871,17.5676328 120.942871,16.4074707 C120.942871,15.2165468 121.239499,14.280521 121.832764,13.5993652 C122.426028,12.9182095 123.241206,12.5776367 124.27832,12.5776367 C125.240727,12.5776367 126.000974,12.8698701 126.559082,13.4543457 C127.11719,14.0388213 127.39624,14.8430125 127.39624,15.8669434 L127.39624,16.7041016 L122.538086,16.7041016 C122.560059,17.4116246 122.751219,17.9554424 123.111572,18.3355713 C123.471926,18.7157001 123.979489,18.9057617 124.634277,18.9057617 C125.064944,18.9057617 125.465941,18.8651127 125.83728,18.7838135 C126.20862,18.7025142 126.60742,18.5673838 127.033691,18.378418 L127.033691,19.6374512 C126.65576,19.8176279 126.273439,19.945068 125.886719,20.0197754 C125.499998,20.0944828 125.058352,20.1318359 124.561768,20.1318359 Z M124.27832,13.7509766 C123.78613,13.7509766 123.391725,13.9069809 123.095093,14.2189941 C122.79846,14.5310074 122.621582,14.9858369 122.564453,15.5834961 L125.873535,15.5834961 C125.864746,14.9814423 125.719728,14.5255142 125.438477,14.2156982 C125.157225,13.9058822 124.77051,13.7509766 124.27832,13.7509766 Z M132.340088,20.1318359 C131.206293,20.1318359 130.319705,19.8011508 129.680298,19.1397705 C129.04089,18.4783902 128.721191,17.5676328 128.721191,16.4074707 C128.721191,15.2165468 129.017819,14.280521 129.611084,13.5993652 C130.204349,12.9182095 131.019526,12.5776367 132.056641,12.5776367 C133.019048,12.5776367 133.779294,12.8698701 134.337402,13.4543457 C134.895511,14.0388213 135.174561,14.8430125 135.174561,15.8669434 L135.174561,16.7041016 L130.316406,16.7041016 C130.338379,17.4116246 130.529539,17.9554424 130.889893,18.3355713 C131.250246,18.7157001 131.757809,18.9057617 132.412598,18.9057617 C132.843264,18.9057617 133.244261,18.8651127 133.615601,18.7838135 C133.98694,18.7025142 134.38574,18.5673838 134.812012,18.378418 L134.812012,19.6374512 C134.43408,19.8176279 134.05176,19.945068 133.665039,20.0197754 C133.278318,20.0944828 132.836672,20.1318359 132.340088,20.1318359 Z M132.056641,13.7509766 C131.564451,13.7509766 131.170045,13.9069809 130.873413,14.2189941 C130.576781,14.5310074 130.399903,14.9858369 130.342773,15.5834961 L133.651855,15.5834961 C133.643066,14.9814423 133.498048,14.5255142 133.216797,14.2156982 C132.935545,13.9058822 132.548831,13.7509766 132.056641,13.7509766 Z M139.393311,20.1318359 C138.483638,20.1318359 137.773928,19.8022494 137.26416,19.1430664 C136.754392,18.4838834 136.499512,17.5588438 136.499512,16.3679199 C136.499512,15.1726014 136.757688,14.2420688 137.274048,13.5762939 C137.790408,12.9105191 138.505611,12.5776367 139.419678,12.5776367 C140.37769,12.5776367 141.107175,12.9313929 141.608154,13.638916 L141.687256,13.638916 C141.612548,13.1159642 141.575195,12.7028824 141.575195,12.3996582 L141.575195,9.74316406 L143.130859,9.74316406 L143.130859,20 L141.917969,20 L141.647705,19.0441895 L141.575195,19.0441895 C141.078611,19.7692907 140.351323,20.1318359 139.393311,20.1318359 Z M139.808594,18.8793945 C140.445804,18.8793945 140.909422,18.7003192 141.199463,18.3421631 C141.489503,17.984007 141.638916,17.4028361 141.647705,16.5986328 L141.647705,16.3811035 C141.647705,15.4626419 141.498293,14.8100605 141.199463,14.4233398 C140.900633,14.0366192 140.43262,13.8432617 139.79541,13.8432617 C139.250486,13.8432617 138.830812,14.0640847 138.536377,14.5057373 C138.241942,14.9473899 138.094727,15.5769002 138.094727,16.3942871 C138.094727,17.2028849 138.237547,17.8192117 138.523193,18.2432861 C138.808839,18.6673605 139.237302,18.8793945 139.808594,18.8793945 Z M151.60791,13.9816895 C152.579106,13.9816895 153.348142,14.238767 153.915039,14.7529297 C154.481936,15.2670924 154.765381,15.9680131 154.765381,16.8557129 C154.765381,17.8840383 154.443485,18.6871309 153.799683,19.2650146 C153.155881,19.8428984 152.240729,20.1318359 151.054199,20.1318359 C149.977534,20.1318359 149.131595,19.9582537 148.516357,19.611084 L148.516357,18.2070312 C148.872316,18.4091807 149.281004,18.565185 149.742432,18.6750488 C150.20386,18.7849127 150.632322,18.8398438 151.027832,18.8398438 C151.726566,18.8398438 152.258299,18.6838395 152.623047,18.3718262 C152.987795,18.0598129 153.170166,17.6027862 153.170166,17.0007324 C153.170166,15.8493595 152.436287,15.2736816 150.968506,15.2736816 C150.761962,15.2736816 150.507082,15.2945555 150.203857,15.3363037 C149.900633,15.378052 149.634767,15.4252927 149.40625,15.4780273 L148.714111,15.0693359 L149.083252,10.362793 L154.093018,10.362793 L154.093018,11.7404785 L150.447754,11.7404785 L150.230225,14.126709 C150.384034,14.1003417 150.571898,14.0695803 150.793823,14.0344238 C151.015748,13.9992674 151.287108,13.9816895 151.60791,13.9816895 Z" id="UserNeed5" fill="#032A2F" fill-rule="nonzero"></path>
                    <path d="M77.3249512,47 L77.3249512,37.362793 L78.4455566,37.362793 L78.4455566,47 L77.3249512,47 Z M90.3305664,47 L89.0056152,42.7614746 C88.9221187,42.502196 88.7661144,41.9133347 88.5375977,40.994873 L88.4848633,40.994873 C88.3090812,41.7639199 88.1552741,42.3571756 88.0234375,42.7746582 L86.6589355,47 L85.3933105,47 L83.4223633,39.7753906 L84.5693359,39.7753906 C85.0351586,41.5903411 85.3900134,42.9724074 85.6339111,43.9216309 C85.8778088,44.8708544 86.0173338,45.5102523 86.0524902,45.8398438 L86.1052246,45.8398438 C86.1535647,45.5893542 86.2315668,45.2652608 86.3392334,44.8675537 C86.4469,44.4698466 86.5402828,44.1545422 86.6193848,43.9216309 L87.9443359,39.7753906 L89.1308594,39.7753906 L90.4228516,43.9216309 C90.6689465,44.677494 90.8359371,45.3124974 90.9238281,45.8266602 L90.9765625,45.8266602 C90.9941407,45.6684562 91.0413815,45.4245622 91.1182861,45.0949707 C91.1951908,44.7653792 91.6533161,42.9922036 92.4926758,39.7753906 L93.6264648,39.7753906 L91.6291504,47 L90.3305664,47 Z M99.3745117,47 L99.1569824,45.9716797 L99.104248,45.9716797 C98.7438947,46.4243187 98.3846453,46.7308342 98.0264893,46.8912354 C97.6683332,47.0516365 97.2211941,47.1318359 96.6850586,47.1318359 C95.9687464,47.1318359 95.4073507,46.9472675 95.0008545,46.578125 C94.5943583,46.2089825 94.3911133,45.6838413 94.3911133,45.0026855 C94.3911133,43.5436939 95.5578497,42.7790531 97.8913574,42.7087402 L99.1174316,42.6691895 L99.1174316,42.2209473 C99.1174316,41.6540499 98.9954846,41.235475 98.7515869,40.96521 C98.5076892,40.6949449 98.1176785,40.5598145 97.581543,40.5598145 C96.9794892,40.5598145 96.2983436,40.7443829 95.5380859,41.1135254 L95.2019043,40.2763672 C95.5578631,40.0830068 95.9478739,39.931397 96.3719482,39.8215332 C96.7960226,39.7116694 97.2211893,39.6567383 97.6474609,39.6567383 C98.5087934,39.6567383 99.1470927,39.8478985 99.5623779,40.2302246 C99.9776632,40.6125507 100.185303,41.2255817 100.185303,42.0693359 L100.185303,47 L99.3745117,47 Z M96.9025879,46.2287598 C97.5837436,46.2287598 98.1187725,46.0419941 98.5076904,45.668457 C98.8966084,45.29492 99.0910645,44.771976 99.0910645,44.0996094 L99.0910645,43.4470215 L97.9968262,43.4931641 C97.1267046,43.5239259 96.4993916,43.6590564 96.1148682,43.8985596 C95.7303448,44.1380627 95.5380859,44.5104955 95.5380859,45.0158691 C95.5380859,45.4113789 95.6578357,45.7124013 95.8973389,45.9189453 C96.136842,46.1254893 96.4719217,46.2287598 96.9025879,46.2287598 Z M107.383545,47 L107.383545,42.326416 C107.383545,41.7375459 107.249513,41.2980972 106.981445,41.0080566 C106.713378,40.7180161 106.293704,40.572998 105.722412,40.572998 C104.966549,40.572998 104.412844,40.7773417 104.061279,41.1860352 C103.709715,41.5947286 103.533936,42.2692824 103.533936,43.2097168 L103.533936,47 L102.439697,47 L102.439697,39.7753906 L103.32959,39.7753906 L103.507568,40.7641602 L103.560303,40.7641602 C103.784425,40.4082013 104.098631,40.1324473 104.50293,39.9368896 C104.907229,39.741332 105.357664,39.6435547 105.854248,39.6435547 C106.72437,39.6435547 107.379148,39.8533915 107.818604,40.2730713 C108.258059,40.6927511 108.477783,41.3640091 108.477783,42.2868652 L108.477783,47 L107.383545,47 Z M113.059082,46.2287598 C113.252442,46.2287598 113.439208,46.2144777 113.619385,46.1859131 C113.799561,46.1573485 113.942382,46.1276857 114.047852,46.0969238 L114.047852,46.934082 C113.929199,46.9912112 113.754518,47.038452 113.523804,47.0758057 C113.29309,47.1131594 113.08545,47.1318359 112.900879,47.1318359 C111.503411,47.1318359 110.804688,46.3957593 110.804688,44.923584 L110.804688,40.6257324 L109.769775,40.6257324 L109.769775,40.0983887 L110.804688,39.6435547 L111.266113,38.1010742 L111.898926,38.1010742 L111.898926,39.7753906 L113.995117,39.7753906 L113.995117,40.6257324 L111.898926,40.6257324 L111.898926,44.8774414 C111.898926,45.3125022 112.002196,45.6464832 112.20874,45.8793945 C112.415284,46.1123059 112.698729,46.2287598 113.059082,46.2287598 Z M121.331787,46.2287598 C121.525147,46.2287598 121.711913,46.2144777 121.89209,46.1859131 C122.072267,46.1573485 122.215087,46.1276857 122.320557,46.0969238 L122.320557,46.934082 C122.201904,46.9912112 122.027223,47.038452 121.796509,47.0758057 C121.565795,47.1131594 121.358155,47.1318359 121.173584,47.1318359 C119.776116,47.1318359 119.077393,46.3957593 119.077393,44.923584 L119.077393,40.6257324 L118.04248,40.6257324 L118.04248,40.0983887 L119.077393,39.6435547 L119.538818,38.1010742 L120.171631,38.1010742 L120.171631,39.7753906 L122.267822,39.7753906 L122.267822,40.6257324 L120.171631,40.6257324 L120.171631,44.8774414 C120.171631,45.3125022 120.274901,45.6464832 120.481445,45.8793945 C120.687989,46.1123059 120.971434,46.2287598 121.331787,46.2287598 Z M130,43.3811035 C130,44.5588438 129.703372,45.4783902 129.110107,46.1397705 C128.516843,46.8011508 127.697271,47.1318359 126.651367,47.1318359 C126.005368,47.1318359 125.431887,46.9802261 124.930908,46.677002 C124.429929,46.3737778 124.043214,45.9387235 123.770752,45.3718262 C123.49829,44.8049288 123.362061,44.1413612 123.362061,43.3811035 C123.362061,42.2033633 123.656491,41.286014 124.245361,40.6290283 C124.834231,39.9720426 125.651606,39.6435547 126.69751,39.6435547 C127.708257,39.6435547 128.51135,39.979733 129.106812,40.6520996 C129.702273,41.3244663 130,42.2341251 130,43.3811035 Z M124.49585,43.3811035 C124.49585,44.3039597 124.680418,45.0070777 125.049561,45.4904785 C125.418703,45.9738794 125.961422,46.2155762 126.677734,46.2155762 C127.394047,46.2155762 127.937864,45.974978 128.309204,45.4937744 C128.680544,45.0125708 128.866211,44.3083542 128.866211,43.3811035 C128.866211,42.4626419 128.680544,41.765017 128.309204,41.288208 C127.937864,40.811399 127.389652,40.572998 126.664551,40.572998 C125.948239,40.572998 125.407717,40.8081031 125.042969,41.2783203 C124.678221,41.7485375 124.49585,42.4494582 124.49585,43.3811035 Z M138.786865,39.6567383 C139.736089,39.6567383 140.473264,39.9808317 140.998413,40.6290283 C141.523562,41.2772249 141.786133,42.1945741 141.786133,43.3811035 C141.786133,44.5676329 141.521365,45.4893766 140.991821,46.1463623 C140.462278,46.803348 139.7273,47.1318359 138.786865,47.1318359 C138.316648,47.1318359 137.887087,47.0450448 137.498169,46.87146 C137.109251,46.6978751 136.78296,46.43091 136.519287,46.0705566 L136.440186,46.0705566 L136.209473,47 L135.425049,47 L135.425049,36.7431641 L136.519287,36.7431641 L136.519287,39.2348633 C136.519287,39.7929715 136.501709,40.2939431 136.466553,40.737793 L136.519287,40.737793 C137.029055,40.0170862 137.784907,39.6567383 138.786865,39.6567383 Z M138.628662,40.572998 C137.881588,40.572998 137.343263,40.7872293 137.013672,41.2156982 C136.68408,41.6441672 136.519287,42.3659617 136.519287,43.3811035 C136.519287,44.3962453 136.688475,45.1224343 137.026855,45.5596924 C137.365236,45.9969504 137.907955,46.2155762 138.655029,46.2155762 C139.327396,46.2155762 139.828367,45.9705835 140.157959,45.4805908 C140.48755,44.9905981 140.652344,44.2863815 140.652344,43.3679199 C140.652344,42.4274855 140.48755,41.7265648 140.157959,41.2651367 C139.828367,40.8037086 139.318607,40.572998 138.628662,40.572998 Z M146.749756,47.1318359 C145.681879,47.1318359 144.839236,46.8066439 144.221802,46.15625 C143.604367,45.5058561 143.295654,44.602789 143.295654,43.4470215 C143.295654,42.2824649 143.582395,41.3574253 144.155884,40.671875 C144.729373,39.9863247 145.499507,39.6435547 146.466309,39.6435547 C147.371587,39.6435547 148.087888,39.9412812 148.615234,40.5367432 C149.142581,41.1322051 149.40625,41.9177197 149.40625,42.8933105 L149.40625,43.5854492 L144.429443,43.5854492 C144.451416,44.433598 144.665647,45.0773904 145.072144,45.5168457 C145.47864,45.956301 146.051022,46.1760254 146.789307,46.1760254 C147.567143,46.1760254 148.336178,46.0134294 149.096436,45.6882324 L149.096436,46.6638184 C148.709715,46.8308114 148.343874,46.9505612 147.998901,47.0230713 C147.653929,47.0955814 147.237551,47.1318359 146.749756,47.1318359 Z M146.453125,40.5598145 C145.873044,40.5598145 145.410524,40.7487774 145.065552,41.126709 C144.720579,41.5046406 144.517334,42.0275846 144.455811,42.6955566 L148.23291,42.6955566 C148.23291,42.0056118 148.079103,41.4771747 147.771484,41.1102295 C147.463866,40.7432843 147.024417,40.5598145 146.453125,40.5598145 Z M159.221436,47 L159.003906,45.9716797 L158.951172,45.9716797 C158.590819,46.4243187 158.231569,46.7308342 157.873413,46.8912354 C157.515257,47.0516365 157.068118,47.1318359 156.531982,47.1318359 C155.81567,47.1318359 155.254274,46.9472675 154.847778,46.578125 C154.441282,46.2089825 154.238037,45.6838413 154.238037,45.0026855 C154.238037,43.5436939 155.404773,42.7790531 157.738281,42.7087402 L158.964355,42.6691895 L158.964355,42.2209473 C158.964355,41.6540499 158.842408,41.235475 158.598511,40.96521 C158.354613,40.6949449 157.964602,40.5598145 157.428467,40.5598145 C156.826413,40.5598145 156.145267,40.7443829 155.38501,41.1135254 L155.048828,40.2763672 C155.404787,40.0830068 155.794798,39.931397 156.218872,39.8215332 C156.642946,39.7116694 157.068113,39.6567383 157.494385,39.6567383 C158.355717,39.6567383 158.994016,39.8478985 159.409302,40.2302246 C159.824587,40.6125507 160.032227,41.2255817 160.032227,42.0693359 L160.032227,47 L159.221436,47 Z M156.749512,46.2287598 C157.430667,46.2287598 157.965696,46.0419941 158.354614,45.668457 C158.743532,45.29492 158.937988,44.771976 158.937988,44.0996094 L158.937988,43.4470215 L157.84375,43.4931641 C156.973628,43.5239259 156.346315,43.6590564 155.961792,43.8985596 C155.577269,44.1380627 155.38501,44.5104955 155.38501,45.0158691 C155.38501,45.4113789 155.50476,45.7124013 155.744263,45.9189453 C155.983766,46.1254893 156.318846,46.2287598 156.749512,46.2287598 Z M165.648438,39.6567383 C166.597661,39.6567383 167.334836,39.9808317 167.859985,40.6290283 C168.385134,41.2772249 168.647705,42.1945741 168.647705,43.3811035 C168.647705,44.5676329 168.382937,45.4893766 167.853394,46.1463623 C167.32385,46.803348 166.588872,47.1318359 165.648438,47.1318359 C165.17822,47.1318359 164.748659,47.0450448 164.359741,46.87146 C163.970823,46.6978751 163.644533,46.43091 163.380859,46.0705566 L163.301758,46.0705566 L163.071045,47 L162.286621,47 L162.286621,36.7431641 L163.380859,36.7431641 L163.380859,39.2348633 C163.380859,39.7929715 163.363281,40.2939431 163.328125,40.737793 L163.380859,40.737793 C163.890628,40.0170862 164.646479,39.6567383 165.648438,39.6567383 Z M165.490234,40.572998 C164.74316,40.572998 164.204836,40.7872293 163.875244,41.2156982 C163.545653,41.6441672 163.380859,42.3659617 163.380859,43.3811035 C163.380859,44.3962453 163.550047,45.1224343 163.888428,45.5596924 C164.226808,45.9969504 164.769528,46.2155762 165.516602,46.2155762 C166.188968,46.2155762 166.68994,45.9705835 167.019531,45.4805908 C167.349123,44.9905981 167.513916,44.2863815 167.513916,43.3679199 C167.513916,42.4274855 167.349123,41.7265648 167.019531,41.2651367 C166.68994,40.8037086 166.180179,40.572998 165.490234,40.572998 Z M171.653564,47 L170.559326,47 L170.559326,36.7431641 L171.653564,36.7431641 L171.653564,47 Z M177.025879,47.1318359 C175.958002,47.1318359 175.11536,46.8066439 174.497925,46.15625 C173.88049,45.5058561 173.571777,44.602789 173.571777,43.4470215 C173.571777,42.2824649 173.858518,41.3574253 174.432007,40.671875 C175.005496,39.9863247 175.77563,39.6435547 176.742432,39.6435547 C177.64771,39.6435547 178.364011,39.9412812 178.891357,40.5367432 C179.418704,41.1322051 179.682373,41.9177197 179.682373,42.8933105 L179.682373,43.5854492 L174.705566,43.5854492 C174.727539,44.433598 174.94177,45.0773904 175.348267,45.5168457 C175.754763,45.956301 176.327145,46.1760254 177.06543,46.1760254 C177.843266,46.1760254 178.612301,46.0134294 179.372559,45.6882324 L179.372559,46.6638184 C178.985838,46.8308114 178.619997,46.9505612 178.275024,47.0230713 C177.930052,47.0955814 177.513674,47.1318359 177.025879,47.1318359 Z M176.729248,40.5598145 C176.149167,40.5598145 175.686647,40.7487774 175.341675,41.126709 C174.996702,41.5046406 174.793457,42.0275846 174.731934,42.6955566 L178.509033,42.6955566 C178.509033,42.0056118 178.355226,41.4771747 178.047607,41.1102295 C177.739989,40.7432843 177.30054,40.5598145 176.729248,40.5598145 Z M187.388184,46.2287598 C187.581544,46.2287598 187.76831,46.2144777 187.948486,46.1859131 C188.128663,46.1573485 188.271484,46.1276857 188.376953,46.0969238 L188.376953,46.934082 C188.2583,46.9912112 188.083619,47.038452 187.852905,47.0758057 C187.622191,47.1131594 187.414552,47.1318359 187.22998,47.1318359 C185.832513,47.1318359 185.133789,46.3957593 185.133789,44.923584 L185.133789,40.6257324 L184.098877,40.6257324 L184.098877,40.0983887 L185.133789,39.6435547 L185.595215,38.1010742 L186.228027,38.1010742 L186.228027,39.7753906 L188.324219,39.7753906 L188.324219,40.6257324 L186.228027,40.6257324 L186.228027,44.8774414 C186.228027,45.3125022 186.331298,45.6464832 186.537842,45.8793945 C186.744386,46.1123059 187.02783,46.2287598 187.388184,46.2287598 Z M196.056396,43.3811035 C196.056396,44.5588438 195.759769,45.4783902 195.166504,46.1397705 C194.573239,46.8011508 193.753667,47.1318359 192.707764,47.1318359 C192.061764,47.1318359 191.488284,46.9802261 190.987305,46.677002 C190.486326,46.3737778 190.099611,45.9387235 189.827148,45.3718262 C189.554686,44.8049288 189.418457,44.1413612 189.418457,43.3811035 C189.418457,42.2033633 189.712888,41.286014 190.301758,40.6290283 C190.890628,39.9720426 191.708003,39.6435547 192.753906,39.6435547 C193.764653,39.6435547 194.567746,39.979733 195.163208,40.6520996 C195.75867,41.3244663 196.056396,42.2341251 196.056396,43.3811035 Z M190.552246,43.3811035 C190.552246,44.3039597 190.736815,45.0070777 191.105957,45.4904785 C191.4751,45.9738794 192.017819,46.2155762 192.734131,46.2155762 C193.450443,46.2155762 193.994261,45.974978 194.365601,45.4937744 C194.73694,45.0125708 194.922607,44.3083542 194.922607,43.3811035 C194.922607,42.4626419 194.73694,41.765017 194.365601,41.288208 C193.994261,40.811399 193.446049,40.572998 192.720947,40.572998 C192.004635,40.572998 191.464113,40.8081031 191.099365,41.2783203 C190.734617,41.7485375 190.552246,42.4494582 190.552246,43.3811035 Z M204.368652,47.1318359 C203.322749,47.1318359 202.513064,46.8099397 201.939575,46.1661377 C201.366086,45.5223356 201.079346,44.6115782 201.079346,43.4338379 C201.079346,42.2253358 201.37048,41.2915072 201.952759,40.6323242 C202.535037,39.9731412 203.364497,39.6435547 204.441162,39.6435547 C204.788332,39.6435547 205.135496,39.6809078 205.482666,39.7556152 C205.829836,39.8303226 206.102294,39.9182124 206.300049,40.0192871 L205.963867,40.9487305 C205.722167,40.8520503 205.458498,40.7718509 205.172852,40.7081299 C204.887206,40.6444089 204.634523,40.6125488 204.414795,40.6125488 C202.947014,40.6125488 202.213135,41.5485746 202.213135,43.4206543 C202.213135,44.308354 202.39221,44.9894996 202.750366,45.4641113 C203.108522,45.9387231 203.639157,46.1760254 204.342285,46.1760254 C204.944339,46.1760254 205.561764,46.046388 206.19458,45.7871094 L206.19458,46.7561035 C205.711179,47.006593 205.102543,47.1318359 204.368652,47.1318359 Z M214.144287,43.3811035 C214.144287,44.5588438 213.847659,45.4783902 213.254395,46.1397705 C212.66113,46.8011508 211.841558,47.1318359 210.795654,47.1318359 C210.149655,47.1318359 209.576174,46.9802261 209.075195,46.677002 C208.574216,46.3737778 208.187501,45.9387235 207.915039,45.3718262 C207.642577,44.8049288 207.506348,44.1413612 207.506348,43.3811035 C207.506348,42.2033633 207.800778,41.286014 208.389648,40.6290283 C208.978519,39.9720426 209.795893,39.6435547 210.841797,39.6435547 C211.852544,39.6435547 212.655637,39.979733 213.251099,40.6520996 C213.846561,41.3244663 214.144287,42.2341251 214.144287,43.3811035 Z M208.640137,43.3811035 C208.640137,44.3039597 208.824705,45.0070777 209.193848,45.4904785 C209.56299,45.9738794 210.105709,46.2155762 210.822021,46.2155762 C211.538334,46.2155762 212.082151,45.974978 212.453491,45.4937744 C212.824831,45.0125708 213.010498,44.3083542 213.010498,43.3811035 C213.010498,42.4626419 212.824831,41.765017 212.453491,41.288208 C212.082151,40.811399 211.533939,40.572998 210.808838,40.572998 C210.092526,40.572998 209.552004,40.8081031 209.187256,41.2783203 C208.822508,41.7485375 208.640137,42.4494582 208.640137,43.3811035 Z M221.006348,47 L221.006348,42.326416 C221.006348,41.7375459 220.872316,41.2980972 220.604248,41.0080566 C220.33618,40.7180161 219.916507,40.572998 219.345215,40.572998 C218.589352,40.572998 218.035646,40.7773417 217.684082,41.1860352 C217.332518,41.5947286 217.156738,42.2692824 217.156738,43.2097168 L217.156738,47 L216.0625,47 L216.0625,39.7753906 L216.952393,39.7753906 L217.130371,40.7641602 L217.183105,40.7641602 C217.407228,40.4082013 217.721434,40.1324473 218.125732,39.9368896 C218.530031,39.741332 218.980466,39.6435547 219.477051,39.6435547 C220.347172,39.6435547 221.001951,39.8533915 221.441406,40.2730713 C221.880862,40.6927511 222.100586,41.3640091 222.100586,42.2868652 L222.100586,47 L221.006348,47 Z M226.681885,46.2287598 C226.875245,46.2287598 227.062011,46.2144777 227.242188,46.1859131 C227.422364,46.1573485 227.565185,46.1276857 227.670654,46.0969238 L227.670654,46.934082 C227.552001,46.9912112 227.37732,47.038452 227.146606,47.0758057 C226.915892,47.1131594 226.708253,47.1318359 226.523682,47.1318359 C225.126214,47.1318359 224.42749,46.3957593 224.42749,44.923584 L224.42749,40.6257324 L223.392578,40.6257324 L223.392578,40.0983887 L224.42749,39.6435547 L224.888916,38.1010742 L225.521729,38.1010742 L225.521729,39.7753906 L227.61792,39.7753906 L227.61792,40.6257324 L225.521729,40.6257324 L225.521729,44.8774414 C225.521729,45.3125022 225.624999,45.6464832 225.831543,45.8793945 C226.038087,46.1123059 226.321531,46.2287598 226.681885,46.2287598 Z M232.410156,39.6435547 C232.730959,39.6435547 233.018798,39.6699216 233.273682,39.7226562 L233.12207,40.737793 C232.823241,40.6718747 232.559571,40.638916 232.331055,40.638916 C231.746579,40.638916 231.246706,40.8762183 230.831421,41.3508301 C230.416136,41.8254418 230.208496,42.4165004 230.208496,43.1240234 L230.208496,47 L229.114258,47 L229.114258,39.7753906 L230.017334,39.7753906 L230.142578,41.1135254 L230.195312,41.1135254 C230.46338,40.6433082 230.786375,40.280763 231.164307,40.0258789 C231.542238,39.7709948 231.957517,39.6435547 232.410156,39.6435547 Z M240.590576,43.3811035 C240.590576,44.5588438 240.293948,45.4783902 239.700684,46.1397705 C239.107419,46.8011508 238.287847,47.1318359 237.241943,47.1318359 C236.595944,47.1318359 236.022463,46.9802261 235.521484,46.677002 C235.020505,46.3737778 234.63379,45.9387235 234.361328,45.3718262 C234.088866,44.8049288 233.952637,44.1413612 233.952637,43.3811035 C233.952637,42.2033633 234.247067,41.286014 234.835938,40.6290283 C235.424808,39.9720426 236.242182,39.6435547 237.288086,39.6435547 C238.298833,39.6435547 239.101926,39.979733 239.697388,40.6520996 C240.29285,41.3244663 240.590576,42.2341251 240.590576,43.3811035 Z M235.086426,43.3811035 C235.086426,44.3039597 235.270994,45.0070777 235.640137,45.4904785 C236.009279,45.9738794 236.551998,46.2155762 237.268311,46.2155762 C237.984623,46.2155762 238.528441,45.974978 238.89978,45.4937744 C239.27112,45.0125708 239.456787,44.3083542 239.456787,43.3811035 C239.456787,42.4626419 239.27112,41.765017 238.89978,41.288208 C238.528441,40.811399 237.980228,40.572998 237.255127,40.572998 C236.538815,40.572998 235.998293,40.8081031 235.633545,41.2783203 C235.268797,41.7485375 235.086426,42.4494582 235.086426,43.3811035 Z M243.603027,47 L242.508789,47 L242.508789,36.7431641 L243.603027,36.7431641 L243.603027,47 Z M254.374023,47 L254.374023,42.326416 C254.374023,41.7375459 254.239992,41.2980972 253.971924,41.0080566 C253.703856,40.7180161 253.284183,40.572998 252.712891,40.572998 C251.952633,40.572998 251.397829,40.779539 251.048462,41.192627 C250.699095,41.605715 250.524414,42.282466 250.524414,43.2229004 L250.524414,47 L249.430176,47 L249.430176,36.7431641 L250.524414,36.7431641 L250.524414,39.8479004 C250.524414,40.2214374 250.506836,40.5312488 250.47168,40.7773438 L250.537598,40.7773438 C250.752931,40.430174 251.059446,40.1566172 251.457153,39.956665 C251.85486,39.7567129 252.308591,39.6567383 252.818359,39.6567383 C253.701665,39.6567383 254.364134,39.8665751 254.805786,40.2862549 C255.247439,40.7059347 255.468262,41.3727982 255.468262,42.2868652 L255.468262,47 L254.374023,47 Z M263.951904,43.3811035 C263.951904,44.5588438 263.655276,45.4783902 263.062012,46.1397705 C262.468747,46.8011508 261.649175,47.1318359 260.603271,47.1318359 C259.957272,47.1318359 259.383792,46.9802261 258.882812,46.677002 C258.381833,46.3737778 257.995119,45.9387235 257.722656,45.3718262 C257.450194,44.8049288 257.313965,44.1413612 257.313965,43.3811035 C257.313965,42.2033633 257.608395,41.286014 258.197266,40.6290283 C258.786136,39.9720426 259.60351,39.6435547 260.649414,39.6435547 C261.660161,39.6435547 262.463254,39.979733 263.058716,40.6520996 C263.654178,41.3244663 263.951904,42.2341251 263.951904,43.3811035 Z M258.447754,43.3811035 C258.447754,44.3039597 258.632322,45.0070777 259.001465,45.4904785 C259.370607,45.9738794 259.913326,46.2155762 260.629639,46.2155762 C261.345951,46.2155762 261.889769,45.974978 262.261108,45.4937744 C262.632448,45.0125708 262.818115,44.3083542 262.818115,43.3811035 C262.818115,42.4626419 262.632448,41.765017 262.261108,41.288208 C261.889769,40.811399 261.341556,40.572998 260.616455,40.572998 C259.900143,40.572998 259.359621,40.8081031 258.994873,41.2783203 C258.630125,41.7485375 258.447754,42.4494582 258.447754,43.3811035 Z M271.499512,47 L270.174561,42.7614746 C270.091064,42.502196 269.93506,41.9133347 269.706543,40.994873 L269.653809,40.994873 C269.478026,41.7639199 269.324219,42.3571756 269.192383,42.7746582 L267.827881,47 L266.562256,47 L264.591309,39.7753906 L265.738281,39.7753906 C266.204104,41.5903411 266.558959,42.9724074 266.802856,43.9216309 C267.046754,44.8708544 267.186279,45.5102523 267.221436,45.8398438 L267.27417,45.8398438 C267.32251,45.5893542 267.400512,45.2652608 267.508179,44.8675537 C267.615845,44.4698466 267.709228,44.1545422 267.78833,43.9216309 L269.113281,39.7753906 L270.299805,39.7753906 L271.591797,43.9216309 C271.837892,44.677494 272.004882,45.3124974 272.092773,45.8266602 L272.145508,45.8266602 C272.163086,45.6684562 272.210327,45.4245622 272.287231,45.0949707 C272.364136,44.7653792 272.822261,42.9922036 273.661621,39.7753906 L274.79541,39.7753906 L272.798096,47 L271.499512,47 Z M86.3688965,65 L86.3688965,60.3000488 C86.3688965,59.7243624 86.2458508,59.292604 85.9997559,59.0047607 C85.7536609,58.7169175 85.3713405,58.572998 84.8527832,58.572998 C84.1716275,58.572998 83.6684587,58.7685527 83.3432617,59.159668 C83.0180648,59.5507832 82.8554688,60.152828 82.8554688,60.9658203 L82.8554688,65 L81.7612305,65 L81.7612305,60.3000488 C81.7612305,59.7243624 81.6381848,59.292604 81.3920898,59.0047607 C81.1459949,58.7169175 80.7614772,58.572998 80.2385254,58.572998 C79.5529751,58.572998 79.0509049,58.7784403 78.7322998,59.1893311 C78.4136947,59.6002218 78.2543945,60.273677 78.2543945,61.2097168 L78.2543945,65 L77.1601562,65 L77.1601562,57.7753906 L78.0500488,57.7753906 L78.2280273,58.7641602 L78.2807617,58.7641602 C78.4873057,58.4125959 78.7784405,58.1379404 79.1541748,57.9401855 C79.5299091,57.7424307 79.9506813,57.6435547 80.4165039,57.6435547 C81.5459041,57.6435547 82.284178,58.052242 82.6313477,58.8696289 L82.684082,58.8696289 C82.8994151,58.4916973 83.2114237,58.1928722 83.6201172,57.9731445 C84.0288106,57.7534169 84.4946263,57.6435547 85.0175781,57.6435547 C85.834965,57.6435547 86.4468974,57.8533915 86.8533936,58.2730713 C87.2598897,58.6927511 87.4631348,59.3640091 87.4631348,60.2868652 L87.4631348,65 L86.3688965,65 Z M90.7458496,57.7753906 L90.7458496,62.4621582 C90.7458496,63.0510283 90.8798815,63.4904771 91.1479492,63.7805176 C91.416017,64.0705581 91.8356905,64.2155762 92.4069824,64.2155762 C93.1628456,64.2155762 93.7154524,64.0090353 94.0648193,63.5959473 C94.4141863,63.1828593 94.5888672,62.5083055 94.5888672,61.5722656 L94.5888672,57.7753906 L95.6831055,57.7753906 L95.6831055,65 L94.7800293,65 L94.6218262,64.0310059 L94.5625,64.0310059 C94.3383778,64.3869647 94.0274678,64.6594229 93.6297607,64.8483887 C93.2320537,65.0373545 92.7783229,65.1318359 92.2685547,65.1318359 C91.389644,65.1318359 90.7315696,64.9230978 90.2943115,64.5056152 C89.8570535,64.0881327 89.6384277,63.4201706 89.6384277,62.501709 L89.6384277,57.7753906 L90.7458496,57.7753906 Z M100.890625,65.1318359 C99.8447213,65.1318359 99.035037,64.8099397 98.4615479,64.1661377 C97.8880587,63.5223356 97.6013184,62.6115782 97.6013184,61.4338379 C97.6013184,60.2253358 97.8924531,59.2915072 98.4747314,58.6323242 C99.0570097,57.9731412 99.8864692,57.6435547 100.963135,57.6435547 C101.310304,57.6435547 101.657469,57.6809078 102.004639,57.7556152 C102.351808,57.8303226 102.624267,57.9182124 102.822021,58.0192871 L102.48584,58.9487305 C102.244139,58.8520503 101.98047,58.7718509 101.694824,58.7081299 C101.409178,58.6444089 101.156495,58.6125488 100.936768,58.6125488 C99.4689868,58.6125488 98.7351074,59.5485746 98.7351074,61.4206543 C98.7351074,62.308354 98.9141828,62.9894996 99.2723389,63.4641113 C99.630495,63.9387231 100.161129,64.1760254 100.864258,64.1760254 C101.466312,64.1760254 102.083737,64.046388 102.716553,63.7871094 L102.716553,64.7561035 C102.233152,65.006593 101.624515,65.1318359 100.890625,65.1318359 Z M109.374268,65 L109.374268,60.326416 C109.374268,59.7375459 109.240236,59.2980972 108.972168,59.0080566 C108.7041,58.7180161 108.284427,58.572998 107.713135,58.572998 C106.952877,58.572998 106.398073,58.779539 106.048706,59.192627 C105.699339,59.605715 105.524658,60.282466 105.524658,61.2229004 L105.524658,65 L104.43042,65 L104.43042,54.7431641 L105.524658,54.7431641 L105.524658,57.8479004 C105.524658,58.2214374 105.50708,58.5312488 105.471924,58.7773438 L105.537842,58.7773438 C105.753175,58.430174 106.05969,58.1566172 106.457397,57.956665 C106.855105,57.7567129 107.308835,57.6567383 107.818604,57.6567383 C108.701909,57.6567383 109.364378,57.8665751 109.80603,58.2862549 C110.247683,58.7059347 110.468506,59.3727982 110.468506,60.2868652 L110.468506,65 L109.374268,65 Z M122.122803,65 L120.797852,60.7614746 C120.714355,60.502196 120.558351,59.9133347 120.329834,58.994873 L120.2771,58.994873 C120.101317,59.7639199 119.94751,60.3571756 119.815674,60.7746582 L118.451172,65 L117.185547,65 L115.2146,57.7753906 L116.361572,57.7753906 C116.827395,59.5903411 117.18225,60.9724074 117.426147,61.9216309 C117.670045,62.8708544 117.80957,63.5102523 117.844727,63.8398438 L117.897461,63.8398438 C117.945801,63.5893542 118.023803,63.2652608 118.13147,62.8675537 C118.239136,62.4698466 118.332519,62.1545422 118.411621,61.9216309 L119.736572,57.7753906 L120.923096,57.7753906 L122.215088,61.9216309 C122.461183,62.677494 122.628173,63.3124974 122.716064,63.8266602 L122.768799,63.8266602 C122.786377,63.6684562 122.833618,63.4245622 122.910522,63.0949707 C122.987427,62.7653792 123.445552,60.9922036 124.284912,57.7753906 L125.418701,57.7753906 L123.421387,65 L122.122803,65 Z M131.166748,65 L130.949219,63.9716797 L130.896484,63.9716797 C130.536131,64.4243187 130.176882,64.7308342 129.818726,64.8912354 C129.460569,65.0516365 129.01343,65.1318359 128.477295,65.1318359 C127.760983,65.1318359 127.199587,64.9472675 126.793091,64.578125 C126.386595,64.2089825 126.18335,63.6838413 126.18335,63.0026855 C126.18335,61.5436939 127.350086,60.7790531 129.683594,60.7087402 L130.909668,60.6691895 L130.909668,60.2209473 C130.909668,59.6540499 130.787721,59.235475 130.543823,58.96521 C130.299926,58.6949449 129.909915,58.5598145 129.373779,58.5598145 C128.771726,58.5598145 128.09058,58.7443829 127.330322,59.1135254 L126.994141,58.2763672 C127.350099,58.0830068 127.74011,57.931397 128.164185,57.8215332 C128.588259,57.7116694 129.013426,57.6567383 129.439697,57.6567383 C130.30103,57.6567383 130.939329,57.8478985 131.354614,58.2302246 C131.7699,58.6125507 131.977539,59.2255817 131.977539,60.0693359 L131.977539,65 L131.166748,65 Z M128.694824,64.2287598 C129.37598,64.2287598 129.911009,64.0419941 130.299927,63.668457 C130.688845,63.29492 130.883301,62.771976 130.883301,62.0996094 L130.883301,61.4470215 L129.789062,61.4931641 C128.918941,61.5239259 128.291628,61.6590564 127.907104,61.8985596 C127.522581,62.1380627 127.330322,62.5104955 127.330322,63.0158691 C127.330322,63.4113789 127.450072,63.7124013 127.689575,63.9189453 C127.929078,64.1254893 128.264158,64.2287598 128.694824,64.2287598 Z M136.56543,64.2287598 C136.75879,64.2287598 136.945556,64.2144777 137.125732,64.1859131 C137.305909,64.1573485 137.44873,64.1276857 137.554199,64.0969238 L137.554199,64.934082 C137.435546,64.9912112 137.260865,65.038452 137.030151,65.0758057 C136.799437,65.1131594 136.591798,65.1318359 136.407227,65.1318359 C135.009759,65.1318359 134.311035,64.3957593 134.311035,62.923584 L134.311035,58.6257324 L133.276123,58.6257324 L133.276123,58.0983887 L134.311035,57.6435547 L134.772461,56.1010742 L135.405273,56.1010742 L135.405273,57.7753906 L137.501465,57.7753906 L137.501465,58.6257324 L135.405273,58.6257324 L135.405273,62.8774414 C135.405273,63.3125022 135.508544,63.6464832 135.715088,63.8793945 C135.921632,64.1123059 136.205076,64.2287598 136.56543,64.2287598 Z M142.049805,65.1318359 C140.981928,65.1318359 140.139285,64.8066439 139.521851,64.15625 C138.904416,63.5058561 138.595703,62.602789 138.595703,61.4470215 C138.595703,60.2824649 138.882443,59.3574253 139.455933,58.671875 C140.029422,57.9863247 140.799556,57.6435547 141.766357,57.6435547 C142.671635,57.6435547 143.387937,57.9412812 143.915283,58.5367432 C144.44263,59.1322051 144.706299,59.9177197 144.706299,60.8933105 L144.706299,61.5854492 L139.729492,61.5854492 C139.751465,62.433598 139.965696,63.0773904 140.372192,63.5168457 C140.778689,63.956301 141.351071,64.1760254 142.089355,64.1760254 C142.867191,64.1760254 143.636227,64.0134294 144.396484,63.6882324 L144.396484,64.6638184 C144.009764,64.8308114 143.643923,64.9505612 143.29895,65.0230713 C142.953978,65.0955814 142.5376,65.1318359 142.049805,65.1318359 Z M141.753174,58.5598145 C141.173093,58.5598145 140.710573,58.7487774 140.365601,59.126709 C140.020628,59.5046406 139.817383,60.0275846 139.755859,60.6955566 L143.532959,60.6955566 C143.532959,60.0056118 143.379152,59.4771747 143.071533,59.1102295 C142.763914,58.7432843 142.324466,58.5598145 141.753174,58.5598145 Z M149.867676,57.6435547 C150.188478,57.6435547 150.476317,57.6699216 150.731201,57.7226562 L150.57959,58.737793 C150.28076,58.6718747 150.017091,58.638916 149.788574,58.638916 C149.204099,58.638916 148.704226,58.8762183 148.28894,59.3508301 C147.873655,59.8254418 147.666016,60.4165004 147.666016,61.1240234 L147.666016,65 L146.571777,65 L146.571777,57.7753906 L147.474854,57.7753906 L147.600098,59.1135254 L147.652832,59.1135254 C147.9209,58.6433082 148.243895,58.280763 148.621826,58.0258789 C148.999758,57.7709948 149.415037,57.6435547 149.867676,57.6435547 Z M161.502197,57.7753906 L161.502197,58.4675293 L160.164062,58.6257324 C160.28711,58.7795418 160.396972,58.9805896 160.493652,59.2288818 C160.590333,59.4771741 160.638672,59.7573227 160.638672,60.0693359 C160.638672,60.776859 160.396975,61.3415506 159.913574,61.7634277 C159.430173,62.1853048 158.766606,62.3962402 157.922852,62.3962402 C157.707518,62.3962402 157.505372,62.3786623 157.316406,62.3435059 C156.850584,62.5896008 156.617676,62.8994122 156.617676,63.2729492 C156.617676,63.4707041 156.698974,63.6168208 156.861572,63.7113037 C157.024171,63.8057866 157.303221,63.8530273 157.69873,63.8530273 L158.977539,63.8530273 C159.75977,63.8530273 160.360716,64.0178206 160.780396,64.3474121 C161.200075,64.6770036 161.409912,65.1560027 161.409912,65.7844238 C161.409912,66.5842325 161.089115,67.1939676 160.44751,67.6136475 C159.805905,68.0333273 158.869879,68.2431641 157.639404,68.2431641 C156.694575,68.2431641 155.966189,68.0673846 155.454224,67.7158203 C154.942258,67.3642561 154.686279,66.867679 154.686279,66.2260742 C154.686279,65.7866189 154.826903,65.4064957 155.108154,65.0856934 C155.389406,64.764891 155.78491,64.5473639 156.294678,64.4331055 C156.110106,64.349609 155.955201,64.2199716 155.829956,64.0441895 C155.704711,63.8684073 155.64209,63.6640637 155.64209,63.4311523 C155.64209,63.1674792 155.712402,62.9367686 155.853027,62.7390137 C155.993653,62.5412588 156.215575,62.3500986 156.518799,62.1655273 C156.145262,62.011718 155.840944,61.750246 155.605835,61.3811035 C155.370726,61.011961 155.253174,60.5900903 155.253174,60.1154785 C155.253174,59.3244589 155.490476,58.7147238 155.965088,58.2862549 C156.4397,57.8577859 157.112056,57.6435547 157.982178,57.6435547 C158.360109,57.6435547 158.700682,57.6874996 159.003906,57.7753906 L161.502197,57.7753906 Z M155.740967,66.2128906 C155.740967,66.6040059 155.90576,66.9006338 156.235352,67.1027832 C156.564943,67.3049327 157.03735,67.4060059 157.652588,67.4060059 C158.57105,67.4060059 159.251096,67.2686781 159.692749,66.9940186 C160.134402,66.719359 160.355225,66.3469262 160.355225,65.876709 C160.355225,65.4855937 160.234376,65.2142342 159.992676,65.0626221 C159.750975,64.91101 159.296146,64.8352051 158.628174,64.8352051 L157.316406,64.8352051 C156.819822,64.8352051 156.433107,64.9538562 156.15625,65.1911621 C155.879393,65.428468 155.740967,65.7690407 155.740967,66.2128906 Z M156.334229,60.0891113 C156.334229,60.5944849 156.477049,60.9768053 156.762695,61.236084 C157.048341,61.4953626 157.446042,61.625 157.955811,61.625 C159.023687,61.625 159.557617,61.1064505 159.557617,60.0693359 C159.557617,58.9838813 159.017095,58.4411621 157.936035,58.4411621 C157.421872,58.4411621 157.026369,58.5795885 156.749512,58.8564453 C156.472655,59.1333022 156.334229,59.5441867 156.334229,60.0891113 Z M166.037354,65.1318359 C164.969477,65.1318359 164.126834,64.8066439 163.509399,64.15625 C162.891965,63.5058561 162.583252,62.602789 162.583252,61.4470215 C162.583252,60.2824649 162.869992,59.3574253 163.443481,58.671875 C164.016971,57.9863247 164.787105,57.6435547 165.753906,57.6435547 C166.659184,57.6435547 167.375486,57.9412812 167.902832,58.5367432 C168.430178,59.1322051 168.693848,59.9177197 168.693848,60.8933105 L168.693848,61.5854492 L163.717041,61.5854492 C163.739014,62.433598 163.953245,63.0773904 164.359741,63.5168457 C164.766237,63.956301 165.338619,64.1760254 166.076904,64.1760254 C166.85474,64.1760254 167.623775,64.0134294 168.384033,63.6882324 L168.384033,64.6638184 C167.997313,64.8308114 167.631471,64.9505612 167.286499,65.0230713 C166.941527,65.0955814 166.525149,65.1318359 166.037354,65.1318359 Z M165.740723,58.5598145 C165.160642,58.5598145 164.698122,58.7487774 164.353149,59.126709 C164.008177,59.5046406 163.804932,60.0275846 163.743408,60.6955566 L167.520508,60.6955566 C167.520508,60.0056118 167.366701,59.4771747 167.059082,59.1102295 C166.751463,58.7432843 166.312015,58.5598145 165.740723,58.5598145 Z M172.892822,64.2287598 C173.086183,64.2287598 173.272948,64.2144777 173.453125,64.1859131 C173.633302,64.1573485 173.776123,64.1276857 173.881592,64.0969238 L173.881592,64.934082 C173.762939,64.9912112 173.588258,65.038452 173.357544,65.0758057 C173.12683,65.1131594 172.91919,65.1318359 172.734619,65.1318359 C171.337151,65.1318359 170.638428,64.3957593 170.638428,62.923584 L170.638428,58.6257324 L169.603516,58.6257324 L169.603516,58.0983887 L170.638428,57.6435547 L171.099854,56.1010742 L171.732666,56.1010742 L171.732666,57.7753906 L173.828857,57.7753906 L173.828857,58.6257324 L171.732666,58.6257324 L171.732666,62.8774414 C171.732666,63.3125022 171.835936,63.6464832 172.04248,63.8793945 C172.249024,64.1123059 172.532469,64.2287598 172.892822,64.2287598 Z M179.985596,63.0290527 C179.985596,63.7014194 179.73511,64.2199689 179.234131,64.5847168 C178.733152,64.9494647 178.030034,65.1318359 177.124756,65.1318359 C176.166743,65.1318359 175.41968,64.9802261 174.883545,64.677002 L174.883545,63.6618652 C175.230715,63.8376474 175.603147,63.9760737 176.000854,64.0771484 C176.398562,64.1782232 176.781981,64.2287598 177.151123,64.2287598 C177.722415,64.2287598 178.161864,64.1375742 178.469482,63.9552002 C178.777101,63.7728262 178.930908,63.4948749 178.930908,63.1213379 C178.930908,62.8400865 178.808961,62.5994883 178.565063,62.3995361 C178.321166,62.199584 177.845463,61.9633803 177.137939,61.690918 C176.465573,61.4404284 175.987672,61.2218027 175.704224,61.0350342 C175.420775,60.8482657 175.20984,60.6362317 175.071411,60.3989258 C174.932983,60.1616199 174.86377,59.8781755 174.86377,59.548584 C174.86377,58.9597139 175.103269,58.4949968 175.582275,58.1544189 C176.061282,57.8138411 176.718258,57.6435547 177.553223,57.6435547 C178.331059,57.6435547 179.091305,57.8017562 179.833984,58.1181641 L179.445068,59.0080566 C178.719967,58.709227 178.062991,58.5598145 177.474121,58.5598145 C176.955564,58.5598145 176.564454,58.6411125 176.300781,58.8037109 C176.037108,58.9663094 175.905273,59.1904283 175.905273,59.4760742 C175.905273,59.6694346 175.954711,59.8342278 176.053589,59.970459 C176.152466,60.1066901 176.311766,60.2363275 176.531494,60.359375 C176.751222,60.4824225 177.173093,60.6603992 177.797119,60.8933105 C178.654057,61.2053238 179.233031,61.5195297 179.534058,61.8359375 C179.835085,62.1523453 179.985596,62.5500464 179.985596,63.0290527 Z M188.634033,65.1318359 C188.163816,65.1318359 187.734255,65.0450448 187.345337,64.87146 C186.956419,64.6978751 186.630128,64.43091 186.366455,64.0705566 L186.287354,64.0705566 C186.340088,64.4924338 186.366455,64.8923321 186.366455,65.2702637 L186.366455,68.2431641 L185.272217,68.2431641 L185.272217,57.7753906 L186.162109,57.7753906 L186.313721,58.7641602 L186.366455,58.7641602 C186.647706,58.3686504 186.975096,58.0830087 187.348633,57.9072266 C187.72217,57.7314444 188.150632,57.6435547 188.634033,57.6435547 C189.592046,57.6435547 190.331418,57.970944 190.852173,58.6257324 C191.372927,59.2805209 191.633301,60.1989687 191.633301,61.3811035 C191.633301,62.5676329 191.368533,63.4893766 190.838989,64.1463623 C190.309446,64.803348 189.574468,65.1318359 188.634033,65.1318359 Z M188.47583,58.572998 C187.737545,58.572998 187.203615,58.7773417 186.874023,59.1860352 C186.544432,59.5947286 186.375244,60.2451127 186.366455,61.137207 L186.366455,61.3811035 C186.366455,62.3962453 186.535643,63.1224343 186.874023,63.5596924 C187.212404,63.9969504 187.755123,64.2155762 188.502197,64.2155762 C189.126224,64.2155762 189.615111,63.9628932 189.968872,63.4575195 C190.322634,62.9521459 190.499512,62.2556197 190.499512,61.3679199 C190.499512,60.4670365 190.322634,59.7760034 189.968872,59.2947998 C189.615111,58.8135962 189.117435,58.572998 188.47583,58.572998 Z M194.573242,57.7753906 L194.573242,62.4621582 C194.573242,63.0510283 194.707274,63.4904771 194.975342,63.7805176 C195.24341,64.0705581 195.663083,64.2155762 196.234375,64.2155762 C196.990238,64.2155762 197.542845,64.0090353 197.892212,63.5959473 C198.241579,63.1828593 198.41626,62.5083055 198.41626,61.5722656 L198.41626,57.7753906 L199.510498,57.7753906 L199.510498,65 L198.607422,65 L198.449219,64.0310059 L198.389893,64.0310059 C198.16577,64.3869647 197.85486,64.6594229 197.457153,64.8483887 C197.059446,65.0373545 196.605715,65.1318359 196.095947,65.1318359 C195.217037,65.1318359 194.558962,64.9230978 194.121704,64.5056152 C193.684446,64.0881327 193.46582,63.4201706 193.46582,62.501709 L193.46582,57.7753906 L194.573242,57.7753906 Z M211.039551,65 L211.039551,60.3000488 C211.039551,59.7243624 210.916505,59.292604 210.67041,59.0047607 C210.424315,58.7169175 210.041995,58.572998 209.523438,58.572998 C208.842282,58.572998 208.339113,58.7685527 208.013916,59.159668 C207.688719,59.5507832 207.526123,60.152828 207.526123,60.9658203 L207.526123,65 L206.431885,65 L206.431885,60.3000488 C206.431885,59.7243624 206.308839,59.292604 206.062744,59.0047607 C205.816649,58.7169175 205.432132,58.572998 204.90918,58.572998 C204.223629,58.572998 203.721559,58.7784403 203.402954,59.1893311 C203.084349,59.6002218 202.925049,60.273677 202.925049,61.2097168 L202.925049,65 L201.830811,65 L201.830811,57.7753906 L202.720703,57.7753906 L202.898682,58.7641602 L202.951416,58.7641602 C203.15796,58.4125959 203.449095,58.1379404 203.824829,57.9401855 C204.200563,57.7424307 204.621336,57.6435547 205.087158,57.6435547 C206.216558,57.6435547 206.954832,58.052242 207.302002,58.8696289 L207.354736,58.8696289 C207.570069,58.4916973 207.882078,58.1928722 208.290771,57.9731445 C208.699465,57.7534169 209.165281,57.6435547 209.688232,57.6435547 C210.505619,57.6435547 211.117552,57.8533915 211.524048,58.2730713 C211.930544,58.6927511 212.133789,59.3640091 212.133789,60.2868652 L212.133789,65 L211.039551,65 Z M217.75,65.1318359 C217.279783,65.1318359 216.850222,65.0450448 216.461304,64.87146 C216.072386,64.6978751 215.746095,64.43091 215.482422,64.0705566 L215.40332,64.0705566 C215.456055,64.4924338 215.482422,64.8923321 215.482422,65.2702637 L215.482422,68.2431641 L214.388184,68.2431641 L214.388184,57.7753906 L215.278076,57.7753906 L215.429688,58.7641602 L215.482422,58.7641602 C215.763673,58.3686504 216.091063,58.0830087 216.4646,57.9072266 C216.838137,57.7314444 217.266599,57.6435547 217.75,57.6435547 C218.708013,57.6435547 219.447385,57.970944 219.96814,58.6257324 C220.488894,59.2805209 220.749268,60.1989687 220.749268,61.3811035 C220.749268,62.5676329 220.4845,63.4893766 219.954956,64.1463623 C219.425412,64.803348 218.690434,65.1318359 217.75,65.1318359 Z M217.591797,58.572998 C216.853512,58.572998 216.319582,58.7773417 215.98999,59.1860352 C215.660399,59.5947286 215.491211,60.2451127 215.482422,61.137207 L215.482422,61.3811035 C215.482422,62.3962453 215.65161,63.1224343 215.98999,63.5596924 C216.328371,63.9969504 216.87109,64.2155762 217.618164,64.2155762 C218.242191,64.2155762 218.731077,63.9628932 219.084839,63.4575195 C219.4386,62.9521459 219.615479,62.2556197 219.615479,61.3679199 C219.615479,60.4670365 219.4386,59.7760034 219.084839,59.2947998 C218.731077,58.8135962 218.233402,58.572998 217.591797,58.572998 Z M225.712891,65.1318359 C224.645014,65.1318359 223.802371,64.8066439 223.184937,64.15625 C222.567502,63.5058561 222.258789,62.602789 222.258789,61.4470215 C222.258789,60.2824649 222.545529,59.3574253 223.119019,58.671875 C223.692508,57.9863247 224.462642,57.6435547 225.429443,57.6435547 C226.334721,57.6435547 227.051023,57.9412812 227.578369,58.5367432 C228.105716,59.1322051 228.369385,59.9177197 228.369385,60.8933105 L228.369385,61.5854492 L223.392578,61.5854492 C223.414551,62.433598 223.628782,63.0773904 224.035278,63.5168457 C224.441774,63.956301 225.014156,64.1760254 225.752441,64.1760254 C226.530277,64.1760254 227.299313,64.0134294 228.05957,63.6882324 L228.05957,64.6638184 C227.67285,64.8308114 227.307009,64.9505612 226.962036,65.0230713 C226.617064,65.0955814 226.200686,65.1318359 225.712891,65.1318359 Z M225.41626,58.5598145 C224.836179,58.5598145 224.373659,58.7487774 224.028687,59.126709 C223.683714,59.5046406 223.480469,60.0275846 223.418945,60.6955566 L227.196045,60.6955566 C227.196045,60.0056118 227.042238,59.4771747 226.734619,59.1102295 C226.427,58.7432843 225.987552,58.5598145 225.41626,58.5598145 Z M235.152344,64.0310059 L235.093018,64.0310059 C234.587644,64.7648962 233.831792,65.1318359 232.825439,65.1318359 C231.880611,65.1318359 231.145633,64.8088411 230.620483,64.1628418 C230.095334,63.5168425 229.832764,62.5983946 229.832764,61.4074707 C229.832764,60.2165468 230.096433,59.2915072 230.623779,58.6323242 C231.151126,57.9731412 231.885005,57.6435547 232.825439,57.6435547 C233.805425,57.6435547 234.556882,57.9995082 235.079834,58.7114258 L235.165527,58.7114258 L235.119385,58.1906738 L235.093018,57.6831055 L235.093018,54.7431641 L236.187256,54.7431641 L236.187256,65 L235.297363,65 L235.152344,64.0310059 Z M232.963867,64.2155762 C233.710941,64.2155762 234.252562,64.0123311 234.588745,63.605835 C234.924928,63.1993388 235.093018,62.5434616 235.093018,61.6381836 L235.093018,61.4074707 C235.093018,60.3835398 234.922731,59.6529563 234.582153,59.2156982 C234.241575,58.7784402 233.697758,58.5598145 232.950684,58.5598145 C232.309079,58.5598145 231.817995,58.8092016 231.477417,59.3079834 C231.136839,59.8067652 230.966553,60.5109818 230.966553,61.4206543 C230.966553,62.3435105 231.13574,63.0400367 231.474121,63.5102539 C231.812502,63.9804711 232.309079,64.2155762 232.963867,64.2155762 Z M243.042725,57.7753906 L243.042725,62.4621582 C243.042725,63.0510283 243.176756,63.4904771 243.444824,63.7805176 C243.712892,64.0705581 244.132566,64.2155762 244.703857,64.2155762 C245.459721,64.2155762 246.012327,64.0090353 246.361694,63.5959473 C246.711061,63.1828593 246.885742,62.5083055 246.885742,61.5722656 L246.885742,57.7753906 L247.97998,57.7753906 L247.97998,65 L247.076904,65 L246.918701,64.0310059 L246.859375,64.0310059 C246.635253,64.3869647 246.324343,64.6594229 245.926636,64.8483887 C245.528929,65.0373545 245.075198,65.1318359 244.56543,65.1318359 C243.686519,65.1318359 243.028445,64.9230978 242.591187,64.5056152 C242.153928,64.0881327 241.935303,63.4201706 241.935303,62.501709 L241.935303,57.7753906 L243.042725,57.7753906 Z M253.662109,65.1318359 C253.191892,65.1318359 252.762331,65.0450448 252.373413,64.87146 C251.984495,64.6978751 251.658204,64.43091 251.394531,64.0705566 L251.31543,64.0705566 C251.368164,64.4924338 251.394531,64.8923321 251.394531,65.2702637 L251.394531,68.2431641 L250.300293,68.2431641 L250.300293,57.7753906 L251.190186,57.7753906 L251.341797,58.7641602 L251.394531,58.7641602 C251.675783,58.3686504 252.003172,58.0830087 252.376709,57.9072266 C252.750246,57.7314444 253.178709,57.6435547 253.662109,57.6435547 C254.620122,57.6435547 255.359494,57.970944 255.880249,58.6257324 C256.401004,59.2805209 256.661377,60.1989687 256.661377,61.3811035 C256.661377,62.5676329 256.396609,63.4893766 255.867065,64.1463623 C255.337522,64.803348 254.602544,65.1318359 253.662109,65.1318359 Z M253.503906,58.572998 C252.765621,58.572998 252.231691,58.7773417 251.9021,59.1860352 C251.572508,59.5947286 251.40332,60.2451127 251.394531,61.137207 L251.394531,61.3811035 C251.394531,62.3962453 251.563719,63.1224343 251.9021,63.5596924 C252.24048,63.9969504 252.783199,64.2155762 253.530273,64.2155762 C254.1543,64.2155762 254.643187,63.9628932 254.996948,63.4575195 C255.35071,62.9521459 255.527588,62.2556197 255.527588,61.3679199 C255.527588,60.4670365 255.35071,59.7760034 254.996948,59.2947998 C254.643187,58.8135962 254.145511,58.572998 253.503906,58.572998 Z M264.41333,64.2287598 C264.60669,64.2287598 264.793456,64.2144777 264.973633,64.1859131 C265.153809,64.1573485 265.29663,64.1276857 265.4021,64.0969238 L265.4021,64.934082 C265.283447,64.9912112 265.108766,65.038452 264.878052,65.0758057 C264.647338,65.1131594 264.439698,65.1318359 264.255127,65.1318359 C262.857659,65.1318359 262.158936,64.3957593 262.158936,62.923584 L262.158936,58.6257324 L261.124023,58.6257324 L261.124023,58.0983887 L262.158936,57.6435547 L262.620361,56.1010742 L263.253174,56.1010742 L263.253174,57.7753906 L265.349365,57.7753906 L265.349365,58.6257324 L263.253174,58.6257324 L263.253174,62.8774414 C263.253174,63.3125022 263.356444,63.6464832 263.562988,63.8793945 C263.769532,64.1123059 264.052977,64.2287598 264.41333,64.2287598 Z M273.081543,61.3811035 C273.081543,62.5588438 272.784915,63.4783902 272.19165,64.1397705 C271.598386,64.8011508 270.778814,65.1318359 269.73291,65.1318359 C269.086911,65.1318359 268.51343,64.9802261 268.012451,64.677002 C267.511472,64.3737778 267.124757,63.9387235 266.852295,63.3718262 C266.579833,62.8049288 266.443604,62.1413612 266.443604,61.3811035 C266.443604,60.2033633 266.738034,59.286014 267.326904,58.6290283 C267.915774,57.9720426 268.733149,57.6435547 269.779053,57.6435547 C270.7898,57.6435547 271.592893,57.979733 272.188354,58.6520996 C272.783816,59.3244663 273.081543,60.2341251 273.081543,61.3811035 Z M267.577393,61.3811035 C267.577393,62.3039597 267.761961,63.0070777 268.131104,63.4904785 C268.500246,63.9738794 269.042965,64.2155762 269.759277,64.2155762 C270.47559,64.2155762 271.019407,63.974978 271.390747,63.4937744 C271.762087,63.0125708 271.947754,62.3083542 271.947754,61.3811035 C271.947754,60.4626419 271.762087,59.765017 271.390747,59.288208 C271.019407,58.811399 270.471195,58.572998 269.746094,58.572998 C269.029782,58.572998 268.48926,58.8081031 268.124512,59.2783203 C267.759764,59.7485375 267.577393,60.4494582 267.577393,61.3811035 Z M79.4936523,82.2287598 C79.6870127,82.2287598 79.8737784,82.2144777 80.0539551,82.1859131 C80.2341318,82.1573485 80.3769526,82.1276857 80.4824219,82.0969238 L80.4824219,82.934082 C80.3637689,82.9912112 80.1890881,83.038452 79.958374,83.0758057 C79.72766,83.1131594 79.5200205,83.1318359 79.3354492,83.1318359 C77.9379813,83.1318359 77.2392578,82.3957593 77.2392578,80.923584 L77.2392578,76.6257324 L76.2043457,76.6257324 L76.2043457,76.0983887 L77.2392578,75.6435547 L77.7006836,74.1010742 L78.3334961,74.1010742 L78.3334961,75.7753906 L80.4296875,75.7753906 L80.4296875,76.6257324 L78.3334961,76.6257324 L78.3334961,80.8774414 C78.3334961,81.3125022 78.4367665,81.6464832 78.6433105,81.8793945 C78.8498545,82.1123059 79.133299,82.2287598 79.4936523,82.2287598 Z M86.869873,83 L86.869873,78.326416 C86.869873,77.7375459 86.7358412,77.2980972 86.4677734,77.0080566 C86.1997057,76.7180161 85.7800322,76.572998 85.2087402,76.572998 C84.4484825,76.572998 83.8936785,76.779539 83.5443115,77.192627 C83.1949445,77.605715 83.0202637,78.282466 83.0202637,79.2229004 L83.0202637,83 L81.9260254,83 L81.9260254,72.7431641 L83.0202637,72.7431641 L83.0202637,75.8479004 C83.0202637,76.2214374 83.0026857,76.5312488 82.9675293,76.7773438 L83.0334473,76.7773438 C83.2487804,76.430174 83.5552959,76.1566172 83.9530029,75.956665 C84.35071,75.7567129 84.8044408,75.6567383 85.314209,75.6567383 C86.1975142,75.6567383 86.8599831,75.8665751 87.3016357,76.2862549 C87.7432883,76.7059347 87.9641113,77.3727982 87.9641113,78.2868652 L87.9641113,83 L86.869873,83 Z M93.263916,83.1318359 C92.1960396,83.1318359 91.3533966,82.8066439 90.7359619,82.15625 C90.1185272,81.5058561 89.8098145,80.602789 89.8098145,79.4470215 C89.8098145,78.2824649 90.0965547,77.3574253 90.6700439,76.671875 C91.2435331,75.9863247 92.013667,75.6435547 92.9804688,75.6435547 C93.8857467,75.6435547 94.6020481,75.9412812 95.1293945,76.5367432 C95.6567409,77.1322051 95.9204102,77.9177197 95.9204102,78.8933105 L95.9204102,79.5854492 L90.9436035,79.5854492 C90.9655763,80.433598 91.1798075,81.0773904 91.5863037,81.5168457 C91.9927999,81.956301 92.5651819,82.1760254 93.3034668,82.1760254 C94.0813027,82.1760254 94.850338,82.0134294 95.6105957,81.6882324 L95.6105957,82.6638184 C95.223875,82.8308114 94.858034,82.9505612 94.5130615,83.0230713 C94.1680891,83.0955814 93.7517114,83.1318359 93.263916,83.1318359 Z M92.9672852,76.5598145 C92.3872041,76.5598145 91.9246843,76.7487774 91.5797119,77.126709 C91.2347395,77.5046406 91.0314944,78.0275846 90.9699707,78.6955566 L94.7470703,78.6955566 C94.7470703,78.0056118 94.5932633,77.4771747 94.2856445,77.1102295 C93.9780258,76.7432843 93.5385771,76.5598145 92.9672852,76.5598145 Z M107.528564,79.3811035 C107.528564,80.5588438 107.231937,81.4783902 106.638672,82.1397705 C106.045407,82.8011508 105.225835,83.1318359 104.179932,83.1318359 C103.533932,83.1318359 102.960452,82.9802261 102.459473,82.677002 C101.958494,82.3737778 101.571779,81.9387235 101.299316,81.3718262 C101.026854,80.8049288 100.890625,80.1413612 100.890625,79.3811035 C100.890625,78.2033633 101.185056,77.286014 101.773926,76.6290283 C102.362796,75.9720426 103.180171,75.6435547 104.226074,75.6435547 C105.236821,75.6435547 106.039914,75.979733 106.635376,76.6520996 C107.230838,77.3244663 107.528564,78.2341251 107.528564,79.3811035 Z M102.024414,79.3811035 C102.024414,80.3039597 102.208983,81.0070777 102.578125,81.4904785 C102.947267,81.9738794 103.489987,82.2155762 104.206299,82.2155762 C104.922611,82.2155762 105.466429,81.974978 105.837769,81.4937744 C106.209108,81.0125708 106.394775,80.3083542 106.394775,79.3811035 C106.394775,78.4626419 106.209108,77.765017 105.837769,77.288208 C105.466429,76.811399 104.918217,76.572998 104.193115,76.572998 C103.476803,76.572998 102.936281,76.8081031 102.571533,77.2783203 C102.206785,77.7485375 102.024414,78.4494582 102.024414,79.3811035 Z M110.758545,83 L108.016357,75.7753906 L109.189697,75.7753906 L110.745361,80.0600586 C111.096926,81.0620167 111.303466,81.7124008 111.36499,82.0112305 L111.417725,82.0112305 C111.466065,81.7783191 111.618773,81.2960242 111.875854,80.5643311 C112.132936,79.8326379 112.709712,78.2363404 113.606201,75.7753906 L114.779541,75.7753906 L112.037354,83 L110.758545,83 Z M118.991699,83.1318359 C117.923823,83.1318359 117.08118,82.8066439 116.463745,82.15625 C115.84631,81.5058561 115.537598,80.602789 115.537598,79.4470215 C115.537598,78.2824649 115.824338,77.3574253 116.397827,76.671875 C116.971316,75.9863247 117.74145,75.6435547 118.708252,75.6435547 C119.61353,75.6435547 120.329831,75.9412812 120.857178,76.5367432 C121.384524,77.1322051 121.648193,77.9177197 121.648193,78.8933105 L121.648193,79.5854492 L116.671387,79.5854492 C116.693359,80.433598 116.907591,81.0773904 117.314087,81.5168457 C117.720583,81.956301 118.292965,82.1760254 119.03125,82.1760254 C119.809086,82.1760254 120.578121,82.0134294 121.338379,81.6882324 L121.338379,82.6638184 C120.951658,82.8308114 120.585817,82.9505612 120.240845,83.0230713 C119.895872,83.0955814 119.479495,83.1318359 118.991699,83.1318359 Z M118.695068,76.5598145 C118.114987,76.5598145 117.652468,76.7487774 117.307495,77.126709 C116.962523,77.5046406 116.759278,78.0275846 116.697754,78.6955566 L120.474854,78.6955566 C120.474854,78.0056118 120.321046,77.4771747 120.013428,77.1102295 C119.705809,76.7432843 119.26636,76.5598145 118.695068,76.5598145 Z M126.80957,75.6435547 C127.130373,75.6435547 127.418212,75.6699216 127.673096,75.7226562 L127.521484,76.737793 C127.222655,76.6718747 126.958986,76.638916 126.730469,76.638916 C126.145993,76.638916 125.64612,76.8762183 125.230835,77.3508301 C124.81555,77.8254418 124.60791,78.4165004 124.60791,79.1240234 L124.60791,83 L123.513672,83 L123.513672,75.7753906 L124.416748,75.7753906 L124.541992,77.1135254 L124.594727,77.1135254 C124.862794,76.6433082 125.185789,76.280763 125.563721,76.0258789 C125.941652,75.7709948 126.356931,75.6435547 126.80957,75.6435547 Z M133.968262,83 L133.968262,78.326416 C133.968262,77.7375459 133.83423,77.2980972 133.566162,77.0080566 C133.298094,76.7180161 132.878421,76.572998 132.307129,76.572998 C131.546871,76.572998 130.992067,76.779539 130.6427,77.192627 C130.293333,77.605715 130.118652,78.282466 130.118652,79.2229004 L130.118652,83 L129.024414,83 L129.024414,72.7431641 L130.118652,72.7431641 L130.118652,75.8479004 C130.118652,76.2214374 130.101074,76.5312488 130.065918,76.7773438 L130.131836,76.7773438 C130.347169,76.430174 130.653685,76.1566172 131.051392,75.956665 C131.449099,75.7567129 131.902829,75.6567383 132.412598,75.6567383 C133.295903,75.6567383 133.958372,75.8665751 134.400024,76.2862549 C134.841677,76.7059347 135.0625,77.3727982 135.0625,78.2868652 L135.0625,83 L133.968262,83 Z M140.362305,83.1318359 C139.294428,83.1318359 138.451785,82.8066439 137.834351,82.15625 C137.216916,81.5058561 136.908203,80.602789 136.908203,79.4470215 C136.908203,78.2824649 137.194943,77.3574253 137.768433,76.671875 C138.341922,75.9863247 139.112056,75.6435547 140.078857,75.6435547 C140.984135,75.6435547 141.700437,75.9412812 142.227783,76.5367432 C142.75513,77.1322051 143.018799,77.9177197 143.018799,78.8933105 L143.018799,79.5854492 L138.041992,79.5854492 C138.063965,80.433598 138.278196,81.0773904 138.684692,81.5168457 C139.091189,81.956301 139.663571,82.1760254 140.401855,82.1760254 C141.179691,82.1760254 141.948727,82.0134294 142.708984,81.6882324 L142.708984,82.6638184 C142.322264,82.8308114 141.956423,82.9505612 141.61145,83.0230713 C141.266478,83.0955814 140.8501,83.1318359 140.362305,83.1318359 Z M140.065674,76.5598145 C139.485593,76.5598145 139.023073,76.7487774 138.678101,77.126709 C138.333128,77.5046406 138.129883,78.0275846 138.068359,78.6955566 L141.845459,78.6955566 C141.845459,78.0056118 141.691652,77.4771747 141.384033,77.1102295 C141.076414,76.7432843 140.636966,76.5598145 140.065674,76.5598145 Z M149.327148,83 L149.109619,81.9716797 L149.056885,81.9716797 C148.696531,82.4243187 148.337282,82.7308342 147.979126,82.8912354 C147.62097,83.0516365 147.173831,83.1318359 146.637695,83.1318359 C145.921383,83.1318359 145.359987,82.9472675 144.953491,82.578125 C144.546995,82.2089825 144.34375,81.6838413 144.34375,81.0026855 C144.34375,79.5436939 145.510486,78.7790531 147.843994,78.7087402 L149.070068,78.6691895 L149.070068,78.2209473 C149.070068,77.6540499 148.948121,77.235475 148.704224,76.96521 C148.460326,76.6949449 148.070315,76.5598145 147.53418,76.5598145 C146.932126,76.5598145 146.25098,76.7443829 145.490723,77.1135254 L145.154541,76.2763672 C145.5105,76.0830068 145.900511,75.931397 146.324585,75.8215332 C146.748659,75.7116694 147.173826,75.6567383 147.600098,75.6567383 C148.46143,75.6567383 149.099729,75.8478985 149.515015,76.2302246 C149.9303,76.6125507 150.137939,77.2255817 150.137939,78.0693359 L150.137939,83 L149.327148,83 Z M146.855225,82.2287598 C147.53638,82.2287598 148.071409,82.0419941 148.460327,81.668457 C148.849245,81.29492 149.043701,80.771976 149.043701,80.0996094 L149.043701,79.4470215 L147.949463,79.4931641 C147.079341,79.5239259 146.452028,79.6590564 146.067505,79.8985596 C145.682981,80.1380627 145.490723,80.5104955 145.490723,81.0158691 C145.490723,81.4113789 145.610472,81.7124013 145.849976,81.9189453 C146.089479,82.1254893 146.424558,82.2287598 146.855225,82.2287598 Z M157.309814,82.0310059 L157.250488,82.0310059 C156.745115,82.7648962 155.989263,83.1318359 154.98291,83.1318359 C154.038081,83.1318359 153.303103,82.8088411 152.777954,82.1628418 C152.252805,81.5168425 151.990234,80.5983946 151.990234,79.4074707 C151.990234,78.2165468 152.253904,77.2915072 152.78125,76.6323242 C153.308596,75.9731412 154.042476,75.6435547 154.98291,75.6435547 C155.962896,75.6435547 156.714353,75.9995082 157.237305,76.7114258 L157.322998,76.7114258 L157.276855,76.1906738 L157.250488,75.6831055 L157.250488,72.7431641 L158.344727,72.7431641 L158.344727,83 L157.454834,83 L157.309814,82.0310059 Z M155.121338,82.2155762 C155.868412,82.2155762 156.410032,82.0123311 156.746216,81.605835 C157.082399,81.1993388 157.250488,80.5434616 157.250488,79.6381836 L157.250488,79.4074707 C157.250488,78.3835398 157.080202,77.6529563 156.739624,77.2156982 C156.399046,76.7784402 155.855228,76.5598145 155.108154,76.5598145 C154.46655,76.5598145 153.975466,76.8092016 153.634888,77.3079834 C153.29431,77.8067652 153.124023,78.5109818 153.124023,79.4206543 C153.124023,80.3435105 153.293211,81.0400367 153.631592,81.5102539 C153.969972,81.9804711 154.466549,82.2155762 155.121338,82.2155762 Z M166.505371,82.2287598 C166.698731,82.2287598 166.885497,82.2144777 167.065674,82.1859131 C167.245851,82.1573485 167.388671,82.1276857 167.494141,82.0969238 L167.494141,82.934082 C167.375488,82.9912112 167.200807,83.038452 166.970093,83.0758057 C166.739379,83.1131594 166.531739,83.1318359 166.347168,83.1318359 C164.9497,83.1318359 164.250977,82.3957593 164.250977,80.923584 L164.250977,76.6257324 L163.216064,76.6257324 L163.216064,76.0983887 L164.250977,75.6435547 L164.712402,74.1010742 L165.345215,74.1010742 L165.345215,75.7753906 L167.441406,75.7753906 L167.441406,76.6257324 L165.345215,76.6257324 L165.345215,80.8774414 C165.345215,81.3125022 165.448485,81.6464832 165.655029,81.8793945 C165.861573,82.1123059 166.145018,82.2287598 166.505371,82.2287598 Z M173.380615,83 L173.163086,81.9716797 L173.110352,81.9716797 C172.749998,82.4243187 172.390749,82.7308342 172.032593,82.8912354 C171.674437,83.0516365 171.227298,83.1318359 170.691162,83.1318359 C169.97485,83.1318359 169.413454,82.9472675 169.006958,82.578125 C168.600462,82.2089825 168.397217,81.6838413 168.397217,81.0026855 C168.397217,79.5436939 169.563953,78.7790531 171.897461,78.7087402 L173.123535,78.6691895 L173.123535,78.2209473 C173.123535,77.6540499 173.001588,77.235475 172.75769,76.96521 C172.513793,76.6949449 172.123782,76.5598145 171.587646,76.5598145 C170.985593,76.5598145 170.304447,76.7443829 169.544189,77.1135254 L169.208008,76.2763672 C169.563967,76.0830068 169.953977,75.931397 170.378052,75.8215332 C170.802126,75.7116694 171.227293,75.6567383 171.653564,75.6567383 C172.514897,75.6567383 173.153196,75.8478985 173.568481,76.2302246 C173.983767,76.6125507 174.191406,77.2255817 174.191406,78.0693359 L174.191406,83 L173.380615,83 Z M170.908691,82.2287598 C171.589847,82.2287598 172.124876,82.0419941 172.513794,81.668457 C172.902712,81.29492 173.097168,80.771976 173.097168,80.0996094 L173.097168,79.4470215 L172.00293,79.4931641 C171.132808,79.5239259 170.505495,79.6590564 170.120972,79.8985596 C169.736448,80.1380627 169.544189,80.5104955 169.544189,81.0158691 C169.544189,81.4113789 169.663939,81.7124013 169.903442,81.9189453 C170.142946,82.1254893 170.478025,82.2287598 170.908691,82.2287598 Z M181.389648,83 L181.389648,78.326416 C181.389648,77.7375459 181.255617,77.2980972 180.987549,77.0080566 C180.719481,76.7180161 180.299808,76.572998 179.728516,76.572998 C178.972652,76.572998 178.418947,76.7773417 178.067383,77.1860352 C177.715819,77.5947286 177.540039,78.2692824 177.540039,79.2097168 L177.540039,83 L176.445801,83 L176.445801,75.7753906 L177.335693,75.7753906 L177.513672,76.7641602 L177.566406,76.7641602 C177.790528,76.4082013 178.104734,76.1324473 178.509033,75.9368896 C178.913332,75.741332 179.363767,75.6435547 179.860352,75.6435547 C180.730473,75.6435547 181.385252,75.8533915 181.824707,76.2730713 C182.264162,76.6927511 182.483887,77.3640091 182.483887,78.2868652 L182.483887,83 L181.389648,83 Z M185.812744,79.302002 C186.00171,79.0339342 186.289549,78.6823752 186.67627,78.2473145 L189.009766,75.7753906 L190.30835,75.7753906 L187.381592,78.8537598 L190.512695,83 L189.187744,83 L186.636719,79.5854492 L185.812744,80.2973633 L185.812744,83 L184.731689,83 L184.731689,72.7431641 L185.812744,72.7431641 L185.812744,78.1813965 C185.812744,78.4230969 185.795166,78.7966283 185.76001,79.302002 L185.812744,79.302002 Z" id="Iwanttobeabletocontrolhowmuchwatergetspumpeduptotheoverheadtank" fill="#032A2F" fill-rule="nonzero"></path>
                    <g id="Group-3" transform="translate(13.500000, 10.500000)">
                        <g id="Group-Copy" transform="translate(27.466607, 0.000000)">
                            <path d="M2.10248814e-14,22.9882154 L16.4310382,22.9882154 L16.4310382,2.24606271 C16.4310382,1.00559653 15.4279373,2.1453182e-13 14.1808246,1.93092899e-13 L2.25021356,-1.20043844e-14 C1.00745493,-3.33684552e-14 -3.36565068e-15,1.0025566 -1.98612524e-15,2.24606271 L2.10248814e-14,22.9882154 Z" id="Path-38" stroke="#026F8B" stroke-width="0.75" stroke-linecap="square"></path>
                            <rect id="Rectangle" fill="#026F8B" x="1.26369236" y="16.4821167" width="13.900616" height="5.20487897"></rect>
                        </g>
                        <g id="Group-Copy-2" transform="translate(0.000000, 23.256944)">
                            <path d="M2.19516105e-14,22.9813492 L17.0395951,22.9813492 L17.0395951,2.24539185 C17.0395951,1.00529617 16.0247199,2.16207035e-13 14.7944436,1.95818977e-13 L2.24515152,-1.21470743e-14 C1.00518857,-3.26956594e-14 -3.32515551e-15,1.01713283 -1.9116557e-15,2.24539185 L2.19516105e-14,22.9813492 Z" id="Path-38" stroke="#026F8B" stroke-width="0.75" stroke-linecap="square"></path>
                            <polygon id="Rectangle" fill="#026F8B" points="1.31049578 4.81062062 15.7259494 4.81062062 15.7259494 21.6805181 1.31049578 21.6805181"></polygon>
                        </g>
                        <polyline id="Path-39" stroke="#026F8B" stroke-width="0.75" stroke-linecap="square" points="17.4155357 40.7459291 22.458491 40.7459291 22.458491 20.5533042 27.4666137 20.5533042"></polyline>
                    </g>
                </g>
            </g>
        </g>
    </g>
</svg>