<?xml version="1.0" encoding="UTF-8"?>
<svg width="263px" height="93px" viewBox="0 0 263 93" version="1.1" xmlns="http://www.w3.org/2000/svg" xmlns:xlink="http://www.w3.org/1999/xlink">
    <!-- Generator: Sketch 53.2 (72643) - https://sketchapp.com -->
    <title>userneed4</title>
    <desc>Created with Sketch.</desc>
    <g id="Poster" stroke="none" stroke-width="1" fill="none" fill-rule="evenodd">
        <g id="Desktop-HD-Copy-2" transform="translate(-248.000000, -5134.000000)">
            <g id="Group-9" transform="translate(248.000000, 4987.000000)">
                <g id="userneed4" transform="translate(0.000000, 147.000000)">
                    <rect id="Rectangle-2" fill="#FFFFFF" x="0" y="0" width="262.5" height="93"></rect>
                    <path d="M79.826416,13.362793 L79.826416,19.5986328 C79.826416,20.3105504 79.6737076,20.933469 79.3682861,21.4674072 C79.0628647,22.0013454 78.6212187,22.41223 78.043335,22.7000732 C77.4654512,22.9879165 76.7744181,23.1318359 75.9702148,23.1318359 C74.7748964,23.1318359 73.8454623,22.8154329 73.1818848,22.1826172 C72.5183072,21.5498015 72.1865234,20.679693 72.1865234,19.5722656 L72.1865234,13.362793 L73.7685547,13.362793 L73.7685547,19.4602051 C73.7685547,20.2556192 73.9531232,20.8422833 74.3222656,21.2202148 C74.6914081,21.5981464 75.258297,21.7871094 76.0229492,21.7871094 C77.5083082,21.7871094 78.2509766,21.0070879 78.2509766,19.4470215 L78.2509766,13.362793 L79.826416,13.362793 Z M87.0246582,20.923584 C87.0246582,21.6355016 86.7653835,22.1815167 86.2468262,22.5616455 C85.7282689,22.9417744 84.9856005,23.1318359 84.0187988,23.1318359 C83.0476026,23.1318359 82.2675811,22.9846206 81.6787109,22.6901855 L81.6787109,21.3520508 C82.5356488,21.7475606 83.3332483,21.9453125 84.0715332,21.9453125 C85.0251513,21.9453125 85.5019531,21.6574736 85.5019531,21.0817871 C85.5019531,20.8972159 85.4492193,20.7434088 85.34375,20.6203613 C85.2382807,20.4973138 85.0646985,20.3698737 84.822998,20.2380371 C84.5812976,20.1062005 84.2451193,19.9567879 83.8144531,19.7897949 C82.9750935,19.464598 82.407106,19.1394059 82.1104736,18.814209 C81.8138413,18.489012 81.6655273,18.0671413 81.6655273,17.548584 C81.6655273,16.9245574 81.9171117,16.4400652 82.4202881,16.0950928 C82.9234644,15.7501203 83.6079058,15.5776367 84.4736328,15.5776367 C85.3305707,15.5776367 86.1413536,15.751219 86.9060059,16.0983887 L86.4050293,17.2651367 C85.6184043,16.9399398 84.9570339,16.7773438 84.4208984,16.7773438 C83.6035115,16.7773438 83.1948242,17.0102516 83.1948242,17.4760742 C83.1948242,17.704591 83.3013905,17.8979484 83.5145264,18.0561523 C83.7276622,18.2143563 84.1923792,18.4318834 84.9086914,18.7087402 C85.5107452,18.9416516 85.9479967,19.1547842 86.220459,19.3481445 C86.4929213,19.5415049 86.6950677,19.7645251 86.8269043,20.0172119 C86.9587409,20.2698987 87.0246582,20.5720197 87.0246582,20.923584 Z M91.8828125,23.1318359 C90.7490178,23.1318359 89.86243,22.8011508 89.2230225,22.1397705 C88.583615,21.4783902 88.263916,20.5676328 88.263916,19.4074707 C88.263916,18.2165468 88.5605439,17.280521 89.1538086,16.5993652 C89.7470733,15.9182095 90.5622507,15.5776367 91.5993652,15.5776367 C92.5617724,15.5776367 93.3220187,15.8698701 93.880127,16.4543457 C94.4382352,17.0388213 94.7172852,17.8430125 94.7172852,18.8669434 L94.7172852,19.7041016 L89.8591309,19.7041016 C89.8811036,20.4116246 90.0722638,20.9554424 90.4326172,21.3355713 C90.7929706,21.7157001 91.3005338,21.9057617 91.9553223,21.9057617 C92.3859885,21.9057617 92.7869854,21.8651127 93.1583252,21.7838135 C93.5296649,21.7025142 93.9284647,21.5673838 94.3547363,21.378418 L94.3547363,22.6374512 C93.9768048,22.8176279 93.5944844,22.945068 93.2077637,23.0197754 C92.821043,23.0944828 92.379397,23.1318359 91.8828125,23.1318359 Z M91.5993652,16.7509766 C91.1071753,16.7509766 90.71277,16.9069809 90.4161377,17.2189941 C90.1195054,17.5310074 89.9426272,17.9858369 89.885498,18.5834961 L93.1945801,18.5834961 C93.185791,17.9814423 93.0407729,17.5255142 92.7595215,17.2156982 C92.4782701,16.9058822 92.0915552,16.7509766 91.5993652,16.7509766 Z M100.175293,15.5776367 C100.487306,15.5776367 100.744384,15.5996092 100.946533,15.6435547 L100.794922,17.0871582 C100.575194,17.0344236 100.346681,17.0080566 100.109375,17.0080566 C99.489743,17.0080566 98.9876728,17.2102031 98.6031494,17.614502 C98.218626,18.0188008 98.0263672,18.5439421 98.0263672,19.1899414 L98.0263672,23 L96.4772949,23 L96.4772949,15.7094727 L97.6901855,15.7094727 L97.8945312,16.994873 L97.9736328,16.994873 C98.2153332,16.5598123 98.5306377,16.214845 98.9195557,15.9599609 C99.3084736,15.7050769 99.7270485,15.5776367 100.175293,15.5776367 Z M113.998291,23 L112.066895,23 L107.327393,15.3205566 L107.274658,15.3205566 L107.307617,15.7490234 C107.369141,16.5664103 107.399902,17.3134732 107.399902,17.9902344 L107.399902,23 L105.969482,23 L105.969482,13.362793 L107.881104,13.362793 L112.607422,21.0026855 L112.646973,21.0026855 C112.638184,20.9016108 112.620606,20.5335725 112.594238,19.8985596 C112.567871,19.2635466 112.554688,18.7680682 112.554688,18.4121094 L112.554688,13.362793 L113.998291,13.362793 L113.998291,23 Z M119.561768,23.1318359 C118.427973,23.1318359 117.541385,22.8011508 116.901978,22.1397705 C116.26257,21.4783902 115.942871,20.5676328 115.942871,19.4074707 C115.942871,18.2165468 116.239499,17.280521 116.832764,16.5993652 C117.426028,15.9182095 118.241206,15.5776367 119.27832,15.5776367 C120.240727,15.5776367 121.000974,15.8698701 121.559082,16.4543457 C122.11719,17.0388213 122.39624,17.8430125 122.39624,18.8669434 L122.39624,19.7041016 L117.538086,19.7041016 C117.560059,20.4116246 117.751219,20.9554424 118.111572,21.3355713 C118.471926,21.7157001 118.979489,21.9057617 119.634277,21.9057617 C120.064944,21.9057617 120.465941,21.8651127 120.83728,21.7838135 C121.20862,21.7025142 121.60742,21.5673838 122.033691,21.378418 L122.033691,22.6374512 C121.65576,22.8176279 121.273439,22.945068 120.886719,23.0197754 C120.499998,23.0944828 120.058352,23.1318359 119.561768,23.1318359 Z M119.27832,16.7509766 C118.78613,16.7509766 118.391725,16.9069809 118.095093,17.2189941 C117.79846,17.5310074 117.621582,17.9858369 117.564453,18.5834961 L120.873535,18.5834961 C120.864746,17.9814423 120.719728,17.5255142 120.438477,17.2156982 C120.157225,16.9058822 119.77051,16.7509766 119.27832,16.7509766 Z M127.340088,23.1318359 C126.206293,23.1318359 125.319705,22.8011508 124.680298,22.1397705 C124.04089,21.4783902 123.721191,20.5676328 123.721191,19.4074707 C123.721191,18.2165468 124.017819,17.280521 124.611084,16.5993652 C125.204349,15.9182095 126.019526,15.5776367 127.056641,15.5776367 C128.019048,15.5776367 128.779294,15.8698701 129.337402,16.4543457 C129.895511,17.0388213 130.174561,17.8430125 130.174561,18.8669434 L130.174561,19.7041016 L125.316406,19.7041016 C125.338379,20.4116246 125.529539,20.9554424 125.889893,21.3355713 C126.250246,21.7157001 126.757809,21.9057617 127.412598,21.9057617 C127.843264,21.9057617 128.244261,21.8651127 128.615601,21.7838135 C128.98694,21.7025142 129.38574,21.5673838 129.812012,21.378418 L129.812012,22.6374512 C129.43408,22.8176279 129.05176,22.945068 128.665039,23.0197754 C128.278318,23.0944828 127.836672,23.1318359 127.340088,23.1318359 Z M127.056641,16.7509766 C126.564451,16.7509766 126.170045,16.9069809 125.873413,17.2189941 C125.576781,17.5310074 125.399903,17.9858369 125.342773,18.5834961 L128.651855,18.5834961 C128.643066,17.9814423 128.498048,17.5255142 128.216797,17.2156982 C127.935545,16.9058822 127.548831,16.7509766 127.056641,16.7509766 Z M134.393311,23.1318359 C133.483638,23.1318359 132.773928,22.8022494 132.26416,22.1430664 C131.754392,21.4838834 131.499512,20.5588438 131.499512,19.3679199 C131.499512,18.1726014 131.757688,17.2420688 132.274048,16.5762939 C132.790408,15.9105191 133.505611,15.5776367 134.419678,15.5776367 C135.37769,15.5776367 136.107175,15.9313929 136.608154,16.638916 L136.687256,16.638916 C136.612548,16.1159642 136.575195,15.7028824 136.575195,15.3996582 L136.575195,12.7431641 L138.130859,12.7431641 L138.130859,23 L136.917969,23 L136.647705,22.0441895 L136.575195,22.0441895 C136.078611,22.7692907 135.351323,23.1318359 134.393311,23.1318359 Z M134.808594,21.8793945 C135.445804,21.8793945 135.909422,21.7003192 136.199463,21.3421631 C136.489503,20.984007 136.638916,20.4028361 136.647705,19.5986328 L136.647705,19.3811035 C136.647705,18.4626419 136.498293,17.8100605 136.199463,17.4233398 C135.900633,17.0366192 135.43262,16.8432617 134.79541,16.8432617 C134.250486,16.8432617 133.830812,17.0640847 133.536377,17.5057373 C133.241942,17.9473899 133.094727,18.5769002 133.094727,19.3942871 C133.094727,20.2028849 133.237547,20.8192117 133.523193,21.2432861 C133.808839,21.6673605 134.237302,21.8793945 134.808594,21.8793945 Z M150.213623,20.8972168 L148.915039,20.8972168 L148.915039,23 L147.405518,23 L147.405518,20.8972168 L143.002197,20.8972168 L143.002197,19.7041016 L147.405518,13.3364258 L148.915039,13.3364258 L148.915039,19.6118164 L150.213623,19.6118164 L150.213623,20.8972168 Z M147.405518,19.6118164 L147.405518,17.192627 C147.405518,16.3312945 147.42749,15.6259793 147.471436,15.0766602 L147.418701,15.0766602 C147.295654,15.3667007 147.102296,15.7182597 146.838623,16.1313477 L144.445801,19.6118164 L147.405518,19.6118164 Z" id="UserNeed4" fill="#032A2F" fill-rule="nonzero"></path>
                    <path d="M72.3249512,50 L72.3249512,40.362793 L73.4455566,40.362793 L73.4455566,50 L72.3249512,50 Z M85.3305664,50 L84.0056152,45.7614746 C83.9221187,45.502196 83.7661144,44.9133347 83.5375977,43.994873 L83.4848633,43.994873 C83.3090812,44.7639199 83.1552741,45.3571756 83.0234375,45.7746582 L81.6589355,50 L80.3933105,50 L78.4223633,42.7753906 L79.5693359,42.7753906 C80.0351586,44.5903411 80.3900134,45.9724074 80.6339111,46.9216309 C80.8778088,47.8708544 81.0173338,48.5102523 81.0524902,48.8398438 L81.1052246,48.8398438 C81.1535647,48.5893542 81.2315668,48.2652608 81.3392334,47.8675537 C81.4469,47.4698466 81.5402828,47.1545422 81.6193848,46.9216309 L82.9443359,42.7753906 L84.1308594,42.7753906 L85.4228516,46.9216309 C85.6689465,47.677494 85.8359371,48.3124974 85.9238281,48.8266602 L85.9765625,48.8266602 C85.9941407,48.6684562 86.0413815,48.4245622 86.1182861,48.0949707 C86.1951908,47.7653792 86.6533161,45.9922036 87.4926758,42.7753906 L88.6264648,42.7753906 L86.6291504,50 L85.3305664,50 Z M94.3745117,50 L94.1569824,48.9716797 L94.104248,48.9716797 C93.7438947,49.4243187 93.3846453,49.7308342 93.0264893,49.8912354 C92.6683332,50.0516365 92.2211941,50.1318359 91.6850586,50.1318359 C90.9687464,50.1318359 90.4073507,49.9472675 90.0008545,49.578125 C89.5943583,49.2089825 89.3911133,48.6838413 89.3911133,48.0026855 C89.3911133,46.5436939 90.5578497,45.7790531 92.8913574,45.7087402 L94.1174316,45.6691895 L94.1174316,45.2209473 C94.1174316,44.6540499 93.9954846,44.235475 93.7515869,43.96521 C93.5076892,43.6949449 93.1176785,43.5598145 92.581543,43.5598145 C91.9794892,43.5598145 91.2983436,43.7443829 90.5380859,44.1135254 L90.2019043,43.2763672 C90.5578631,43.0830068 90.9478739,42.931397 91.3719482,42.8215332 C91.7960226,42.7116694 92.2211893,42.6567383 92.6474609,42.6567383 C93.5087934,42.6567383 94.1470927,42.8478985 94.5623779,43.2302246 C94.9776632,43.6125507 95.1853027,44.2255817 95.1853027,45.0693359 L95.1853027,50 L94.3745117,50 Z M91.9025879,49.2287598 C92.5837436,49.2287598 93.1187725,49.0419941 93.5076904,48.668457 C93.8966084,48.29492 94.0910645,47.771976 94.0910645,47.0996094 L94.0910645,46.4470215 L92.9968262,46.4931641 C92.1267046,46.5239259 91.4993916,46.6590564 91.1148682,46.8985596 C90.7303448,47.1380627 90.5380859,47.5104955 90.5380859,48.0158691 C90.5380859,48.4113789 90.6578357,48.7124013 90.8973389,48.9189453 C91.136842,49.1254893 91.4719217,49.2287598 91.9025879,49.2287598 Z M102.383545,50 L102.383545,45.326416 C102.383545,44.7375459 102.249513,44.2980972 101.981445,44.0080566 C101.713378,43.7180161 101.293704,43.572998 100.722412,43.572998 C99.966549,43.572998 99.4128436,43.7773417 99.0612793,44.1860352 C98.709715,44.5947286 98.5339355,45.2692824 98.5339355,46.2097168 L98.5339355,50 L97.4396973,50 L97.4396973,42.7753906 L98.3295898,42.7753906 L98.5075684,43.7641602 L98.5603027,43.7641602 C98.7844249,43.4082013 99.0986308,43.1324473 99.5029297,42.9368896 C99.9072286,42.741332 100.357664,42.6435547 100.854248,42.6435547 C101.72437,42.6435547 102.379148,42.8533915 102.818604,43.2730713 C103.258059,43.6927511 103.477783,44.3640091 103.477783,45.2868652 L103.477783,50 L102.383545,50 Z M108.059082,49.2287598 C108.252442,49.2287598 108.439208,49.2144777 108.619385,49.1859131 C108.799561,49.1573485 108.942382,49.1276857 109.047852,49.0969238 L109.047852,49.934082 C108.929199,49.9912112 108.754518,50.038452 108.523804,50.0758057 C108.29309,50.1131594 108.08545,50.1318359 107.900879,50.1318359 C106.503411,50.1318359 105.804688,49.3957593 105.804688,47.923584 L105.804688,43.6257324 L104.769775,43.6257324 L104.769775,43.0983887 L105.804688,42.6435547 L106.266113,41.1010742 L106.898926,41.1010742 L106.898926,42.7753906 L108.995117,42.7753906 L108.995117,43.6257324 L106.898926,43.6257324 L106.898926,47.8774414 C106.898926,48.3125022 107.002196,48.6464832 107.20874,48.8793945 C107.415284,49.1123059 107.698729,49.2287598 108.059082,49.2287598 Z M116.331787,49.2287598 C116.525147,49.2287598 116.711913,49.2144777 116.89209,49.1859131 C117.072267,49.1573485 117.215087,49.1276857 117.320557,49.0969238 L117.320557,49.934082 C117.201904,49.9912112 117.027223,50.038452 116.796509,50.0758057 C116.565795,50.1131594 116.358155,50.1318359 116.173584,50.1318359 C114.776116,50.1318359 114.077393,49.3957593 114.077393,47.923584 L114.077393,43.6257324 L113.04248,43.6257324 L113.04248,43.0983887 L114.077393,42.6435547 L114.538818,41.1010742 L115.171631,41.1010742 L115.171631,42.7753906 L117.267822,42.7753906 L117.267822,43.6257324 L115.171631,43.6257324 L115.171631,47.8774414 C115.171631,48.3125022 115.274901,48.6464832 115.481445,48.8793945 C115.687989,49.1123059 115.971434,49.2287598 116.331787,49.2287598 Z M125,46.3811035 C125,47.5588438 124.703372,48.4783902 124.110107,49.1397705 C123.516843,49.8011508 122.697271,50.1318359 121.651367,50.1318359 C121.005368,50.1318359 120.431887,49.9802261 119.930908,49.677002 C119.429929,49.3737778 119.043214,48.9387235 118.770752,48.3718262 C118.49829,47.8049288 118.362061,47.1413612 118.362061,46.3811035 C118.362061,45.2033633 118.656491,44.286014 119.245361,43.6290283 C119.834231,42.9720426 120.651606,42.6435547 121.69751,42.6435547 C122.708257,42.6435547 123.51135,42.979733 124.106812,43.6520996 C124.702273,44.3244663 125,45.2341251 125,46.3811035 Z M119.49585,46.3811035 C119.49585,47.3039597 119.680418,48.0070777 120.049561,48.4904785 C120.418703,48.9738794 120.961422,49.2155762 121.677734,49.2155762 C122.394047,49.2155762 122.937864,48.974978 123.309204,48.4937744 C123.680544,48.0125708 123.866211,47.3083542 123.866211,46.3811035 C123.866211,45.4626419 123.680544,44.765017 123.309204,44.288208 C122.937864,43.811399 122.389652,43.572998 121.664551,43.572998 C120.948239,43.572998 120.407717,43.8081031 120.042969,44.2783203 C119.678221,44.7485375 119.49585,45.4494582 119.49585,46.3811035 Z M131.506104,46.302002 C131.695069,46.0339342 131.982908,45.6823752 132.369629,45.2473145 L134.703125,42.7753906 L136.001709,42.7753906 L133.074951,45.8537598 L136.206055,50 L134.881104,50 L132.330078,46.5854492 L131.506104,47.2973633 L131.506104,50 L130.425049,50 L130.425049,39.7431641 L131.506104,39.7431641 L131.506104,45.1813965 C131.506104,45.4230969 131.488526,45.7966283 131.453369,46.302002 L131.506104,46.302002 Z M142.455078,50 L142.455078,45.326416 C142.455078,44.7375459 142.321046,44.2980972 142.052979,44.0080566 C141.784911,43.7180161 141.365237,43.572998 140.793945,43.572998 C140.038082,43.572998 139.484377,43.7773417 139.132812,44.1860352 C138.781248,44.5947286 138.605469,45.2692824 138.605469,46.2097168 L138.605469,50 L137.51123,50 L137.51123,42.7753906 L138.401123,42.7753906 L138.579102,43.7641602 L138.631836,43.7641602 C138.855958,43.4082013 139.170164,43.1324473 139.574463,42.9368896 C139.978762,42.741332 140.429197,42.6435547 140.925781,42.6435547 C141.795903,42.6435547 142.450681,42.8533915 142.890137,43.2730713 C143.329592,43.6927511 143.549316,44.3640091 143.549316,45.2868652 L143.549316,50 L142.455078,50 Z M152.032959,46.3811035 C152.032959,47.5588438 151.736331,48.4783902 151.143066,49.1397705 C150.549802,49.8011508 149.73023,50.1318359 148.684326,50.1318359 C148.038327,50.1318359 147.464846,49.9802261 146.963867,49.677002 C146.462888,49.3737778 146.076173,48.9387235 145.803711,48.3718262 C145.531249,47.8049288 145.39502,47.1413612 145.39502,46.3811035 C145.39502,45.2033633 145.68945,44.286014 146.27832,43.6290283 C146.86719,42.9720426 147.684565,42.6435547 148.730469,42.6435547 C149.741216,42.6435547 150.544309,42.979733 151.139771,43.6520996 C151.735232,44.3244663 152.032959,45.2341251 152.032959,46.3811035 Z M146.528809,46.3811035 C146.528809,47.3039597 146.713377,48.0070777 147.08252,48.4904785 C147.451662,48.9738794 147.994381,49.2155762 148.710693,49.2155762 C149.427006,49.2155762 149.970823,48.974978 150.342163,48.4937744 C150.713503,48.0125708 150.89917,47.3083542 150.89917,46.3811035 C150.89917,45.4626419 150.713503,44.765017 150.342163,44.288208 C149.970823,43.811399 149.422611,43.572998 148.69751,43.572998 C147.981198,43.572998 147.440676,43.8081031 147.075928,44.2783203 C146.71118,44.7485375 146.528809,45.4494582 146.528809,46.3811035 Z M159.580566,50 L158.255615,45.7614746 C158.172119,45.502196 158.016114,44.9133347 157.787598,43.994873 L157.734863,43.994873 C157.559081,44.7639199 157.405274,45.3571756 157.273438,45.7746582 L155.908936,50 L154.643311,50 L152.672363,42.7753906 L153.819336,42.7753906 C154.285159,44.5903411 154.640013,45.9724074 154.883911,46.9216309 C155.127809,47.8708544 155.267334,48.5102523 155.30249,48.8398438 L155.355225,48.8398438 C155.403565,48.5893542 155.481567,48.2652608 155.589233,47.8675537 C155.6969,47.4698466 155.790283,47.1545422 155.869385,46.9216309 L157.194336,42.7753906 L158.380859,42.7753906 L159.672852,46.9216309 C159.918947,47.677494 160.085937,48.3124974 160.173828,48.8266602 L160.226562,48.8266602 C160.244141,48.6684562 160.291381,48.4245622 160.368286,48.0949707 C160.445191,47.7653792 160.903316,45.9922036 161.742676,42.7753906 L162.876465,42.7753906 L160.87915,50 L159.580566,50 Z M173.588135,50 L172.263184,45.7614746 C172.179687,45.502196 172.023683,44.9133347 171.795166,43.994873 L171.742432,43.994873 C171.56665,44.7639199 171.412842,45.3571756 171.281006,45.7746582 L169.916504,50 L168.650879,50 L166.679932,42.7753906 L167.826904,42.7753906 C168.292727,44.5903411 168.647582,45.9724074 168.891479,46.9216309 C169.135377,47.8708544 169.274902,48.5102523 169.310059,48.8398438 L169.362793,48.8398438 C169.411133,48.5893542 169.489135,48.2652608 169.596802,47.8675537 C169.704468,47.4698466 169.797851,47.1545422 169.876953,46.9216309 L171.201904,42.7753906 L172.388428,42.7753906 L173.68042,46.9216309 C173.926515,47.677494 174.093505,48.3124974 174.181396,48.8266602 L174.234131,48.8266602 C174.251709,48.6684562 174.29895,48.4245622 174.375854,48.0949707 C174.452759,47.7653792 174.910884,45.9922036 175.750244,42.7753906 L176.884033,42.7753906 L174.886719,50 L173.588135,50 Z M183.133057,50 L183.133057,45.326416 C183.133057,44.7375459 182.999025,44.2980972 182.730957,44.0080566 C182.462889,43.7180161 182.043216,43.572998 181.471924,43.572998 C180.711666,43.572998 180.156862,43.779539 179.807495,44.192627 C179.458128,44.605715 179.283447,45.282466 179.283447,46.2229004 L179.283447,50 L178.189209,50 L178.189209,39.7431641 L179.283447,39.7431641 L179.283447,42.8479004 C179.283447,43.2214374 179.265869,43.5312488 179.230713,43.7773438 L179.296631,43.7773438 C179.511964,43.430174 179.818479,43.1566172 180.216187,42.956665 C180.613894,42.7567129 181.067624,42.6567383 181.577393,42.6567383 C182.460698,42.6567383 183.123167,42.8665751 183.564819,43.2862549 C184.006472,43.7059347 184.227295,44.3727982 184.227295,45.2868652 L184.227295,50 L183.133057,50 Z M189.5271,50.1318359 C188.459223,50.1318359 187.61658,49.8066439 186.999146,49.15625 C186.381711,48.5058561 186.072998,47.602789 186.072998,46.4470215 C186.072998,45.2824649 186.359738,44.3574253 186.933228,43.671875 C187.506717,42.9863247 188.276851,42.6435547 189.243652,42.6435547 C190.14893,42.6435547 190.865232,42.9412812 191.392578,43.5367432 C191.919925,44.1322051 192.183594,44.9177197 192.183594,45.8933105 L192.183594,46.5854492 L187.206787,46.5854492 C187.22876,47.433598 187.442991,48.0773904 187.849487,48.5168457 C188.255983,48.956301 188.828365,49.1760254 189.56665,49.1760254 C190.344486,49.1760254 191.113522,49.0134294 191.873779,48.6882324 L191.873779,49.6638184 C191.487059,49.8308114 191.121218,49.9505612 190.776245,50.0230713 C190.431273,50.0955814 190.014895,50.1318359 189.5271,50.1318359 Z M189.230469,43.5598145 C188.650388,43.5598145 188.187868,43.7487774 187.842896,44.126709 C187.497923,44.5046406 187.294678,45.0275846 187.233154,45.6955566 L191.010254,45.6955566 C191.010254,45.0056118 190.856447,44.4771747 190.548828,44.1102295 C190.241209,43.7432843 189.801761,43.5598145 189.230469,43.5598145 Z M198.99292,50 L198.99292,45.326416 C198.99292,44.7375459 198.858888,44.2980972 198.59082,44.0080566 C198.322753,43.7180161 197.903079,43.572998 197.331787,43.572998 C196.575924,43.572998 196.022219,43.7773417 195.670654,44.1860352 C195.31909,44.5947286 195.143311,45.2692824 195.143311,46.2097168 L195.143311,50 L194.049072,50 L194.049072,42.7753906 L194.938965,42.7753906 L195.116943,43.7641602 L195.169678,43.7641602 C195.3938,43.4082013 195.708006,43.1324473 196.112305,42.9368896 C196.516604,42.741332 196.967039,42.6435547 197.463623,42.6435547 C198.333745,42.6435547 198.988523,42.8533915 199.427979,43.2730713 C199.867434,43.6927511 200.087158,44.3640091 200.087158,45.2868652 L200.087158,50 L198.99292,50 Z M208.175293,49.2287598 C208.368653,49.2287598 208.555419,49.2144777 208.735596,49.1859131 C208.915772,49.1573485 209.058593,49.1276857 209.164062,49.0969238 L209.164062,49.934082 C209.04541,49.9912112 208.870729,50.038452 208.640015,50.0758057 C208.409301,50.1131594 208.201661,50.1318359 208.01709,50.1318359 C206.619622,50.1318359 205.920898,49.3957593 205.920898,47.923584 L205.920898,43.6257324 L204.885986,43.6257324 L204.885986,43.0983887 L205.920898,42.6435547 L206.382324,41.1010742 L207.015137,41.1010742 L207.015137,42.7753906 L209.111328,42.7753906 L209.111328,43.6257324 L207.015137,43.6257324 L207.015137,47.8774414 C207.015137,48.3125022 207.118407,48.6464832 207.324951,48.8793945 C207.531495,49.1123059 207.81494,49.2287598 208.175293,49.2287598 Z M215.551514,50 L215.551514,45.326416 C215.551514,44.7375459 215.417482,44.2980972 215.149414,44.0080566 C214.881346,43.7180161 214.461673,43.572998 213.890381,43.572998 C213.130123,43.572998 212.575319,43.779539 212.225952,44.192627 C211.876585,44.605715 211.701904,45.282466 211.701904,46.2229004 L211.701904,50 L210.607666,50 L210.607666,39.7431641 L211.701904,39.7431641 L211.701904,42.8479004 C211.701904,43.2214374 211.684326,43.5312488 211.64917,43.7773438 L211.715088,43.7773438 C211.930421,43.430174 212.236936,43.1566172 212.634644,42.956665 C213.032351,42.7567129 213.486081,42.6567383 213.99585,42.6567383 C214.879155,42.6567383 215.541624,42.8665751 215.983276,43.2862549 C216.424929,43.7059347 216.645752,44.3727982 216.645752,45.2868652 L216.645752,50 L215.551514,50 Z M221.945557,50.1318359 C220.87768,50.1318359 220.035037,49.8066439 219.417603,49.15625 C218.800168,48.5058561 218.491455,47.602789 218.491455,46.4470215 C218.491455,45.2824649 218.778195,44.3574253 219.351685,43.671875 C219.925174,42.9863247 220.695308,42.6435547 221.662109,42.6435547 C222.567387,42.6435547 223.283689,42.9412812 223.811035,43.5367432 C224.338382,44.1322051 224.602051,44.9177197 224.602051,45.8933105 L224.602051,46.5854492 L219.625244,46.5854492 C219.647217,47.433598 219.861448,48.0773904 220.267944,48.5168457 C220.674441,48.956301 221.246822,49.1760254 221.985107,49.1760254 C222.762943,49.1760254 223.531979,49.0134294 224.292236,48.6882324 L224.292236,49.6638184 C223.905516,49.8308114 223.539675,49.9505612 223.194702,50.0230713 C222.84973,50.0955814 222.433352,50.1318359 221.945557,50.1318359 Z M221.648926,43.5598145 C221.068845,43.5598145 220.606325,43.7487774 220.261353,44.126709 C219.91638,44.5046406 219.713135,45.0275846 219.651611,45.6955566 L223.428711,45.6955566 C223.428711,45.0056118 223.274904,44.4771747 222.967285,44.1102295 C222.659666,43.7432843 222.220218,43.5598145 221.648926,43.5598145 Z M78.072998,60.7753906 L78.072998,61.4675293 L76.7348633,61.6257324 C76.8579108,61.7795418 76.967773,61.9805896 77.0644531,62.2288818 C77.1611333,62.4771741 77.2094727,62.7573227 77.2094727,63.0693359 C77.2094727,63.776859 76.9677759,64.3415506 76.484375,64.7634277 C76.0009741,65.1853048 75.3374066,65.3962402 74.4936523,65.3962402 C74.2783192,65.3962402 74.0761728,65.3786623 73.887207,65.3435059 C73.4213844,65.5896008 73.1884766,65.8994122 73.1884766,66.2729492 C73.1884766,66.4707041 73.2697746,66.6168208 73.432373,66.7113037 C73.5949715,66.8057866 73.8740215,66.8530273 74.2695312,66.8530273 L75.5483398,66.8530273 C76.3305703,66.8530273 76.9315165,67.0178206 77.3511963,67.3474121 C77.7708761,67.6770036 77.9807129,68.1560027 77.9807129,68.7844238 C77.9807129,69.5842325 77.6599153,70.1939676 77.0183105,70.6136475 C76.3767058,71.0333273 75.44068,71.2431641 74.2102051,71.2431641 C73.2653761,71.2431641 72.5369899,71.0673846 72.0250244,70.7158203 C71.513059,70.3642561 71.2570801,69.867679 71.2570801,69.2260742 C71.2570801,68.7866189 71.3977037,68.4064957 71.6789551,68.0856934 C71.9602065,67.764891 72.3557103,67.5473639 72.8654785,67.4331055 C72.6809073,67.349609 72.5260016,67.2199716 72.4007568,67.0441895 C72.2755121,66.8684073 72.2128906,66.6640637 72.2128906,66.4311523 C72.2128906,66.1674792 72.2832024,65.9367686 72.4238281,65.7390137 C72.5644538,65.5412588 72.7863754,65.3500986 73.0895996,65.1655273 C72.7160626,65.011718 72.4117443,64.750246 72.1766357,64.3811035 C71.9415271,64.011961 71.8239746,63.5900903 71.8239746,63.1154785 C71.8239746,62.3244589 72.0612769,61.7147238 72.5358887,61.2862549 C73.0105004,60.8577859 73.682857,60.6435547 74.5529785,60.6435547 C74.9309101,60.6435547 75.2714829,60.6874996 75.574707,60.7753906 L78.072998,60.7753906 Z M72.3117676,69.2128906 C72.3117676,69.6040059 72.4765609,69.9006338 72.8061523,70.1027832 C73.1357438,70.3049327 73.6081512,70.4060059 74.2233887,70.4060059 C75.1418503,70.4060059 75.8218972,70.2686781 76.2635498,69.9940186 C76.7052024,69.719359 76.9260254,69.3469262 76.9260254,68.876709 C76.9260254,68.4855937 76.805177,68.2142342 76.5634766,68.0626221 C76.3217761,67.91101 75.8669467,67.8352051 75.1989746,67.8352051 L73.887207,67.8352051 C73.3906225,67.8352051 73.0039076,67.9538562 72.7270508,68.1911621 C72.4501939,68.428468 72.3117676,68.7690407 72.3117676,69.2128906 Z M72.9050293,63.0891113 C72.9050293,63.5944849 73.0478501,63.9768053 73.3334961,64.236084 C73.6191421,64.4953626 74.0168432,64.625 74.5266113,64.625 C75.5944878,64.625 76.128418,64.1064505 76.128418,63.0693359 C76.128418,61.9838813 75.587896,61.4411621 74.5068359,61.4411621 C73.9926732,61.4411621 73.5971694,61.5795885 73.3203125,61.8564453 C73.0434556,62.1333022 72.9050293,62.5441867 72.9050293,63.0891113 Z M85.7919922,64.3811035 C85.7919922,65.5588438 85.4953643,66.4783902 84.9020996,67.1397705 C84.3088349,67.8011508 83.489263,68.1318359 82.4433594,68.1318359 C81.7973601,68.1318359 81.2238795,67.9802261 80.7229004,67.677002 C80.2219213,67.3737778 79.8352064,66.9387235 79.5627441,66.3718262 C79.2902818,65.8049288 79.1540527,65.1413612 79.1540527,64.3811035 C79.1540527,63.2033633 79.4484834,62.286014 80.0373535,61.6290283 C80.6262236,60.9720426 81.4435983,60.6435547 82.489502,60.6435547 C83.5002492,60.6435547 84.3033417,60.979733 84.8988037,61.6520996 C85.4942657,62.3244663 85.7919922,63.2341251 85.7919922,64.3811035 Z M80.2878418,64.3811035 C80.2878418,65.3039597 80.4724103,66.0070777 80.8415527,66.4904785 C81.2106952,66.9738794 81.7534144,67.2155762 82.4697266,67.2155762 C83.1860387,67.2155762 83.7298565,66.974978 84.1011963,66.4937744 C84.472536,66.0125708 84.6582031,65.3083542 84.6582031,64.3811035 C84.6582031,63.4626419 84.472536,62.765017 84.1011963,62.288208 C83.7298565,61.811399 83.1816443,61.572998 82.456543,61.572998 C81.7402308,61.572998 81.1997089,61.8081031 80.8349609,62.2783203 C80.470213,62.7485375 80.2878418,63.4494582 80.2878418,64.3811035 Z M89.0219727,68 L86.2797852,60.7753906 L87.453125,60.7753906 L89.0087891,65.0600586 C89.3603533,66.0620167 89.5668942,66.7124008 89.628418,67.0112305 L89.6811523,67.0112305 C89.7294924,66.7783191 89.8822009,66.2960242 90.1392822,65.5643311 C90.3963636,64.8326379 90.97314,63.2363404 91.8696289,60.7753906 L93.0429688,60.7753906 L90.3007812,68 L89.0219727,68 Z M97.255127,68.1318359 C96.1872505,68.1318359 95.3446076,67.8066439 94.7271729,67.15625 C94.1097381,66.5058561 93.8010254,65.602789 93.8010254,64.4470215 C93.8010254,63.2824649 94.0877657,62.3574253 94.6612549,61.671875 C95.2347441,60.9863247 96.004878,60.6435547 96.9716797,60.6435547 C97.8769577,60.6435547 98.5932591,60.9412812 99.1206055,61.5367432 C99.6479519,62.1322051 99.9116211,62.9177197 99.9116211,63.8933105 L99.9116211,64.5854492 L94.9348145,64.5854492 C94.9567872,65.433598 95.1710185,66.0773904 95.5775146,66.5168457 C95.9840108,66.956301 96.5563928,67.1760254 97.2946777,67.1760254 C98.0725137,67.1760254 98.8415489,67.0134294 99.6018066,66.6882324 L99.6018066,67.6638184 C99.215086,67.8308114 98.8492449,67.9505612 98.5042725,68.0230713 C98.1593,68.0955814 97.7429224,68.1318359 97.255127,68.1318359 Z M96.9584961,61.5598145 C96.3784151,61.5598145 95.9158953,61.7487774 95.5709229,62.126709 C95.2259504,62.5046406 95.0227054,63.0275846 94.9611816,63.6955566 L98.7382812,63.6955566 C98.7382812,63.0056118 98.5844742,62.4771747 98.2768555,62.1102295 C97.9692367,61.7432843 97.529788,61.5598145 96.9584961,61.5598145 Z M105.072998,60.6435547 C105.3938,60.6435547 105.681639,60.6699216 105.936523,60.7226562 L105.784912,61.737793 C105.486082,61.6718747 105.222413,61.638916 104.993896,61.638916 C104.409421,61.638916 103.909548,61.8762183 103.494263,62.3508301 C103.078977,62.8254418 102.871338,63.4165004 102.871338,64.1240234 L102.871338,68 L101.7771,68 L101.7771,60.7753906 L102.680176,60.7753906 L102.80542,62.1135254 L102.858154,62.1135254 C103.126222,61.6433082 103.449217,61.280763 103.827148,61.0258789 C104.20508,60.7709948 104.620359,60.6435547 105.072998,60.6435547 Z M112.231689,68 L112.231689,63.326416 C112.231689,62.7375459 112.097658,62.2980972 111.82959,62.0080566 C111.561522,61.7180161 111.141849,61.572998 110.570557,61.572998 C109.814693,61.572998 109.260988,61.7773417 108.909424,62.1860352 C108.55786,62.5947286 108.38208,63.2692824 108.38208,64.2097168 L108.38208,68 L107.287842,68 L107.287842,60.7753906 L108.177734,60.7753906 L108.355713,61.7641602 L108.408447,61.7641602 C108.632569,61.4082013 108.946775,61.1324473 109.351074,60.9368896 C109.755373,60.741332 110.205808,60.6435547 110.702393,60.6435547 C111.572514,60.6435547 112.227293,60.8533915 112.666748,61.2730713 C113.106203,61.6927511 113.325928,62.3640091 113.325928,63.2868652 L113.325928,68 L112.231689,68 Z M124.782471,68 L124.782471,63.3000488 C124.782471,62.7243624 124.659425,62.292604 124.41333,62.0047607 C124.167235,61.7169175 123.784915,61.572998 123.266357,61.572998 C122.585202,61.572998 122.082033,61.7685527 121.756836,62.159668 C121.431639,62.5507832 121.269043,63.152828 121.269043,63.9658203 L121.269043,68 L120.174805,68 L120.174805,63.3000488 C120.174805,62.7243624 120.051759,62.292604 119.805664,62.0047607 C119.559569,61.7169175 119.175051,61.572998 118.6521,61.572998 C117.966549,61.572998 117.464479,61.7784403 117.145874,62.1893311 C116.827269,62.6002218 116.667969,63.273677 116.667969,64.2097168 L116.667969,68 L115.57373,68 L115.57373,60.7753906 L116.463623,60.7753906 L116.641602,61.7641602 L116.694336,61.7641602 C116.90088,61.4125959 117.192015,61.1379404 117.567749,60.9401855 C117.943483,60.7424307 118.364255,60.6435547 118.830078,60.6435547 C119.959478,60.6435547 120.697752,61.052242 121.044922,61.8696289 L121.097656,61.8696289 C121.312989,61.4916973 121.624998,61.1928722 122.033691,60.9731445 C122.442385,60.7534169 122.908201,60.6435547 123.431152,60.6435547 C124.248539,60.6435547 124.860472,60.8533915 125.266968,61.2730713 C125.673464,61.6927511 125.876709,62.3640091 125.876709,63.2868652 L125.876709,68 L124.782471,68 Z M131.183105,68.1318359 C130.115229,68.1318359 129.272586,67.8066439 128.655151,67.15625 C128.037717,66.5058561 127.729004,65.602789 127.729004,64.4470215 C127.729004,63.2824649 128.015744,62.3574253 128.589233,61.671875 C129.162723,60.9863247 129.932856,60.6435547 130.899658,60.6435547 C131.804936,60.6435547 132.521238,60.9412812 133.048584,61.5367432 C133.57593,62.1322051 133.8396,62.9177197 133.8396,63.8933105 L133.8396,64.5854492 L128.862793,64.5854492 C128.884766,65.433598 129.098997,66.0773904 129.505493,66.5168457 C129.911989,66.956301 130.484371,67.1760254 131.222656,67.1760254 C132.000492,67.1760254 132.769527,67.0134294 133.529785,66.6882324 L133.529785,67.6638184 C133.143064,67.8308114 132.777223,67.9505612 132.432251,68.0230713 C132.087279,68.0955814 131.670901,68.1318359 131.183105,68.1318359 Z M130.886475,61.5598145 C130.306394,61.5598145 129.843874,61.7487774 129.498901,62.126709 C129.153929,62.5046406 128.950684,63.0275846 128.88916,63.6955566 L132.66626,63.6955566 C132.66626,63.0056118 132.512453,62.4771747 132.204834,62.1102295 C131.897215,61.7432843 131.457767,61.5598145 130.886475,61.5598145 Z M140.648926,68 L140.648926,63.326416 C140.648926,62.7375459 140.514894,62.2980972 140.246826,62.0080566 C139.978758,61.7180161 139.559085,61.572998 138.987793,61.572998 C138.23193,61.572998 137.678224,61.7773417 137.32666,62.1860352 C136.975096,62.5947286 136.799316,63.2692824 136.799316,64.2097168 L136.799316,68 L135.705078,68 L135.705078,60.7753906 L136.594971,60.7753906 L136.772949,61.7641602 L136.825684,61.7641602 C137.049806,61.4082013 137.364012,61.1324473 137.768311,60.9368896 C138.172609,60.741332 138.623044,60.6435547 139.119629,60.6435547 C139.98975,60.6435547 140.644529,60.8533915 141.083984,61.2730713 C141.52344,61.6927511 141.743164,62.3640091 141.743164,63.2868652 L141.743164,68 L140.648926,68 Z M146.324463,67.2287598 C146.517823,67.2287598 146.704589,67.2144777 146.884766,67.1859131 C147.064942,67.1573485 147.207763,67.1276857 147.313232,67.0969238 L147.313232,67.934082 C147.194579,67.9912112 147.019899,68.038452 146.789185,68.0758057 C146.558471,68.1131594 146.350831,68.1318359 146.16626,68.1318359 C144.768792,68.1318359 144.070068,67.3957593 144.070068,65.923584 L144.070068,61.6257324 L143.035156,61.6257324 L143.035156,61.0983887 L144.070068,60.6435547 L144.531494,59.1010742 L145.164307,59.1010742 L145.164307,60.7753906 L147.260498,60.7753906 L147.260498,61.6257324 L145.164307,61.6257324 L145.164307,65.8774414 C145.164307,66.3125022 145.267577,66.6464832 145.474121,66.8793945 C145.680665,67.1123059 145.96411,67.2287598 146.324463,67.2287598 Z M158.16333,68 L156.838379,63.7614746 C156.754882,63.502196 156.598878,62.9133347 156.370361,61.994873 L156.317627,61.994873 C156.141845,62.7639199 155.988038,63.3571756 155.856201,63.7746582 L154.491699,68 L153.226074,68 L151.255127,60.7753906 L152.4021,60.7753906 C152.867922,62.5903411 153.222777,63.9724074 153.466675,64.9216309 C153.710573,65.8708544 153.850097,66.5102523 153.885254,66.8398438 L153.937988,66.8398438 C153.986328,66.5893542 154.064331,66.2652608 154.171997,65.8675537 C154.279664,65.4698466 154.373046,65.1545422 154.452148,64.9216309 L155.7771,60.7753906 L156.963623,60.7753906 L158.255615,64.9216309 C158.50171,65.677494 158.668701,66.3124974 158.756592,66.8266602 L158.809326,66.8266602 C158.826904,66.6684562 158.874145,66.4245622 158.95105,66.0949707 C159.027954,65.7653792 159.48608,63.9922036 160.325439,60.7753906 L161.459229,60.7753906 L159.461914,68 L158.16333,68 Z M167.207275,68 L166.989746,66.9716797 L166.937012,66.9716797 C166.576658,67.4243187 166.217409,67.7308342 165.859253,67.8912354 C165.501097,68.0516365 165.053958,68.1318359 164.517822,68.1318359 C163.80151,68.1318359 163.240114,67.9472675 162.833618,67.578125 C162.427122,67.2089825 162.223877,66.6838413 162.223877,66.0026855 C162.223877,64.5436939 163.390613,63.7790531 165.724121,63.7087402 L166.950195,63.6691895 L166.950195,63.2209473 C166.950195,62.6540499 166.828248,62.235475 166.584351,61.96521 C166.340453,61.6949449 165.950442,61.5598145 165.414307,61.5598145 C164.812253,61.5598145 164.131107,61.7443829 163.37085,62.1135254 L163.034668,61.2763672 C163.390627,61.0830068 163.780638,60.931397 164.204712,60.8215332 C164.628786,60.7116694 165.053953,60.6567383 165.480225,60.6567383 C166.341557,60.6567383 166.979856,60.8478985 167.395142,61.2302246 C167.810427,61.6125507 168.018066,62.2255817 168.018066,63.0693359 L168.018066,68 L167.207275,68 Z M164.735352,67.2287598 C165.416507,67.2287598 165.951536,67.0419941 166.340454,66.668457 C166.729372,66.29492 166.923828,65.771976 166.923828,65.0996094 L166.923828,64.4470215 L165.82959,64.4931641 C164.959468,64.5239259 164.332155,64.6590564 163.947632,64.8985596 C163.563108,65.1380627 163.37085,65.5104955 163.37085,66.0158691 C163.37085,66.4113789 163.490599,66.7124013 163.730103,66.9189453 C163.969606,67.1254893 164.304685,67.2287598 164.735352,67.2287598 Z M172.605957,67.2287598 C172.799317,67.2287598 172.986083,67.2144777 173.16626,67.1859131 C173.346436,67.1573485 173.489257,67.1276857 173.594727,67.0969238 L173.594727,67.934082 C173.476074,67.9912112 173.301393,68.038452 173.070679,68.0758057 C172.839965,68.1131594 172.632325,68.1318359 172.447754,68.1318359 C171.050286,68.1318359 170.351562,67.3957593 170.351562,65.923584 L170.351562,61.6257324 L169.31665,61.6257324 L169.31665,61.0983887 L170.351562,60.6435547 L170.812988,59.1010742 L171.445801,59.1010742 L171.445801,60.7753906 L173.541992,60.7753906 L173.541992,61.6257324 L171.445801,61.6257324 L171.445801,65.8774414 C171.445801,66.3125022 171.549071,66.6464832 171.755615,66.8793945 C171.962159,67.1123059 172.245604,67.2287598 172.605957,67.2287598 Z M178.090332,68.1318359 C177.022456,68.1318359 176.179813,67.8066439 175.562378,67.15625 C174.944943,66.5058561 174.63623,65.602789 174.63623,64.4470215 C174.63623,63.2824649 174.922971,62.3574253 175.49646,61.671875 C176.069949,60.9863247 176.840083,60.6435547 177.806885,60.6435547 C178.712163,60.6435547 179.428464,60.9412812 179.955811,61.5367432 C180.483157,62.1322051 180.746826,62.9177197 180.746826,63.8933105 L180.746826,64.5854492 L175.77002,64.5854492 C175.791992,65.433598 176.006224,66.0773904 176.41272,66.5168457 C176.819216,66.956301 177.391598,67.1760254 178.129883,67.1760254 C178.907719,67.1760254 179.676754,67.0134294 180.437012,66.6882324 L180.437012,67.6638184 C180.050291,67.8308114 179.68445,67.9505612 179.339478,68.0230713 C178.994505,68.0955814 178.578127,68.1318359 178.090332,68.1318359 Z M177.793701,61.5598145 C177.21362,61.5598145 176.7511,61.7487774 176.406128,62.126709 C176.061156,62.5046406 175.85791,63.0275846 175.796387,63.6955566 L179.573486,63.6955566 C179.573486,63.0056118 179.419679,62.4771747 179.112061,62.1102295 C178.804442,61.7432843 178.364993,61.5598145 177.793701,61.5598145 Z M185.908203,60.6435547 C186.229006,60.6435547 186.516844,60.6699216 186.771729,60.7226562 L186.620117,61.737793 C186.321288,61.6718747 186.057618,61.638916 185.829102,61.638916 C185.244626,61.638916 184.744753,61.8762183 184.329468,62.3508301 C183.914182,62.8254418 183.706543,63.4165004 183.706543,64.1240234 L183.706543,68 L182.612305,68 L182.612305,60.7753906 L183.515381,60.7753906 L183.640625,62.1135254 L183.693359,62.1135254 C183.961427,61.6433082 184.284422,61.280763 184.662354,61.0258789 C185.040285,60.7709948 185.455564,60.6435547 185.908203,60.6435547 Z M196.290283,66.0290527 C196.290283,66.7014194 196.039797,67.2199689 195.538818,67.5847168 C195.037839,67.9494647 194.334721,68.1318359 193.429443,68.1318359 C192.471431,68.1318359 191.724368,67.9802261 191.188232,67.677002 L191.188232,66.6618652 C191.535402,66.8376474 191.907835,66.9760737 192.305542,67.0771484 C192.703249,67.1782232 193.086668,67.2287598 193.455811,67.2287598 C194.027102,67.2287598 194.466551,67.1375742 194.77417,66.9552002 C195.081789,66.7728262 195.235596,66.4948749 195.235596,66.1213379 C195.235596,65.8400865 195.113649,65.5994883 194.869751,65.3995361 C194.625853,65.199584 194.15015,64.9633803 193.442627,64.690918 C192.77026,64.4404284 192.29236,64.2218027 192.008911,64.0350342 C191.725462,63.8482657 191.514527,63.6362317 191.376099,63.3989258 C191.23767,63.1616199 191.168457,62.8781755 191.168457,62.548584 C191.168457,61.9597139 191.407957,61.4949968 191.886963,61.1544189 C192.365969,60.8138411 193.022945,60.6435547 193.85791,60.6435547 C194.635746,60.6435547 195.395992,60.8017562 196.138672,61.1181641 L195.749756,62.0080566 C195.024655,61.709227 194.367679,61.5598145 193.778809,61.5598145 C193.260251,61.5598145 192.869142,61.6411125 192.605469,61.8037109 C192.341796,61.9663094 192.209961,62.1904283 192.209961,62.4760742 C192.209961,62.6694346 192.259399,62.8342278 192.358276,62.970459 C192.457154,63.1066901 192.616454,63.2363275 192.836182,63.359375 C193.055909,63.4824225 193.47778,63.6603992 194.101807,63.8933105 C194.958745,64.2053238 195.537718,64.5195297 195.838745,64.8359375 C196.139772,65.1523453 196.290283,65.5500464 196.290283,66.0290527 Z M199.098389,60.7753906 L199.098389,65.4621582 C199.098389,66.0510283 199.232421,66.4904771 199.500488,66.7805176 C199.768556,67.0705581 200.18823,67.2155762 200.759521,67.2155762 C201.515385,67.2155762 202.067991,67.0090353 202.417358,66.5959473 C202.766725,66.1828593 202.941406,65.5083055 202.941406,64.5722656 L202.941406,60.7753906 L204.035645,60.7753906 L204.035645,68 L203.132568,68 L202.974365,67.0310059 L202.915039,67.0310059 C202.690917,67.3869647 202.380007,67.6594229 201.9823,67.8483887 C201.584593,68.0373545 201.130862,68.1318359 200.621094,68.1318359 C199.742183,68.1318359 199.084109,67.9230978 198.646851,67.5056152 C198.209593,67.0881327 197.990967,66.4201706 197.990967,65.501709 L197.990967,60.7753906 L199.098389,60.7753906 Z M209.717773,68.1318359 C209.247556,68.1318359 208.817995,68.0450448 208.429077,67.87146 C208.040159,67.6978751 207.713869,67.43091 207.450195,67.0705566 L207.371094,67.0705566 C207.423828,67.4924338 207.450195,67.8923321 207.450195,68.2702637 L207.450195,71.2431641 L206.355957,71.2431641 L206.355957,60.7753906 L207.24585,60.7753906 L207.397461,61.7641602 L207.450195,61.7641602 C207.731447,61.3686504 208.058836,61.0830087 208.432373,60.9072266 C208.80591,60.7314444 209.234373,60.6435547 209.717773,60.6435547 C210.675786,60.6435547 211.415159,60.970944 211.935913,61.6257324 C212.456668,62.2805209 212.717041,63.1989687 212.717041,64.3811035 C212.717041,65.5676329 212.452273,66.4893766 211.922729,67.1463623 C211.393186,67.803348 210.658208,68.1318359 209.717773,68.1318359 Z M209.55957,61.572998 C208.821285,61.572998 208.287355,61.7773417 207.957764,62.1860352 C207.628172,62.5947286 207.458984,63.2451127 207.450195,64.137207 L207.450195,64.3811035 C207.450195,65.3962453 207.619383,66.1224343 207.957764,66.5596924 C208.296144,66.9969504 208.838863,67.2155762 209.585938,67.2155762 C210.209964,67.2155762 210.698851,66.9628932 211.052612,66.4575195 C211.406374,65.9521459 211.583252,65.2556197 211.583252,64.3679199 C211.583252,63.4670365 211.406374,62.7760034 211.052612,62.2947998 C210.698851,61.8135962 210.201175,61.572998 209.55957,61.572998 Z M217.990479,68.1318359 C217.520261,68.1318359 217.0907,68.0450448 216.701782,67.87146 C216.312864,67.6978751 215.986574,67.43091 215.7229,67.0705566 L215.643799,67.0705566 C215.696533,67.4924338 215.7229,67.8923321 215.7229,68.2702637 L215.7229,71.2431641 L214.628662,71.2431641 L214.628662,60.7753906 L215.518555,60.7753906 L215.670166,61.7641602 L215.7229,61.7641602 C216.004152,61.3686504 216.331541,61.0830087 216.705078,60.9072266 C217.078615,60.7314444 217.507078,60.6435547 217.990479,60.6435547 C218.948491,60.6435547 219.687864,60.970944 220.208618,61.6257324 C220.729373,62.2805209 220.989746,63.1989687 220.989746,64.3811035 C220.989746,65.5676329 220.724978,66.4893766 220.195435,67.1463623 C219.665891,67.803348 218.930913,68.1318359 217.990479,68.1318359 Z M217.832275,61.572998 C217.09399,61.572998 216.56006,61.7773417 216.230469,62.1860352 C215.900877,62.5947286 215.731689,63.2451127 215.7229,64.137207 L215.7229,64.3811035 C215.7229,65.3962453 215.892088,66.1224343 216.230469,66.5596924 C216.568849,66.9969504 217.111569,67.2155762 217.858643,67.2155762 C218.482669,67.2155762 218.971556,66.9628932 219.325317,66.4575195 C219.679079,65.9521459 219.855957,65.2556197 219.855957,64.3679199 C219.855957,63.4670365 219.679079,62.7760034 219.325317,62.2947998 C218.971556,61.8135962 218.47388,61.572998 217.832275,61.572998 Z M223.995605,68 L222.901367,68 L222.901367,57.7431641 L223.995605,57.7431641 L223.995605,68 Z M225.168945,60.7753906 L226.342285,60.7753906 L227.924316,64.8952637 C228.271486,65.8356981 228.486816,66.5146464 228.570312,66.9321289 L228.623047,66.9321289 C228.680176,66.7080067 228.799926,66.3245877 228.9823,65.7818604 C229.164674,65.239133 229.761225,63.5703265 230.771973,60.7753906 L231.945312,60.7753906 L228.840576,69.0019531 C228.532957,69.8149455 228.173708,70.3917219 227.762817,70.7322998 C227.351927,71.0728777 226.847659,71.2431641 226.25,71.2431641 C225.916014,71.2431641 225.586427,71.2058109 225.26123,71.1311035 L225.26123,70.2543945 C225.502931,70.3071292 225.773192,70.3334961 226.072021,70.3334961 C226.82349,70.3334961 227.359618,69.9116253 227.68042,69.0678711 L228.08252,68.0395508 L225.168945,60.7753906 Z M237.719727,68 L236.625488,68 L236.625488,60.7753906 L237.719727,60.7753906 L237.719727,68 Z M236.533203,58.817627 C236.533203,58.5671374 236.594726,58.3836676 236.717773,58.2672119 C236.840821,58.1507563 236.994628,58.0925293 237.179199,58.0925293 C237.354981,58.0925293 237.506591,58.1518549 237.634033,58.2705078 C237.761475,58.3891607 237.825195,58.571532 237.825195,58.817627 C237.825195,59.0637219 237.761475,59.2471918 237.634033,59.368042 C237.506591,59.4888922 237.354981,59.5493164 237.179199,59.5493164 C236.994628,59.5493164 236.840821,59.4888922 236.717773,59.368042 C236.594726,59.2471918 236.533203,59.0637219 236.533203,58.817627 Z M244.700439,66.0290527 C244.700439,66.7014194 244.449954,67.2199689 243.948975,67.5847168 C243.447996,67.9494647 242.744878,68.1318359 241.8396,68.1318359 C240.881587,68.1318359 240.134524,67.9802261 239.598389,67.677002 L239.598389,66.6618652 C239.945558,66.8376474 240.317991,66.9760737 240.715698,67.0771484 C241.113405,67.1782232 241.496824,67.2287598 241.865967,67.2287598 C242.437259,67.2287598 242.876707,67.1375742 243.184326,66.9552002 C243.491945,66.7728262 243.645752,66.4948749 243.645752,66.1213379 C243.645752,65.8400865 243.523805,65.5994883 243.279907,65.3995361 C243.03601,65.199584 242.560306,64.9633803 241.852783,64.690918 C241.180417,64.4404284 240.702516,64.2218027 240.419067,64.0350342 C240.135619,63.8482657 239.924683,63.6362317 239.786255,63.3989258 C239.647826,63.1616199 239.578613,62.8781755 239.578613,62.548584 C239.578613,61.9597139 239.818113,61.4949968 240.297119,61.1544189 C240.776125,60.8138411 241.433101,60.6435547 242.268066,60.6435547 C243.045902,60.6435547 243.806149,60.8017562 244.548828,61.1181641 L244.159912,62.0080566 C243.434811,61.709227 242.777835,61.5598145 242.188965,61.5598145 C241.670408,61.5598145 241.279298,61.6411125 241.015625,61.8037109 C240.751952,61.9663094 240.620117,62.1904283 240.620117,62.4760742 C240.620117,62.6694346 240.669555,62.8342278 240.768433,62.970459 C240.86731,63.1066901 241.02661,63.2363275 241.246338,63.359375 C241.466066,63.4824225 241.887936,63.6603992 242.511963,63.8933105 C243.368901,64.2053238 243.947874,64.5195297 244.248901,64.8359375 C244.549928,65.1523453 244.700439,65.5500464 244.700439,66.0290527 Z M76.6030273,86 L76.385498,84.9716797 L76.3327637,84.9716797 C75.9724103,85.4243187 75.613161,85.7308342 75.2550049,85.8912354 C74.8968488,86.0516365 74.4497097,86.1318359 73.9135742,86.1318359 C73.197262,86.1318359 72.6358663,85.9472675 72.2293701,85.578125 C71.8228739,85.2089825 71.6196289,84.6838413 71.6196289,84.0026855 C71.6196289,82.5436939 72.7863653,81.7790531 75.119873,81.7087402 L76.3459473,81.6691895 L76.3459473,81.2209473 C76.3459473,80.6540499 76.2240002,80.235475 75.9801025,79.96521 C75.7362048,79.6949449 75.3461941,79.5598145 74.8100586,79.5598145 C74.2080048,79.5598145 73.5268593,79.7443829 72.7666016,80.1135254 L72.4304199,79.2763672 C72.7863787,79.0830068 73.1763895,78.931397 73.6004639,78.8215332 C74.0245383,78.7116694 74.4497049,78.6567383 74.8759766,78.6567383 C75.737309,78.6567383 76.3756083,78.8478985 76.7908936,79.2302246 C77.2061788,79.6125507 77.4138184,80.2255817 77.4138184,81.0693359 L77.4138184,86 L76.6030273,86 Z M74.1311035,85.2287598 C74.8122593,85.2287598 75.3472881,85.0419941 75.7362061,84.668457 C76.125124,84.29492 76.3195801,83.771976 76.3195801,83.0996094 L76.3195801,82.4470215 L75.2253418,82.4931641 C74.3552203,82.5239259 73.7279072,82.6590564 73.3433838,82.8985596 C72.9588604,83.1380627 72.7666016,83.5104955 72.7666016,84.0158691 C72.7666016,84.4113789 72.8863513,84.7124013 73.1258545,84.9189453 C73.3653576,85.1254893 73.7004373,85.2287598 74.1311035,85.2287598 Z M81.2502441,86 L78.5080566,78.7753906 L79.6813965,78.7753906 L81.2370605,83.0600586 C81.5886248,84.0620167 81.7951657,84.7124008 81.8566895,85.0112305 L81.9094238,85.0112305 C81.9577639,84.7783191 82.1104723,84.2960242 82.3675537,83.5643311 C82.6246351,82.8326379 83.2014115,81.2363404 84.0979004,78.7753906 L85.2712402,78.7753906 L82.5290527,86 L81.2502441,86 Z M90.8742676,86 L90.6567383,84.9716797 L90.6040039,84.9716797 C90.2436505,85.4243187 89.8844012,85.7308342 89.5262451,85.8912354 C89.168089,86.0516365 88.7209499,86.1318359 88.1848145,86.1318359 C87.4685023,86.1318359 86.9071065,85.9472675 86.5006104,85.578125 C86.0941142,85.2089825 85.8908691,84.6838413 85.8908691,84.0026855 C85.8908691,82.5436939 87.0576055,81.7790531 89.3911133,81.7087402 L90.6171875,81.6691895 L90.6171875,81.2209473 C90.6171875,80.6540499 90.4952405,80.235475 90.2513428,79.96521 C90.0074451,79.6949449 89.6174343,79.5598145 89.0812988,79.5598145 C88.479245,79.5598145 87.7980995,79.7443829 87.0378418,80.1135254 L86.7016602,79.2763672 C87.057619,79.0830068 87.4476297,78.931397 87.8717041,78.8215332 C88.2957785,78.7116694 88.7209451,78.6567383 89.1472168,78.6567383 C90.0085492,78.6567383 90.6468485,78.8478985 91.0621338,79.2302246 C91.4774191,79.6125507 91.6850586,80.2255817 91.6850586,81.0693359 L91.6850586,86 L90.8742676,86 Z M88.4023438,85.2287598 C89.0834995,85.2287598 89.6185283,85.0419941 90.0074463,84.668457 C90.3963642,84.29492 90.5908203,83.771976 90.5908203,83.0996094 L90.5908203,82.4470215 L89.496582,82.4931641 C88.6264605,82.5239259 87.9991474,82.6590564 87.614624,82.8985596 C87.2301006,83.1380627 87.0378418,83.5104955 87.0378418,84.0158691 C87.0378418,84.4113789 87.1575916,84.7124013 87.3970947,84.9189453 C87.6365979,85.1254893 87.9716775,85.2287598 88.4023438,85.2287598 Z M95.0336914,86 L93.9394531,86 L93.9394531,78.7753906 L95.0336914,78.7753906 L95.0336914,86 Z M93.847168,76.817627 C93.847168,76.5671374 93.9086908,76.3836676 94.0317383,76.2672119 C94.1547858,76.1507563 94.3085928,76.0925293 94.4931641,76.0925293 C94.6689462,76.0925293 94.820556,76.1518549 94.947998,76.2705078 C95.0754401,76.3891607 95.1391602,76.571532 95.1391602,76.817627 C95.1391602,77.0637219 95.0754401,77.2471918 94.947998,77.368042 C94.820556,77.4888922 94.6689462,77.5493164 94.4931641,77.5493164 C94.3085928,77.5493164 94.1547858,77.4888922 94.0317383,77.368042 C93.9086908,77.2471918 93.847168,77.0637219 93.847168,76.817627 Z M98.4482422,86 L97.3540039,86 L97.3540039,75.7431641 L98.4482422,75.7431641 L98.4482422,86 Z M105.211426,86 L104.993896,84.9716797 L104.941162,84.9716797 C104.580809,85.4243187 104.221559,85.7308342 103.863403,85.8912354 C103.505247,86.0516365 103.058108,86.1318359 102.521973,86.1318359 C101.80566,86.1318359 101.244265,85.9472675 100.837769,85.578125 C100.431272,85.2089825 100.228027,84.6838413 100.228027,84.0026855 C100.228027,82.5436939 101.394764,81.7790531 103.728271,81.7087402 L104.954346,81.6691895 L104.954346,81.2209473 C104.954346,80.6540499 104.832399,80.235475 104.588501,79.96521 C104.344603,79.6949449 103.954593,79.5598145 103.418457,79.5598145 C102.816403,79.5598145 102.135258,79.7443829 101.375,80.1135254 L101.038818,79.2763672 C101.394777,79.0830068 101.784788,78.931397 102.208862,78.8215332 C102.632937,78.7116694 103.058103,78.6567383 103.484375,78.6567383 C104.345707,78.6567383 104.984007,78.8478985 105.399292,79.2302246 C105.814577,79.6125507 106.022217,80.2255817 106.022217,81.0693359 L106.022217,86 L105.211426,86 Z M102.739502,85.2287598 C103.420658,85.2287598 103.955687,85.0419941 104.344604,84.668457 C104.733522,84.29492 104.927979,83.771976 104.927979,83.0996094 L104.927979,82.4470215 L103.83374,82.4931641 C102.963619,82.5239259 102.336306,82.6590564 101.951782,82.8985596 C101.567259,83.1380627 101.375,83.5104955 101.375,84.0158691 C101.375,84.4113789 101.49475,84.7124013 101.734253,84.9189453 C101.973756,85.1254893 102.308836,85.2287598 102.739502,85.2287598 Z M111.638428,78.6567383 C112.587651,78.6567383 113.324826,78.9808317 113.849976,79.6290283 C114.375125,80.2772249 114.637695,81.1945741 114.637695,82.3811035 C114.637695,83.5676329 114.372927,84.4893766 113.843384,85.1463623 C113.31384,85.803348 112.578862,86.1318359 111.638428,86.1318359 C111.168211,86.1318359 110.738649,86.0450448 110.349731,85.87146 C109.960813,85.6978751 109.634523,85.43091 109.37085,85.0705566 L109.291748,85.0705566 L109.061035,86 L108.276611,86 L108.276611,75.7431641 L109.37085,75.7431641 L109.37085,78.2348633 C109.37085,78.7929715 109.353272,79.2939431 109.318115,79.737793 L109.37085,79.737793 C109.880618,79.0170862 110.63647,78.6567383 111.638428,78.6567383 Z M111.480225,79.572998 C110.733151,79.572998 110.194826,79.7872293 109.865234,80.2156982 C109.535643,80.6441672 109.37085,81.3659617 109.37085,82.3811035 C109.37085,83.3962453 109.540037,84.1224343 109.878418,84.5596924 C110.216799,84.9969504 110.759518,85.2155762 111.506592,85.2155762 C112.178958,85.2155762 112.67993,84.9705835 113.009521,84.4805908 C113.339113,83.9905981 113.503906,83.2863815 113.503906,82.3679199 C113.503906,81.4274855 113.339113,80.7265648 113.009521,80.2651367 C112.67993,79.8037086 112.170169,79.572998 111.480225,79.572998 Z M117.643555,86 L116.549316,86 L116.549316,75.7431641 L117.643555,75.7431641 L117.643555,86 Z M123.015869,86.1318359 C121.947993,86.1318359 121.10535,85.8066439 120.487915,85.15625 C119.87048,84.5058561 119.561768,83.602789 119.561768,82.4470215 C119.561768,81.2824649 119.848508,80.3574253 120.421997,79.671875 C120.995486,78.9863247 121.76562,78.6435547 122.732422,78.6435547 C123.6377,78.6435547 124.354001,78.9412812 124.881348,79.5367432 C125.408694,80.1322051 125.672363,80.9177197 125.672363,81.8933105 L125.672363,82.5854492 L120.695557,82.5854492 C120.717529,83.433598 120.931761,84.0773904 121.338257,84.5168457 C121.744753,84.956301 122.317135,85.1760254 123.05542,85.1760254 C123.833256,85.1760254 124.602291,85.0134294 125.362549,84.6882324 L125.362549,85.6638184 C124.975828,85.8308114 124.609987,85.9505612 124.265015,86.0230713 C123.920042,86.0955814 123.503665,86.1318359 123.015869,86.1318359 Z M122.719238,79.5598145 C122.139157,79.5598145 121.676637,79.7487774 121.331665,80.126709 C120.986693,80.5046406 120.783448,81.0275846 120.721924,81.6955566 L124.499023,81.6955566 C124.499023,81.0056118 124.345216,80.4771747 124.037598,80.1102295 C123.729979,79.7432843 123.29053,79.5598145 122.719238,79.5598145 Z" id="Iwanttoknowwhenthegovernmentwatersupplyisavailable" fill="#032A2F" fill-rule="nonzero"></path>
                    <g id="city_water_schedule" transform="translate(13.500000, 12.000000)">
                        <path d="M0.232247191,11.7215569 L39.75,11.7215569 L39.75,42.7518333 C39.75,43.9934615 38.7334391,45 37.4977932,45 L2.48445399,45 C1.24059452,45 0.232247191,43.9858717 0.232247191,42.7518333 L0.232247191,11.7215569 Z" id="Rectangle-15" fill="#026F8B"></path>
                        <path d="M0.232247191,7.41017964 C0.232247191,5.51273428 1.76926137,3.9745509 3.6700584,3.9745509 L36.3121888,3.9745509 C38.2108395,3.9745509 39.75,5.5165952 39.75,7.41017964 L39.75,10.8458084 L0.232247191,10.8458084 L0.232247191,7.41017964 Z" id="Rectangle-8" fill="#026F8B"></path>
                        <ellipse id="Oval-3" fill="#FFFFFF" cx="12.0656593" cy="8.08383234" rx="1.97223535" ry="1.81886228"></ellipse>
                        <ellipse id="Oval-3-Copy" fill="#FFFFFF" cx="28.1357251" cy="8.08383234" rx="1.97223535" ry="1.81886228"></ellipse>
                        <rect id="Rectangle-9" fill="#026F8B" x="11.1160645" y="0.0453816507" width="1.97223535" height="8.30791176" rx="0.986117676"></rect>
                        <rect id="Rectangle-9-Copy" fill="#026F8B" x="27.1861303" y="0.0453816507" width="1.97223535" height="8.30791176" rx="0.986117676"></rect>
                        <rect id="Rectangle-18-Copy-2" fill="#FFFFFF" x="3.08471546" y="14.1991988" width="10.57521" height="8.87377949"></rect>
                        <polygon id="Rectangle-18-Copy-5" fill="#FFFFFF" points="3.08471546 23.9238887 13.6599254 23.9238887 13.6599254 32.7976682 3.08471546 32.7976682"></polygon>
                        <rect id="Rectangle-18-Copy-8" fill="#FFFFFF" x="3.08471546" y="33.6485785" width="10.57521" height="8.87377949"></rect>
                        <rect id="Rectangle-18-Copy-3" fill="#FFFFFF" x="14.6838976" y="14.1991988" width="10.57521" height="8.87377949"></rect>
                        <polygon id="Rectangle-18-Copy-6" fill="#FFFFFF" points="14.6838976 23.9238887 25.2591076 23.9238887 25.2591076 32.7976682 14.6838976 32.7976682"></polygon>
                        <rect id="Rectangle-18-Copy-9" fill="#FFFFFF" x="14.6838976" y="33.6485785" width="10.57521" height="8.87377949"></rect>
                        <polygon id="Rectangle-18-Copy-4" fill="#FFFFFF" points="26.2830798 14.1991988 36.8582897 14.1991988 36.8582897 23.0729783 26.2830798 23.0729783"></polygon>
                        <polygon id="Rectangle-18-Copy-7" fill="#FFFFFF" points="26.2171753 23.9238887 36.7923853 23.9238887 36.7923853 32.7976682 26.2171753 32.7976682"></polygon>
                        <rect id="Rectangle-18-Copy-10" fill="#FFFFFF" x="26.2171753" y="33.6485785" width="10.57521" height="8.87377949"></rect>
                    </g>
                </g>
            </g>
        </g>
    </g>
</svg>