<svg xmlns="http://www.w3.org/2000/svg" xmlns:xlink="http://www.w3.org/1999/xlink" width="190" height="102" viewBox="0 0 190 102">
  <defs>
    <clipPath id="clip-path">
      <rect id="Rectangle_107" data-name="Rectangle 107" width="190" height="102" rx="3" transform="translate(19766 7918)" fill="#fff"/>
    </clipPath>
  </defs>
  <g id="Mask_Group_9" data-name="Mask Group 9" transform="translate(-19766 -7918)" clip-path="url(#clip-path)">
    <g id="Group_1317" data-name="Group 1317" transform="translate(19532 7855)">
      <rect id="Rectangle_233" data-name="Rectangle 233" width="190" height="102" rx="4" transform="translate(234 63)" fill="#ed6479"/>
      <g id="noun_training_2738403" transform="translate(274.39 60.63)">
        <path id="Path_88" data-name="Path 88" d="M24.376,35.722a8.465,8.465,0,1,1,8.465-8.465A8.467,8.467,0,0,1,24.376,35.722Zm28.249,4.227v0ZM10,44.2V60.291a4.2,4.2,0,0,0,4.193,4.238,3.841,3.841,0,0,0,2.5-.848V84.2a4.26,4.26,0,0,0,8.521,0,4.216,4.216,0,1,0,8.431,0v-40H48.3a4.163,4.163,0,1,0,0-8.32H31.413a12.411,12.411,0,0,1-7,2.465A11.027,11.027,0,0,1,17.45,35.8,8.448,8.448,0,0,0,10,44.2ZM50.618,86.187a1.319,1.319,0,0,0,0,1.862h0a1.319,1.319,0,0,0,1.862,0L68.272,72.258,84.064,88.05a1.319,1.319,0,0,0,1.862,0h0a1.319,1.319,0,0,0,0-1.862L69.2,69.458a1.319,1.319,0,0,0-1.862,0h0ZM41.372,46.874H37.357V62.533a4.139,4.139,0,0,0,4.138,4.115H95.027a4.17,4.17,0,0,0,4.182-4.115V24.77A4.139,4.139,0,0,0,95.027,20.7H74.841a1.969,1.969,0,0,0-1.974-1.929h-9.2A1.969,1.969,0,0,0,61.692,20.7h-20.2a4.094,4.094,0,0,0-4.138,4.071v8.42h4.015V24.77c0-.089.033-.056.123-.056H95.027c.089,0,.167-.045.167.056V62.533c0,.089-.078.245-.167.245H41.495c-.089,0-.123-.156-.123-.245V46.874Z" transform="translate(0 0)" fill="#fff" opacity="0.5"/>
        <g id="Ellipse_4" data-name="Ellipse 4" transform="translate(54.61 30.37)" fill="none" stroke="#fff" stroke-width="3" opacity="0.5">
          <circle cx="13.5" cy="13.5" r="13.5" stroke="none"/>
          <circle cx="13.5" cy="13.5" r="12" fill="none"/>
        </g>
        <path id="Path_89" data-name="Path 89" d="M62.924,35.2,78.315,49.436" transform="translate(-2.344 1.363)" fill="none" stroke="#fff" stroke-width="3" opacity="0.5"/>
      </g>
    </g>
  </g>
</svg>
