<svg xmlns="http://www.w3.org/2000/svg" xmlns:xlink="http://www.w3.org/1999/xlink" width="190" height="102" viewBox="0 0 190 102">
  <defs>
    <clipPath id="clip-path">
      <rect id="Rectangle_106" data-name="Rectangle 106" width="190" height="102" rx="3" transform="translate(19766 7918)" fill="#fff"/>
    </clipPath>
  </defs>
  <g id="Mask_Group_8" data-name="Mask Group 8" transform="translate(-19766 -7918)" clip-path="url(#clip-path)">
    <g id="Group_1317" data-name="Group 1317" transform="translate(19532 7855)">
      <rect id="Rectangle_233" data-name="Rectangle 233" width="190" height="102" rx="4" transform="translate(234 63)" fill="#20bf95"/>
      <path id="Path_87" data-name="Path 87" d="M-15.2,0h-9.18V-36.875q0-6.6.313-10.469-.9.938-2.207,2.07t-8.77,7.188l-4.609-5.82,16.8-13.2H-15.2ZM42.227-28.555q0,14.883-4.785,22.109T22.813.781Q13.281.781,8.359-6.68T3.438-28.555q0-15.117,4.785-22.285t14.59-7.168q9.57,0,14.492,7.5T42.227-28.555Zm-29.492,0q0,11.68,2.4,16.68a8.007,8.007,0,0,0,7.676,5q5.273,0,7.715-5.078t2.441-16.6q0-11.484-2.441-16.621t-7.715-5.137q-5.273,0-7.676,5.039T12.734-28.555Z" transform="translate(329 135)" fill="#fff" opacity="0.502"/>
      <path id="Path_86" data-name="Path 86" d="M-26.911,0l-2.846-9.1q-.269-.835-1.005-3.795h-.113q-.566,2.478-.991,3.823L-34.8,0h-2.719l-4.234-15.52h2.464q1.5,5.848,2.287,8.907a36.087,36.087,0,0,1,.9,4.121h.113q.156-.807.5-2.089t.6-2.032l2.846-8.907h2.549l2.775,8.907a30.062,30.062,0,0,1,1.076,4.092h.113a15.009,15.009,0,0,1,.3-1.572q.248-1.062,2.952-11.427h2.436L-24.122,0Zm16.44.283a7.13,7.13,0,0,1-5.43-2.1,8.113,8.113,0,0,1-1.99-5.82,9,9,0,0,1,1.848-5.961A6.138,6.138,0,0,1-11.08-15.8a5.853,5.853,0,0,1,4.616,1.919,7.354,7.354,0,0,1,1.7,5.062v1.487H-15.456a6.152,6.152,0,0,0,1.381,4.149A4.775,4.775,0,0,0-10.386-1.77,12.5,12.5,0,0,0-5.43-2.818v2.1A12.439,12.439,0,0,1-7.788.05,13.249,13.249,0,0,1-10.471.283Zm-.637-14.118a3.839,3.839,0,0,0-2.981,1.218,5.613,5.613,0,0,0-1.31,3.37h8.114a5.168,5.168,0,0,0-.991-3.406A3.489,3.489,0,0,0-11.109-13.834ZM5.8.283a7.13,7.13,0,0,1-5.43-2.1,8.113,8.113,0,0,1-1.99-5.82A9,9,0,0,1,.227-13.594,6.138,6.138,0,0,1,5.19-15.8a5.853,5.853,0,0,1,4.616,1.919,7.354,7.354,0,0,1,1.7,5.062v1.487H.814A6.152,6.152,0,0,0,2.195-3.186,4.775,4.775,0,0,0,5.884-1.77,12.5,12.5,0,0,0,10.84-2.818v2.1A12.439,12.439,0,0,1,8.482.05,13.249,13.249,0,0,1,5.8.283ZM5.161-13.834a3.839,3.839,0,0,0-2.981,1.218,5.613,5.613,0,0,0-1.31,3.37H8.985a5.168,5.168,0,0,0-.991-3.406A3.489,3.489,0,0,0,5.161-13.834ZM17.835-7.944a27.642,27.642,0,0,1,1.855-2.266L24.7-15.52h2.79L21.2-8.907,27.931,0H25.085L19.6-7.335l-1.77,1.529V0H15.512V-22.033h2.322v11.682q0,.779-.113,2.407Zm22.911,3.71A3.887,3.887,0,0,1,39.132-.892,7.588,7.588,0,0,1,34.6.283a9.853,9.853,0,0,1-4.814-.977V-2.875a11.643,11.643,0,0,0,2.4.892,10.023,10.023,0,0,0,2.471.326,5.6,5.6,0,0,0,2.832-.588,1.943,1.943,0,0,0,.991-1.791,1.944,1.944,0,0,0-.786-1.551,12.362,12.362,0,0,0-3.066-1.522,16.624,16.624,0,0,1-3.08-1.409,4.207,4.207,0,0,1-1.359-1.366,3.564,3.564,0,0,1-.446-1.827,3.482,3.482,0,0,1,1.543-2.995,7.192,7.192,0,0,1,4.234-1.1,12.388,12.388,0,0,1,4.9,1.02l-.835,1.912a11.246,11.246,0,0,0-4.234-.963,4.871,4.871,0,0,0-2.521.524,1.62,1.62,0,0,0-.85,1.444A1.759,1.759,0,0,0,32.3-10.8a3.144,3.144,0,0,0,1.027.835,22.942,22.942,0,0,0,2.719,1.147A10.157,10.157,0,0,1,39.776-6.8,3.571,3.571,0,0,1,40.746-4.234Z" transform="translate(334 162)" fill="#fff" opacity="0.502"/>
    </g>
  </g>
</svg>
