<svg xmlns="http://www.w3.org/2000/svg" xmlns:xlink="http://www.w3.org/1999/xlink" width="190" height="102" viewBox="0 0 190 102">
  <defs>
    <clipPath id="clip-path">
      <rect id="Rectangle_88" data-name="Rectangle 88" width="190" height="102" rx="3" transform="translate(19766 7918)" fill="#fff"/>
    </clipPath>
  </defs>
  <g id="_10w" data-name="10w" transform="translate(-19766 -7917)">
    <g id="Mask_Group_4" data-name="Mask Group 4" transform="translate(0 -1)" clip-path="url(#clip-path)">
      <g id="Group_1317" data-name="Group 1317" transform="translate(19532 7855)">
        <rect id="Rectangle_233" data-name="Rectangle 233" width="190" height="102" rx="4" transform="translate(234 63)" fill="#20bf95"/>
        <path id="Path_70" data-name="Path 70" d="M-15.2,0h-9.18V-36.875q0-6.6.313-10.469-.9.938-2.207,2.07t-8.77,7.188l-4.609-5.82,16.8-13.2H-15.2ZM42.227-28.555q0,14.883-4.785,22.109T22.813.781Q13.281.781,8.359-6.68T3.438-28.555q0-15.117,4.785-22.285t14.59-7.168q9.57,0,14.492,7.5T42.227-28.555Zm-29.492,0q0,11.68,2.4,16.68a8.007,8.007,0,0,0,7.676,5q5.273,0,7.715-5.078t2.441-16.6q0-11.484-2.441-16.621t-7.715-5.137q-5.273,0-7.676,5.039T12.734-28.555Z" transform="translate(329 135)" fill="#fff" opacity="0.502"/>
        <path id="Path_71" data-name="Path 71" d="M-25.29,0l-3.37-10.294q-.326-1.048-.835-3.073h-.085l-.3,1.048-.637,2.053L-33.942,0H-35.33l-4.4-15.392h1.5l2.464,8.921Q-34.9-3.158-34.636-1.6h.085q.835-3.313,1.218-4.4l3.172-9.388h1.274l3.016,9.36q1.02,3.328,1.246,4.4h.085q.113-.92,1.133-4.928l2.351-8.836h1.416L-23.817,0Zm14.882.283A6.707,6.707,0,0,1-15.64-1.784a8.309,8.309,0,0,1-1.876-5.792,9.029,9.029,0,0,1,1.813-5.9,5.982,5.982,0,0,1,4.885-2.216,5.275,5.275,0,0,1,4.291,1.9A7.835,7.835,0,0,1-4.956-8.638V-7.5H-16.043a7.282,7.282,0,0,0,1.48,4.843A5.208,5.208,0,0,0-10.408-.991a12.891,12.891,0,0,0,2.315-.184,14.069,14.069,0,0,0,2.528-.793V-.694A11.274,11.274,0,0,1-7.972.078,13.361,13.361,0,0,1-10.408.283Zm-.411-14.727a4.611,4.611,0,0,0-3.568,1.466,6.912,6.912,0,0,0-1.572,4.227h9.516A6.712,6.712,0,0,0-7.6-12.935,3.83,3.83,0,0,0-10.818-14.443ZM5.508.283A6.707,6.707,0,0,1,.276-1.784,8.309,8.309,0,0,1-1.6-7.576a9.029,9.029,0,0,1,1.813-5.9A5.982,5.982,0,0,1,5.1-15.689a5.275,5.275,0,0,1,4.291,1.9A7.835,7.835,0,0,1,10.96-8.638V-7.5H-.127a7.282,7.282,0,0,0,1.48,4.843A5.208,5.208,0,0,0,5.508-.991a12.891,12.891,0,0,0,2.315-.184,14.069,14.069,0,0,0,2.528-.793V-.694A11.274,11.274,0,0,1,7.944.078,13.361,13.361,0,0,1,5.508.283ZM5.1-14.443a4.611,4.611,0,0,0-3.568,1.466A6.912,6.912,0,0,0-.042-8.751H9.473a6.712,6.712,0,0,0-1.161-4.184A3.83,3.83,0,0,0,5.1-14.443ZM16.582-6.754l7.859-8.638h1.7l-6.061,6.57L26.664,0H24.979L19.13-7.774,16.61-5.48V0h-1.4V-22.033h1.4v11.045l-.1,4.234Zm22.2,2.747A3.659,3.659,0,0,1,37.213-.828,7.651,7.651,0,0,1,32.752.283a10.637,10.637,0,0,1-4.9-.949V-2.181a10.813,10.813,0,0,0,4.9,1.161,6.463,6.463,0,0,0,3.462-.758A2.3,2.3,0,0,0,37.4-3.795a2.459,2.459,0,0,0-.942-1.954,10.355,10.355,0,0,0-3.094-1.558,17.722,17.722,0,0,1-3.243-1.437A4.48,4.48,0,0,1,28.71-10.1a3.415,3.415,0,0,1-.474-1.848,3.157,3.157,0,0,1,1.451-2.733,7.052,7.052,0,0,1,4.057-1.005,12.147,12.147,0,0,1,4.729.935l-.524,1.274a11.092,11.092,0,0,0-4.206-.935,6.09,6.09,0,0,0-2.988.623,1.912,1.912,0,0,0-1.1,1.728,2.392,2.392,0,0,0,.857,1.926,11.943,11.943,0,0,0,3.349,1.614,16.478,16.478,0,0,1,3.03,1.352A4.4,4.4,0,0,1,38.31-5.806,3.341,3.341,0,0,1,38.785-4.007Z" transform="translate(334 162)" fill="#fff" opacity="0.502"/>
      </g>
    </g>
  </g>
</svg>
