<svg xmlns="http://www.w3.org/2000/svg" width="190" height="102" viewBox="0 0 190 102">
  <g id="Group_1320" data-name="Group 1320" transform="translate(-852 -63)">
    <rect id="Rectangle_236" data-name="Rectangle 236" width="190" height="102" rx="4" transform="translate(852 63)" fill="#a75be8"/>
    <path id="Path_68" data-name="Path 68" d="M-21.973-35.664q8.633,0,13.672,4.57t5.039,12.461q0,9.141-5.723,14.277T-25.254.781q-9.57,0-15.039-3.086v-8.32a27.573,27.573,0,0,0,7.266,2.773,33.022,33.022,0,0,0,7.617.977q6.211,0,9.453-2.773t3.242-8.125q0-10.234-13.047-10.234a34.193,34.193,0,0,0-4.531.371q-2.7.371-4.727.84l-4.1-2.422,2.188-27.891H-7.246v8.164h-21.6L-30.137-34.8q1.367-.234,3.34-.547A31.5,31.5,0,0,1-21.973-35.664ZM16.973-22.07,2.48-43.2H12.949l9.844,15.117L32.715-43.2H43.105L28.574-22.07,43.848,0H33.457L22.793-16.172,12.168,0H1.777Z" transform="translate(947 142)" fill="#fff" opacity="0.502"/>
  </g>
</svg>
