<svg xmlns="http://www.w3.org/2000/svg" width="190" height="102" viewBox="0 0 190 102">
  <g id="Group_1318" data-name="Group 1318" transform="translate(-440 -63)">
    <rect id="Rectangle_234" data-name="Rectangle 234" width="190" height="102" rx="4" transform="translate(440 63)" fill="#ed6479"/>
    <g id="noun_Less_Time_43229" data-name="noun_Less Time_43229" transform="translate(501.541 81)" opacity="0.498">
      <path id="Path_1032" data-name="Path 1032" d="M74.557,5.448a13.709,13.709,0,1,0,13.709,13.71A13.708,13.708,0,0,0,74.557,5.448Zm5.957,15.776H68.6a2.068,2.068,0,1,1,0-4.136H80.514a2.068,2.068,0,1,1,0,4.136Z" transform="translate(-20.817 -5.448)" fill="#fff"/>
      <path id="Path_1033" data-name="Path 1033" d="M50.656,40.163A22.291,22.291,0,0,1,52.6,47.83H48.189a1.659,1.659,0,0,0,0,3.317h4.4A22.336,22.336,0,0,1,31.78,71.721V67.558a1.66,1.66,0,0,0-3.319,0V71.7A22.339,22.339,0,0,1,8,51.147H12.05a1.659,1.659,0,0,0,0-3.317H7.984A22.347,22.347,0,0,1,28.46,27.121v4.3a1.66,1.66,0,0,0,3.319,0V27.093A22.2,22.2,0,0,1,41,29.786a17.086,17.086,0,0,1-.89-5.287A26.727,26.727,0,1,0,55.867,41.41,17.044,17.044,0,0,1,50.656,40.163Z" transform="translate(-3.5 -10.632)" fill="#fff"/>
      <path id="Path_1034" data-name="Path 1034" d="M41.125,61.992a1.751,1.751,0,1,0-1.752-1.749A1.749,1.749,0,0,0,41.125,61.992Z" transform="translate(-14.332 -21.465)" fill="#fff"/>
      <path id="Path_1035" data-name="Path 1035" d="M37.01,51.985a4.42,4.42,0,0,0-.757.069l-6.777-6.261a1.425,1.425,0,0,0-2.089,1.874l5.479,7.411a4.393,4.393,0,0,0-.177,1.227,4.307,4.307,0,0,0,.376,1.755L25.955,68.749a1.425,1.425,0,0,0,2.227,1.7l8.536-9.846c.1.008.193.019.292.019a4.32,4.32,0,0,0,0-8.641Zm0,7.279a2.961,2.961,0,1,1,2.964-2.959A2.96,2.96,0,0,1,37.008,59.264Z" transform="translate(-10.218 -17.528)" fill="#fff"/>
    </g>
  </g>
</svg>
