<svg xmlns="http://www.w3.org/2000/svg" width="190" height="102" viewBox="0 0 190 102">
  <g id="Group_1319" data-name="Group 1319" transform="translate(-646 -63)">
    <rect id="Rectangle_235" data-name="Rectangle 235" width="190" height="102" rx="4" transform="translate(646 63)" fill="#565bce"/>
    <g id="noun_turtle_1351271" transform="translate(700.404 91)" opacity="0.498">
      <g id="Group_1306" data-name="Group 1306">
        <g id="Group_1299" data-name="Group 1299" transform="translate(16.935 34.36)">
          <path id="Path_1026" data-name="Path 1026" d="M73.024,36.479H13.057a1.59,1.59,0,1,1,0-3.18H73.024a1.59,1.59,0,1,1,0,3.18Z" transform="translate(-11.467 -33.299)" fill="#fff"/>
        </g>
        <g id="Group_1300" data-name="Group 1300" transform="translate(13.76)">
          <path id="Path_1027" data-name="Path 1027" d="M66.88,49.227H14.234a1.589,1.589,0,0,1-1.346-.744,21.371,21.371,0,0,1-3.418-11.5c0-13.947,13.946-25.294,31.087-25.294S71.643,23.034,71.643,36.982a21.372,21.372,0,0,1-3.417,11.5A1.587,1.587,0,0,1,66.88,49.227Zm-51.746-3.18H65.98a18.054,18.054,0,0,0,2.483-9.066c0-12.194-12.519-22.114-27.906-22.114S12.65,24.787,12.65,36.982A18.055,18.055,0,0,0,15.134,46.047Z" transform="translate(-9.47 -11.688)" fill="#fff"/>
        </g>
        <g id="Group_1301" data-name="Group 1301" transform="translate(0 15.986)">
          <path id="Path_1028" data-name="Path 1028" d="M16.752,38.945H9.658a8.991,8.991,0,0,1-6.23-2.49A8.5,8.5,0,0,1,.815,30.344a8.735,8.735,0,0,1,8.843-8.6h7.134a2.961,2.961,0,0,1,1.037.171A1.591,1.591,0,0,1,16.8,24.924l-7.145,0A5.553,5.553,0,0,0,4,30.344,5.337,5.337,0,0,0,5.639,34.17a5.813,5.813,0,0,0,4.02,1.6h7.094a1.59,1.59,0,0,1,0,3.18Z" transform="translate(-0.815 -21.742)" fill="#fff"/>
        </g>
        <g id="Group_1302" data-name="Group 1302" transform="translate(5.756 23.019)">
          <path id="Path_1029" data-name="Path 1029" d="M6.026,29.326a1.635,1.635,0,0,1-1.112-.461,1.548,1.548,0,0,1-.35-1.733,1.33,1.33,0,0,1,.35-.525,1.643,1.643,0,0,1,2.241,0,1.667,1.667,0,0,1,.35.525,1.573,1.573,0,0,1,.111.6,1.6,1.6,0,0,1-.461,1.129A1.644,1.644,0,0,1,6.026,29.326Z" transform="translate(-4.436 -26.166)" fill="#fff"/>
        </g>
        <g id="Group_1305" data-name="Group 1305" transform="translate(24.914 34.365)">
          <g id="Group_1303" data-name="Group 1303" transform="translate(26.631)">
            <path id="Path_1030" data-name="Path 1030" d="M39.85,44.448a6.63,6.63,0,0,1-6.614-6.63V34.892a1.59,1.59,0,1,1,3.18,0v2.927a3.442,3.442,0,1,0,6.884,0V34.892a1.59,1.59,0,0,1,3.18,0v2.927A6.638,6.638,0,0,1,39.85,44.448Z" transform="translate(-33.235 -33.302)" fill="#fff"/>
          </g>
          <g id="Group_1304" data-name="Group 1304">
            <path id="Path_1031" data-name="Path 1031" d="M23.1,44.448a6.63,6.63,0,0,1-6.614-6.63V34.892a1.59,1.59,0,0,1,3.18,0v2.927a3.442,3.442,0,1,0,6.884,0V34.892a1.59,1.59,0,0,1,3.18,0v2.927A6.638,6.638,0,0,1,23.1,44.448Z" transform="translate(-16.485 -33.302)" fill="#fff"/>
          </g>
        </g>
      </g>
    </g>
  </g>
</svg>
